<?xml version="1.0" encoding="UTF-8" standalone="no"?>
<!-- Created with Inkscape (http://www.inkscape.org/) -->

<svg
   width="324.24301mm"
   height="110.34537mm"
   viewBox="0 0 324.24301 110.34537"
   version="1.1"
   id="svg4920"
   inkscape:version="1.1.1 (3bf5ae0d25, 2021-09-20)"
   sodipodi:docname="base-plate.svg"
   xmlns:inkscape="http://www.inkscape.org/namespaces/inkscape"
   xmlns:sodipodi="http://sodipodi.sourceforge.net/DTD/sodipodi-0.dtd"
   xmlns="http://www.w3.org/2000/svg"
   xmlns:svg="http://www.w3.org/2000/svg">
  <sodipodi:namedview
     id="namedview4922"
     pagecolor="#505050"
     bordercolor="#ffffff"
     borderopacity="1"
     inkscape:pageshadow="0"
     inkscape:pageopacity="0"
     inkscape:pagecheckerboard="1"
     inkscape:document-units="mm"
     showgrid="false"
     inkscape:zoom="0.72337262"
     inkscape:cx="694.66274"
     inkscape:cy="391.9142"
     inkscape:window-width="1920"
     inkscape:window-height="1001"
     inkscape:window-x="-9"
     inkscape:window-y="-9"
     inkscape:window-maximized="1"
     inkscape:current-layer="layer1" />
  <defs
     id="defs4917" />
  <g
     inkscape:label="Layer 1"
     inkscape:groupmode="layer"
     id="layer1"
     transform="translate(78.72742,-45.04653)">
    <g
       id="g4958">
      <path
         d="m 245.5156,96.17109 c 0,28.23281 -72.58439,59.22081 -162.12151,59.22081 -89.53747,0 -162.12151,-30.988 -162.12151,-59.22081 0,-28.23634 72.58404,-43.02478 162.12151,-43.02478 89.53712,0 162.12151,14.78844 162.12151,43.02478"
         style="fill:#d3cfbc;fill-opacity:1;fill-rule:nonzero;stroke:none;stroke-width:0.0352778"
         id="path420" />
      <path
         d="m 245.5156,96.17109 c 0,28.23281 -72.58439,51.12103 -162.12151,51.12103 -89.53747,0 -162.12151,-22.88822 -162.12151,-51.12103 0,-28.23634 72.58404,-51.12456 162.12151,-51.12456 89.53712,0 162.12151,22.88822 162.12151,51.12456"
         style="fill:#e8e3cd;fill-opacity:1;fill-rule:nonzero;stroke:none;stroke-width:0.0352778"
         id="path422" />
      <path
         d="m -37.43125,123.17976 c -0.73095,0 -1.48696,-0.11289 -2.17346,-0.26811 -9.38636,-2.13431 -18.09927,-7.14023 -24.67011,-14.17462 -2.49237,-2.667 -4.7184,-5.68677 -5.82789,-9.16516 -0.88229,-2.76578 -1.35466,-7.60589 0.54646,-10.13531 0.81139,-1.08303 1.71062,-1.68628 2.4832,-1.68628 0.88336,0 1.6002,0.79022 1.82739,2.57528 0.81492,6.39939 4.82953,12.05442 9.82663,16.13253 4.99815,4.08164 10.95022,6.7945 16.86912,9.36272 1.27847,0.55739 2.60068,1.13595 3.53554,2.16959 0.93451,1.03363 1.36913,2.65994 0.63148,3.84175 -0.63395,1.016 -1.80482,1.34761 -3.04836,1.34761"
         style="fill:#f7f5ee;fill-opacity:1;fill-rule:nonzero;stroke:none;stroke-width:0.0352778"
         id="path424" />
      <path
         d="m -18.08244,131.9992 c -0.81492,0 -1.61079,-0.26811 -2.38478,-0.53269 -1.74555,-0.5962 -3.49144,-1.19239 -5.23699,-1.78859 -1.11725,-0.381 -2.33645,-0.84666 -2.88995,-1.89089 -0.51823,-0.97719 0.11712,-2.50119 1.14829,-2.50119 0.0713,0 0.14428,0.007 0.21872,0.0212 l -0.29139,-0.59267 c 0.17145,-0.004 0.34325,-0.007 0.5147,-0.007 3.15736,0 6.31225,0.82903 9.0611,2.38125 1.33738,0.75848 2.74355,2.18723 2.15688,3.60539 -0.33443,0.81139 -1.24813,1.25942 -2.12337,1.30175 -0.0579,0 -0.11571,0.004 -0.17321,0.004"
         style="fill:#f7f5ee;fill-opacity:1;fill-rule:nonzero;stroke:none;stroke-width:0.0352778"
         id="path426" />
      <path
         d="m 220.31174,118.25851 c -0.14711,0 -0.29139,-0.0212 -0.42439,-0.0811 -0.63218,-0.29634 -0.56515,-1.22414 -0.28469,-1.86267 1.2132,-2.76931 4.2418,-4.191 6.35141,-6.35706 3.00567,-3.07975 4.03225,-7.54238 4.69547,-11.79688 0.21872,-1.41464 0.4445,-2.91042 1.33703,-4.03578 0.67733,-0.85725 1.68275,-1.2312 2.72344,-1.2312 2.00025,0 4.13809,1.38642 4.35328,3.40431 0.16581,1.53458 -0.46919,3.03036 -1.15711,4.40972 -2.46239,4.93889 -5.80319,9.43681 -9.81781,13.22211 -2.10255,1.98261 -4.52613,3.83823 -7.38187,4.28978 -0.12947,0.0212 -0.26317,0.0388 -0.39476,0.0388"
         style="fill:#f7f5ee;fill-opacity:1;fill-rule:nonzero;stroke:none;stroke-width:0.0352778"
         id="path428" />
    </g>
  </g>
</svg>
