<?xml version="1.0" encoding="UTF-8" standalone="no"?>
<!-- Created with Inkscape (http://www.inkscape.org/) -->

<svg
   width="189.94554mm"
   height="114.73353mm"
   viewBox="0 0 189.94554 114.73353"
   version="1.1"
   id="svg8742"
   inkscape:version="1.1.1 (3bf5ae0d25, 2021-09-20)"
   sodipodi:docname="bread-bottom.svg"
   xmlns:inkscape="http://www.inkscape.org/namespaces/inkscape"
   xmlns:sodipodi="http://sodipodi.sourceforge.net/DTD/sodipodi-0.dtd"
   xmlns="http://www.w3.org/2000/svg"
   xmlns:svg="http://www.w3.org/2000/svg">
  <sodipodi:namedview
     id="namedview8744"
     pagecolor="#505050"
     bordercolor="#ffffff"
     borderopacity="1"
     inkscape:pageshadow="0"
     inkscape:pageopacity="0"
     inkscape:pagecheckerboard="1"
     inkscape:document-units="mm"
     showgrid="false"
     inkscape:zoom="0.72337262"
     inkscape:cx="364.26593"
     inkscape:cy="273.02665"
     inkscape:window-width="1920"
     inkscape:window-height="1001"
     inkscape:window-x="-9"
     inkscape:window-y="-9"
     inkscape:window-maximized="1"
     inkscape:current-layer="layer1" />
  <defs
     id="defs8739" />
  <g
     inkscape:label="Layer 1"
     inkscape:groupmode="layer"
     id="layer1"
     transform="translate(-8.9040737,-76.502692)">
    <g
       id="g8286"
       transform="matrix(0.35277777,0,0,-0.35277777,-298.18604,479.80754)">
      <path
         d="m 897.919,1051.23 c -15.995,-13.47 -33.674,-100.18 -25.256,-120.38 8.419,-20.21 33.686,-110.6 260.977,-112.81 260.13,-2.53 275.28,108.6 275.28,125.43 0,16.84 -17.68,93.45 -37.04,106.92 -18.8,13.08 -383.327,77.17 -473.961,0.84"
         style="fill:#ffa944;fill-opacity:1;fill-rule:nonzero;stroke:none;stroke-width:0.1"
         id="path16" />
      <path
         d="m 1120.38,1142.99 c -166.769,-4.35 -227.302,-58.93 -230.67,-126.27 -3.367,-67.35 65.665,-114.5 255.92,-112.81 186.91,1.65 226.46,59.77 232.35,95.97 11.62,71.38 -63.98,148.16 -257.6,143.11"
         style="fill:#ffeab7;fill-opacity:1;fill-rule:nonzero;stroke:none;stroke-width:0.1"
         id="path18" />
      <path
         d="m 915.183,1002.74 c 7.792,0 15.959,-0.2 23.479,2.68 4.198,1.6 2.405,9.73 -1.819,8.11 -6.949,-2.65 -14.46,-2.37 -21.66,-2.37 -4.412,0 -4.412,-8.42 0,-8.42"
         style="fill:#ffd38d;fill-opacity:1;fill-rule:nonzero;stroke:none;stroke-width:0.1"
         id="path20" />
      <path
         d="m 970.099,1021.83 c 5.464,1.34 10.92,2.3 16.559,2.38 5.424,0.07 5.431,8.49 0,8.42 -6.364,-0.09 -12.629,-1.17 -18.797,-2.68 -5.271,-1.29 -3.035,-9.41 2.238,-8.12"
         style="fill:#ffd38d;fill-opacity:1;fill-rule:nonzero;stroke:none;stroke-width:0.1"
         id="path22" />
      <path
         d="m 933.897,1037.68 c 3.701,0 7.401,0 11.101,0 3.362,0 6.167,1.91 6.167,4.21 0,2.29 -2.805,4.2 -6.167,4.2 -3.7,0 -7.4,0 -11.101,0 -3.361,0 -6.167,-1.91 -6.167,-4.2 0,-2.3 2.806,-4.21 6.167,-4.21"
         style="fill:#ffd38d;fill-opacity:1;fill-rule:nonzero;stroke:none;stroke-width:0.1"
         id="path24" />
      <path
         d="m 1013.17,1060.83 c 8.01,0 15.93,0.18 23.85,1.41 5.35,0.83 3.07,8.94 -2.24,8.12 -7.15,-1.11 -14.39,-1.11 -21.61,-1.12 -5.42,0 -5.42,-8.42 0,-8.41"
         style="fill:#ffd38d;fill-opacity:1;fill-rule:nonzero;stroke:none;stroke-width:0.1"
         id="path26" />
      <path
         d="m 966.454,1073.45 c 3.43,0.01 6.565,0.38 9.701,1.84 2.08,0.97 2.587,3.92 1.51,5.76 -1.239,2.11 -3.679,2.48 -5.759,1.51 -1.719,-0.8 -3.573,-0.69 -5.452,-0.69 -2.294,0 -4.209,-1.91 -4.209,-4.21 0,-2.29 1.915,-4.21 4.209,-4.21"
         style="fill:#ffd38d;fill-opacity:1;fill-rule:nonzero;stroke:none;stroke-width:0.1"
         id="path28" />
      <path
         d="m 1024.14,1100.54 c 1.77,0.82 4.57,0.69 6.71,0.69 5.43,0.01 5.43,8.42 0,8.42 -3.79,0 -7.47,-0.24 -10.96,-1.84 -2.09,-0.95 -2.58,-3.93 -1.51,-5.76 1.24,-2.12 3.67,-2.46 5.76,-1.51"
         style="fill:#ffd38d;fill-opacity:1;fill-rule:nonzero;stroke:none;stroke-width:0.1"
         id="path30" />
      <path
         d="m 1120.5,1077.24 c 6.74,0 13.47,0 20.21,0 5.43,0 5.43,8.42 0,8.42 -6.74,0 -13.47,0 -20.21,0 -5.42,0 -5.42,-8.42 0,-8.42"
         style="fill:#ffd38d;fill-opacity:1;fill-rule:nonzero;stroke:none;stroke-width:0.1"
         id="path32" />
      <path
         d="m 1068.73,1034.31 c 5.91,0 11.72,0.31 17.54,1.41 5.33,1.01 3.06,9.12 -2.24,8.12 -5.07,-0.96 -10.15,-1.11 -15.3,-1.11 -5.43,0 -5.43,-8.42 0,-8.42"
         style="fill:#ffd38d;fill-opacity:1;fill-rule:nonzero;stroke:none;stroke-width:0.1"
         id="path34" />
      <path
         d="m 1075.91,1089.18 c 2.25,1.05 6.5,1.68 9.38,0.84 5.23,-1.52 7.44,6.6 2.24,8.12 -5.1,1.48 -11.12,0.52 -15.87,-1.69 -4.92,-2.29 -0.64,-9.54 4.25,-7.27"
         style="fill:#ffd38d;fill-opacity:1;fill-rule:nonzero;stroke:none;stroke-width:0.1"
         id="path36" />
      <path
         d="m 1101.56,1116.38 c 3.79,0 7.58,0 11.37,0 5.43,0 5.43,8.42 0,8.42 -3.79,0 -7.58,0 -11.37,0 -5.42,0 -5.42,-8.42 0,-8.42"
         style="fill:#ffd38d;fill-opacity:1;fill-rule:nonzero;stroke:none;stroke-width:0.1"
         id="path38" />
      <path
         d="m 1195.15,1090.02 c 8.55,-2.59 17.6,-1.56 26.37,-2.68 5.38,-0.68 5.31,7.75 0,8.42 -8.01,1.02 -16.33,0.02 -24.13,2.38 -5.21,1.57 -7.42,-6.56 -2.24,-8.12"
         style="fill:#ffd38d;fill-opacity:1;fill-rule:nonzero;stroke:none;stroke-width:0.1"
         id="path40" />
      <path
         d="m 1177.33,1038.1 c 3.78,0 7.57,0 11.36,0 5.43,0 5.43,8.42 0,8.42 -3.79,0 -7.58,0 -11.36,0 -5.43,0 -5.43,-8.42 0,-8.42"
         style="fill:#ffd38d;fill-opacity:1;fill-rule:nonzero;stroke:none;stroke-width:0.1"
         id="path42" />
      <path
         d="m 1109.14,981.27 c 4.63,0 9.26,0 13.89,0 5.43,0 5.43,8.42 0,8.42 -4.63,0 -9.26,0 -13.89,0 -5.43,0 -5.43,-8.42 0,-8.42"
         style="fill:#ffd38d;fill-opacity:1;fill-rule:nonzero;stroke:none;stroke-width:0.1"
         id="path44" />
      <path
         d="m 984.132,974.96 c 1.684,0 3.368,0 5.051,0 2.295,0 4.209,1.92 4.209,4.21 0,2.29 -1.914,4.21 -4.209,4.21 -1.683,0 -3.367,0 -5.051,0 -2.295,0 -4.209,-1.92 -4.209,-4.21 0,-2.29 1.914,-4.21 4.209,-4.21"
         style="fill:#ffd38d;fill-opacity:1;fill-rule:nonzero;stroke:none;stroke-width:0.1"
         id="path46" />
      <path
         d="m 1030.85,991.38 c 5.43,0 5.43,8.41 0,8.41 -5.43,0 -5.43,-8.41 0,-8.41"
         style="fill:#ffd38d;fill-opacity:1;fill-rule:nonzero;stroke:none;stroke-width:0.1"
         id="path48" />
      <path
         d="m 1066.21,928.24 c 3.79,0 7.57,0 11.36,0 5.43,0 5.43,8.42 0,8.42 -3.79,0 -7.57,0 -11.36,0 -5.43,0 -5.43,-8.42 0,-8.42"
         style="fill:#ffd38d;fill-opacity:1;fill-rule:nonzero;stroke:none;stroke-width:0.1"
         id="path50" />
      <path
         d="m 1212.68,935.82 c 5.92,0.08 11.76,1.18 17.68,1.26 5.42,0.07 5.43,8.49 0,8.42 -5.92,-0.08 -11.76,-1.18 -17.68,-1.26 -5.42,-0.08 -5.43,-8.5 0,-8.42"
         style="fill:#ffd38d;fill-opacity:1;fill-rule:nonzero;stroke:none;stroke-width:0.1"
         id="path52" />
      <path
         d="m 1184.9,990.11 c 3.79,0 7.58,0 11.37,0 5.43,0 5.43,8.42 0,8.42 -3.79,0 -7.58,0 -11.37,0 -5.43,0 -5.43,-8.42 0,-8.42"
         style="fill:#ffd38d;fill-opacity:1;fill-rule:nonzero;stroke:none;stroke-width:0.1"
         id="path54" />
      <path
         d="m 1295.88,973.85 c 9.22,1.24 18.55,1.28 27.78,2.52 5.36,0.73 3.06,8.84 -2.24,8.12 -9.22,-1.24 -18.55,-1.28 -27.78,-2.52 -5.36,-0.72 -3.07,-8.84 2.24,-8.12"
         style="fill:#ffd38d;fill-opacity:1;fill-rule:nonzero;stroke:none;stroke-width:0.1"
         id="path56" />
      <path
         d="m 1241.58,1015.52 c 4.64,1.16 9.23,2.28 14.03,2.37 5.43,0.1 5.44,8.52 0,8.42 -5.54,-0.1 -10.91,-1.34 -16.27,-2.67 -5.26,-1.32 -3.03,-9.44 2.24,-8.12"
         style="fill:#ffd38d;fill-opacity:1;fill-rule:nonzero;stroke:none;stroke-width:0.1"
         id="path58" />
      <path
         d="m 1317.49,1029.26 c 3.36,0 6.73,0 10.1,0 5.43,0 5.43,8.42 0,8.42 -3.37,0 -6.74,0 -10.1,0 -5.43,0 -5.43,-8.42 0,-8.42"
         style="fill:#ffd38d;fill-opacity:1;fill-rule:nonzero;stroke:none;stroke-width:0.1"
         id="path60" />
      <path
         d="m 1262.9,1066.82 c 6.14,1.53 12.27,1.84 18.38,1.05 4.24,-0.56 5.44,7.77 1.19,8.33 -6.65,0.87 -13.47,0.57 -20.16,-1.09 -4.26,-1.06 -3.69,-9.35 0.59,-8.29"
         style="fill:#ffd38d;fill-opacity:1;fill-rule:nonzero;stroke:none;stroke-width:0.1"
         id="path62" />
      <path
         d="m 1181.11,1118.91 c 3.79,0 7.48,0.24 10.97,1.84 2.08,0.95 2.58,3.93 1.51,5.76 -1.25,2.12 -3.67,2.46 -5.76,1.51 -1.77,-0.82 -4.57,-0.69 -6.72,-0.69 -5.42,0 -5.42,-8.42 0,-8.42"
         style="fill:#ffd38d;fill-opacity:1;fill-rule:nonzero;stroke:none;stroke-width:0.1"
         id="path64" />
      <path
         d="m 1274.56,1097.44 c 2.94,0 5.89,0 8.83,0 5.43,0 5.43,8.42 0,8.42 -2.94,0 -5.89,0 -8.83,0 -5.43,0 -5.43,-8.42 0,-8.42"
         style="fill:#ffd38d;fill-opacity:1;fill-rule:nonzero;stroke:none;stroke-width:0.1"
         id="path66" />
      <path
         d="m 1083.76,1015.87 c -0.02,-0.43 -0.27,-0.82 -0.75,-1.19 0.23,0.18 -0.58,-0.16 -0.09,-0.05 -0.69,-0.16 -0.25,-0.03 -0.04,-0.02 0.15,0 0.3,0 0.46,0 1.14,0 2.1,0.96 2.1,2.11 0,1.14 -0.96,2.1 -2.1,2.1 -0.81,0 -1.57,-0.07 -2.31,-0.42 -0.97,-0.47 -1.43,-1.5 -1.48,-2.53 -0.06,-1.14 0.99,-2.1 2.1,-2.1 1.19,0 2.05,0.96 2.11,2.1"
         style="fill:#eac083;fill-opacity:1;fill-rule:nonzero;stroke:none;stroke-width:0.1"
         id="path68" />
      <path
         d="m 1136.37,1028.92 c 1.4,0 2.81,0 4.21,0 2.72,0 2.72,4.21 0,4.21 -1.4,0 -2.81,0 -4.21,0 -2.71,0 -2.71,-4.21 0,-4.21"
         style="fill:#eac083;fill-opacity:1;fill-rule:nonzero;stroke:none;stroke-width:0.1"
         id="path70" />
      <path
         d="m 1107.55,1058.16 c -0.27,-0.25 0.31,0.11 0.01,0.01 0.19,0.06 0.61,0.15 0.69,0.16 0.67,0.07 1.35,0.06 2.02,0.06 2.72,0 2.72,4.21 0,4.21 -2.02,-0.01 -4.1,-0.05 -5.69,-1.46 -0.86,-0.77 -0.78,-2.2 0,-2.98 0.84,-0.84 2.12,-0.76 2.97,0"
         style="fill:#eac083;fill-opacity:1;fill-rule:nonzero;stroke:none;stroke-width:0.1"
         id="path72" />
      <path
         d="m 1207.09,1066.81 c 1.12,0 2.24,0 3.36,0 1.15,0 2.11,0.95 2.11,2.1 0,1.15 -0.96,2.1 -2.11,2.1 -1.12,0 -2.24,0 -3.36,0 -1.15,0 -2.11,-0.95 -2.11,-2.1 0,-1.15 0.96,-2.1 2.11,-2.1"
         style="fill:#eac083;fill-opacity:1;fill-rule:nonzero;stroke:none;stroke-width:0.1"
         id="path74" />
      <path
         d="m 1171.73,1104.69 c 1.4,0 2.81,0 4.21,0 2.71,0 2.71,4.21 0,4.21 -1.4,0 -2.81,0 -4.21,0 -2.72,0 -2.72,-4.21 0,-4.21"
         style="fill:#eac083;fill-opacity:1;fill-rule:nonzero;stroke:none;stroke-width:0.1"
         id="path76" />
      <path
         d="m 1229.82,1103.85 c 0.28,0 0.56,0 0.84,0 1.15,0 2.1,0.95 2.1,2.1 0,1.15 -0.95,2.11 -2.1,2.11 -0.28,0 -0.56,0 -0.84,0 -1.15,0 -2.11,-0.96 -2.11,-2.11 0,-1.15 0.96,-2.1 2.11,-2.1"
         style="fill:#eac083;fill-opacity:1;fill-rule:nonzero;stroke:none;stroke-width:0.1"
         id="path78" />
      <path
         d="m 1011.78,1087.85 c 1.12,0 2.24,0 3.37,0 1.14,0 2.1,0.96 2.1,2.11 0,1.14 -0.96,2.1 -2.1,2.1 -1.13,0 -2.25,0 -3.37,0 -1.15,0 -2.11,-0.96 -2.11,-2.1 0,-1.15 0.96,-2.11 2.11,-2.11"
         style="fill:#eac083;fill-opacity:1;fill-rule:nonzero;stroke:none;stroke-width:0.1"
         id="path80" />
      <path
         d="m 1056.62,1110.87 c 1.25,0.58 2.64,0.55 3.99,0.55 2.71,0.01 2.71,4.21 0,4.21 -2.16,0 -4.14,-0.21 -6.12,-1.13 -1.04,-0.48 -1.29,-1.96 -0.75,-2.88 0.62,-1.05 1.84,-1.24 2.88,-0.75"
         style="fill:#eac083;fill-opacity:1;fill-rule:nonzero;stroke:none;stroke-width:0.1"
         id="path82" />
      <path
         d="m 982.313,1108.06 c 2.392,0 4.752,0.12 6.956,1.13 1.043,0.47 1.291,1.96 0.755,2.87 -0.622,1.07 -1.836,1.24 -2.879,0.76 -1.454,-0.67 -3.274,-0.55 -4.832,-0.55 -2.714,-0.01 -2.714,-4.22 0,-4.21"
         style="fill:#eac083;fill-opacity:1;fill-rule:nonzero;stroke:none;stroke-width:0.1"
         id="path84" />
      <path
         d="m 926.972,1067.93 c 1.251,0.59 2.641,0.56 3.989,0.56 2.714,0 2.714,4.21 0,4.21 -2.155,0 -4.14,-0.21 -6.113,-1.13 -1.04,-0.48 -1.294,-1.96 -0.755,-2.88 0.619,-1.06 1.839,-1.24 2.879,-0.76"
         style="fill:#eac083;fill-opacity:1;fill-rule:nonzero;stroke:none;stroke-width:0.1"
         id="path86" />
      <path
         d="m 965.477,1062.6 c 0.684,0.03 1.327,0.19 1.973,0.4 0.298,0.1 0.594,0.2 0.894,0.29 0.164,0.06 0.331,0.1 0.498,0.14 0.514,0.13 -0.452,-0.01 0.002,0.01 1.146,0.05 2.105,0.92 2.105,2.1 0,1.11 -0.958,2.16 -2.105,2.11 -0.684,-0.03 -1.327,-0.2 -1.973,-0.41 -0.298,-0.1 -0.595,-0.2 -0.893,-0.29 -0.165,-0.05 -0.332,-0.1 -0.5,-0.14 -0.513,-0.13 0.453,0.02 -10e-4,0 -1.146,-0.06 -2.105,-0.92 -2.105,-2.11 0,-1.11 0.958,-2.16 2.105,-2.1"
         style="fill:#eac083;fill-opacity:1;fill-rule:nonzero;stroke:none;stroke-width:0.1"
         id="path88" />
      <path
         d="m 912.44,1033.13 c 1.914,0 3.539,0.29 5.272,1.13 1.032,0.5 1.3,1.95 0.755,2.88 -0.613,1.05 -1.847,1.25 -2.88,0.75 -1.186,-0.57 -1.811,-0.55 -3.147,-0.55 -2.714,0 -2.714,-4.21 0,-4.21"
         style="fill:#eac083;fill-opacity:1;fill-rule:nonzero;stroke:none;stroke-width:0.1"
         id="path90" />
      <path
         d="m 1169.2,1002.82 c 1.41,0 2.81,0 4.21,0 2.72,0 2.72,4.21 0,4.21 -1.4,0 -2.8,0 -4.21,0 -2.71,0 -2.71,-4.21 0,-4.21"
         style="fill:#eac083;fill-opacity:1;fill-rule:nonzero;stroke:none;stroke-width:0.1"
         id="path92" />
      <path
         d="m 1242.73,1001.22 c 2.39,-0.77 4.79,-0.92 7.29,-0.92 2.72,0 2.72,4.21 0,4.21 -2.15,0 -4.11,0.11 -6.17,0.77 -2.6,0.82 -3.7,-3.24 -1.12,-4.06"
         style="fill:#eac083;fill-opacity:1;fill-rule:nonzero;stroke:none;stroke-width:0.1"
         id="path94" />
      <path
         d="m 1256.76,1044.92 c 2.02,0 4.1,0.04 5.69,1.46 0.86,0.76 0.78,2.2 0,2.97 -0.84,0.85 -2.12,0.76 -2.97,0 0.27,0.25 -0.31,-0.11 -0.01,0 -0.19,-0.07 -0.61,-0.16 -0.69,-0.16 -0.67,-0.08 -1.35,-0.06 -2.02,-0.06 -2.72,0 -2.72,-4.22 0,-4.21"
         style="fill:#eac083;fill-opacity:1;fill-rule:nonzero;stroke:none;stroke-width:0.1"
         id="path96" />
      <path
         d="m 1319.61,1041.63 c 2.31,0.71 4.62,0.76 7.02,0.76 2.71,0 2.71,4.21 0,4.21 -2.75,0 -5.49,-0.1 -8.14,-0.92 -2.58,-0.8 -1.48,-4.86 1.12,-4.05"
         style="fill:#eac083;fill-opacity:1;fill-rule:nonzero;stroke:none;stroke-width:0.1"
         id="path98" />
      <path
         d="m 1295.48,1071.86 c 1.4,0 2.81,0 4.21,0 2.71,0 2.71,4.21 0,4.21 -1.4,0 -2.81,0 -4.21,0 -2.71,0 -2.71,-4.21 0,-4.21"
         style="fill:#eac083;fill-opacity:1;fill-rule:nonzero;stroke:none;stroke-width:0.1"
         id="path100" />
      <path
         d="m 1299.69,1092.9 c 0.29,0 0.58,0 0.88,0 0.14,-0.01 1.08,-0.11 0.48,-0.01 0.14,-0.03 0.75,-0.25 0.2,-0.01 l 0.26,-0.14 c 0.43,-0.25 -0.33,0.31 0.06,-0.06 0.83,-0.79 2.15,-0.83 2.98,0 0.79,0.79 0.83,2.18 0,2.97 -1.38,1.32 -3.04,1.46 -4.86,1.46 -1.15,0 -2.1,-0.96 -2.1,-2.1 0,-1.15 0.95,-2.11 2.1,-2.11"
         style="fill:#eac083;fill-opacity:1;fill-rule:nonzero;stroke:none;stroke-width:0.1"
         id="path102" />
      <path
         d="m 1344.31,1051.65 c 2.24,0 4.49,0 6.73,0 2.72,0 2.72,4.21 0,4.21 -2.24,0 -4.49,0 -6.73,0 -2.72,0 -2.72,-4.21 0,-4.21"
         style="fill:#eac083;fill-opacity:1;fill-rule:nonzero;stroke:none;stroke-width:0.1"
         id="path104" />
      <path
         d="m 1331.9,1078.04 c 1.69,0.76 3.87,0.55 5.67,0.55 2.72,0 2.72,4.21 0,4.21 -2.66,0 -5.33,-0.01 -7.79,-1.13 -1.05,-0.47 -1.29,-1.97 -0.76,-2.88 0.63,-1.06 1.84,-1.23 2.88,-0.75"
         style="fill:#eac083;fill-opacity:1;fill-rule:nonzero;stroke:none;stroke-width:0.1"
         id="path106" />
      <path
         d="m 910.757,982.62 c 1.403,0 2.806,0 4.209,0 2.714,0 2.714,4.21 0,4.21 -1.403,0 -2.806,0 -4.209,0 -2.715,0 -2.715,-4.21 0,-4.21"
         style="fill:#eac083;fill-opacity:1;fill-rule:nonzero;stroke:none;stroke-width:0.1"
         id="path108" />
      <path
         d="m 971.37,1007.88 c 2.025,0 4.107,0.04 5.697,1.45 0.857,0.77 0.776,2.2 0,2.98 -0.846,0.85 -2.121,0.76 -2.976,0 0.276,0.25 -0.302,-0.11 -0.011,0 -0.185,-0.07 -0.605,-0.16 -0.689,-0.17 -0.669,-0.07 -1.349,-0.05 -2.021,-0.05 -2.715,-0.01 -2.715,-4.22 0,-4.21"
         style="fill:#eac083;fill-opacity:1;fill-rule:nonzero;stroke:none;stroke-width:0.1"
         id="path110" />
      <path
         d="m 1016.83,1044.92 c 1.96,0 3.93,0 5.89,0 2.72,0 2.72,4.21 0,4.21 -1.96,0 -3.93,0 -5.89,0 -2.71,0 -2.71,-4.21 0,-4.21"
         style="fill:#eac083;fill-opacity:1;fill-rule:nonzero;stroke:none;stroke-width:0.1"
         id="path112" />
      <path
         d="m 1053.03,1086.17 c 0.56,0 1.12,0 1.68,0 1.15,0 2.11,0.96 2.11,2.1 0,1.15 -0.96,2.11 -2.11,2.11 -0.56,0 -1.12,0 -1.68,0 -1.15,0 -2.11,-0.96 -2.11,-2.11 0,-1.14 0.96,-2.1 2.11,-2.1"
         style="fill:#eac083;fill-opacity:1;fill-rule:nonzero;stroke:none;stroke-width:0.1"
         id="path114" />
      <path
         d="m 1079.13,1129.94 c 2.39,0 4.75,0.12 6.95,1.13 1.04,0.48 1.29,1.97 0.76,2.88 -0.63,1.06 -1.84,1.24 -2.88,0.76 -1.46,-0.67 -3.28,-0.56 -4.83,-0.56 -2.72,0 -2.72,-4.21 0,-4.21"
         style="fill:#eac083;fill-opacity:1;fill-rule:nonzero;stroke:none;stroke-width:0.1"
         id="path116" />
      <path
         d="m 1146.47,1131.63 c 1.13,0 2.25,0 3.37,0 1.15,0 2.11,0.95 2.11,2.1 0,1.15 -0.96,2.11 -2.11,2.11 -1.12,0 -2.24,0 -3.37,0 -1.14,0 -2.1,-0.96 -2.1,-2.11 0,-1.15 0.96,-2.1 2.1,-2.1"
         style="fill:#eac083;fill-opacity:1;fill-rule:nonzero;stroke:none;stroke-width:0.1"
         id="path118" />
      <path
         d="m 1020.2,946.42 c 1.12,0 2.24,0 3.36,0 1.15,0 2.11,0.96 2.11,2.11 0,1.14 -0.96,2.1 -2.11,2.1 -1.12,0 -2.24,0 -3.36,0 -1.15,0 -2.11,-0.96 -2.11,-2.1 0,-1.15 0.96,-2.11 2.11,-2.11"
         style="fill:#eac083;fill-opacity:1;fill-rule:nonzero;stroke:none;stroke-width:0.1"
         id="path120" />
      <path
         d="m 1168.36,932.11 c 0.28,0 0.56,0 0.84,0 1.15,0 2.11,0.96 2.11,2.1 0,1.15 -0.96,2.11 -2.11,2.11 -0.28,0 -0.56,0 -0.84,0 -1.15,0 -2.1,-0.96 -2.1,-2.11 0,-1.14 0.95,-2.1 2.1,-2.1"
         style="fill:#eac083;fill-opacity:1;fill-rule:nonzero;stroke:none;stroke-width:0.1"
         id="path122" />
      <path
         d="m 1251.93,975.33 c 1.25,0.58 2.64,0.55 3.98,0.55 2.72,0.01 2.72,4.22 0,4.21 -2.15,0 -4.14,-0.21 -6.11,-1.12 -1.04,-0.49 -1.29,-1.97 -0.75,-2.88 0.62,-1.06 1.83,-1.24 2.88,-0.76"
         style="fill:#eac083;fill-opacity:1;fill-rule:nonzero;stroke:none;stroke-width:0.1"
         id="path124" />
      <path
         d="m 1281.17,947.26 c 0.28,0 0.56,0 0.84,0 1.15,0 2.11,0.96 2.11,2.11 0,1.14 -0.96,2.1 -2.11,2.1 -0.28,0 -0.56,0 -0.84,0 -1.15,0 -2.11,-0.96 -2.11,-2.1 0,-1.15 0.96,-2.11 2.11,-2.11"
         style="fill:#eac083;fill-opacity:1;fill-rule:nonzero;stroke:none;stroke-width:0.1"
         id="path126" />
      <path
         d="m 1347.9,1011.53 c 1.61,0.75 3.42,0.93 5.05,1.68 1.04,0.49 1.29,1.96 0.75,2.88 -0.62,1.06 -1.84,1.24 -2.88,0.76 -1.61,-0.75 -3.42,-0.93 -5.05,-1.69 -1.04,-0.48 -1.29,-1.95 -0.75,-2.87 0.62,-1.06 1.84,-1.24 2.88,-0.76"
         style="fill:#eac083;fill-opacity:1;fill-rule:nonzero;stroke:none;stroke-width:0.1"
         id="path128" />
      <path
         d="m 1048.12,861.24 c -14.76,6.16 -29.41,12.83 -43.92,19.28 -22.749,10.12 -46.68,16.22 -69.41,26.52 -16.342,7.42 -29.629,13.91 -39.809,25.4 0.442,9.3 3.925,16.51 13.25,16.51 5.893,0 22.309,-24.21 61.876,-35.36 13.917,-3.92 36.373,-8.23 50.513,-9.68 10.63,-1.09 21.86,-2.32 27.99,-12.61 4.18,-7.02 3.03,-19.82 -0.49,-30.06"
         style="fill:#ffb94c;fill-opacity:1;fill-rule:nonzero;stroke:none;stroke-width:0.1"
         id="path130" />
      <path
         d="m 1408.92,943.47 c 0,6.05 -2.28,19.78 -6.09,35.54 -1.12,-0.68 -2.15,-1.57 -3,-2.73 -3.28,-4.42 -2.15,-13.78 -2.9,-19.34 -1.1,-8.09 -3.78,-12.11 -8.84,-18.75 -8.83,-11.58 -15.52,-23.99 -27.81,-32.85 -12.79,-9.22 -27.95,-20.43 -43.27,-25.19 -20.19,-6.28 -41.27,-9.73 -61.96,-13.94 -19.32,-3.93 -36.26,-13.59 -55.54,-18.07 -41.39,-9.64 -91.77,-9.7 -132.19,5.47 -21.26,7.97 -42.34,17.67 -63.12,26.91 -22.749,10.12 -46.68,16.22 -69.41,26.52 -23.211,10.53 -40.26,19.21 -50.996,42.98 -2.309,5.11 -3.453,11.89 -8.817,15.13 -1.05,0.64 -2.148,1.06 -3.248,1.28 -1.779,-15.65 -1.78,-29.07 0.933,-35.58 8.419,-20.21 33.685,-110.6 260.968,-112.81 260.14,-2.53 275.29,108.6 275.29,125.43"
         style="fill:#f68d32;fill-opacity:1;fill-rule:nonzero;stroke:none;stroke-width:0.1"
         id="path132" />
      <path
         d="m 1016.47,839.08 c -4.53,0 -9.07,0.57 -13.27,1.4 -31.668,6.29 -63.336,13.79 -87.534,37.68 -10.227,10.09 -16.648,24.44 -19.362,38.09 -1.063,5.34 -0.968,10.08 -0.222,14.55 10.012,-10.65 22.88,-16.93 38.567,-24.04 22.729,-10.31 46.66,-16.41 69.411,-26.53 14.5,-6.45 29.16,-13.11 43.92,-19.27 -1.67,-4.83 -3.86,-9.1 -6.26,-11.91 -6.45,-7.54 -15.85,-9.97 -25.25,-9.97"
         style="fill:#f89738;fill-opacity:1;fill-rule:nonzero;stroke:none;stroke-width:0.1"
         id="path134" />
    </g>
  </g>
</svg>
