<?xml version="1.0" encoding="UTF-8" standalone="no"?>
<!-- Created with Inkscape (http://www.inkscape.org/) -->

<svg
   width="184.70126mm"
   height="88.161377mm"
   viewBox="0 0 184.70126 88.161377"
   version="1.1"
   id="svg9698"
   inkscape:version="1.1.1 (3bf5ae0d25, 2021-09-20)"
   sodipodi:docname="burger-meat.svg"
   xmlns:inkscape="http://www.inkscape.org/namespaces/inkscape"
   xmlns:sodipodi="http://sodipodi.sourceforge.net/DTD/sodipodi-0.dtd"
   xmlns="http://www.w3.org/2000/svg"
   xmlns:svg="http://www.w3.org/2000/svg">
  <sodipodi:namedview
     id="namedview9700"
     pagecolor="#505050"
     bordercolor="#ffffff"
     borderopacity="1"
     inkscape:pageshadow="0"
     inkscape:pageopacity="0"
     inkscape:pagecheckerboard="1"
     inkscape:document-units="mm"
     showgrid="false"
     inkscape:zoom="0.72337262"
     inkscape:cx="358.73628"
     inkscape:cy="132.02048"
     inkscape:window-width="1920"
     inkscape:window-height="1001"
     inkscape:window-x="-9"
     inkscape:window-y="-9"
     inkscape:window-maximized="1"
     inkscape:current-layer="layer1" />
  <defs
     id="defs9695" />
  <g
     inkscape:label="Layer 1"
     inkscape:groupmode="layer"
     id="layer1"
     transform="translate(-10.063163,-113.92916)">
    <g
       id="g9270"
       transform="matrix(0.35277777,0,0,-0.35277777,-299.64912,379.98768)">
      <path
         d="m 1352.12,708.75 c -37.59,18.36 -391.46,23.63 -434.884,-3.19 -40.232,-25.54 -40.232,-78.55 -38.954,-98.98 1.277,-20.44 26.182,-106.01 259.908,-102.18 233.73,3.84 251.73,73.39 258.63,86.22 8.94,16.6 10.22,91.31 -44.7,118.13"
         style="fill:#893c29;fill-opacity:1;fill-rule:nonzero;stroke:none;stroke-width:0.1"
         id="path252" />
      <path
         d="M 1117.12,754.1 C 962.583,752.15 888.499,703.01 888.499,650.64 c 0,-48.6 89.403,-84.29 222.231,-88.12 132.83,-3.83 262.46,31.93 272.04,84.93 9.32,51.55 -62.58,109.2 -265.65,106.65"
         style="fill:#c25739;fill-opacity:1;fill-rule:nonzero;stroke:none;stroke-width:0.1"
         id="path254" />
      <path
         d="m 897.439,648.09 c 0.639,-21.71 22.352,-47.26 79.186,-61.95 113.665,-29.37 258.295,-17.05 254.165,-10.85 -5.11,7.66 -61.19,-16.55 -231.814,15.33 -27.789,5.19 -51.084,14.27 -65.775,26.18 -16.03,12.99 -22.198,28.91 -22.351,36.4 -0.639,31.29 21.713,39.59 13.411,43.42 -4.675,2.16 -27.949,-10.18 -26.822,-48.53"
         style="fill:#f9735d;fill-opacity:1;fill-rule:nonzero;stroke:none;stroke-width:0.1"
         id="path256" />
      <path
         d="m 1012.18,737.77 c -5.9,-0.37 -20.002,-15.55 -44.717,-46.09 -24.714,-30.55 -47.663,-58.31 -37.66,-61.65 10.004,-3.33 35.895,32.21 51.783,53.87 15.888,21.66 48.254,54.98 30.594,53.87"
         style="fill:#893c29;fill-opacity:1;fill-rule:nonzero;stroke:none;stroke-width:0.1"
         id="path258" />
      <path
         d="m 1087.74,742.67 c -6.39,-0.53 -37.56,-39.31 -63.45,-71.66 -25.902,-32.35 -52.87,-65.89 -41.917,-69.1 10.952,-3.2 40.877,38.49 57.467,61.39 16.59,22.89 67.02,80.98 47.9,79.37"
         style="fill:#893c29;fill-opacity:1;fill-rule:nonzero;stroke:none;stroke-width:0.1"
         id="path260" />
      <path
         d="m 1171.4,743.25 c -6.37,-0.7 -38.98,-48.62 -63.39,-81.9 -24.41,-33.28 -56.67,-72.7 -40.7,-72.7 11.51,0 41.05,42.08 56.59,65.57 15.53,23.49 73.68,91.91 47.5,89.03"
         style="fill:#893c29;fill-opacity:1;fill-rule:nonzero;stroke:none;stroke-width:0.1"
         id="path262" />
      <path
         d="m 1258.44,735.09 c -6.39,0.55 -39.57,-42.51 -64.92,-75.22 -25.34,-32.7 -58.72,-71.36 -42.76,-71.73 11.51,-0.27 42.25,41.11 58.45,64.24 16.2,23.12 67.71,81.13 49.23,82.71"
         style="fill:#893c29;fill-opacity:1;fill-rule:nonzero;stroke:none;stroke-width:0.1"
         id="path264" />
      <path
         d="m 1331.78,712.72 c -5.14,0.31 -30.85,-34.41 -50.49,-60.77 -19.64,-26.36 -45.6,-57.6 -32.77,-57.59 9.25,0.01 33.03,33.35 45.53,51.96 12.51,18.61 52.61,65.5 37.73,66.4"
         style="fill:#893c29;fill-opacity:1;fill-rule:nonzero;stroke:none;stroke-width:0.1"
         id="path266" />
      <path
         d="m 933.368,681.83 c 1.687,0.8 3.596,1.18 5.366,1.76 1.948,0.64 1.114,3.72 -0.849,3.08 -2.046,-0.67 -4.177,-1.15 -6.129,-2.08 -1.859,-0.88 -0.238,-3.63 1.612,-2.76"
         style="fill:#893c29;fill-opacity:1;fill-rule:nonzero;stroke:none;stroke-width:0.1"
         id="path268" />
      <path
         d="m 935.755,695.66 c 1.65,-0.03 3.143,-0.69 4.684,-1.22 1.956,-0.66 2.788,2.42 0.85,3.08 -1.837,0.63 -3.567,1.29 -5.534,1.34 -2.06,0.04 -2.056,-3.15 0,-3.2"
         style="fill:#893c29;fill-opacity:1;fill-rule:nonzero;stroke:none;stroke-width:0.1"
         id="path270" />
      <path
         d="m 949.953,707.63 c 1.484,-1.45 3.228,-2.31 5.174,-2.97 1.956,-0.66 2.788,2.42 0.849,3.08 -1.418,0.48 -2.684,1.09 -3.766,2.14 -1.474,1.44 -3.734,-0.81 -2.257,-2.25"
         style="fill:#893c29;fill-opacity:1;fill-rule:nonzero;stroke:none;stroke-width:0.1"
         id="path272" />
      <path
         d="m 950.443,691.83 c 2.022,0 4.042,0.01 5.914,0.86 0.793,0.36 0.978,1.49 0.573,2.18 -0.473,0.81 -1.391,0.93 -2.184,0.58 -1.281,-0.58 -2.938,-0.42 -4.303,-0.42 -2.059,-0.01 -2.059,-3.2 0,-3.2"
         style="fill:#893c29;fill-opacity:1;fill-rule:nonzero;stroke:none;stroke-width:0.1"
         id="path274" />
      <path
         d="m 966.832,706.58 c 2.224,0.78 4.177,2.05 6.129,3.35 1.704,1.14 0.107,3.9 -1.612,2.76 -1.702,-1.14 -3.424,-2.35 -5.366,-3.03 -1.927,-0.69 -1.097,-3.77 0.849,-3.08"
         style="fill:#893c29;fill-opacity:1;fill-rule:nonzero;stroke:none;stroke-width:0.1"
         id="path276" />
      <path
         d="m 965.345,721.26 c 2.422,-0.8 4.705,-1.2 7.235,-0.63 2.009,0.44 1.157,3.52 -0.85,3.08 -1.955,-0.44 -3.681,0.02 -5.537,0.63 -1.959,0.66 -2.792,-2.43 -0.848,-3.08"
         style="fill:#893c29;fill-opacity:1;fill-rule:nonzero;stroke:none;stroke-width:0.1"
         id="path278" />
      <path
         d="m 985.565,724.4 c 0.609,0 1.191,0.06 1.748,0.32 0.739,0.36 1.09,1.14 1.126,1.92 0.041,0.87 -0.757,1.59 -1.596,1.59 -0.902,0 -1.556,-0.73 -1.597,-1.59 0.016,0.32 0.2,0.62 0.568,0.9 -0.175,-0.13 0.437,0.13 0.067,0.04 0.522,0.12 0.188,0.02 0.029,0.02 -0.115,-0.01 -0.23,-0.01 -0.345,-0.01 -0.87,0 -1.596,-0.72 -1.596,-1.59 0,-0.87 0.726,-1.6 1.596,-1.6"
         style="fill:#893c29;fill-opacity:1;fill-rule:nonzero;stroke:none;stroke-width:0.1"
         id="path280" />
      <path
         d="m 922.664,658.31 c 0.035,-1.86 1.103,-3.12 2.707,-3.94 0.775,-0.39 1.726,-0.21 2.184,0.58 0.42,0.71 0.202,1.79 -0.573,2.18 -0.219,0.11 -0.434,0.23 -0.644,0.36 -0.053,0.03 -0.403,0.3 -0.097,0.05 -0.094,0.08 -0.177,0.16 -0.261,0.25 -0.268,0.27 0.181,-0.28 -0.023,0.04 -0.055,0.08 -0.168,0.41 -0.028,0.02 -0.041,0.12 -0.064,0.24 -0.087,0.35 0.08,-0.4 0.016,0.02 0.015,0.11 -0.016,0.87 -0.714,1.59 -1.596,1.59 -0.858,0 -1.614,-0.72 -1.597,-1.59"
         style="fill:#893c29;fill-opacity:1;fill-rule:nonzero;stroke:none;stroke-width:0.1"
         id="path282" />
      <path
         d="m 925.047,671.87 c 0.869,-0.83 1.873,-1.11 3.045,-1.11 0.87,0 1.596,0.73 1.596,1.6 0,0.87 -0.726,1.59 -1.596,1.59 -0.107,0 -0.213,0 -0.319,0.01 -0.114,0 -0.585,0.07 -0.108,-0.01 -0.111,0.02 -0.524,0.2 -0.151,0.02 l -0.213,0.13 c 0.146,-0.11 0.148,-0.1 0.004,0.02 -0.632,0.6 -1.63,0.63 -2.258,0 -0.602,-0.6 -0.632,-1.66 0,-2.25"
         style="fill:#893c29;fill-opacity:1;fill-rule:nonzero;stroke:none;stroke-width:0.1"
         id="path284" />
      <path
         d="m 982.373,666.29 c 1.277,0 2.554,0 3.831,0 2.059,0 2.059,3.19 0,3.19 -1.277,0 -2.554,0 -3.831,0 -2.06,0 -2.06,-3.19 0,-3.19"
         style="fill:#893c29;fill-opacity:1;fill-rule:nonzero;stroke:none;stroke-width:0.1"
         id="path286" />
      <path
         d="m 990.46,681.67 c 1.882,0.59 3.865,0.69 5.748,1.28 1.959,0.61 1.123,3.69 -0.849,3.08 -1.882,-0.59 -3.865,-0.69 -5.748,-1.28 -1.96,-0.61 -1.123,-3.69 0.849,-3.08"
         style="fill:#893c29;fill-opacity:1;fill-rule:nonzero;stroke:none;stroke-width:0.1"
         id="path288" />
      <path
         d="m 1023.46,687.42 c 1.79,-0.6 3.62,-1.27 5.53,-1.34 2.06,-0.06 2.05,3.13 0,3.2 -1.59,0.05 -3.19,0.72 -4.68,1.22 -1.96,0.65 -2.8,-2.43 -0.85,-3.08"
         style="fill:#893c29;fill-opacity:1;fill-rule:nonzero;stroke:none;stroke-width:0.1"
         id="path290" />
      <path
         d="m 1013.17,699.32 c 0.64,-0.63 1.28,-1.27 1.92,-1.91 0.61,-0.62 1.64,-0.62 2.26,0 0.61,0.61 0.61,1.64 0,2.26 -0.64,0.63 -1.28,1.27 -1.92,1.91 -0.61,0.62 -1.64,0.62 -2.26,0 -0.61,-0.61 -0.61,-1.64 0,-2.26"
         style="fill:#893c29;fill-opacity:1;fill-rule:nonzero;stroke:none;stroke-width:0.1"
         id="path292" />
      <path
         d="m 1004.08,703.97 c 1.28,0.07 2.19,0.88 3.05,1.74 0.62,0.62 0.61,1.64 0,2.26 -0.62,0.61 -1.64,0.61 -2.26,0 -0.24,-0.24 -0.48,-0.48 -0.74,-0.71 -0.15,-0.12 -0.15,-0.12 0,0 l -0.21,-0.13 c -0.16,-0.08 -0.14,-0.07 0.06,0.02 -0.18,-0.04 -0.14,-0.04 0.1,0.01 -0.86,-0.05 -1.59,-0.69 -1.59,-1.6 0,-0.83 0.72,-1.64 1.59,-1.59"
         style="fill:#893c29;fill-opacity:1;fill-rule:nonzero;stroke:none;stroke-width:0.1"
         id="path294" />
      <path
         d="m 1014.94,716.1 c 3.19,0 6.39,0 9.58,0 2.06,0 2.06,3.19 0,3.19 -3.19,0 -6.39,0 -9.58,0 -2.06,0 -2.06,-3.19 0,-3.19"
         style="fill:#893c29;fill-opacity:1;fill-rule:nonzero;stroke:none;stroke-width:0.1"
         id="path296" />
      <path
         d="m 1023.88,730.79 c 1.63,0 3.12,-0.09 4.69,-0.58 1.96,-0.63 2.8,2.45 0.84,3.07 -1.81,0.58 -3.64,0.7 -5.53,0.7 -2.06,0 -2.06,-3.19 0,-3.19"
         style="fill:#893c29;fill-opacity:1;fill-rule:nonzero;stroke:none;stroke-width:0.1"
         id="path298" />
      <path
         d="m 1041.12,741 c 2.13,0 4.26,0 6.39,0 2.06,0 2.06,3.2 0,3.2 -2.13,0 -4.26,0 -6.39,0 -2.06,0 -2.06,-3.2 0,-3.2"
         style="fill:#893c29;fill-opacity:1;fill-rule:nonzero;stroke:none;stroke-width:0.1"
         id="path300" />
      <path
         d="m 1053.4,733.17 c 1.2,-1.16 2.64,-2.03 3.84,-3.19 1.47,-1.44 3.73,0.82 2.25,2.25 -1.19,1.17 -2.63,2.03 -3.83,3.2 -1.47,1.43 -3.73,-0.82 -2.26,-2.26"
         style="fill:#893c29;fill-opacity:1;fill-rule:nonzero;stroke:none;stroke-width:0.1"
         id="path302" />
      <path
         d="m 1040.63,726.78 c 1.38,-1.4 2.46,-3.06 3.83,-4.47 1.45,-1.47 3.7,0.79 2.26,2.26 -1.37,1.41 -2.46,3.06 -3.83,4.47 -1.44,1.48 -3.7,-0.78 -2.26,-2.26"
         style="fill:#893c29;fill-opacity:1;fill-rule:nonzero;stroke:none;stroke-width:0.1"
         id="path304" />
      <path
         d="m 1032.18,705.88 c 1.71,0 3.41,0 5.11,0 2.06,0 2.06,3.19 0,3.19 -1.7,0 -3.4,0 -5.11,0 -2.06,0 -2.06,-3.19 0,-3.19"
         style="fill:#893c29;fill-opacity:1;fill-rule:nonzero;stroke:none;stroke-width:0.1"
         id="path306" />
      <path
         d="m 1050.06,713.54 c 1.49,0 2.98,0 4.47,0 2.06,0 2.06,3.2 0,3.2 -1.49,0 -2.98,0 -4.47,0 -2.06,0 -2.06,-3.2 0,-3.2"
         style="fill:#893c29;fill-opacity:1;fill-rule:nonzero;stroke:none;stroke-width:0.1"
         id="path308" />
      <path
         d="m 1066.83,726.53 c 0.95,0.45 2.01,0.42 3.03,0.43 2.06,0 2.06,3.19 0,3.19 -1.63,0 -3.14,-0.16 -4.64,-0.86 -0.79,-0.37 -0.98,-1.49 -0.57,-2.18 0.47,-0.81 1.39,-0.94 2.18,-0.58"
         style="fill:#893c29;fill-opacity:1;fill-rule:nonzero;stroke:none;stroke-width:0.1"
         id="path310" />
      <path
         d="m 1067.94,741 c 1.92,0 3.84,0 5.75,0 2.06,0 2.06,3.2 0,3.2 -1.91,0 -3.83,0 -5.75,0 -2.05,0 -2.05,-3.2 0,-3.2"
         style="fill:#893c29;fill-opacity:1;fill-rule:nonzero;stroke:none;stroke-width:0.1"
         id="path312" />
      <path
         d="m 1099.24,747.39 c 1.78,0 3.39,-0.09 4.94,-1.06 1.75,-1.09 3.35,1.67 1.61,2.76 -2.02,1.26 -4.22,1.49 -6.55,1.49 -2.06,0 -2.06,-3.19 0,-3.19"
         style="fill:#893c29;fill-opacity:1;fill-rule:nonzero;stroke:none;stroke-width:0.1"
         id="path314" />
      <path
         d="m 1099.71,736.11 c 1.36,-0.72 2.43,-1.86 3.51,-2.94 1.45,-1.46 3.71,0.8 2.25,2.26 -1.26,1.26 -2.55,2.6 -4.15,3.44 -1.82,0.96 -3.44,-1.8 -1.61,-2.76"
         style="fill:#893c29;fill-opacity:1;fill-rule:nonzero;stroke:none;stroke-width:0.1"
         id="path316" />
      <path
         d="m 1085.19,715.46 c 1.63,0 3.12,-0.08 4.68,-0.58 1.97,-0.63 2.8,2.46 0.85,3.08 -1.82,0.58 -3.64,0.69 -5.53,0.69 -2.06,0 -2.06,-3.19 0,-3.19"
         style="fill:#893c29;fill-opacity:1;fill-rule:nonzero;stroke:none;stroke-width:0.1"
         id="path318" />
      <path
         d="m 1065.86,693.97 c 1.24,-0.58 2.61,-0.71 3.83,-1.28 0.79,-0.37 1.72,-0.23 2.19,0.57 0.41,0.7 0.21,1.82 -0.58,2.19 -1.23,0.57 -2.61,0.7 -3.83,1.27 -0.79,0.37 -1.71,0.23 -2.18,-0.57 -0.41,-0.7 -0.22,-1.82 0.57,-2.18"
         style="fill:#893c29;fill-opacity:1;fill-rule:nonzero;stroke:none;stroke-width:0.1"
         id="path320" />
      <path
         d="m 1098.28,697.26 c 0,-2.52 0.11,-4.98 0.69,-7.45 0.48,-2 3.56,-1.15 3.08,0.85 -0.52,2.19 -0.58,4.36 -0.58,6.6 0,2.06 -3.19,2.06 -3.19,0"
         style="fill:#893c29;fill-opacity:1;fill-rule:nonzero;stroke:none;stroke-width:0.1"
         id="path322" />
      <path
         d="m 1087.42,704.92 c 0,-1.06 0,-2.13 0,-3.19 0,-2.06 3.19,-2.06 3.19,0 0,1.06 0,2.13 0,3.19 0,2.06 -3.19,2.06 -3.19,0"
         style="fill:#893c29;fill-opacity:1;fill-rule:nonzero;stroke:none;stroke-width:0.1"
         id="path324" />
      <path
         d="m 1079.27,683.75 c 1.87,-0.9 3.84,-1.45 5.92,-1.5 2.06,-0.04 2.05,3.15 0,3.2 -1.5,0.03 -2.96,0.41 -4.31,1.06 -1.84,0.89 -3.46,-1.87 -1.61,-2.76"
         style="fill:#893c29;fill-opacity:1;fill-rule:nonzero;stroke:none;stroke-width:0.1"
         id="path326" />
      <path
         d="m 1120.14,697.8 c 1.24,-0.58 2.61,-0.71 3.83,-1.28 0.79,-0.37 1.72,-0.23 2.19,0.57 0.41,0.7 0.21,1.82 -0.58,2.19 -1.23,0.57 -2.61,0.71 -3.83,1.27 -0.79,0.37 -1.71,0.23 -2.18,-0.57 -0.41,-0.7 -0.22,-1.81 0.57,-2.18"
         style="fill:#893c29;fill-opacity:1;fill-rule:nonzero;stroke:none;stroke-width:0.1"
         id="path328" />
      <path
         d="m 1105.62,710.99 c 1.89,0 3.72,0.12 5.53,0.7 1.96,0.62 1.12,3.7 -0.84,3.07 -1.57,-0.49 -3.06,-0.58 -4.69,-0.58 -2.06,0 -2.06,-3.19 0,-3.19"
         style="fill:#893c29;fill-opacity:1;fill-rule:nonzero;stroke:none;stroke-width:0.1"
         id="path330" />
      <path
         d="m 1121.1,727.42 c 1.48,-1.44 3.22,-2.3 5.17,-2.96 1.96,-0.67 2.79,2.42 0.85,3.08 -1.42,0.48 -2.68,1.09 -3.77,2.14 -1.47,1.44 -3.73,-0.82 -2.25,-2.26"
         style="fill:#893c29;fill-opacity:1;fill-rule:nonzero;stroke:none;stroke-width:0.1"
         id="path332" />
      <path
         d="m 1117.59,741.86 c 1.23,-0.57 2.61,-0.71 3.83,-1.28 0.79,-0.36 1.71,-0.23 2.18,0.58 0.41,0.69 0.22,1.81 -0.57,2.18 -1.23,0.58 -2.61,0.71 -3.83,1.28 -0.79,0.37 -1.72,0.23 -2.19,-0.58 -0.4,-0.69 -0.21,-1.81 0.58,-2.18"
         style="fill:#893c29;fill-opacity:1;fill-rule:nonzero;stroke:none;stroke-width:0.1"
         id="path334" />
      <path
         d="m 1139.2,746.65 c 0.65,-2.08 0.78,-4.28 1.28,-6.39 0.48,-2 3.56,-1.15 3.08,0.85 -0.5,2.11 -0.63,4.31 -1.28,6.39 -0.61,1.95 -3.69,1.12 -3.08,-0.85"
         style="fill:#893c29;fill-opacity:1;fill-rule:nonzero;stroke:none;stroke-width:0.1"
         id="path336" />
      <path
         d="m 1155.75,745.16 c 0,-1.28 0,-2.56 0,-3.84 0,-2.06 3.19,-2.06 3.19,0 0,1.28 0,2.56 0,3.84 0,2.05 -3.19,2.05 -3.19,0"
         style="fill:#893c29;fill-opacity:1;fill-rule:nonzero;stroke:none;stroke-width:0.1"
         id="path338" />
      <path
         d="m 1139.62,730.62 c 1.48,-1.45 3.22,-2.31 5.17,-2.97 1.96,-0.66 2.79,2.42 0.85,3.08 -1.42,0.48 -2.69,1.09 -3.77,2.14 -1.47,1.44 -3.73,-0.82 -2.25,-2.25"
         style="fill:#893c29;fill-opacity:1;fill-rule:nonzero;stroke:none;stroke-width:0.1"
         id="path340" />
      <path
         d="m 1058.51,668.67 c 0.64,-0.64 1.28,-1.28 1.92,-1.91 0.61,-0.62 1.64,-0.62 2.26,0 0.61,0.61 0.61,1.64 0,2.25 -0.64,0.64 -1.28,1.28 -1.92,1.92 -0.61,0.61 -1.64,0.61 -2.26,0 -0.61,-0.62 -0.61,-1.64 0,-2.26"
         style="fill:#893c29;fill-opacity:1;fill-rule:nonzero;stroke:none;stroke-width:0.1"
         id="path342" />
      <path
         d="m 1047.02,650.15 c 0.87,-0.82 1.87,-1.1 3.04,-1.1 0.87,0 1.6,0.72 1.6,1.59 0,0.87 -0.73,1.6 -1.6,1.6 -0.1,0 -0.21,0 -0.32,0 -0.11,0 -0.58,0.08 -0.1,0 -0.11,0.02 -0.53,0.2 -0.15,0.02 l -0.22,0.13 c 0.15,-0.11 0.15,-0.11 0.01,0.02 -0.64,0.6 -1.63,0.63 -2.26,0 -0.6,-0.6 -0.63,-1.66 0,-2.26"
         style="fill:#893c29;fill-opacity:1;fill-rule:nonzero;stroke:none;stroke-width:0.1"
         id="path344" />
      <path
         d="m 1068.37,639.52 c 3.23,0.6 6.52,0.59 9.79,0.59 2.06,0 2.06,3.19 0,3.19 -3.56,0 -7.12,-0.05 -10.64,-0.7 -2.02,-0.37 -1.16,-3.45 0.85,-3.08"
         style="fill:#893c29;fill-opacity:1;fill-rule:nonzero;stroke:none;stroke-width:0.1"
         id="path346" />
      <path
         d="m 1082.63,666.93 c 1.28,0 2.56,0 3.83,0 2.06,0 2.06,3.19 0,3.19 -1.27,0 -2.55,0 -3.83,0 -2.06,0 -2.06,-3.19 0,-3.19"
         style="fill:#893c29;fill-opacity:1;fill-rule:nonzero;stroke:none;stroke-width:0.1"
         id="path348" />
      <path
         d="m 1105.62,666.93 c -0.24,0.04 -0.28,0.05 -0.1,0.01 0.16,-0.06 0.14,-0.04 -0.07,0.04 0.19,-0.08 0.36,-0.17 0.54,-0.26 0.51,-0.25 0.97,-0.4 1.55,-0.43 0.87,-0.05 1.59,0.76 1.59,1.59 0,0.91 -0.72,1.55 -1.59,1.6 0.24,-0.04 0.28,-0.05 0.1,-0.01 -0.16,0.06 -0.14,0.04 0.06,-0.04 -0.18,0.08 -0.35,0.17 -0.53,0.26 -0.51,0.25 -0.98,0.4 -1.55,0.43 -0.87,0.05 -1.6,-0.76 -1.6,-1.6 0,-0.9 0.73,-1.55 1.6,-1.59"
         style="fill:#893c29;fill-opacity:1;fill-rule:nonzero;stroke:none;stroke-width:0.1"
         id="path350" />
      <path
         d="m 947.398,625.89 c 0.86,-0.86 1.791,-1.61 2.878,-2.17 0.774,-0.4 1.726,-0.21 2.184,0.57 0.421,0.72 0.201,1.79 -0.573,2.19 -0.277,0.14 -0.547,0.29 -0.812,0.45 -0.093,0.06 -0.185,0.12 -0.276,0.19 -0.017,0.01 -0.423,0.32 -0.162,0.11 -0.349,0.28 -0.665,0.6 -0.981,0.91 -1.458,1.46 -3.716,-0.8 -2.258,-2.25"
         style="fill:#893c29;fill-opacity:1;fill-rule:nonzero;stroke:none;stroke-width:0.1"
         id="path352" />
      <path
         d="m 962.725,643.13 c 1.043,-1.04 2.172,-1.71 3.683,-1.75 0.87,-0.02 1.596,0.74 1.596,1.6 0,0.89 -0.727,1.58 -1.596,1.6 -0.116,0 -0.233,0 -0.348,0.01 0.157,-0.01 0.144,-0.01 -0.04,0.03 -0.094,0.02 -0.186,0.05 -0.276,0.09 0.33,-0.12 -0.051,0.05 -0.103,0.08 -0.149,0.11 -0.147,0.1 0.004,-0.02 l -0.198,0.17 c -0.162,0.14 -0.313,0.29 -0.465,0.45 -1.458,1.45 -3.716,-0.81 -2.257,-2.26"
         style="fill:#893c29;fill-opacity:1;fill-rule:nonzero;stroke:none;stroke-width:0.1"
         id="path354" />
      <path
         d="m 979.18,622.86 c 1.634,0.01 3.14,0.16 4.637,0.86 0.789,0.37 0.981,1.49 0.573,2.19 -0.47,0.8 -1.395,0.93 -2.184,0.57 -0.949,-0.44 -2.004,-0.42 -3.026,-0.42 -2.059,0 -2.059,-3.2 0,-3.2"
         style="fill:#893c29;fill-opacity:1;fill-rule:nonzero;stroke:none;stroke-width:0.1"
         id="path356" />
      <path
         d="m 993.867,651.6 c 1.49,0 2.98,0 4.47,0 2.063,0 2.063,3.19 0,3.19 -1.49,0 -2.98,0 -4.47,0 -2.059,0 -2.059,-3.19 0,-3.19"
         style="fill:#893c29;fill-opacity:1;fill-rule:nonzero;stroke:none;stroke-width:0.1"
         id="path358" />
      <path
         d="m 1022.44,621.17 c 0.26,-0.14 0.51,-0.28 0.76,-0.44 0.05,-0.03 0.4,-0.29 0.1,-0.06 0.1,-0.07 0.19,-0.16 0.29,-0.25 0.09,-0.08 0.17,-0.18 0.25,-0.27 0.29,-0.32 -0.18,0.27 0.07,-0.09 0.2,-0.27 0.36,-0.58 0.51,-0.88 0.39,-0.77 1.46,-0.99 2.18,-0.57 0.79,0.46 0.97,1.41 0.58,2.19 -0.71,1.38 -1.74,2.42 -3.13,3.12 -0.78,0.4 -1.73,0.21 -2.19,-0.57 -0.42,-0.72 -0.2,-1.79 0.58,-2.18"
         style="fill:#893c29;fill-opacity:1;fill-rule:nonzero;stroke:none;stroke-width:0.1"
         id="path360" />
      <path
         d="m 1015.79,604.4 c 2.34,-0.65 4.02,-2.39 5.69,-4.06 1.45,-1.45 3.71,0.8 2.25,2.26 -2.06,2.07 -4.2,4.07 -7.09,4.88 -1.98,0.56 -2.83,-2.52 -0.85,-3.08"
         style="fill:#893c29;fill-opacity:1;fill-rule:nonzero;stroke:none;stroke-width:0.1"
         id="path362" />
      <path
         d="m 1049.42,602.43 c 2.13,0 4.26,0 6.39,0 2.06,0 2.06,3.19 0,3.19 -2.13,0 -4.26,0 -6.39,0 -2.05,0 -2.05,-3.19 0,-3.19"
         style="fill:#893c29;fill-opacity:1;fill-rule:nonzero;stroke:none;stroke-width:0.1"
         id="path364" />
      <path
         d="m 1039.21,634.36 c 0.1,0 0.21,0 0.32,0 0.11,-0.01 0.58,-0.08 0.1,0 0.12,-0.02 0.53,-0.2 0.16,-0.02 l 0.21,-0.13 c -0.15,0.11 -0.15,0.11 -0.01,-0.02 0.64,-0.6 1.63,-0.63 2.26,0 0.6,0.6 0.63,1.66 0,2.26 -0.87,0.82 -1.87,1.1 -3.04,1.1 -0.87,0 -1.6,-0.72 -1.6,-1.59 0,-0.88 0.73,-1.6 1.6,-1.6"
         style="fill:#893c29;fill-opacity:1;fill-rule:nonzero;stroke:none;stroke-width:0.1"
         id="path366" />
      <path
         d="m 1173.46,714.65 c 1.78,-1.65 4.21,-2.23 6.45,-2.96 1.96,-0.65 2.8,2.44 0.85,3.07 -1.66,0.55 -3.72,0.92 -5.04,2.15 -1.51,1.4 -3.77,-0.86 -2.26,-2.26"
         style="fill:#893c29;fill-opacity:1;fill-rule:nonzero;stroke:none;stroke-width:0.1"
         id="path368" />
      <path
         d="m 1184.32,732.53 c 2.03,-1.99 4.32,-3.5 7.09,-4.24 1.99,-0.53 2.83,2.55 0.85,3.08 -2.26,0.6 -4.04,1.8 -5.69,3.42 -1.47,1.44 -3.72,-0.81 -2.25,-2.26"
         style="fill:#893c29;fill-opacity:1;fill-rule:nonzero;stroke:none;stroke-width:0.1"
         id="path370" />
      <path
         d="m 1178,744.25 c 2.19,-0.67 4.53,-0.69 6.81,-0.69 2.06,0 2.06,3.19 0,3.19 -2.01,0 -4.03,-0.01 -5.96,0.58 -1.98,0.61 -2.82,-2.47 -0.85,-3.08"
         style="fill:#893c29;fill-opacity:1;fill-rule:nonzero;stroke:none;stroke-width:0.1"
         id="path372" />
      <path
         d="m 1202.85,738.67 c 1.45,0.65 3.22,0.64 4.73,1.11 1.96,0.62 1.12,3.7 -0.85,3.08 -1.82,-0.57 -3.74,-0.64 -5.49,-1.44 -0.79,-0.35 -0.97,-1.49 -0.57,-2.18 0.47,-0.81 1.39,-0.93 2.18,-0.57"
         style="fill:#893c29;fill-opacity:1;fill-rule:nonzero;stroke:none;stroke-width:0.1"
         id="path374" />
      <path
         d="m 1207.96,720.79 c 2.56,1.27 5.11,2.55 7.67,3.83 1.84,0.92 0.22,3.67 -1.61,2.76 -2.56,-1.28 -5.11,-2.56 -7.67,-3.84 -1.84,-0.92 -0.22,-3.67 1.61,-2.75"
         style="fill:#893c29;fill-opacity:1;fill-rule:nonzero;stroke:none;stroke-width:0.1"
         id="path376" />
      <path
         d="m 1216.1,725.04 c 2.06,0 2.06,3.19 0,3.19 -2.06,0 -2.06,-3.19 0,-3.19"
         style="fill:#893c29;fill-opacity:1;fill-rule:nonzero;stroke:none;stroke-width:0.1"
         id="path378" />
      <path
         d="m 1192.47,700.77 c 1.37,0 3.02,0.16 4.3,-0.42 0.8,-0.36 1.71,-0.23 2.19,0.57 0.4,0.7 0.22,1.83 -0.58,2.19 -1.87,0.85 -3.89,0.85 -5.91,0.86 -2.06,0 -2.06,-3.2 0,-3.2"
         style="fill:#893c29;fill-opacity:1;fill-rule:nonzero;stroke:none;stroke-width:0.1"
         id="path380" />
      <path
         d="m 1191.57,717.27 c 0.95,-2.54 3.17,-3.5 5.58,-4.31 1.96,-0.65 2.8,2.43 0.85,3.08 -1.15,0.39 -2.87,0.8 -3.35,2.08 -0.31,0.81 -1.07,1.36 -1.97,1.11 -0.78,-0.21 -1.41,-1.14 -1.11,-1.96"
         style="fill:#893c29;fill-opacity:1;fill-rule:nonzero;stroke:none;stroke-width:0.1"
         id="path382" />
      <path
         d="m 1212.42,711.46 c 1.4,-1.38 3.06,-2.46 4.46,-3.83 1.48,-1.44 3.74,0.81 2.26,2.25 -1.4,1.38 -3.06,2.46 -4.47,3.84 -1.47,1.43 -3.73,-0.82 -2.25,-2.26"
         style="fill:#893c29;fill-opacity:1;fill-rule:nonzero;stroke:none;stroke-width:0.1"
         id="path384" />
      <path
         d="m 1223.12,723.12 c 2.13,0 4.26,0 6.39,0 2.06,0 2.06,3.2 0,3.2 -2.13,0 -4.26,0 -6.39,0 -2.06,0 -2.06,-3.2 0,-3.2"
         style="fill:#893c29;fill-opacity:1;fill-rule:nonzero;stroke:none;stroke-width:0.1"
         id="path386" />
      <path
         d="m 1238.45,731.42 c 2.52,0.01 4.98,0.12 7.45,0.7 2,0.48 1.15,3.55 -0.85,3.08 -2.19,-0.52 -4.36,-0.58 -6.6,-0.58 -2.06,0 -2.06,-3.2 0,-3.2"
         style="fill:#893c29;fill-opacity:1;fill-rule:nonzero;stroke:none;stroke-width:0.1"
         id="path388" />
      <path
         d="m 1214.65,741.86 c 1.88,-0.85 3.9,-0.86 5.92,-0.86 2.06,0 2.06,3.2 0,3.2 -1.37,0 -3.02,-0.16 -4.3,0.42 -0.8,0.36 -1.72,0.23 -2.19,-0.58 -0.4,-0.69 -0.22,-1.82 0.57,-2.18"
         style="fill:#893c29;fill-opacity:1;fill-rule:nonzero;stroke:none;stroke-width:0.1"
         id="path390" />
      <path
         d="m 1239.56,739.31 c 1.5,-0.7 3,-0.86 4.64,-0.86 2.06,0 2.06,3.19 0,3.19 -1.03,0 -2.08,-0.02 -3.03,0.42 -0.79,0.37 -1.71,0.23 -2.18,-0.57 -0.41,-0.7 -0.22,-1.82 0.57,-2.18"
         style="fill:#893c29;fill-opacity:1;fill-rule:nonzero;stroke:none;stroke-width:0.1"
         id="path392" />
      <path
         d="m 1158.79,681.19 c 1.35,0.65 2.81,1.03 4.3,1.06 2.06,0.05 2.07,3.24 0,3.2 -2.07,-0.05 -4.05,-0.6 -5.91,-1.5 -1.85,-0.9 -0.23,-3.65 1.61,-2.76"
         style="fill:#893c29;fill-opacity:1;fill-rule:nonzero;stroke:none;stroke-width:0.1"
         id="path394" />
      <path
         d="m 1161.82,694.39 c 1.91,0 3.83,0 5.74,0 2.06,0 2.06,3.19 0,3.19 -1.91,0 -3.83,0 -5.74,0 -2.06,0 -2.06,-3.19 0,-3.19"
         style="fill:#893c29;fill-opacity:1;fill-rule:nonzero;stroke:none;stroke-width:0.1"
         id="path396" />
      <path
         d="m 1186.94,689.33 c 1.88,-0.62 3.69,-1.3 5.36,-2.39 1.74,-1.12 3.34,1.65 1.61,2.76 -1.89,1.23 -3.99,2 -6.12,2.71 -1.96,0.66 -2.8,-2.43 -0.85,-3.08"
         style="fill:#893c29;fill-opacity:1;fill-rule:nonzero;stroke:none;stroke-width:0.1"
         id="path398" />
      <path
         d="m 1173.78,671.62 c 0.63,-0.3 1.26,-0.53 1.92,-0.72 0.26,-0.07 0.52,-0.15 0.77,-0.23 0.09,-0.03 0.29,-0.18 0.18,-0.08 0.65,-0.58 1.62,-0.64 2.26,0 0.59,0.59 0.65,1.68 0,2.26 -1.03,0.91 -2.32,0.96 -3.51,1.52 -0.79,0.37 -1.72,0.23 -2.19,-0.57 -0.41,-0.7 -0.21,-1.81 0.57,-2.18"
         style="fill:#893c29;fill-opacity:1;fill-rule:nonzero;stroke:none;stroke-width:0.1"
         id="path400" />
      <path
         d="m 1131.17,653.52 c 1.06,0 2.12,0 3.19,0 2.06,0 2.06,3.19 0,3.19 -1.07,0 -2.13,0 -3.19,0 -2.06,0 -2.06,-3.19 0,-3.19"
         style="fill:#893c29;fill-opacity:1;fill-rule:nonzero;stroke:none;stroke-width:0.1"
         id="path402" />
      <path
         d="m 1143.94,666.93 c 1.7,0 3.4,0 5.11,0 2.05,0 2.05,3.19 0,3.19 -1.71,0 -3.41,0 -5.11,0 -2.06,0 -2.06,-3.19 0,-3.19"
         style="fill:#893c29;fill-opacity:1;fill-rule:nonzero;stroke:none;stroke-width:0.1"
         id="path404" />
      <path
         d="m 1133.72,629.25 c 1.49,0 2.98,0 4.47,0 2.06,0 2.06,3.19 0,3.19 -1.49,0 -2.98,0 -4.47,0 -2.06,0 -2.06,-3.19 0,-3.19"
         style="fill:#893c29;fill-opacity:1;fill-rule:nonzero;stroke:none;stroke-width:0.1"
         id="path406" />
      <path
         d="m 1110.24,623.33 c 1.34,-1.28 3.14,-1.92 4.47,-3.19 1.49,-1.42 3.75,0.83 2.26,2.26 -1.34,1.28 -3.14,1.92 -4.47,3.19 -1.49,1.42 -3.75,-0.84 -2.26,-2.26"
         style="fill:#893c29;fill-opacity:1;fill-rule:nonzero;stroke:none;stroke-width:0.1"
         id="path408" />
      <path
         d="m 1100.98,598.82 c 1.88,-0.85 3.9,-0.86 5.92,-0.86 2.06,0 2.06,3.19 0,3.19 -1.37,0 -3.02,-0.16 -4.3,0.42 -0.8,0.36 -1.72,0.24 -2.19,-0.57 -0.4,-0.69 -0.22,-1.83 0.57,-2.18"
         style="fill:#893c29;fill-opacity:1;fill-rule:nonzero;stroke:none;stroke-width:0.1"
         id="path410" />
      <path
         d="m 1120.31,587.74 c 1.97,0.05 3.69,0.71 5.53,1.34 1.94,0.65 1.11,3.74 -0.85,3.07 -1.54,-0.52 -3.03,-1.18 -4.68,-1.22 -2.06,-0.04 -2.06,-3.23 0,-3.19"
         style="fill:#893c29;fill-opacity:1;fill-rule:nonzero;stroke:none;stroke-width:0.1"
         id="path412" />
      <path
         d="m 1147.13,609.45 c 2.33,0.01 4.53,0.23 6.55,1.5 1.74,1.09 0.14,3.85 -1.61,2.76 -1.55,-0.98 -3.16,-1.06 -4.94,-1.06 -2.06,-0.01 -2.06,-3.2 0,-3.2"
         style="fill:#893c29;fill-opacity:1;fill-rule:nonzero;stroke:none;stroke-width:0.1"
         id="path414" />
      <path
         d="m 1160.12,636.97 c 1.59,-0.53 3.21,-1.02 4.72,-1.75 1.85,-0.9 3.47,1.86 1.62,2.75 -1.77,0.86 -3.64,1.46 -5.5,2.08 -1.95,0.65 -2.79,-2.43 -0.84,-3.08"
         style="fill:#893c29;fill-opacity:1;fill-rule:nonzero;stroke:none;stroke-width:0.1"
         id="path416" />
      <path
         d="m 1166.76,655.65 c 2.36,-1.45 5.14,-1.49 7.83,-1.49 2.06,-0.01 2.06,3.19 0,3.19 -2.12,0 -4.35,-0.09 -6.22,1.06 -1.76,1.08 -3.36,-1.69 -1.61,-2.76"
         style="fill:#893c29;fill-opacity:1;fill-rule:nonzero;stroke:none;stroke-width:0.1"
         id="path418" />
      <path
         d="m 1196.94,677.14 c 1.28,0 2.55,0 3.83,0 2.06,0 2.06,3.2 0,3.2 -1.28,0 -2.55,0 -3.83,0 -2.06,0 -2.06,-3.2 0,-3.2"
         style="fill:#893c29;fill-opacity:1;fill-rule:nonzero;stroke:none;stroke-width:0.1"
         id="path420" />
      <path
         d="m 1252.97,690.13 c 1.95,-0.92 4.08,-1.4 6.13,-2.07 1.96,-0.64 2.79,2.44 0.85,3.08 -1.77,0.58 -3.68,0.95 -5.37,1.75 -1.85,0.88 -3.47,-1.87 -1.61,-2.76"
         style="fill:#893c29;fill-opacity:1;fill-rule:nonzero;stroke:none;stroke-width:0.1"
         id="path422" />
      <path
         d="m 1264.21,702.11 c 2.41,-0.79 4.9,-1.3 7.45,-1.34 2.06,-0.03 2.05,3.16 0,3.2 -2.27,0.03 -4.45,0.51 -6.6,1.22 -1.97,0.64 -2.8,-2.45 -0.85,-3.08"
         style="fill:#893c29;fill-opacity:1;fill-rule:nonzero;stroke:none;stroke-width:0.1"
         id="path424" />
      <path
         d="m 1289.54,707.16 c 2.55,0 5.11,0 7.66,0 2.06,0 2.06,3.19 0,3.19 -2.55,0 -5.11,0 -7.66,0 -2.06,0 -2.06,-3.19 0,-3.19"
         style="fill:#893c29;fill-opacity:1;fill-rule:nonzero;stroke:none;stroke-width:0.1"
         id="path426" />
      <path
         d="m 1271.44,716.16 c 1.75,0.54 3.51,0.58 5.32,0.58 2.06,0 2.06,3.19 0,3.19 -2.08,0 -4.16,-0.07 -6.17,-0.7 -1.96,-0.6 -1.12,-3.69 0.85,-3.07"
         style="fill:#893c29;fill-opacity:1;fill-rule:nonzero;stroke:none;stroke-width:0.1"
         id="path428" />
      <path
         d="m 1270.38,726.32 c 1.91,0 3.83,0 5.75,0 2.06,0 2.06,3.19 0,3.19 -1.92,0 -3.84,0 -5.75,0 -2.06,0 -2.06,-3.19 0,-3.19"
         style="fill:#893c29;fill-opacity:1;fill-rule:nonzero;stroke:none;stroke-width:0.1"
         id="path430" />
      <path
         d="m 1265.91,733.34 c 1.99,-0.04 3.9,-0.63 5.58,-1.7 1.74,-1.1 3.34,1.66 1.61,2.76 -2.14,1.36 -4.66,2.09 -7.19,2.13 -2.06,0.04 -2.06,-3.15 0,-3.19"
         style="fill:#893c29;fill-opacity:1;fill-rule:nonzero;stroke:none;stroke-width:0.1"
         id="path432" />
      <path
         d="m 1291.29,725.9 c 1.82,-0.94 3.54,-2.03 5.49,-2.72 1.94,-0.69 2.77,2.4 0.84,3.08 -1.67,0.59 -3.15,1.58 -4.72,2.39 -1.83,0.94 -3.45,-1.81 -1.61,-2.75"
         style="fill:#893c29;fill-opacity:1;fill-rule:nonzero;stroke:none;stroke-width:0.1"
         id="path434" />
      <path
         d="m 1313.64,715.68 c 1.44,-0.8 2.37,-2.57 3.25,-3.9 1.14,-1.7 3.91,-0.11 2.76,1.61 -1.2,1.8 -2.45,3.97 -4.4,5.05 -1.81,0.99 -3.42,-1.77 -1.61,-2.76"
         style="fill:#893c29;fill-opacity:1;fill-rule:nonzero;stroke:none;stroke-width:0.1"
         id="path436" />
      <path
         d="m 1302.21,713.06 c 0.79,-1.49 2.26,-2.37 3.44,-3.52 1.47,-1.44 3.73,0.82 2.26,2.26 -0.97,0.95 -2.34,1.74 -2.95,2.87 -0.41,0.77 -1.45,1 -2.18,0.57 -0.77,-0.45 -0.98,-1.41 -0.57,-2.18"
         style="fill:#893c29;fill-opacity:1;fill-rule:nonzero;stroke:none;stroke-width:0.1"
         id="path438" />
      <path
         d="m 1300.54,693.58 0.18,-0.2 c 0.31,-0.35 -0.17,0.25 0.12,-0.15 0.16,-0.22 0.3,-0.45 0.45,-0.68 0.36,-0.53 0.72,-1.06 1.17,-1.53 0.6,-0.63 1.65,-0.6 2.25,0 0.63,0.63 0.61,1.63 0,2.26 l -0.18,0.2 c -0.31,0.35 0.18,-0.25 -0.11,0.15 -0.16,0.22 -0.31,0.45 -0.46,0.67 -0.35,0.53 -0.72,1.07 -1.16,1.53 -0.6,0.63 -1.65,0.61 -2.26,0 -0.62,-0.62 -0.6,-1.62 0,-2.25"
         style="fill:#893c29;fill-opacity:1;fill-rule:nonzero;stroke:none;stroke-width:0.1"
         id="path440" />
      <path
         d="m 1228.77,671.25 c -1.18,-2.72 1.06,-4.63 3.13,-6.02 0.72,-0.49 1.76,-0.14 2.18,0.57 0.46,0.79 0.15,1.7 -0.57,2.19 -0.56,0.37 -1.08,0.77 -1.56,1.25 -0.16,0.15 -0.26,0.31 -0.37,0.51 0.04,-0.11 0.03,-0.07 -0.02,0.11 0.02,-0.11 0.01,-0.13 -0.03,-0.23 0.34,0.8 0.24,1.71 -0.58,2.19 -0.68,0.4 -1.83,0.22 -2.18,-0.57"
         style="fill:#893c29;fill-opacity:1;fill-rule:nonzero;stroke:none;stroke-width:0.1"
         id="path442" />
      <path
         d="m 1243.07,678.89 c 1.66,-1.61 3.63,-2.83 5.81,-3.6 1.95,-0.69 2.78,2.39 0.85,3.08 -1.65,0.58 -3.15,1.56 -4.4,2.78 -1.48,1.43 -3.74,-0.82 -2.26,-2.26"
         style="fill:#893c29;fill-opacity:1;fill-rule:nonzero;stroke:none;stroke-width:0.1"
         id="path444" />
      <path
         d="m 1243.56,654.16 c 1.81,0 3.6,0.09 5.27,0.85 0.8,0.36 0.98,1.49 0.58,2.19 -0.48,0.8 -1.4,0.93 -2.19,0.57 -1.1,-0.51 -2.48,-0.42 -3.66,-0.42 -2.06,0 -2.06,-3.2 0,-3.19"
         style="fill:#893c29;fill-opacity:1;fill-rule:nonzero;stroke:none;stroke-width:0.1"
         id="path446" />
      <path
         d="m 1266.55,657.35 c 2.13,0 4.25,0 6.38,0 2.06,0 2.06,3.19 0,3.19 -2.13,0 -4.25,0 -6.38,0 -2.06,0 -2.06,-3.19 0,-3.19"
         style="fill:#893c29;fill-opacity:1;fill-rule:nonzero;stroke:none;stroke-width:0.1"
         id="path448" />
      <path
         d="m 1267.4,675.29 c 2.01,-0.63 4.08,-0.7 6.17,-0.7 2.06,0 2.06,3.19 0,3.19 -1.81,0 -3.57,0.04 -5.32,0.59 -1.97,0.61 -2.81,-2.48 -0.85,-3.08"
         style="fill:#893c29;fill-opacity:1;fill-rule:nonzero;stroke:none;stroke-width:0.1"
         id="path450" />
      <path
         d="m 1281.07,692.69 c 1.23,-0.58 2.61,-0.71 3.83,-1.28 0.79,-0.37 1.71,-0.23 2.18,0.57 0.41,0.7 0.22,1.82 -0.57,2.19 -1.23,0.57 -2.61,0.71 -3.83,1.28 -0.79,0.36 -1.72,0.22 -2.18,-0.58 -0.41,-0.69 -0.22,-1.81 0.57,-2.18"
         style="fill:#893c29;fill-opacity:1;fill-rule:nonzero;stroke:none;stroke-width:0.1"
         id="path452" />
      <path
         d="m 1286.98,677.14 c 1.02,0 2.08,0.03 3.03,-0.42 0.79,-0.36 1.71,-0.23 2.18,0.58 0.41,0.69 0.22,1.81 -0.57,2.18 -1.5,0.7 -3,0.86 -4.64,0.86 -2.06,0 -2.06,-3.19 0,-3.2"
         style="fill:#893c29;fill-opacity:1;fill-rule:nonzero;stroke:none;stroke-width:0.1"
         id="path454" />
      <path
         d="m 1200.77,619.03 c 1.28,0 2.56,0 3.83,0 2.06,0 2.06,3.2 0,3.2 -1.27,0 -2.55,0 -3.83,0 -2.06,0 -2.06,-3.2 0,-3.2"
         style="fill:#893c29;fill-opacity:1;fill-rule:nonzero;stroke:none;stroke-width:0.1"
         id="path456" />
      <path
         d="m 1213.38,639.05 c 1.67,-0.77 3.46,-0.86 5.27,-0.86 2.06,0 2.06,3.19 0,3.19 -1.18,0 -2.56,-0.08 -3.66,0.42 -0.79,0.37 -1.71,0.24 -2.19,-0.57 -0.4,-0.69 -0.21,-1.82 0.58,-2.18"
         style="fill:#893c29;fill-opacity:1;fill-rule:nonzero;stroke:none;stroke-width:0.1"
         id="path458" />
      <path
         d="m 1237.17,628.61 c 1.92,0 3.83,0 5.75,0 2.06,0 2.06,3.19 0,3.19 -1.92,0 -3.83,0 -5.75,0 -2.06,0 -2.06,-3.19 0,-3.19"
         style="fill:#893c29;fill-opacity:1;fill-rule:nonzero;stroke:none;stroke-width:0.1"
         id="path460" />
      <path
         d="m 1222.65,603.92 c 1.68,1.09 3.48,1.77 5.37,2.4 1.94,0.65 1.11,3.73 -0.85,3.08 -2.14,-0.72 -4.23,-1.49 -6.13,-2.72 -1.72,-1.11 -0.12,-3.88 1.61,-2.76"
         style="fill:#893c29;fill-opacity:1;fill-rule:nonzero;stroke:none;stroke-width:0.1"
         id="path462" />
      <path
         d="m 1179.91,592.27 c 2.02,-0.67 4.03,-1.29 6.17,-1.34 2.06,-0.04 2.06,3.15 0,3.2 -1.84,0.04 -3.58,0.64 -5.32,1.22 -1.96,0.65 -2.79,-2.43 -0.85,-3.08"
         style="fill:#893c29;fill-opacity:1;fill-rule:nonzero;stroke:none;stroke-width:0.1"
         id="path464" />
      <path
         d="m 1218.01,587.1 c 1.49,0 2.98,0 4.47,0 2.06,0 2.06,3.2 0,3.2 -1.49,0 -2.98,0 -4.47,0 -2.05,0 -2.05,-3.2 0,-3.2"
         style="fill:#893c29;fill-opacity:1;fill-rule:nonzero;stroke:none;stroke-width:0.1"
         id="path466" />
      <path
         d="m 1282.3,597.38 c 2.19,0.55 4.32,1.18 6.6,1.22 2.05,0.03 2.06,3.22 0,3.19 -2.57,-0.04 -4.98,-0.71 -7.45,-1.33 -2,-0.51 -1.15,-3.59 0.85,-3.08"
         style="fill:#893c29;fill-opacity:1;fill-rule:nonzero;stroke:none;stroke-width:0.1"
         id="path468" />
      <path
         d="m 1286.98,613.29 c 2.73,0 5.42,0.07 8.09,0.69 2.01,0.46 1.15,3.54 -0.85,3.08 -2.39,-0.55 -4.8,-0.58 -7.24,-0.58 -2.06,0 -2.06,-3.2 0,-3.19"
         style="fill:#893c29;fill-opacity:1;fill-rule:nonzero;stroke:none;stroke-width:0.1"
         id="path470" />
      <path
         d="m 1317.78,623.33 c 1.54,-1.53 3.11,-2.87 5.18,-3.6 1.94,-0.69 2.77,2.39 0.85,3.08 -1.52,0.54 -2.65,1.66 -3.77,2.78 -1.46,1.46 -3.71,-0.8 -2.26,-2.26"
         style="fill:#893c29;fill-opacity:1;fill-rule:nonzero;stroke:none;stroke-width:0.1"
         id="path472" />
      <path
         d="m 1313.64,609.67 c 0.98,-0.52 1.43,-1.53 1.98,-2.62 0.39,-0.78 1.47,-0.99 2.18,-0.57 0.79,0.46 0.96,1.4 0.57,2.18 -0.74,1.49 -1.6,2.96 -3.12,3.77 -0.77,0.41 -1.73,0.2 -2.19,-0.57 -0.42,-0.73 -0.19,-1.78 0.58,-2.19"
         style="fill:#893c29;fill-opacity:1;fill-rule:nonzero;stroke:none;stroke-width:0.1"
         id="path474" />
      <path
         d="m 1298.48,638.19 c 1.84,0 3.58,0.06 5.27,0.86 0.79,0.37 0.99,1.48 0.58,2.18 -0.47,0.8 -1.4,0.94 -2.19,0.57 -1.12,-0.52 -2.46,-0.42 -3.66,-0.42 -2.06,0 -2.06,-3.19 0,-3.19"
         style="fill:#893c29;fill-opacity:1;fill-rule:nonzero;stroke:none;stroke-width:0.1"
         id="path476" />
      <path
         d="m 1324.66,647.13 c 2.24,0 4.41,-0.06 6.6,-0.58 2,-0.48 2.85,2.6 0.85,3.08 -2.47,0.58 -4.93,0.69 -7.45,0.69 -2.06,0 -2.06,-3.19 0,-3.19"
         style="fill:#893c29;fill-opacity:1;fill-rule:nonzero;stroke:none;stroke-width:0.1"
         id="path478" />
      <path
         d="m 1317,633.72 c 1.63,0 3.14,0.16 4.63,0.86 0.79,0.36 0.98,1.48 0.58,2.18 -0.47,0.8 -1.4,0.94 -2.19,0.57 -0.95,-0.44 -2,-0.42 -3.02,-0.42 -2.06,0 -2.06,-3.19 0,-3.19"
         style="fill:#893c29;fill-opacity:1;fill-rule:nonzero;stroke:none;stroke-width:0.1"
         id="path480" />
      <path
         d="m 1349.42,627.16 c 1.08,1.06 2.34,1.67 3.76,2.15 1.94,0.65 1.11,3.74 -0.85,3.08 -1.94,-0.66 -3.69,-1.52 -5.17,-2.97 -1.48,-1.44 0.78,-3.69 2.26,-2.26"
         style="fill:#893c29;fill-opacity:1;fill-rule:nonzero;stroke:none;stroke-width:0.1"
         id="path482" />
      <path
         d="m 1362.83,642.49 c 1.42,1.38 3.13,2.27 5.04,2.78 1.99,0.53 1.14,3.61 -0.85,3.08 -2.43,-0.65 -4.64,-1.84 -6.45,-3.6 -1.48,-1.44 0.78,-3.7 2.26,-2.26"
         style="fill:#893c29;fill-opacity:1;fill-rule:nonzero;stroke:none;stroke-width:0.1"
         id="path484" />
      <path
         d="m 1351.06,656.13 c 3.07,-0.77 5.99,-1.2 9.15,-0.64 2.02,0.36 1.16,3.43 -0.85,3.08 -2.56,-0.45 -4.97,0.02 -7.46,0.64 -1.99,0.5 -2.84,-2.58 -0.84,-3.08"
         style="fill:#893c29;fill-opacity:1;fill-rule:nonzero;stroke:none;stroke-width:0.1"
         id="path486" />
      <path
         d="m 1324.17,675.7 c 1.28,-1.28 2.55,-2.56 3.83,-3.83 1.46,-1.46 3.72,0.8 2.26,2.25 -1.28,1.28 -2.56,2.56 -3.83,3.83 -1.46,1.46 -3.72,-0.8 -2.26,-2.25"
         style="fill:#893c29;fill-opacity:1;fill-rule:nonzero;stroke:none;stroke-width:0.1"
         id="path488" />
      <path
         d="m 1316.26,665.16 c 1.27,-1.91 2.55,-3.83 3.83,-5.74 1.13,-1.71 3.9,-0.11 2.75,1.61 -1.27,1.91 -2.55,3.83 -3.83,5.75 -1.13,1.7 -3.9,0.1 -2.75,-1.62"
         style="fill:#893c29;fill-opacity:1;fill-rule:nonzero;stroke:none;stroke-width:0.1"
         id="path490" />
      <path
         d="m 1341.64,674.49 c 0.91,-2.64 2.3,-5.08 4.24,-7.1 1.43,-1.48 3.69,0.78 2.26,2.26 -1.56,1.61 -2.69,3.57 -3.42,5.68 -0.67,1.94 -3.75,1.11 -3.08,-0.84"
         style="fill:#893c29;fill-opacity:1;fill-rule:nonzero;stroke:none;stroke-width:0.1"
         id="path492" />
      <path
         d="m 1336.37,686.78 c 2.64,-0.89 5.26,-1.89 8.09,-1.97 2.06,-0.06 2.05,3.13 0,3.19 -2.51,0.07 -4.89,1.06 -7.24,1.86 -1.96,0.66 -2.79,-2.42 -0.85,-3.08"
         style="fill:#893c29;fill-opacity:1;fill-rule:nonzero;stroke:none;stroke-width:0.1"
         id="path494" />
      <path
         d="m 1343.18,700.77 c 1.26,-0.03 2.54,-0.51 3.66,-1.06 1.85,-0.89 3.47,1.86 1.61,2.76 -1.64,0.8 -3.43,1.44 -5.27,1.5 -2.06,0.05 -2.06,-3.14 0,-3.2"
         style="fill:#893c29;fill-opacity:1;fill-rule:nonzero;stroke:none;stroke-width:0.1"
         id="path496" />
      <path
         d="m 1362.07,685.34 c 1.45,-3.49 3.33,-6.73 5.27,-9.96 1.06,-1.76 3.82,-0.16 2.76,1.61 -1.79,2.99 -3.62,5.98 -4.95,9.2 -0.77,1.88 -3.86,1.05 -3.08,-0.85"
         style="fill:#893c29;fill-opacity:1;fill-rule:nonzero;stroke:none;stroke-width:0.1"
         id="path498" />
      <path
         d="m 1351.16,688.96 c 0,-1.93 0.2,-4.15 2.07,-5.21 1.79,-1.02 3.4,1.74 1.61,2.76 -0.17,0.1 -0.21,0.12 -0.11,0.06 -0.14,0.13 -0.17,0.16 -0.08,0.09 -0.11,0.17 -0.15,0.37 -0.21,0.66 -0.1,0.42 -0.09,1.09 -0.09,1.64 0,2.06 -3.19,2.06 -3.19,0"
         style="fill:#893c29;fill-opacity:1;fill-rule:nonzero;stroke:none;stroke-width:0.1"
         id="path500" />
      <path
         d="m 1358.98,670.34 c 2.07,-1.38 4.16,-2.71 6.38,-3.83 1.83,-0.93 3.45,1.82 1.61,2.75 -2.22,1.13 -4.31,2.45 -6.38,3.83 -1.72,1.15 -3.32,-1.62 -1.61,-2.75"
         style="fill:#893c29;fill-opacity:1;fill-rule:nonzero;stroke:none;stroke-width:0.1"
         id="path502" />
      <path
         d="m 1374.15,664.05 c 0.05,-2.95 0.75,-5.84 1.33,-8.72 0.41,-2.02 3.49,-1.16 3.08,0.85 -0.52,2.6 -1.17,5.2 -1.22,7.87 -0.03,2.06 -3.22,2.06 -3.19,0"
         style="fill:#893c29;fill-opacity:1;fill-rule:nonzero;stroke:none;stroke-width:0.1"
         id="path504" />
      <path
         d="m 1094.77,724.4 c 2.02,0 3.98,-0.11 5.96,-0.58 2,-0.48 2.85,2.6 0.85,3.08 -2.26,0.53 -4.51,0.69 -6.81,0.69 -2.06,0 -2.06,-3.19 0,-3.19"
         style="fill:#893c29;fill-opacity:1;fill-rule:nonzero;stroke:none;stroke-width:0.1"
         id="path506" />
      <path
         d="m 1119.18,716.57 c 1.7,-1.7 3.44,-3.36 5.43,-4.72 1.71,-1.17 3.3,1.6 1.61,2.75 -1.76,1.21 -3.28,2.72 -4.78,4.22 -1.46,1.46 -3.72,-0.8 -2.26,-2.25"
         style="fill:#893c29;fill-opacity:1;fill-rule:nonzero;stroke:none;stroke-width:0.1"
         id="path508" />
      <path
         d="m 1134.83,719.51 c 1.13,-0.6 1.96,-1.89 3.19,-2.55 0.77,-0.41 1.73,-0.2 2.19,0.57 0.42,0.73 0.19,1.77 -0.58,2.18 -1.13,0.61 -1.95,1.9 -3.19,2.56 -0.77,0.41 -1.73,0.2 -2.18,-0.58 -0.43,-0.72 -0.2,-1.77 0.57,-2.18"
         style="fill:#893c29;fill-opacity:1;fill-rule:nonzero;stroke:none;stroke-width:0.1"
         id="path510" />
      <path
         d="m 1120.31,748.03 c 2.55,0 5.11,0 7.66,0 2.06,0 2.06,3.19 0,3.19 -2.55,0 -5.11,0 -7.66,0 -2.06,0 -2.06,-3.19 0,-3.19"
         style="fill:#893c29;fill-opacity:1;fill-rule:nonzero;stroke:none;stroke-width:0.1"
         id="path512" />
      <path
         d="m 1128.51,741.16 c 0.64,-1.28 1.28,-2.56 1.92,-3.84 0.38,-0.77 1.47,-0.99 2.18,-0.57 0.79,0.46 0.96,1.41 0.57,2.19 -0.64,1.27 -1.27,2.55 -1.91,3.83 -0.39,0.78 -1.47,0.99 -2.19,0.57 -0.78,-0.46 -0.96,-1.41 -0.57,-2.18"
         style="fill:#893c29;fill-opacity:1;fill-rule:nonzero;stroke:none;stroke-width:0.1"
         id="path514" />
      <path
         d="m 1056.45,744.84 c 1.92,0 3.83,0 5.75,0 2.06,0 2.06,3.19 0,3.19 -1.92,0 -3.83,0 -5.75,0 -2.06,0 -2.06,-3.19 0,-3.19"
         style="fill:#893c29;fill-opacity:1;fill-rule:nonzero;stroke:none;stroke-width:0.1"
         id="path516" />
      <path
         d="m 1032.4,722.54 c 1.76,-0.63 3.19,-1.99 4.72,-3.03 1.71,-1.16 3.31,1.61 1.62,2.76 -1.81,1.22 -3.41,2.6 -5.49,3.35 -1.95,0.7 -2.78,-2.39 -0.85,-3.08"
         style="fill:#893c29;fill-opacity:1;fill-rule:nonzero;stroke:none;stroke-width:0.1"
         id="path518" />
      <path
         d="m 1019.41,723.12 c 1.49,0 2.98,0 4.47,0 2.06,0 2.06,3.2 0,3.2 -1.49,0 -2.98,0 -4.47,0 -2.06,0 -2.06,-3.2 0,-3.2"
         style="fill:#893c29;fill-opacity:1;fill-rule:nonzero;stroke:none;stroke-width:0.1"
         id="path520" />
      <path
         d="m 1021.97,739.73 c 3.15,0 6.25,0.11 9.36,0.69 2.02,0.38 1.16,3.46 -0.85,3.08 -2.82,-0.53 -5.65,-0.58 -8.51,-0.58 -2.06,0 -2.06,-3.19 0,-3.19"
         style="fill:#893c29;fill-opacity:1;fill-rule:nonzero;stroke:none;stroke-width:0.1"
         id="path522" />
      <path
         d="m 1198.43,730.21 c 2.42,-0.79 4.91,-1.3 7.45,-1.34 2.06,-0.03 2.06,3.16 0,3.19 -2.27,0.04 -4.45,0.52 -6.6,1.22 -1.96,0.64 -2.8,-2.44 -0.85,-3.07"
         style="fill:#893c29;fill-opacity:1;fill-rule:nonzero;stroke:none;stroke-width:0.1"
         id="path524" />
      <path
         d="m 1192.47,743.56 c 1.73,0.04 3.38,0.6 5.11,0.64 2.05,0.04 2.06,3.23 0,3.19 -1.73,-0.04 -3.39,-0.6 -5.11,-0.64 -2.06,-0.04 -2.06,-3.24 0,-3.19"
         style="fill:#893c29;fill-opacity:1;fill-rule:nonzero;stroke:none;stroke-width:0.1"
         id="path526" />
      <path
         d="m 1178.32,724.55 c 0.98,-1.84 2.91,-2.65 4.79,-3.29 1.95,-0.66 2.78,2.43 0.84,3.08 -0.67,0.23 -1.31,0.47 -1.93,0.83 -0.46,0.27 -0.69,0.51 -0.94,0.99 -0.97,1.82 -3.73,0.21 -2.76,-1.61"
         style="fill:#893c29;fill-opacity:1;fill-rule:nonzero;stroke:none;stroke-width:0.1"
         id="path528" />
      <path
         d="m 1249.73,694.44 c 2.77,0.7 5.47,1.48 8.04,2.72 1.86,0.89 0.24,3.65 -1.61,2.76 -2.32,-1.12 -4.79,-1.77 -7.28,-2.4 -2,-0.5 -1.15,-3.58 0.85,-3.08"
         style="fill:#893c29;fill-opacity:1;fill-rule:nonzero;stroke:none;stroke-width:0.1"
         id="path530" />
      <path
         d="m 1260.59,710.41 c 2.15,0.7 4.33,1.18 6.6,1.22 2.05,0.03 2.06,3.23 0,3.19 -2.55,-0.04 -5.04,-0.55 -7.45,-1.33 -1.95,-0.64 -1.12,-3.72 0.85,-3.08"
         style="fill:#893c29;fill-opacity:1;fill-rule:nonzero;stroke:none;stroke-width:0.1"
         id="path532" />
      <path
         d="m 1277.14,706.42 c 0.85,-2.32 2.53,-4.11 4.24,-5.82 1.46,-1.46 3.72,0.8 2.26,2.26 -1.28,1.28 -2.78,2.66 -3.42,4.4 -0.7,1.92 -3.79,1.09 -3.08,-0.84"
         style="fill:#893c29;fill-opacity:1;fill-rule:nonzero;stroke:none;stroke-width:0.1"
         id="path534" />
      <path
         d="m 1294.65,702.05 c 1.7,0 3.4,0 5.1,0 2.06,0 2.06,3.19 0,3.19 -1.7,0 -3.4,0 -5.1,0 -2.06,0 -2.06,-3.19 0,-3.19"
         style="fill:#893c29;fill-opacity:1;fill-rule:nonzero;stroke:none;stroke-width:0.1"
         id="path536" />
      <path
         d="m 1283.53,719.83 c 0.93,-2.55 3.09,-4.08 5.58,-4.95 1.95,-0.68 2.78,2.41 0.85,3.08 -1.34,0.46 -2.84,1.31 -3.35,2.71 -0.71,1.92 -3.79,1.09 -3.08,-0.84"
         style="fill:#893c29;fill-opacity:1;fill-rule:nonzero;stroke:none;stroke-width:0.1"
         id="path538" />
      <path
         d="m 1280.17,732.12 c 1.72,-0.59 3.39,-1.33 5.11,-1.91 1.96,-0.67 2.79,2.41 0.85,3.07 -1.72,0.59 -3.39,1.33 -5.11,1.92 -1.95,0.67 -2.79,-2.42 -0.85,-3.08"
         style="fill:#893c29;fill-opacity:1;fill-rule:nonzero;stroke:none;stroke-width:0.1"
         id="path540" />
      <path
         d="m 1307.63,723.82 c 3.06,-1.26 5.91,-2.99 8.56,-4.95 1.66,-1.22 3.25,1.55 1.61,2.76 -2.9,2.14 -5.99,3.9 -9.32,5.27 -1.9,0.78 -2.72,-2.31 -0.85,-3.08"
         style="fill:#893c29;fill-opacity:1;fill-rule:nonzero;stroke:none;stroke-width:0.1"
         id="path542" />
      <path
         d="m 1336.94,710.18 c 1.2,-1.19 2.56,-2.31 4.32,-2.38 0.87,-0.04 1.6,0.75 1.6,1.59 0,0.9 -0.73,1.56 -1.6,1.6 -0.28,0.01 -0.6,0.21 -1.03,0.5 -0.26,0.18 -0.72,0.63 -1.03,0.95 -1.46,1.45 -3.72,-0.8 -2.26,-2.26"
         style="fill:#893c29;fill-opacity:1;fill-rule:nonzero;stroke:none;stroke-width:0.1"
         id="path544" />
      <path
         d="m 904.363,602.58 c 1.19,-2.16 3.689,-3.7 5.681,-5.04 1.715,-1.15 3.311,1.61 1.612,2.75 -1.529,1.03 -3.622,2.24 -4.536,3.9 -0.993,1.81 -3.75,0.2 -2.757,-1.61"
         style="fill:#c25739;fill-opacity:1;fill-rule:nonzero;stroke:none;stroke-width:0.1"
         id="path546" />
      <path
         d="m 896.481,595.08 c 0.083,-3.76 1.229,-7.17 2.612,-10.64 0.754,-1.88 3.843,-1.06 3.079,0.85 -1.272,3.19 -2.421,6.33 -2.497,9.79 -0.046,2.06 -3.238,2.07 -3.194,0"
         style="fill:#c25739;fill-opacity:1;fill-rule:nonzero;stroke:none;stroke-width:0.1"
         id="path548" />
      <path
         d="m 910.683,584.13 c 1.446,-0.8 2.374,-2.57 3.258,-3.9 1.137,-1.7 3.904,-0.11 2.758,1.61 -1.2,1.8 -2.449,3.97 -4.405,5.04 -1.805,1 -3.416,-1.76 -1.611,-2.75"
         style="fill:#c25739;fill-opacity:1;fill-rule:nonzero;stroke:none;stroke-width:0.1"
         id="path550" />
      <path
         d="m 913.237,564.97 c 3.3,-1.92 6.918,-3.19 10.218,-5.11 1.784,-1.04 3.39,1.72 1.611,2.76 -3.299,1.92 -6.918,3.19 -10.217,5.11 -1.784,1.03 -3.391,-1.73 -1.612,-2.76"
         style="fill:#c25739;fill-opacity:1;fill-rule:nonzero;stroke:none;stroke-width:0.1"
         id="path552" />
      <path
         d="m 942.141,553.26 c 3.193,0 6.386,0 9.579,0 2.059,0 2.059,3.19 0,3.19 -3.193,0 -6.386,0 -9.579,0 -2.059,0 -2.059,-3.19 0,-3.19"
         style="fill:#c25739;fill-opacity:1;fill-rule:nonzero;stroke:none;stroke-width:0.1"
         id="path554" />
      <path
         d="m 930.646,567.95 c 3.069,-0.01 6.128,-0.03 9.155,-0.59 2.012,-0.37 2.872,2.71 0.849,3.08 -3.314,0.62 -6.642,0.7 -10.004,0.7 -2.059,0 -2.059,-3.19 0,-3.19"
         style="fill:#c25739;fill-opacity:1;fill-rule:nonzero;stroke:none;stroke-width:0.1"
         id="path556" />
      <path
         d="m 927.878,584.61 c 2.554,0.64 5.158,1.29 7.406,2.71 1.734,1.1 0.133,3.86 -1.612,2.76 -2.019,-1.28 -4.35,-1.82 -6.643,-2.4 -1.996,-0.5 -1.149,-3.57 0.849,-3.07"
         style="fill:#c25739;fill-opacity:1;fill-rule:nonzero;stroke:none;stroke-width:0.1"
         id="path558" />
      <path
         d="m 951.553,579.02 c 2.851,-1.48 5.376,-3.6 7.34,-6.14 1.258,-1.62 3.501,0.65 2.258,2.26 -2.109,2.73 -4.925,5.05 -7.986,6.64 -1.826,0.94 -3.441,-1.81 -1.612,-2.76"
         style="fill:#c25739;fill-opacity:1;fill-rule:nonzero;stroke:none;stroke-width:0.1"
         id="path560" />
      <path
         d="m 950.591,567.77 c 1.701,-1.7 3.441,-3.36 5.432,-4.72 1.706,-1.16 3.301,1.61 1.612,2.76 -1.762,1.2 -3.282,2.72 -4.786,4.22 -1.457,1.46 -3.715,-0.8 -2.258,-2.26"
         style="fill:#c25739;fill-opacity:1;fill-rule:nonzero;stroke:none;stroke-width:0.1"
         id="path562" />
      <path
         d="m 961.724,534.16 c 2.767,0.69 5.466,1.47 8.044,2.71 1.854,0.9 0.234,3.65 -1.612,2.76 -2.321,-1.12 -4.791,-1.77 -7.281,-2.39 -1.997,-0.5 -1.149,-3.58 0.849,-3.08"
         style="fill:#c25739;fill-opacity:1;fill-rule:nonzero;stroke:none;stroke-width:0.1"
         id="path564" />
      <path
         d="m 946.611,543.04 c 1.278,0 2.555,0 3.832,0 2.059,0 2.059,3.19 0,3.19 -1.277,0 -2.554,0 -3.832,0 -2.059,0 -2.059,-3.19 0,-3.19"
         style="fill:#c25739;fill-opacity:1;fill-rule:nonzero;stroke:none;stroke-width:0.1"
         id="path566" />
      <path
         d="m 971.941,549.48 c 2.589,0.61 5.233,0.58 7.877,0.58 2.059,0 2.059,3.2 0,3.2 -2.933,0 -5.855,-0.03 -8.726,-0.7 -2.005,-0.47 -1.154,-3.55 0.849,-3.08"
         style="fill:#c25739;fill-opacity:1;fill-rule:nonzero;stroke:none;stroke-width:0.1"
         id="path568" />
      <path
         d="m 973.646,564.81 c 2.757,-0.69 5.517,-1.35 8.302,-1.92 2.01,-0.4 2.866,2.67 0.849,3.08 -2.785,0.57 -5.545,1.23 -8.302,1.92 -1.998,0.5 -2.846,-2.58 -0.849,-3.08"
         style="fill:#c25739;fill-opacity:1;fill-rule:nonzero;stroke:none;stroke-width:0.1"
         id="path570" />
      <path
         d="m 990.184,566.5 c 1.344,-1.17 3.279,-1.11 4.961,-1.11 2.059,0 2.059,3.19 0,3.19 -0.573,0 -1.145,0.01 -1.717,0.04 -0.223,0.02 -0.422,0.04 -0.633,0.08 -0.241,0.05 -0.499,0.18 -0.353,0.05 -0.657,0.57 -1.61,0.65 -2.258,0 -0.582,-0.58 -0.658,-1.68 0,-2.25"
         style="fill:#c25739;fill-opacity:1;fill-rule:nonzero;stroke:none;stroke-width:0.1"
         id="path572" />
      <path
         d="m 1016.86,550.06 c 2.44,0 4.85,-0.02 7.24,-0.58 2,-0.46 2.85,2.62 0.84,3.08 -2.66,0.62 -5.36,0.7 -8.08,0.7 -2.06,0 -2.06,-3.19 0,-3.2"
         style="fill:#c25739;fill-opacity:1;fill-rule:nonzero;stroke:none;stroke-width:0.1"
         id="path574" />
      <path
         d="m 995.145,538.57 c 2.341,0 4.683,0 7.025,0 2.06,0 2.06,3.19 0,3.19 -2.342,0 -4.684,0 -7.025,0 -2.06,0 -2.06,-3.19 0,-3.19"
         style="fill:#c25739;fill-opacity:1;fill-rule:nonzero;stroke:none;stroke-width:0.1"
         id="path576" />
      <path
         d="m 990.507,529.21 c 2.669,-2 5.378,-3.89 8.683,-4.63 2.01,-0.46 2.86,2.62 0.85,3.08 -3.036,0.68 -5.474,2.47 -7.921,4.31 -1.65,1.23 -3.239,-1.54 -1.612,-2.76"
         style="fill:#c25739;fill-opacity:1;fill-rule:nonzero;stroke:none;stroke-width:0.1"
         id="path578" />
      <path
         d="m 1024.1,522.02 c 2.52,-0.58 5.13,-0.69 7.66,-1.27 2,-0.47 2.85,2.61 0.85,3.08 -2.53,0.58 -5.14,0.69 -7.67,1.27 -2,0.47 -2.85,-2.61 -0.84,-3.08"
         style="fill:#c25739;fill-opacity:1;fill-rule:nonzero;stroke:none;stroke-width:0.1"
         id="path580" />
      <path
         d="m 1037.29,537.29 c 2.15,0.04 4.24,0.61 6.39,0.64 2.05,0.03 2.06,3.23 0,3.19 -2.15,-0.03 -4.24,-0.59 -6.39,-0.63 -2.05,-0.05 -2.06,-3.24 0,-3.2"
         style="fill:#c25739;fill-opacity:1;fill-rule:nonzero;stroke:none;stroke-width:0.1"
         id="path582" />
      <path
         d="m 1055.81,548.15 c 2.09,0 4.16,0.07 6.17,0.69 1.96,0.61 1.13,3.69 -0.85,3.08 -1.74,-0.54 -3.5,-0.58 -5.32,-0.58 -2.06,0 -2.06,-3.19 0,-3.19"
         style="fill:#c25739;fill-opacity:1;fill-rule:nonzero;stroke:none;stroke-width:0.1"
         id="path584" />
      <path
         d="m 1027.07,560.92 c 2.13,0 4.26,0 6.39,0 2.06,0 2.06,3.19 0,3.19 -2.13,0 -4.26,0 -6.39,0 -2.05,0 -2.05,-3.19 0,-3.19"
         style="fill:#c25739;fill-opacity:1;fill-rule:nonzero;stroke:none;stroke-width:0.1"
         id="path586" />
      <path
         d="m 1093.32,525.38 c 2.41,-1.1 5.69,-1.54 8.26,-0.8 1.97,0.57 1.13,3.65 -0.85,3.08 -1.7,-0.49 -4.18,-0.27 -5.8,0.47 -1.86,0.85 -3.48,-1.9 -1.61,-2.75"
         style="fill:#c25739;fill-opacity:1;fill-rule:nonzero;stroke:none;stroke-width:0.1"
         id="path588" />
      <path
         d="m 1061.39,518.99 c 2.93,-2.09 6.46,-3.26 9.96,-3.99 2.01,-0.42 2.86,2.66 0.85,3.08 -3.26,0.68 -6.46,1.71 -9.2,3.67 -1.68,1.2 -3.27,-1.57 -1.61,-2.76"
         style="fill:#c25739;fill-opacity:1;fill-rule:nonzero;stroke:none;stroke-width:0.1"
         id="path590" />
      <path
         d="m 1073.05,534.1 c 2.74,0.08 4.97,1.29 7.19,2.77 1.71,1.14 0.11,3.9 -1.61,2.76 -1.73,-1.15 -3.44,-2.27 -5.58,-2.34 -2.05,-0.06 -2.06,-3.25 0,-3.19"
         style="fill:#c25739;fill-opacity:1;fill-rule:nonzero;stroke:none;stroke-width:0.1"
         id="path592" />
      <path
         d="m 1096.04,548.79 c 3.21,0.04 6.38,0.59 9.58,0.64 2.06,0.03 2.06,3.22 0,3.19 -3.2,-0.05 -6.37,-0.59 -9.58,-0.64 -2.05,-0.03 -2.06,-3.22 0,-3.19"
         style="fill:#c25739;fill-opacity:1;fill-rule:nonzero;stroke:none;stroke-width:0.1"
         id="path594" />
      <path
         d="m 1133.55,547.73 c 2.18,-1.38 4.71,-2.07 7.03,-3.19 1.84,-0.9 3.46,1.85 1.61,2.75 -2.31,1.12 -4.85,1.82 -7.03,3.2 -1.74,1.1 -3.34,-1.66 -1.61,-2.76"
         style="fill:#c25739;fill-opacity:1;fill-rule:nonzero;stroke:none;stroke-width:0.1"
         id="path596" />
      <path
         d="m 1126.27,532.24 c 1.32,-0.42 2.83,-0.52 4.09,-1.12 0.79,-0.37 1.72,-0.22 2.18,0.58 0.41,0.7 0.22,1.81 -0.57,2.18 -1.55,0.73 -3.23,0.92 -4.85,1.44 -1.97,0.63 -2.8,-2.45 -0.85,-3.08"
         style="fill:#c25739;fill-opacity:1;fill-rule:nonzero;stroke:none;stroke-width:0.1"
         id="path598" />
      <path
         d="m 1125.58,512.61 c 1.29,0.58 2.94,0.42 4.31,0.42 2.06,0 2.06,3.19 0,3.19 -2.02,0 -4.04,-0.01 -5.92,-0.86 -0.79,-0.36 -0.97,-1.49 -0.57,-2.18 0.47,-0.81 1.39,-0.93 2.18,-0.57"
         style="fill:#c25739;fill-opacity:1;fill-rule:nonzero;stroke:none;stroke-width:0.1"
         id="path600" />
      <path
         d="m 1177.78,533.46 c 2.57,0.04 4.98,0.71 7.45,1.33 2,0.51 1.15,3.59 -0.85,3.08 -2.19,-0.55 -4.32,-1.18 -6.6,-1.22 -2.05,-0.03 -2.06,-3.22 0,-3.19"
         style="fill:#c25739;fill-opacity:1;fill-rule:nonzero;stroke:none;stroke-width:0.1"
         id="path602" />
      <path
         d="m 882.49,624.67 c 0.764,-2.17 1.954,-4.14 2.554,-6.38 0.533,-1.99 3.613,-1.14 3.079,0.85 -0.601,2.24 -1.79,4.21 -2.555,6.38 -0.678,1.93 -3.764,1.1 -3.078,-0.85"
         style="fill:#c25739;fill-opacity:1;fill-rule:nonzero;stroke:none;stroke-width:0.1"
         id="path604" />
      <path
         d="m 930.008,574.97 c 3.455,0.05 6.781,0.73 10.003,1.97 1.9,0.73 1.075,3.82 -0.849,3.08 -2.965,-1.14 -5.97,-1.81 -9.154,-1.86 -2.057,-0.03 -2.06,-3.22 0,-3.19"
         style="fill:#c25739;fill-opacity:1;fill-rule:nonzero;stroke:none;stroke-width:0.1"
         id="path606" />
      <path
         d="m 922.835,570.33 c 1.44,1.61 1.641,4.02 1.049,6.02 -0.581,1.97 -3.663,1.13 -3.079,-0.85 0.261,-0.88 0.321,-2.3 -0.228,-2.91 -1.368,-1.53 0.882,-3.8 2.258,-2.26"
         style="fill:#c25739;fill-opacity:1;fill-rule:nonzero;stroke:none;stroke-width:0.1"
         id="path608" />
      <path
         d="m 930.545,555.96 c 1.281,-2.68 1.91,-5.61 3.193,-8.3 0.887,-1.86 3.64,-0.23 2.757,1.61 -1.281,2.68 -1.91,5.62 -3.193,8.31 -0.887,1.85 -3.64,0.23 -2.757,-1.62"
         style="fill:#c25739;fill-opacity:1;fill-rule:nonzero;stroke:none;stroke-width:0.1"
         id="path610" />
      <path
         d="m 958.106,544.32 c 2.554,0 5.109,0 7.663,0 2.059,0 2.059,3.19 0,3.19 -2.554,0 -5.109,0 -7.663,0 -2.059,0 -2.059,-3.19 0,-3.19"
         style="fill:#c25739;fill-opacity:1;fill-rule:nonzero;stroke:none;stroke-width:0.1"
         id="path612" />
      <path
         d="m 959.383,553.9 c 3.181,0.04 6.412,0.8 8.792,3.02 1.509,1.41 -0.755,3.66 -2.258,2.26 -1.743,-1.63 -4.228,-2.06 -6.534,-2.09 -2.057,-0.03 -2.06,-3.22 0,-3.19"
         style="fill:#c25739;fill-opacity:1;fill-rule:nonzero;stroke:none;stroke-width:0.1"
         id="path614" />
      <path
         d="m 967.309,565.29 c 0.574,2.29 1.114,4.62 2.393,6.64 1.105,1.74 -1.659,3.34 -2.757,1.61 -1.424,-2.25 -2.076,-4.85 -2.716,-7.41 -0.5,-1.99 2.58,-2.84 3.08,-0.84"
         style="fill:#c25739;fill-opacity:1;fill-rule:nonzero;stroke:none;stroke-width:0.1"
         id="path616" />
      <path
         d="m 975.772,555.87 c 2.34,0.74 5.028,1.16 7.454,0.64 2.006,-0.44 2.86,2.64 0.848,3.08 -2.986,0.64 -6.254,0.27 -9.15,-0.64 -1.957,-0.62 -1.121,-3.7 0.848,-3.08"
         style="fill:#c25739;fill-opacity:1;fill-rule:nonzero;stroke:none;stroke-width:0.1"
         id="path618" />
      <path
         d="m 978.643,537.44 c 1.547,2.01 3.601,3.7 6.07,4.38 1.983,0.54 1.14,3.63 -0.849,3.08 -3.323,-0.91 -5.911,-3.17 -7.979,-5.84 -1.258,-1.63 1.518,-3.22 2.758,-1.62"
         style="fill:#c25739;fill-opacity:1;fill-rule:nonzero;stroke:none;stroke-width:0.1"
         id="path620" />
      <path
         d="m 979.18,528.99 c 2.059,0 2.059,3.19 0,3.19 -2.059,0 -2.059,-3.19 0,-3.19"
         style="fill:#c25739;fill-opacity:1;fill-rule:nonzero;stroke:none;stroke-width:0.1"
         id="path622" />
      <path
         d="m 979.818,528.99 c 1.277,0 2.555,0 3.832,0 2.059,0 2.059,3.19 0,3.19 -1.277,0 -2.555,0 -3.832,0 -2.059,0 -2.059,-3.19 0,-3.19"
         style="fill:#c25739;fill-opacity:1;fill-rule:nonzero;stroke:none;stroke-width:0.1"
         id="path624" />
      <path
         d="m 988.759,550.7 c 2.359,-0.03 4.826,-0.43 6.857,-1.7 1.753,-1.09 3.354,1.68 1.612,2.76 -2.498,1.56 -5.566,2.09 -8.469,2.14 -2.061,0.03 -2.058,-3.17 0,-3.2"
         style="fill:#c25739;fill-opacity:1;fill-rule:nonzero;stroke:none;stroke-width:0.1"
         id="path626" />
      <path
         d="m 1002.81,559 c 2.55,0 5.11,0 7.66,0 2.06,0 2.06,3.2 0,3.2 -2.55,0 -5.11,0 -7.66,0 -2.06,0 -2.06,-3.2 0,-3.2"
         style="fill:#c25739;fill-opacity:1;fill-rule:nonzero;stroke:none;stroke-width:0.1"
         id="path628" />
      <path
         d="m 1011.75,541.12 c 2.36,-0.03 4.66,-0.6 7.02,-0.63 2.06,-0.04 2.06,3.16 0,3.19 -2.36,0.04 -4.66,0.6 -7.02,0.64 -2.06,0.03 -2.06,-3.16 0,-3.2"
         style="fill:#c25739;fill-opacity:1;fill-rule:nonzero;stroke:none;stroke-width:0.1"
         id="path630" />
      <path
         d="m 1009.41,528.41 c 1.7,-0.58 3.22,-1.4 4.73,-2.39 1.72,-1.14 3.32,1.62 1.61,2.75 -1.73,1.15 -3.53,2.05 -5.49,2.72 -1.96,0.66 -2.79,-2.42 -0.85,-3.08"
         style="fill:#c25739;fill-opacity:1;fill-rule:nonzero;stroke:none;stroke-width:0.1"
         id="path632" />
      <path
         d="m 1037.93,528.35 c 1.64,0 3.14,0.16 4.64,0.86 0.79,0.37 0.98,1.49 0.57,2.18 -0.47,0.81 -1.39,0.94 -2.18,0.58 -0.95,-0.45 -2.01,-0.42 -3.03,-0.43 -2.06,0 -2.06,-3.19 0,-3.19"
         style="fill:#c25739;fill-opacity:1;fill-rule:nonzero;stroke:none;stroke-width:0.1"
         id="path634" />
      <path
         d="m 1040.48,550.06 c -0.28,0.06 -0.35,0.07 -0.19,0.03 l -0.26,0.11 c 0.13,-0.08 0.08,-0.04 -0.17,0.14 0.1,-0.08 0.18,-0.17 0.27,-0.26 0.47,-0.42 1,-0.62 1.63,-0.65 0.87,-0.04 1.6,0.75 1.6,1.59 0,0.9 -0.73,1.56 -1.6,1.6 0.29,-0.06 0.35,-0.06 0.2,-0.03 l 0.26,-0.11 c -0.14,0.09 -0.08,0.04 0.17,-0.14 -0.1,0.08 -0.18,0.18 -0.27,0.26 -0.47,0.42 -1,0.63 -1.64,0.66 -0.87,0.04 -1.59,-0.76 -1.59,-1.6 0,-0.9 0.73,-1.56 1.59,-1.6"
         style="fill:#c25739;fill-opacity:1;fill-rule:nonzero;stroke:none;stroke-width:0.1"
         id="path636" />
      <path
         d="m 1022.44,532.4 c 1.86,-0.9 3.83,-1.45 5.91,-1.49 2.06,-0.05 2.06,3.14 0,3.19 -1.49,0.03 -2.96,0.41 -4.3,1.06 -1.85,0.89 -3.47,-1.86 -1.61,-2.76"
         style="fill:#c25739;fill-opacity:1;fill-rule:nonzero;stroke:none;stroke-width:0.1"
         id="path638" />
      <path
         d="m 1226.95,558.37 c 1.92,0 3.84,0 5.75,0 2.06,0 2.06,3.19 0,3.19 -1.91,0 -3.83,0 -5.75,0 -2.05,0 -2.05,-3.19 0,-3.19"
         style="fill:#c25739;fill-opacity:1;fill-rule:nonzero;stroke:none;stroke-width:0.1"
         id="path640" />
      <path
         d="m 1240.85,526.27 c 1.28,1.27 2.56,2.55 3.84,3.83 1.45,1.45 -0.8,3.71 -2.26,2.25 -1.28,-1.27 -2.56,-2.55 -3.83,-3.83 -1.46,-1.45 0.8,-3.71 2.25,-2.25"
         style="fill:#c25739;fill-opacity:1;fill-rule:nonzero;stroke:none;stroke-width:0.1"
         id="path642" />
      <path
         d="m 1206.84,519.73 c 0,0.1 0,0.2 0.01,0.31 -0.04,-0.5 -0.01,-0.11 0.03,0.02 0.1,0.41 -0.13,-0.22 -0.01,0 0.19,0.35 -0.19,-0.2 -0.02,-0.02 0.2,0.21 -0.33,-0.23 -0.09,-0.06 0.34,0.22 -0.27,-0.08 -0.02,0.01 0.11,0.04 0.23,0.06 0.35,0.08 -0.51,-0.09 -0.06,-0.02 0.07,-0.02 0.87,0.01 1.59,0.72 1.59,1.6 0,0.86 -0.72,1.61 -1.59,1.59 -0.96,-0.01 -1.86,-0.27 -2.57,-0.94 -0.69,-0.66 -0.93,-1.65 -0.94,-2.57 -0.02,-0.87 0.73,-1.6 1.59,-1.6 0.88,0 1.59,0.73 1.6,1.6"
         style="fill:#c25739;fill-opacity:1;fill-rule:nonzero;stroke:none;stroke-width:0.1"
         id="path644" />
      <path
         d="m 1286.56,559.7 c 1.59,-0.53 3.21,-1.02 4.73,-1.75 1.84,-0.9 3.46,1.86 1.61,2.75 -1.77,0.86 -3.64,1.46 -5.49,2.08 -1.96,0.65 -2.8,-2.43 -0.85,-3.08"
         style="fill:#c25739;fill-opacity:1;fill-rule:nonzero;stroke:none;stroke-width:0.1"
         id="path646" />
      <path
         d="m 1304.65,573.75 c 1.88,0.58 3.86,0.69 5.75,1.28 1.96,0.61 1.12,3.69 -0.85,3.08 -1.88,-0.59 -3.87,-0.7 -5.75,-1.28 -1.96,-0.61 -1.12,-3.69 0.85,-3.08"
         style="fill:#c25739;fill-opacity:1;fill-rule:nonzero;stroke:none;stroke-width:0.1"
         id="path648" />
      <path
         d="m 917.069,552.2 c 1.921,-1.28 3.771,-2.6 5.424,-4.22 1.47,-1.45 3.729,0.81 2.258,2.26 -1.842,1.8 -3.929,3.29 -6.071,4.72 -1.718,1.14 -3.315,-1.63 -1.611,-2.76"
         style="fill:#c25739;fill-opacity:1;fill-rule:nonzero;stroke:none;stroke-width:0.1"
         id="path650" />
      <path
         d="m 903.288,568.1 c 2.019,2.64 4.366,5.01 6.386,7.66 1.25,1.64 -1.526,3.23 -2.757,1.61 -2.019,-2.64 -4.366,-5.02 -6.386,-7.66 -1.25,-1.64 1.526,-3.23 2.757,-1.61"
         style="fill:#c25739;fill-opacity:1;fill-rule:nonzero;stroke:none;stroke-width:0.1"
         id="path652" />
      <path
         d="m 917.875,592.85 c 2.165,-0.06 3.765,-1.26 5.257,-2.73 1.47,-1.44 3.728,0.82 2.258,2.26 -2.113,2.08 -4.482,3.58 -7.515,3.66 -2.061,0.06 -2.056,-3.14 0,-3.19"
         style="fill:#c25739;fill-opacity:1;fill-rule:nonzero;stroke:none;stroke-width:0.1"
         id="path654" />
      <path
         d="m 940.226,559 c 1.915,0 3.831,0 5.747,0 2.059,0 2.059,3.2 0,3.2 -1.916,0 -3.832,0 -5.747,0 -2.06,0 -2.06,-3.2 0,-3.2"
         style="fill:#c25739;fill-opacity:1;fill-rule:nonzero;stroke:none;stroke-width:0.1"
         id="path656" />
      <path
         d="m 946.235,572.31 c 0.586,2.53 0.691,5.13 1.277,7.66 0.465,2.01 -2.614,2.86 -3.079,0.85 -0.586,-2.53 -0.691,-5.13 -1.277,-7.66 -0.465,-2 2.614,-2.86 3.079,-0.85"
         style="fill:#c25739;fill-opacity:1;fill-rule:nonzero;stroke:none;stroke-width:0.1"
         id="path658" />
      <path
         d="m 974.709,571.14 c 2.019,0 4.018,0.03 5.962,-0.58 1.971,-0.62 2.807,2.46 0.849,3.07 -2.208,0.7 -4.519,0.7 -6.811,0.7 -2.059,0 -2.059,-3.19 0,-3.19"
         style="fill:#c25739;fill-opacity:1;fill-rule:nonzero;stroke:none;stroke-width:0.1"
         id="path660" />
      <path
         d="m 949.166,536.65 c 2.554,0 5.108,0 7.663,0 2.059,0 2.059,3.2 0,3.2 -2.555,0 -5.109,0 -7.663,0 -2.06,0 -2.06,-3.2 0,-3.2"
         style="fill:#c25739;fill-opacity:1;fill-rule:nonzero;stroke:none;stroke-width:0.1"
         id="path662" />
    </g>
  </g>
</svg>
