<?xml version="1.0" encoding="UTF-8" standalone="no"?>
<!-- Created with Inkscape (http://www.inkscape.org/) -->

<svg
   width="191.27953mm"
   height="101.18877mm"
   viewBox="0 0 191.27953 101.18877"
   version="1.1"
   id="svg12615"
   inkscape:version="1.1.1 (3bf5ae0d25, 2021-09-20)"
   sodipodi:docname="cheese-cheddar.svg"
   xmlns:inkscape="http://www.inkscape.org/namespaces/inkscape"
   xmlns:sodipodi="http://sodipodi.sourceforge.net/DTD/sodipodi-0.dtd"
   xmlns="http://www.w3.org/2000/svg"
   xmlns:svg="http://www.w3.org/2000/svg">
  <sodipodi:namedview
     id="namedview12617"
     pagecolor="#505050"
     bordercolor="#ffffff"
     borderopacity="1"
     inkscape:pageshadow="0"
     inkscape:pageopacity="0"
     inkscape:pagecheckerboard="1"
     inkscape:document-units="mm"
     showgrid="false"
     inkscape:zoom="0.72337262"
     inkscape:cx="354.58904"
     inkscape:cy="299.2925"
     inkscape:window-width="1920"
     inkscape:window-height="1001"
     inkscape:window-x="-9"
     inkscape:window-y="-9"
     inkscape:window-maximized="1"
     inkscape:current-layer="layer1" />
  <defs
     id="defs12612" />
  <g
     inkscape:label="Layer 1"
     inkscape:groupmode="layer"
     id="layer1"
     transform="translate(-11.163191,-69.376062)">
    <g
       id="g12244"
       transform="matrix(0.35277777,0,0,-0.35277777,-520.91871,611.43902)">
      <path
         d="m 1768.41,1536.47 c -18.73,3.51 -269.61,-100.93 -259.87,-118.78 9.84,-18.02 37.15,-13.35 70.39,-28.72 48.39,-22.39 118.91,-70.83 171.42,-98.94 29.31,-15.69 25.88,-39.24 51.02,-39.92 18.54,-0.49 19.45,22.98 48.19,41.52 52.08,33.58 110.43,72.92 151.87,92.39 15.38,7.22 46.21,11.54 47.88,24.37 2.16,16.7 -238.94,120.2 -280.9,128.08"
         style="fill:#ffbe00;fill-opacity:1;fill-rule:nonzero;stroke:none;stroke-width:0.1"
         id="path2626" />
      <path
         d="m 1800.55,1276.67 c -2.29,0 -4.82,2.42 -8.86,7.62 -5.48,7.05 -10.74,13.9 -16.69,20.68 -16.92,19.26 -38.73,32.42 -61.41,46.22 -12.74,7.74 -25.14,16.01 -38.86,22.24 -14.37,6.53 -30.52,10.28 -44.13,17.92 -20.63,11.57 -37.26,17.42 -60.08,23.93 -4.97,1.42 -23.56,4.67 -26.46,8.12 -5.67,6.74 5.61,9.79 11.19,13.19 12.92,7.89 24.9,15.71 38.54,22.15 l 14.2,6.67 c 1.81,3.77 18.2,9.08 25.98,11.83 5.18,1.83 9.53,2.64 12.92,2.64 11.36,0 12.01,-9.1 -2.37,-19.54 -10.7,-7.77 -28.34,-20.8 -17.89,-33.73 5.09,-6.3 17.66,-10.43 24.88,-14.73 9.28,-5.52 18.22,-10.75 28.16,-15.52 26.04,-12.48 52.22,-24.49 77.57,-37.95 17.22,-9.15 41.43,-13.79 56.25,-26.52 17.56,-15.08 5.83,-31.6 -4.2,-46.43 -3.85,-5.69 -6.14,-8.79 -8.74,-8.79"
         style="fill:#ffcb27;fill-opacity:1;fill-rule:nonzero;stroke:none;stroke-width:0.1"
         id="path2628" />
      <path
         d="m 1933.48,1381.55 c -6.63,0 -10.95,3.47 -8.89,14.16 3.73,19.38 11.51,27.95 -7.12,44.51 -11.7,10.4 -25.84,14.91 -38.7,23.18 -5.13,3.29 -12.67,8.25 -15.72,13.36 -3.26,5.46 -1.86,11.23 2.64,11.23 1.7,0 3.85,-0.83 6.35,-2.81 l 3.08,-3.27 c 7.4,-2.46 13,-9.32 20.26,-12.8 8.62,-4.14 17.44,-7.53 26.02,-11.62 18.29,-8.73 36.6,-13.62 55.85,-18.81 11.14,-3.01 37.05,-15.17 31.18,-28.7 -3.21,-7.39 -13.94,-9.75 -21.15,-11.24 -9.56,-1.97 -16.4,-3.66 -25.88,-8.13 -7.52,-3.53 -19.55,-9.06 -27.92,-9.06"
         style="fill:#ffcb27;fill-opacity:1;fill-rule:nonzero;stroke:none;stroke-width:0.1"
         id="path2630" />
      <path
         d="m 1607.71,1459.54 -3.17,-1.71 c -10.18,-5.1 -19.84,-10.94 -29.65,-16.41 -4.78,-2.67 -27.89,-13.7 -10.27,-15.19 11.68,-0.98 22.63,11.14 30.45,17.06 7.45,5.62 18.79,9.86 24.11,17.19 -2.83,3.11 -8.87,2 -11.47,-0.94"
         style="fill:#f9ed98;fill-opacity:1;fill-rule:nonzero;stroke:none;stroke-width:0.1"
         id="path2632" />
      <path
         d="m 2050.46,1408 c 0.16,1.29 -1.12,3.1 -3.65,5.34 -1.77,-1.38 -0.24,-6.08 -2.31,-7.46 -15.63,-10.45 -32.24,-12.61 -50.45,-20.06 -43.9,-17.98 -83.61,-43.68 -122.94,-69.28 -15.46,-10.07 -27.7,-19.67 -41.92,-31.89 -7.68,-6.59 -14.03,-22.53 -32.84,-24.21 -2.54,-0.23 -14.39,0.74 -20.02,6.63 6.96,-9.36 12.06,-16.96 26.19,-17.34 18.54,-0.5 19.44,22.97 48.19,41.51 52.08,33.58 110.43,72.93 151.87,92.39 15.38,7.22 46.21,11.54 47.88,24.37"
         style="fill:#ef9c07;fill-opacity:1;fill-rule:nonzero;stroke:none;stroke-width:0.1"
         id="path2634" />
    </g>
  </g>
</svg>
