<?xml version="1.0" encoding="UTF-8" standalone="no"?>
<!-- Created with Inkscape (http://www.inkscape.org/) -->

<svg
   width="121.23562mm"
   height="236.07542mm"
   viewBox="0 0 121.23562 236.07543"
   version="1.1"
   id="svg4558"
   inkscape:version="1.1.1 (3bf5ae0d25, 2021-09-20)"
   sodipodi:docname="drink-cola-zero.svg"
   xmlns:inkscape="http://www.inkscape.org/namespaces/inkscape"
   xmlns:sodipodi="http://sodipodi.sourceforge.net/DTD/sodipodi-0.dtd"
   xmlns="http://www.w3.org/2000/svg"
   xmlns:svg="http://www.w3.org/2000/svg">
  <sodipodi:namedview
     id="namedview4560"
     pagecolor="#505050"
     bordercolor="#ffffff"
     borderopacity="1"
     inkscape:pageshadow="0"
     inkscape:pageopacity="0"
     inkscape:pagecheckerboard="1"
     inkscape:document-units="mm"
     showgrid="false"
     inkscape:zoom="0.63234634"
     inkscape:cx="37.953885"
     inkscape:cy="345.53849"
     inkscape:window-width="1920"
     inkscape:window-height="1001"
     inkscape:window-x="-9"
     inkscape:window-y="-9"
     inkscape:window-maximized="1"
     inkscape:current-layer="text3270" />
  <defs
     id="defs4555">
    <rect
       x="-249.86307"
       y="681.5885"
       width="204.00214"
       height="41.116707"
       id="rect8634" />
    <rect
       x="-382.70166"
       y="664.19299"
       width="213.4906"
       height="66.419296"
       id="rect3272" />
    <clipPath
       clipPathUnits="userSpaceOnUse"
       id="clipPath262">
      <path
         d="m 13714.5,18258.4 c 0,0.2 0,0.4 0,0.7 0,-0.3 0,-0.5 0,-0.7 m -3173.5,0 c 0,0.3 0,0.5 0,0.8 0,-0.3 0,-0.5 0,-0.8 m 0,1.1 c 0,0.1 0,0.2 0,0.3 0,-0.1 0,-0.2 0,-0.3 m 3048.1,134.8 c -0.1,0 -0.1,0 -0.1,0 0,0 0,0 0.1,0 m -0.7,0.1 c -0.1,0 -0.2,0 -0.2,0 0,0 0.1,0 0.2,0 m -0.8,0 c -0.1,0 -0.1,0 -0.2,0 0.1,0 0.1,0 0.2,0 m -1.4,0.1 h -0.1 0.1 m -0.5,0 c -0.1,0 -0.3,0 -0.4,0.1 0.1,-0.1 0.3,-0.1 0.4,-0.1 m -0.8,0.1 c -0.1,0 -0.3,0 -0.4,0 0.2,0 0.3,0 0.4,0 m -0.8,0 c -0.1,0 -0.3,0 -0.4,0 0.1,0 0.3,0 0.4,0 m -0.8,0 c -0.2,0 -0.3,0.1 -0.5,0.1 0.2,0 0.3,-0.1 0.5,-0.1 m -0.8,0.1 c -0.2,0 -0.5,0 -0.8,0 0.3,0 0.6,0 0.8,0 m -1,0 c -0.2,0 -0.4,0 -0.6,0 0.2,0 0.4,0 0.6,0 m -0.9,0 c -0.2,0 -0.3,0 -0.5,0 0.2,0 0.3,0 0.5,0 m -0.8,0 c -0.2,0 -0.4,0 -0.6,0 0.2,0 0.4,0 0.6,0 m -0.8,0 c -0.3,0 -0.6,0 -0.8,0 0.2,0 0.5,0 0.8,0"
         id="path260" />
    </clipPath>
    <clipPath
       clipPathUnits="userSpaceOnUse"
       id="clipPath262-0">
      <path
         d="m 13714.5,18258.4 c 0,0.2 0,0.4 0,0.7 0,-0.3 0,-0.5 0,-0.7 m -3173.5,0 c 0,0.3 0,0.5 0,0.8 0,-0.3 0,-0.5 0,-0.8 m 0,1.1 c 0,0.1 0,0.2 0,0.3 0,-0.1 0,-0.2 0,-0.3 m 3048.1,134.8 c -0.1,0 -0.1,0 -0.1,0 0,0 0,0 0.1,0 m -0.7,0.1 c -0.1,0 -0.2,0 -0.2,0 0,0 0.1,0 0.2,0 m -0.8,0 c -0.1,0 -0.1,0 -0.2,0 0.1,0 0.1,0 0.2,0 m -1.4,0.1 h -0.1 0.1 m -0.5,0 c -0.1,0 -0.3,0 -0.4,0.1 0.1,-0.1 0.3,-0.1 0.4,-0.1 m -0.8,0.1 c -0.1,0 -0.3,0 -0.4,0 0.2,0 0.3,0 0.4,0 m -0.8,0 c -0.1,0 -0.3,0 -0.4,0 0.1,0 0.3,0 0.4,0 m -0.8,0 c -0.2,0 -0.3,0.1 -0.5,0.1 0.2,0 0.3,-0.1 0.5,-0.1 m -0.8,0.1 c -0.2,0 -0.5,0 -0.8,0 0.3,0 0.6,0 0.8,0 m -1,0 c -0.2,0 -0.4,0 -0.6,0 0.2,0 0.4,0 0.6,0 m -0.9,0 c -0.2,0 -0.3,0 -0.5,0 0.2,0 0.3,0 0.5,0 m -0.8,0 c -0.2,0 -0.4,0 -0.6,0 0.2,0 0.4,0 0.6,0 m -0.8,0 c -0.3,0 -0.6,0 -0.8,0 0.2,0 0.5,0 0.8,0"
         id="path260-1" />
    </clipPath>
    <clipPath
       clipPathUnits="userSpaceOnUse"
       id="clipPath262-4">
      <path
         d="m 13714.5,18258.4 c 0,0.2 0,0.4 0,0.7 0,-0.3 0,-0.5 0,-0.7 m -3173.5,0 c 0,0.3 0,0.5 0,0.8 0,-0.3 0,-0.5 0,-0.8 m 0,1.1 c 0,0.1 0,0.2 0,0.3 0,-0.1 0,-0.2 0,-0.3 m 3048.1,134.8 c -0.1,0 -0.1,0 -0.1,0 0,0 0,0 0.1,0 m -0.7,0.1 c -0.1,0 -0.2,0 -0.2,0 0,0 0.1,0 0.2,0 m -0.8,0 c -0.1,0 -0.1,0 -0.2,0 0.1,0 0.1,0 0.2,0 m -1.4,0.1 h -0.1 0.1 m -0.5,0 c -0.1,0 -0.3,0 -0.4,0.1 0.1,-0.1 0.3,-0.1 0.4,-0.1 m -0.8,0.1 c -0.1,0 -0.3,0 -0.4,0 0.2,0 0.3,0 0.4,0 m -0.8,0 c -0.1,0 -0.3,0 -0.4,0 0.1,0 0.3,0 0.4,0 m -0.8,0 c -0.2,0 -0.3,0.1 -0.5,0.1 0.2,0 0.3,-0.1 0.5,-0.1 m -0.8,0.1 c -0.2,0 -0.5,0 -0.8,0 0.3,0 0.6,0 0.8,0 m -1,0 c -0.2,0 -0.4,0 -0.6,0 0.2,0 0.4,0 0.6,0 m -0.9,0 c -0.2,0 -0.3,0 -0.5,0 0.2,0 0.3,0 0.5,0 m -0.8,0 c -0.2,0 -0.4,0 -0.6,0 0.2,0 0.4,0 0.6,0 m -0.8,0 c -0.3,0 -0.6,0 -0.8,0 0.2,0 0.5,0 0.8,0"
         id="path260-6" />
    </clipPath>
    <clipPath
       clipPathUnits="userSpaceOnUse"
       id="clipPath262-4-7">
      <path
         d="m 13714.5,18258.4 c 0,0.2 0,0.4 0,0.7 0,-0.3 0,-0.5 0,-0.7 m -3173.5,0 c 0,0.3 0,0.5 0,0.8 0,-0.3 0,-0.5 0,-0.8 m 0,1.1 c 0,0.1 0,0.2 0,0.3 0,-0.1 0,-0.2 0,-0.3 m 3048.1,134.8 c -0.1,0 -0.1,0 -0.1,0 0,0 0,0 0.1,0 m -0.7,0.1 c -0.1,0 -0.2,0 -0.2,0 0,0 0.1,0 0.2,0 m -0.8,0 c -0.1,0 -0.1,0 -0.2,0 0.1,0 0.1,0 0.2,0 m -1.4,0.1 h -0.1 0.1 m -0.5,0 c -0.1,0 -0.3,0 -0.4,0.1 0.1,-0.1 0.3,-0.1 0.4,-0.1 m -0.8,0.1 c -0.1,0 -0.3,0 -0.4,0 0.2,0 0.3,0 0.4,0 m -0.8,0 c -0.1,0 -0.3,0 -0.4,0 0.1,0 0.3,0 0.4,0 m -0.8,0 c -0.2,0 -0.3,0.1 -0.5,0.1 0.2,0 0.3,-0.1 0.5,-0.1 m -0.8,0.1 c -0.2,0 -0.5,0 -0.8,0 0.3,0 0.6,0 0.8,0 m -1,0 c -0.2,0 -0.4,0 -0.6,0 0.2,0 0.4,0 0.6,0 m -0.9,0 c -0.2,0 -0.3,0 -0.5,0 0.2,0 0.3,0 0.5,0 m -0.8,0 c -0.2,0 -0.4,0 -0.6,0 0.2,0 0.4,0 0.6,0 m -0.8,0 c -0.3,0 -0.6,0 -0.8,0 0.2,0 0.5,0 0.8,0"
         id="path260-6-0" />
    </clipPath>
  </defs>
  <g
     inkscape:label="Layer 1"
     inkscape:groupmode="layer"
     id="layer1"
     transform="translate(-70.335064,-39.0588)">
    <g
       aria-label="ZERO"
       transform="matrix(0,-0.46992556,0.46992556,0,-205.31196,28.329236)"
       id="text3270"
       style="font-size:40px;line-height:1.25;font-family:'OCR A Extended';-inkscape-font-specification:'OCR A Extended';white-space:pre;shape-inside:url(#rect3272);fill:#ededc3">
      <g
         id="g115393">
        <path
           d="M -492.64939,586.57593 V 844.56492 H -64.679399 V 586.57593 Z"
           style="fill:#ff1206;fill-opacity:1;fill-rule:nonzero;stroke:none;stroke-width:0.075071"
           id="path244" />
        <path
           d="m -492.64939,586.58344 -32.5508,20.49438 v 108.4926 h 32.5508 V 586.58344"
           style="fill:#ced5d0;fill-opacity:1;fill-rule:nonzero;stroke:none;stroke-width:0.075071"
           id="path246" />
        <path
           d="m -492.64939,844.56492 -32.5508,-20.49438 V 715.57042 h 32.5508 v 128.9945"
           style="fill:#ced5d0;fill-opacity:1;fill-rule:nonzero;stroke:none;stroke-width:0.075071"
           id="path248" />
        <path
           d="m -64.677143,586.57593 21.380216,19.59353 V 715.57042 H -64.677143 V 586.57593"
           style="fill:#ced5d0;fill-opacity:1;fill-rule:nonzero;stroke:none;stroke-width:0.075071"
           id="path250" />
        <path
           d="M -64.677143,844.56492 -43.296927,824.9789 V 715.57042 h -21.380216 v 128.9945"
           style="fill:#ced5d0;fill-opacity:1;fill-rule:nonzero;stroke:none;stroke-width:0.075071"
           id="path252" />
        <path
           d="M -43.296927,824.4609 V 606.68745 c 0,-5.65284 4.586832,-10.23217 10.232173,-10.23217 5.652853,0 10.232174,4.57933 10.232174,10.23217 V 824.4609 c 0,5.64534 -4.579321,10.23218 -10.232174,10.23218 -5.645341,0 -10.232173,-4.58684 -10.232173,-10.23218"
           style="fill:#ced5d0;fill-opacity:1;fill-rule:nonzero;stroke:none;stroke-width:0.075071"
           id="path254" />
        <g
           id="g256"
           transform="matrix(0,0.075071,0.075071,0,-1403.741,-194.86807)">
          <g
             id="g258"
             clip-path="url(#clipPath262-4)">
            <path
               d="m 10541,18258.4 h 3173.5 v 136.301 H 10541 Z"
               style="fill:#d2d2d8;fill-opacity:1;fill-rule:nonzero;stroke:none"
               id="path264" />
          </g>
        </g>
        <path
           d="m -43.296927,824.4609 v -217.77345 0 c 0,-5.65284 4.586832,-10.23217 10.232173,-10.23217 v 0 c 0.02256,0 0.03745,0 0.06001,0 0.0085,0 0.0149,0 0.02256,0 0.0085,0 0.0149,0 0.02256,0 0.938383,0.007 1.839228,0.15764 2.702556,0.39787 -4.286551,1.22366 -7.432028,5.15738 -7.432028,9.8343 v 162.39357 c 1.388816,0.70569 2.957787,1.11107 4.624371,1.11107 5.652852,0 10.232173,-4.57934 10.232173,-10.23219 v 64.501 0 c 0,0.0149 0,0.0374 0,0.06 0,0.009 0,0.0149 0,0.0149 0,0.0149 0,0.03 0,0.0451 0,0.009 0,0.0149 0,0.0226 0,0.0149 0,0.0226 0,0.0375 0,0.009 0,0.0149 0,0.0226 0,0.0149 0,0.03 0,0.0451 0,0.009 0,0.009 0,0.0149 0,0.0226 0,0.0451 0,0.06 0,0.009 0,0.0149 0,0.0226 0,0.0149 -0.0085,0.0226 -0.0085,0.0375 0,0.009 0,0.0226 0,0.03 0,0.009 0,0.0226 0,0.03 0,0.0149 0,0.0225 0,0.03 0,0.009 0,0.0226 0,0.03 0,0.0149 0,0.0226 0,0.03 -0.0085,0.009 -0.0085,0.0226 -0.0085,0.03 0,0.009 0,0.0226 0,0.03 v 0.009 c 0,0.03 -0.0085,0.06 -0.0085,0.09 0,0.009 0,0.009 0,0.0149 0,0.0149 0,0.03 0,0.0451 0,0 0,0.009 0,0.0149 -0.0085,0.0149 -0.0085,0.03 -0.0085,0.0451 0,0 0,0 0,0.009 -0.345331,4.30906 -3.363192,7.86743 -7.39449,9.01602 -0.405383,0.11257 -0.82579,0.20259 -1.246176,0.26274 -0.07512,0.0149 -0.150237,0.0226 -0.225227,0.0375 -0.420386,0.0526 -0.848305,0.09 -1.283714,0.0977 -0.02256,0 -0.03745,0 -0.05256,0 v 0 c -5.645341,0 -10.232173,-4.58683 -10.232173,-10.23217"
           style="fill:#b1b5b9;fill-opacity:1;fill-rule:nonzero;stroke:none;stroke-width:0.075071"
           id="path266" />
        <path
           d="m -357.8444,626.86654 c 0,-1.3738 0.27025,-2.75511 0.85579,-4.09888 3.59591,-8.26532 15.55472,-9.86433 25.31395,-10.1496 34.32245,-0.99094 68.63742,-1.98187 102.95988,-2.97281 5.20993,10.50243 8.04761,21.7856 9.3013,33.4141 -34.47261,-0.96842 -69.00527,-0.81827 -103.5079,0.45043 -8.23529,0.30028 -16.86095,0.60056 -24.23291,-2.60497 -5.96064,-2.58244 -10.69011,-8.27282 -10.69011,-14.03827 m 150.58491,-17.83687 c 4.36912,-0.12762 8.73826,-0.25524 13.11491,-0.38287 5.1048,11.37326 8.61813,23.24949 9.96191,35.78635 -4.91716,-0.24773 -9.84181,-0.47295 -14.75895,-0.66813 -0.0751,-1.08102 -0.16513,-2.16205 -0.27026,-3.24307 -1.0585,-10.82524 -3.80611,-21.47781 -8.04761,-31.49228"
           style="fill:#ff837d;fill-opacity:1;fill-rule:nonzero;stroke:none;stroke-width:0.075071"
           id="path268" />
        <path
           d="m -127.88694,622.6025 c 0,-4.84208 6.00569,-9.68415 14.84154,-11.35073 10.56999,-1.99689 23.639851,0.8408 28.331807,6.14831 0.412874,0.46544 0.743203,1.01346 0.743203,1.51644 0,0.42039 -0.225228,0.81827 -0.818279,1.11105 l 2.034429,1.10354 c 0.06746,0.35284 0.105123,0.70567 0.105123,1.051 0,5.45766 -8.130182,10.72013 -18.519993,11.71858 -11.05797,1.06601 -23.05432,-2.84519 -26.00461,-8.48302 -0.48795,-0.92338 -0.71318,-1.86927 -0.71318,-2.81517"
           style="fill:#ff837d;fill-opacity:1;fill-rule:nonzero;stroke:none;stroke-width:0.075071"
           id="path270" />
        <path
           d="m -442.33775,776.56521 c -4.0313,0 -7.75482,-0.59307 -11.17055,-1.77919 -3.40823,-1.19362 -6.3435,-2.9653 -8.79833,-5.32253 -2.45482,-2.35722 -4.35412,-5.30001 -5.7054,-8.82084 -1.35127,-3.52083 -2.0194,-7.58968 -2.0194,-12.20654 0,-4.30157 0.6381,-8.20526 1.92932,-11.70357 1.29123,-3.49831 3.16048,-6.49364 5.61532,-9.00101 2.34971,-2.40228 5.27747,-4.26404 8.76077,-5.57027 3.4833,-1.31375 7.2969,-1.97437 11.42581,-1.97437 2.28217,0 4.33911,0.12762 6.17834,0.38286 1.83174,0.25524 3.52835,0.59306 5.08232,1.00595 1.62904,0.45794 3.10042,0.97593 4.42919,1.54647 1.32125,0.57054 2.48484,1.10354 3.48329,1.58399 v 13.15995 h -1.60653 c -0.68313,-0.57805 -1.53894,-1.2687 -2.56743,-2.06445 -1.03597,-0.80326 -2.20707,-1.584 -3.52081,-2.35723 -1.33627,-0.77323 -2.77763,-1.42635 -4.33911,-1.95935 -1.55397,-0.53301 -3.21304,-0.79576 -4.99222,-0.79576 -1.96686,0 -3.83614,0.30779 -5.6078,0.92338 -1.77169,0.61558 -3.41573,1.64405 -4.91716,3.0704 -1.44136,1.38881 -2.59746,3.21304 -3.4833,5.4952 -0.88582,2.28215 -1.32874,5.04477 -1.32874,8.29534 0,3.39321 0.47295,6.23089 1.44135,8.50555 0.95341,2.28215 2.16205,4.07635 3.61843,5.38259 1.4864,1.33627 3.13796,2.28965 4.96219,2.8527 1.81671,0.57054 3.61842,0.85579 5.39009,0.85579 1.70412,0 3.3857,-0.24772 5.04477,-0.7582 1.66659,-0.51049 3.20553,-1.19364 4.61688,-2.06446 1.18611,-0.70566 2.28966,-1.45637 3.31063,-2.25213 1.02095,-0.79575 1.86175,-1.4864 2.51487,-2.06445 h 1.46389 v 12.97227 c -1.3663,0.60808 -2.66502,1.17862 -3.9037,1.71162 -1.23866,0.533 -2.5374,0.99843 -3.89617,1.38881 -1.7792,0.51049 -3.43827,0.89333 -4.99224,1.16361 -1.56146,0.27026 -3.69348,0.39787 -6.41857,0.39787"
           style="fill:#ededc3;fill-opacity:1;fill-rule:nonzero;stroke:none;stroke-width:0.075071"
           id="path272" />
        <path
           d="m -378.63249,762.13656 c 1.35879,-1.65156 2.36474,-3.6034 3.02535,-5.84803 0.65313,-2.24462 0.98344,-4.88712 0.98344,-7.92749 0,-3.25809 -0.37536,-6.02821 -1.13357,-8.31036 -0.75071,-2.28216 -1.73414,-4.12891 -2.95029,-5.54024 -1.23867,-1.45638 -2.66502,-2.51488 -4.27904,-3.168 -1.62154,-0.65312 -3.30314,-0.98343 -5.05229,-0.98343 -1.77167,0 -3.43825,0.3153 -5.00724,0.94589 -1.56897,0.6306 -3.01033,1.67409 -4.31658,3.13797 -1.21615,1.35879 -2.20707,3.23556 -2.97281,5.63033 -0.76572,2.38725 -1.14859,5.16488 -1.14859,8.32537 0,3.22805 0.36785,5.98316 1.11105,8.2503 0.7432,2.27465 1.71912,4.12891 2.93527,5.56276 1.21615,1.43386 2.635,2.48485 4.26404,3.168 1.62905,0.68315 3.34066,1.02097 5.13486,1.02097 1.80171,0 3.51332,-0.34533 5.14236,-1.03599 1.62905,-0.69815 3.04789,-1.77166 4.26404,-3.22805 z m 18.55005,-13.73799 c 0,8.64818 -2.47735,15.51717 -7.43954,20.607 -4.95468,5.08981 -11.80117,7.63472 -20.54694,7.63472 -8.72325,0 -15.56221,-2.54491 -20.5244,-7.63472 -4.9547,-5.08983 -7.43203,-11.95882 -7.43203,-20.607 0,-8.72325 2.47733,-15.61477 7.43203,-20.68206 4.96219,-5.06729 11.80115,-7.59718 20.5244,-7.59718 8.69323,0 15.53218,2.52989 20.51691,7.59718 4.97721,5.06729 7.46957,11.95881 7.46957,20.68206"
           style="fill:#ededc3;fill-opacity:1;fill-rule:nonzero;stroke:none;stroke-width:0.075071"
           id="path274" />
        <path
           d="m -310.26534,775.51422 h -39.14201 v -54.26883 h 13.99324 v 43.7664 h 25.14877 v 10.50243"
           style="fill:#ededc3;fill-opacity:1;fill-rule:nonzero;stroke:none;stroke-width:0.075071"
           id="path276" />
        <path
           d="m -273.30038,754.59193 -6.6738,-19.43588 -6.67383,19.43588 z m 21.59793,20.92229 h -14.45116 l -3.7836,-10.97538 h -20.08148 l -3.77606,10.97538 h -14.10586 l 20.04397,-54.26883 h 16.11023 l 20.04396,54.26883"
           style="fill:#ededc3;fill-opacity:1;fill-rule:nonzero;stroke:none;stroke-width:0.075071"
           id="path278" />
        <path
           d="m -101.32682,844.56492 c -1.92933,-10.58502 -5.57778,-21.08745 -9.95441,-30.79412 -10.60753,-23.48972 -25.32145,-45.61313 -30.19354,-70.92708 -3.75356,-19.54848 -1.34379,-39.38224 1.06599,-59.28356 1.54646,-12.79962 3.10043,-25.62925 3.00284,-38.42885 -0.0677,-10.54748 -4.84206,-35.18578 -13.46022,-58.55538 h -55.38738 c 14.18841,21.99581 23.38461,45.63566 22.64141,72.26334 -0.85582,30.50134 -13.50527,60.70242 -8.28033,90.76835 4.32409,24.856 20.21663,45.83083 32.61833,67.80412 4.78204,8.48303 9.0911,17.70174 12.00386,27.15318 h 45.94345"
           style="fill:#ededc3;fill-opacity:1;fill-rule:nonzero;stroke:none;stroke-width:0.075071"
           id="path280" />
        <path
           d="m -163.11024,844.56492 c -3.20553,-11.96633 -7.95752,-23.51975 -14.15839,-34.2549 -7.82239,-13.53529 -17.92695,-25.87697 -23.62485,-40.44074 -7.92749,-20.26917 -6.57621,-42.89556 -3.61843,-64.45596 2.95781,-21.55288 7.41703,-43.2334 5.30003,-64.89137 -1.72663,-17.6567 -7.94251,-34.83294 -17.79184,-49.57688 -0.96089,-1.44137 -1.90679,-2.89774 -2.85268,-4.36914 h -24.27797 c 5.23244,6.66631 10.31476,13.41519 14.29352,20.87725 14.76646,27.69369 12.37921,61.16034 7.33443,92.13463 -3.82862,23.51974 -8.94846,47.79771 -2.91276,70.84449 5.11235,19.52597 17.71677,36.06412 27.1532,53.90099 3.37068,6.35851 6.32847,13.21249 8.37792,20.23163 h 26.77782"
           style="fill:#ededc3;fill-opacity:1;fill-rule:nonzero;stroke:none;stroke-width:0.075071"
           id="path282" />
        <path
           d="m -492.64939,844.56492 v -69.22297 h 268.68659 c 5.77296,17.43149 17.06364,32.66339 25.69682,48.99134 3.37068,6.35851 6.32847,13.21249 8.37792,20.23163 h -302.76133 m 294.13567,-69.22297 h 15.16433 c 6.84647,14.45868 16.17029,28.06155 24.07526,42.06979 4.78204,8.48303 9.0911,17.70174 12.00386,27.15318 h -15.83997 c -3.20553,-11.96633 -7.95752,-23.51975 -14.15839,-34.2549 -6.82396,-11.80866 -15.38955,-22.70898 -21.24509,-34.96807 m 68.25455,0 h 65.582027 v 69.22297 h -36.649677 c -1.92933,-10.58502 -5.57778,-21.08745 -9.95441,-30.79412 -5.85554,-12.97226 -12.96475,-25.52414 -18.97794,-38.42885"
           style="fill:#d23331;fill-opacity:1;fill-rule:nonzero;stroke:none;stroke-width:0.075071"
           id="path284" />
        <path
           d="m -525.20019,824.07054 v -62.54916 l 32.5508,13.82057 v 69.22297 l -32.5508,-20.49438"
           style="fill:#b1b5b9;fill-opacity:1;fill-rule:nonzero;stroke:none;stroke-width:0.075071"
           id="path286" />
        <path
           d="m -64.677143,844.56492 v -69.22297 l 21.380216,-16.82341 v 65.94236 l -21.380216,20.10402"
           style="fill:#b1b5b9;fill-opacity:1;fill-rule:nonzero;stroke:none;stroke-width:0.075071"
           id="path288" />
        <path
           d="m -183.34939,775.34195 h 53.09022 c 6.01319,12.90471 13.1224,25.45659 18.97794,38.42885 4.37663,9.70667 8.02508,20.2091 9.95441,30.79412 v 0 h -45.94345 v 0 c -2.91276,-9.45144 -7.22182,-18.67015 -12.00386,-27.15318 -7.90497,-14.00824 -17.22879,-27.61111 -24.07526,-42.06979"
           style="fill:#c6c5b0;fill-opacity:1;fill-rule:nonzero;stroke:none;stroke-width:0.075071"
           id="path290" />
        <path
           d="m -223.9628,775.34195 h 25.44908 c 5.85554,12.25909 14.42113,23.15941 21.24509,34.96807 6.20087,10.73515 10.95286,22.28857 14.15839,34.2549 v 0 h -26.77782 v 0 c -2.04945,-7.01914 -5.00724,-13.87312 -8.37792,-20.23163 -8.63318,-16.32795 -19.92386,-31.55985 -25.69682,-48.99134"
           style="fill:#c6c5b0;fill-opacity:1;fill-rule:nonzero;stroke:none;stroke-width:0.075071"
           id="path292" />
        <path
           d="m -341.966,788.88336 q -0.0391,0.13672 -0.3125,0.3125 -0.58593,0.39063 -1.17187,0.85938 -0.56641,0.46875 -2.85156,3.20312 -2.92969,3.47657 -5.3125,5.97657 -2.36328,2.5 -8.16407,8.08593 l -2.03125,1.97266 q 1.83594,-0.15625 4.72657,-0.46875 4.12109,-0.44922 4.57031,-0.44922 1.40625,0 2.30469,-0.0781 0.89843,-0.0586 1.62109,-0.0586 5.66406,0 5.66406,2.75391 0,1.11328 -0.58593,1.75781 -0.56641,0.625 -1.54297,0.625 -0.78125,0 -1.83594,-0.27344 -1.67969,-0.44922 -4.25781,-0.44922 -0.97657,0 -5.72266,0.3125 h 0.0195 q -4.82422,0.27344 -6.34765,0.44922 -1.52344,0.17578 -3.47657,0.70313 -1.52343,0.42969 -1.95312,0.42969 -1.95313,0 -1.95313,-1.9336 0,-1.5625 1.05469,-2.34375 2.59766,-1.93359 6.75781,-5.85937 4.16016,-3.94532 7.83203,-7.79297 0.58594,-0.625 1.38672,-1.42578 3.24219,-3.24219 4.72657,-5.09766 -0.3125,0 -7.08985,0.78125 -4.27734,0.50781 -6.44531,0.50781 -1.32813,0 -2.73438,-0.33203 -2.07031,-0.91797 -2.07031,-2.30469 0,-0.64453 0.80078,-1.48437 0.80078,-0.83984 1.3086,-0.83984 0.37109,0 0.97656,0.21484 0.60547,0.23437 0.91797,0.23437 l 3.61328,0.0391 q 1.48437,0.0195 3.26172,-0.13672 1.30859,-0.11719 4.17969,-0.25391 3.22265,-0.15625 4.41406,-0.37109 3.59375,-0.60547 4.53125,-0.60547 1.62109,0 1.62109,1.73828 0,0.97656 -0.42969,1.60156 z"
           style="font-weight:bold;font-family:'Segoe Print';-inkscape-font-specification:'Segoe Print Bold'"
           id="path27333" />
        <path
           d="m -314.81756,789.52789 -6.01562,0.3125 q -3.14453,0.17579 -5.41016,0.56641 -2.26562,0.37109 -2.46094,0.58594 -0.17578,0.19531 -0.2539,1.1914 -0.0977,0.97657 -0.70313,3.4375 -0.48828,1.875 -0.58594,3.06641 1.25,0 3.59375,-0.25391 2.34375,-0.2539 3.32032,-0.48828 2.8125,-0.68359 4.35547,-0.68359 3.08593,0 3.08593,1.83594 0,1.34765 -0.85937,1.875 -0.85938,0.50781 -2.69531,0.70312 -1.13282,0.11719 -2.53907,0.35156 -0.74218,0.11719 -1.85547,0.23438 -5.41015,0.625 -6.38671,0.97656 h -0.0195 q -0.33203,0.0977 -0.50781,0.44922 -0.15625,0.35156 -0.58594,2.91016 -0.42968,2.53906 -0.42968,3.55468 0.0977,0.72266 0.89843,0.72266 0.9375,0 4.92188,-0.50781 4.00391,-0.52735 4.96094,-0.72266 2.67578,-0.5664 3.49609,-0.5664 2.48047,0.35156 2.48047,2.30468 0,0.89844 -0.58594,1.36719 -1.95312,0.87891 -5.41015,1.09375 -2.67579,0.15625 -6.48438,0.66406 -3.39844,0.72266 -6.40625,0.72266 -1.58203,0 -2.28516,-0.68359 -0.70312,-0.66407 -0.83984,-2.08985 l -0.0586,-0.64453 q -0.0195,-0.15625 0.33203,-1.19141 0.78125,-2.40234 1.91406,-10.68359 1.13281,-8.28125 1.13281,-9.21875 0,-0.0195 -0.11718,-0.15625 -0.13672,-0.11719 -0.46875,-0.74219 -0.3125,-0.64453 -0.3125,-1.30859 0,-0.35156 0.0781,-0.56641 0.0781,-0.41015 0.83984,-0.82031 0.76172,-0.41016 1.42579,-0.41016 0.91796,0 1.85546,0.11719 1.6211,0 10.54688,-1.17187 2.96875,-0.39063 3.10547,-0.39063 l 0.27344,-0.0195 q 3.51562,-0.25391 3.51562,2.26563 0,0.46875 -0.64453,1.17187 -0.625,0.68359 -1.21094,0.83984 z"
           style="font-weight:bold;font-family:'Segoe Print';-inkscape-font-specification:'Segoe Print Bold'"
           id="path27335" />
        <path
           d="m -307.08318,790.21149 -0.25391,-0.44922 q -0.625,-0.97656 -0.625,-1.44531 0,-0.9375 0.95703,-1.6211 0.95703,-0.70312 1.73828,-0.70312 0.35157,0 0.89844,0.0586 0.54688,0.0781 0.66406,0.0781 5.76172,-0.89844 8.08594,-0.89844 4.35547,0 6.875,2.07031 2.53906,2.05078 2.53906,5.07813 0,2.89062 -2.5,5.48828 -2.48047,2.59765 -6.66015,4.25781 6.95312,5.625 10.54687,7.73438 1.26953,0.76171 1.26953,1.95312 0,0.78125 -0.89843,1.5625 -0.87891,0.78125 -1.66016,0.78125 -1.13281,0 -2.57813,-0.97656 -1.44531,-0.97656 -4.08203,-3.06641 -2.63672,-2.10937 -3.04687,-2.51953 -3.71094,-3.10547 -5.35156,-4.12109 -2.07032,0 -2.07032,-2.05078 0,-0.95704 0.91797,-1.64063 0.91797,-0.70312 2.08985,-0.70312 0.33203,0 0.72265,0.0977 0.3711,0.11719 0.52735,0.11719 1.25,0 4.6289,-2.08984 3.37891,-2.08985 3.37891,-4.82422 0,-1.36719 -1.42578,-2.34375 -1.40625,-0.97657 -3.59375,-0.97657 -2.59766,0 -4.19922,0.3125 -1.58203,0.3125 -1.73828,0.44922 -0.13672,0.11719 -0.35157,0.60547 -0.19531,0.48828 -0.85937,4.02344 -0.64453,3.51562 -1.19141,7.73437 -0.54687,4.19922 -0.54687,6.19141 0,1.26953 0.19531,2.28516 0.17578,1.01562 0.17578,1.75781 0,0.70312 -0.83984,1.50391 -0.82031,0.82031 -1.79688,0.82031 -2.71484,0 -2.71484,-3.75 0,-3.04688 0.66406,-8.53516 0.6836,-5.48828 1.60156,-9.64844 0.13672,-0.66406 0.23438,-1.1914 z"
           style="font-weight:bold;font-family:'Segoe Print';-inkscape-font-specification:'Segoe Print Bold'"
           id="path27337" />
        <path
           d="m -273.04021,815.0943 q -3.30079,0 -5.85938,-3.16406 -2.55859,-3.1836 -2.55859,-6.5625 0,-3.98438 2.4414,-8.94531 2.44141,-4.96094 6.28907,-8.10547 3.86718,-3.14453 8.0664,-3.14453 3.26172,0 5.3711,0.78125 2.1289,0.78125 3.90625,2.30468 1.79687,1.50391 2.38281,3.125 0.60547,1.60157 0.60547,4.41407 0,2.48046 -1.60157,6.03515 -1.58203,3.53516 -4.6289,6.67969 -3.02735,3.14453 -6.17188,4.86328 -3.14453,1.71875 -8.24218,1.71875 z m -3.47657,-9.90234 q 0,2.40234 1.42578,4.0039 1.42579,1.60157 3.28125,1.60157 5.23438,0 9.82422,-5.01954 4.58985,-5.03906 4.58985,-10.68359 0,-1.99219 -0.76172,-3.20312 -0.76172,-1.23047 -2.59766,-2.03125 -1.8164,-0.82032 -3.90625,-0.82032 -3.76953,0 -7.8125,5.44922 -4.04297,5.44922 -4.04297,10.70313 z"
           style="font-weight:bold;font-family:'Segoe Print';-inkscape-font-specification:'Segoe Print Bold'"
           id="path27339" />
      </g>
    </g>
    <text
       xml:space="preserve"
       transform="matrix(0.26458333,0,0,0.26458333,70.399267,-75.036551)"
       id="text8632"
       style="font-size:40px;line-height:1.25;font-family:'OCR A Extended';-inkscape-font-specification:'OCR A Extended';white-space:pre;shape-inside:url(#rect8634)" />
  </g>
</svg>
