<?xml version="1.0" encoding="UTF-8" standalone="no"?>
<!-- Created with Inkscape (http://www.inkscape.org/) -->

<svg
   width="189.06419mm"
   height="103.11776mm"
   viewBox="0 0 189.06419 103.11776"
   version="1.1"
   id="svg11989"
   inkscape:version="1.1.1 (3bf5ae0d25, 2021-09-20)"
   sodipodi:docname="extra-mushrooms.svg"
   xmlns:inkscape="http://www.inkscape.org/namespaces/inkscape"
   xmlns:sodipodi="http://sodipodi.sourceforge.net/DTD/sodipodi-0.dtd"
   xmlns="http://www.w3.org/2000/svg"
   xmlns:svg="http://www.w3.org/2000/svg">
  <sodipodi:namedview
     id="namedview11991"
     pagecolor="#505050"
     bordercolor="#ffffff"
     borderopacity="1"
     inkscape:pageshadow="0"
     inkscape:pageopacity="0"
     inkscape:pagecheckerboard="1"
     inkscape:document-units="mm"
     showgrid="false"
     inkscape:zoom="0.69753788"
     inkscape:cx="302.49253"
     inkscape:cy="125.44122"
     inkscape:window-width="1920"
     inkscape:window-height="1001"
     inkscape:window-x="-9"
     inkscape:window-y="-9"
     inkscape:window-maximized="1"
     inkscape:current-layer="layer5" />
  <defs
     id="defs11986" />
  <g
     inkscape:groupmode="layer"
     id="layer5"
     inkscape:label="Layer 5"
     style="display:inline"
     transform="translate(-2.397317,-4.3474412)">
    <g
       id="g15786"
       transform="matrix(0.35277777,0,0,-0.35277777,-739.23681,511.42594)"
       style="display:inline">
      <path
         d="m 2186.84,1311.92 c 6.26,20.12 33.97,23.72 53.73,34.6 13.43,7.39 30.63,15.39 46.17,18.74 8.2,1.78 16.1,3.38 24.5,3.31 5.86,-0.05 11.78,-1.55 17.33,-1.45 l 22.51,0.86 c 13.14,-13.66 -2.18,-26.43 -17.95,-35.3 -6.58,-3.69 -9.75,-2.09 -12.6,-0.48 -1.6,0.9 -3.1,1.8 -5.05,1.77 -6.49,-0.11 -9.81,-3.43 -11.82,-8.95 -2.76,-7.56 17.44,-9.54 24.04,-12.08 6.32,-2.43 15.76,-5.28 18.52,-11.13 4.03,-8.54 -5.12,-15.88 -12.54,-20.26 -7.22,-4.26 -16.62,-7.92 -26.34,-8.59 -9.3,-0.65 -11.9,1.54 -18.66,5.76 -11.1,6.92 -18.16,12.67 -30.3,17.98 0.02,-1.64 -9.33,-4.29 -10.21,-7.16 -0.88,-2.88 6.7,-5.99 6.06,-7.64 -3.04,-7.75 -25.31,-18.27 -43.28,-15.89 -8.38,1.11 -29.04,0.71 -37.9,21.34 -3.56,8.29 11.14,16.03 13.79,24.57"
         style="fill:#634e40;fill-opacity:1;fill-rule:nonzero;stroke:none;stroke-width:0.1"
         id="path2496" />
      <path
         d="m 2202.78,1314.46 c 11.36,19.86 33.84,33.41 57.57,42.33 16.5,6.21 39.17,17.55 57.21,12.38 5.31,-1.53 11.72,-5.51 14.24,-9.72 1.73,-2.89 1.86,-10.18 -0.9,-11.39 l -2.07,-2.87 c -3.52,1.06 -9.07,0.79 -12.87,-1.03 -0.96,-0.46 -3.56,-2.97 -4.64,-3.67 -2.03,-1.3 -3.21,-1.28 -5.06,-2.93 -1.29,-1.14 -1.27,-3.11 -3.22,-4.46 -1.9,-1.3 -4.96,-1.08 -6.99,-2.72 -4.03,-3.25 -1.17,-7.05 -5.54,-9.79 -3.95,-2.48 -10.91,-1.44 -14.24,-4.44 -1.51,-1.37 -0.31,-3.43 -1.88,-4.91 -1.49,-1.41 -5.09,-2.21 -7.12,-2.97 -4.47,-1.68 -9.38,-2.68 -12.8,-5.65 -1.54,-1.33 -1.71,-3.3 -3.81,-4.56 -1.99,-1.19 -5.29,-0.53 -7.34,-1.57 -2.45,-1.24 -2.59,-2.78 -4.55,-4.15 -2.61,-1.82 -4.08,-1.47 -6.96,-2.73 -2.2,-0.96 -3.31,-2.77 -5.69,-3.82 -2.28,-1.01 -5.52,-0.73 -7.98,-1.32 -8.07,-1.92 -14.67,-4.92 -20.5,2.11 -7.43,8.94 0.14,19.13 5.14,27.88"
         style="fill:#8c735b;fill-opacity:1;fill-rule:nonzero;stroke:none;stroke-width:0.1"
         id="path2498" />
      <path
         d="m 2344.71,1303.66 c -7.53,14.83 -61.57,27.96 -60.12,34.82 1.45,6.87 24.87,18.08 36.62,15.26 11.76,-2.81 -8.35,-10.97 1.94,-16.56 4.52,-2.46 48.68,22.7 20.62,37.35 -24.31,12.7 -69.54,14.5 -126.72,-22.27 -49.39,-31.76 -54.47,-57.77 -36.85,-70.47 30.45,-21.95 68.59,3.75 67.59,6.15 -0.88,2.12 -4.86,1.09 -9.93,0.06 -7.09,-1.44 -16.31,-2.87 -22.19,4.28 -4.57,5.56 15.49,21.76 31.78,18.09 11.71,-2.63 49.75,-36.91 61.11,-33.14 11.37,3.77 41.16,16.55 36.15,26.43"
         style="fill:#a5896a;fill-opacity:1;fill-rule:nonzero;stroke:none;stroke-width:0.1"
         id="path2500" />
      <path
         d="m 2336.24,1371.25 c -0.01,0 -0.06,0.02 -0.14,0.05 l -0.01,0.03 c 0.12,-0.06 0.16,-0.08 0.15,-0.08"
         style="fill:#bf9e7c;fill-opacity:1;fill-rule:nonzero;stroke:none;stroke-width:0.1"
         id="path2502" />
      <path
         d="m 2208.42,1310.27 c -10.77,0 -12.2,10.77 -6.58,17.33 5.43,6.34 14.29,12.07 21.26,17.03 16.48,11.74 33.34,20.2 53.38,25.85 9.94,2.8 23.28,5.04 35.66,5.04 8.53,0 16.59,-1.06 22.78,-3.74 0.16,-0.07 0.87,-0.36 1.18,-0.48 l 1.46,-5.37 c 1.06,-7.15 -22.69,-5.35 -28.01,-5.89 -10.15,-1.03 -24.72,-2.57 -32.61,-8.51 -10.41,-7.84 -8.24,-16.67 0.58,-23.29 4.06,-3.04 11.37,-6.33 7.52,-11.78 -2.24,-3.17 -7.17,-3.95 -11.54,-3.95 -1.39,0 -2.73,0.08 -3.91,0.19 -10.6,0.94 -19.64,8.47 -30.29,8.47 -0.76,0 -1.53,-0.04 -2.31,-0.12 -10.47,-1.1 -16.61,-9.59 -26.64,-10.68 -0.67,-0.07 -1.32,-0.1 -1.93,-0.1"
         style="fill:#bf9e7c;fill-opacity:1;fill-rule:nonzero;stroke:none;stroke-width:0.1"
         id="path2504" />
      <path
         d="m 2555.76,1260.64 c -10.32,25.97 -41.43,25.16 -65.03,35.84 -16.05,7.25 -36.34,14.55 -54.02,15.91 -9.32,0.72 -18.28,1.27 -27.52,-0.56 -6.44,-1.27 -12.7,-4.51 -18.82,-5.51 l -24.92,-3.46 c -12.13,-21.2 6.91,-35.35 25.78,-44.12 12.29,-5.71 13.21,4.37 19.21,5.36 7.16,1.19 11.37,-2.63 14.53,-9.68 4.33,-9.68 -17.56,-16.51 -24.39,-21.3 -6.55,-4.59 -16.44,-10.4 -18.48,-18.88 -2.97,-12.4 8.35,-20.47 17.26,-24.87 8.67,-4.29 19.64,-7.31 30.45,-6.23 10.35,1.03 12.83,4.53 19.55,11.63 11.04,11.65 17.82,20.89 30.28,30.58 0.26,-2.24 10.99,-3.9 12.46,-7.61 1.46,-3.72 -6.36,-9.49 -5.36,-11.59 4.66,-9.86 30.96,-19.56 50.34,-12.63 9.03,3.22 31.83,6.92 38.06,36.67 2.5,11.97 -14.99,19.43 -19.38,30.45"
         style="fill:#634e40;fill-opacity:1;fill-rule:nonzero;stroke:none;stroke-width:0.1"
         id="path2506" />
      <path
         d="m 2537.79,1260.82 c -15.9,24.56 -42.95,38.29 -70.59,45.52 -19.22,5.02 -46.1,15.73 -65.07,5.01 -5.58,-3.16 -11.96,-9.86 -14.01,-16.09 -1.4,-4.26 -0.31,-14.17 2.94,-15.24 l 2.77,-3.46 c 3.69,2.16 9.84,2.93 14.34,1.24 1.13,-0.42 4.42,-3.29 5.73,-4.01 2.45,-1.34 3.76,-1.08 6.07,-2.92 1.61,-1.29 1.93,-3.96 4.31,-5.38 2.31,-1.38 5.64,-0.45 8.15,-2.25 4.99,-3.59 2.49,-9.31 7.77,-12.13 4.77,-2.55 12.26,0.28 16.43,-3.1 1.89,-1.53 0.92,-4.57 2.91,-6.26 1.88,-1.6 5.97,-1.94 8.33,-2.56 5.22,-1.36 10.79,-1.7 15.06,-5.02 1.92,-1.49 2.45,-4.12 4.98,-5.39 1.24,-0.63 2.78,-0.5 4.32,-0.38 1.43,0.12 2.85,0.23 4.02,-0.25 2.9,-1.18 3.32,-3.24 5.71,-4.68 3.18,-1.93 4.75,-1.16 8.13,-2.27 2.59,-0.86 4.11,-3.07 6.92,-4.01 1.59,-0.53 3.47,-0.38 5.32,-0.23 1.27,0.1 2.53,0.2 3.67,0.09 9.22,-0.95 17,-3.66 22.21,7.06 6.65,13.63 -3.42,25.88 -10.42,36.71"
         style="fill:#8c735b;fill-opacity:1;fill-rule:nonzero;stroke:none;stroke-width:0.1"
         id="path2508" />
      <path
         d="m 2383.45,1217.05 c 5.75,21.64 62.97,50.51 60.2,59.51 -2.76,9 -30.44,19.38 -42.9,13.15 -12.46,-6.23 11.07,-13.15 0.69,-22.84 -4.55,-4.25 -57.44,20.76 -29.07,46.37 24.59,22.18 74.05,33.91 143.25,-4.15 59.79,-32.89 69.82,-67.06 52.6,-87.89 -29.76,-35.99 -76.12,-9 -75.43,-5.54 0.57,2.87 4.65,2.53 9.93,2.18 8.16,-0.53 19.21,-1.07 24.67,10.28 4.08,8.48 -20.76,26.3 -38.06,17.99 -12.43,-5.97 -48.44,-60.2 -61.59,-57.44 -13.15,2.77 -48.12,13.97 -44.29,28.38"
         style="fill:#a5896a;fill-opacity:1;fill-rule:nonzero;stroke:none;stroke-width:0.1"
         id="path2510" />
      <path
         d="m 2381.22,1310.33 c -0.01,0 0.04,0.04 0.15,0.14 v -0.04 c -0.09,-0.06 -0.14,-0.1 -0.15,-0.1"
         style="fill:#bf9e7c;fill-opacity:1;fill-rule:nonzero;stroke:none;stroke-width:0.1"
         id="path2512" />
      <path
         d="m 2455.53,1243.18 c -3.36,0 -6.57,0.85 -8.61,3.45 -5.16,6.6 2.32,12.55 6.27,17.51 8.57,10.78 9.45,23.18 -3.34,31.66 -6.48,4.29 -15.9,5.31 -24.82,5.31 -4.44,0 -8.75,-0.25 -12.52,-0.48 -3.57,-0.22 -14.3,-2.94 -22.32,-2.94 -5.35,0 -9.49,1.21 -9.51,5.17 l 0.69,7.57 c 0.31,0.22 1.05,0.77 1.21,0.9 11.07,8.52 29.28,11.59 45.8,11.59 6.72,0 13.16,-0.51 18.73,-1.36 23.02,-3.54 43.03,-11.53 63.17,-24.05 8.52,-5.29 19.24,-11.23 26.29,-18.7 7.73,-8.17 7.59,-24.34 -6.41,-25.08 -0.32,-0.02 -0.63,-0.03 -0.94,-0.03 -5.21,0 -9.78,2.26 -14.41,4.53 -4.62,2.26 -9.3,4.52 -14.71,4.52 -0.36,0 -0.72,-0.01 -1.08,-0.03 -13.07,-0.74 -22.12,-14.3 -34.45,-18.01 -2.56,-0.77 -5.86,-1.53 -9.04,-1.53"
         style="fill:#bf9e7c;fill-opacity:1;fill-rule:nonzero;stroke:none;stroke-width:0.1"
         id="path2514" />
      <path
         d="m 2204.47,1228.36 c 11.17,23.07 38.73,20.03 60.52,28.09 14.81,5.48 33.4,10.68 49.2,10.62 8.33,-0.03 16.34,-0.19 24.41,-2.55 5.62,-1.64 10.93,-5.08 16.29,-6.45 l 21.86,-5.02 c 9.16,-20.36 -8.85,-31.94 -26.28,-38.6 -11.36,-4.33 -11.4,4.99 -16.65,6.34 -6.27,1.62 -10.31,-1.57 -13.65,-7.82 -4.59,-8.56 14.33,-16.45 20.02,-21.35 5.46,-4.7 13.81,-10.76 14.96,-18.7 1.69,-11.6 -8.98,-18.17 -17.24,-21.56 -8.03,-3.3 -18,-5.26 -27.53,-3.47 -9.11,1.71 -11.04,5.11 -16.47,12.12 -8.9,11.52 -14.22,20.5 -24.54,30.32 -0.4,-2.04 -10.07,-2.77 -11.65,-6.07 -1.58,-3.3 4.92,-9.18 3.87,-11.04 -4.9,-8.71 -29.01,-15.66 -45.69,-7.88 -7.77,3.63 -27.74,8.71 -30.98,36.49 -1.31,11.17 14.81,16.73 19.55,26.53"
         style="fill:#634e40;fill-opacity:1;fill-rule:nonzero;stroke:none;stroke-width:0.1"
         id="path2516" />
      <path
         d="m 2220.45,1227.19 c 16,21.37 41.09,31.98 66.2,36.57 17.45,3.2 42.16,11.04 58.18,-0.2 4.72,-3.31 9.86,-9.94 11.21,-15.81 0.92,-4.01 -0.82,-13.03 -3.79,-13.77 l -2.72,-2.98 c -3.11,2.26 -8.52,3.42 -12.64,2.21 -1.04,-0.31 -4.18,-2.7 -5.4,-3.26 -2.28,-1.06 -3.42,-0.72 -5.62,-2.24 -1.53,-1.06 -2.01,-3.49 -4.24,-4.62 -2.16,-1.1 -5.04,0 -7.41,-1.47 -4.71,-2.92 -2.93,-8.36 -7.83,-10.56 -2.06,-0.92 -4.54,-0.73 -7.01,-0.55 -2.86,0.21 -5.7,0.42 -7.83,-1.08 -1.8,-1.27 -1.17,-4.13 -3.06,-5.53 -1.8,-1.33 -5.46,-1.34 -7.61,-1.73 -4.73,-0.87 -9.71,-0.77 -13.75,-3.5 -1.83,-1.23 -2.5,-3.61 -4.84,-4.59 -1.15,-0.48 -2.51,-0.25 -3.87,-0.02 -1.26,0.21 -2.51,0.42 -3.59,0.07 -2.67,-0.87 -3.19,-2.73 -5.43,-3.88 -2.98,-1.54 -4.3,-0.72 -7.39,-1.49 -2.37,-0.59 -3.9,-2.51 -6.46,-3.17 -1.45,-0.37 -3.1,-0.09 -4.73,0.18 -1.13,0.19 -2.24,0.38 -3.27,0.36 -8.26,-0.19 -15.37,-2.1 -19.19,8.12 -4.85,13.01 5.04,23.51 12.09,32.94"
         style="fill:#8c735b;fill-opacity:1;fill-rule:nonzero;stroke:none;stroke-width:0.1"
         id="path2518" />
      <path
         d="m 2354.17,1175.6 c -3.44,20.29 -52.05,51.03 -48.9,59.09 3.15,8.05 28.54,15.54 39.12,8.9 10.59,-6.64 -10.84,-11.26 -2.37,-20.92 3.72,-4.24 52.62,14.82 29.39,40.42 -20.14,22.19 -63.17,36.61 -127.56,6.77 -55.64,-25.77 -67.17,-56.41 -53.48,-76.8 23.67,-35.24 66.93,-13.88 66.58,-10.66 -0.74,6.82 -23.23,-3.82 -29.78,14 -2.97,8.09 20.46,22.61 35.19,13.7 10.59,-6.39 38.4,-58.85 50.29,-57.28 11.89,1.57 43.82,9.27 41.52,22.78"
         style="fill:#a5896a;fill-opacity:1;fill-rule:nonzero;stroke:none;stroke-width:0.1"
         id="path2520" />
      <path
         d="m 2363.32,1261.08 c 0,0 -0.05,0.04 -0.12,0.1 v 0.04 c 0.1,-0.1 0.13,-0.14 0.12,-0.14"
         style="fill:#bf9e7c;fill-opacity:1;fill-rule:nonzero;stroke:none;stroke-width:0.1"
         id="path2522" />
      <path
         d="m 2293.44,1204.86 c -3.21,0 -6.64,1.1 -9.19,2.13 -10.67,4.32 -17.67,17.44 -29.22,19.08 -0.8,0.11 -1.59,0.16 -2.37,0.16 -4.26,0 -8.16,-1.56 -12.03,-3.13 -3.87,-1.57 -7.7,-3.13 -11.81,-3.13 -0.7,0 -1.42,0.04 -2.14,0.14 -12.38,1.72 -11.26,16.58 -3.77,23.51 6.84,6.33 16.82,11 24.79,15.22 18.86,10 37.24,15.87 57.96,17.41 2.3,0.18 4.76,0.27 7.33,0.27 16.76,0 38.01,-3.88 49.2,-14.42 0.14,-0.13 0.75,-0.69 1.01,-0.92 l 0.03,-7 c -0.27,-3.09 -3.04,-4.14 -6.78,-4.14 -7.26,0 -18.19,3.93 -21.67,4.44 -5.14,0.76 -11.44,1.66 -17.58,1.66 -5.83,0 -11.52,-0.81 -15.95,-3.34 -12.01,-6.83 -12.19,-18.29 -5.4,-28.81 3.12,-4.85 9.31,-10.86 4.22,-16.54 -1.72,-1.91 -4.11,-2.59 -6.63,-2.59"
         style="fill:#bf9e7c;fill-opacity:1;fill-rule:nonzero;stroke:none;stroke-width:0.1"
         id="path2524" />
    </g>
  </g>
</svg>
