<?xml version="1.0" encoding="UTF-8" standalone="no"?>
<!-- Created with Inkscape (http://www.inkscape.org/) -->

<svg
   width="189.06419mm"
   height="103.11776mm"
   viewBox="0 0 189.06419 103.11776"
   version="1.1"
   id="svg11989"
   inkscape:version="1.1.1 (3bf5ae0d25, 2021-09-20)"
   sodipodi:docname="extra-onions.svg"
   xmlns:inkscape="http://www.inkscape.org/namespaces/inkscape"
   xmlns:sodipodi="http://sodipodi.sourceforge.net/DTD/sodipodi-0.dtd"
   xmlns="http://www.w3.org/2000/svg"
   xmlns:svg="http://www.w3.org/2000/svg">
  <sodipodi:namedview
     id="namedview11991"
     pagecolor="#505050"
     bordercolor="#ffffff"
     borderopacity="1"
     inkscape:pageshadow="0"
     inkscape:pageopacity="0"
     inkscape:pagecheckerboard="1"
     inkscape:document-units="mm"
     showgrid="false"
     inkscape:zoom="0.69753788"
     inkscape:cx="302.49253"
     inkscape:cy="125.44122"
     inkscape:window-width="1920"
     inkscape:window-height="1001"
     inkscape:window-x="-9"
     inkscape:window-y="-9"
     inkscape:window-maximized="1"
     inkscape:current-layer="layer6" />
  <defs
     id="defs11986" />
  <g
     inkscape:groupmode="layer"
     id="layer6"
     inkscape:label="Layer 6"
     style="display:inline"
     transform="translate(-2.397317,-4.3474412)">
    <g
       id="g15171"
       transform="matrix(0.35277777,0,0,-0.35277777,-730.38557,334.51497)"
       style="display:inline">
      <path
         d="m 2486.59,835.76 -56.21,20.82 -79.88,3.26 -57.79,-12.44 -32.03,-27.64 7.03,-20.93 c 0,0 -1.42,10.69 10.61,21.28 12.04,10.59 27.03,24.47 70.03,24.85 50.26,0.45 88.77,-2.4 110.17,-10.24 18.45,-6.76 39.45,-22.65 39.71,-24.97 0.27,-2.32 5.76,5.32 5.76,5.32 l -17.4,20.69"
         style="fill:#994575;fill-opacity:1;fill-rule:nonzero;stroke:none;stroke-width:0.1"
         id="path2308" />
      <path
         d="m 2511.4,816.55 -16.29,-35.32 -57.53,-28.97 -79.72,0.04 -62.29,17.36 -26.64,16.67 -14.86,24.99 -4.8,-20.09 c 0,0 -2.16,-10.3 19.12,-28.67 17.96,-15.5 91.35,-38.27 144.97,-32.84 115.17,11.65 104.92,64.54 104.92,64.54 l -6.88,22.29"
         style="fill:#994575;fill-opacity:1;fill-rule:nonzero;stroke:none;stroke-width:0.1"
         id="path2310" />
      <path
         d="m 2495.72,796.28 c -12.15,-25.64 -59.73,-44.3 -128.37,-37.69 -51.59,4.96 -99.89,17.91 -101.62,50.53 -1.93,36.37 60.05,46.44 96.84,47.57 106.45,3.26 147.58,-29.99 133.15,-60.41 z m -136.49,67.65 c -39.5,-1.22 -107.07,-16.79 -105,-55.84 1.85,-35.02 56.71,-53.79 111.83,-61.27 69.88,-9.5 131.91,19.8 144.96,47.32 15.48,32.66 -37.52,73.29 -151.79,69.79"
         style="fill:#ecceed;fill-opacity:1;fill-rule:nonzero;stroke:none;stroke-width:0.1"
         id="path2312" />
      <path
         d="m 2284.7,766.88 c 0.4,-3.73 -2.11,-7.02 -1.7,-10.8 0.16,-1.47 2.69,-1.13 2.53,0.33 -0.4,3.73 2.11,7.03 1.7,10.8 -0.15,1.47 -2.69,1.13 -2.53,-0.33"
         style="fill:#c1599a;fill-opacity:1;fill-rule:nonzero;stroke:none;stroke-width:0.1"
         id="path2314" />
      <path
         d="m 2303,759.07 c -0.93,-3.27 -2.13,-6.48 -3.14,-9.73 -0.43,-1.4 1.97,-2.28 2.4,-0.87 1.01,3.25 2.21,6.45 3.14,9.73 0.39,1.4 -2,2.29 -2.4,0.87"
         style="fill:#c1599a;fill-opacity:1;fill-rule:nonzero;stroke:none;stroke-width:0.1"
         id="path2316" />
      <path
         d="m 2317.41,753.98 c -0.37,-3.69 -0.37,-7.43 -1.68,-10.96 -0.51,-1.39 1.89,-2.26 2.4,-0.87 1.39,3.73 1.44,7.65 1.83,11.55 0.15,1.46 -2.41,1.74 -2.55,0.28"
         style="fill:#c1599a;fill-opacity:1;fill-rule:nonzero;stroke:none;stroke-width:0.1"
         id="path2318" />
      <path
         d="m 2350.26,746.72 c 0.11,-3.52 0.23,-7.03 -0.12,-10.53 -0.15,-1.46 2.41,-1.74 2.56,-0.28 0.35,3.5 0.23,7.01 0.12,10.53 -0.05,1.45 -2.61,1.74 -2.56,0.28"
         style="fill:#c1599a;fill-opacity:1;fill-rule:nonzero;stroke:none;stroke-width:0.1"
         id="path2320" />
      <path
         d="m 2388.73,741.92 c 1.47,-2.45 0.81,-5.52 1.57,-8.14 0.41,-1.42 2.95,-1.11 2.53,0.33 -0.83,2.84 -0.16,6.04 -1.76,8.71 -0.78,1.3 -3.13,0.42 -2.34,-0.9"
         style="fill:#c1599a;fill-opacity:1;fill-rule:nonzero;stroke:none;stroke-width:0.1"
         id="path2322" />
      <path
         d="m 2420.88,744.01 c -0.3,-2.82 -0.67,-5.76 0.15,-8.56 0.41,-1.42 2.95,-1.11 2.53,0.33 -0.77,2.62 -0.41,5.32 -0.12,7.95 0.16,1.46 -2.4,1.74 -2.56,0.28"
         style="fill:#c1599a;fill-opacity:1;fill-rule:nonzero;stroke:none;stroke-width:0.1"
         id="path2324" />
      <path
         d="m 2446.19,747.8 c 0.37,-2.58 -0.06,-5.2 0.18,-7.8 0.14,-1.47 2.67,-1.13 2.54,0.33 -0.25,2.6 0.18,5.21 -0.18,7.81 -0.21,1.46 -2.74,1.13 -2.54,-0.34"
         style="fill:#c1599a;fill-opacity:1;fill-rule:nonzero;stroke:none;stroke-width:0.1"
         id="path2326" />
      <path
         d="m 2479.83,762.29 c -0.36,-3.32 -0.73,-6.64 -1.09,-9.96 -0.16,-1.46 2.4,-1.74 2.56,-0.28 0.36,3.32 0.72,6.64 1.09,9.96 0.16,1.46 -2.4,1.74 -2.56,0.28"
         style="fill:#c1599a;fill-opacity:1;fill-rule:nonzero;stroke:none;stroke-width:0.1"
         id="path2328" />
      <path
         d="m 2253.82,792.56 c -0.42,-3.49 -1.29,-6.89 -2.16,-10.3 -0.37,-1.42 2.19,-1.68 2.55,-0.28 0.88,3.41 1.75,6.81 2.17,10.3 0.17,1.46 -2.38,1.74 -2.56,0.28"
         style="fill:#c1599a;fill-opacity:1;fill-rule:nonzero;stroke:none;stroke-width:0.1"
         id="path2330" />
      <path
         d="m 2264.15,778.15 c -0.27,-2.47 -0.51,-4.97 -1.28,-7.35 -0.45,-1.39 1.95,-2.27 2.4,-0.87 0.84,2.58 1.14,5.26 1.44,7.94 0.16,1.45 -2.4,1.74 -2.56,0.28"
         style="fill:#c1599a;fill-opacity:1;fill-rule:nonzero;stroke:none;stroke-width:0.1"
         id="path2332" />
      <path
         d="m 2274.87,770.44 c 0.88,-2.45 -0.25,-5.61 -0.55,-8.07 -0.17,-1.46 2.39,-1.74 2.56,-0.28 0.36,2.99 1.4,6.27 0.32,9.25 -0.51,1.41 -2.84,0.49 -2.33,-0.9"
         style="fill:#c1599a;fill-opacity:1;fill-rule:nonzero;stroke:none;stroke-width:0.1"
         id="path2334" />
      <path
         d="m 2294.91,760.88 c -0.79,-2.76 -1.17,-5.56 -1.48,-8.39 -0.16,-1.46 2.4,-1.74 2.56,-0.28 0.29,2.62 0.59,5.24 1.32,7.79 0.41,1.4 -1.99,2.29 -2.4,0.88"
         style="fill:#c1599a;fill-opacity:1;fill-rule:nonzero;stroke:none;stroke-width:0.1"
         id="path2336" />
      <path
         d="m 2309.8,754.97 c 0.66,-2.9 0.4,-5.84 0.59,-8.77 0.09,-1.47 2.62,-1.12 2.53,0.33 -0.19,2.93 0.08,5.86 -0.59,8.77 -0.33,1.45 -2.87,1.12 -2.53,-0.33"
         style="fill:#c1599a;fill-opacity:1;fill-rule:nonzero;stroke:none;stroke-width:0.1"
         id="path2338" />
      <path
         d="m 2323.87,751.14 c 0.59,-3.41 -0.17,-6.81 -0.13,-10.22 0.02,-1.46 2.58,-1.75 2.56,-0.28 -0.05,3.62 0.72,7.21 0.1,10.83 -0.25,1.46 -2.78,1.13 -2.53,-0.33"
         style="fill:#c1599a;fill-opacity:1;fill-rule:nonzero;stroke:none;stroke-width:0.1"
         id="path2340" />
      <path
         d="m 2332.92,749.08 c -0.4,-3.61 -0.77,-7.22 -0.11,-10.83 0.27,-1.46 2.8,-1.13 2.53,0.33 -0.62,3.41 -0.24,6.82 0.13,10.21 0.16,1.46 -2.39,1.75 -2.55,0.29"
         style="fill:#c1599a;fill-opacity:1;fill-rule:nonzero;stroke:none;stroke-width:0.1"
         id="path2342" />
      <path
         d="m 2337.88,747.16 c -0.32,-3.3 -0.17,-6.61 0,-9.93 0.07,-1.46 2.6,-1.12 2.53,0.33 -0.16,3.12 -0.27,6.22 0.03,9.32 0.14,1.46 -2.41,1.74 -2.56,0.28"
         style="fill:#c1599a;fill-opacity:1;fill-rule:nonzero;stroke:none;stroke-width:0.1"
         id="path2344" />
      <path
         d="m 2427.89,850.44 c -0.21,-2.27 -0.02,-4.57 -0.23,-6.84 -0.14,-1.46 2.42,-1.75 2.56,-0.28 0.21,2.27 0.02,4.57 0.23,6.84 0.14,1.46 -2.42,1.75 -2.56,0.28"
         style="fill:#c1599a;fill-opacity:1;fill-rule:nonzero;stroke:none;stroke-width:0.1"
         id="path2346" />
      <path
         d="m 2432.97,847.93 c 0.59,-1.53 0.51,-3.28 0.89,-4.86 0.35,-1.44 2.88,-1.12 2.53,0.33 -0.43,1.8 -0.41,3.68 -1.09,5.43 -0.54,1.41 -2.87,0.5 -2.33,-0.9"
         style="fill:#c1599a;fill-opacity:1;fill-rule:nonzero;stroke:none;stroke-width:0.1"
         id="path2348" />
      <path
         d="m 2439.36,846.44 c -0.15,-1.36 -0.3,-2.72 -0.45,-4.08 -0.16,-1.46 2.4,-1.74 2.56,-0.28 0.15,1.36 0.3,2.72 0.45,4.08 0.16,1.46 -2.4,1.74 -2.56,0.28"
         style="fill:#c1599a;fill-opacity:1;fill-rule:nonzero;stroke:none;stroke-width:0.1"
         id="path2350" />
      <path
         d="m 2453.48,843.06 c -0.16,-1.48 -0.26,-2.96 0.08,-4.44 0.34,-1.44 2.87,-1.12 2.53,0.33 -0.3,1.29 -0.19,2.54 -0.05,3.83 0.16,1.46 -2.4,1.74 -2.56,0.28"
         style="fill:#c1599a;fill-opacity:1;fill-rule:nonzero;stroke:none;stroke-width:0.1"
         id="path2352" />
      <path
         d="m 2462.6,839.65 c 0.65,-1.59 0.99,-3.29 1.4,-4.92 0.37,-1.44 2.91,-1.12 2.54,0.33 -0.47,1.83 -0.88,3.71 -1.6,5.49 -0.57,1.39 -2.9,0.48 -2.34,-0.9"
         style="fill:#c1599a;fill-opacity:1;fill-rule:nonzero;stroke:none;stroke-width:0.1"
         id="path2354" />
      <path
         d="m 2471.35,836.06 c -0.14,-1.34 -0.19,-2.65 0.13,-3.98 0.35,-1.45 2.88,-1.12 2.53,0.33 -0.28,1.15 -0.23,2.21 -0.1,3.37 0.16,1.46 -2.4,1.74 -2.56,0.28"
         style="fill:#c1599a;fill-opacity:1;fill-rule:nonzero;stroke:none;stroke-width:0.1"
         id="path2356" />
      <path
         d="m 2482.25,828.1 c 0.36,-0.46 0.22,-1.86 -0.1,-2.54 -0.62,-1.35 1.78,-2.22 2.4,-0.87 0.66,1.43 0.74,3.47 -0.32,4.81 -0.96,1.22 -2.94,-0.19 -1.98,-1.4"
         style="fill:#c1599a;fill-opacity:1;fill-rule:nonzero;stroke:none;stroke-width:0.1"
         id="path2358" />
      <path
         d="m 2417.25,852.53 c -0.23,-2.12 -0.46,-4.23 -0.7,-6.34 -0.16,-1.46 2.4,-1.74 2.56,-0.28 0.23,2.11 0.47,4.22 0.7,6.34 0.16,1.46 -2.4,1.74 -2.56,0.28"
         style="fill:#c1599a;fill-opacity:1;fill-rule:nonzero;stroke:none;stroke-width:0.1"
         id="path2360" />
      <path
         d="m 2407.4,851.24 c -0.16,0.12 -0.07,-0.02 -0.07,-0.16 -0.01,-0.37 -0.1,-0.74 -0.18,-1.1 -0.17,-0.81 -0.48,-1.59 -0.75,-2.37 -0.48,-1.39 1.92,-2.27 2.4,-0.88 0.6,1.76 2.14,4.83 0.1,6.33 -1.3,0.95 -2.79,-0.87 -1.5,-1.82"
         style="fill:#c1599a;fill-opacity:1;fill-rule:nonzero;stroke:none;stroke-width:0.1"
         id="path2362" />
      <path
         d="m 2400.86,853.71 c -0.85,-2.24 -0.99,-4.57 -0.76,-6.94 0.14,-1.47 2.67,-1.13 2.53,0.33 -0.19,1.95 -0.07,3.9 0.63,5.74 0.52,1.38 -1.88,2.25 -2.4,0.87"
         style="fill:#c1599a;fill-opacity:1;fill-rule:nonzero;stroke:none;stroke-width:0.1"
         id="path2364" />
      <path
         d="m 2391.38,852.61 c -0.12,-1.39 0.28,-2.68 0.63,-4.04 0.38,-1.43 2.92,-1.11 2.54,0.34 -0.3,1.13 -0.72,2.25 -0.62,3.42 0.13,1.46 -2.43,1.75 -2.55,0.28"
         style="fill:#c1599a;fill-opacity:1;fill-rule:nonzero;stroke:none;stroke-width:0.1"
         id="path2366" />
      <path
         d="m 2383.55,852.1 c -0.17,-1.62 -0.34,-3.27 0.03,-4.89 0.33,-1.45 2.87,-1.12 2.53,0.33 -0.32,1.42 -0.15,2.86 0,4.28 0.16,1.46 -2.4,1.74 -2.56,0.28"
         style="fill:#c1599a;fill-opacity:1;fill-rule:nonzero;stroke:none;stroke-width:0.1"
         id="path2368" />
      <path
         d="m 2375.09,814.27 -58.15,16.47 -79.76,-6.17 -56.09,-21.1 -28.82,-35 9.27,-22.64 c 0,0 -2.58,11.84 8.23,25.22 10.81,13.38 24.19,30.81 66.9,36.53 49.91,6.69 88.51,8.24 110.63,2.06 19.08,-5.32 41.69,-20.58 42.2,-23.15 0.51,-2.58 5.15,6.69 5.15,6.69 l -19.56,21.09"
         style="fill:#994575;fill-opacity:1;fill-rule:nonzero;stroke:none;stroke-width:0.1"
         id="path2370" />
      <path
         d="m 2401.85,795.75 -12.35,-41.68 -54.03,-39.63 -79.25,-9.77 -63.81,11.83 -28.3,15.44 -17.5,26.24 -2.57,-23.15 c 0,0 -1.03,-11.84 22.13,-29.85 19.54,-15.2 94.98,-31.74 147.69,-19.04 113.2,27.27 97.25,85.42 97.25,85.42 l -9.26,24.19"
         style="fill:#994575;fill-opacity:1;fill-rule:nonzero;stroke:none;stroke-width:0.1"
         id="path2372" />
      <path
         d="m 2388.47,771.05 c -9.29,-30.29 -54.55,-57.12 -123.5,-58.15 -51.82,-0.77 -101.25,7.82 -106.52,44.25 -5.88,40.62 54.63,59.56 91.08,65.36 105.46,16.77 149.97,-15.51 138.94,-51.46 z m -143.05,59.18 c -39.14,-6.23 -104.6,-32.05 -98.29,-75.65 5.66,-39.11 62.23,-53.44 117.84,-55.06 70.5,-2.06 128.97,38.49 138.94,71.01 11.83,38.6 -45.29,77.71 -158.49,59.7"
         style="fill:#ecceed;fill-opacity:1;fill-rule:nonzero;stroke:none;stroke-width:0.1"
         id="path2374" />
      <path
         d="m 2181.91,712.04 c 0.8,-4.14 -1.33,-8.15 -0.52,-12.35 0.32,-1.62 2.8,-0.93 2.49,0.69 -0.81,4.14 1.33,8.15 0.51,12.35 -0.32,1.62 -2.8,0.93 -2.48,-0.69"
         style="fill:#c1599a;fill-opacity:1;fill-rule:nonzero;stroke:none;stroke-width:0.1"
         id="path2376" />
      <path
         d="m 2200.95,705.52 c -0.57,-3.79 -1.41,-7.54 -2.06,-11.32 -0.28,-1.62 2.2,-2.32 2.48,-0.68 0.65,3.78 1.5,7.52 2.06,11.32 0.24,1.62 -2.24,2.32 -2.48,0.68"
         style="fill:#c1599a;fill-opacity:1;fill-rule:nonzero;stroke:none;stroke-width:0.1"
         id="path2378" />
      <path
         d="m 2215.83,701.58 c 0.03,-4.19 0.44,-8.4 -0.47,-12.52 -0.36,-1.62 2.12,-2.31 2.48,-0.69 0.97,4.37 0.59,8.78 0.56,13.21 -0.01,1.66 -2.59,1.66 -2.57,0"
         style="fill:#c1599a;fill-opacity:1;fill-rule:nonzero;stroke:none;stroke-width:0.1"
         id="path2380" />
      <path
         d="m 2249.27,697.46 c 0.5,-3.94 1,-7.86 1.03,-11.83 0.02,-1.66 2.59,-1.66 2.58,0 -0.04,3.97 -0.54,7.89 -1.03,11.83 -0.21,1.62 -2.78,1.65 -2.58,0"
         style="fill:#c1599a;fill-opacity:1;fill-rule:nonzero;stroke:none;stroke-width:0.1"
         id="path2382" />
      <path
         d="m 2288.04,696.81 c 1.73,-2.56 1.4,-6.1 2.45,-8.95 0.56,-1.55 3.05,-0.88 2.48,0.68 -1.14,3.09 -0.82,6.77 -2.7,9.57 -0.92,1.37 -3.15,0.08 -2.23,-1.3"
         style="fill:#c1599a;fill-opacity:1;fill-rule:nonzero;stroke:none;stroke-width:0.1"
         id="path2384" />
      <path
         d="m 2319.77,703.12 c 0,-3.2 -0.04,-6.55 1.08,-9.6 0.56,-1.55 3.05,-0.88 2.48,0.68 -1.04,2.85 -0.98,5.93 -0.98,8.92 0,1.66 -2.58,1.66 -2.58,0"
         style="fill:#c1599a;fill-opacity:1;fill-rule:nonzero;stroke:none;stroke-width:0.1"
         id="path2386" />
      <path
         d="m 2344.52,710.5 c 0.64,-2.86 0.5,-5.86 1.03,-8.75 0.3,-1.63 2.78,-0.94 2.48,0.69 -0.53,2.89 -0.39,5.87 -1.03,8.74 -0.36,1.62 -2.84,0.94 -2.48,-0.68"
         style="fill:#c1599a;fill-opacity:1;fill-rule:nonzero;stroke:none;stroke-width:0.1"
         id="path2388" />
      <path
         d="m 2376.38,730.91 c 0,-3.77 0,-7.55 0,-11.32 0,-1.66 2.57,-1.66 2.57,0 0,3.77 0,7.55 0,11.32 0,1.66 -2.57,1.66 -2.57,0"
         style="fill:#c1599a;fill-opacity:1;fill-rule:nonzero;stroke:none;stroke-width:0.1"
         id="path2390" />
      <path
         d="m 2148.42,737.08 c -0.04,-3.97 -0.54,-7.89 -1.03,-11.83 -0.21,-1.64 2.36,-1.62 2.57,0 0.5,3.94 0.99,7.86 1.03,11.83 0.01,1.67 -2.56,1.66 -2.57,0"
         style="fill:#c1599a;fill-opacity:1;fill-rule:nonzero;stroke:none;stroke-width:0.1"
         id="path2392" />
      <path
         d="m 2160.25,722.16 c 0,-2.8 0.04,-5.64 -0.47,-8.4 -0.3,-1.63 2.18,-2.32 2.48,-0.69 0.55,3.01 0.56,6.05 0.56,9.09 0,1.66 -2.57,1.66 -2.57,0"
         style="fill:#c1599a;fill-opacity:1;fill-rule:nonzero;stroke:none;stroke-width:0.1"
         id="path2394" />
      <path
         d="m 2171.75,714.82 c 1.14,-2.64 0.36,-6.33 0.34,-9.12 -0.02,-1.66 2.56,-1.66 2.57,0 0.03,3.39 0.7,7.21 -0.69,10.42 -0.66,1.52 -2.88,0.21 -2.22,-1.3"
         style="fill:#c1599a;fill-opacity:1;fill-rule:nonzero;stroke:none;stroke-width:0.1"
         id="path2396" />
      <path
         d="m 2192.72,706.55 c -0.5,-3.19 -0.56,-6.38 -0.56,-9.6 -0.01,-1.66 2.57,-1.66 2.57,0 0,2.98 0.01,5.96 0.47,8.92 0.25,1.62 -2.23,2.32 -2.48,0.68"
         style="fill:#c1599a;fill-opacity:1;fill-rule:nonzero;stroke:none;stroke-width:0.1"
         id="path2398" />
      <path
         d="m 2208.15,701.75 c 0.98,-3.18 1.04,-6.51 1.55,-9.78 0.25,-1.63 2.73,-0.93 2.48,0.69 -0.51,3.27 -0.56,6.59 -1.55,9.78 -0.48,1.58 -2.97,0.9 -2.48,-0.69"
         style="fill:#c1599a;fill-opacity:1;fill-rule:nonzero;stroke:none;stroke-width:0.1"
         id="path2400" />
      <path
         d="m 2222.56,699.18 c 0.95,-3.75 0.57,-7.67 0.98,-11.5 0.18,-1.63 2.76,-1.64 2.58,0 -0.44,4.06 -0.07,8.19 -1.08,12.18 -0.41,1.61 -2.89,0.93 -2.48,-0.68"
         style="fill:#c1599a;fill-opacity:1;fill-rule:nonzero;stroke:none;stroke-width:0.1"
         id="path2402" />
      <path
         d="m 2231.78,697.98 c 0,-4.1 0.03,-8.2 1.07,-12.18 0.43,-1.6 2.91,-0.92 2.48,0.68 -0.99,3.77 -0.98,7.63 -0.98,11.5 0,1.66 -2.57,1.66 -2.57,0"
         style="fill:#c1599a;fill-opacity:1;fill-rule:nonzero;stroke:none;stroke-width:0.1"
         id="path2404" />
      <path
         d="m 2236.92,696.43 c 0.04,-3.74 0.55,-7.44 1.08,-11.15 0.23,-1.63 2.71,-0.93 2.48,0.69 -0.5,3.48 -0.94,6.95 -0.98,10.46 -0.02,1.66 -2.59,1.66 -2.58,0"
         style="fill:#c1599a;fill-opacity:1;fill-rule:nonzero;stroke:none;stroke-width:0.1"
         id="path2406" />
      <path
         d="m 2315.14,823.54 c 0.04,-2.59 0.48,-5.14 0.52,-7.72 0.02,-1.66 2.59,-1.66 2.57,0 -0.04,2.58 -0.48,5.13 -0.52,7.72 -0.02,1.65 -2.59,1.66 -2.57,0"
         style="fill:#c1599a;fill-opacity:1;fill-rule:nonzero;stroke:none;stroke-width:0.1"
         id="path2408" />
      <path
         d="m 2320.46,821.34 c 0.76,-1.65 0.87,-3.62 1.42,-5.35 0.5,-1.57 2.98,-0.9 2.48,0.68 -0.63,1.97 -0.81,4.09 -1.68,5.97 -0.68,1.51 -2.9,0.2 -2.22,-1.3"
         style="fill:#c1599a;fill-opacity:1;fill-rule:nonzero;stroke:none;stroke-width:0.1"
         id="path2410" />
      <path
         d="m 2326.98,820.45 c 0,-1.55 0,-3.09 0,-4.63 0,-1.66 2.57,-1.66 2.57,0 0,1.54 0,3.08 0,4.63 0,1.66 -2.57,1.66 -2.57,0"
         style="fill:#c1599a;fill-opacity:1;fill-rule:nonzero;stroke:none;stroke-width:0.1"
         id="path2412" />
      <path
         d="m 2341.39,818.39 c 0,-1.68 0.05,-3.35 0.56,-4.97 0.49,-1.58 2.97,-0.91 2.48,0.68 -0.44,1.41 -0.47,2.83 -0.47,4.29 0,1.66 -2.58,1.66 -2.57,0"
         style="fill:#c1599a;fill-opacity:1;fill-rule:nonzero;stroke:none;stroke-width:0.1"
         id="path2414" />
      <path
         d="m 2350.82,815.68 c 0.82,-1.7 1.34,-3.57 1.93,-5.35 0.52,-1.57 3.01,-0.9 2.48,0.68 -0.66,2 -1.27,4.07 -2.18,5.97 -0.72,1.5 -2.94,0.19 -2.23,-1.3"
         style="fill:#c1599a;fill-opacity:1;fill-rule:nonzero;stroke:none;stroke-width:0.1"
         id="path2416" />
      <path
         d="m 2359.91,812.73 c 0,-1.53 0.1,-3 0.56,-4.46 0.5,-1.57 2.99,-0.9 2.48,0.69 -0.4,1.25 -0.47,2.46 -0.47,3.77 0,1.66 -2.57,1.66 -2.57,0"
         style="fill:#c1599a;fill-opacity:1;fill-rule:nonzero;stroke:none;stroke-width:0.1"
         id="path2418" />
      <path
         d="m 2371.61,805.13 c 0.41,-0.47 0.42,-2.06 0.18,-2.86 -0.47,-1.6 2.01,-2.28 2.48,-0.69 0.5,1.69 0.36,3.99 -0.84,5.37 -1.09,1.25 -2.91,-0.57 -1.82,-1.82"
         style="fill:#c1599a;fill-opacity:1;fill-rule:nonzero;stroke:none;stroke-width:0.1"
         id="path2420" />
      <path
         d="m 2304.34,824.57 c 0,-2.41 0,-4.81 0,-7.21 0,-1.66 2.57,-1.66 2.57,0 0,2.4 0,4.8 0,7.21 0,1.65 -2.57,1.65 -2.57,0"
         style="fill:#c1599a;fill-opacity:1;fill-rule:nonzero;stroke:none;stroke-width:0.1"
         id="path2422" />
      <path
         d="m 2294.68,821.91 c -0.17,0.11 -0.06,-0.04 -0.05,-0.19 0.04,-0.42 -0.01,-0.85 -0.05,-1.26 -0.09,-0.93 -0.31,-1.85 -0.49,-2.76 -0.32,-1.62 2.16,-2.31 2.48,-0.68 0.41,2.04 1.6,5.68 -0.59,7.11 -1.39,0.91 -2.68,-1.32 -1.3,-2.22"
         style="fill:#c1599a;fill-opacity:1;fill-rule:nonzero;stroke:none;stroke-width:0.1"
         id="path2424" />
      <path
         d="m 2287.91,823.88 c -0.59,-2.62 -0.48,-5.26 0,-7.89 0.31,-1.63 2.79,-0.94 2.49,0.68 -0.41,2.16 -0.5,4.37 0,6.52 0.36,1.62 -2.12,2.31 -2.49,0.69"
         style="fill:#c1599a;fill-opacity:1;fill-rule:nonzero;stroke:none;stroke-width:0.1"
         id="path2426" />
      <path
         d="m 2278.61,821.48 c 0.03,-1.59 0.57,-2.98 1.07,-4.46 0.53,-1.56 3.02,-0.89 2.48,0.68 -0.42,1.25 -0.95,2.45 -0.98,3.78 -0.04,1.65 -2.61,1.66 -2.57,0"
         style="fill:#c1599a;fill-opacity:1;fill-rule:nonzero;stroke:none;stroke-width:0.1"
         id="path2428" />
      <path
         d="m 2270.89,819.93 c 0,-1.83 0.01,-3.71 0.56,-5.48 0.48,-1.58 2.97,-0.91 2.48,0.68 -0.48,1.56 -0.47,3.19 -0.47,4.8 0,1.66 -2.57,1.66 -2.57,0"
         style="fill:#c1599a;fill-opacity:1;fill-rule:nonzero;stroke:none;stroke-width:0.1"
         id="path2430" />
      <path
         d="m 2522.13,746.7 -48.14,36.53 -76.52,23.33 -59.92,0.8 -39.59,-22.07 0.37,-24.47 c 0,0 1.91,11.96 16.86,20.48 14.94,8.52 33.76,19.87 75.61,9.64 48.92,-11.97 85.42,-24.61 103.77,-38.42 15.82,-11.91 31.31,-34.37 30.85,-36.95 -0.46,-2.58 7.23,4.35 7.23,4.35 l -10.52,26.78"
         style="fill:#994575;fill-opacity:1;fill-rule:nonzero;stroke:none;stroke-width:0.1"
         id="path2432" />
      <path
         d="m 2540.3,719.69 -26.7,-34.31 -64.76,-17.19 -77.35,19.78 -55.11,34.29 -20.72,24.69 -6.73,30.81 -10.84,-20.62 c 0,0 -5.27,-10.65 9.73,-35.86 12.65,-21.27 76.87,-64.18 130.58,-71.57 115.36,-15.88 121.7,44.09 121.7,44.09 l 0.2,25.89"
         style="fill:#994575;fill-opacity:1;fill-rule:nonzero;stroke:none;stroke-width:0.1"
         id="path2434" />
      <path
         d="m 2518.83,701.57 c -19.69,-24.82 -71.61,-33.3 -136.2,-9.12 -48.53,18.17 -91.42,44.2 -83.05,80.04 9.33,39.97 72.58,35.54 108.64,27.65 104.32,-22.82 133.99,-69.11 110.61,-98.57 z M 2407.2,808.83 c -38.71,8.47 -109.08,8.29 -119.1,-34.61 -8.99,-38.48 38.46,-72.44 89.65,-94.23 64.9,-27.62 134.13,-11.17 155.27,15.47 25.09,31.63 -13.84,88.87 -125.82,113.37"
         style="fill:#ecceed;fill-opacity:1;fill-rule:nonzero;stroke:none;stroke-width:0.1"
         id="path2436" />
      <path
         d="m 2304.98,721.93 c -0.76,-4.15 -4.21,-7.11 -4.98,-11.31 -0.3,-1.63 2.26,-1.89 2.55,-0.27 0.77,4.15 4.22,7.11 4.99,11.32 0.3,1.63 -2.27,1.89 -2.56,0.26"
         style="fill:#c1599a;fill-opacity:1;fill-rule:nonzero;stroke:none;stroke-width:0.1"
         id="path2438" />
      <path
         d="m 2320.33,708.92 c -1.91,-3.33 -4.06,-6.51 -6.04,-9.79 -0.85,-1.41 1.2,-2.96 2.06,-1.54 1.98,3.28 4.13,6.46 6.04,9.79 0.82,1.42 -1.24,2.97 -2.06,1.54"
         style="fill:#c1599a;fill-opacity:1;fill-rule:nonzero;stroke:none;stroke-width:0.1"
         id="path2440" />
      <path
         d="m 2332.74,699.82 c -1.49,-3.91 -2.64,-7.98 -5,-11.49 -0.92,-1.37 1.14,-2.91 2.06,-1.54 2.5,3.71 3.76,7.96 5.34,12.1 0.59,1.54 -1.8,2.48 -2.4,0.93"
         style="fill:#c1599a;fill-opacity:1;fill-rule:nonzero;stroke:none;stroke-width:0.1"
         id="path2442" />
      <path
         d="m 2362.39,683.8 c -0.97,-3.85 -1.94,-7.69 -3.36,-11.4 -0.59,-1.55 1.81,-2.49 2.4,-0.94 1.42,3.72 2.38,7.55 3.36,11.4 0.4,1.58 -1.99,2.54 -2.4,0.94"
         style="fill:#c1599a;fill-opacity:1;fill-rule:nonzero;stroke:none;stroke-width:0.1"
         id="path2444" />
      <path
         d="m 2398.25,669.06 c 0.68,-3.02 -0.92,-6.2 -0.98,-9.23 -0.04,-1.65 2.52,-1.93 2.55,-0.27 0.08,3.29 1.71,6.6 0.98,9.9 -0.36,1.61 -2.91,1.22 -2.55,-0.4"
         style="fill:#c1599a;fill-opacity:1;fill-rule:nonzero;stroke:none;stroke-width:0.1"
         id="path2446" />
      <path
         d="m 2430.1,663.37 c -1.17,-2.99 -2.43,-6.09 -2.5,-9.34 -0.04,-1.64 2.52,-1.93 2.56,-0.27 0.07,3.03 1.25,5.88 2.34,8.67 0.6,1.54 -1.79,2.48 -2.4,0.94"
         style="fill:#c1599a;fill-opacity:1;fill-rule:nonzero;stroke:none;stroke-width:0.1"
         id="path2448" />
      <path
         d="m 2455.83,661.21 c -0.44,-2.9 -1.67,-5.63 -2.23,-8.52 -0.31,-1.63 2.25,-1.88 2.56,-0.27 0.56,2.89 1.79,5.62 2.23,8.53 0.25,1.63 -2.31,1.9 -2.56,0.26"
         style="fill:#c1599a;fill-opacity:1;fill-rule:nonzero;stroke:none;stroke-width:0.1"
         id="path2450" />
      <path
         d="m 2492.94,668.6 c -1.38,-3.51 -2.75,-7.02 -4.13,-10.54 -0.6,-1.54 1.79,-2.48 2.4,-0.94 1.37,3.52 2.75,7.03 4.13,10.55 0.6,1.54 -1.8,2.48 -2.4,0.93"
         style="fill:#c1599a;fill-opacity:1;fill-rule:nonzero;stroke:none;stroke-width:0.1"
         id="path2452" />
      <path
         d="m 2282.92,757.46 c -1.48,-3.69 -3.38,-7.16 -5.28,-10.64 -0.79,-1.46 1.62,-2.38 2.4,-0.94 1.9,3.49 3.79,6.96 5.27,10.64 0.62,1.54 -1.77,2.48 -2.39,0.94"
         style="fill:#c1599a;fill-opacity:1;fill-rule:nonzero;stroke:none;stroke-width:0.1"
         id="path2454" />
      <path
         d="m 2288.5,739.25 c -1.02,-2.61 -2.02,-5.26 -3.5,-7.66 -0.87,-1.4 1.19,-2.95 2.06,-1.54 1.61,2.6 2.72,5.43 3.83,8.26 0.61,1.55 -1.79,2.49 -2.39,0.94"
         style="fill:#c1599a;fill-opacity:1;fill-rule:nonzero;stroke:none;stroke-width:0.1"
         id="path2456" />
      <path
         d="m 2296.53,728.23 c 0.1,-2.88 -1.97,-6.03 -3.01,-8.63 -0.62,-1.54 1.77,-2.47 2.39,-0.93 1.27,3.15 3.29,6.46 3.16,9.96 -0.06,1.65 -2.6,1.24 -2.54,-0.4"
         style="fill:#c1599a;fill-opacity:1;fill-rule:nonzero;stroke:none;stroke-width:0.1"
         id="path2458" />
      <path
         d="m 2313.04,712.88 c -1.62,-2.79 -2.85,-5.74 -4.03,-8.74 -0.6,-1.54 1.79,-2.48 2.4,-0.94 1.09,2.78 2.19,5.55 3.69,8.14 0.82,1.42 -1.23,2.97 -2.06,1.54"
         style="fill:#c1599a;fill-opacity:1;fill-rule:nonzero;stroke:none;stroke-width:0.1"
         id="path2460" />
      <path
         d="m 2325.66,702.78 c -0.24,-3.31 -1.4,-6.44 -2.12,-9.67 -0.37,-1.61 2.2,-1.87 2.56,-0.26 0.72,3.23 1.88,6.34 2.12,9.66 0.12,1.65 -2.43,1.93 -2.56,0.27"
         style="fill:#c1599a;fill-opacity:1;fill-rule:nonzero;stroke:none;stroke-width:0.1"
         id="path2462" />
      <path
         d="m 2338.14,695.13 c -0.48,-3.84 -2.26,-7.35 -3.27,-11.06 -0.43,-1.58 1.96,-2.54 2.39,-0.94 1.07,3.94 2.93,7.65 3.44,11.74 0.21,1.64 -2.35,1.91 -2.56,0.26"
         style="fill:#c1599a;fill-opacity:1;fill-rule:nonzero;stroke:none;stroke-width:0.1"
         id="path2464" />
      <path
         d="m 2346.29,690.65 c -1.49,-3.81 -2.97,-7.64 -3.44,-11.73 -0.19,-1.64 2.36,-1.92 2.56,-0.27 0.45,3.87 1.86,7.47 3.27,11.07 0.61,1.54 -1.79,2.48 -2.39,0.93"
         style="fill:#c1599a;fill-opacity:1;fill-rule:nonzero;stroke:none;stroke-width:0.1"
         id="path2466" />
      <path
         d="m 2350.51,687.34 c -1.32,-3.5 -2.2,-7.13 -3.06,-10.77 -0.38,-1.61 2.18,-1.86 2.56,-0.27 0.81,3.42 1.65,6.81 2.9,10.1 0.59,1.55 -1.81,2.49 -2.4,0.94"
         style="fill:#c1599a;fill-opacity:1;fill-rule:nonzero;stroke:none;stroke-width:0.1"
         id="path2468" />
      <path
         d="m 2469.69,777.18 c -0.91,-2.42 -1.43,-4.96 -2.34,-7.38 -0.58,-1.55 1.82,-2.49 2.4,-0.93 0.9,2.42 1.43,4.95 2.33,7.37 0.58,1.55 -1.81,2.49 -2.39,0.94"
         style="fill:#c1599a;fill-opacity:1;fill-rule:nonzero;stroke:none;stroke-width:0.1"
         id="path2470" />
      <path
         d="m 2473.84,773.2 c 0.1,-1.82 -0.52,-3.69 -0.63,-5.5 -0.11,-1.65 2.45,-1.93 2.56,-0.27 0.13,2.06 0.73,4.1 0.61,6.17 -0.09,1.65 -2.63,1.24 -2.54,-0.4"
         style="fill:#c1599a;fill-opacity:1;fill-rule:nonzero;stroke:none;stroke-width:0.1"
         id="path2472" />
      <path
         d="m 2479.58,769.99 c -0.56,-1.44 -1.12,-2.87 -1.69,-4.31 -0.6,-1.55 1.79,-2.49 2.4,-0.94 0.56,1.44 1.13,2.88 1.69,4.31 0.6,1.55 -1.79,2.49 -2.4,0.94"
         style="fill:#c1599a;fill-opacity:1;fill-rule:nonzero;stroke:none;stroke-width:0.1"
         id="path2474" />
      <path
         d="m 2492.25,762.82 c -0.61,-1.57 -1.17,-3.14 -1.29,-4.83 -0.12,-1.65 2.44,-1.93 2.56,-0.27 0.1,1.47 0.59,2.8 1.12,4.16 0.61,1.55 -1.79,2.49 -2.39,0.94"
         style="fill:#c1599a;fill-opacity:1;fill-rule:nonzero;stroke:none;stroke-width:0.1"
         id="path2476" />
      <path
         d="m 2500.05,756.86 c 0.14,-1.88 -0.06,-3.81 -0.16,-5.69 -0.08,-1.65 2.48,-1.93 2.56,-0.27 0.11,2.11 0.3,4.25 0.14,6.36 -0.12,1.65 -2.66,1.24 -2.54,-0.4"
         style="fill:#c1599a;fill-opacity:1;fill-rule:nonzero;stroke:none;stroke-width:0.1"
         id="path2478" />
      <path
         d="m 2507.44,750.8 c -0.56,-1.43 -1.01,-2.83 -1.11,-4.36 -0.11,-1.65 2.45,-1.93 2.56,-0.27 0.09,1.32 0.46,2.47 0.94,3.69 0.61,1.54 -1.79,2.48 -2.39,0.94"
         style="fill:#c1599a;fill-opacity:1;fill-rule:nonzero;stroke:none;stroke-width:0.1"
         id="path2480" />
      <path
         d="m 2515.56,739.46 c 0.21,-0.59 -0.36,-2.08 -0.88,-2.74 -1.02,-1.31 1.05,-2.85 2.06,-1.54 1.08,1.39 1.79,3.58 1.18,5.31 -0.56,1.56 -2.92,0.52 -2.36,-1.03"
         style="fill:#c1599a;fill-opacity:1;fill-rule:nonzero;stroke:none;stroke-width:0.1"
         id="path2482" />
      <path
         d="m 2460,782.08 c -0.88,-2.24 -1.75,-4.47 -2.63,-6.71 -0.6,-1.55 1.79,-2.48 2.4,-0.94 0.87,2.24 1.75,4.47 2.62,6.71 0.61,1.55 -1.79,2.48 -2.39,0.94"
         style="fill:#c1599a;fill-opacity:1;fill-rule:nonzero;stroke:none;stroke-width:0.1"
         id="path2484" />
      <path
         d="m 2450.04,783.13 c -0.11,0.16 -0.07,-0.02 -0.12,-0.17 -0.11,-0.4 -0.32,-0.78 -0.5,-1.15 -0.42,-0.83 -0.96,-1.61 -1.46,-2.39 -0.89,-1.39 1.16,-2.93 2.06,-1.54 1.12,1.75 3.56,4.71 2.04,6.84 -0.96,1.36 -2.98,-0.25 -2.02,-1.59"
         style="fill:#c1599a;fill-opacity:1;fill-rule:nonzero;stroke:none;stroke-width:0.1"
         id="path2486" />
      <path
         d="m 2444.46,787.42 c -1.51,-2.22 -2.37,-4.71 -2.88,-7.34 -0.31,-1.63 2.25,-1.89 2.56,-0.27 0.42,2.16 1.14,4.25 2.38,6.07 0.93,1.37 -1.13,2.92 -2.06,1.54"
         style="fill:#c1599a;fill-opacity:1;fill-rule:nonzero;stroke:none;stroke-width:0.1"
         id="path2488" />
      <path
         d="m 2434.92,788.58 c -0.55,-1.49 -0.56,-2.98 -0.63,-4.54 -0.07,-1.65 2.49,-1.93 2.56,-0.27 0.06,1.31 0,2.63 0.46,3.88 0.57,1.55 -1.82,2.49 -2.39,0.93"
         style="fill:#c1599a;fill-opacity:1;fill-rule:nonzero;stroke:none;stroke-width:0.1"
         id="path2490" />
      <path
         d="m 2427.17,789.96 c -0.67,-1.71 -1.34,-3.47 -1.48,-5.31 -0.13,-1.65 2.43,-1.93 2.56,-0.27 0.12,1.62 0.72,3.14 1.31,4.64 0.61,1.55 -1.79,2.48 -2.39,0.94"
         style="fill:#c1599a;fill-opacity:1;fill-rule:nonzero;stroke:none;stroke-width:0.1"
         id="path2492" />
      <path
         d="m 2304.97,702.83 1.85,-18.05 c 0,0 4.94,0.62 9.18,1.85 4.24,1.24 8.1,2.24 8.1,2.24 0,0 -6.79,3.7 -10.64,6.48 -3.86,2.78 -8.49,7.48 -8.49,7.48"
         style="fill:#703459;fill-opacity:1;fill-rule:nonzero;stroke:none;stroke-width:0.1"
         id="path2494" />
    </g>
  </g>
</svg>
