<?xml version="1.0" encoding="UTF-8" standalone="no"?>
<!-- Created with Inkscape (http://www.inkscape.org/) -->

<svg
   width="189.06419mm"
   height="103.11776mm"
   viewBox="0 0 189.06419 103.11776"
   version="1.1"
   id="svg11989"
   inkscape:version="1.1.1 (3bf5ae0d25, 2021-09-20)"
   sodipodi:docname="extra-lettuce.svg"
   xmlns:inkscape="http://www.inkscape.org/namespaces/inkscape"
   xmlns:sodipodi="http://sodipodi.sourceforge.net/DTD/sodipodi-0.dtd"
   xmlns="http://www.w3.org/2000/svg"
   xmlns:svg="http://www.w3.org/2000/svg">
  <sodipodi:namedview
     id="namedview11991"
     pagecolor="#505050"
     bordercolor="#ffffff"
     borderopacity="1"
     inkscape:pageshadow="0"
     inkscape:pageopacity="0"
     inkscape:pagecheckerboard="1"
     inkscape:document-units="mm"
     showgrid="false"
     inkscape:zoom="0.69753788"
     inkscape:cx="212.89166"
     inkscape:cy="125.44122"
     inkscape:window-width="1920"
     inkscape:window-height="1001"
     inkscape:window-x="-9"
     inkscape:window-y="-9"
     inkscape:window-maximized="1"
     inkscape:current-layer="layer1" />
  <defs
     id="defs11986" />
  <g
     inkscape:label="Layer 1"
     inkscape:groupmode="layer"
     id="layer1"
     transform="translate(-10.499199,-14.383432)"
     style="display:inline">
    <g
       id="g15935"
       transform="matrix(0.30549003,0,0,-0.21472777,-807.04939,444.29705)">
      <path
         d="m 3260.26,1884.64 c -12.14,-7.62 -69.34,-49.25 -69.34,-49.25 -32.97,-15.09 -72.21,3.96 -104.67,13.26 -24.76,7.09 -72.97,39.5 -98.09,19.23 -3.58,-2.89 -5.35,-11.28 -8.24,-13.09 -2.39,-1.47 -7.74,-1.46 -12.22,-1.44 -1.94,0.01 -3.71,0.02 -5.01,-0.1 -13.2,-1.16 -21.53,-2.78 -31.09,-12.27 -10.32,-10.24 -14.3,-10.91 -29.25,-11.56 -18.77,-0.81 -19.41,-3.91 -31.66,-16.39 -7.32,-7.47 -5.99,-6.68 -17,-5.87 -9.86,0.73 -20.27,2.52 -30.37,0.64 -15.22,-2.84 -38,-17.14 -42.26,-33.17 -11.25,0.99 -22.22,-1.23 -31.34,-8.17 -12.25,-9.32 -11.46,-19.77 -17.71,-31.58 -4.97,-9.42 -18.5,-11.55 -27.01,-20.96 -11.21,-12.39 -13.66,-30.47 -6.67,-45.66 2.96,-6.44 6.81,-6.61 9.8,-11.31 4.76,-7.49 -18.62,-38.42 -16.19,-46.87 5.77,-20.06 30.92,-27.51 51.64,-30.22 2.28,-0.3 8.39,3.18 14.7,6.66 7.51,4.15 15.3,8.29 17.19,6.05 2.72,-3.21 0.91,-15.68 3.37,-20.66 11.12,-22.61 43.08,-29.05 65.65,-30.6 10.72,-0.73 21.87,-0.75 32.37,2.03 4.77,1.27 15.29,8.39 20.38,7.05 7.08,-1.86 13.18,-14.59 21.05,-18.9 27.22,-14.92 59.23,-13.43 80.9,11.67 6.19,7.17 10.35,19.51 19.28,23.88 8.64,4.24 12.27,-0.71 20.97,-1.18 20.77,-1.1 26.22,16.02 31.9,32.52 16.06,-6.92 18.07,-11.22 38.83,-5.5 23,6.34 31.96,17.77 40.25,39.18 5.83,15.06 1.48,21.31 17.87,21.06 14.86,-0.23 19.62,0.98 25.74,16.44 5.37,13.57 4.63,27.53 3.82,41.58 -0.44,7.55 -3.22,21.24 2.24,28.23 2.39,3.05 9.12,1.98 12.19,5.55 3.5,4.08 3.08,8.94 2.78,13.98 -0.71,11.55 -4.4,18.87 -1.93,30.71 4.28,20.53 21.71,38.18 37.62,52.05 6.15,5.35 23.81,12.79 24.42,21.84 0.42,6.24 -11.1,17.28 -14.91,21.14"
         style="fill:#89ed29;fill-opacity:1;fill-rule:nonzero;stroke:none;stroke-width:0.1"
         id="path2526" />
      <path
         d="m 3256.2,1885.91 c 0,0 -99.52,-81.65 -224.82,-137.28 -157.44,-69.9 -243.71,-88.8 -234.9,-93.84 8.82,-5.03 99.95,27.63 205.89,66.29 227.38,82.97 277.76,140.9 277.76,140.9 0,0 -2.52,10.08 -11.34,17.64 -8.81,7.55 -12.59,6.29 -12.59,6.29"
         style="fill:#dbff81;fill-opacity:1;fill-rule:nonzero;stroke:none;stroke-width:0.1"
         id="path2528" />
      <path
         d="m 2785.48,1601.63 c -1.28,0 -2.65,0.51 -4.1,1.68 -10.82,8.76 3.39,16.4 9.29,22.52 4.07,4.21 8.55,7.88 12.74,11.96 3.69,3.61 6.34,8.63 10.08,11.97 l 1.25,1.26 c 0.7,0.29 1.25,0.42 1.69,0.42 2.58,0 0.89,-4.58 0.05,-6.72 -3.51,-8.81 -11.47,-17.19 -16.68,-25.22 -3.39,-5.24 -7.89,-17.87 -14.32,-17.87"
         style="fill:#aaf44c;fill-opacity:1;fill-rule:nonzero;stroke:none;stroke-width:0.1"
         id="path2530" />
      <path
         d="m 2911.27,1549.23 c -2.17,0 -4.34,5.31 -6.63,7.83 -3.42,3.77 -8.37,4.36 -12.57,6.28 -11.47,5.25 -10.75,12.73 -7.92,24.07 6.55,26.18 8.89,54.06 8.68,81.24 0.62,0.48 0.43,0.97 1.1,1.18 7.35,-16.32 10.86,-37.15 10.87,-55.49 0,-12.39 2.26,-22.11 5.67,-33.84 2.03,-7.01 6.26,-19.68 3.81,-27.09 -1.01,-3.05 -2.01,-4.18 -3.01,-4.18"
         style="fill:#aaf44c;fill-opacity:1;fill-rule:nonzero;stroke:none;stroke-width:0.1"
         id="path2532" />
      <path
         d="m 2839.19,1547.38 c -2.4,0 -4.72,0.32 -6.81,0.99 l -3.78,3.77 c -0.53,-0.39 0.01,-1.18 -0.96,-1.18 -0.05,0 -0.1,0 -0.16,0.01 -8.25,8.48 11.95,38.59 16.07,46.52 5.65,10.87 12.53,20.92 17.62,32.1 3.37,7.4 4.02,18.17 8.99,24.57 1.74,2.25 3.42,3.4 4.7,3.4 1.65,0 2.64,-1.93 2.26,-5.91 -0.5,-5.3 -4.29,-10.85 -6.19,-15.75 -4.73,-12.23 -9.04,-25.27 -10.25,-38.25 -1.1,-11.9 6.35,-26.9 1.17,-37.98 -3.67,-7.86 -13.73,-12.29 -22.66,-12.29"
         style="fill:#aaf44c;fill-opacity:1;fill-rule:nonzero;stroke:none;stroke-width:0.1"
         id="path2534" />
      <path
         d="m 3001.78,1562.85 c -5.3,14.64 -4.9,29.68 -6.3,45.19 -1.36,15.16 -2.61,30.55 -1.89,45.99 0.85,18.03 -3.65,46.91 8.65,61.22 1.29,1.51 0.97,2.37 2.58,3.07 2.62,-12.41 -1.74,-27.61 -2.42,-40.39 -1,-18.58 4.12,-35.53 11.33,-52.32 3.55,-8.25 6.73,-16.4 10.86,-24.33 2.56,-4.91 6.71,-11.77 6.82,-17.51 0.14,-6.99 -3.88,-6.19 -9.46,-7.08 -6.08,-0.96 -9.94,-3.15 -14.04,-8.03 -1.58,-1.88 -2.56,-4.29 -3.61,-4.55 l -2.52,-1.26"
         style="fill:#aaf44c;fill-opacity:1;fill-rule:nonzero;stroke:none;stroke-width:0.1"
         id="path2536" />
      <path
         d="m 3078.78,1602.31 c -3.88,0 -8.73,1.43 -9.62,2.73 l -3.78,-1.25 c -2.15,15.37 -4.36,29.83 -4.4,45.83 -0.04,15.36 2.05,30.54 4.89,45.48 2.86,14.99 2.93,41.86 15.24,52.34 2.58,-2.1 -5.47,-24.77 -6.26,-29.67 -1.93,-11.98 -3.79,-24.83 -3.18,-37.14 0.69,-14 2.33,-27.8 4.39,-41.58 1.03,-6.93 11.14,-28.92 7.44,-35.12 -0.69,-1.17 -2.56,-1.62 -4.72,-1.62"
         style="fill:#aaf44c;fill-opacity:1;fill-rule:nonzero;stroke:none;stroke-width:0.1"
         id="path2538" />
      <path
         d="m 3156.12,1659.82 c -0.23,0 -0.45,0.01 -0.68,0.01 h -3.78 c -6.91,10.67 -4.97,28.41 -4.41,40.78 0.7,15.06 3.6,30.8 8.01,45.36 2.96,9.76 6.77,19.49 10.71,29.14 1.35,3.31 3.68,10.11 6.95,12.11 1.28,0.78 2.26,1.12 3,1.12 2.9,0 1.98,-5.26 0.93,-8.86 -3.77,-12.85 -10.09,-24.32 -12.12,-37.79 -1.84,-12.24 -0.14,-25.02 1.45,-36.99 1.39,-10.51 4.77,-23.09 4.37,-33.53 -0.32,-8.53 -7.7,-11.35 -14.43,-11.35"
         style="fill:#aaf44c;fill-opacity:1;fill-rule:nonzero;stroke:none;stroke-width:0.1"
         id="path2540" />
      <path
         d="m 2755.19,1656.96 c -5.7,0 -11.55,1.03 -17.14,1.75 -7.02,0.91 -16.36,0.94 -22.18,5.53 l -3.15,1.89 c -5.34,4.48 6.36,10.17 10.08,10.57 0.76,0.08 1.51,0.11 2.25,0.11 6.11,0 11.87,-2.48 17.77,-3.89 6.02,-1.44 12.4,-1.66 18.8,-1.66 1.44,0 2.89,0.01 4.33,0.02 1.44,0.01 2.87,0.02 4.3,0.02 2.3,0 4.59,-0.03 6.85,-0.13 0.77,-0.04 1.67,-0.05 2.66,-0.05 0.56,0 1.16,0.01 1.77,0.01 0.61,0 1.24,0.01 1.89,0.01 5.88,0 12.9,-0.26 15.64,-3.12 -7.46,-7.64 -25.59,-7.57 -35.29,-10.08 -2.79,-0.71 -5.66,-0.98 -8.58,-0.98"
         style="fill:#aaf44c;fill-opacity:1;fill-rule:nonzero;stroke:none;stroke-width:0.1"
         id="path2542" />
      <path
         d="m 2880.23,1692.87 c -6.81,0 -15.13,2.72 -19.5,3.49 -12.39,2.18 -24.32,5.69 -36.54,9.29 -14.01,4.13 -28.99,7.39 -42.35,13.36 -10.12,4.53 -33.92,16.97 -34.48,30.25 l -1.26,1.89 c 0.88,0.29 3.66,6.08 5.67,8.2 2.29,2.41 5.89,5.59 8.96,6.75 1.55,0.59 3.19,0.86 4.89,0.86 9.4,0 20.34,-8.14 24.72,-15.19 3.16,-5.09 4.19,-9.82 8.8,-13.87 5.42,-4.74 12.51,-8.01 18.89,-11.29 13.05,-6.72 25.33,-14.08 39.4,-19.06 9.32,-3.29 25.05,-4.55 32.33,-10.56 -1.77,-3.1 -5.37,-4.12 -9.53,-4.12"
         style="fill:#aaf44c;fill-opacity:1;fill-rule:nonzero;stroke:none;stroke-width:0.1"
         id="path2544" />
      <path
         d="m 2981.72,1734.82 c -7.63,0 -16.84,1.87 -22.13,2.46 -23.3,2.59 -46.87,8.52 -69.29,16.39 -14.72,5.16 -30.33,10.02 -44.54,16.51 -10.23,4.66 -31.81,15.63 -32.9,28.83 v 1.89 c 5.2,3.1 12.45,4.5 19.83,4.5 7.34,0 14.79,-1.39 20.47,-3.87 12.37,-5.42 21.99,-17.02 33.24,-24.56 22.82,-15.32 53.6,-24.07 80.25,-30.07 6.55,-1.48 13.01,-2.79 19.39,-4.08 4.97,-1.01 12.69,-2.23 5.05,-6.31 -2.33,-1.25 -5.66,-1.69 -9.37,-1.69"
         style="fill:#aaf44c;fill-opacity:1;fill-rule:nonzero;stroke:none;stroke-width:0.1"
         id="path2546" />
      <path
         d="m 3019.62,1750.19 c -8.66,0 -19.34,1.74 -23.51,2.18 -23.8,2.54 -47.24,18.25 -66.75,31.37 -10.66,7.16 -21.97,12.49 -33.38,18.26 -4.74,2.4 -10.24,4.65 -11.35,10.22 -0.82,4.14 1.71,10.59 5.68,11.98 l 4.41,-1.26 c 0.96,0.48 2.01,0.7 3.12,0.7 8.7,0 21.33,-13.46 26.48,-18.35 15.16,-14.38 29.92,-25.13 48.49,-34.78 9.37,-4.87 18.5,-7.95 28.48,-10.41 8.85,-2.18 22.89,-1.77 30.17,-7.05 -1.69,-2.16 -6.36,-2.86 -11.84,-2.86"
         style="fill:#aaf44c;fill-opacity:1;fill-rule:nonzero;stroke:none;stroke-width:0.1"
         id="path2548" />
      <path
         d="m 3067.97,1790.83 c -10.24,0 -20.24,1.41 -30.28,5.01 -11.28,4.05 -103.08,29.28 -85.03,49.77 l 2.52,2.52 c 3.46,1.4 9.56,2.69 14.8,2.69 2.24,0 4.33,-0.24 5.98,-0.8 10.33,-3.53 17.42,-11.44 23.93,-19.51 8.06,-9.99 24.28,-16 36.05,-20.32 14.81,-5.44 32.82,-8.81 48.48,-10.06 3.06,-0.25 6.12,-0.34 9.18,-0.34 3.88,0 7.75,0.15 11.6,0.34 0.63,0.03 1.39,0.05 2.21,0.05 4.63,0 11.06,-0.74 5.22,-5.11 -1.88,-1.4 -5.07,-1.62 -8.23,-1.62 -0.69,0 -1.38,0.01 -2.05,0.02 -0.68,0.01 -1.33,0.02 -1.96,0.02 -1.07,0 -2.06,-0.02 -2.89,-0.14 -5.63,-0.74 -11.26,-1.33 -17,-1.88 -4.23,-0.41 -8.4,-0.64 -12.53,-0.64"
         style="fill:#aaf44c;fill-opacity:1;fill-rule:nonzero;stroke:none;stroke-width:0.1"
         id="path2550" />
      <path
         d="m 2800.42,1616.07 c -2.6,-5.91 -5.92,-10.91 -9.88,-16.06 -4.11,-5.32 -9.44,-9.23 -10.45,-16.33 -0.83,-5.79 1.25,-15.03 7.56,-16.47 v -2.75 c 3.71,-2.44 9.58,-9.47 12.11,-1.65 1.92,5.95 0.31,15.16 1.09,21.42 1.07,8.68 1.85,17.49 4.51,25.8 2.14,6.69 5.96,12.45 5.24,19.73 -5.81,-2.38 -7.85,-8.39 -10.18,-13.69"
         style="fill:#69cc2f;fill-opacity:1;fill-rule:nonzero;stroke:none;stroke-width:0.1"
         id="path2552" />
      <path
         d="m 2930.02,1602.2 c -6.51,12.23 -7.39,25.19 -10.56,38.19 -1.21,4.98 -2.21,9.82 -3.43,14.68 -0.84,3.34 -1.04,9.17 -2.63,12.08 -0.24,0.45 -0.5,2.04 -0.64,2.65 -1.52,0.17 -1.94,-0.53 -2.65,-1.55 v 1.65 c -1.86,-13.03 1.99,-26.17 3.3,-39.11 1.67,-16.71 3.29,-33.58 6.45,-50 1.96,-10.17 4.41,-20.22 8.24,-29.63 4.15,-10.21 7.82,-15.31 18.8,-16.91 5.46,-0.8 14.14,-3.38 19.13,-0.45 3.42,10.35 -6.77,19.34 -12.51,27.22 -8.93,12.26 -16.32,27.7 -23.5,41.18"
         style="fill:#69cc2f;fill-opacity:1;fill-rule:nonzero;stroke:none;stroke-width:0.1"
         id="path2554" />
      <path
         d="m 3022.67,1695.16 c 0.18,3.78 6.29,29.15 -1.63,25.26 l -1.65,0.55 c -5.79,-20.51 -13.45,-43.67 -8.8,-65.47 1.12,-5.28 9.05,-34.93 17.61,-29.56 6.8,4.26 -1.02,23.39 -2.22,28.72 -2.97,13.17 -3.97,26.86 -3.31,40.5"
         style="fill:#69cc2f;fill-opacity:1;fill-rule:nonzero;stroke:none;stroke-width:0.1"
         id="path2556" />
      <path
         d="m 2789.71,1646.97 c 1.29,3.24 -1.6,5.96 -4.8,4.81 l -2.2,1.09 c -10.91,-3.09 -22.49,-6.37 -34.05,-7.13 -4.87,-0.33 -9.84,-0.9 -14.7,-0.43 -4.19,0.4 -8.79,2.18 -13.3,1.52 -9.59,-1.4 -11.57,-11.58 -15.52,-19.09 -3.02,-5.77 -12.17,-21.67 2.76,-18.69 7.77,1.55 15.58,11.26 22.2,15.28 9.46,5.75 20.02,10.6 30.78,13.18 7.23,1.74 14.81,2.63 21.83,5.07 2.06,0.71 6.06,2.04 7,4.39"
         style="fill:#69cc2f;fill-opacity:1;fill-rule:nonzero;stroke:none;stroke-width:0.1"
         id="path2558" />
      <path
         d="m 2883.23,1651.83 c -6.54,1.7 -8.1,-20.45 -8.69,-23.67 -1.87,-10.17 -7.66,-19.69 -9.49,-29.65 -1.64,-8.96 0.28,-17.75 1.12,-26.36 0.32,-3.37 1.65,-26.61 8.25,-19.77 l 4.39,0.55 c 13.26,-1.54 1.59,11.46 -1.23,16.47 -4.19,7.43 -5.08,17.54 -3.59,25.94 1.11,6.26 17.16,54.42 9.24,56.49"
         style="fill:#69cc2f;fill-opacity:1;fill-rule:nonzero;stroke:none;stroke-width:0.1"
         id="path2560" />
      <path
         d="m 3209.27,1800.04 c 1.42,2.93 7.6,11.48 7.26,12.09 l -5.49,-2.75 c -6.91,-2.2 -13.91,-16.52 -16.62,-22.94 -3.62,-8.56 -5.99,-19.32 -3.68,-28.69 2.2,-8.98 19.16,-13.24 14.4,-3.13 -2.38,5.03 -5.39,5.45 -5.63,11.93 -0.19,4.86 0.39,9.19 1.51,13.73 1.75,7.07 5.1,13.26 8.25,19.76"
         style="fill:#69cc2f;fill-opacity:1;fill-rule:nonzero;stroke:none;stroke-width:0.1"
         id="path2562" />
      <path
         d="m 2971.78,1704.42 c -0.2,-0.25 -0.4,-0.53 -0.58,-0.82 l 0.41,-0.21 c -0.03,0.56 1.11,0.82 0.17,1.03"
         style="fill:#69cc2f;fill-opacity:1;fill-rule:nonzero;stroke:none;stroke-width:0.1"
         id="path2564" />
      <path
         d="m 2970,1608.4 c -1.91,10.09 -6.15,20.51 -7.05,30.73 -1.11,12.62 -0.46,25.08 1.65,37.36 1.21,7.04 2.47,20.83 6.6,27.11 l -1.78,0.89 c -7.08,-9.52 -10.22,-21.7 -11.52,-33.52 -1.94,-17.71 -3.4,-35.19 -2.76,-53.25 0.54,-15.37 4.71,-31.83 10.02,-46.27 3.13,-8.5 6.37,-26.01 16.89,-27.85 24.26,-4.25 3.54,32.26 -1.25,39.93 -5.15,8.25 -9,15.32 -10.8,24.87"
         style="fill:#69cc2f;fill-opacity:1;fill-rule:nonzero;stroke:none;stroke-width:0.1"
         id="path2566" />
      <path
         d="m 3107.03,1617.78 c -6.44,10.37 -5.37,25.74 -4.72,38.11 0.3,5.7 2.97,15.31 -0.05,20.6 -4.46,7.84 -5.8,-4.29 -6.5,-9.06 -1.96,-13.49 -6.1,-25.85 -6.63,-39.54 -0.24,-6.21 4.42,-34.1 15.65,-26.36 h 3.3 c 4.64,-1.51 7.1,3.46 5.76,8.28 -0.75,2.69 -5.29,5.51 -6.81,7.97"
         style="fill:#69cc2f;fill-opacity:1;fill-rule:nonzero;stroke:none;stroke-width:0.1"
         id="path2568" />
      <path
         d="m 3155.71,1776.05 c -3.23,-0.73 -5.26,-3.65 -7.27,-6.49 -15.44,-21.82 -9.72,-54.5 -13,-79.89 -2.12,-16.43 -6.19,-32.87 -6.77,-49.43 -0.16,-4.38 -1.06,-17.84 5.8,-16.51 4.61,0.89 7.46,14.15 7.38,16.51 l 4.12,6.59 c -4.32,2.89 -2.08,22.11 -2.45,29.66 -0.55,11.03 -0.85,22.47 -0.85,33.77 0,11.62 -0.21,24.37 2.66,35.42 2.47,9.52 11.75,20.67 10.38,30.37"
         style="fill:#69cc2f;fill-opacity:1;fill-rule:nonzero;stroke:none;stroke-width:0.1"
         id="path2570" />
    </g>
  </g>
</svg>
