<?xml version="1.0" encoding="UTF-8" standalone="no"?>
<!-- Created with Inkscape (http://www.inkscape.org/) -->

<svg
   width="189.06419mm"
   height="103.11776mm"
   viewBox="0 0 189.06419 103.11776"
   version="1.1"
   id="svg11989"
   inkscape:version="1.1.1 (3bf5ae0d25, 2021-09-20)"
   sodipodi:docname="extra-bacon.svg"
   xmlns:inkscape="http://www.inkscape.org/namespaces/inkscape"
   xmlns:sodipodi="http://sodipodi.sourceforge.net/DTD/sodipodi-0.dtd"
   xmlns="http://www.w3.org/2000/svg"
   xmlns:svg="http://www.w3.org/2000/svg">
  <sodipodi:namedview
     id="namedview11991"
     pagecolor="#505050"
     bordercolor="#ffffff"
     borderopacity="1"
     inkscape:pageshadow="0"
     inkscape:pageopacity="0"
     inkscape:pagecheckerboard="1"
     inkscape:document-units="mm"
     showgrid="false"
     inkscape:zoom="0.69753788"
     inkscape:cx="302.49253"
     inkscape:cy="125.44122"
     inkscape:window-width="1920"
     inkscape:window-height="1001"
     inkscape:window-x="-9"
     inkscape:window-y="-9"
     inkscape:window-maximized="1"
     inkscape:current-layer="layer2" />
  <defs
     id="defs11986" />
  <g
     inkscape:groupmode="layer"
     id="layer2"
     inkscape:label="Layer 2"
     style="display:inline"
     transform="translate(-2.397317,-4.3474412)">
    <g
       id="g14897"
       transform="matrix(0.35277777,0,0,-0.19019773,-740.341,382.65824)"
       style="display:inline">
      <path
         d="m 2641.33,1671.06 c -19.66,-17.79 -32.51,-39.4 -59.84,-50.49 -13.53,-5.49 -26.89,-3.34 -41.46,-5.14 -20.07,-2.49 -33.1,-14.82 -41.89,-29.39 -13.7,-22.74 -29.98,-42.12 -63.98,-39.99 -34.49,2.16 -60.95,-3.41 -76.16,-31.71 -8.66,-16.14 -18.77,-34.98 -42.24,-37.46 -9.18,-0.97 -57.26,-5.11 -77.55,-23.38 l -68.31,86.76 c 0.12,0.94 41.7,38.88 56.03,43.93 15.42,5.44 31.6,3.68 47.34,6.46 22.56,3.97 36.18,12.57 49.77,28.02 13.35,15.17 20.94,34.14 46.61,37.16 20.82,2.44 39.29,-1.94 58.77,8.06 17.96,9.23 22.63,25.93 36.35,38.15 15.87,14.14 39.77,14.27 61.65,16.83 21.95,2.57 56.5,23.09 72.63,35.17 9.77,-30.12 31.84,-58.56 42.28,-82.98"
         style="fill:#cc5552;fill-opacity:1;fill-rule:nonzero;stroke:none;stroke-width:0.1"
         id="path1610" />
      <path
         d="m 2610.33,1727.81 c -1.26,2.43 -2.48,4.88 -3.64,7.34 0.16,0.11 0.32,0.22 0.49,0.33 1.13,-2.5 2.32,-4.99 3.55,-7.47 -0.13,-0.06 -0.27,-0.13 -0.4,-0.2"
         style="fill:#ffdbd1;fill-opacity:1;fill-rule:nonzero;stroke:none;stroke-width:0.1"
         id="path1612" />
      <path
         d="m 2335.16,1591.95 c 0.19,2.84 0.52,5.16 1.04,6.59 1.88,5.18 3.64,10.17 5.26,14.87 8.77,8.75 18.11,16.76 30.59,21.35 22.3,8.19 47.66,1.3 67,18 6.21,5.36 12.15,10.62 18.38,15.94 5.5,4.69 15.03,14.82 23.17,14.82 0.54,0 1.08,-0.04 1.61,-0.14 -1,-3.29 -5.22,-5.55 -6.15,-8.73 0.57,-0.08 1.12,-0.12 1.67,-0.12 4.58,0 8.53,2.71 12.02,5.69 3.89,3.32 3.65,6.17 5.97,10.05 2.48,4.13 10.25,7.3 16.39,7.3 1.81,0 3.47,-0.27 4.82,-0.88 0.9,-0.41 0.47,-2.64 1.91,-3.29 0.81,-0.36 1.54,-0.5 2.24,-0.5 1.45,0 2.78,0.58 4.39,1 5.63,1.44 11.14,4.21 16.25,6.83 9.4,4.84 17.61,13.81 27.32,17.29 1.55,-2.55 2.21,-3.79 3.79,-3.79 0.92,0 2.16,0.43 4.06,1.25 6.05,2.63 11.34,7.41 17.09,10.85 2.79,1.67 7.45,5.31 12.71,8.82 1.16,-2.46 2.38,-4.91 3.64,-7.34 -6.11,-3.07 -12.33,-5.88 -18.15,-8.67 -7.18,-3.43 -12.77,-8.41 -19.37,-12.7 -5.22,-3.38 -8.21,-1.95 -13.18,-5.07 -5.41,-3.39 -10.28,-7.72 -16.33,-10.06 -6.68,-2.57 -13.96,-3.28 -20.75,-5.61 -4.82,-1.64 -9.42,-3.78 -14.28,-5.38 -3.61,-1.18 -6.6,-0.56 -9.79,-1.15 -4.63,-0.84 -11.14,-5.61 -12.03,-10.87 -0.68,-4 1.46,-5.26 4.37,-5.26 2.81,0 6.33,1.18 8.74,2.2 14.85,6.31 29.23,12 44.45,17.16 3.11,1.05 21.48,10.34 28.07,10.34 1.12,0 1.89,-0.27 2.21,-0.88 3.92,-7.71 -29.61,-17.99 -33.35,-19.52 -14.75,-6.03 -29.61,-13.01 -44.84,-17.63 -3.8,-1.15 -7.03,-1.83 -10.22,-1.83 -2.85,0 -5.66,0.54 -8.83,1.76 -2.08,0.8 -4.07,1.16 -5.99,1.16 -10.02,0 -18.05,-9.72 -26.8,-16.1 -12.53,-9.14 -24.14,-7.9 -38.29,-11.11 -12.87,-2.92 -25.55,-5.42 -36.61,-12.95 -6.24,-4.25 -11.54,-9.76 -17.89,-13.85 -5.35,-3.44 -10.89,-6.55 -16.31,-9.84"
         style="fill:#e6867b;fill-opacity:1;fill-rule:nonzero;stroke:none;stroke-width:0.1"
         id="path1614" />
      <path
         d="m 2227.33,1466.46 -7.96,10.11 c 0.05,0.22 0.11,0.43 0.17,0.65 l 8.21,-10.44 c -0.14,-0.1 -0.28,-0.21 -0.42,-0.32"
         style="fill:#ffdbd1;fill-opacity:1;fill-rule:nonzero;stroke:none;stroke-width:0.1"
         id="path1616" />
      <path
         d="m 2227.75,1466.78 -8.21,10.44 c 0.01,0.04 0.03,0.09 0.04,0.14 l 8.27,-10.5 c -0.03,-0.03 -0.06,-0.05 -0.1,-0.08"
         style="fill:#e6867b;fill-opacity:1;fill-rule:nonzero;stroke:none;stroke-width:0.1"
         id="path1618" />
      <path
         d="m 2630.63,1691.97 c -1.05,1.84 -2.12,3.7 -3.21,5.58 0.05,0.03 0.09,0.06 0.13,0.09 1.1,-1.88 2.18,-3.73 3.24,-5.57 -0.05,-0.04 -0.11,-0.07 -0.16,-0.1"
         style="fill:#ffdbd1;fill-opacity:1;fill-rule:nonzero;stroke:none;stroke-width:0.1"
         id="path1620" />
      <path
         d="m 2335.15,1521.35 c -2.67,0 -5.31,0.39 -7.94,0.78 -2.62,0.39 -5.24,0.78 -7.86,0.78 -0.48,0 -0.96,-0.01 -1.43,-0.04 2.9,6.46 7.56,13.27 11.3,20.06 3.01,3.67 4.77,7.87 8.27,11.45 12.81,13.09 27.89,16.2 45.26,16.2 0.11,0 0.23,0 0.34,0 0.02,0 0.03,0 0.04,0 3.4,0 6.68,1.05 9.88,2.09 3.21,1.05 6.35,2.09 9.47,2.09 0.12,0 0.24,0 0.36,0 6.14,-0.16 11.12,-5.58 17.89,-5.76 0.13,0 0.25,0 0.38,0 6.46,0 15.99,4.27 17.93,10.99 2.06,7.11 -3.39,11.4 -9.96,11.5 -0.01,0 -0.01,0 -0.02,0 -0.79,0 -4,-0.48 -7.96,-0.96 -3.96,-0.48 -8.67,-0.95 -12.45,-0.95 -5.79,0 -9.42,1.11 -4.9,5.06 4.66,4.05 16.45,6.62 26.62,6.62 5.93,0 11.31,-0.87 14.39,-2.84 3.88,-2.47 5.66,-7.65 10.88,-7.99 0.22,-0.01 0.45,-0.02 0.67,-0.02 7.77,0 13.52,8.95 13.95,15.71 0.44,6.98 0.77,11.25 7.65,15.16 7.41,4.2 17.89,5.37 26.21,6.66 23.73,3.7 41.83,21.08 64.39,27.83 12.73,3.8 23.28,10.43 34.05,18.22 8.79,6.35 14.71,15.28 22.9,22.18 0.36,0.31 1.06,0.8 1.96,1.38 1.09,-1.88 2.16,-3.74 3.21,-5.58 -0.73,-0.48 -1.38,-0.92 -1.88,-1.31 -3.57,-2.78 -7.34,-5.59 -10.61,-8.76 -11.87,-11.48 -24.72,-22.65 -39.41,-30.83 -16.36,-9.13 -33.54,-15.3 -51.1,-21.55 -9.17,-3.26 -17.95,-8.02 -26.93,-11.9 -6.36,-2.76 -13.45,-5.54 -18.42,-10.46 -4.55,-4.5 -2.09,-7.71 -3.78,-12.94 -1.53,-4.73 -7.67,-8.14 -12.44,-9.13 -0.91,-0.2 -1.78,-0.27 -2.63,-0.27 -1.52,0 -2.96,0.24 -4.4,0.48 -1.43,0.24 -2.87,0.48 -4.4,0.48 -0.36,0 -0.72,-0.01 -1.09,-0.04 -6.3,-0.51 -5.29,-2.48 -5.87,-7.32 -0.58,-4.81 -5.7,-7.22 -10.49,-10.58 -4.75,-3.33 -9.83,-5.75 -15.53,-6.66 -3.92,-0.63 -7.84,-0.84 -11.76,-0.84 -7.74,0 -15.5,0.81 -23.37,0.83 -0.05,0 -0.09,0 -0.13,0 -9.23,0 -17.84,-2.5 -26.02,-6.91 -5.89,-3.17 -23.66,-13.32 -23.95,-20.8 -0.23,-6.17 6.47,-2.96 9.97,-4.81 6.83,-3.6 -1.96,-5.68 -5.89,-6.67 -1.8,-0.46 -3.59,-0.63 -5.35,-0.63"
         style="fill:#e6867b;fill-opacity:1;fill-rule:nonzero;stroke:none;stroke-width:0.1"
         id="path1622" />
      <path
         d="m 2238.21,1453.69 -10.36,13.17 c 0.97,0.71 1.82,1.22 2.52,1.4 5.01,1.31 10.71,-0.45 15.56,2.08 7.48,3.9 13.93,13.29 19.47,19.38 4.05,4.44 4.96,5.66 9.71,5.66 0.68,0 1.44,-0.03 2.29,-0.07 1.12,-0.06 2.25,-0.1 3.37,-0.1 4.81,0 9.5,0.76 13.24,4.26 4.57,4.29 3.12,8.3 5.45,12.98 1.85,3.72 8.2,7.25 11.92,8.88 2.2,0.97 4.37,1.41 6.54,1.54 -0.9,-1.99 -1.62,-3.94 -2.11,-5.86 -2.63,-10.41 7.71,-39.11 -0.05,-39.93 -9.18,-0.97 -57.26,-5.11 -77.55,-23.39 m -18.63,23.67 -2.26,2.87 c 1.96,1.77 3.81,3.51 5.5,5.18 -1.25,-2.56 -2.26,-5.21 -3.05,-7.47 -0.07,-0.19 -0.13,-0.38 -0.19,-0.58"
         style="fill:#b44b49;fill-opacity:1;fill-rule:nonzero;stroke:none;stroke-width:0.1"
         id="path1624" />
      <path
         d="m 2330.31,1627.75 c 0.02,0.1 0.05,0.2 0.08,0.3 6.47,8.57 12.63,17.11 22.2,22.56 0.03,-0.02 0.04,-0.07 0.05,-0.16 -9.64,-5.46 -15.82,-14.08 -22.33,-22.7"
         style="fill:#d7c1c1;fill-opacity:1;fill-rule:nonzero;stroke:none;stroke-width:0.1"
         id="path1626" />
      <path
         d="m 2245.55,1490.17 c -2.35,0 -4.62,0.71 -6.85,2.41 -2.43,1.85 -3.88,3.29 -5.66,3.29 -0.5,0 -1.02,-0.11 -1.6,-0.36 8.23,14.1 9.57,30.3 15.26,45.22 2.49,6.5 5.24,12.12 8.36,17.07 5.33,1.6 10.75,2.61 16.21,2.85 20.52,0.9 36.76,12.02 52.9,24.02 3.55,2.63 7.24,5 10.99,7.28 -0.62,-9.18 0.13,-23.81 -0.01,-31.56 -0.1,-5.64 -2.67,-11.54 -5.93,-17.46 -1.09,-1.33 -2.34,-2.59 -3.91,-3.73 -6.34,-4.63 -12.34,-5.09 -19.16,-7.27 -6.9,-2.2 -10.6,-7.9 -18.18,-8.39 -5.37,-0.34 -8.71,0.32 -13.18,-3.11 -9.84,-7.55 -11.45,-23.89 -22.47,-28.64 -2.34,-1 -4.59,-1.62 -6.77,-1.62 m 27.04,86.76 c 3.36,2.58 7.03,5.01 11.04,7.36 17.42,10.24 37.48,14.11 45.3,38.75 0.5,1.57 0.95,3.15 1.38,4.71 6.51,8.62 12.69,17.24 22.33,22.7 0.13,-1.7 -4.17,-16.67 -11.18,-37.04 -9.35,-9.32 -18.07,-19.46 -29.3,-27.17 -12.15,-8.36 -25.84,-8.44 -39.57,-9.31"
         style="fill:#b44b49;fill-opacity:1;fill-rule:nonzero;stroke:none;stroke-width:0.1"
         id="path1628" />
      <path
         d="m 2255.06,1557.8 c 4.82,7.66 10.53,13.75 17.53,19.13 13.73,0.87 27.42,0.95 39.57,9.31 11.23,7.71 19.95,17.85 29.3,27.17 -1.62,-4.7 -3.38,-9.69 -5.26,-14.87 -0.52,-1.43 -0.85,-3.75 -1.04,-6.59 -3.75,-2.28 -7.44,-4.65 -10.99,-7.28 -16.14,-12 -32.38,-23.12 -52.9,-24.02 -5.46,-0.24 -10.88,-1.25 -16.21,-2.85"
         style="fill:#c66d65;fill-opacity:1;fill-rule:nonzero;stroke:none;stroke-width:0.1"
         id="path1630" />
      <path
         d="m 2227.85,1466.86 -8.27,10.5 c 0.06,0.2 0.12,0.39 0.19,0.58 0.79,2.26 1.8,4.91 3.05,7.47 3.95,3.89 7.04,7.39 8.59,10.04 0.01,0.02 0.02,0.04 0.03,0.06 0.58,0.25 1.1,0.36 1.6,0.36 1.78,0 3.23,-1.44 5.66,-3.29 2.23,-1.7 4.5,-2.41 6.85,-2.41 2.18,0 4.43,0.62 6.77,1.62 11.02,4.75 12.63,21.09 22.47,28.64 4.47,3.43 7.81,2.77 13.18,3.11 7.58,0.49 11.28,6.19 18.18,8.39 6.82,2.18 12.82,2.64 19.16,7.27 1.57,1.14 2.82,2.4 3.91,3.73 -3.74,-6.79 -8.4,-13.6 -11.3,-20.06 -2.17,-0.13 -4.34,-0.57 -6.54,-1.54 -3.72,-1.63 -10.07,-5.16 -11.92,-8.88 -2.33,-4.68 -0.88,-8.69 -5.45,-12.98 -3.74,-3.5 -8.43,-4.26 -13.24,-4.26 -1.12,0 -2.25,0.04 -3.37,0.1 -0.85,0.04 -1.61,0.07 -2.29,0.07 -4.75,0 -5.66,-1.22 -9.71,-5.66 -5.54,-6.09 -11.99,-15.48 -19.47,-19.38 -4.85,-2.53 -10.55,-0.77 -15.56,-2.08 -0.7,-0.18 -1.55,-0.69 -2.52,-1.4"
         style="fill:#c66d65;fill-opacity:1;fill-rule:nonzero;stroke:none;stroke-width:0.1"
         id="path1632" />
      <path
         d="m 2395.26,1886.94 c -21.19,-15.95 -44.84,-24.48 -60.89,-49.21 -7.96,-12.26 -8.37,-25.78 -12.9,-39.75 -6.23,-19.23 -20.8,-29.7 -36.77,-35.57 -24.93,-9.16 -47.03,-21.48 -51.37,-55.26 -4.4,-34.28 -14.87,-59.22 -45.54,-68.8 -17.48,-5.45 -37.89,-11.81 -44.77,-34.39 -2.69,-8.83 -15.84,-55.27 -37.62,-71.73 l 72.27,-83.49 c 0.95,-0.06 46.07,33.6 53.74,46.71 8.25,14.12 9.59,30.34 15.29,45.28 8.17,21.39 19.19,33.14 36.93,43.56 17.42,10.24 37.48,14.11 45.3,38.75 6.34,19.98 5.52,38.94 19.03,56.18 12.46,15.89 29.74,17.32 44.33,28.48 16.89,12.91 21.54,36.36 28.19,57.36 6.67,21.06 33.35,51.11 48.27,64.67 -27.73,15.29 -51.49,42.33 -73.49,57.21"
         style="fill:#db5f56;fill-opacity:1;fill-rule:nonzero;stroke:none;stroke-width:0.1"
         id="path1634" />
      <path
         d="m 2409.77,1875.58 c -8.86,-4.61 -15.91,-14.25 -24.45,-19.49 -11.73,-7.2 -24.73,-8.65 -32.37,-20.78 -7.24,-11.49 -8.53,-25.21 -11.12,-38.29 -2.65,-13.41 -9.59,-20.41 -20.91,-27.57 -6.58,-4.17 -14.71,-7.53 -20.26,-13.07 -3.98,-3.97 -5.04,-9.46 -7.84,-14.22 -9.67,-16.45 -28.93,-21.69 -42.34,-33.86 -10.43,-9.47 -10.31,-17.9 -11.47,-30.97 -1.01,-11.47 -6.54,-22.99 -14.77,-30.82 -6.36,-6.04 -25.17,-16.53 -24.36,-26.47 3.89,0.47 8.41,4.57 11.86,6.14 -9.22,-29.81 -50.68,-30.13 -67.88,-52.83 -7.15,-9.43 -9.28,-21.56 -14.6,-31.89 -1.88,-3.65 -8.3,-17.62 -12.92,-22.64 l 14.84,-17.13 c 0.48,1.25 0.91,2.42 1.32,3.43 4.32,10.93 9.95,24.01 20.77,29.81 8.24,4.41 17.58,5.11 25.08,11.3 6.19,5.11 11.67,11.2 17.8,16.36 3.8,3.2 8.17,6.68 10.98,10.91 2.62,3.93 4.33,8.78 -2.64,7.82 -4.48,-0.61 -8.14,-5.2 -11.47,-7.73 -3.24,-2.46 -19.82,-19.5 -19.91,-7.45 -0.08,9.29 16.72,18.09 22.38,23.4 5.25,4.94 10.15,8.84 16.43,12.26 3.71,2.02 7.87,4.11 10.75,7.17 6.33,6.73 8.91,16.21 11.63,24.59 3.1,9.58 11.2,13.04 15.78,21.42 2.84,5.2 1.21,8.31 0.9,13.6 -0.39,6.59 3.04,11.3 7.05,16.3 10.9,13.59 26.74,21.75 37.41,34.91 7.39,9.13 13.82,18.22 24.03,24.17 11.62,6.76 18.48,16.45 24.45,28.74 6.6,13.57 14.72,27.12 17.36,42.23 1.81,10.33 10.47,14.75 18.82,20.76 9.49,6.84 18.63,14.23 27.71,21.56 3.19,2.57 8.26,6.33 11.3,10.3 -3.16,2.75 -6.27,5.45 -9.34,8.03"
         style="fill:#ffb7a4;fill-opacity:1;fill-rule:nonzero;stroke:none;stroke-width:0.1"
         id="path1636" />
      <path
         d="m 2413.52,1829.66 c -9.17,-6.24 -19.05,-7.38 -24.17,-18.8 -4.95,-11.03 -2.07,-22.28 -10.7,-32.02 -6.29,-7.09 -15.98,-13.29 -20.37,-21.94 -2.16,-4.25 -1.81,-8.79 -3.27,-13.09 -1.34,-3.94 -4.06,-7.71 -6.68,-10.95 -2.33,-2.88 -21.07,-21.64 -19.86,-13.18 1.12,7.79 17.72,11.5 17.67,19.46 -0.08,11.23 -17.3,-11.13 -19.35,-13.46 -6.3,-7.18 -12.74,-13.26 -20.41,-18.96 -3.67,-2.73 -8.85,-6.28 -8.86,-11.37 0,-4.98 5.34,-8.03 5.25,-13.07 -0.07,-4.36 -2.44,-9.65 -4.74,-13.18 -5.13,-7.88 -11.05,-17.07 -17.09,-24.06 -3.55,-4.1 -7.31,-3.36 -10.92,-2.62 -3.72,0.76 -7.27,1.52 -10.27,-2.99 -2.16,-3.26 -2.16,-7.84 -3.91,-11.62 -2.3,-4.96 -5.98,-8.67 -9.54,-12.67 -7.14,-8.03 -12.18,-14.49 -14.23,-24.84 -2.4,-12.2 -0.72,-23.1 -6.66,-34.86 -8.79,-17.42 -24.81,-27.39 -42.98,-32.55 -13.03,-3.7 -24.16,-10.88 -29.04,-24.17 -2.18,-5.93 -2.07,-12.84 -1.86,-19.5 l 10.02,-11.58 c 0.05,5.44 -0.94,11.05 2.03,16.07 8.8,14.83 27.72,24.05 41.93,32.91 11.77,7.35 19.19,19.71 27.35,30.59 4.82,6.43 8.15,13.99 9.75,21.66 2.34,11.15 5.53,21.64 13.52,30.6 5.93,6.66 16.67,11.08 18.38,19.98 0.75,3.87 0.18,9.34 3.25,12.41 3.01,3.01 8.43,2.99 11.82,6.03 6.77,6.06 11.95,13.94 17.89,20.73 8.01,9.18 5.4,14.78 3.52,25.12 -1.31,7.22 1.98,17.21 8.61,21.31 7.29,4.5 17.18,1.87 24.96,6.78 9.78,6.17 11.38,19.04 15.82,28.87 1.82,4.03 3.7,8.5 7.15,11.37 3.36,2.79 7.07,2.95 9.97,6.4 5.93,7.08 9.13,18.98 10.95,27.7 1.52,7.33 3.59,18.37 7.85,24.57 4.34,6.32 12.89,10.13 19.35,13.98 2.46,1.46 7.83,4.21 6.78,7.97 -1.55,5.55 -6.45,-1.37 -8.91,-3.03"
         style="fill:#ffb7a4;fill-opacity:1;fill-rule:nonzero;stroke:none;stroke-width:0.1"
         id="path1638" />
      <path
         d="m 2340.44,1697.32 c -7.06,0 -15.3,3.53 -22.55,6.48 0.54,0.46 1.11,0.88 1.71,1.25 7.29,4.5 17.18,1.87 24.96,6.78 2.36,1.49 4.25,3.38 5.82,5.52 2.1,0.05 4.2,0.09 6.3,0.09 4.49,0 8.98,-0.18 13.47,-0.78 13.96,-1.86 6.28,-9.65 -2.07,-13.73 -7.57,-3.7 -19.19,-5.59 -27.59,-5.61 -0.01,0 -0.03,0 -0.05,0 m -32.66,10.45 c -5.65,2.35 -11.18,4.97 -16.93,6.93 1.61,1.62 3.15,3.31 4.59,5.09 2.61,3.22 5.1,6.44 7.67,9.51 2.87,-0.33 5.97,-0.49 9.5,-0.71 -1.45,-4.33 -4.29,-6.18 0.57,-8.92 1.5,-0.85 3.79,-1.39 6.31,-1.74 -3.67,-3.6 -7.51,-6.94 -11.71,-10.16 m -47.19,11.45 c -3.02,0 -6.01,0.27 -8.55,1.74 -8.64,4.98 -2.64,18.7 5.57,18.7 0.06,0 0.13,0 0.19,0 l 4.18,2.61 c 2.02,0.35 3.98,0.53 5.9,0.53 6.36,0 12.17,-1.99 17.62,-6.31 0.67,-0.53 1.32,-1.02 1.97,-1.47 -6.04,-6.51 -13.78,-11.04 -21.42,-15.71 -0.05,0 -0.1,0 -0.15,0 -0.86,0 -1.74,-0.02 -2.63,-0.05 -0.89,-0.02 -1.78,-0.04 -2.68,-0.04"
         style="fill:#e27166;fill-opacity:1;fill-rule:nonzero;stroke:none;stroke-width:0.1"
         id="path1640" />
      <path
         d="m 2290.85,1714.7 c -2.47,0.84 -4.98,1.56 -7.57,2.09 -5.23,1.07 -10.32,2.21 -15.67,2.48 -0.51,0.03 -1.03,0.04 -1.56,0.04 7.64,4.67 15.38,9.2 21.42,15.71 5.31,-3.73 10.02,-5.06 15.64,-5.72 -2.57,-3.07 -5.06,-6.29 -7.67,-9.51 -1.44,-1.78 -2.98,-3.47 -4.59,-5.09"
         style="fill:#ffb7a4;fill-opacity:1;fill-rule:nonzero;stroke:none;stroke-width:0.1"
         id="path1642" />
      <path
         d="m 2317.89,1703.8 c -1.77,0.72 -3.48,1.41 -5.1,2 -1.69,0.62 -3.35,1.29 -5.01,1.97 4.2,3.22 8.04,6.56 11.71,10.16 4.36,-0.59 9.45,-0.63 12.5,-0.75 1.83,-0.07 3.65,-0.1 5.47,-0.1 3.22,0 6.43,0.09 9.63,0.18 1.1,0.03 2.19,0.06 3.29,0.09 -1.57,-2.14 -3.46,-4.03 -5.82,-5.52 -7.78,-4.91 -17.67,-2.28 -24.96,-6.78 -0.6,-0.37 -1.17,-0.79 -1.71,-1.25"
         style="fill:#ffb7a4;fill-opacity:1;fill-rule:nonzero;stroke:none;stroke-width:0.1"
         id="path1644" />
      <path
         d="m 2421.55,1802.06 c -1.86,0 -3.82,1.04 -5.8,2.42 -4.96,3.46 -9.57,7.57 -14.23,11.61 3.82,2.99 8.44,5.36 12.49,7.67 3.47,-1.92 6.66,-4.05 9.07,-6.77 3.09,-3.47 6.2,-6.84 3.4,-11.49 -1.49,-2.49 -3.16,-3.44 -4.93,-3.44 m -24.78,18.07 c -1.36,1.13 -2.73,2.22 -4.13,3.28 -4.56,3.44 -9.14,6.52 -14.63,8.36 -0.82,0.28 -1.68,0.5 -2.55,0.69 1.53,1.06 3.09,2.12 4.64,3.23 3.13,2.26 6.22,4.57 9.28,6.92 2.75,-8 10.95,-11.94 19.06,-15.97 -4.11,-2.17 -8.16,-3.89 -11.67,-6.51 m -41.01,18.94 c -5.02,7.9 6.32,22.11 13.89,24.45 l 4.18,2.62 c 2.05,1.14 4.16,1.83 6.2,1.83 2.55,0 4.98,-1.09 6.99,-3.78 1.3,-1.73 1.82,-3.6 1.97,-5.54 -1.2,-0.93 -2.42,-1.79 -3.67,-2.56 -10.39,-6.38 -21.78,-8.24 -29.56,-17.02"
         style="fill:#e27166;fill-opacity:1;fill-rule:nonzero;stroke:none;stroke-width:0.1"
         id="path1646" />
      <path
         d="m 2375.46,1832.46 c -5.26,1.15 -11.21,1.03 -15.89,3.35 -1.75,0.87 -2.99,1.98 -3.81,3.26 7.78,8.78 19.17,10.64 29.56,17.02 1.25,0.77 2.47,1.63 3.67,2.56 0.28,-3.63 -0.77,-7.53 -0.53,-11.3 0.11,-1.73 0.43,-3.3 0.92,-4.74 -3.06,-2.35 -6.15,-4.66 -9.28,-6.92 -1.55,-1.11 -3.11,-2.17 -4.64,-3.23"
         style="fill:#ffb7a4;fill-opacity:1;fill-rule:nonzero;stroke:none;stroke-width:0.1"
         id="path1648" />
      <path
         d="m 2401.52,1816.09 c -1.57,1.37 -3.15,2.72 -4.75,4.04 3.51,2.62 7.56,4.34 11.67,6.51 1.88,-0.93 3.76,-1.88 5.57,-2.88 -4.05,-2.31 -8.67,-4.68 -12.49,-7.67"
         style="fill:#ffb7a4;fill-opacity:1;fill-rule:nonzero;stroke:none;stroke-width:0.1"
         id="path1650" />
      <path
         d="m 2244.03,1575.02 c 1.52,5.93 3.52,11.62 6.62,16.92 9.73,-3.18 12.89,-10.59 2.56,-14.94 -2.98,-1.26 -6.05,-1.87 -9.18,-1.98 m -13.55,2.07 c -11.4,3.48 -22.91,10.49 -32.96,14.32 4.52,4.07 8.94,7.41 14.4,10.39 1.02,0.55 2.06,1.11 3.11,1.69 4.75,-1.93 5.87,-4.01 8.77,-7.56 1.93,-2.36 5.15,-3.09 8.81,-3.25 -0.19,-0.77 -0.37,-1.56 -0.54,-2.38 -0.89,-4.55 -1.22,-8.92 -1.59,-13.21 m -67.35,16.67 c -2.67,0 -5.3,0.37 -7.78,1.52 -9.9,4.57 0.54,21.56 0.54,21.56 1.79,1.63 4.05,2.25 6.41,2.25 5.19,0 10.82,-3.03 12.81,-4.98 7.11,-7 12.85,-6.8 22,-7.58 -6.12,-4.54 -13.36,-8.05 -20.67,-11.51 -0.58,-0.04 -1.17,-0.08 -1.75,-0.13 -3.76,-0.35 -7.71,-1.13 -11.56,-1.13"
         style="fill:#e27166;fill-opacity:1;fill-rule:nonzero;stroke:none;stroke-width:0.1"
         id="path1652" />
      <path
         d="m 2197.52,1591.41 c -0.69,0.27 -1.37,0.51 -2.05,0.74 -5.57,1.91 -10.83,2.94 -16.41,2.94 -0.87,0 -1.74,-0.02 -2.62,-0.07 7.31,3.46 14.55,6.97 20.67,11.51 0.53,-0.04 1.08,-0.09 1.63,-0.15 5.13,-0.49 10.21,-0.68 15.17,-2.47 0.39,-0.14 0.77,-0.28 1.12,-0.42 -1.05,-0.58 -2.09,-1.14 -3.11,-1.69 -5.46,-2.98 -9.88,-6.32 -14.4,-10.39"
         style="fill:#ffb7a4;fill-opacity:1;fill-rule:nonzero;stroke:none;stroke-width:0.1"
         id="path1654" />
      <path
         d="m 2242.92,1575 c -4.08,0 -8.25,0.81 -12.44,2.09 0.37,4.29 0.7,8.66 1.59,13.21 0.17,0.82 0.35,1.61 0.54,2.38 0.6,-0.03 1.2,-0.04 1.82,-0.04 1.47,0 2.98,0.06 4.49,0.12 1.52,0.06 3.04,0.13 4.51,0.13 2.36,0 4.61,-0.16 6.53,-0.73 0.24,-0.07 0.47,-0.14 0.69,-0.22 -3.1,-5.3 -5.1,-10.99 -6.62,-16.92 -0.37,-0.01 -0.73,-0.02 -1.11,-0.02"
         style="fill:#ffb7a4;fill-opacity:1;fill-rule:nonzero;stroke:none;stroke-width:0.1"
         id="path1656" />
    </g>
  </g>
</svg>
