<svg width="1226" height="418" viewBox="0 0 1226 418" fill="none" xmlns="http://www.w3.org/2000/svg">
<g clip-path="url(#clip0_141_874)">
<path d="M1225.49 193.227C1225.49 299.933 951.151 417.053 612.743 417.053C274.333 417.053 0 299.933 0 193.227C0 86.5067 274.333 30.6133 612.743 30.6133C951.151 30.6133 1225.49 86.5067 1225.49 193.227" fill="#D3CFBC"/>
<path d="M1225.49 193.227C1225.49 299.933 951.151 386.44 612.743 386.44C274.333 386.44 0 299.933 0 193.227C0 86.5067 274.333 0 612.743 0C951.151 0 1225.49 86.5067 1225.49 193.227" fill="#E8E3CD"/>
<path d="M156.08 295.307C153.317 295.307 150.46 294.88 147.865 294.293C112.389 286.227 79.4587 267.307 54.624 240.72C45.204 230.64 36.7907 219.227 32.5973 206.08C29.2627 195.627 27.4774 177.333 34.6627 167.773C37.7294 163.68 41.128 161.4 44.048 161.4C47.3867 161.4 50.096 164.387 50.9547 171.133C54.0347 195.32 69.208 216.693 88.0947 232.107C106.985 247.533 129.481 257.787 151.852 267.493C156.684 269.6 161.681 271.787 165.215 275.693C168.747 279.6 170.389 285.747 167.601 290.213C165.205 294.053 160.78 295.307 156.08 295.307" fill="#F7F5EE"/>
<path d="M229.209 328.64C226.129 328.64 223.121 327.627 220.196 326.627C213.599 324.373 207 322.12 200.403 319.867C196.18 318.427 191.572 316.667 189.48 312.72C187.521 309.027 189.923 303.267 193.82 303.267C194.09 303.267 194.365 303.293 194.647 303.347L193.545 301.107C194.193 301.092 194.843 301.08 195.491 301.08C207.424 301.08 219.348 304.214 229.737 310.08C234.792 312.947 240.107 318.347 237.889 323.707C236.625 326.774 233.172 328.467 229.864 328.627C229.645 328.627 229.427 328.642 229.209 328.642" fill="#F7F5EE"/>
<path d="M1130.23 276.707C1129.67 276.707 1129.13 276.627 1128.62 276.4C1126.23 275.28 1126.49 271.774 1127.55 269.36C1132.13 258.893 1143.58 253.52 1151.55 245.333C1162.91 233.693 1166.79 216.827 1169.3 200.747C1170.13 195.4 1170.98 189.747 1174.35 185.494C1176.91 182.254 1180.71 180.84 1184.65 180.84C1192.21 180.84 1200.29 186.08 1201.1 193.707C1201.73 199.507 1199.33 205.16 1196.73 210.373C1187.42 229.04 1174.79 246.04 1159.62 260.347C1151.67 267.84 1142.51 274.854 1131.72 276.56C1131.23 276.64 1130.72 276.707 1130.23 276.707" fill="#F7F5EE"/>
</g>
<defs>
<clipPath id="clip0_141_874">
<rect width="1225.49" height="417.053" fill="white"/>
</clipPath>
</defs>
</svg>
