<svg width="695" height="390" viewBox="0 0 695 390" fill="none" xmlns="http://www.w3.org/2000/svg">
<g clip-path="url(#clip0_141_845)">
<path d="M3.19913 266.412C3.19913 266.412 35.0631 388.026 350.136 389.972C663.323 391.892 693.336 262.559 693.336 262.559C693.336 262.559 696.47 211.879 693.95 190.852C686.39 127.786 635.043 1.46559 345.31 0.0122615C78.1444 -1.33441 15.6565 111.066 2.39379 179.759C-3.42754 209.932 3.19913 266.412 3.19913 266.412" fill="#FFA944"/>
<path d="M563.19 80.8786C562.816 82.5986 570.11 88.4918 573.123 89.2652C577.243 90.3318 587.776 88.1053 587.35 85.4253C586.923 82.7587 581.31 77.6518 577.19 76.5985C573.47 75.6385 564.07 76.7186 563.19 80.8786" fill="#EAE8A9"/>
<path d="M246.776 373.746C226.07 373.746 133.887 349.599 107.808 335.759C80.3016 321.172 43.0149 301.266 40.2936 287.719C35.5696 264.212 34.5629 233.066 40.7842 214.492C40.9802 214.586 41.1762 214.679 41.3736 214.772C70.3896 228.252 104.532 215.559 133.684 230.172C163.656 245.199 183.71 274.266 214.323 290.066C229.803 298.039 245.536 302.879 261.403 304.812C268.723 330.545 268.923 369.239 249.51 373.519C248.83 373.666 247.91 373.746 246.776 373.746Z" fill="#FFB94C"/>
<path d="M691.923 187.505C682.95 123.425 628.417 1.43863 343.723 0.0119589C85.3392 -1.29471 19.7325 104.532 3.61646 173.599C5.47379 177.865 5.96446 180.959 7.61646 183.399C16.6498 196.759 26.7778 207.985 41.3738 214.772C70.3898 228.252 104.532 215.559 133.684 230.172C163.656 245.199 183.71 274.265 214.323 290.065C255.216 311.159 297.976 310.239 339.963 291.985C379.31 274.892 414.523 273.972 456.203 282.279C491.843 289.385 541.363 292.399 572.616 266.839C583.843 257.665 585.337 242.159 595.083 231.625C605.51 220.345 621.577 214.825 636.243 210.852C659.843 204.452 679.27 201.359 691.923 187.505" fill="#F68D32"/>
<path d="M158.48 160.905C159.792 162.039 168.243 158.132 170.31 155.759C173.15 152.505 176.136 141.865 173.643 141.012C171.15 140.145 164.15 142.892 161.31 146.159C158.755 149.092 155.314 158.159 158.48 160.905Z" fill="#EAE8A9"/>
<path d="M115.135 108.559C116.447 109.705 124.9 105.799 126.967 103.425C129.799 100.159 132.799 89.5185 130.299 88.6652C127.8 87.8119 120.802 90.5585 117.97 93.8119C115.411 96.7585 111.971 105.825 115.135 108.559" fill="#EAE8A9"/>
<path d="M282.937 60.292C282.79 62.052 290.723 66.9587 293.803 67.3454C298.016 67.8787 308.216 64.3321 307.47 61.7321C306.723 59.1321 300.536 54.7854 296.323 54.2521C292.51 53.7721 283.323 56.052 282.937 60.292" fill="#EAE8A9"/>
<path d="M210.79 43.3054C209.496 44.4654 212.016 53.652 214.003 56.1053C216.723 59.4653 226.496 64.0787 227.683 61.6521C228.883 59.2387 227.27 51.7054 224.55 48.3454C222.096 45.3054 213.883 40.4787 210.79 43.3054" fill="#EAE8A9"/>
<path d="M286.217 13.7855C285.59 12.1322 276.35 11.3989 273.43 12.4655C269.43 13.9322 261.843 21.7855 263.643 23.7722C265.443 25.7588 272.857 26.7989 276.857 25.3322C280.483 24.0122 287.723 17.7589 286.217 13.7855" fill="#EAE8A9"/>
<path d="M251.483 113.252C250.71 114.825 256.363 122.385 259.097 123.905C262.83 125.985 273.576 126.519 273.803 123.825C274.03 121.119 269.817 114.745 266.083 112.665C262.71 110.785 253.35 109.439 251.483 113.252" fill="#EAE8A9"/>
<path d="M156.47 38.4652C156.734 40.2119 165.603 42.9852 168.67 42.5985C172.883 42.0518 181.936 36.0653 180.603 33.7186C179.27 31.3853 172.23 28.7185 168.016 29.2652C164.216 29.7585 155.834 34.2652 156.47 38.4652Z" fill="#EAE8A9"/>
<path d="M425.616 27.7323C426.55 26.2523 421.723 18.1189 419.176 16.3056C415.683 13.8256 405.056 12.0923 404.536 14.759C404.03 17.4123 407.55 24.2123 411.043 26.6923C414.203 28.9456 423.376 31.319 425.616 27.7323" fill="#EAE8A9"/>
<path d="M333.043 25.212C332.083 26.6787 336.79 34.9054 339.31 36.7587C342.763 39.292 353.363 41.1987 353.91 38.5453C354.47 35.892 351.057 29.0386 347.59 26.4919C344.47 24.1986 335.337 21.6787 333.043 25.212Z" fill="#EAE8A9"/>
<path d="M530.39 169.545C531.91 168.732 531.643 159.199 530.296 156.319C528.456 152.385 520.056 145.465 518.323 147.519C516.603 149.572 516.39 157.279 518.23 161.212C519.896 164.772 526.723 171.505 530.39 169.545Z" fill="#EAE8A9"/>
<path d="M350.19 96.5588C351.51 97.6921 359.963 93.7855 362.03 91.4121C364.856 88.1455 367.856 77.5054 365.363 76.6521C362.856 75.7987 355.856 78.5454 353.03 81.7987C350.47 84.7454 347.03 93.8121 350.19 96.5588Z" fill="#EAE8A9"/>
<path d="M318.536 179.599C319.843 180.732 328.296 176.825 330.363 174.452C333.203 171.199 336.19 160.559 333.696 159.705C331.203 158.839 324.203 161.585 321.363 164.852C318.803 167.785 315.363 176.852 318.536 179.599Z" fill="#EAE8A9"/>
<path d="M450.656 85.8654C451.59 84.3721 446.736 76.252 444.176 74.452C440.67 71.9853 430.043 70.292 429.536 72.9587C429.03 75.6253 432.576 82.4121 436.083 84.8788C439.256 87.1054 448.43 89.4521 450.656 85.8654" fill="#EAE8A9"/>
<path d="M447.43 141.439C446.923 139.745 437.763 138.319 434.776 139.172C430.683 140.332 422.563 147.599 424.217 149.719C425.87 151.826 433.19 153.426 437.283 152.252C440.99 151.212 448.643 145.505 447.43 141.439" fill="#EAE8A9"/>
<path d="M523.15 45.5319C523.843 43.9186 517.857 36.6518 515.057 35.2652C511.23 33.3718 500.47 33.372 500.363 36.092C500.257 38.7986 504.777 44.9452 508.603 46.8386C512.057 48.5452 521.47 49.4253 523.15 45.5319" fill="#EAE8A9"/>
<path d="M240.523 237.105C240.19 237.105 239.856 237.106 239.51 237.092C225.923 236.786 211.63 227.706 199.47 221.026C181.443 211.106 166.63 198.599 147.168 190.759C136.515 186.452 125.886 181.466 114.706 178.746C105.176 176.426 96.0683 175.839 86.971 171.666C72.3216 164.946 59.2576 159.946 65.2989 141.852V134.986C68.0629 130.052 71.1857 124.852 75.095 120.186C92.7803 99.0789 118.486 89.0922 142.818 79.8522C165.576 71.2122 189.123 60.8522 212.523 53.3322C213.003 54.5055 213.523 55.5055 214.003 56.1055C216.19 58.8121 222.963 62.3322 226.136 62.3322C226.896 62.3322 227.456 62.1188 227.683 61.6522C228.75 59.4788 227.563 53.1989 225.35 49.5055C229.03 48.5055 232.696 47.5988 236.363 46.7988C250.55 43.6922 265.896 38.7855 281.11 38.7855C282.31 38.7855 283.51 38.8256 284.696 38.8922C299.656 39.6922 314.55 43.4256 328.696 48.5322C345.27 54.5322 392.376 74.9856 371.883 99.5723C361.23 112.359 342.35 119.372 328.696 128.759C316.15 137.399 303.95 149.199 295.35 161.586C278.27 186.199 278.99 237.105 240.523 237.105M172.496 140.852C169.443 140.852 163.79 143.306 161.31 146.159C158.755 149.092 155.314 158.159 158.48 160.906C158.64 161.039 158.91 161.105 159.26 161.105C161.776 161.105 168.496 157.839 170.31 155.759C173.15 152.506 176.136 141.866 173.643 141.012C173.323 140.906 172.936 140.852 172.496 140.852M257.63 110.812C254.856 110.812 252.35 111.466 251.483 113.252C250.71 114.826 256.363 122.386 259.096 123.906C261.043 124.999 264.923 125.666 268.216 125.666C271.203 125.666 273.696 125.106 273.803 123.826C274.03 121.119 269.816 114.746 266.083 112.666C264.283 111.666 260.79 110.812 257.63 110.812M129.16 88.5055C126.106 88.5055 120.446 90.9588 117.97 93.8122C115.411 96.7588 111.971 105.826 115.135 108.559C115.296 108.706 115.564 108.772 115.915 108.772C118.423 108.772 125.154 105.506 126.967 103.426C129.799 100.159 132.799 89.5189 130.299 88.6655C129.984 88.5589 129.599 88.5055 129.16 88.5055M364.216 76.4922C361.163 76.4922 355.496 78.9588 353.03 81.7988C350.47 84.7455 347.03 93.8122 350.19 96.5589C350.35 96.6922 350.616 96.7589 350.976 96.7589C353.483 96.7589 360.216 93.4923 362.03 91.4123C364.856 88.1456 367.856 77.5055 365.363 76.6522C365.043 76.5455 364.656 76.4922 364.216 76.4922M295.203 54.1989C290.963 54.1989 283.283 56.4255 282.936 60.2922C282.79 62.0522 290.723 66.9589 293.803 67.3455C294.096 67.3855 294.403 67.3989 294.75 67.3989C299.363 67.3989 308.163 64.1589 307.47 61.7323C306.723 59.1323 300.536 54.7856 296.323 54.2523C295.99 54.2123 295.603 54.1989 295.203 54.1989" fill="#F89738"/>
<path d="M159.26 161.105C158.91 161.105 158.64 161.039 158.48 160.906C155.314 158.159 158.755 149.092 161.31 146.159C163.79 143.306 169.443 140.852 172.496 140.852C172.936 140.852 173.323 140.906 173.643 141.012C176.136 141.866 173.15 152.506 170.31 155.759C168.496 157.839 161.776 161.105 159.26 161.105" fill="#EEE097"/>
<path d="M115.915 108.772C115.564 108.772 115.296 108.705 115.135 108.559C111.971 105.825 115.411 96.7587 117.97 93.812C120.446 90.9587 126.106 88.5054 129.16 88.5054C129.599 88.5054 129.984 88.5587 130.299 88.6653C132.799 89.5187 129.799 100.159 126.967 103.425C125.154 105.505 118.423 108.772 115.915 108.772" fill="#EEE097"/>
<path d="M294.75 67.3987C294.403 67.3987 294.096 67.3853 293.803 67.3453C290.723 66.9586 282.79 62.0519 282.937 60.2919C283.283 56.4252 290.963 54.1986 295.203 54.1986C295.603 54.1986 295.99 54.212 296.323 54.252C300.536 54.7854 306.723 59.132 307.47 61.732C308.163 64.1587 299.363 67.3987 294.75 67.3987" fill="#EEE097"/>
<path d="M226.136 62.332C222.963 62.332 216.19 58.812 214.003 56.1053C213.523 55.5053 213.003 54.5053 212.523 53.332C216.803 51.9453 221.083 50.6654 225.35 49.5054C227.563 53.1987 228.75 59.4787 227.683 61.652C227.456 62.1187 226.896 62.332 226.136 62.332Z" fill="#EEE097"/>
<path d="M268.217 125.665C264.923 125.665 261.043 124.999 259.097 123.905C256.363 122.385 250.71 114.825 251.483 113.252C252.35 111.465 254.856 110.812 257.63 110.812C260.79 110.812 264.283 111.665 266.083 112.665C269.817 114.745 274.03 121.119 273.803 123.825C273.696 125.105 271.203 125.665 268.217 125.665" fill="#EEE097"/>
<path d="M350.976 96.7588C350.616 96.7588 350.35 96.6921 350.19 96.5587C347.03 93.8121 350.47 84.7453 353.03 81.7987C355.496 78.9587 361.163 76.492 364.216 76.492C364.656 76.492 365.043 76.5453 365.363 76.652C367.856 77.5053 364.856 88.1454 362.03 91.4121C360.216 93.4921 353.483 96.7588 350.976 96.7588" fill="#EEE097"/>
</g>
<defs>
<clipPath id="clip0_141_845">
<rect width="694.93" height="389.993" fill="white"/>
</clipPath>
</defs>
</svg>
