<svg width="718" height="434" viewBox="0 0 718 434" fill="none" xmlns="http://www.w3.org/2000/svg">
<g clip-path="url(#clip0_141_782)">
<path d="M36.5697 122.662C15.2431 140.622 -8.32891 256.235 2.8951 283.169C14.1204 310.115 47.8098 430.635 350.864 433.582C697.704 436.955 717.904 288.782 717.904 266.342C717.904 243.889 694.331 141.742 668.518 123.782C643.451 106.342 157.415 20.8886 36.5697 122.662" fill="#FFA944"/>
<path d="M333.184 0.315205C110.826 6.1152 30.1152 78.8886 25.6245 168.675C21.1352 258.475 113.178 321.342 366.851 319.089C616.064 316.889 668.798 239.395 676.651 191.129C692.144 95.9552 591.344 -6.41813 333.184 0.315205" fill="#FFEAB7"/>
<path d="M59.5883 187.315C69.9776 187.315 80.8669 187.582 90.8936 183.742C96.4909 181.608 94.1003 170.768 88.4683 172.928C79.203 176.462 69.1883 176.088 59.5883 176.088C53.7056 176.088 53.7056 187.315 59.5883 187.315" fill="#FFD38D"/>
<path d="M132.81 161.862C140.095 160.075 147.37 158.795 154.888 158.688C162.12 158.595 162.13 147.368 154.888 147.462C146.403 147.582 138.05 149.022 129.826 151.035C122.798 152.755 125.779 163.582 132.81 161.862Z" fill="#FFD38D"/>
<path d="M84.5403 140.729C89.475 140.729 94.4083 140.729 99.3416 140.729C103.824 140.729 107.564 138.182 107.564 135.115C107.564 132.062 103.824 129.515 99.3416 129.515C94.4083 129.515 89.475 129.515 84.5403 129.515C80.0589 129.515 76.3176 132.062 76.3176 135.115C76.3176 138.182 80.0589 140.729 84.5403 140.729Z" fill="#FFD38D"/>
<path d="M190.238 109.862C200.918 109.862 211.478 109.622 222.038 107.982C229.171 106.875 226.131 96.0619 219.051 97.1552C209.518 98.6352 199.865 98.6352 190.238 98.6485C183.011 98.6485 183.011 109.875 190.238 109.862Z" fill="#FFD38D"/>
<path d="M127.95 93.0353C132.523 93.0219 136.703 92.5285 140.885 90.5818C143.658 89.2885 144.334 85.3551 142.898 82.9018C141.246 80.0885 137.993 79.5951 135.219 80.8885C132.927 81.9551 130.455 81.8086 127.95 81.8086C124.891 81.8086 122.338 84.3552 122.338 87.4218C122.338 90.4752 124.891 93.0353 127.95 93.0353" fill="#FFD38D"/>
<path d="M204.864 56.9151C207.224 55.8217 210.958 55.9952 213.811 55.9952C221.051 55.9818 221.051 44.7684 213.811 44.7684C208.758 44.7684 203.851 45.0884 199.198 47.2217C196.411 48.4884 195.758 52.4617 197.184 54.9017C198.838 57.7284 202.078 58.1817 204.864 56.9151" fill="#FFD38D"/>
<path d="M333.344 87.9818C342.331 87.9818 351.304 87.9818 360.291 87.9818C367.531 87.9818 367.531 76.7551 360.291 76.7551C351.304 76.7551 342.331 76.7551 333.344 76.7551C326.118 76.7551 326.118 87.9818 333.344 87.9818Z" fill="#FFD38D"/>
<path d="M264.318 145.222C272.198 145.222 279.944 144.808 287.704 143.342C294.811 141.995 291.784 131.182 284.718 132.515C277.958 133.795 271.184 133.995 264.318 133.995C257.078 133.995 257.078 145.222 264.318 145.222Z" fill="#FFD38D"/>
<path d="M273.891 72.0618C276.891 70.6618 282.558 69.8218 286.398 70.9418C293.371 72.9685 296.318 62.1418 289.384 60.1151C282.584 58.1418 274.558 59.4219 268.224 62.3686C261.664 65.4219 267.371 75.0884 273.891 72.0618" fill="#FFD38D"/>
<path d="M308.091 35.7952C313.145 35.7952 318.198 35.7952 323.251 35.7952C330.491 35.7952 330.491 24.5684 323.251 24.5684C318.198 24.5684 313.145 24.5684 308.091 24.5684C300.865 24.5684 300.865 35.7952 308.091 35.7952Z" fill="#FFD38D"/>
<path d="M432.878 70.9417C444.278 74.3951 456.345 73.0218 468.038 74.5151C475.211 75.4218 475.118 64.1818 468.038 63.2884C457.358 61.9284 446.265 63.2617 435.865 60.1151C428.918 58.0217 425.971 68.8617 432.878 70.9417" fill="#FFD38D"/>
<path d="M409.117 140.169C414.157 140.169 419.211 140.169 424.264 140.169C431.504 140.169 431.504 128.942 424.264 128.942C419.211 128.942 414.157 128.942 409.117 128.942C401.878 128.942 401.878 140.169 409.117 140.169Z" fill="#FFD38D"/>
<path d="M318.198 215.942C324.371 215.942 330.544 215.942 336.718 215.942C343.958 215.942 343.958 204.715 336.718 204.715C330.544 204.715 324.371 204.715 318.198 204.715C310.958 204.715 310.958 215.942 318.198 215.942Z" fill="#FFD38D"/>
<path d="M151.52 224.355C153.766 224.355 156.011 224.355 158.255 224.355C161.315 224.355 163.867 221.795 163.867 218.742C163.867 215.688 161.315 213.128 158.255 213.128C156.011 213.128 153.766 213.128 151.52 213.128C148.46 213.128 145.908 215.688 145.908 218.742C145.908 221.795 148.46 224.355 151.52 224.355Z" fill="#FFD38D"/>
<path d="M213.811 202.462C221.051 202.462 221.051 191.248 213.811 191.248C206.571 191.248 206.571 202.462 213.811 202.462Z" fill="#FFD38D"/>
<path d="M260.958 286.648C266.011 286.648 271.051 286.648 276.104 286.648C283.344 286.648 283.344 275.422 276.104 275.422C271.051 275.422 266.011 275.422 260.958 275.422C253.718 275.422 253.718 286.648 260.958 286.648Z" fill="#FFD38D"/>
<path d="M456.251 276.542C464.145 276.435 471.931 274.969 479.824 274.862C487.051 274.769 487.064 263.542 479.824 263.635C471.931 263.742 464.145 265.209 456.251 265.315C449.025 265.422 449.011 276.649 456.251 276.542Z" fill="#FFD38D"/>
<path d="M419.211 204.155C424.265 204.155 429.318 204.155 434.371 204.155C441.611 204.155 441.611 192.928 434.371 192.928C429.318 192.928 424.265 192.928 419.211 192.928C411.971 192.928 411.971 204.155 419.211 204.155Z" fill="#FFD38D"/>
<path d="M567.184 225.835C579.478 224.182 591.918 224.128 604.224 222.475C611.371 221.502 608.304 210.689 601.238 211.649C588.944 213.302 576.504 213.355 564.198 215.009C557.051 215.969 560.104 226.795 567.184 225.835Z" fill="#FFD38D"/>
<path d="M494.784 170.275C500.971 168.728 507.091 167.235 513.491 167.115C520.731 166.982 520.744 155.755 513.491 155.888C506.104 156.022 498.944 157.675 491.798 159.448C484.784 161.208 487.758 172.035 494.784 170.275Z" fill="#FFD38D"/>
<path d="M595.998 151.955C600.478 151.955 604.971 151.955 609.464 151.955C616.704 151.955 616.704 140.728 609.464 140.728C604.971 140.728 600.478 140.728 595.998 140.728C588.758 140.728 588.758 151.955 595.998 151.955Z" fill="#FFD38D"/>
<path d="M523.211 101.875C531.398 99.8352 539.571 99.4218 547.718 100.475C553.371 101.222 554.971 90.1152 549.305 89.3685C540.438 88.2085 531.345 88.6085 522.425 90.8218C516.745 92.2352 517.505 103.289 523.211 101.875Z" fill="#FFD38D"/>
<path d="M414.158 32.4219C419.211 32.4219 424.131 32.1019 428.784 29.9686C431.558 28.7019 432.224 24.7286 430.798 22.2886C429.131 19.4619 425.904 19.0086 423.118 20.2752C420.758 21.3686 417.024 21.1953 414.158 21.1953C406.931 21.1953 406.931 32.4219 414.158 32.4219" fill="#FFD38D"/>
<path d="M538.758 61.0486C542.678 61.0486 546.611 61.0486 550.531 61.0486C557.771 61.0486 557.771 49.8219 550.531 49.8219C546.611 49.8219 542.678 49.8219 538.758 49.8219C531.518 49.8219 531.518 61.0486 538.758 61.0486Z" fill="#FFD38D"/>
<path d="M284.358 169.809C284.331 170.382 283.998 170.902 283.358 171.395C283.664 171.155 282.584 171.609 283.238 171.462C282.318 171.675 282.904 171.502 283.184 171.489C283.384 171.489 283.584 171.489 283.798 171.489C285.318 171.489 286.598 170.209 286.598 168.675C286.598 167.155 285.318 165.875 283.798 165.875C282.718 165.875 281.704 165.969 280.718 166.435C279.424 167.062 278.811 168.435 278.744 169.809C278.664 171.329 280.064 172.609 281.544 172.609C283.131 172.609 284.278 171.329 284.358 169.809" fill="#EAC083"/>
<path d="M354.504 152.408C356.371 152.408 358.251 152.408 360.118 152.408C363.744 152.408 363.744 146.795 360.118 146.795C358.251 146.795 356.371 146.795 354.504 146.795C350.891 146.795 350.891 152.408 354.504 152.408Z" fill="#EAC083"/>
<path d="M316.078 113.422C315.718 113.755 316.491 113.275 316.091 113.408C316.344 113.328 316.904 113.209 317.011 113.195C317.904 113.102 318.811 113.115 319.704 113.115C323.331 113.115 323.331 107.502 319.704 107.502C317.011 107.515 314.238 107.568 312.118 109.448C310.971 110.475 311.078 112.382 312.118 113.422C313.238 114.542 314.944 114.435 316.078 113.422Z" fill="#EAC083"/>
<path d="M448.798 101.888C450.291 101.888 451.784 101.888 453.278 101.888C454.811 101.888 456.091 100.622 456.091 99.0885C456.091 97.5551 454.811 96.2885 453.278 96.2885C451.784 96.2885 450.291 96.2885 448.798 96.2885C447.264 96.2885 445.984 97.5551 445.984 99.0885C445.984 100.622 447.264 101.888 448.798 101.888Z" fill="#EAC083"/>
<path d="M401.651 51.3818C403.518 51.3818 405.398 51.3818 407.264 51.3818C410.878 51.3818 410.878 45.7684 407.264 45.7684C405.398 45.7684 403.518 45.7684 401.651 45.7684C398.024 45.7684 398.024 51.3818 401.651 51.3818Z" fill="#EAC083"/>
<path d="M479.104 52.5018C479.478 52.5018 479.851 52.5018 480.224 52.5018C481.758 52.5018 483.024 51.2352 483.024 49.7019C483.024 48.1685 481.758 46.8884 480.224 46.8884C479.851 46.8884 479.478 46.8884 479.104 46.8884C477.571 46.8884 476.291 48.1685 476.291 49.7019C476.291 51.2352 477.571 52.5018 479.104 52.5018Z" fill="#EAC083"/>
<path d="M188.384 73.8352C189.878 73.8352 191.371 73.8352 192.878 73.8352C194.398 73.8352 195.678 72.5552 195.678 71.0219C195.678 69.5019 194.398 68.2218 192.878 68.2218C191.371 68.2218 189.878 68.2218 188.384 68.2218C186.851 68.2218 185.571 69.5019 185.571 71.0219C185.571 72.5552 186.851 73.8352 188.384 73.8352Z" fill="#EAC083"/>
<path d="M248.171 43.1418C249.838 42.3684 251.691 42.4084 253.491 42.4084C257.104 42.395 257.104 36.7951 253.491 36.7951C250.611 36.7951 247.971 37.0751 245.331 38.3018C243.944 38.9418 243.611 40.9151 244.331 42.1418C245.158 43.5418 246.784 43.7951 248.171 43.1418" fill="#EAC083"/>
<path d="M149.095 46.8884C152.284 46.8884 155.431 46.7286 158.37 45.3819C159.76 44.7552 160.091 42.7684 159.376 41.5551C158.547 40.1284 156.928 39.9019 155.538 40.5419C153.599 41.4352 151.172 41.2751 149.095 41.2751C145.476 41.2885 145.476 46.9017 149.095 46.8884Z" fill="#EAC083"/>
<path d="M75.3069 100.395C76.9749 99.6084 78.8283 99.6484 80.6256 99.6484C84.2443 99.6484 84.2443 94.0352 80.6256 94.0352C77.7523 94.0352 75.1056 94.3152 72.475 95.5418C71.0883 96.1818 70.7496 98.1552 71.4683 99.3818C72.2936 100.795 73.9202 101.035 75.3069 100.395" fill="#EAC083"/>
<path d="M126.647 107.502C127.559 107.462 128.416 107.248 129.278 106.968C129.675 106.835 130.07 106.702 130.47 106.582C130.688 106.502 130.911 106.448 131.134 106.395C131.819 106.222 130.531 106.409 131.136 106.382C132.664 106.315 133.943 105.155 133.943 103.582C133.943 102.102 132.666 100.702 131.136 100.768C130.224 100.808 129.367 101.035 128.506 101.315C128.108 101.449 127.712 101.582 127.315 101.702C127.095 101.769 126.872 101.835 126.648 101.888C125.964 102.062 127.252 101.862 126.647 101.888C125.119 101.968 123.84 103.115 123.84 104.702C123.84 106.182 125.118 107.582 126.647 107.502Z" fill="#EAC083"/>
<path d="M55.931 146.795C58.483 146.795 60.6497 146.408 62.9603 145.288C64.3363 144.622 64.6937 142.688 63.967 141.448C63.1497 140.048 61.5043 139.782 60.127 140.448C58.5457 141.208 57.7124 141.182 55.931 141.182C52.3124 141.182 52.3124 146.795 55.931 146.795" fill="#EAC083"/>
<path d="M398.278 187.208C400.158 187.208 402.024 187.208 403.891 187.208C407.518 187.208 407.518 181.595 403.891 181.595C402.024 181.595 400.158 181.595 398.278 181.595C394.664 181.595 394.664 187.208 398.278 187.208Z" fill="#EAC083"/>
<path d="M496.318 189.342C499.504 190.369 502.704 190.569 506.038 190.569C509.664 190.569 509.664 184.955 506.038 184.955C503.171 184.955 500.558 184.809 497.811 183.929C494.344 182.835 492.878 188.249 496.318 189.342" fill="#EAC083"/>
<path d="M515.024 131.075C517.718 131.075 520.491 131.022 522.611 129.129C523.757 128.115 523.651 126.195 522.611 125.169C521.491 124.035 519.784 124.155 518.651 125.169C519.011 124.835 518.237 125.315 518.637 125.169C518.384 125.262 517.824 125.382 517.718 125.382C516.824 125.489 515.918 125.462 515.024 125.462C511.398 125.462 511.398 131.089 515.024 131.075Z" fill="#EAC083"/>
<path d="M598.824 135.462C601.904 134.515 604.984 134.449 608.184 134.449C611.798 134.449 611.798 128.835 608.184 128.835C604.518 128.835 600.864 128.969 597.331 130.062C593.891 131.129 595.358 136.542 598.824 135.462" fill="#EAC083"/>
<path d="M566.651 95.1552C568.518 95.1552 570.398 95.1552 572.264 95.1552C575.878 95.1552 575.878 89.5419 572.264 89.5419C570.398 89.5419 568.518 89.5419 566.651 89.5419C563.038 89.5419 563.038 95.1552 566.651 95.1552Z" fill="#EAC083"/>
<path d="M572.264 67.1018C572.651 67.1018 573.038 67.1018 573.438 67.1018C573.624 67.1151 574.878 67.2485 574.078 67.1151C574.264 67.1551 575.078 67.4485 574.344 67.1285L574.691 67.3152C575.264 67.6485 574.251 66.9017 574.771 67.3951C575.878 68.4484 577.638 68.5017 578.744 67.3951C579.798 66.3417 579.851 64.4884 578.744 63.4351C576.904 61.6751 574.691 61.4885 572.264 61.4885C570.731 61.4885 569.464 62.7685 569.464 64.2885C569.464 65.8218 570.731 67.1018 572.264 67.1018" fill="#EAC083"/>
<path d="M631.758 122.102C634.744 122.102 637.744 122.102 640.731 122.102C644.358 122.102 644.358 116.489 640.731 116.489C637.744 116.489 634.744 116.489 631.758 116.489C628.131 116.489 628.131 122.102 631.758 122.102Z" fill="#EAC083"/>
<path d="M615.211 86.9152C617.464 85.9019 620.371 86.182 622.771 86.182C626.398 86.182 626.398 80.5685 622.771 80.5685C619.224 80.5685 615.664 80.5819 612.384 82.0752C610.984 82.7019 610.664 84.7019 611.371 85.9152C612.211 87.3285 613.824 87.5552 615.211 86.9152" fill="#EAC083"/>
<path d="M53.6872 214.142C55.5578 214.142 57.4285 214.142 59.2991 214.142C62.9178 214.142 62.9178 208.528 59.2991 208.528C57.4285 208.528 55.5578 208.528 53.6872 208.528C50.0672 208.528 50.0672 214.142 53.6872 214.142Z" fill="#EAC083"/>
<path d="M134.504 180.462C137.204 180.462 139.98 180.408 142.1 178.528C143.243 177.502 143.135 175.595 142.1 174.555C140.972 173.422 139.272 173.542 138.132 174.555C138.5 174.222 137.73 174.702 138.118 174.555C137.871 174.648 137.311 174.768 137.199 174.782C136.307 174.875 135.4 174.848 134.504 174.848C130.884 174.862 130.884 180.475 134.504 180.462" fill="#EAC083"/>
<path d="M195.118 131.075C197.731 131.075 200.358 131.075 202.971 131.075C206.598 131.075 206.598 125.462 202.971 125.462C200.358 125.462 197.731 125.462 195.118 125.462C191.504 125.462 191.504 131.075 195.118 131.075Z" fill="#EAC083"/>
<path d="M243.384 76.0751C244.131 76.0751 244.878 76.0751 245.624 76.0751C247.158 76.0751 248.438 74.7951 248.438 73.2751C248.438 71.7418 247.158 70.4618 245.624 70.4618C244.878 70.4618 244.131 70.4618 243.384 70.4618C241.851 70.4618 240.571 71.7418 240.571 73.2751C240.571 74.7951 241.851 76.0751 243.384 76.0751Z" fill="#EAC083"/>
<path d="M278.184 17.7152C281.371 17.7152 284.518 17.5552 287.451 16.2085C288.838 15.5685 289.171 13.5819 288.464 12.3685C287.624 10.9552 286.011 10.7152 284.624 11.3552C282.678 12.2485 280.251 12.1018 278.184 12.1018C274.558 12.1018 274.558 17.7152 278.184 17.7152" fill="#EAC083"/>
<path d="M367.971 15.4618C369.478 15.4618 370.971 15.4618 372.464 15.4618C373.998 15.4618 375.278 14.1952 375.278 12.6618C375.278 11.1285 373.998 9.84851 372.464 9.84851C370.971 9.84851 369.478 9.84851 367.971 9.84851C366.451 9.84851 365.171 11.1285 365.171 12.6618C365.171 14.1952 366.451 15.4618 367.971 15.4618Z" fill="#EAC083"/>
<path d="M199.611 262.409C201.104 262.409 202.598 262.409 204.091 262.409C205.624 262.409 206.905 261.129 206.905 259.595C206.905 258.075 205.624 256.795 204.091 256.795C202.598 256.795 201.104 256.795 199.611 256.795C198.078 256.795 196.798 258.075 196.798 259.595C196.798 261.129 198.078 262.409 199.611 262.409Z" fill="#EAC083"/>
<path d="M397.158 281.489C397.531 281.489 397.904 281.489 398.278 281.489C399.811 281.489 401.091 280.208 401.091 278.688C401.091 277.155 399.811 275.875 398.278 275.875C397.904 275.875 397.531 275.875 397.158 275.875C395.625 275.875 394.358 277.155 394.358 278.688C394.358 280.208 395.625 281.489 397.158 281.489Z" fill="#EAC083"/>
<path d="M508.585 223.862C510.251 223.088 512.105 223.128 513.891 223.128C517.518 223.115 517.518 217.502 513.891 217.515C511.025 217.515 508.371 217.795 505.745 219.008C504.358 219.662 504.025 221.635 504.745 222.848C505.571 224.262 507.185 224.502 508.585 223.862" fill="#EAC083"/>
<path d="M547.571 261.288C547.944 261.288 548.318 261.288 548.691 261.288C550.224 261.288 551.504 260.008 551.504 258.475C551.504 256.955 550.224 255.675 548.691 255.675C548.318 255.675 547.944 255.675 547.571 255.675C546.038 255.675 544.758 256.955 544.758 258.475C544.758 260.008 546.038 261.288 547.571 261.288Z" fill="#EAC083"/>
<path d="M636.544 175.595C638.691 174.595 641.104 174.355 643.278 173.355C644.664 172.702 644.998 170.742 644.278 169.515C643.451 168.102 641.824 167.862 640.438 168.502C638.291 169.502 635.878 169.742 633.704 170.755C632.318 171.395 631.984 173.355 632.704 174.582C633.531 175.995 635.158 176.235 636.544 175.595" fill="#EAC083"/>
<path d="M236.838 375.982C217.158 367.769 197.624 358.875 178.278 350.275C147.946 336.782 116.038 328.649 85.731 314.915C63.9416 305.022 46.2257 296.369 32.6523 281.049C33.2417 268.649 37.8857 259.035 50.319 259.035C58.1763 259.035 80.0643 291.315 132.82 306.182C151.376 311.409 181.318 317.155 200.171 319.089C214.344 320.542 229.318 322.182 237.491 335.902C243.064 345.262 241.531 362.329 236.838 375.982Z" fill="#FFB94C"/>
<path d="M717.905 266.342C717.905 258.275 714.864 239.969 709.784 218.955C708.291 219.862 706.918 221.049 705.784 222.595C701.411 228.489 702.918 240.969 701.918 248.382C700.451 259.169 696.878 264.529 690.131 273.382C678.358 288.822 669.438 305.369 653.051 317.182C635.998 329.475 615.785 344.422 595.358 350.769C568.438 359.142 540.331 363.742 512.745 369.355C486.985 374.595 464.398 387.475 438.691 393.449C383.505 406.302 316.331 406.382 262.438 386.155C234.091 375.529 205.985 362.595 178.278 350.275C147.946 336.782 116.038 328.649 85.7311 314.915C54.7831 300.875 32.0512 289.302 17.7365 257.609C14.6578 250.795 13.1325 241.755 5.98047 237.435C4.58047 236.582 3.11649 236.022 1.64982 235.729C-0.722177 256.595 -0.723533 274.489 2.8938 283.169C14.1191 310.115 47.8072 430.635 350.851 433.582C697.705 436.955 717.905 288.782 717.905 266.342" fill="#F68D32"/>
<path d="M194.638 405.528C188.598 405.528 182.544 404.768 176.944 403.662C134.72 395.275 92.4964 385.275 60.2324 353.422C46.5964 339.969 38.0351 320.835 34.4164 302.635C32.9991 295.515 33.1257 289.195 34.1204 283.235C47.4697 297.435 64.6271 305.808 85.5431 315.288C115.848 329.035 147.756 337.168 178.091 350.662C197.424 359.262 216.971 368.142 236.651 376.355C234.424 382.795 231.504 388.488 228.304 392.235C219.704 402.288 207.171 405.528 194.638 405.528" fill="#F89738"/>
</g>
<defs>
<clipPath id="clip0_141_782">
<rect width="717.904" height="433.639" fill="white"/>
</clipPath>
</defs>
</svg>
