<?xml version="1.0" encoding="UTF-8" standalone="no"?>
<!-- Created with Inkscape (http://www.inkscape.org/) -->

<svg
   width="183.86696mm"
   height="103.18568mm"
   viewBox="0 0 183.86696 103.18568"
   version="1.1"
   id="svg8014"
   inkscape:version="1.1.1 (3bf5ae0d25, 2021-09-20)"
   xmlns:inkscape="http://www.inkscape.org/namespaces/inkscape"
   xmlns:sodipodi="http://sodipodi.sourceforge.net/DTD/sodipodi-0.dtd"
   xmlns="http://www.w3.org/2000/svg"
   xmlns:svg="http://www.w3.org/2000/svg">
  <sodipodi:namedview
     id="namedview8016"
     pagecolor="#505050"
     bordercolor="#ffffff"
     borderopacity="1"
     inkscape:pageshadow="0"
     inkscape:pageopacity="0"
     inkscape:pagecheckerboard="1"
     inkscape:document-units="mm"
     showgrid="false"
     fit-margin-top="0"
     fit-margin-left="0"
     fit-margin-right="0"
     fit-margin-bottom="0"
     inkscape:zoom="0.72337262"
     inkscape:cx="391.9142"
     inkscape:cy="336.61766"
     inkscape:window-width="1920"
     inkscape:window-height="1001"
     inkscape:window-x="-9"
     inkscape:window-y="-9"
     inkscape:window-maximized="1"
     inkscape:current-layer="layer1" />
  <defs
     id="defs8011" />
  <g
     inkscape:label="Layer 1"
     inkscape:groupmode="layer"
     id="layer1"
     transform="translate(-1.3362281,-59.599271)">
    <g
       id="g7974"
       transform="matrix(0.35277777,0,0,-0.35277777,-308.79341,723.00104)">
      <path
         d="m 881.507,1680.7 c 0,0 23.898,-91.21 260.203,-92.67 234.89,-1.44 257.4,95.56 257.4,95.56 0,0 2.35,38.01 0.46,53.78 -5.67,47.3 -44.18,142.04 -261.48,143.13 -200.374,1.01 -247.24,-83.29 -257.187,-134.81 -4.366,-22.63 0.604,-64.99 0.604,-64.99"
         style="fill:#ffa944;fill-opacity:1;fill-rule:nonzero;stroke:none;stroke-width:0.1"
         id="path3256" />
      <path
         d="m 1301.5,1819.85 c -0.28,-1.29 5.19,-5.71 7.45,-6.29 3.09,-0.8 10.99,0.87 10.67,2.88 -0.32,2 -4.53,5.83 -7.62,6.62 -2.79,0.72 -9.84,-0.09 -10.5,-3.21"
         style="fill:#eae8a9;fill-opacity:1;fill-rule:nonzero;stroke:none;stroke-width:0.1"
         id="path3258" />
      <path
         d="m 1064.19,1600.2 c -15.53,0 -84.667,18.11 -104.226,28.49 -20.63,10.94 -48.595,25.87 -50.636,36.03 -3.543,17.63 -4.298,40.99 0.368,54.92 0.147,-0.07 0.294,-0.14 0.442,-0.21 21.762,-10.11 47.369,-0.59 69.233,-11.55 22.479,-11.27 37.519,-33.07 60.479,-44.92 11.61,-5.98 23.41,-9.61 35.31,-11.06 5.49,-19.3 5.64,-48.32 -8.92,-51.53 -0.51,-0.11 -1.2,-0.17 -2.05,-0.17"
         style="fill:#ffb94c;fill-opacity:1;fill-rule:nonzero;stroke:none;stroke-width:0.1"
         id="path3260" />
      <path
         d="m 1398.05,1739.88 c -6.73,48.06 -47.63,139.55 -261.15,140.62 -193.788,0.98 -242.993,-78.39 -255.08,-130.19 1.393,-3.2 1.761,-5.52 3,-7.35 6.775,-10.02 14.371,-18.44 25.318,-23.53 21.762,-10.11 47.369,-0.59 69.233,-11.55 22.479,-11.27 37.519,-33.07 60.479,-44.92 30.67,-15.82 62.74,-15.13 94.23,-1.44 29.51,12.82 55.92,13.51 87.18,7.28 26.73,-5.33 63.87,-7.59 87.31,11.58 8.42,6.88 9.54,18.51 16.85,26.41 7.82,8.46 19.87,12.6 30.87,15.58 17.7,4.8 32.27,7.12 41.76,17.51"
         style="fill:#f68d32;fill-opacity:1;fill-rule:nonzero;stroke:none;stroke-width:0.1"
         id="path3262" />
      <path
         d="m 997.968,1759.83 c 0.984,-0.85 7.322,2.08 8.872,3.86 2.13,2.44 4.37,10.42 2.5,11.06 -1.87,0.65 -7.12,-1.41 -9.25,-3.86 -1.916,-2.2 -4.497,-9 -2.122,-11.06"
         style="fill:#eae8a9;fill-opacity:1;fill-rule:nonzero;stroke:none;stroke-width:0.1"
         id="path3264" />
      <path
         d="m 965.459,1799.09 c 0.984,-0.86 7.324,2.07 8.874,3.85 2.124,2.45 4.374,10.43 2.499,11.07 -1.874,0.64 -7.123,-1.42 -9.247,-3.86 -1.919,-2.21 -4.499,-9.01 -2.126,-11.06"
         style="fill:#eae8a9;fill-opacity:1;fill-rule:nonzero;stroke:none;stroke-width:0.1"
         id="path3266" />
      <path
         d="m 1091.31,1835.29 c -0.11,-1.32 5.84,-5 8.15,-5.29 3.16,-0.4 10.81,2.26 10.25,4.21 -0.56,1.95 -5.2,5.21 -8.36,5.61 -2.86,0.36 -9.75,-1.35 -10.04,-4.53"
         style="fill:#eae8a9;fill-opacity:1;fill-rule:nonzero;stroke:none;stroke-width:0.1"
         id="path3268" />
      <path
         d="m 1037.2,1848.03 c -0.97,-0.87 0.92,-7.76 2.41,-9.6 2.04,-2.52 9.37,-5.98 10.26,-4.16 0.9,1.81 -0.31,7.46 -2.35,9.98 -1.84,2.28 -8,5.9 -10.32,3.78"
         style="fill:#eae8a9;fill-opacity:1;fill-rule:nonzero;stroke:none;stroke-width:0.1"
         id="path3270" />
      <path
         d="m 1093.77,1870.17 c -0.47,1.24 -7.4,1.79 -9.59,0.99 -3,-1.1 -8.69,-6.99 -7.34,-8.48 1.35,-1.49 6.91,-2.27 9.91,-1.17 2.72,0.99 8.15,5.68 7.02,8.66"
         style="fill:#eae8a9;fill-opacity:1;fill-rule:nonzero;stroke:none;stroke-width:0.1"
         id="path3272" />
      <path
         d="m 1067.72,1795.57 c -0.58,-1.18 3.66,-6.85 5.71,-7.99 2.8,-1.56 10.86,-1.96 11.03,0.06 0.17,2.03 -2.99,6.81 -5.79,8.37 -2.53,1.41 -9.55,2.42 -10.95,-0.44"
         style="fill:#eae8a9;fill-opacity:1;fill-rule:nonzero;stroke:none;stroke-width:0.1"
         id="path3274" />
      <path
         d="m 996.46,1851.66 c 0.198,-1.31 6.85,-3.39 9.15,-3.1 3.16,0.41 9.95,4.9 8.95,6.66 -1,1.75 -6.28,3.75 -9.44,3.34 -2.85,-0.37 -9.137,-3.75 -8.66,-6.9"
         style="fill:#eae8a9;fill-opacity:1;fill-rule:nonzero;stroke:none;stroke-width:0.1"
         id="path3276" />
      <path
         d="m 1198.32,1859.71 c 0.7,1.11 -2.92,7.21 -4.83,8.57 -2.62,1.86 -10.59,3.16 -10.98,1.16 -0.38,-1.99 2.26,-7.09 4.88,-8.95 2.37,-1.69 9.25,-3.47 10.93,-0.78"
         style="fill:#eae8a9;fill-opacity:1;fill-rule:nonzero;stroke:none;stroke-width:0.1"
         id="path3278" />
      <path
         d="m 1128.89,1861.6 c -0.72,-1.1 2.81,-7.27 4.7,-8.66 2.59,-1.9 10.54,-3.33 10.95,-1.34 0.42,1.99 -2.14,7.13 -4.74,9.04 -2.34,1.72 -9.19,3.61 -10.91,0.96"
         style="fill:#eae8a9;fill-opacity:1;fill-rule:nonzero;stroke:none;stroke-width:0.1"
         id="path3280" />
      <path
         d="m 1276.9,1753.35 c 1.14,0.61 0.94,7.76 -0.07,9.92 -1.38,2.95 -7.68,8.14 -8.98,6.6 -1.29,-1.54 -1.45,-7.32 -0.07,-10.27 1.25,-2.67 6.37,-7.72 9.12,-6.25"
         style="fill:#eae8a9;fill-opacity:1;fill-rule:nonzero;stroke:none;stroke-width:0.1"
         id="path3282" />
      <path
         d="m 1141.75,1808.09 c 0.99,-0.85 7.33,2.08 8.88,3.86 2.12,2.45 4.37,10.43 2.5,11.07 -1.88,0.64 -7.13,-1.42 -9.25,-3.86 -1.92,-2.21 -4.5,-9.01 -2.13,-11.07"
         style="fill:#eae8a9;fill-opacity:1;fill-rule:nonzero;stroke:none;stroke-width:0.1"
         id="path3284" />
      <path
         d="m 1118.01,1745.81 c 0.98,-0.85 7.32,2.08 8.87,3.86 2.13,2.44 4.37,10.42 2.5,11.06 -1.87,0.65 -7.12,-1.41 -9.25,-3.86 -1.92,-2.2 -4.5,-9 -2.12,-11.06"
         style="fill:#eae8a9;fill-opacity:1;fill-rule:nonzero;stroke:none;stroke-width:0.1"
         id="path3286" />
      <path
         d="m 1217.1,1816.11 c 0.7,1.12 -2.94,7.21 -4.86,8.56 -2.63,1.85 -10.6,3.12 -10.98,1.12 -0.38,-2 2.28,-7.09 4.91,-8.94 2.38,-1.67 9.26,-3.43 10.93,-0.74"
         style="fill:#eae8a9;fill-opacity:1;fill-rule:nonzero;stroke:none;stroke-width:0.1"
         id="path3288" />
      <path
         d="m 1214.68,1774.43 c -0.38,1.27 -7.25,2.34 -9.49,1.7 -3.07,-0.87 -9.16,-6.32 -7.92,-7.91 1.24,-1.58 6.73,-2.78 9.8,-1.9 2.78,0.78 8.52,5.06 7.61,8.11"
         style="fill:#eae8a9;fill-opacity:1;fill-rule:nonzero;stroke:none;stroke-width:0.1"
         id="path3290" />
      <path
         d="m 1271.47,1846.36 c 0.52,1.21 -3.97,6.66 -6.07,7.7 -2.87,1.42 -10.94,1.42 -11.02,-0.62 -0.08,-2.03 3.31,-6.64 6.18,-8.06 2.59,-1.28 9.65,-1.94 10.91,0.98"
         style="fill:#eae8a9;fill-opacity:1;fill-rule:nonzero;stroke:none;stroke-width:0.1"
         id="path3292" />
      <path
         d="m 1059.5,1702.68 c -0.25,0 -0.5,0 -0.76,0.01 -10.19,0.23 -20.91,7.04 -30.03,12.05 -13.52,7.44 -24.63,16.82 -39.226,22.7 -7.99,3.23 -15.962,6.97 -24.347,9.01 -7.147,1.74 -13.978,2.18 -20.801,5.31 -10.987,5.04 -20.785,8.79 -16.254,22.36 v 5.15 c 2.073,3.7 4.415,7.6 7.347,11.1 13.264,15.83 32.543,23.32 50.792,30.25 17.069,6.48 34.729,14.25 52.279,19.89 0.36,-0.88 0.75,-1.63 1.11,-2.08 1.64,-2.03 6.72,-4.67 9.1,-4.67 0.57,0 0.99,0.16 1.16,0.51 0.8,1.63 -0.09,6.34 -1.75,9.11 2.76,0.75 5.51,1.43 8.26,2.03 10.64,2.33 22.15,6.01 33.56,6.01 0.9,0 1.8,-0.03 2.69,-0.08 11.22,-0.6 22.39,-3.4 33,-7.23 12.43,-4.5 47.76,-19.84 32.39,-38.28 -7.99,-9.59 -22.15,-14.85 -32.39,-21.89 -9.41,-6.48 -18.56,-15.33 -25.01,-24.62 -12.81,-18.46 -12.27,-56.64 -41.12,-56.64 m -51.02,72.19 c -2.29,0 -6.53,-1.84 -8.39,-3.98 -1.916,-2.2 -4.497,-9 -2.122,-11.06 0.12,-0.1 0.322,-0.15 0.585,-0.15 1.887,0 6.927,2.45 8.287,4.01 2.13,2.44 4.37,10.42 2.5,11.06 -0.24,0.08 -0.53,0.12 -0.86,0.12 m 63.85,22.53 c -2.08,0 -3.96,-0.49 -4.61,-1.83 -0.58,-1.18 3.66,-6.85 5.71,-7.99 1.46,-0.82 4.37,-1.32 6.84,-1.32 2.24,0 4.11,0.42 4.19,1.38 0.17,2.03 -2.99,6.81 -5.79,8.37 -1.35,0.75 -3.97,1.39 -6.34,1.39 m -96.352,16.73 c -2.291,0 -6.536,-1.84 -8.393,-3.98 -1.919,-2.21 -4.499,-9.01 -2.126,-11.06 0.121,-0.11 0.322,-0.16 0.585,-0.16 1.881,0 6.929,2.45 8.289,4.01 2.124,2.45 4.374,10.43 2.499,11.07 -0.236,0.08 -0.525,0.12 -0.854,0.12 m 176.292,9.01 c -2.29,0 -6.54,-1.85 -8.39,-3.98 -1.92,-2.21 -4.5,-9.01 -2.13,-11.07 0.12,-0.1 0.32,-0.15 0.59,-0.15 1.88,0 6.93,2.45 8.29,4.01 2.12,2.45 4.37,10.43 2.5,11.07 -0.24,0.08 -0.53,0.12 -0.86,0.12 m -51.76,16.72 c -3.18,0 -8.94,-1.67 -9.2,-4.57 -0.11,-1.32 5.84,-5 8.15,-5.29 0.22,-0.03 0.45,-0.04 0.71,-0.04 3.46,0 10.06,2.43 9.54,4.25 -0.56,1.95 -5.2,5.21 -8.36,5.61 -0.25,0.03 -0.54,0.04 -0.84,0.04"
         style="fill:#f89738;fill-opacity:1;fill-rule:nonzero;stroke:none;stroke-width:0.1"
         id="path3294" />
      <path
         d="m 998.553,1759.68 c -0.263,0 -0.465,0.05 -0.585,0.15 -2.375,2.06 0.206,8.86 2.122,11.06 1.86,2.14 6.1,3.98 8.39,3.98 0.33,0 0.62,-0.04 0.86,-0.12 1.87,-0.64 -0.37,-8.62 -2.5,-11.06 -1.36,-1.56 -6.4,-4.01 -8.287,-4.01"
         style="fill:#eee097;fill-opacity:1;fill-rule:nonzero;stroke:none;stroke-width:0.1"
         id="path3296" />
      <path
         d="m 966.044,1798.93 c -0.263,0 -0.464,0.05 -0.585,0.16 -2.373,2.05 0.207,8.85 2.126,11.06 1.857,2.14 6.102,3.98 8.393,3.98 0.329,0 0.618,-0.04 0.854,-0.12 1.875,-0.64 -0.375,-8.62 -2.499,-11.07 -1.36,-1.56 -6.408,-4.01 -8.289,-4.01"
         style="fill:#eee097;fill-opacity:1;fill-rule:nonzero;stroke:none;stroke-width:0.1"
         id="path3298" />
      <path
         d="m 1100.17,1829.96 c -0.26,0 -0.49,0.01 -0.71,0.04 -2.31,0.29 -8.26,3.97 -8.15,5.29 0.26,2.9 6.02,4.57 9.2,4.57 0.3,0 0.59,-0.01 0.84,-0.04 3.16,-0.4 7.8,-3.66 8.36,-5.61 0.52,-1.82 -6.08,-4.25 -9.54,-4.25"
         style="fill:#eee097;fill-opacity:1;fill-rule:nonzero;stroke:none;stroke-width:0.1"
         id="path3300" />
      <path
         d="m 1048.71,1833.76 c -2.38,0 -7.46,2.64 -9.1,4.67 -0.36,0.45 -0.75,1.2 -1.11,2.08 3.21,1.04 6.42,2 9.62,2.87 1.66,-2.77 2.55,-7.48 1.75,-9.11 -0.17,-0.35 -0.59,-0.51 -1.16,-0.51"
         style="fill:#eee097;fill-opacity:1;fill-rule:nonzero;stroke:none;stroke-width:0.1"
         id="path3302" />
      <path
         d="m 1080.27,1786.26 c -2.47,0 -5.38,0.5 -6.84,1.32 -2.05,1.14 -6.29,6.81 -5.71,7.99 0.65,1.34 2.53,1.83 4.61,1.83 2.37,0 4.99,-0.64 6.34,-1.39 2.8,-1.56 5.96,-6.34 5.79,-8.37 -0.08,-0.96 -1.95,-1.38 -4.19,-1.38"
         style="fill:#eee097;fill-opacity:1;fill-rule:nonzero;stroke:none;stroke-width:0.1"
         id="path3304" />
      <path
         d="m 1142.34,1807.94 c -0.27,0 -0.47,0.05 -0.59,0.15 -2.37,2.06 0.21,8.86 2.13,11.07 1.85,2.13 6.1,3.98 8.39,3.98 0.33,0 0.62,-0.04 0.86,-0.12 1.87,-0.64 -0.38,-8.62 -2.5,-11.07 -1.36,-1.56 -6.41,-4.01 -8.29,-4.01"
         style="fill:#eee097;fill-opacity:1;fill-rule:nonzero;stroke:none;stroke-width:0.1"
         id="path3306" />
    </g>
  </g>
</svg>
