<?xml version="1.0" encoding="UTF-8" standalone="no"?>
<!-- Created with Inkscape (http://www.inkscape.org/) -->

<svg
   width="184.70126mm"
   height="88.161377mm"
   viewBox="0 0 184.70126 88.161377"
   version="1.1"
   id="svg9698"
   inkscape:version="1.1.1 (3bf5ae0d25, 2021-09-20)"
   sodipodi:docname="burger-vegan.svg"
   xmlns:inkscape="http://www.inkscape.org/namespaces/inkscape"
   xmlns:sodipodi="http://sodipodi.sourceforge.net/DTD/sodipodi-0.dtd"
   xmlns="http://www.w3.org/2000/svg"
   xmlns:svg="http://www.w3.org/2000/svg">
  <sodipodi:namedview
     id="namedview9700"
     pagecolor="#505050"
     bordercolor="#ffffff"
     borderopacity="1"
     inkscape:pageshadow="0"
     inkscape:pageopacity="0"
     inkscape:pagecheckerboard="1"
     inkscape:document-units="mm"
     showgrid="false"
     inkscape:zoom="0.72337262"
     inkscape:cx="86.400837"
     inkscape:cy="96.077731"
     inkscape:window-width="1920"
     inkscape:window-height="1001"
     inkscape:window-x="-9"
     inkscape:window-y="-9"
     inkscape:window-maximized="1"
     inkscape:current-layer="layer1" />
  <defs
     id="defs9695" />
  <g
     inkscape:label="Layer 1"
     inkscape:groupmode="layer"
     id="layer1"
     transform="translate(-10.063163,-113.92916)">
    <path
       d="m 177.34876,129.95644 c -13.26092,-6.477 -138.098387,-8.33614 -153.417409,1.12536 -14.1929556,9.00994 -14.1929556,27.71069 -13.742106,34.91794 0.450498,7.21078 9.236428,37.39797 91.689765,36.04683 82.45475,-1.35466 88.80475,-25.89036 91.23891,-30.4165 3.15384,-5.85611 3.60539,-32.21213 -15.76916,-41.67363"
       style="fill:#2b5a16;fill-opacity:1;fill-rule:nonzero;stroke:none;stroke-width:0.0352778"
       id="path252" />
    <path
       d="m 94.445982,113.95796 c -54.517218,0.68792 -80.652406,18.02342 -80.652406,36.49839 0,17.145 31.539391,29.73564 78.398156,31.08678 46.859468,1.35114 92.590058,-11.2642 95.969668,-29.96142 3.28789,-18.18569 -22.07684,-38.52333 -93.715418,-37.62375"
       style="fill:#2b6316;fill-opacity:1;fill-rule:nonzero;stroke:none;stroke-width:0.0352778"
       id="path254" />
    <path
       d="m 16.947409,151.35594 c 0.225425,7.6588 7.885289,16.67227 27.935061,21.85458 40.098485,10.36108 91.12073,6.01486 89.66376,3.82764 -1.80269,-2.70228 -21.58647,5.83847 -81.778824,-5.40809 -9.803342,-1.83091 -18.0213,-5.03414 -23.203958,-9.23572 -5.655028,-4.58258 -7.830961,-10.1988 -7.884936,-12.84111 -0.225425,-11.03842 7.659864,-13.96647 4.731102,-15.31761 -1.649236,-0.762 -9.859785,3.59128 -9.462205,17.12031"
       style="fill:#2b6e16;fill-opacity:1;fill-rule:nonzero;stroke:none;stroke-width:0.0352778"
       id="path256" />
    <path
       d="m 57.425483,119.71882 c -2.081389,0.13053 -7.056261,5.4857 -15.775163,16.25953 -8.71855,10.77736 -16.814447,20.57047 -13.285611,21.74875 3.529189,1.17475 12.662958,-11.36297 18.267891,-19.00414 5.604933,-7.64116 17.022939,-19.39572 10.792883,-19.00414"
       style="fill:#2b5316;fill-opacity:1;fill-rule:nonzero;stroke:none;stroke-width:0.0352778"
       id="path258" />
    <path
       d="m 84.081372,117.99021 c -2.25425,0.18698 -13.250334,13.8677 -22.38375,25.28006 -9.13765,11.41236 -18.651361,23.24453 -14.787386,24.37694 3.863622,1.12889 14.420497,-13.57841 20.27308,-21.65702 5.852584,-8.07509 23.643167,-28.56795 16.898056,-27.99998"
       style="fill:#2b5316;fill-opacity:1;fill-rule:nonzero;stroke:none;stroke-width:0.0352778"
       id="path260" />
    <path
       d="m 113.59476,117.7856 c -2.24719,0.24695 -13.751278,17.15206 -22.362583,28.8925 -8.611305,11.74045 -19.991916,25.64695 -14.358055,25.64695 4.060472,0 14.481527,-14.84489 19.963694,-23.13164 5.478634,-8.28675 25.992664,-32.42381 16.756944,-31.40781"
       style="fill:#2b5316;fill-opacity:1;fill-rule:nonzero;stroke:none;stroke-width:0.0352778"
       id="path262" />
    <path
       d="m 144.30054,120.66427 c -2.25425,-0.19403 -13.95942,14.99658 -22.90234,26.53594 -8.93938,11.53584 -20.71511,25.17422 -15.08477,25.30475 4.06047,0.0952 14.90486,-14.50269 20.61986,-22.66244 5.715,-8.15622 23.88658,-28.62086 17.36725,-29.17825"
       style="fill:#2b5316;fill-opacity:1;fill-rule:nonzero;stroke:none;stroke-width:0.0352778"
       id="path264" />
    <path
       d="m 170.17326,128.55591 c -1.81328,-0.10936 -10.8832,12.13908 -17.81175,21.4383 -6.92856,9.29922 -16.08667,20.32 -11.56053,20.31647 3.2632,-0.004 11.65225,-11.76513 16.06197,-18.33033 4.41325,-6.56519 18.55964,-23.10694 13.31031,-23.42444"
       style="fill:#2b5316;fill-opacity:1;fill-rule:nonzero;stroke:none;stroke-width:0.0352778"
       id="path266" />
    <path
       d="m 29.622362,139.45321 c 0.595136,-0.28222 1.268588,-0.41627 1.893005,-0.62089 0.687211,-0.22577 0.392995,-1.31233 -0.299508,-1.08655 -0.721784,0.23636 -1.473553,0.40569 -2.162175,0.73378 -0.655814,0.31044 -0.08396,1.28058 0.568678,0.97366"
       style="fill:#2b5316;fill-opacity:1;fill-rule:nonzero;stroke:none;stroke-width:0.0352778"
       id="path268" />
    <path
       d="m 30.464442,134.5743 c 0.582083,0.0106 1.108781,0.24341 1.652411,0.43039 0.690034,0.23283 0.983545,-0.85373 0.299861,-1.08656 -0.648052,-0.22225 -1.258358,-0.45508 -1.952272,-0.47272 -0.726722,-0.0141 -0.725311,1.11125 0,1.12889"
       style="fill:#2b5316;fill-opacity:1;fill-rule:nonzero;stroke:none;stroke-width:0.0352778"
       id="path270" />
    <path
       d="m 35.473181,130.35155 c 0.523522,0.51152 1.138767,0.81491 1.825272,1.04775 0.690033,0.23283 0.983545,-0.85373 0.299508,-1.08656 -0.500238,-0.16933 -0.946855,-0.38453 -1.328561,-0.75494 -0.519994,-0.508 -1.317272,0.28575 -0.796219,0.79375"
       style="fill:#2b5316;fill-opacity:1;fill-rule:nonzero;stroke:none;stroke-width:0.0352778"
       id="path272" />
    <path
       d="m 35.646042,135.92544 c 0.713317,0 1.425928,-0.004 2.086328,-0.30339 0.279753,-0.127 0.345016,-0.52564 0.202141,-0.76906 -0.166863,-0.28575 -0.490713,-0.32808 -0.770466,-0.20461 -0.451909,0.20461 -1.036461,0.14817 -1.518003,0.14817 -0.726369,0.004 -0.726369,1.12889 0,1.12889"
       style="fill:#2b5316;fill-opacity:1;fill-rule:nonzero;stroke:none;stroke-width:0.0352778"
       id="path274" />
    <path
       d="m 41.427717,130.72196 c 0.784578,-0.27516 1.473553,-0.72319 2.162175,-1.1818 0.601133,-0.40217 0.03775,-1.37584 -0.568678,-0.97367 -0.600428,0.40217 -1.207911,0.82903 -1.893005,1.06892 -0.679803,0.24341 -0.386998,1.32997 0.299508,1.08655"
       style="fill:#2b5316;fill-opacity:1;fill-rule:nonzero;stroke:none;stroke-width:0.0352778"
       id="path276" />
    <path
       d="m 40.903136,125.54319 c 0.854428,0.28222 1.65982,0.42333 2.552348,0.22225 0.70873,-0.15523 0.408163,-1.24178 -0.299862,-1.08656 -0.68968,0.15522 -1.298575,-0.007 -1.95333,-0.22225 -0.691092,-0.23283 -0.984956,0.85725 -0.299156,1.08656"
       style="fill:#2b5316;fill-opacity:1;fill-rule:nonzero;stroke:none;stroke-width:0.0352778"
       id="path278" />
    <path
       d="m 48.036303,124.43546 c 0.214842,0 0.420158,-0.0212 0.616655,-0.11289 0.260703,-0.127 0.384528,-0.40216 0.397228,-0.67733 0.01446,-0.30692 -0.267053,-0.56092 -0.563033,-0.56092 -0.318206,0 -0.548922,0.25753 -0.563386,0.56092 0.0056,-0.11289 0.07055,-0.21872 0.200378,-0.3175 -0.06174,0.0459 0.154163,-0.0459 0.02364,-0.0141 0.18415,-0.0423 0.06632,-0.007 0.01023,-0.007 -0.04057,0.004 -0.08114,0.004 -0.121708,0.004 -0.306917,0 -0.563033,0.254 -0.563033,0.56092 0,0.30692 0.256116,0.56444 0.563033,0.56444"
       style="fill:#2b5316;fill-opacity:1;fill-rule:nonzero;stroke:none;stroke-width:0.0352778"
       id="path280" />
    <path
       d="m 25.846228,147.75055 c 0.01235,0.65616 0.389114,1.10066 0.95497,1.38994 0.273403,0.13758 0.608894,0.0741 0.770466,-0.20461 0.148167,-0.25047 0.07126,-0.63147 -0.202141,-0.76906 -0.07726,-0.0388 -0.153106,-0.0811 -0.227189,-0.127 -0.0187,-0.0106 -0.14217,-0.10583 -0.03422,-0.0176 -0.03316,-0.0282 -0.06244,-0.0564 -0.09208,-0.0882 -0.09454,-0.0952 0.06385,0.0988 -0.0081,-0.0141 -0.0194,-0.0282 -0.05927,-0.14464 -0.0099,-0.007 -0.01446,-0.0423 -0.02258,-0.0847 -0.03069,-0.12347 0.02822,0.14111 0.0056,-0.007 0.0053,-0.0388 -0.0056,-0.30692 -0.251884,-0.56092 -0.563034,-0.56092 -0.302683,0 -0.569383,0.254 -0.563386,0.56092"
       style="fill:#2b5316;fill-opacity:1;fill-rule:nonzero;stroke:none;stroke-width:0.0352778"
       id="path282" />
    <path
       d="m 26.686898,142.96688 c 0.306564,0.29281 0.660753,0.39158 1.074208,0.39158 0.306917,0 0.563033,-0.25752 0.563033,-0.56444 0,-0.30692 -0.256116,-0.56092 -0.563033,-0.56092 -0.03775,0 -0.07514,0 -0.112536,-0.004 -0.04022,0 -0.206375,-0.0247 -0.0381,0.004 -0.03916,-0.007 -0.184856,-0.0705 -0.05327,-0.007 l -0.07514,-0.0459 c 0.0515,0.0388 0.05221,0.0353 0.0014,-0.007 -0.222956,-0.21167 -0.575028,-0.22225 -0.796572,0 -0.212372,0.21167 -0.222956,0.58561 0,0.79375"
       style="fill:#2b5316;fill-opacity:1;fill-rule:nonzero;stroke:none;stroke-width:0.0352778"
       id="path284" />
    <path
       d="m 46.910236,144.93538 c 0.450497,0 0.900995,0 1.351492,0 0.726369,0 0.726369,-1.12536 0,-1.12536 -0.450497,0 -0.900995,0 -1.351492,0 -0.726722,0 -0.726722,1.12536 0,1.12536"
       style="fill:#2b5316;fill-opacity:1;fill-rule:nonzero;stroke:none;stroke-width:0.0352778"
       id="path286" />
    <path
       d="m 49.76315,139.50966 c 0.663928,-0.20814 1.363486,-0.24342 2.027767,-0.45156 0.691091,-0.21519 0.396169,-1.30175 -0.299509,-1.08655 -0.663927,0.20814 -1.363486,0.24341 -2.027766,0.45155 -0.691445,0.2152 -0.39617,1.30175 0.299508,1.08656"
       style="fill:#2b5316;fill-opacity:1;fill-rule:nonzero;stroke:none;stroke-width:0.0352778"
       id="path288" />
    <path
       d="m 61.404816,137.48119 c 0.631473,0.21166 1.277056,0.44802 1.950862,0.47272 0.726722,0.0212 0.723194,-1.1042 0,-1.12889 -0.560917,-0.0176 -1.125362,-0.254 -1.651,-0.43039 -0.691445,-0.22931 -0.987778,0.85725 -0.299862,1.08656"
       style="fill:#2b5316;fill-opacity:1;fill-rule:nonzero;stroke:none;stroke-width:0.0352778"
       id="path290" />
    <path
       d="m 57.774733,133.28313 c 0.225778,0.22225 0.451556,0.44803 0.677334,0.67381 0.215194,0.21872 0.578555,0.21872 0.797277,0 0.215195,-0.2152 0.215195,-0.57856 0,-0.79728 -0.225777,-0.22225 -0.451555,-0.44803 -0.677333,-0.67381 -0.215194,-0.21872 -0.578556,-0.21872 -0.797278,0 -0.215194,0.2152 -0.215194,0.57856 0,0.79728"
       style="fill:#2b5316;fill-opacity:1;fill-rule:nonzero;stroke:none;stroke-width:0.0352778"
       id="path292" />
    <path
       d="m 54.567983,131.64271 c 0.451556,-0.0247 0.772584,-0.31044 1.075973,-0.61383 0.218722,-0.21872 0.215194,-0.57856 0,-0.79728 -0.218723,-0.21519 -0.578556,-0.21519 -0.797278,0 -0.08467,0.0847 -0.169334,0.16934 -0.261056,0.25047 -0.05292,0.0423 -0.05292,0.0423 0,0 l -0.07408,0.0459 c -0.05644,0.0282 -0.04939,0.0247 0.02117,-0.007 -0.0635,0.0141 -0.04939,0.0141 0.03528,-0.004 -0.303389,0.0176 -0.560916,0.24342 -0.560916,0.56445 0,0.2928 0.254,0.57855 0.560916,0.56091"
       style="fill:#2b5316;fill-opacity:1;fill-rule:nonzero;stroke:none;stroke-width:0.0352778"
       id="path294" />
    <path
       d="m 58.39915,127.36352 c 1.125361,0 2.25425,0 3.379611,0 0.726722,0 0.726722,-1.12536 0,-1.12536 -1.125361,0 -2.25425,0 -3.379611,0 -0.726722,0 -0.726722,1.12536 0,1.12536"
       style="fill:#2b5316;fill-opacity:1;fill-rule:nonzero;stroke:none;stroke-width:0.0352778"
       id="path296" />
    <path
       d="m 61.552983,122.18121 c 0.575028,0 1.100667,0.0318 1.654528,0.20461 0.691444,0.22225 0.987778,-0.8643 0.296333,-1.08302 -0.638528,-0.20461 -1.284111,-0.24695 -1.950861,-0.24695 -0.726722,0 -0.726722,1.12536 0,1.12536"
       style="fill:#2b5316;fill-opacity:1;fill-rule:nonzero;stroke:none;stroke-width:0.0352778"
       id="path298" />
    <path
       d="m 67.634872,118.57935 c 0.751417,0 1.502833,0 2.25425,0 0.726722,0 0.726722,-1.12889 0,-1.12889 -0.751417,0 -1.502833,0 -2.25425,0 -0.726722,0 -0.726722,1.12889 0,1.12889"
       style="fill:#2b5316;fill-opacity:1;fill-rule:nonzero;stroke:none;stroke-width:0.0352778"
       id="path300" />
    <path
       d="m 71.966983,121.3416 c 0.423333,0.40922 0.931333,0.71614 1.354667,1.12536 0.518583,0.508 1.315861,-0.28927 0.79375,-0.79375 -0.419806,-0.41275 -0.927806,-0.71614 -1.351139,-1.12889 -0.518584,-0.50447 -1.315861,0.28928 -0.797278,0.79728"
       style="fill:#2b5316;fill-opacity:1;fill-rule:nonzero;stroke:none;stroke-width:0.0352778"
       id="path302" />
    <path
       d="m 67.462011,123.59585 c 0.486833,0.49389 0.867833,1.0795 1.351139,1.57692 0.511527,0.51858 1.305277,-0.2787 0.797277,-0.79728 -0.483305,-0.49742 -0.867833,-1.0795 -1.351138,-1.57692 -0.508,-0.52211 -1.305278,0.27517 -0.797278,0.79728"
       style="fill:#2b5316;fill-opacity:1;fill-rule:nonzero;stroke:none;stroke-width:0.0352778"
       id="path304" />
    <path
       d="m 64.481039,130.96891 c 0.60325,0 1.202972,0 1.802694,0 0.726722,0 0.726722,-1.12536 0,-1.12536 -0.599722,0 -1.199444,0 -1.802694,0 -0.726723,0 -0.726723,1.12536 0,1.12536"
       style="fill:#2b5316;fill-opacity:1;fill-rule:nonzero;stroke:none;stroke-width:0.0352778"
       id="path306" />
    <path
       d="m 70.788705,128.26663 c 0.525639,0 1.051278,0 1.576917,0 0.726722,0 0.726722,-1.12889 0,-1.12889 -0.525639,0 -1.051278,0 -1.576917,0 -0.726722,0 -0.726722,1.12889 0,1.12889"
       style="fill:#2b5316;fill-opacity:1;fill-rule:nonzero;stroke:none;stroke-width:0.0352778"
       id="path308" />
    <path
       d="m 76.704788,123.68405 c 0.335139,-0.15875 0.709084,-0.14817 1.068917,-0.1517 0.726722,0 0.726722,-1.12536 0,-1.12536 -0.575028,0 -1.107722,0.0565 -1.636889,0.30339 -0.278694,0.13053 -0.345722,0.52564 -0.201083,0.76906 0.165805,0.28575 0.490361,0.33161 0.769055,0.20461"
       style="fill:#2b5316;fill-opacity:1;fill-rule:nonzero;stroke:none;stroke-width:0.0352778"
       id="path310" />
    <path
       d="m 77.096372,118.57935 c 0.677333,0 1.354666,0 2.028472,0 0.726722,0 0.726722,-1.12889 0,-1.12889 -0.673806,0 -1.351139,0 -2.028472,0 -0.723195,0 -0.723195,1.12889 0,1.12889"
       style="fill:#2b5316;fill-opacity:1;fill-rule:nonzero;stroke:none;stroke-width:0.0352778"
       id="path312" />
    <path
       d="m 88.138316,116.3251 c 0.627944,0 1.195917,0.0317 1.742722,0.37395 0.617361,0.38452 1.181806,-0.58914 0.567972,-0.97367 -0.712611,-0.4445 -1.488722,-0.52564 -2.310694,-0.52564 -0.726722,0 -0.726722,1.12536 0,1.12536"
       style="fill:#2b5316;fill-opacity:1;fill-rule:nonzero;stroke:none;stroke-width:0.0352778"
       id="path314" />
    <path
       d="m 88.304121,120.30444 c 0.479778,0.254 0.85725,0.65616 1.23825,1.03716 0.511528,0.51506 1.308806,-0.28222 0.79375,-0.79728 -0.4445,-0.4445 -0.899583,-0.91722 -1.464027,-1.21355 -0.642056,-0.33867 -1.213556,0.635 -0.567973,0.97367"
       style="fill:#2b5316;fill-opacity:1;fill-rule:nonzero;stroke:none;stroke-width:0.0352778"
       id="path316" />
    <path
       d="m 83.181788,127.5893 c 0.575028,0 1.100667,0.0282 1.651,0.20461 0.694972,0.22225 0.987778,-0.86784 0.299861,-1.08656 -0.642055,-0.20461 -1.284111,-0.24341 -1.950861,-0.24341 -0.726722,0 -0.726722,1.12536 0,1.12536"
       style="fill:#2b5316;fill-opacity:1;fill-rule:nonzero;stroke:none;stroke-width:0.0352778"
       id="path318" />
    <path
       d="m 76.362594,135.17049 c 0.437444,0.20461 0.92075,0.25047 1.351139,0.45156 0.278694,0.13052 0.606778,0.0811 0.772583,-0.20109 0.144639,-0.24694 0.07408,-0.64205 -0.204611,-0.77258 -0.433917,-0.20108 -0.92075,-0.24694 -1.351139,-0.44803 -0.278694,-0.13053 -0.60325,-0.0811 -0.769055,0.20109 -0.144639,0.24694 -0.07761,0.64205 0.201083,0.76905"
       style="fill:#2b5316;fill-opacity:1;fill-rule:nonzero;stroke:none;stroke-width:0.0352778"
       id="path320" />
    <path
       d="m 87.799649,134.00985 c 0,0.889 0.03881,1.75684 0.243417,2.6282 0.169333,0.70555 1.255889,0.40569 1.086555,-0.29986 -0.183444,-0.77259 -0.204611,-1.53812 -0.204611,-2.32834 0,-0.72672 -1.125361,-0.72672 -1.125361,0"
       style="fill:#2b5316;fill-opacity:1;fill-rule:nonzero;stroke:none;stroke-width:0.0352778"
       id="path322" />
    <path
       d="m 83.968483,131.30757 c 0,0.37395 0,0.75142 0,1.12537 0,0.72672 1.125361,0.72672 1.125361,0 0,-0.37395 0,-0.75142 0,-1.12537 0,-0.72672 -1.125361,-0.72672 -1.125361,0"
       style="fill:#2b5316;fill-opacity:1;fill-rule:nonzero;stroke:none;stroke-width:0.0352778"
       id="path324" />
    <path
       d="m 81.093344,138.77588 c 0.659694,0.3175 1.354666,0.51153 2.088444,0.52917 0.726722,0.0141 0.723195,-1.11125 0,-1.12889 -0.529166,-0.0106 -1.044222,-0.14464 -1.520472,-0.37395 -0.649111,-0.31397 -1.220611,0.6597 -0.567972,0.97367"
       style="fill:#2b5316;fill-opacity:1;fill-rule:nonzero;stroke:none;stroke-width:0.0352778"
       id="path326" />
    <path
       d="m 95.511371,133.81935 c 0.437445,0.20461 0.92075,0.25047 1.351139,0.45156 0.278695,0.13053 0.606778,0.0811 0.772583,-0.20109 0.144639,-0.24694 0.07408,-0.64205 -0.204611,-0.77258 -0.433916,-0.20108 -0.92075,-0.25047 -1.351139,-0.44803 -0.278694,-0.13052 -0.603249,-0.0811 -0.769055,0.20109 -0.144639,0.24694 -0.07761,0.63852 0.201083,0.76905"
       style="fill:#2b5316;fill-opacity:1;fill-rule:nonzero;stroke:none;stroke-width:0.0352778"
       id="path328" />
    <path
       d="m 90.389038,129.16621 c 0.66675,0 1.312333,-0.0423 1.950861,-0.24694 0.691445,-0.21872 0.395111,-1.30528 -0.296333,-1.08303 -0.553861,0.17286 -1.0795,0.20461 -1.654528,0.20461 -0.726722,0 -0.726722,1.12536 0,1.12536"
       style="fill:#2b5316;fill-opacity:1;fill-rule:nonzero;stroke:none;stroke-width:0.0352778"
       id="path330" />
    <path
       d="m 95.850038,123.37007 c 0.522111,0.508 1.135944,0.81139 1.823861,1.04423 0.691444,0.23636 0.98425,-0.85373 0.299861,-1.08656 -0.500944,-0.16933 -0.945444,-0.38453 -1.329972,-0.75494 -0.518583,-0.508 -1.315861,0.28927 -0.79375,0.79727"
       style="fill:#2b5316;fill-opacity:1;fill-rule:nonzero;stroke:none;stroke-width:0.0352778"
       id="path332" />
    <path
       d="m 94.611788,118.27596 c 0.433917,0.20109 0.92075,0.25048 1.351139,0.45156 0.278694,0.127 0.60325,0.0811 0.769055,-0.20461 0.144639,-0.24342 0.07761,-0.63853 -0.201083,-0.76906 -0.433917,-0.20461 -0.92075,-0.25047 -1.351139,-0.45155 -0.278694,-0.13053 -0.606778,-0.0811 -0.772583,0.20461 -0.141111,0.24341 -0.07408,0.63853 0.204611,0.76905"
       style="fill:#2b5316;fill-opacity:1;fill-rule:nonzero;stroke:none;stroke-width:0.0352778"
       id="path334" />
    <path
       d="m 102.23532,116.58616 c 0.2293,0.73378 0.27516,1.50989 0.45155,2.25425 0.16933,0.70555 1.25589,0.40569 1.08656,-0.29986 -0.17639,-0.74436 -0.22225,-1.52048 -0.45156,-2.25425 -0.21519,-0.68792 -1.30175,-0.39511 -1.08655,0.29986"
       style="fill:#2b5316;fill-opacity:1;fill-rule:nonzero;stroke:none;stroke-width:0.0352778"
       id="path336" />
    <path
       d="m 108.07379,117.1118 c 0,0.45155 0,0.90311 0,1.35466 0,0.72673 1.12536,0.72673 1.12536,0 0,-0.45155 0,-0.90311 0,-1.35466 0,-0.7232 -1.12536,-0.7232 -1.12536,0"
       style="fill:#2b5316;fill-opacity:1;fill-rule:nonzero;stroke:none;stroke-width:0.0352778"
       id="path338" />
    <path
       d="m 102.38348,122.24119 c 0.52211,0.51152 1.13595,0.81491 1.82386,1.04775 0.69145,0.23283 0.98425,-0.85373 0.29986,-1.08656 -0.50094,-0.16933 -0.94897,-0.38453 -1.32997,-0.75494 -0.51858,-0.508 -1.31586,0.28927 -0.79375,0.79375"
       style="fill:#2b5316;fill-opacity:1;fill-rule:nonzero;stroke:none;stroke-width:0.0352778"
       id="path340" />
    <path
       d="m 73.769677,144.09577 c 0.225778,0.22578 0.451556,0.45155 0.677334,0.6738 0.215194,0.21873 0.578555,0.21873 0.797277,0 0.215195,-0.21519 0.215195,-0.57855 0,-0.79375 -0.225777,-0.22577 -0.451555,-0.45155 -0.677333,-0.67733 -0.215194,-0.21519 -0.578555,-0.21519 -0.797278,0 -0.215194,0.21872 -0.215194,0.57856 0,0.79728"
       style="fill:#2b5316;fill-opacity:1;fill-rule:nonzero;stroke:none;stroke-width:0.0352778"
       id="path342" />
    <path
       d="m 69.716261,150.62921 c 0.306916,0.28928 0.659694,0.38806 1.072444,0.38806 0.306917,0 0.564445,-0.254 0.564445,-0.56092 0,-0.30691 -0.257528,-0.56444 -0.564445,-0.56444 -0.03528,0 -0.07408,0 -0.112889,0 -0.0388,0 -0.204611,-0.0282 -0.03528,0 -0.03881,-0.007 -0.186973,-0.0706 -0.05292,-0.007 l -0.07761,-0.0459 c 0.05292,0.0388 0.05292,0.0388 0.0035,-0.007 -0.225778,-0.21167 -0.575028,-0.22225 -0.797278,0 -0.211667,0.21166 -0.22225,0.58561 0,0.79727"
       style="fill:#2b5316;fill-opacity:1;fill-rule:nonzero;stroke:none;stroke-width:0.0352778"
       id="path344" />
    <path
       d="m 77.248066,154.37924 c 1.139472,-0.21167 2.300111,-0.20814 3.453695,-0.20814 0.726722,0 0.726722,-1.12536 0,-1.12536 -1.255889,0 -2.511778,0.0176 -3.753556,0.24694 -0.712611,0.13053 -0.409222,1.21709 0.299861,1.08656"
       style="fill:#2b5316;fill-opacity:1;fill-rule:nonzero;stroke:none;stroke-width:0.0352778"
       id="path346" />
    <path
       d="m 82.278677,144.7096 c 0.451556,0 0.903111,0 1.351139,0 0.726722,0 0.726722,-1.12536 0,-1.12536 -0.448028,0 -0.899583,0 -1.351139,0 -0.726722,0 -0.726722,1.12536 0,1.12536"
       style="fill:#2b5316;fill-opacity:1;fill-rule:nonzero;stroke:none;stroke-width:0.0352778"
       id="path348" />
    <path
       d="m 90.389038,144.7096 c -0.08467,-0.0141 -0.09878,-0.0176 -0.03528,-0.004 0.05645,0.0212 0.04939,0.0141 -0.02469,-0.0141 0.06703,0.0282 0.127,0.06 0.1905,0.0917 0.179917,0.0882 0.342194,0.14111 0.546805,0.15169 0.306917,0.0176 0.560917,-0.26811 0.560917,-0.56092 0,-0.32102 -0.254,-0.5468 -0.560917,-0.56444 0.08467,0.0141 0.09878,0.0176 0.03528,0.004 -0.05644,-0.0212 -0.04939,-0.0141 0.02117,0.0141 -0.0635,-0.0282 -0.123472,-0.06 -0.186972,-0.0917 -0.179917,-0.0882 -0.345723,-0.14112 -0.546806,-0.1517 -0.306917,-0.0176 -0.564444,0.26811 -0.564444,0.56445 0,0.3175 0.257527,0.5468 0.564444,0.56091"
       style="fill:#2b5316;fill-opacity:1;fill-rule:nonzero;stroke:none;stroke-width:0.0352778"
       id="path350" />
    <path
       d="m 34.571834,159.1876 c 0.303389,0.30339 0.631825,0.56797 1.015294,0.76553 0.27305,0.14111 0.608895,0.0741 0.770467,-0.20108 0.148519,-0.254 0.07091,-0.63148 -0.202142,-0.77259 -0.09772,-0.0494 -0.192969,-0.1023 -0.286455,-0.15875 -0.03281,-0.0212 -0.06526,-0.0423 -0.09737,-0.067 -0.006,-0.004 -0.149225,-0.11288 -0.05715,-0.0388 -0.12312,-0.0988 -0.234597,-0.21167 -0.346075,-0.32103 -0.51435,-0.51505 -1.310922,0.28222 -0.796572,0.79375"
       style="fill:#2b5316;fill-opacity:1;fill-rule:nonzero;stroke:none;stroke-width:0.0352778"
       id="path352" />
    <path
       d="m 39.978859,153.10571 c 0.367947,0.36689 0.766233,0.60325 1.29928,0.61736 0.306917,0.007 0.563033,-0.26105 0.563033,-0.56444 0,-0.31397 -0.256469,-0.55739 -0.563033,-0.56444 -0.04092,0 -0.0822,0 -0.122767,-0.004 0.05539,0.004 0.0508,0.004 -0.01411,-0.0106 -0.03316,-0.007 -0.06562,-0.0176 -0.09737,-0.0318 0.116416,0.0423 -0.01799,-0.0176 -0.03634,-0.0282 -0.05256,-0.0388 -0.05186,-0.0353 0.0014,0.007 l -0.06985,-0.06 c -0.05715,-0.0494 -0.11042,-0.10231 -0.164042,-0.15875 -0.51435,-0.51153 -1.310922,0.28575 -0.796219,0.79727"
       style="fill:#2b5316;fill-opacity:1;fill-rule:nonzero;stroke:none;stroke-width:0.0352778"
       id="path354" />
    <path
       d="m 45.783817,160.25652 c 0.576439,-0.004 1.107722,-0.0564 1.63583,-0.30339 0.278342,-0.13053 0.346075,-0.52564 0.202142,-0.77258 -0.165806,-0.28223 -0.492125,-0.32809 -0.770467,-0.20109 -0.334786,0.15522 -0.706966,0.14817 -1.067505,0.14817 -0.72637,0 -0.72637,1.12889 0,1.12889"
       style="fill:#2b5316;fill-opacity:1;fill-rule:nonzero;stroke:none;stroke-width:0.0352778"
       id="path356" />
    <path
       d="m 50.965064,150.11769 c 0.525639,0 1.051278,0 1.576917,0 0.72778,0 0.72778,-1.12537 0,-1.12537 -0.525639,0 -1.051278,0 -1.576917,0 -0.726369,0 -0.726369,1.12537 0,1.12537"
       style="fill:#2b5316;fill-opacity:1;fill-rule:nonzero;stroke:none;stroke-width:0.0352778"
       id="path358" />
    <path
       d="m 61.044983,160.85271 c 0.09172,0.0494 0.179917,0.0988 0.268111,0.15522 0.01764,0.0106 0.141111,0.10231 0.03528,0.0212 0.03528,0.0247 0.06703,0.0565 0.102306,0.0882 0.03175,0.0282 0.05997,0.0635 0.08819,0.0952 0.102306,0.11288 -0.0635,-0.0952 0.02469,0.0318 0.07056,0.0952 0.127,0.20461 0.179917,0.31044 0.137583,0.27164 0.515056,0.34925 0.769056,0.20108 0.278694,-0.16227 0.342194,-0.49741 0.204611,-0.77258 -0.250472,-0.48683 -0.613834,-0.85372 -1.104195,-1.10067 -0.275166,-0.14111 -0.610305,-0.0741 -0.772583,0.20109 -0.148167,0.254 -0.07056,0.63147 0.204611,0.76905"
       style="fill:#2b5316;fill-opacity:1;fill-rule:nonzero;stroke:none;stroke-width:0.0352778"
       id="path360" />
    <path
       d="m 58.699011,166.7688 c 0.8255,0.2293 1.418167,0.84313 2.007305,1.43227 0.511528,0.51153 1.308806,-0.28222 0.79375,-0.79727 -0.726722,-0.73025 -1.481666,-1.43581 -2.501194,-1.72156 -0.6985,-0.19756 -0.998361,0.889 -0.299861,1.08656"
       style="fill:#2b5316;fill-opacity:1;fill-rule:nonzero;stroke:none;stroke-width:0.0352778"
       id="path362" />
    <path
       d="m 70.562927,167.46377 c 0.751417,0 1.502834,0 2.25425,0 0.726723,0 0.726723,-1.12536 0,-1.12536 -0.751416,0 -1.502833,0 -2.25425,0 -0.723194,0 -0.723194,1.12536 0,1.12536"
       style="fill:#2b5316;fill-opacity:1;fill-rule:nonzero;stroke:none;stroke-width:0.0352778"
       id="path364" />
    <path
       d="m 66.961066,156.19957 c 0.03528,0 0.07408,0 0.112889,0 0.03881,0.004 0.204611,0.0282 0.03528,0 0.04233,0.007 0.186972,0.0706 0.05644,0.007 l 0.07408,0.0459 c -0.05292,-0.0388 -0.05292,-0.0388 -0.0035,0.007 0.225778,0.21166 0.575028,0.22225 0.797278,0 0.211666,-0.21167 0.22225,-0.58562 0,-0.79728 -0.306917,-0.28928 -0.659695,-0.38806 -1.072445,-0.38806 -0.306916,0 -0.564444,0.254 -0.564444,0.56092 0,0.31044 0.257528,0.56444 0.564444,0.56444"
       style="fill:#2b5316;fill-opacity:1;fill-rule:nonzero;stroke:none;stroke-width:0.0352778"
       id="path366" />
    <path
       d="m 114.32148,127.87505 c 0.62795,0.58208 1.4852,0.78669 2.27542,1.04422 0.69144,0.2293 0.98778,-0.86078 0.29986,-1.08303 -0.58561,-0.19403 -1.31233,-0.32455 -1.778,-0.75847 -0.53269,-0.49389 -1.32997,0.30339 -0.79728,0.79728"
       style="fill:#2b5316;fill-opacity:1;fill-rule:nonzero;stroke:none;stroke-width:0.0352778"
       id="path368" />
    <path
       d="m 118.15265,121.56738 c 0.71614,0.70203 1.524,1.23472 2.50119,1.49578 0.70203,0.18697 0.99836,-0.89959 0.29986,-1.08656 -0.79727,-0.21166 -1.42522,-0.635 -2.0073,-1.2065 -0.51858,-0.508 -1.31233,0.28575 -0.79375,0.79728"
       style="fill:#2b5316;fill-opacity:1;fill-rule:nonzero;stroke:none;stroke-width:0.0352778"
       id="path370" />
    <path
       d="m 115.92309,117.43282 c 0.77259,0.23637 1.59809,0.24342 2.40242,0.24342 0.72672,0 0.72672,-1.12536 0,-1.12536 -0.70908,0 -1.42169,0.004 -2.10256,-0.20461 -0.6985,-0.2152 -0.99483,0.87136 -0.29986,1.08655"
       style="fill:#2b5316;fill-opacity:1;fill-rule:nonzero;stroke:none;stroke-width:0.0352778"
       id="path372" />
    <path
       d="m 124.68962,119.40132 c 0.51153,-0.2293 1.13595,-0.22577 1.66864,-0.39158 0.69144,-0.21872 0.39511,-1.30528 -0.29986,-1.08655 -0.64206,0.20108 -1.31939,0.22577 -1.93675,0.508 -0.2787,0.12347 -0.3422,0.52563 -0.20108,0.76905 0.1658,0.28575 0.49036,0.32808 0.76905,0.20108"
       style="fill:#2b5316;fill-opacity:1;fill-rule:nonzero;stroke:none;stroke-width:0.0352778"
       id="path374" />
    <path
       d="m 126.49232,125.70899 c 0.90311,-0.44803 1.80269,-0.89958 2.7058,-1.35114 0.64911,-0.32455 0.0776,-1.29469 -0.56797,-0.97366 -0.90311,0.45155 -1.8027,0.90311 -2.70581,1.35466 -0.64911,0.32456 -0.0776,1.2947 0.56798,0.97014"
       style="fill:#2b5316;fill-opacity:1;fill-rule:nonzero;stroke:none;stroke-width:0.0352778"
       id="path376" />
    <path
       d="m 129.36393,124.20969 c 0.72672,0 0.72672,-1.12537 0,-1.12537 -0.72673,0 -0.72673,1.12537 0,1.12537"
       style="fill:#2b5316;fill-opacity:1;fill-rule:nonzero;stroke:none;stroke-width:0.0352778"
       id="path378" />
    <path
       d="m 121.02779,132.7716 c 0.4833,0 1.06539,-0.0564 1.51694,0.14817 0.28222,0.127 0.60325,0.0811 0.77259,-0.20108 0.14111,-0.24695 0.0776,-0.64559 -0.20462,-0.77259 -0.65969,-0.29986 -1.3723,-0.29986 -2.08491,-0.30339 -0.72672,0 -0.72672,1.12889 0,1.12889"
       style="fill:#2b5316;fill-opacity:1;fill-rule:nonzero;stroke:none;stroke-width:0.0352778"
       id="path380" />
    <path
       d="m 120.71029,126.95077 c 0.33514,0.89605 1.1183,1.23472 1.9685,1.52047 0.69144,0.22931 0.98778,-0.85725 0.29986,-1.08655 -0.4057,-0.13759 -1.01247,-0.28223 -1.18181,-0.73378 -0.10936,-0.28575 -0.37747,-0.47978 -0.69497,-0.39159 -0.27517,0.0741 -0.49742,0.40217 -0.39158,0.69145"
       style="fill:#2b5316;fill-opacity:1;fill-rule:nonzero;stroke:none;stroke-width:0.0352778"
       id="path382" />
    <path
       d="m 128.0657,129.00041 c 0.49389,0.48683 1.0795,0.86783 1.57339,1.35114 0.52211,0.508 1.31939,-0.28575 0.79728,-0.79375 -0.49389,-0.48684 -1.0795,-0.86784 -1.57692,-1.35467 -0.51858,-0.50447 -1.31586,0.28928 -0.79375,0.79728"
       style="fill:#2b5316;fill-opacity:1;fill-rule:nonzero;stroke:none;stroke-width:0.0352778"
       id="path384" />
    <path
       d="m 131.84043,124.88702 c 0.75141,0 1.50283,0 2.25425,0 0.72672,0 0.72672,-1.12889 0,-1.12889 -0.75142,0 -1.50284,0 -2.25425,0 -0.72673,0 -0.72673,1.12889 0,1.12889"
       style="fill:#2b5316;fill-opacity:1;fill-rule:nonzero;stroke:none;stroke-width:0.0352778"
       id="path386" />
    <path
       d="m 137.24851,121.95896 c 0.889,-0.004 1.75683,-0.0423 2.62819,-0.24694 0.70556,-0.16933 0.4057,-1.25236 -0.29986,-1.08656 -0.77258,0.18345 -1.53811,0.20461 -2.32833,0.20461 -0.72672,0 -0.72672,1.12889 0,1.12889"
       style="fill:#2b5316;fill-opacity:1;fill-rule:nonzero;stroke:none;stroke-width:0.0352778"
       id="path388" />
    <path
       d="m 128.8524,118.27596 c 0.66322,0.29986 1.37583,0.30339 2.08844,0.30339 0.72672,0 0.72672,-1.12889 0,-1.12889 -0.4833,0 -1.06539,0.0564 -1.51694,-0.14816 -0.28222,-0.127 -0.60678,-0.0811 -0.77258,0.20461 -0.14112,0.24341 -0.0776,0.64205 0.20108,0.76905"
       style="fill:#2b5316;fill-opacity:1;fill-rule:nonzero;stroke:none;stroke-width:0.0352778"
       id="path390" />
    <path
       d="m 137.64009,119.17555 c 0.52917,0.24694 1.05834,0.30339 1.63689,0.30339 0.72672,0 0.72672,-1.12537 0,-1.12537 -0.36336,0 -0.73378,0.007 -1.06892,-0.14816 -0.27869,-0.13053 -0.60325,-0.0811 -0.76905,0.20108 -0.14464,0.24695 -0.0776,0.64206 0.20108,0.76906"
       style="fill:#2b5316;fill-opacity:1;fill-rule:nonzero;stroke:none;stroke-width:0.0352778"
       id="path392" />
    <path
       d="m 109.14623,139.67899 c 0.47625,-0.2293 0.99131,-0.36336 1.51695,-0.37394 0.72672,-0.0176 0.73025,-1.143 0,-1.12889 -0.73025,0.0176 -1.42875,0.21166 -2.08492,0.52916 -0.65264,0.3175 -0.0811,1.28764 0.56797,0.97367"
       style="fill:#2b5316;fill-opacity:1;fill-rule:nonzero;stroke:none;stroke-width:0.0352778"
       id="path394" />
    <path
       d="m 110.21515,135.02232 c 0.6738,0 1.35114,0 2.02494,0 0.72673,0 0.72673,-1.12536 0,-1.12536 -0.6738,0 -1.35114,0 -2.02494,0 -0.72672,0 -0.72672,1.12536 0,1.12536"
       style="fill:#2b5316;fill-opacity:1;fill-rule:nonzero;stroke:none;stroke-width:0.0352778"
       id="path396" />
    <path
       d="m 119.07693,136.80738 c 0.66322,0.21872 1.30175,0.45861 1.89089,0.84314 0.61383,0.39511 1.17827,-0.58208 0.56797,-0.97367 -0.66675,-0.43391 -1.40759,-0.70555 -2.159,-0.95603 -0.69145,-0.23283 -0.98778,0.85725 -0.29986,1.08656"
       style="fill:#2b5316;fill-opacity:1;fill-rule:nonzero;stroke:none;stroke-width:0.0352778"
       id="path398" />
    <path
       d="m 114.43437,143.05507 c 0.22225,0.10584 0.4445,0.18698 0.67733,0.254 0.0917,0.0247 0.18345,0.0529 0.27164,0.0811 0.0318,0.0106 0.10231,0.0635 0.0635,0.0282 0.22931,0.20461 0.5715,0.22577 0.79728,0 0.20814,-0.20814 0.22931,-0.59267 0,-0.79728 -0.36336,-0.32103 -0.81844,-0.33867 -1.23825,-0.53622 -0.27869,-0.13053 -0.60678,-0.0811 -0.77258,0.20108 -0.14464,0.24694 -0.0741,0.63853 0.20108,0.76905"
       style="fill:#2b5316;fill-opacity:1;fill-rule:nonzero;stroke:none;stroke-width:0.0352778"
       id="path400" />
    <path
       d="m 99.40251,149.44035 c 0.373945,0 0.74789,0 1.12536,0 0.72672,0 0.72672,-1.12536 0,-1.12536 -0.37747,0 -0.751415,0 -1.12536,0 -0.726722,0 -0.726722,1.12536 0,1.12536"
       style="fill:#2b5316;fill-opacity:1;fill-rule:nonzero;stroke:none;stroke-width:0.0352778"
       id="path402" />
    <path
       d="m 103.90748,144.7096 c 0.59972,0 1.19945,0 1.8027,0 0.72319,0 0.72319,-1.12536 0,-1.12536 -0.60325,0 -1.20298,0 -1.8027,0 -0.72672,0 -0.72672,1.12536 0,1.12536"
       style="fill:#2b5316;fill-opacity:1;fill-rule:nonzero;stroke:none;stroke-width:0.0352778"
       id="path404" />
    <path
       d="m 100.30209,158.00227 c 0.52564,0 1.05128,0 1.57692,0 0.72672,0 0.72672,-1.12536 0,-1.12536 -0.52564,0 -1.05128,0 -1.57692,0 -0.726719,0 -0.726719,1.12536 0,1.12536"
       style="fill:#2b5316;fill-opacity:1;fill-rule:nonzero;stroke:none;stroke-width:0.0352778"
       id="path406" />
    <path
       d="m 92.018871,160.09071 c 0.472723,0.45156 1.107723,0.67734 1.576917,1.12536 0.525639,0.50095 1.322917,-0.2928 0.797278,-0.79727 -0.472722,-0.45156 -1.107722,-0.67734 -1.576917,-1.12537 -0.525639,-0.50094 -1.322917,0.29634 -0.797278,0.79728"
       style="fill:#2b5316;fill-opacity:1;fill-rule:nonzero;stroke:none;stroke-width:0.0352778"
       id="path408" />
    <path
       d="m 88.752149,168.7373 c 0.663222,0.29986 1.375834,0.30338 2.088445,0.30338 0.726722,0 0.726722,-1.12536 0,-1.12536 -0.483306,0 -1.065389,0.0564 -1.516945,-0.14816 -0.282222,-0.127 -0.606778,-0.0847 -0.772583,0.20108 -0.141111,0.24342 -0.07761,0.64558 0.201083,0.76906"
       style="fill:#2b5316;fill-opacity:1;fill-rule:nonzero;stroke:none;stroke-width:0.0352778"
       id="path410" />
    <path
       d="m 95.571344,172.64607 c 0.694972,-0.0176 1.301749,-0.25047 1.950861,-0.47272 0.684388,-0.2293 0.391583,-1.31939 -0.299862,-1.08303 -0.543277,0.18345 -1.068916,0.41628 -1.650999,0.43039 -0.726723,0.0141 -0.726723,1.13947 0,1.12536"
       style="fill:#2b5316;fill-opacity:1;fill-rule:nonzero;stroke:none;stroke-width:0.0352778"
       id="path412" />
    <path
       d="m 105.03284,164.98727 c 0.82198,-0.004 1.59809,-0.0811 2.3107,-0.52917 0.61383,-0.38453 0.0494,-1.35819 -0.56797,-0.97367 -0.54681,0.34573 -1.11478,0.37395 -1.74273,0.37395 -0.72672,0.004 -0.72672,1.12889 0,1.12889"
       style="fill:#2b5316;fill-opacity:1;fill-rule:nonzero;stroke:none;stroke-width:0.0352778"
       id="path414" />
    <path
       d="m 109.61543,155.27882 c 0.56091,0.18698 1.13241,0.35984 1.66511,0.61736 0.65264,0.3175 1.22414,-0.65616 0.5715,-0.97013 -0.62442,-0.30339 -1.28411,-0.51506 -1.94028,-0.73378 -0.68792,-0.22931 -0.98425,0.85725 -0.29633,1.08655"
       style="fill:#2b5316;fill-opacity:1;fill-rule:nonzero;stroke:none;stroke-width:0.0352778"
       id="path416" />
    <path
       d="m 111.95787,148.68894 c 0.83256,0.51152 1.81328,0.52563 2.76225,0.52563 0.72672,0.004 0.72672,-1.12536 0,-1.12536 -0.74789,0 -1.53458,0.0317 -2.19428,-0.37394 -0.62089,-0.381 -1.18533,0.59619 -0.56797,0.97367"
       style="fill:#2b5316;fill-opacity:1;fill-rule:nonzero;stroke:none;stroke-width:0.0352778"
       id="path418" />
    <path
       d="m 122.6047,141.10774 c 0.45156,0 0.89959,0 1.35114,0 0.72673,0 0.72673,-1.12889 0,-1.12889 -0.45155,0 -0.89958,0 -1.35114,0 -0.72672,0 -0.72672,1.12889 0,1.12889"
       style="fill:#2b5316;fill-opacity:1;fill-rule:nonzero;stroke:none;stroke-width:0.0352778"
       id="path420" />
    <path
       d="m 142.37084,136.52516 c 0.68792,0.32455 1.43934,0.49389 2.16253,0.73025 0.69144,0.22578 0.98425,-0.86078 0.29986,-1.08656 -0.62442,-0.20461 -1.29822,-0.33514 -1.89442,-0.61736 -0.65263,-0.31044 -1.22413,0.6597 -0.56797,0.97367"
       style="fill:#2b5316;fill-opacity:1;fill-rule:nonzero;stroke:none;stroke-width:0.0352778"
       id="path422" />
    <path
       d="m 146.33606,132.29888 c 0.8502,0.27869 1.72862,0.45861 2.6282,0.47272 0.72672,0.0106 0.72319,-1.11478 0,-1.12889 -0.80081,-0.0106 -1.56986,-0.17991 -2.32833,-0.43039 -0.69498,-0.22577 -0.98778,0.86431 -0.29987,1.08656"
       style="fill:#2b5316;fill-opacity:1;fill-rule:nonzero;stroke:none;stroke-width:0.0352778"
       id="path424" />
    <path
       d="m 155.27193,130.51735 c 0.89958,0 1.80269,0 2.70227,0 0.72673,0 0.72673,-1.12536 0,-1.12536 -0.89958,0 -1.80269,0 -2.70227,0 -0.72673,0 -0.72673,1.12536 0,1.12536"
       style="fill:#2b5316;fill-opacity:1;fill-rule:nonzero;stroke:none;stroke-width:0.0352778"
       id="path426" />
    <path
       d="m 148.88665,127.34235 c 0.61736,-0.1905 1.23825,-0.20461 1.87678,-0.20461 0.72672,0 0.72672,-1.12536 0,-1.12536 -0.73378,0 -1.46756,0.0247 -2.17664,0.24694 -0.69145,0.21167 -0.39511,1.30175 0.29986,1.08303"
       style="fill:#2b5316;fill-opacity:1;fill-rule:nonzero;stroke:none;stroke-width:0.0352778"
       id="path428" />
    <path
       d="m 148.5127,123.75813 c 0.67381,0 1.35114,0 2.02848,0 0.72672,0 0.72672,-1.12536 0,-1.12536 -0.67734,0 -1.35467,0 -2.02848,0 -0.72672,0 -0.72672,1.12536 0,1.12536"
       style="fill:#2b5316;fill-opacity:1;fill-rule:nonzero;stroke:none;stroke-width:0.0352778"
       id="path430" />
    <path
       d="m 146.93579,121.28163 c 0.70202,0.0141 1.37583,0.22225 1.9685,0.59972 0.61383,0.38806 1.17827,-0.58561 0.56797,-0.97366 -0.75495,-0.47978 -1.64395,-0.73731 -2.53647,-0.75142 -0.72673,-0.0141 -0.72673,1.11125 0,1.12536"
       style="fill:#2b5316;fill-opacity:1;fill-rule:nonzero;stroke:none;stroke-width:0.0352778"
       id="path432" />
    <path
       d="m 155.88929,123.9063 c 0.64205,0.33161 1.24883,0.71614 1.93675,0.95955 0.68439,0.24342 0.97719,-0.84666 0.29633,-1.08655 -0.58914,-0.20814 -1.11125,-0.55739 -1.66511,-0.84314 -0.64558,-0.33161 -1.21708,0.63853 -0.56797,0.97014"
       style="fill:#2b5316;fill-opacity:1;fill-rule:nonzero;stroke:none;stroke-width:0.0352778"
       id="path434" />
    <path
       d="m 163.77387,127.51169 c 0.508,0.28222 0.83608,0.90663 1.14653,1.37583 0.40216,0.59972 1.37936,0.0388 0.97366,-0.56797 -0.42333,-0.635 -0.8643,-1.40053 -1.55222,-1.78153 -0.63853,-0.34925 -1.2065,0.62442 -0.56797,0.97367"
       style="fill:#2b5316;fill-opacity:1;fill-rule:nonzero;stroke:none;stroke-width:0.0352778"
       id="path436" />
    <path
       d="m 159.74162,128.43596 c 0.27869,0.52564 0.79728,0.83609 1.21356,1.24178 0.51858,0.508 1.31586,-0.28928 0.79727,-0.79728 -0.34219,-0.33514 -0.8255,-0.61383 -1.04069,-1.01247 -0.14464,-0.27164 -0.51153,-0.35278 -0.76906,-0.20108 -0.27164,0.15875 -0.34572,0.49741 -0.20108,0.76905"
       style="fill:#2b5316;fill-opacity:1;fill-rule:nonzero;stroke:none;stroke-width:0.0352778"
       id="path438" />
    <path
       d="m 159.15248,135.30807 0.0635,0.0706 c 0.10936,0.12347 -0.06,-0.0882 0.0423,0.0529 0.0565,0.0776 0.10584,0.15875 0.15875,0.23989 0.127,0.18697 0.254,0.37394 0.41275,0.53975 0.21167,0.22225 0.58209,0.21166 0.79375,0 0.22225,-0.22225 0.2152,-0.57503 0,-0.79728 l -0.0635,-0.0706 c -0.10936,-0.12347 0.0635,0.0882 -0.0388,-0.0529 -0.0565,-0.0776 -0.10936,-0.15875 -0.16228,-0.23637 -0.12347,-0.18697 -0.254,-0.37747 -0.40922,-0.53975 -0.21167,-0.22225 -0.58208,-0.21519 -0.79728,0 -0.21872,0.21873 -0.21167,0.5715 0,0.79375"
       style="fill:#2b5316;fill-opacity:1;fill-rule:nonzero;stroke:none;stroke-width:0.0352778"
       id="path440" />
    <path
       d="m 133.83362,143.1856 c -0.41628,0.95956 0.37394,1.63336 1.10419,2.12372 0.254,0.17287 0.62089,0.0494 0.76906,-0.20108 0.16228,-0.27869 0.0529,-0.59972 -0.20108,-0.77258 -0.19756,-0.13053 -0.381,-0.27164 -0.55034,-0.44097 -0.0564,-0.0529 -0.0917,-0.10937 -0.13052,-0.17992 0.0141,0.0388 0.0106,0.0247 -0.007,-0.0388 0.007,0.0388 0.004,0.0459 -0.0106,0.0811 0.11994,-0.28222 0.0847,-0.60325 -0.20461,-0.77258 -0.23989,-0.14111 -0.64559,-0.0776 -0.76906,0.20108"
       style="fill:#2b5316;fill-opacity:1;fill-rule:nonzero;stroke:none;stroke-width:0.0352778"
       id="path442" />
    <path
       d="m 138.87834,140.49038 c 0.58561,0.56797 1.28059,0.99836 2.04964,1.27 0.68792,0.24342 0.98072,-0.84314 0.29986,-1.08656 -0.58208,-0.20461 -1.11125,-0.55033 -1.55222,-0.98072 -0.52211,-0.50447 -1.31939,0.28928 -0.79728,0.79728"
       style="fill:#2b5316;fill-opacity:1;fill-rule:nonzero;stroke:none;stroke-width:0.0352778"
       id="path444" />
    <path
       d="m 139.0512,149.21457 c 0.63853,0 1.27,-0.0318 1.85914,-0.29986 0.28222,-0.127 0.34572,-0.52564 0.20461,-0.77258 -0.16933,-0.28222 -0.49389,-0.32808 -0.77258,-0.20108 -0.38806,0.17991 -0.87489,0.14816 -1.29117,0.14816 -0.72672,0 -0.72672,1.12889 0,1.12536"
       style="fill:#2b5316;fill-opacity:1;fill-rule:nonzero;stroke:none;stroke-width:0.0352778"
       id="path446" />
    <path
       d="m 147.16156,148.08921 c 0.75142,0 1.49931,0 2.25073,0 0.72672,0 0.72672,-1.12536 0,-1.12536 -0.75142,0 -1.49931,0 -2.25073,0 -0.72672,0 -0.72672,1.12536 0,1.12536"
       style="fill:#2b5316;fill-opacity:1;fill-rule:nonzero;stroke:none;stroke-width:0.0352778"
       id="path448" />
    <path
       d="m 147.46143,141.76038 c 0.70908,0.22225 1.43933,0.24694 2.17663,0.24694 0.72673,0 0.72673,-1.12536 0,-1.12536 -0.63852,0 -1.25941,-0.0141 -1.87677,-0.20814 -0.69498,-0.21519 -0.99131,0.87489 -0.29986,1.08656"
       style="fill:#2b5316;fill-opacity:1;fill-rule:nonzero;stroke:none;stroke-width:0.0352778"
       id="path450" />
    <path
       d="m 152.2839,135.62205 c 0.43391,0.20461 0.92075,0.25047 1.35114,0.45155 0.27869,0.13053 0.60325,0.0811 0.76905,-0.20108 0.14464,-0.24695 0.0776,-0.64206 -0.20108,-0.77258 -0.43392,-0.20109 -0.92075,-0.25048 -1.35114,-0.45156 -0.27869,-0.127 -0.60678,-0.0776 -0.76906,0.20461 -0.14463,0.24342 -0.0776,0.63853 0.20109,0.76906"
       style="fill:#2b5316;fill-opacity:1;fill-rule:nonzero;stroke:none;stroke-width:0.0352778"
       id="path452" />
    <path
       d="m 154.36881,141.10774 c 0.35984,0 0.73378,-0.0106 1.06892,0.14817 0.2787,0.127 0.60325,0.0811 0.76906,-0.20461 0.14464,-0.24342 0.0776,-0.63853 -0.20109,-0.76906 -0.52916,-0.24694 -1.05833,-0.30339 -1.63689,-0.30339 -0.72672,0 -0.72672,1.12536 0,1.12889"
       style="fill:#2b5316;fill-opacity:1;fill-rule:nonzero;stroke:none;stroke-width:0.0352778"
       id="path454" />
    <path
       d="m 123.95584,161.60766 c 0.45156,0 0.90311,0 1.35114,0 0.72672,0 0.72672,-1.12889 0,-1.12889 -0.44803,0 -0.89958,0 -1.35114,0 -0.72672,0 -0.72672,1.12889 0,1.12889"
       style="fill:#2b5316;fill-opacity:1;fill-rule:nonzero;stroke:none;stroke-width:0.0352778"
       id="path456" />
    <path
       d="m 128.40437,154.54505 c 0.58914,0.27163 1.22061,0.30338 1.85914,0.30338 0.72672,0 0.72672,-1.12536 0,-1.12536 -0.41628,0 -0.90311,0.0282 -1.29117,-0.14816 -0.27869,-0.13053 -0.60325,-0.0847 -0.77258,0.20108 -0.14111,0.24342 -0.0741,0.64206 0.20461,0.76906"
       style="fill:#2b5316;fill-opacity:1;fill-rule:nonzero;stroke:none;stroke-width:0.0352778"
       id="path458" />
    <path
       d="m 136.79695,158.22805 c 0.67734,0 1.35114,0 2.02848,0 0.72672,0 0.72672,-1.12537 0,-1.12537 -0.67734,0 -1.35114,0 -2.02848,0 -0.72672,0 -0.72672,1.12537 0,1.12537"
       style="fill:#2b5316;fill-opacity:1;fill-rule:nonzero;stroke:none;stroke-width:0.0352778"
       id="path460" />
    <path
       d="m 131.67462,166.93813 c 0.59267,-0.38453 1.22767,-0.62442 1.89442,-0.84667 0.68439,-0.2293 0.39158,-1.31586 -0.29986,-1.08655 -0.75495,0.254 -1.49225,0.52564 -2.16253,0.95955 -0.60678,0.39159 -0.0423,1.36878 0.56797,0.97367"
       style="fill:#2b5316;fill-opacity:1;fill-rule:nonzero;stroke:none;stroke-width:0.0352778"
       id="path462" />
    <path
       d="m 116.5969,171.04799 c 0.71261,0.23636 1.42169,0.45508 2.17664,0.47272 0.72672,0.0141 0.72672,-1.11125 0,-1.12889 -0.64911,-0.0141 -1.26295,-0.22577 -1.87678,-0.43039 -0.69144,-0.2293 -0.98425,0.85725 -0.29986,1.08656"
       style="fill:#2b5316;fill-opacity:1;fill-rule:nonzero;stroke:none;stroke-width:0.0352778"
       id="path464" />
    <path
       d="m 130.03773,172.87185 c 0.52564,0 1.05128,0 1.57692,0 0.72672,0 0.72672,-1.12889 0,-1.12889 -0.52564,0 -1.05128,0 -1.57692,0 -0.72319,0 -0.72319,1.12889 0,1.12889"
       style="fill:#2b5316;fill-opacity:1;fill-rule:nonzero;stroke:none;stroke-width:0.0352778"
       id="path466" />
    <path
       d="m 152.71781,169.2453 c 0.77259,-0.19403 1.524,-0.41628 2.32834,-0.43039 0.72319,-0.0106 0.72672,-1.13595 0,-1.12536 -0.90664,0.0141 -1.75684,0.25047 -2.6282,0.46919 -0.70555,0.17992 -0.40569,1.26647 0.29986,1.08656"
       style="fill:#2b5316;fill-opacity:1;fill-rule:nonzero;stroke:none;stroke-width:0.0352778"
       id="path468" />
    <path
       d="m 154.36881,163.6326 c 0.96309,0 1.91206,-0.0247 2.85398,-0.24342 0.70908,-0.16227 0.40569,-1.24883 -0.29986,-1.08655 -0.84314,0.19403 -1.69334,0.20461 -2.55412,0.20461 -0.72672,0 -0.72672,1.12889 0,1.12536"
       style="fill:#2b5316;fill-opacity:1;fill-rule:nonzero;stroke:none;stroke-width:0.0352778"
       id="path470" />
    <path
       d="m 165.23437,160.09071 c 0.54328,0.53975 1.09714,1.01247 1.82739,1.27 0.68439,0.24342 0.97719,-0.84314 0.29986,-1.08655 -0.53622,-0.1905 -0.93486,-0.58561 -1.32997,-0.98073 -0.51506,-0.51505 -1.30881,0.28223 -0.79728,0.79728"
       style="fill:#2b5316;fill-opacity:1;fill-rule:nonzero;stroke:none;stroke-width:0.0352778"
       id="path472" />
    <path
       d="m 163.77387,164.90966 c 0.34572,0.18344 0.50447,0.53975 0.6985,0.92427 0.13758,0.27517 0.51858,0.34925 0.76906,0.20109 0.27869,-0.16228 0.33866,-0.49389 0.20108,-0.76906 -0.26106,-0.52564 -0.56445,-1.04422 -1.10067,-1.32997 -0.27164,-0.14464 -0.6103,-0.0706 -0.77258,0.20108 -0.14817,0.25753 -0.067,0.62795 0.20461,0.77259"
       style="fill:#2b5316;fill-opacity:1;fill-rule:nonzero;stroke:none;stroke-width:0.0352778"
       id="path474" />
    <path
       d="m 158.42576,154.84843 c 0.64911,0 1.26294,-0.0212 1.85914,-0.30338 0.27869,-0.13053 0.34925,-0.52212 0.20461,-0.76906 -0.16581,-0.28222 -0.49389,-0.33161 -0.77258,-0.20108 -0.39512,0.18344 -0.86784,0.14816 -1.29117,0.14816 -0.72672,0 -0.72672,1.12536 0,1.12536"
       style="fill:#2b5316;fill-opacity:1;fill-rule:nonzero;stroke:none;stroke-width:0.0352778"
       id="path476" />
    <path
       d="m 167.66148,151.6946 c 0.79022,0 1.55575,0.0212 2.32833,0.20461 0.70556,0.16934 1.00542,-0.91722 0.29987,-1.08655 -0.87137,-0.20461 -1.7392,-0.24342 -2.6282,-0.24342 -0.72672,0 -0.72672,1.12536 0,1.12536"
       style="fill:#2b5316;fill-opacity:1;fill-rule:nonzero;stroke:none;stroke-width:0.0352778"
       id="path478" />
    <path
       d="m 164.9592,156.42535 c 0.57503,0 1.10773,-0.0564 1.63336,-0.30339 0.2787,-0.127 0.34573,-0.52211 0.20462,-0.76905 -0.16581,-0.28223 -0.49389,-0.33161 -0.77259,-0.20109 -0.33514,0.15523 -0.70555,0.14817 -1.06539,0.14817 -0.72672,0 -0.72672,1.12536 0,1.12536"
       style="fill:#2b5316;fill-opacity:1;fill-rule:nonzero;stroke:none;stroke-width:0.0352778"
       id="path480" />
    <path
       d="m 176.39626,158.73957 c 0.381,-0.37394 0.8255,-0.58914 1.32644,-0.75847 0.68439,-0.2293 0.39159,-1.31939 -0.29986,-1.08655 -0.68439,0.23283 -1.30175,0.53622 -1.82386,1.04775 -0.52211,0.508 0.27517,1.30175 0.79728,0.79727"
       style="fill:#2b5316;fill-opacity:1;fill-rule:nonzero;stroke:none;stroke-width:0.0352778"
       id="path482" />
    <path
       d="m 181.12701,153.33149 c 0.50094,-0.48683 1.10419,-0.8008 1.778,-0.98072 0.70203,-0.18697 0.40216,-1.27353 -0.29986,-1.08656 -0.85725,0.22931 -1.63689,0.64911 -2.27542,1.27 -0.52211,0.508 0.27517,1.30528 0.79728,0.79728"
       style="fill:#2b5316;fill-opacity:1;fill-rule:nonzero;stroke:none;stroke-width:0.0352778"
       id="path484" />
    <path
       d="m 176.97481,148.5196 c 1.08303,0.27164 2.11314,0.42334 3.22792,0.22578 0.71261,-0.127 0.40922,-1.21003 -0.29986,-1.08656 -0.90311,0.15875 -1.75331,-0.007 -2.63172,-0.22577 -0.70203,-0.17639 -1.00189,0.91016 -0.29634,1.08655"
       style="fill:#2b5316;fill-opacity:1;fill-rule:nonzero;stroke:none;stroke-width:0.0352778"
       id="path486" />
    <path
       d="m 167.48862,141.61574 c 0.45156,0.45156 0.89958,0.90311 1.35114,1.35114 0.51505,0.51506 1.31233,-0.28222 0.79728,-0.79375 -0.45156,-0.45156 -0.90311,-0.90311 -1.35114,-1.35114 -0.51506,-0.51505 -1.31234,0.28222 -0.79728,0.79375"
       style="fill:#2b5316;fill-opacity:1;fill-rule:nonzero;stroke:none;stroke-width:0.0352778"
       id="path488" />
    <path
       d="m 164.69815,145.33402 c 0.44803,0.6738 0.89958,1.35114 1.35114,2.02494 0.39864,0.60325 1.37583,0.0388 0.97014,-0.56797 -0.44803,-0.6738 -0.89959,-1.35114 -1.35114,-2.02847 -0.39864,-0.59972 -1.37584,-0.0353 -0.97014,0.5715"
       style="fill:#2b5316;fill-opacity:1;fill-rule:nonzero;stroke:none;stroke-width:0.0352778"
       id="path490" />
    <path
       d="m 173.65165,142.0426 c 0.32103,0.93134 0.81139,1.79211 1.49578,2.50472 0.50447,0.52212 1.30175,-0.27516 0.79727,-0.79727 -0.55033,-0.56798 -0.94897,-1.25942 -1.2065,-2.00378 -0.23636,-0.68439 -1.32291,-0.39158 -1.08655,0.29633"
       style="fill:#2b5316;fill-opacity:1;fill-rule:nonzero;stroke:none;stroke-width:0.0352778"
       id="path492" />
    <path
       d="m 171.79251,137.70696 c 0.93133,0.31398 1.85561,0.66675 2.85397,0.69498 0.72672,0.0212 0.7232,-1.1042 0,-1.12537 -0.88547,-0.0247 -1.72508,-0.37394 -2.55411,-0.65616 -0.69144,-0.23284 -0.98425,0.85372 -0.29986,1.08655"
       style="fill:#2b5316;fill-opacity:1;fill-rule:nonzero;stroke:none;stroke-width:0.0352778"
       id="path494" />
    <path
       d="m 174.19493,132.7716 c 0.4445,0.0106 0.89605,0.17992 1.29116,0.37395 0.65264,0.31397 1.22414,-0.65617 0.56797,-0.97367 -0.57855,-0.28222 -1.21002,-0.508 -1.85913,-0.52917 -0.72673,-0.0176 -0.72673,1.10773 0,1.12889"
       style="fill:#2b5316;fill-opacity:1;fill-rule:nonzero;stroke:none;stroke-width:0.0352778"
       id="path496" />
    <path
       d="m 180.8589,138.21496 c 0.51152,1.2312 1.17475,2.3742 1.85914,3.51367 0.37394,0.62089 1.34761,0.0564 0.97366,-0.56797 -0.63147,-1.05481 -1.27705,-2.10961 -1.74625,-3.24556 -0.27164,-0.66322 -1.36172,-0.37041 -1.08655,0.29986"
       style="fill:#2b5316;fill-opacity:1;fill-rule:nonzero;stroke:none;stroke-width:0.0352778"
       id="path498" />
    <path
       d="m 177.01009,136.93791 c 0,0.68086 0.0706,1.46403 0.73025,1.83797 0.63147,0.35983 1.19945,-0.61383 0.56797,-0.97367 -0.06,-0.0353 -0.0741,-0.0423 -0.0388,-0.0212 -0.0494,-0.0459 -0.06,-0.0564 -0.0282,-0.0317 -0.0388,-0.06 -0.0529,-0.13053 -0.0741,-0.23284 -0.0353,-0.14816 -0.0318,-0.38452 -0.0318,-0.57855 0,-0.72672 -1.12536,-0.72672 -1.12536,0"
       style="fill:#2b5316;fill-opacity:1;fill-rule:nonzero;stroke:none;stroke-width:0.0352778"
       id="path500" />
    <path
       d="m 179.76881,143.50663 c 0.73025,0.48683 1.46756,0.95603 2.25073,1.35114 0.64558,0.32808 1.21708,-0.64206 0.56797,-0.97014 -0.78317,-0.39864 -1.52047,-0.86431 -2.25072,-1.35114 -0.60678,-0.40569 -1.17123,0.5715 -0.56798,0.97014"
       style="fill:#2b5316;fill-opacity:1;fill-rule:nonzero;stroke:none;stroke-width:0.0352778"
       id="path502" />
    <path
       d="m 185.12045,145.7256 c 0.0176,1.0407 0.26459,2.06022 0.4692,3.07622 0.14464,0.71262 1.23119,0.40923 1.08655,-0.29986 -0.18344,-0.91722 -0.41275,-1.83444 -0.43039,-2.77636 -0.0106,-0.72672 -1.13594,-0.72672 -1.12536,0"
       style="fill:#2b5316;fill-opacity:1;fill-rule:nonzero;stroke:none;stroke-width:0.0352778"
       id="path504" />
    <path
       d="m 86.561399,124.43546 c 0.712611,0 1.404056,0.0388 2.102556,0.20461 0.705555,0.16934 1.005416,-0.91722 0.299861,-1.08655 -0.797278,-0.18697 -1.591028,-0.24342 -2.402417,-0.24342 -0.726722,0 -0.726722,1.12536 0,1.12536"
       style="fill:#2b5316;fill-opacity:1;fill-rule:nonzero;stroke:none;stroke-width:0.0352778"
       id="path506" />
    <path
       d="m 95.172705,127.19771 c 0.599722,0.59973 1.213555,1.18534 1.915583,1.66511 0.60325,0.41275 1.164167,-0.56444 0.567972,-0.97013 -0.620889,-0.42687 -1.157111,-0.95956 -1.686278,-1.48873 -0.515055,-0.51505 -1.312333,0.28223 -0.797277,0.79375"
       style="fill:#2b5316;fill-opacity:1;fill-rule:nonzero;stroke:none;stroke-width:0.0352778"
       id="path508" />
    <path
       d="m 100.69368,126.16055 c 0.39864,0.21166 0.69144,0.66675 1.12536,0.89958 0.27164,0.14464 0.6103,0.0706 0.77258,-0.20108 0.14817,-0.25753 0.067,-0.62442 -0.20461,-0.76906 -0.39864,-0.21519 -0.68792,-0.67028 -1.12536,-0.90311 -0.27164,-0.14464 -0.61031,-0.0706 -0.76906,0.20461 -0.15169,0.254 -0.0706,0.62442 0.20109,0.76906"
       style="fill:#2b5316;fill-opacity:1;fill-rule:nonzero;stroke:none;stroke-width:0.0352778"
       id="path510" />
    <path
       d="m 95.571344,116.09932 c 0.899583,0 1.802694,0 2.702277,0 0.726722,0 0.726722,-1.12536 0,-1.12536 -0.899583,0 -1.802694,0 -2.702277,0 -0.726723,0 -0.726723,1.12536 0,1.12536"
       style="fill:#2b5316;fill-opacity:1;fill-rule:nonzero;stroke:none;stroke-width:0.0352778"
       id="path512" />
    <path
       d="m 98.464121,118.52291 c 0.225778,0.45155 0.451556,0.90311 0.677334,1.35466 0.134055,0.27164 0.518583,0.34925 0.769055,0.20109 0.27869,-0.16228 0.33867,-0.49742 0.20108,-0.77259 -0.225774,-0.44802 -0.448024,-0.89958 -0.673802,-1.35113 -0.137583,-0.27517 -0.518583,-0.34925 -0.772583,-0.20109 -0.275167,0.16228 -0.338667,0.49742 -0.201084,0.76906"
       style="fill:#2b5316;fill-opacity:1;fill-rule:nonzero;stroke:none;stroke-width:0.0352778"
       id="path514" />
    <path
       d="m 73.042955,117.22469 c 0.677333,0 1.351139,0 2.028472,0 0.726723,0 0.726723,-1.12537 0,-1.12537 -0.677333,0 -1.351139,0 -2.028472,0 -0.726722,0 -0.726722,1.12537 0,1.12537"
       style="fill:#2b5316;fill-opacity:1;fill-rule:nonzero;stroke:none;stroke-width:0.0352778"
       id="path516" />
    <path
       d="m 64.55865,125.09163 c 0.620889,0.22225 1.125361,0.70203 1.665111,1.06892 0.60325,0.40922 1.167694,-0.56798 0.5715,-0.97367 -0.638528,-0.43039 -1.202972,-0.91722 -1.93675,-1.18181 -0.687917,-0.24694 -0.980722,0.84314 -0.299861,1.08656"
       style="fill:#2b5316;fill-opacity:1;fill-rule:nonzero;stroke:none;stroke-width:0.0352778"
       id="path518" />
    <path
       d="m 59.976067,124.88702 c 0.525638,0 1.051277,0 1.576916,0 0.726722,0 0.726722,-1.12889 0,-1.12889 -0.525639,0 -1.051278,0 -1.576916,0 -0.726723,0 -0.726723,1.12889 0,1.12889"
       style="fill:#2b5316;fill-opacity:1;fill-rule:nonzero;stroke:none;stroke-width:0.0352778"
       id="path520" />
    <path
       d="m 60.879178,119.02738 c 1.11125,0 2.204861,-0.0388 3.302,-0.24342 0.712611,-0.13405 0.409222,-1.22061 -0.299862,-1.08655 -0.994833,0.18697 -1.993194,0.20461 -3.002138,0.20461 -0.726723,0 -0.726723,1.12536 0,1.12536"
       style="fill:#2b5316;fill-opacity:1;fill-rule:nonzero;stroke:none;stroke-width:0.0352778"
       id="path522" />
    <path
       d="m 123.13034,122.38582 c 0.85373,0.2787 1.73214,0.45862 2.6282,0.47273 0.72672,0.0106 0.72672,-1.11478 0,-1.12536 -0.80081,-0.0141 -1.56986,-0.18345 -2.32834,-0.43039 -0.69144,-0.22578 -0.98777,0.86077 -0.29986,1.08302"
       style="fill:#2b5316;fill-opacity:1;fill-rule:nonzero;stroke:none;stroke-width:0.0352778"
       id="path524" />
    <path
       d="m 121.02779,117.67624 c 0.6103,-0.0141 1.19239,-0.21167 1.80269,-0.22578 0.7232,-0.0141 0.72672,-1.13947 0,-1.12536 -0.6103,0.0141 -1.19591,0.21167 -1.80269,0.22578 -0.72672,0.0141 -0.72672,1.143 0,1.12536"
       style="fill:#2b5316;fill-opacity:1;fill-rule:nonzero;stroke:none;stroke-width:0.0352778"
       id="path526" />
    <path
       d="m 116.03598,124.38255 c 0.34572,0.64911 1.02659,0.93486 1.68981,1.16064 0.68791,0.23283 0.98072,-0.85725 0.29633,-1.08656 -0.23636,-0.0811 -0.46214,-0.16581 -0.68086,-0.29281 -0.16228,-0.0953 -0.24342,-0.17991 -0.33161,-0.34925 -0.3422,-0.64205 -1.31586,-0.0741 -0.97367,0.56798"
       style="fill:#2b5316;fill-opacity:1;fill-rule:nonzero;stroke:none;stroke-width:0.0352778"
       id="path528" />
    <path
       d="m 141.22784,135.00469 c 0.9772,-0.24695 1.9297,-0.52212 2.83634,-0.95956 0.65616,-0.31397 0.0847,-1.28764 -0.56798,-0.97367 -0.81844,0.39511 -1.6898,0.62442 -2.56822,0.84667 -0.70555,0.17639 -0.40569,1.26294 0.29986,1.08656"
       style="fill:#2b5316;fill-opacity:1;fill-rule:nonzero;stroke:none;stroke-width:0.0352778"
       id="path530" />
    <path
       d="m 145.05901,129.37082 c 0.75847,-0.24694 1.52753,-0.41627 2.32833,-0.43038 0.7232,-0.0106 0.72672,-1.13948 0,-1.12537 -0.89958,0.0141 -1.778,0.19403 -2.62819,0.4692 -0.68792,0.22578 -0.39511,1.31233 0.29986,1.08655"
       style="fill:#2b5316;fill-opacity:1;fill-rule:nonzero;stroke:none;stroke-width:0.0352778"
       id="path532" />
    <path
       d="m 150.89748,130.77841 c 0.29986,0.81844 0.89253,1.44991 1.49578,2.05316 0.51505,0.51506 1.31233,-0.28222 0.79728,-0.79727 -0.45156,-0.45156 -0.98073,-0.93839 -1.2065,-1.55223 -0.24695,-0.67733 -1.33703,-0.38452 -1.08656,0.29634"
       style="fill:#2b5316;fill-opacity:1;fill-rule:nonzero;stroke:none;stroke-width:0.0352778"
       id="path534" />
    <path
       d="m 157.07462,132.32005 c 0.59972,0 1.19944,0 1.79917,0 0.72672,0 0.72672,-1.12536 0,-1.12536 -0.59973,0 -1.19945,0 -1.79917,0 -0.72672,0 -0.72672,1.12536 0,1.12536"
       style="fill:#2b5316;fill-opacity:1;fill-rule:nonzero;stroke:none;stroke-width:0.0352778"
       id="path536" />
    <path
       d="m 153.15173,126.04766 c 0.32808,0.89958 1.09008,1.43933 1.9685,1.74625 0.68792,0.23989 0.98072,-0.8502 0.29986,-1.08656 -0.47272,-0.16228 -1.00189,-0.46214 -1.1818,-0.95603 -0.25048,-0.67733 -1.33703,-0.38452 -1.08656,0.29634"
       style="fill:#2b5316;fill-opacity:1;fill-rule:nonzero;stroke:none;stroke-width:0.0352778"
       id="path538" />
    <path
       d="m 151.9664,121.71202 c 0.60678,0.20814 1.19591,0.46919 1.80269,0.6738 0.69145,0.23637 0.98425,-0.85019 0.29986,-1.08302 -0.60677,-0.20814 -1.19591,-0.4692 -1.80269,-0.67734 -0.68792,-0.23636 -0.98425,0.85373 -0.29986,1.08656"
       style="fill:#2b5316;fill-opacity:1;fill-rule:nonzero;stroke:none;stroke-width:0.0352778"
       id="path540" />
    <path
       d="m 161.65368,124.64007 c 1.0795,0.4445 2.08491,1.05481 3.01977,1.74625 0.58561,0.43039 1.14653,-0.5468 0.56798,-0.97366 -1.02306,-0.75495 -2.11314,-1.37584 -3.28789,-1.85914 -0.67028,-0.27517 -0.95956,0.81492 -0.29986,1.08655"
       style="fill:#2b5316;fill-opacity:1;fill-rule:nonzero;stroke:none;stroke-width:0.0352778"
       id="path542" />
    <path
       d="m 171.99359,129.45196 c 0.42334,0.41981 0.90311,0.81492 1.524,0.83961 0.30692,0.0141 0.56445,-0.26458 0.56445,-0.56091 0,-0.3175 -0.25753,-0.55034 -0.56445,-0.56445 -0.0988,-0.004 -0.21166,-0.0741 -0.36336,-0.17639 -0.0917,-0.0635 -0.254,-0.22225 -0.36336,-0.33513 -0.51506,-0.51153 -1.31233,0.28222 -0.79728,0.79727"
       style="fill:#2b5316;fill-opacity:1;fill-rule:nonzero;stroke:none;stroke-width:0.0352778"
       id="path544" />
    <path
       d="m 19.390042,167.41085 c 0.419806,0.762 1.301398,1.30528 2.004131,1.778 0.605014,0.4057 1.168047,-0.56797 0.568678,-0.97014 -0.539398,-0.36336 -1.277761,-0.79022 -1.6002,-1.37583 -0.350309,-0.63853 -1.322917,-0.0706 -0.972609,0.56797"
       style="fill:#2b4b16;fill-opacity:1;fill-rule:nonzero;stroke:none;stroke-width:0.0352778"
       id="path546" />
    <path
       d="m 16.609448,170.05668 c 0.02928,1.32645 0.433564,2.52942 0.921456,3.75356 0.265994,0.66322 1.355725,0.37394 1.086202,-0.29986 -0.448733,-1.12536 -0.854075,-2.23308 -0.880886,-3.4537 -0.01623,-0.72672 -1.142294,-0.73025 -1.126772,0"
       style="fill:#2b4b16;fill-opacity:1;fill-rule:nonzero;stroke:none;stroke-width:0.0352778"
       id="path548" />
    <path
       d="m 21.619598,173.9196 c 0.510117,0.28222 0.837494,0.90664 1.14935,1.37583 0.401108,0.59973 1.377244,0.0388 0.972961,-0.56797 -0.423333,-0.635 -0.863953,-1.40053 -1.553986,-1.778 -0.636764,-0.35278 -1.205089,0.62089 -0.568325,0.97014"
       style="fill:#2b4b16;fill-opacity:1;fill-rule:nonzero;stroke:none;stroke-width:0.0352778"
       id="path550" />
    <path
       d="m 22.520592,180.67882 c 1.164167,0.67734 2.440517,1.12536 3.604684,1.8027 0.629355,0.36689 1.195916,-0.60678 0.568325,-0.97367 -1.163814,-0.67733 -2.440517,-1.12536 -3.604331,-1.80269 -0.629355,-0.36336 -1.196269,0.6103 -0.568678,0.97366"
       style="fill:#2b4b16;fill-opacity:1;fill-rule:nonzero;stroke:none;stroke-width:0.0352778"
       id="path552" />
    <path
       d="m 32.717281,184.80985 c 1.126419,0 2.252839,0 3.379258,0 0.72637,0 0.72637,-1.12536 0,-1.12536 -1.126419,0 -2.252839,0 -3.379258,0 -0.726369,0 -0.726369,1.12536 0,1.12536"
       style="fill:#2b4b16;fill-opacity:1;fill-rule:nonzero;stroke:none;stroke-width:0.0352778"
       id="path554" />
    <path
       d="m 28.662101,179.62755 c 1.082675,0.004 2.161822,0.0106 3.22968,0.20813 0.709789,0.13053 1.013178,-0.95602 0.299508,-1.08655 -1.169105,-0.21872 -2.34315,-0.24695 -3.529188,-0.24695 -0.72637,0 -0.72637,1.12537 0,1.12537"
       style="fill:#2b4b16;fill-opacity:1;fill-rule:nonzero;stroke:none;stroke-width:0.0352778"
       id="path556" />
    <path
       d="m 27.685612,173.75027 c 0.900994,-0.22578 1.819627,-0.45509 2.612672,-0.95603 0.611716,-0.38806 0.04692,-1.36172 -0.568678,-0.97367 -0.712258,0.45156 -1.534583,0.64206 -2.343503,0.84667 -0.704144,0.17639 -0.405341,1.25942 0.299509,1.08303"
       style="fill:#2b4b16;fill-opacity:1;fill-rule:nonzero;stroke:none;stroke-width:0.0352778"
       id="path558" />
    <path
       d="m 36.037625,175.7223 c 1.00577,0.52211 1.896534,1.27 2.589389,2.16605 0.443795,0.5715 1.235075,-0.2293 0.796572,-0.79728 -0.744008,-0.96308 -1.73743,-1.78152 -2.817283,-2.34244 -0.644172,-0.33161 -1.213908,0.63853 -0.568678,0.97367"
       style="fill:#2b4b16;fill-opacity:1;fill-rule:nonzero;stroke:none;stroke-width:0.0352778"
       id="path560" />
    <path
       d="m 35.698253,179.69105 c 0.600075,0.59972 1.213908,1.18533 1.916289,1.66511 0.601839,0.40922 1.164519,-0.56798 0.568678,-0.97367 -0.621595,-0.42333 -1.157817,-0.95956 -1.688395,-1.48872 -0.513997,-0.51506 -1.310569,0.28222 -0.796572,0.79728"
       style="fill:#2b4b16;fill-opacity:1;fill-rule:nonzero;stroke:none;stroke-width:0.0352778"
       id="path562" />
    <path
       d="m 39.625728,191.54791 c 0.976136,-0.24342 1.928283,-0.51859 2.837744,-0.95603 0.65405,-0.3175 0.08255,-1.28764 -0.568677,-0.97367 -0.818798,0.39511 -1.690159,0.62442 -2.568575,0.84314 -0.704497,0.17639 -0.405342,1.26295 0.299508,1.08656"
       style="fill:#2b4b16;fill-opacity:1;fill-rule:nonzero;stroke:none;stroke-width:0.0352778"
       id="path564" />
    <path
       d="m 34.294198,188.41524 c 0.45085,0 0.901347,0 1.351844,0 0.726369,0 0.726369,-1.12536 0,-1.12536 -0.450497,0 -0.900994,0 -1.351844,0 -0.72637,0 -0.72637,1.12536 0,1.12536"
       style="fill:#2b4b16;fill-opacity:1;fill-rule:nonzero;stroke:none;stroke-width:0.0352778"
       id="path566" />
    <path
       d="m 43.230059,186.14335 c 0.913341,-0.21519 1.846086,-0.20461 2.77883,-0.20461 0.726369,0 0.726369,-1.12889 0,-1.12889 -1.034697,0 -2.065514,0.0106 -3.078339,0.24695 -0.707319,0.1658 -0.407105,1.25236 0.299509,1.08655"
       style="fill:#2b4b16;fill-opacity:1;fill-rule:nonzero;stroke:none;stroke-width:0.0352778"
       id="path568" />
    <path
       d="m 43.831545,180.73527 c 0.972608,0.24341 1.946275,0.47625 2.928761,0.67733 0.709083,0.14111 1.011061,-0.94192 0.299508,-1.08655 -0.982486,-0.20109 -1.956153,-0.43392 -2.928761,-0.67734 -0.70485,-0.17639 -1.004006,0.91017 -0.299508,1.08656"
       style="fill:#2b4b16;fill-opacity:1;fill-rule:nonzero;stroke:none;stroke-width:0.0352778"
       id="path570" />
    <path
       d="m 49.665783,180.13907 c 0.474134,0.41275 1.156759,0.39159 1.750131,0.39159 0.726369,0 0.726369,-1.12536 0,-1.12536 -0.202142,0 -0.403931,-0.004 -0.60572,-0.0141 -0.07867,-0.007 -0.148872,-0.0141 -0.223308,-0.0282 -0.08502,-0.0176 -0.176036,-0.0635 -0.12453,-0.0176 -0.231775,-0.20108 -0.567973,-0.2293 -0.796573,0 -0.205316,0.20461 -0.232127,0.59267 0,0.79375"
       style="fill:#2b4b16;fill-opacity:1;fill-rule:nonzero;stroke:none;stroke-width:0.0352778"
       id="path572" />
    <path
       d="m 59.076483,185.93874 c 0.860778,0 1.710972,0.007 2.554111,0.20461 0.705556,0.16228 1.005417,-0.92428 0.296334,-1.08655 -0.938389,-0.21873 -1.890889,-0.24695 -2.850445,-0.24695 -0.726722,0 -0.726722,1.12536 0,1.12889"
       style="fill:#2b4b16;fill-opacity:1;fill-rule:nonzero;stroke:none;stroke-width:0.0352778"
       id="path574" />
    <path
       d="m 51.415914,189.99216 c 0.825853,0 1.652058,0 2.478264,0 0.726722,0 0.726722,-1.12536 0,-1.12536 -0.826206,0 -1.652411,0 -2.478264,0 -0.726722,0 -0.726722,1.12536 0,1.12536"
       style="fill:#2b4b16;fill-opacity:1;fill-rule:nonzero;stroke:none;stroke-width:0.0352778"
       id="path576" />
    <path
       d="m 49.779731,193.29416 c 0.941563,0.70555 1.897238,1.3723 3.063169,1.63336 0.709083,0.16228 1.008944,-0.92428 0.299861,-1.08656 -1.071033,-0.23989 -1.931105,-0.87136 -2.794353,-1.52047 -0.582083,-0.43392 -1.142647,0.54328 -0.568677,0.97367"
       style="fill:#2b4b16;fill-opacity:1;fill-rule:nonzero;stroke:none;stroke-width:0.0352778"
       id="path578" />
    <path
       d="m 61.630594,195.83063 c 0.889,0.20461 1.80975,0.24342 2.702278,0.44803 0.705556,0.1658 1.005417,-0.92075 0.299861,-1.08656 -0.892528,-0.20461 -1.813278,-0.24342 -2.705805,-0.44803 -0.705556,-0.1658 -1.005417,0.92075 -0.296334,1.08656"
       style="fill:#2b4b16;fill-opacity:1;fill-rule:nonzero;stroke:none;stroke-width:0.0352778"
       id="path580" />
    <path
       d="m 66.283733,190.44371 c 0.758472,-0.0141 1.495778,-0.21519 2.25425,-0.22578 0.723194,-0.0106 0.726722,-1.13947 0,-1.12536 -0.758472,0.0106 -1.495778,0.20814 -2.25425,0.22225 -0.723194,0.0176 -0.726722,1.143 0,1.12889"
       style="fill:#2b4b16;fill-opacity:1;fill-rule:nonzero;stroke:none;stroke-width:0.0352778"
       id="path582" />
    <path
       d="m 72.817177,186.61255 c 0.737306,0 1.467556,-0.0247 2.176639,-0.24342 0.691445,-0.2152 0.398639,-1.30175 -0.299861,-1.08656 -0.613833,0.1905 -1.234722,0.20461 -1.876778,0.20461 -0.726722,0 -0.726722,1.12537 0,1.12537"
       style="fill:#2b4b16;fill-opacity:1;fill-rule:nonzero;stroke:none;stroke-width:0.0352778"
       id="path584" />
    <path
       d="m 62.678344,182.10757 c 0.751417,0 1.502834,0 2.25425,0 0.726722,0 0.726722,-1.12536 0,-1.12536 -0.751416,0 -1.502833,0 -2.25425,0 -0.723194,0 -0.723194,1.12536 0,1.12536"
       style="fill:#2b4b16;fill-opacity:1;fill-rule:nonzero;stroke:none;stroke-width:0.0352778"
       id="path586" />
    <path
       d="m 86.049871,194.6453 c 0.850195,0.38805 2.007306,0.54327 2.913945,0.28222 0.694972,-0.20109 0.398639,-1.28764 -0.299861,-1.08656 -0.599722,0.17286 -1.474611,0.0952 -2.046111,-0.1658 -0.656167,-0.29986 -1.227667,0.67027 -0.567973,0.97014"
       style="fill:#2b4b16;fill-opacity:1;fill-rule:nonzero;stroke:none;stroke-width:0.0352778"
       id="path588" />
    <path
       d="m 74.785677,196.89955 c 1.033639,0.7373 2.278945,1.15005 3.513667,1.40758 0.709083,0.14817 1.008944,-0.93839 0.299861,-1.08656 -1.150056,-0.23989 -2.278944,-0.60325 -3.245555,-1.29469 -0.592667,-0.42333 -1.153584,0.55386 -0.567973,0.97367"
       style="fill:#2b4b16;fill-opacity:1;fill-rule:nonzero;stroke:none;stroke-width:0.0352778"
       id="path590" />
    <path
       d="m 78.899066,191.56907 c 0.966611,-0.0282 1.753306,-0.45508 2.536472,-0.97719 0.60325,-0.40217 0.03881,-1.37583 -0.567972,-0.97367 -0.610305,0.4057 -1.213555,0.80081 -1.9685,0.8255 -0.723194,0.0212 -0.726722,1.14653 0,1.12536"
       style="fill:#2b4b16;fill-opacity:1;fill-rule:nonzero;stroke:none;stroke-width:0.0352778"
       id="path592" />
    <path
       d="m 87.009427,186.38677 c 1.132417,-0.0141 2.250722,-0.20814 3.379611,-0.22578 0.726722,-0.0106 0.726722,-1.13594 0,-1.12536 -1.128889,0.0176 -2.247194,0.20814 -3.379611,0.22578 -0.723194,0.0106 -0.726722,1.13594 0,1.12536"
       style="fill:#2b4b16;fill-opacity:1;fill-rule:nonzero;stroke:none;stroke-width:0.0352778"
       id="path594" />
    <path
       d="m 100.24212,186.76071 c 0.76906,0.48684 1.66158,0.73025 2.48003,1.12536 0.64911,0.3175 1.22061,-0.65264 0.56797,-0.97014 -0.81492,-0.39511 -1.71097,-0.64205 -2.48003,-1.12888 -0.61383,-0.38806 -1.178274,0.58561 -0.56797,0.97366"
       style="fill:#2b4b16;fill-opacity:1;fill-rule:nonzero;stroke:none;stroke-width:0.0352778"
       id="path596" />
    <path
       d="m 97.673899,192.22524 c 0.465667,0.14817 0.998361,0.18344 1.442861,0.39511 0.278695,0.13053 0.606778,0.0776 0.769056,-0.20461 0.144634,-0.24694 0.07761,-0.63853 -0.201084,-0.76906 -0.546805,-0.25752 -1.139472,-0.32455 -1.710972,-0.508 -0.694972,-0.22225 -0.987778,0.86431 -0.299861,1.08656"
       style="fill:#2b4b16;fill-opacity:1;fill-rule:nonzero;stroke:none;stroke-width:0.0352778"
       id="path598" />
    <path
       d="m 97.430482,199.15027 c 0.455084,-0.20461 1.037167,-0.14817 1.520473,-0.14817 0.726722,0 0.726722,-1.12536 0,-1.12536 -0.712612,0 -1.425223,0.004 -2.088445,0.30339 -0.278694,0.127 -0.342194,0.52564 -0.201083,0.76905 0.165805,0.28575 0.490361,0.32809 0.769055,0.20109"
       style="fill:#2b4b16;fill-opacity:1;fill-rule:nonzero;stroke:none;stroke-width:0.0352778"
       id="path600" />
    <path
       d="m 115.84548,191.79485 c 0.90664,-0.0141 1.75684,-0.25047 2.6282,-0.46919 0.70555,-0.17992 0.40569,-1.26648 -0.29986,-1.08656 -0.77259,0.19403 -1.524,0.41628 -2.32834,0.43039 -0.72319,0.0106 -0.72672,1.13594 0,1.12536"
       style="fill:#2b4b16;fill-opacity:1;fill-rule:nonzero;stroke:none;stroke-width:0.0352778"
       id="path602" />
    <path
       d="m 11.673734,159.61799 c 0.269522,0.76553 0.689328,1.4605 0.900995,2.25072 0.18803,0.70203 1.274586,0.40217 1.086202,-0.29986 -0.212019,-0.79022 -0.631472,-1.48519 -0.901347,-2.25072 -0.239183,-0.68086 -1.327855,-0.38806 -1.08585,0.29986"
       style="fill:#2b4b16;fill-opacity:1;fill-rule:nonzero;stroke:none;stroke-width:0.0352778"
       id="path604" />
    <path
       d="m 28.437028,177.15105 c 1.218848,-0.0176 2.392186,-0.25753 3.528836,-0.69498 0.670278,-0.25752 0.379236,-1.34761 -0.299508,-1.08655 -1.045986,0.40216 -2.106083,0.63853 -3.229328,0.65616 -0.725664,0.0106 -0.726722,1.13595 0,1.12537"
       style="fill:#2b4b16;fill-opacity:1;fill-rule:nonzero;stroke:none;stroke-width:0.0352778"
       id="path606" />
    <path
       d="m 25.906553,178.78793 c 0.508,-0.56797 0.578909,-1.41816 0.370064,-2.12372 -0.204964,-0.69497 -1.292225,-0.39864 -1.086202,0.29986 0.09207,0.31045 0.113241,0.81139 -0.08043,1.02659 -0.4826,0.53975 0.31115,1.34055 0.796572,0.79727"
       style="fill:#2b4b16;fill-opacity:1;fill-rule:nonzero;stroke:none;stroke-width:0.0352778"
       id="path608" />
    <path
       d="m 28.62647,183.85735 c 0.451908,0.94545 0.673806,1.97908 1.126419,2.92806 0.312914,0.65616 1.284111,0.0811 0.972609,-0.56798 -0.451909,-0.94544 -0.673806,-1.98261 -1.12642,-2.93158 -0.312914,-0.65264 -1.284111,-0.0811 -0.972608,0.5715"
       style="fill:#2b4b16;fill-opacity:1;fill-rule:nonzero;stroke:none;stroke-width:0.0352778"
       id="path610" />
    <path
       d="m 38.349378,187.96368 c 0.900995,0 1.802342,0 2.703336,0 0.72637,0 0.72637,-1.12536 0,-1.12536 -0.900994,0 -1.802341,0 -2.703336,0 -0.726369,0 -0.726369,1.12536 0,1.12536"
       style="fill:#2b4b16;fill-opacity:1;fill-rule:nonzero;stroke:none;stroke-width:0.0352778"
       id="path612" />
    <path
       d="m 38.799875,184.58407 c 1.122186,-0.0141 2.262011,-0.28222 3.101622,-1.06539 0.532342,-0.49741 -0.266347,-1.29116 -0.796572,-0.79727 -0.614891,0.57502 -1.491544,0.72672 -2.30505,0.7373 -0.725664,0.0106 -0.726722,1.13595 0,1.12536"
       style="fill:#2b4b16;fill-opacity:1;fill-rule:nonzero;stroke:none;stroke-width:0.0352778"
       id="path614" />
    <path
       d="m 41.595992,180.56593 c 0.202494,-0.80786 0.392994,-1.62983 0.844197,-2.34244 0.38982,-0.61383 -0.585258,-1.17828 -0.972608,-0.56797 -0.502356,0.79375 -0.732367,1.71097 -0.958145,2.61408 -0.176388,0.70203 0.910167,1.00189 1.086556,0.29633"
       style="fill:#2b4b16;fill-opacity:1;fill-rule:nonzero;stroke:none;stroke-width:0.0352778"
       id="path616" />
    <path
       d="m 44.58155,183.8891 c 0.8255,-0.26105 1.773767,-0.40922 2.629606,-0.22578 0.707672,0.15523 1.008944,-0.93133 0.299155,-1.08655 -1.053394,-0.22578 -2.206272,-0.0953 -3.227916,0.22578 -0.690386,0.21872 -0.395464,1.30527 0.299155,1.08655"
       style="fill:#2b4b16;fill-opacity:1;fill-rule:nonzero;stroke:none;stroke-width:0.0352778"
       id="path618" />
    <path
       d="m 45.594375,190.3908 c 0.545747,-0.70909 1.270353,-1.30528 2.141361,-1.54517 0.699559,-0.1905 0.402167,-1.28058 -0.299508,-1.08656 -1.172281,0.32103 -2.085269,1.11831 -2.814814,2.06023 -0.443794,0.57502 0.535517,1.13594 0.972961,0.5715"
       style="fill:#2b4b16;fill-opacity:1;fill-rule:nonzero;stroke:none;stroke-width:0.0352778"
       id="path620" />
    <path
       d="m 45.783817,193.37177 c 0.726369,0 0.726369,-1.12536 0,-1.12536 -0.72637,0 -0.72637,1.12536 0,1.12536"
       style="fill:#2b4b16;fill-opacity:1;fill-rule:nonzero;stroke:none;stroke-width:0.0352778"
       id="path622" />
    <path
       d="m 46.008889,193.37177 c 0.450497,0 0.901347,0 1.351844,0 0.72637,0 0.72637,-1.12536 0,-1.12536 -0.450497,0 -0.901347,0 -1.351844,0 -0.726369,0 -0.726369,1.12536 0,1.12536"
       style="fill:#2b4b16;fill-opacity:1;fill-rule:nonzero;stroke:none;stroke-width:0.0352778"
       id="path624" />
    <path
       d="m 49.163075,185.71296 c 0.832203,0.0106 1.702506,0.1517 2.418997,0.59972 0.61842,0.38453 1.183217,-0.59266 0.568678,-0.97366 -0.881239,-0.55034 -1.963561,-0.73731 -2.987675,-0.75495 -0.727075,-0.0106 -0.726017,1.11831 0,1.12889"
       style="fill:#2b4b16;fill-opacity:1;fill-rule:nonzero;stroke:none;stroke-width:0.0352778"
       id="path626" />
    <path
       d="m 54.119956,182.78491 c 0.899583,0 1.802694,0 2.702277,0 0.726722,0 0.726722,-1.12889 0,-1.12889 -0.899583,0 -1.802694,0 -2.702277,0 -0.726723,0 -0.726723,1.12889 0,1.12889"
       style="fill:#2b4b16;fill-opacity:1;fill-rule:nonzero;stroke:none;stroke-width:0.0352778"
       id="path628" />
    <path
       d="m 57.273789,189.09257 c 0.832555,0.0106 1.643944,0.21167 2.4765,0.22225 0.726722,0.0141 0.726722,-1.11477 0,-1.12536 -0.832556,-0.0141 -1.643945,-0.21166 -2.4765,-0.22578 -0.726722,-0.0106 -0.726722,1.11478 0,1.12889"
       style="fill:#2b4b16;fill-opacity:1;fill-rule:nonzero;stroke:none;stroke-width:0.0352778"
       id="path630" />
    <path
       d="m 56.448289,193.57638 c 0.599722,0.20461 1.135944,0.49389 1.668639,0.84314 0.606777,0.40216 1.171222,-0.5715 0.567972,-0.97014 -0.610306,-0.4057 -1.245306,-0.7232 -1.93675,-0.95956 -0.691445,-0.23283 -0.98425,0.85373 -0.299861,1.08656"
       style="fill:#2b4b16;fill-opacity:1;fill-rule:nonzero;stroke:none;stroke-width:0.0352778"
       id="path632" />
    <path
       d="m 66.509511,193.59755 c 0.578555,0 1.107722,-0.0565 1.636889,-0.30339 0.278694,-0.13053 0.345722,-0.52564 0.201083,-0.76906 -0.165806,-0.28575 -0.490361,-0.33161 -0.769056,-0.20461 -0.335138,0.15875 -0.709083,0.14817 -1.068916,0.15169 -0.726722,0 -0.726722,1.12537 0,1.12537"
       style="fill:#2b4b16;fill-opacity:1;fill-rule:nonzero;stroke:none;stroke-width:0.0352778"
       id="path634" />
    <path
       d="m 67.409094,185.93874 c -0.09878,-0.0212 -0.123472,-0.0247 -0.06703,-0.0106 l -0.09172,-0.0388 c 0.04586,0.0282 0.02822,0.0141 -0.05997,-0.0494 0.03528,0.0282 0.0635,0.06 0.09525,0.0917 0.165805,0.14817 0.352778,0.21873 0.575028,0.22931 0.306916,0.0141 0.564444,-0.26458 0.564444,-0.56092 0,-0.3175 -0.257528,-0.55033 -0.564444,-0.56444 0.102305,0.0212 0.123472,0.0212 0.07055,0.0106 l 0.09172,0.0388 c -0.04939,-0.0317 -0.02822,-0.0141 0.05997,0.0494 -0.03528,-0.0282 -0.0635,-0.0635 -0.09525,-0.0917 -0.165806,-0.14816 -0.352778,-0.22225 -0.578556,-0.23283 -0.306917,-0.0141 -0.560917,0.26811 -0.560917,0.56445 0,0.3175 0.257528,0.55033 0.560917,0.56444"
       style="fill:#2b4b16;fill-opacity:1;fill-rule:nonzero;stroke:none;stroke-width:0.0352778"
       id="path636" />
    <path
       d="m 61.044983,192.1688 c 0.656167,0.3175 1.351139,0.51152 2.084917,0.52563 0.726722,0.0176 0.726722,-1.10772 0,-1.12536 -0.525639,-0.0106 -1.044222,-0.14464 -1.516945,-0.37394 -0.652639,-0.31397 -1.224138,0.65617 -0.567972,0.97367"
       style="fill:#2b4b16;fill-opacity:1;fill-rule:nonzero;stroke:none;stroke-width:0.0352778"
       id="path638" />
    <path
       d="m 133.19156,183.00716 c 0.67734,0 1.35467,0 2.02848,0 0.72672,0 0.72672,-1.12536 0,-1.12536 -0.67381,0 -1.35114,0 -2.02848,0 -0.72319,0 -0.72319,1.12536 0,1.12536"
       style="fill:#2b4b16;fill-opacity:1;fill-rule:nonzero;stroke:none;stroke-width:0.0352778"
       id="path640" />
    <path
       d="m 138.09518,194.33132 c 0.45155,-0.44802 0.90311,-0.89958 1.35466,-1.35114 0.51153,-0.51152 -0.28222,-1.3088 -0.79728,-0.79375 -0.45155,0.44803 -0.90311,0.89959 -1.35113,1.35114 -0.51506,0.51153 0.28222,1.30881 0.79375,0.79375"
       style="fill:#2b4b16;fill-opacity:1;fill-rule:nonzero;stroke:none;stroke-width:0.0352778"
       id="path642" />
    <path
       d="m 126.0972,196.63849 c 0,-0.0353 0,-0.0706 0.004,-0.10936 -0.0141,0.17639 -0.004,0.0388 0.0106,-0.007 0.0353,-0.14464 -0.0459,0.0776 -0.004,0 0.067,-0.12347 -0.067,0.0706 -0.007,0.007 0.0706,-0.0741 -0.11641,0.0811 -0.0318,0.0212 0.11995,-0.0776 -0.0952,0.0282 -0.007,-0.004 0.0388,-0.0141 0.0811,-0.0212 0.12347,-0.0282 -0.17992,0.0317 -0.0212,0.007 0.0247,0.007 0.30692,-0.004 0.56092,-0.254 0.56092,-0.56444 0,-0.30339 -0.254,-0.56798 -0.56092,-0.56092 -0.33866,0.004 -0.65616,0.0952 -0.90664,0.33161 -0.24341,0.23283 -0.32808,0.58208 -0.33161,0.90664 -0.007,0.30692 0.25753,0.56444 0.56092,0.56444 0.31044,0 0.56092,-0.25752 0.56444,-0.56444"
       style="fill:#2b4b16;fill-opacity:1;fill-rule:nonzero;stroke:none;stroke-width:0.0352778"
       id="path644" />
    <path
       d="m 154.22065,182.53796 c 0.56091,0.18697 1.13241,0.35984 1.66864,0.61736 0.64911,0.3175 1.22061,-0.65616 0.56797,-0.97014 -0.62442,-0.30338 -1.28411,-0.51505 -1.93675,-0.73377 -0.69145,-0.22931 -0.98778,0.85725 -0.29986,1.08655"
       style="fill:#2b4b16;fill-opacity:1;fill-rule:nonzero;stroke:none;stroke-width:0.0352778"
       id="path646" />
    <path
       d="m 160.6024,177.58143 c 0.66322,-0.20461 1.36172,-0.24341 2.02847,-0.45155 0.69144,-0.2152 0.39511,-1.30175 -0.29986,-1.08656 -0.66322,0.20814 -1.36525,0.24695 -2.02847,0.45156 -0.69145,0.21519 -0.39511,1.30175 0.29986,1.08655"
       style="fill:#2b4b16;fill-opacity:1;fill-rule:nonzero;stroke:none;stroke-width:0.0352778"
       id="path648" />
    <path
       d="m 23.872437,185.1838 c 0.677686,0.45155 1.330325,0.91722 1.913466,1.48872 0.518584,0.51153 1.315509,-0.28575 0.796573,-0.79728 -0.649817,-0.635 -1.386064,-1.16064 -2.141714,-1.66511 -0.606072,-0.40217 -1.169459,0.57503 -0.568325,0.97367"
       style="fill:#2b4b16;fill-opacity:1;fill-rule:nonzero;stroke:none;stroke-width:0.0352778"
       id="path650" />
    <path
       d="m 19.010806,179.57463 c 0.712259,-0.93133 1.540228,-1.76742 2.252839,-2.70228 0.440972,-0.57855 -0.538339,-1.13947 -0.972608,-0.56797 -0.712258,0.93133 -1.540228,1.77094 -2.252839,2.70228 -0.440972,0.57855 0.538339,1.13947 0.972608,0.56797"
       style="fill:#2b4b16;fill-opacity:1;fill-rule:nonzero;stroke:none;stroke-width:0.0352778"
       id="path652" />
    <path
       d="m 24.156776,170.84338 c 0.763764,0.0212 1.328208,0.4445 1.854552,0.96308 0.518584,0.508 1.315156,-0.28928 0.796573,-0.79728 -0.74542,-0.73377 -1.58115,-1.26294 -2.651125,-1.29116 -0.727075,-0.0212 -0.725311,1.10772 0,1.12536"
       style="fill:#2b4b16;fill-opacity:1;fill-rule:nonzero;stroke:none;stroke-width:0.0352778"
       id="path654" />
    <path
       d="m 32.041712,182.78491 c 0.675569,0 1.351491,0 2.027413,0 0.72637,0 0.72637,-1.12889 0,-1.12889 -0.675922,0 -1.351844,0 -2.027413,0 -0.726723,0 -0.726723,1.12889 0,1.12889"
       style="fill:#2b4b16;fill-opacity:1;fill-rule:nonzero;stroke:none;stroke-width:0.0352778"
       id="path656" />
    <path
       d="m 34.161553,178.08943 c 0.206728,-0.89252 0.24377,-1.80975 0.450497,-2.70227 0.164042,-0.70909 -0.922161,-1.00895 -1.086202,-0.29986 -0.206728,0.89252 -0.24377,1.80975 -0.450498,2.70227 -0.164041,0.70556 0.922162,1.00895 1.086203,0.29986"
       style="fill:#2b4b16;fill-opacity:1;fill-rule:nonzero;stroke:none;stroke-width:0.0352778"
       id="path658" />
    <path
       d="m 44.206547,178.50218 c 0.712259,0 1.417461,-0.0106 2.103261,0.20462 0.695325,0.21872 0.990248,-0.86784 0.299509,-1.08303 -0.778934,-0.24695 -1.594203,-0.24695 -2.40277,-0.24695 -0.726369,0 -0.726369,1.12536 0,1.12536"
       style="fill:#2b4b16;fill-opacity:1;fill-rule:nonzero;stroke:none;stroke-width:0.0352778"
       id="path660" />
    <path
       d="m 35.195545,190.66949 c 0.900994,0 1.801989,0 2.703336,0 0.726369,0 0.726369,-1.12889 0,-1.12889 -0.901347,0 -1.802342,0 -2.703336,0 -0.726722,0 -0.726722,1.12889 0,1.12889"
       style="fill:#2b4b16;fill-opacity:1;fill-rule:nonzero;stroke:none;stroke-width:0.0352778"
       id="path662" />
  </g>
</svg>
