<svg width="699" height="334" viewBox="0 0 699 334" fill="none" xmlns="http://www.w3.org/2000/svg">
<g clip-path="url(#clip0_141_573)">
<path d="M632.26 60.563C582.14 36.083 110.314 29.0563 52.4151 64.8163C-1.22753 98.8697 -1.22759 169.55 0.476408 196.79C2.17907 224.043 35.3857 338.136 347.02 333.03C658.66 327.923 682.66 235.176 691.86 218.083C703.78 195.936 705.487 96.323 632.26 60.563" fill="#D8772E"/>
<path d="M318.927 0.109695C112.878 2.69636 14.0991 68.2163 14.0991 138.043C14.0991 202.843 133.303 250.43 310.407 255.536C487.514 260.656 660.354 212.976 673.127 142.296C685.554 73.5763 589.687 -3.30364 318.927 0.109695Z" fill="#ED974A"/>
<path d="M26.0191 141.443C26.8711 170.403 55.8217 204.456 131.6 224.043C283.154 263.203 475.994 246.776 470.487 238.51C463.674 228.296 388.9 260.576 161.402 218.083C124.35 211.15 93.2897 199.043 73.7017 183.163C52.3284 165.856 44.1044 144.616 43.9004 134.63C43.0484 92.9096 72.851 81.843 61.7817 76.7363C55.5484 73.8563 24.5164 90.323 26.0191 141.443Z" fill="#F7B669"/>
<path d="M179.007 21.8697C171.141 22.363 152.338 42.603 119.385 83.3363C86.4326 124.056 55.8339 161.083 69.1713 165.523C82.5099 169.963 117.031 122.576 138.215 93.6964C159.399 64.8164 202.554 20.3897 179.007 21.8697" fill="#D8772E"/>
<path d="M279.754 15.3363C271.234 16.0563 229.674 67.7496 195.154 110.883C160.618 154.016 124.66 198.736 139.264 203.016C153.867 207.283 193.767 151.696 215.887 121.163C238.007 90.6429 305.247 13.2029 279.754 15.3363Z" fill="#D8772E"/>
<path d="M391.3 14.563C382.807 15.4963 339.327 79.3896 306.78 123.763C274.234 168.136 231.22 220.71 252.514 220.71C267.86 220.71 307.247 164.59 327.967 133.27C348.674 101.95 426.207 10.723 391.3 14.563" fill="#D8772E"/>
<path d="M507.354 25.443C498.834 24.7097 454.594 82.1364 420.794 125.736C387.007 169.336 342.501 220.883 363.781 221.376C379.127 221.736 420.114 166.563 441.714 135.736C463.314 104.896 531.994 27.5497 507.354 25.443Z" fill="#D8772E"/>
<path d="M605.141 55.2697C598.287 54.8563 564.007 101.15 537.821 136.296C511.634 171.443 477.021 213.096 494.127 213.083C506.461 213.07 538.167 168.616 554.834 143.803C571.514 119.003 624.981 56.4697 605.141 55.2697Z" fill="#D8772E"/>
<path d="M35.2512 202.123C36.8378 205.003 40.1699 207.07 42.8259 208.843C45.1125 210.376 47.2405 206.696 44.9752 205.176C42.9365 203.803 40.1458 202.19 38.9272 199.976C37.6032 197.563 33.9272 199.723 35.2512 202.123" fill="#ED974A"/>
<path d="M24.7419 212.123C24.8526 217.136 26.3806 221.696 28.2246 226.31C29.2299 228.83 33.3486 227.723 32.3299 225.176C30.6339 220.936 29.1019 216.75 29.0006 212.123C28.9392 209.376 24.6833 209.376 24.7419 212.123" fill="#ED974A"/>
<path d="M43.6778 226.723C45.6058 227.79 46.8432 230.15 48.0218 231.923C49.5378 234.203 53.2271 232.07 51.6991 229.776C50.0991 227.376 48.4339 224.483 45.8259 223.056C43.4192 221.736 41.2712 225.403 43.6778 226.723" fill="#ED974A"/>
<path d="M47.0832 252.27C51.4832 254.83 56.3072 256.523 60.7072 259.083C63.0859 260.47 65.2272 256.79 62.8552 255.403C58.4565 252.856 53.6312 251.15 49.2325 248.603C46.8538 247.216 44.7112 250.896 47.0832 252.27" fill="#ED974A"/>
<path d="M85.6217 267.883C89.8791 267.883 94.1364 267.883 98.3937 267.883C101.139 267.883 101.139 263.63 98.3937 263.63C94.1364 263.63 89.8791 263.63 85.6217 263.63C82.8764 263.63 82.8764 267.883 85.6217 267.883Z" fill="#ED974A"/>
<path d="M70.2951 248.31C74.3871 248.31 78.4658 248.336 82.5018 249.083C85.1845 249.576 86.3311 245.47 83.6338 244.976C79.2151 244.163 74.7778 244.043 70.2951 244.043C67.5498 244.043 67.5498 248.31 70.2951 248.31Z" fill="#ED974A"/>
<path d="M66.6045 226.096C70.0098 225.243 73.4818 224.363 76.4791 222.47C78.7911 221.003 76.6565 217.323 74.3298 218.79C71.6378 220.496 68.5298 221.216 65.4725 221.99C62.8111 222.656 63.9405 226.763 66.6045 226.096" fill="#ED974A"/>
<path d="M98.1711 233.536C101.972 235.51 105.339 238.336 107.958 241.723C109.635 243.896 112.626 240.856 110.969 238.71C108.157 235.07 104.402 231.976 100.32 229.87C97.8858 228.603 95.7325 232.283 98.1711 233.536" fill="#ED974A"/>
<path d="M96.8884 248.536C99.1564 250.803 101.476 253.016 104.131 254.83C106.406 256.376 108.532 252.683 106.28 251.15C103.931 249.55 101.904 247.523 99.8991 245.523C97.9564 243.576 94.9457 246.59 96.8884 248.536Z" fill="#ED974A"/>
<path d="M111.733 293.363C115.422 292.43 119.021 291.39 122.458 289.736C124.93 288.536 122.77 284.87 120.309 286.056C117.214 287.55 113.921 288.416 110.601 289.256C107.938 289.923 109.069 294.03 111.733 293.363" fill="#ED974A"/>
<path d="M91.5818 281.51C93.2858 281.51 94.9885 281.51 96.6911 281.51C99.4365 281.51 99.4365 277.256 96.6911 277.256C94.9885 277.256 93.2858 277.256 91.5818 277.256C88.8365 277.256 88.8365 281.51 91.5818 281.51Z" fill="#ED974A"/>
<path d="M125.355 272.923C128.807 272.11 132.333 272.15 135.858 272.15C138.603 272.15 138.603 267.883 135.858 267.883C131.947 267.896 128.051 267.923 124.223 268.816C121.55 269.443 122.685 273.55 125.355 272.923Z" fill="#ED974A"/>
<path d="M127.628 252.483C131.304 253.403 134.984 254.283 138.698 255.043C141.378 255.59 142.519 251.483 139.83 250.936C136.116 250.19 132.436 249.296 128.76 248.376C126.096 247.71 124.966 251.816 127.628 252.483Z" fill="#ED974A"/>
<path d="M149.679 250.23C151.471 251.79 154.051 251.71 156.294 251.71C159.039 251.71 159.039 247.456 156.294 247.456C155.53 247.456 154.767 247.443 154.004 247.403C153.707 247.376 153.442 247.35 153.16 247.296C152.839 247.23 152.495 247.056 152.69 247.23C151.814 246.47 150.543 246.363 149.679 247.23C148.903 248.003 148.802 249.47 149.679 250.23Z" fill="#ED974A"/>
<path d="M185.247 272.15C188.5 272.15 191.714 272.19 194.9 272.923C197.567 273.536 198.7 269.43 196.02 268.816C192.474 267.99 188.874 267.896 185.247 267.883C182.5 267.883 182.5 272.15 185.247 272.15" fill="#ED974A"/>
<path d="M156.294 287.47C159.415 287.47 162.538 287.47 165.661 287.47C168.407 287.47 168.407 283.216 165.661 283.216C162.538 283.216 159.415 283.216 156.294 283.216C153.547 283.216 153.547 287.47 156.294 287.47Z" fill="#ED974A"/>
<path d="M150.11 299.95C153.669 302.616 157.281 305.136 161.687 306.123C164.367 306.736 165.501 302.63 162.821 302.03C158.773 301.11 155.522 298.723 152.259 296.283C150.059 294.63 147.941 298.323 150.11 299.95Z" fill="#ED974A"/>
<path d="M194.9 309.536C198.26 310.31 201.74 310.456 205.114 311.243C207.78 311.856 208.914 307.75 206.247 307.136C202.874 306.35 199.394 306.216 196.02 305.43C193.354 304.816 192.22 308.91 194.9 309.536Z" fill="#ED974A"/>
<path d="M212.487 289.176C215.354 289.123 218.14 288.363 221.007 288.323C223.74 288.283 223.754 284.03 221.007 284.07C218.14 284.11 215.354 284.856 212.487 284.923C209.754 284.976 209.74 289.23 212.487 289.176Z" fill="#ED974A"/>
<path d="M237.181 274.696C239.967 274.696 242.727 274.603 245.407 273.776C248.021 272.963 246.914 268.856 244.274 269.67C241.954 270.39 239.607 270.443 237.181 270.443C234.434 270.443 234.434 274.696 237.181 274.696" fill="#ED974A"/>
<path d="M198.86 257.67C201.7 257.67 204.54 257.67 207.38 257.67C210.127 257.67 210.127 253.416 207.38 253.416C204.54 253.416 201.7 253.416 198.86 253.416C196.127 253.416 196.127 257.67 198.86 257.67Z" fill="#ED974A"/>
<path d="M287.194 305.056C290.407 306.536 294.78 307.123 298.207 306.123C300.834 305.363 299.714 301.256 297.074 302.03C294.807 302.683 291.501 302.376 289.341 301.39C286.861 300.256 284.7 303.923 287.194 305.056" fill="#ED974A"/>
<path d="M244.621 313.576C248.527 316.376 253.234 317.923 257.901 318.896C260.581 319.456 261.714 315.363 259.034 314.79C254.687 313.883 250.421 312.51 246.767 309.896C244.527 308.296 242.407 311.99 244.621 313.576Z" fill="#ED974A"/>
<path d="M260.167 293.43C263.821 293.323 266.794 291.71 269.754 289.736C272.034 288.216 269.9 284.536 267.607 286.056C265.3 287.59 263.021 289.096 260.167 289.176C257.434 289.256 257.421 293.51 260.167 293.43" fill="#ED974A"/>
<path d="M290.821 273.843C295.101 273.79 299.327 273.056 303.594 273.003C306.341 272.963 306.341 268.696 303.594 268.736C299.327 268.803 295.101 269.523 290.821 269.59C288.087 269.63 288.074 273.883 290.821 273.843Z" fill="#ED974A"/>
<path d="M340.834 275.256C343.741 277.11 347.114 278.03 350.207 279.523C352.66 280.71 354.82 277.043 352.354 275.843C349.274 274.35 345.887 273.43 342.981 271.59C340.661 270.11 338.527 273.803 340.834 275.256Z" fill="#ED974A"/>
<path d="M331.127 295.91C332.887 296.483 334.9 296.603 336.58 297.403C337.634 297.896 338.874 297.696 339.487 296.63C340.034 295.696 339.78 294.216 338.727 293.723C336.66 292.75 334.42 292.496 332.26 291.803C329.634 290.963 328.527 295.07 331.127 295.91" fill="#ED974A"/>
<path d="M330.207 322.096C331.927 321.323 334.127 321.536 335.954 321.536C338.7 321.523 338.7 317.27 335.954 317.27C333.26 317.27 330.567 317.283 328.06 318.416C327.007 318.896 326.767 320.403 327.301 321.323C327.927 322.403 329.154 322.576 330.207 322.096" fill="#ED974A"/>
<path d="M399.807 294.283C403.234 294.23 406.447 293.336 409.74 292.51C412.407 291.83 411.274 287.723 408.607 288.403C405.687 289.136 402.847 289.976 399.807 290.03C397.074 290.07 397.061 294.323 399.807 294.283" fill="#ED974A"/>
<path d="M6.08722 172.67C7.10588 175.563 8.69257 178.203 9.49257 181.176C10.2032 183.83 14.3099 182.71 13.5979 180.043C12.7965 177.056 11.2112 174.43 10.1912 171.536C9.28722 168.963 5.17255 170.07 6.08722 172.67Z" fill="#ED974A"/>
<path d="M69.4444 238.936C74.051 238.87 78.4857 237.963 82.7817 236.31C85.315 235.336 84.215 231.216 81.6497 232.203C77.6964 233.723 73.6897 234.616 69.4444 234.683C66.7017 234.723 66.6977 238.976 69.4444 238.936Z" fill="#ED974A"/>
<path d="M59.8805 245.123C61.8005 242.976 62.0684 239.763 61.2791 237.096C60.5044 234.47 56.3951 235.59 57.1738 238.23C57.5218 239.403 57.6018 241.296 56.8698 242.123C55.0458 244.15 58.0458 247.176 59.8805 245.123" fill="#ED974A"/>
<path d="M70.1603 264.283C71.8683 267.856 72.707 271.763 74.4177 275.35C75.6003 277.83 79.271 275.67 78.0937 273.203C76.3857 269.63 75.547 265.71 73.8364 262.136C72.6537 259.656 68.983 261.816 70.1603 264.283Z" fill="#ED974A"/>
<path d="M106.908 279.803C110.314 279.803 113.72 279.803 117.126 279.803C119.871 279.803 119.871 275.55 117.126 275.55C113.72 275.55 110.314 275.55 106.908 275.55C104.163 275.55 104.163 279.803 106.908 279.803Z" fill="#ED974A"/>
<path d="M108.611 267.043C112.852 266.976 117.16 265.976 120.334 263.003C122.346 261.136 119.327 258.123 117.323 260.003C114.999 262.163 111.686 262.736 108.611 262.776C105.868 262.816 105.864 267.07 108.611 267.043Z" fill="#ED974A"/>
<path d="M119.179 251.856C119.944 248.79 120.664 245.683 122.37 242.99C123.843 240.67 120.158 238.536 118.694 240.843C116.795 243.843 115.926 247.31 115.072 250.723C114.406 253.39 118.512 254.51 119.179 251.856" fill="#ED974A"/>
<path d="M130.463 264.403C133.583 263.416 137.167 262.856 140.402 263.55C143.076 264.136 144.215 260.03 141.532 259.456C137.551 258.59 133.194 259.083 129.332 260.296C126.723 261.123 127.838 265.23 130.463 264.403" fill="#ED974A"/>
<path d="M134.291 288.976C136.354 286.296 139.092 284.043 142.385 283.136C145.029 282.416 143.905 278.31 141.253 279.03C136.822 280.256 133.371 283.256 130.614 286.83C128.936 289.003 132.638 291.11 134.291 288.976Z" fill="#ED974A"/>
<path d="M135.007 300.243C137.752 300.243 137.752 295.99 135.007 295.99C132.262 295.99 132.262 300.243 135.007 300.243Z" fill="#ED974A"/>
<path d="M135.858 300.243C137.56 300.243 139.265 300.243 140.967 300.243C143.713 300.243 143.713 295.99 140.967 295.99C139.265 295.99 137.56 295.99 135.858 295.99C133.112 295.99 133.112 300.243 135.858 300.243Z" fill="#ED974A"/>
<path d="M147.779 271.296C150.924 271.336 154.214 271.87 156.922 273.563C159.259 275.016 161.394 271.336 159.071 269.883C155.741 267.803 151.65 267.096 147.779 267.043C145.031 267.003 145.035 271.256 147.779 271.296" fill="#ED974A"/>
<path d="M166.514 260.23C169.914 260.23 173.327 260.23 176.727 260.23C179.474 260.23 179.474 255.963 176.727 255.963C173.327 255.963 169.914 255.963 166.514 255.963C163.767 255.963 163.767 260.23 166.514 260.23Z" fill="#ED974A"/>
<path d="M178.434 284.07C181.581 284.123 184.647 284.87 187.794 284.923C190.541 284.963 190.541 280.71 187.794 280.656C184.647 280.603 181.581 279.856 178.434 279.803C175.687 279.763 175.687 284.016 178.434 284.07Z" fill="#ED974A"/>
<path d="M175.314 301.016C177.58 301.79 179.607 302.896 181.62 304.216C183.914 305.723 186.047 302.043 183.767 300.536C181.46 299.016 179.06 297.803 176.447 296.91C173.834 296.03 172.727 300.136 175.314 301.016" fill="#ED974A"/>
<path d="M213.341 301.096C215.527 301.096 217.527 300.883 219.527 299.95C220.58 299.47 220.834 297.976 220.287 297.043C219.66 295.976 218.434 295.79 217.38 296.283C216.114 296.87 214.701 296.843 213.341 296.843C210.594 296.843 210.594 301.096 213.341 301.096" fill="#ED974A"/>
<path d="M216.74 272.15C216.367 272.07 216.274 272.07 216.487 272.11L216.141 271.963C216.314 272.083 216.247 272.016 215.914 271.776C216.047 271.883 216.154 272.003 216.274 272.123C216.9 272.683 217.607 272.963 218.447 273.003C219.607 273.056 220.58 271.99 220.58 270.87C220.58 269.67 219.607 268.79 218.447 268.736C218.834 268.816 218.914 268.816 218.714 268.776L219.06 268.923C218.874 268.803 218.954 268.87 219.287 269.11C219.154 269.003 219.047 268.883 218.927 268.763C218.3 268.203 217.594 267.923 216.74 267.883C215.58 267.83 214.62 268.896 214.62 270.016C214.62 271.216 215.594 272.096 216.74 272.15Z" fill="#ED974A"/>
<path d="M192.687 295.696C195.167 296.896 197.794 297.63 200.567 297.696C203.314 297.75 203.314 293.496 200.567 293.43C198.581 293.39 196.621 292.883 194.834 292.016C192.367 290.83 190.207 294.496 192.687 295.696" fill="#ED974A"/>
<path d="M465.367 261.083C467.927 261.083 470.487 261.083 473.034 261.083C475.78 261.083 475.78 256.816 473.034 256.816C470.487 256.816 467.927 256.816 465.367 256.816C462.634 256.816 462.634 261.083 465.367 261.083Z" fill="#ED974A"/>
<path d="M483.901 303.883C485.607 302.176 487.314 300.47 489.021 298.763C490.954 296.83 487.954 293.816 486.007 295.763C484.301 297.456 482.594 299.163 480.901 300.87C478.954 302.816 481.967 305.816 483.901 303.883Z" fill="#ED974A"/>
<path d="M438.554 312.59C438.554 312.456 438.554 312.323 438.567 312.176C438.514 312.843 438.554 312.323 438.607 312.15C438.741 311.603 438.434 312.456 438.594 312.15C438.847 311.683 438.341 312.43 438.567 312.176C438.834 311.896 438.127 312.483 438.447 312.256C438.901 311.963 438.087 312.376 438.421 312.243C438.567 312.19 438.727 312.163 438.887 312.136C438.207 312.256 438.807 312.163 438.981 312.163C440.141 312.15 441.101 311.203 441.101 310.043C441.101 308.883 440.141 307.896 438.981 307.91C437.701 307.923 436.5 308.27 435.554 309.163C434.634 310.043 434.314 311.363 434.301 312.59C434.274 313.75 435.274 314.723 436.421 314.723C437.594 314.723 438.54 313.75 438.554 312.59" fill="#ED974A"/>
<path d="M544.847 259.296C546.967 260.003 549.127 260.656 551.154 261.643C553.607 262.83 555.767 259.163 553.301 257.963C550.941 256.816 548.447 256.016 545.981 255.19C543.367 254.323 542.247 258.43 544.847 259.296Z" fill="#ED974A"/>
<path d="M568.967 240.563C571.474 239.79 574.114 239.643 576.634 238.87C579.247 238.056 578.127 233.936 575.501 234.763C572.994 235.536 570.341 235.683 567.834 236.456C565.221 237.27 566.341 241.376 568.967 240.563Z" fill="#ED974A"/>
<path d="M52.1925 269.296C54.7538 271.016 57.2205 272.763 59.4245 274.923C61.3845 276.856 64.3965 273.843 62.4352 271.923C59.9792 269.51 57.1965 267.536 54.3405 265.63C52.0499 264.096 49.9205 267.79 52.1925 269.296Z" fill="#ED974A"/>
<path d="M33.8179 248.096C36.5099 244.576 39.6392 241.416 42.3326 237.883C43.9992 235.696 40.2979 233.59 38.6565 235.736C35.9645 239.256 32.8352 242.43 30.1419 245.95C28.4752 248.136 32.1766 250.256 33.8179 248.096Z" fill="#ED974A"/>
<path d="M53.2671 215.096C56.1538 215.176 58.2871 216.776 60.2765 218.736C62.2365 220.656 65.2471 217.643 63.2871 215.723C60.4698 212.963 57.3111 210.95 53.2671 210.843C50.5191 210.763 50.5258 215.03 53.2671 215.096Z" fill="#ED974A"/>
<path d="M83.0685 260.23C85.6219 260.23 88.1766 260.23 90.7312 260.23C93.4766 260.23 93.4766 255.963 90.7312 255.963C88.1766 255.963 85.6219 255.963 83.0685 255.963C80.3219 255.963 80.3219 260.23 83.0685 260.23Z" fill="#ED974A"/>
<path d="M91.0805 242.483C91.8618 239.11 92.0019 235.643 92.7832 232.27C93.4032 229.603 89.2978 228.456 88.6778 231.136C87.8965 234.51 87.7565 237.976 86.9752 241.35C86.3552 244.03 90.4605 245.163 91.0805 242.483Z" fill="#ED974A"/>
<path d="M129.046 244.043C131.738 244.043 134.403 244.016 136.995 244.816C139.623 245.643 140.738 241.536 138.127 240.723C135.183 239.803 132.102 239.79 129.046 239.79C126.3 239.79 126.3 244.043 129.046 244.043" fill="#ED974A"/>
<path d="M94.9885 290.03C98.3938 290.03 101.799 290.03 105.206 290.03C107.951 290.03 107.951 285.763 105.206 285.763C101.799 285.763 98.3938 285.763 94.9885 285.763C92.2418 285.763 92.2418 290.03 94.9885 290.03Z" fill="#ED974A"/>
</g>
<defs>
<clipPath id="clip0_141_573">
<rect width="698.083" height="333.196" fill="white"/>
</clipPath>
</defs>
</svg>
