<?xml version="1.0" encoding="UTF-8" standalone="no"?>
<!-- Created with Inkscape (http://www.inkscape.org/) -->

<svg
   width="184.70126mm"
   height="88.158066mm"
   viewBox="0 0 184.70126 88.158066"
   version="1.1"
   id="svg11176"
   inkscape:version="1.1.1 (3bf5ae0d25, 2021-09-20)"
   sodipodi:docname="burger-chicken.svg"
   xmlns:inkscape="http://www.inkscape.org/namespaces/inkscape"
   xmlns:sodipodi="http://sodipodi.sourceforge.net/DTD/sodipodi-0.dtd"
   xmlns="http://www.w3.org/2000/svg"
   xmlns:svg="http://www.w3.org/2000/svg">
  <sodipodi:namedview
     id="namedview11178"
     pagecolor="#505050"
     bordercolor="#ffffff"
     borderopacity="1"
     inkscape:pageshadow="0"
     inkscape:pageopacity="0"
     inkscape:pagecheckerboard="1"
     inkscape:document-units="mm"
     showgrid="false"
     inkscape:zoom="0.72337262"
     inkscape:cx="325.55836"
     inkscape:cy="209.43563"
     inkscape:window-width="1920"
     inkscape:window-height="1001"
     inkscape:window-x="-9"
     inkscape:window-y="-9"
     inkscape:window-maximized="1"
     inkscape:current-layer="layer1" />
  <defs
     id="defs11173" />
  <g
     inkscape:label="Layer 1"
     inkscape:groupmode="layer"
     id="layer1"
     transform="translate(-18.841483,-93.448065)">
    <g
       id="g10956"
       transform="matrix(0.35277777,0,0,-0.35277777,-290.8708,227.88189)">
      <path
         d="m 1352.12,335.65 c -37.59,18.36 -391.46,23.63 -434.884,-3.19 -40.232,-25.54 -40.232,-78.55 -38.954,-98.98 1.277,-20.44 26.182,-106.01 259.908,-102.18 233.73,3.83 251.73,73.39 258.63,86.21 8.94,16.61 10.22,91.32 -44.7,118.14"
         style="fill:#d8772e;fill-opacity:1;fill-rule:nonzero;stroke:none;stroke-width:0.1"
         id="path664" />
      <path
         d="M 1117.12,380.99 C 962.583,379.05 888.499,329.91 888.499,277.54 c 0,-48.6 89.403,-84.29 222.231,-88.12 132.83,-3.84 262.46,31.92 272.04,84.93 9.32,51.54 -62.58,109.2 -265.65,106.64"
         style="fill:#ed974a;fill-opacity:1;fill-rule:nonzero;stroke:none;stroke-width:0.1"
         id="path666" />
      <path
         d="m 897.439,274.99 c 0.639,-21.72 22.352,-47.26 79.186,-61.95 113.665,-29.37 258.295,-17.05 254.165,-10.85 -5.11,7.66 -61.19,-16.55 -231.814,15.32 -27.789,5.2 -51.084,14.28 -65.775,26.19 -16.03,12.98 -22.198,28.91 -22.351,36.4 -0.639,31.29 21.713,39.59 13.411,43.42 -4.675,2.16 -27.949,-10.19 -26.822,-48.53"
         style="fill:#f7b669;fill-opacity:1;fill-rule:nonzero;stroke:none;stroke-width:0.1"
         id="path668" />
      <path
         d="m 1012.18,364.67 c -5.9,-0.37 -20.002,-15.55 -44.717,-46.1 -24.714,-30.54 -47.663,-58.31 -37.66,-61.64 10.004,-3.33 35.895,32.21 51.783,53.87 15.888,21.66 48.254,54.98 30.594,53.87"
         style="fill:#d8772e;fill-opacity:1;fill-rule:nonzero;stroke:none;stroke-width:0.1"
         id="path670" />
      <path
         d="m 1087.74,369.57 c -6.39,-0.54 -37.56,-39.31 -63.45,-71.66 -25.902,-32.35 -52.87,-65.89 -41.917,-69.1 10.952,-3.2 40.877,38.49 57.467,61.39 16.59,22.89 67.02,80.97 47.9,79.37"
         style="fill:#d8772e;fill-opacity:1;fill-rule:nonzero;stroke:none;stroke-width:0.1"
         id="path672" />
      <path
         d="m 1171.4,370.15 c -6.37,-0.7 -38.98,-48.62 -63.39,-81.9 -24.41,-33.28 -56.67,-72.71 -40.7,-72.71 11.51,0 41.05,42.09 56.59,65.58 15.53,23.49 73.68,91.91 47.5,89.03"
         style="fill:#d8772e;fill-opacity:1;fill-rule:nonzero;stroke:none;stroke-width:0.1"
         id="path674" />
      <path
         d="m 1258.44,361.99 c -6.39,0.55 -39.57,-42.52 -64.92,-75.22 -25.34,-32.7 -58.72,-71.36 -42.76,-71.73 11.51,-0.27 42.25,41.11 58.45,64.23 16.2,23.13 67.71,81.14 49.23,82.72"
         style="fill:#d8772e;fill-opacity:1;fill-rule:nonzero;stroke:none;stroke-width:0.1"
         id="path676" />
      <path
         d="m 1331.78,339.62 c -5.14,0.31 -30.85,-34.41 -50.49,-60.77 -19.64,-26.36 -45.6,-57.6 -32.77,-57.59 9.25,0.01 33.03,33.35 45.53,51.96 12.51,18.6 52.61,65.5 37.73,66.4"
         style="fill:#d8772e;fill-opacity:1;fill-rule:nonzero;stroke:none;stroke-width:0.1"
         id="path678" />
      <path
         d="m 933.368,308.73 c 1.687,0.8 3.596,1.18 5.366,1.76 1.948,0.63 1.114,3.72 -0.849,3.07 -2.046,-0.67 -4.177,-1.15 -6.129,-2.07 -1.859,-0.88 -0.238,-3.64 1.612,-2.76"
         style="fill:#d8772e;fill-opacity:1;fill-rule:nonzero;stroke:none;stroke-width:0.1"
         id="path680" />
      <path
         d="m 935.755,322.56 c 1.65,-0.03 3.143,-0.69 4.684,-1.22 1.956,-0.66 2.788,2.42 0.85,3.08 -1.837,0.63 -3.567,1.29 -5.534,1.33 -2.06,0.05 -2.056,-3.14 0,-3.19"
         style="fill:#d8772e;fill-opacity:1;fill-rule:nonzero;stroke:none;stroke-width:0.1"
         id="path682" />
      <path
         d="m 949.953,334.52 c 1.484,-1.44 3.228,-2.3 5.174,-2.96 1.956,-0.66 2.788,2.42 0.849,3.08 -1.418,0.48 -2.684,1.09 -3.766,2.14 -1.474,1.44 -3.734,-0.82 -2.257,-2.26"
         style="fill:#d8772e;fill-opacity:1;fill-rule:nonzero;stroke:none;stroke-width:0.1"
         id="path684" />
      <path
         d="m 950.443,318.73 c 2.022,0 4.042,0.01 5.914,0.86 0.793,0.36 0.978,1.49 0.573,2.18 -0.473,0.81 -1.391,0.93 -2.184,0.57 -1.281,-0.58 -2.938,-0.42 -4.303,-0.42 -2.059,0 -2.059,-3.19 0,-3.19"
         style="fill:#d8772e;fill-opacity:1;fill-rule:nonzero;stroke:none;stroke-width:0.1"
         id="path686" />
      <path
         d="m 966.832,333.48 c 2.224,0.78 4.177,2.05 6.129,3.35 1.704,1.13 0.107,3.9 -1.612,2.76 -1.702,-1.14 -3.424,-2.35 -5.366,-3.04 -1.927,-0.68 -1.097,-3.76 0.849,-3.07"
         style="fill:#d8772e;fill-opacity:1;fill-rule:nonzero;stroke:none;stroke-width:0.1"
         id="path688" />
      <path
         d="m 965.345,348.16 c 2.422,-0.8 4.705,-1.2 7.235,-0.64 2.009,0.45 1.157,3.53 -0.85,3.08 -1.955,-0.43 -3.681,0.02 -5.537,0.64 -1.959,0.65 -2.792,-2.43 -0.848,-3.08"
         style="fill:#d8772e;fill-opacity:1;fill-rule:nonzero;stroke:none;stroke-width:0.1"
         id="path690" />
      <path
         d="m 985.565,351.3 c 0.609,0 1.191,0.06 1.748,0.32 0.739,0.35 1.09,1.13 1.126,1.91 0.041,0.87 -0.757,1.6 -1.596,1.6 -0.902,0 -1.556,-0.73 -1.597,-1.6 0.016,0.33 0.2,0.63 0.568,0.91 -0.175,-0.14 0.437,0.12 0.067,0.04 0.522,0.12 0.188,0.02 0.029,0.02 -0.115,-0.01 -0.23,-0.01 -0.345,-0.01 -0.87,0 -1.596,-0.72 -1.596,-1.59 0,-0.87 0.726,-1.6 1.596,-1.6"
         style="fill:#d8772e;fill-opacity:1;fill-rule:nonzero;stroke:none;stroke-width:0.1"
         id="path692" />
      <path
         d="m 922.664,285.2 c 0.035,-1.86 1.103,-3.11 2.707,-3.93 0.775,-0.39 1.726,-0.21 2.184,0.57 0.42,0.72 0.202,1.79 -0.573,2.19 -0.219,0.11 -0.434,0.23 -0.644,0.36 -0.053,0.03 -0.403,0.3 -0.097,0.05 -0.094,0.08 -0.177,0.16 -0.261,0.25 -0.268,0.27 0.181,-0.28 -0.023,0.03 -0.055,0.09 -0.168,0.42 -0.028,0.03 -0.041,0.12 -0.064,0.23 -0.087,0.35 0.08,-0.4 0.016,0.02 0.015,0.1 -0.016,0.87 -0.714,1.6 -1.596,1.6 -0.858,0 -1.614,-0.72 -1.597,-1.6"
         style="fill:#d8772e;fill-opacity:1;fill-rule:nonzero;stroke:none;stroke-width:0.1"
         id="path694" />
      <path
         d="m 925.047,298.76 c 0.869,-0.82 1.873,-1.1 3.045,-1.1 0.87,0 1.596,0.72 1.596,1.59 0,0.87 -0.726,1.6 -1.596,1.6 -0.107,0 -0.213,0 -0.319,0 -0.114,0.01 -0.585,0.08 -0.108,0 -0.111,0.02 -0.524,0.2 -0.151,0.02 l -0.213,0.13 c 0.146,-0.11 0.148,-0.11 0.004,0.02 -0.632,0.6 -1.63,0.63 -2.258,0 -0.602,-0.6 -0.632,-1.66 0,-2.26"
         style="fill:#d8772e;fill-opacity:1;fill-rule:nonzero;stroke:none;stroke-width:0.1"
         id="path696" />
      <path
         d="m 982.373,293.19 c 1.277,0 2.554,0 3.831,0 2.059,0 2.059,3.19 0,3.19 -1.277,0 -2.554,0 -3.831,0 -2.06,0 -2.06,-3.19 0,-3.19"
         style="fill:#d8772e;fill-opacity:1;fill-rule:nonzero;stroke:none;stroke-width:0.1"
         id="path698" />
      <path
         d="m 990.46,308.57 c 1.882,0.59 3.865,0.69 5.748,1.28 1.959,0.61 1.123,3.69 -0.849,3.08 -1.882,-0.59 -3.865,-0.7 -5.748,-1.28 -1.96,-0.61 -1.123,-3.69 0.849,-3.08"
         style="fill:#d8772e;fill-opacity:1;fill-rule:nonzero;stroke:none;stroke-width:0.1"
         id="path700" />
      <path
         d="m 1023.46,314.32 c 1.79,-0.6 3.62,-1.28 5.53,-1.34 2.06,-0.06 2.05,3.13 0,3.2 -1.59,0.05 -3.19,0.72 -4.68,1.22 -1.96,0.65 -2.8,-2.44 -0.85,-3.08"
         style="fill:#d8772e;fill-opacity:1;fill-rule:nonzero;stroke:none;stroke-width:0.1"
         id="path702" />
      <path
         d="m 1013.17,326.22 c 0.64,-0.64 1.28,-1.27 1.92,-1.91 0.61,-0.62 1.64,-0.62 2.26,0 0.61,0.61 0.61,1.64 0,2.25 -0.64,0.64 -1.28,1.28 -1.92,1.92 -0.61,0.62 -1.64,0.62 -2.26,0 -0.61,-0.61 -0.61,-1.64 0,-2.26"
         style="fill:#d8772e;fill-opacity:1;fill-rule:nonzero;stroke:none;stroke-width:0.1"
         id="path704" />
      <path
         d="m 1004.08,330.86 c 1.28,0.07 2.19,0.89 3.05,1.75 0.62,0.61 0.61,1.64 0,2.26 -0.62,0.61 -1.64,0.61 -2.26,0 -0.24,-0.25 -0.48,-0.49 -0.74,-0.71 -0.15,-0.12 -0.15,-0.12 0,0 l -0.21,-0.13 c -0.16,-0.08 -0.14,-0.08 0.06,0.02 -0.18,-0.04 -0.14,-0.04 0.1,0.01 -0.86,-0.05 -1.59,-0.69 -1.59,-1.6 0,-0.83 0.72,-1.64 1.59,-1.6"
         style="fill:#d8772e;fill-opacity:1;fill-rule:nonzero;stroke:none;stroke-width:0.1"
         id="path706" />
      <path
         d="m 1014.94,343 c 3.19,0 6.39,0 9.58,0 2.06,0 2.06,3.19 0,3.19 -3.19,0 -6.39,0 -9.58,0 -2.06,0 -2.06,-3.19 0,-3.19"
         style="fill:#d8772e;fill-opacity:1;fill-rule:nonzero;stroke:none;stroke-width:0.1"
         id="path708" />
      <path
         d="m 1023.88,357.68 c 1.63,0 3.12,-0.08 4.69,-0.58 1.96,-0.62 2.8,2.46 0.84,3.08 -1.81,0.58 -3.64,0.7 -5.53,0.7 -2.06,0 -2.06,-3.19 0,-3.2"
         style="fill:#d8772e;fill-opacity:1;fill-rule:nonzero;stroke:none;stroke-width:0.1"
         id="path710" />
      <path
         d="m 1041.12,367.9 c 2.13,0 4.26,0 6.39,0 2.06,0 2.06,3.2 0,3.2 -2.13,0 -4.26,0 -6.39,0 -2.06,0 -2.06,-3.2 0,-3.2"
         style="fill:#d8772e;fill-opacity:1;fill-rule:nonzero;stroke:none;stroke-width:0.1"
         id="path712" />
      <path
         d="m 1053.4,360.07 c 1.2,-1.17 2.64,-2.03 3.84,-3.2 1.47,-1.43 3.73,0.83 2.25,2.26 -1.19,1.17 -2.63,2.03 -3.83,3.2 -1.47,1.43 -3.73,-0.82 -2.26,-2.26"
         style="fill:#d8772e;fill-opacity:1;fill-rule:nonzero;stroke:none;stroke-width:0.1"
         id="path714" />
      <path
         d="m 1040.63,353.68 c 1.38,-1.4 2.46,-3.06 3.83,-4.47 1.45,-1.47 3.7,0.79 2.26,2.26 -1.37,1.41 -2.46,3.06 -3.83,4.47 -1.44,1.48 -3.7,-0.78 -2.26,-2.26"
         style="fill:#d8772e;fill-opacity:1;fill-rule:nonzero;stroke:none;stroke-width:0.1"
         id="path716" />
      <path
         d="m 1032.18,332.78 c 1.71,0 3.41,0 5.11,0 2.06,0 2.06,3.19 0,3.19 -1.7,0 -3.4,0 -5.11,0 -2.06,0 -2.06,-3.19 0,-3.19"
         style="fill:#d8772e;fill-opacity:1;fill-rule:nonzero;stroke:none;stroke-width:0.1"
         id="path718" />
      <path
         d="m 1050.06,340.44 c 1.49,0 2.98,0 4.47,0 2.06,0 2.06,3.2 0,3.2 -1.49,0 -2.98,0 -4.47,0 -2.06,0 -2.06,-3.2 0,-3.2"
         style="fill:#d8772e;fill-opacity:1;fill-rule:nonzero;stroke:none;stroke-width:0.1"
         id="path720" />
      <path
         d="m 1066.83,353.43 c 0.95,0.44 2.01,0.42 3.03,0.42 2.06,0.01 2.06,3.2 0,3.2 -1.63,-0.01 -3.14,-0.16 -4.64,-0.86 -0.79,-0.37 -0.98,-1.49 -0.57,-2.18 0.47,-0.81 1.39,-0.94 2.18,-0.58"
         style="fill:#d8772e;fill-opacity:1;fill-rule:nonzero;stroke:none;stroke-width:0.1"
         id="path722" />
      <path
         d="m 1067.94,367.9 c 1.92,0 3.84,0 5.75,0 2.06,0 2.06,3.2 0,3.2 -1.91,0 -3.83,0 -5.75,0 -2.05,0 -2.05,-3.2 0,-3.2"
         style="fill:#d8772e;fill-opacity:1;fill-rule:nonzero;stroke:none;stroke-width:0.1"
         id="path724" />
      <path
         d="m 1099.24,374.29 c 1.78,0 3.39,-0.09 4.94,-1.06 1.75,-1.1 3.35,1.67 1.61,2.76 -2.02,1.26 -4.22,1.49 -6.55,1.49 -2.06,0 -2.06,-3.19 0,-3.19"
         style="fill:#d8772e;fill-opacity:1;fill-rule:nonzero;stroke:none;stroke-width:0.1"
         id="path726" />
      <path
         d="m 1099.71,363.01 c 1.36,-0.72 2.43,-1.86 3.51,-2.94 1.45,-1.46 3.71,0.8 2.25,2.26 -1.26,1.26 -2.55,2.6 -4.15,3.44 -1.82,0.96 -3.44,-1.8 -1.61,-2.76"
         style="fill:#d8772e;fill-opacity:1;fill-rule:nonzero;stroke:none;stroke-width:0.1"
         id="path728" />
      <path
         d="m 1085.19,342.36 c 1.63,0 3.12,-0.09 4.68,-0.58 1.97,-0.63 2.8,2.45 0.85,3.08 -1.82,0.57 -3.64,0.69 -5.53,0.69 -2.06,0 -2.06,-3.19 0,-3.19"
         style="fill:#d8772e;fill-opacity:1;fill-rule:nonzero;stroke:none;stroke-width:0.1"
         id="path730" />
      <path
         d="m 1065.86,320.86 c 1.24,-0.57 2.61,-0.7 3.83,-1.27 0.79,-0.37 1.72,-0.23 2.19,0.57 0.41,0.7 0.21,1.82 -0.58,2.18 -1.23,0.58 -2.61,0.71 -3.83,1.28 -0.79,0.37 -1.71,0.23 -2.18,-0.57 -0.41,-0.7 -0.22,-1.82 0.57,-2.19"
         style="fill:#d8772e;fill-opacity:1;fill-rule:nonzero;stroke:none;stroke-width:0.1"
         id="path732" />
      <path
         d="m 1098.28,324.16 c 0,-2.52 0.11,-4.99 0.69,-7.45 0.48,-2 3.56,-1.15 3.08,0.85 -0.52,2.19 -0.58,4.36 -0.58,6.6 0,2.06 -3.19,2.06 -3.19,0"
         style="fill:#d8772e;fill-opacity:1;fill-rule:nonzero;stroke:none;stroke-width:0.1"
         id="path734" />
      <path
         d="m 1087.42,331.82 c 0,-1.06 0,-2.13 0,-3.19 0,-2.06 3.19,-2.06 3.19,0 0,1.06 0,2.13 0,3.19 0,2.06 -3.19,2.06 -3.19,0"
         style="fill:#d8772e;fill-opacity:1;fill-rule:nonzero;stroke:none;stroke-width:0.1"
         id="path736" />
      <path
         d="m 1079.27,310.65 c 1.87,-0.9 3.84,-1.45 5.92,-1.5 2.06,-0.04 2.05,3.15 0,3.19 -1.5,0.04 -2.96,0.41 -4.31,1.06 -1.84,0.9 -3.46,-1.86 -1.61,-2.75"
         style="fill:#d8772e;fill-opacity:1;fill-rule:nonzero;stroke:none;stroke-width:0.1"
         id="path738" />
      <path
         d="m 1120.14,324.7 c 1.24,-0.58 2.61,-0.71 3.83,-1.28 0.79,-0.37 1.72,-0.23 2.19,0.57 0.41,0.7 0.21,1.82 -0.58,2.19 -1.23,0.57 -2.61,0.7 -3.83,1.27 -0.79,0.37 -1.71,0.23 -2.18,-0.57 -0.41,-0.7 -0.22,-1.82 0.57,-2.18"
         style="fill:#d8772e;fill-opacity:1;fill-rule:nonzero;stroke:none;stroke-width:0.1"
         id="path740" />
      <path
         d="m 1105.62,337.89 c 1.89,0 3.72,0.12 5.53,0.69 1.96,0.63 1.12,3.71 -0.84,3.08 -1.57,-0.49 -3.06,-0.58 -4.69,-0.58 -2.06,0 -2.06,-3.19 0,-3.19"
         style="fill:#d8772e;fill-opacity:1;fill-rule:nonzero;stroke:none;stroke-width:0.1"
         id="path742" />
      <path
         d="m 1121.1,354.32 c 1.48,-1.45 3.22,-2.3 5.17,-2.96 1.96,-0.67 2.79,2.42 0.85,3.07 -1.42,0.49 -2.68,1.09 -3.77,2.15 -1.47,1.44 -3.73,-0.82 -2.25,-2.26"
         style="fill:#d8772e;fill-opacity:1;fill-rule:nonzero;stroke:none;stroke-width:0.1"
         id="path744" />
      <path
         d="m 1117.59,368.76 c 1.23,-0.58 2.61,-0.71 3.83,-1.28 0.79,-0.37 1.71,-0.23 2.18,0.57 0.41,0.7 0.22,1.82 -0.57,2.19 -1.23,0.57 -2.61,0.71 -3.83,1.28 -0.79,0.36 -1.72,0.23 -2.19,-0.58 -0.4,-0.69 -0.21,-1.81 0.58,-2.18"
         style="fill:#d8772e;fill-opacity:1;fill-rule:nonzero;stroke:none;stroke-width:0.1"
         id="path746" />
      <path
         d="m 1139.2,373.54 c 0.65,-2.07 0.78,-4.27 1.28,-6.38 0.48,-2 3.56,-1.15 3.08,0.85 -0.5,2.11 -0.63,4.31 -1.28,6.38 -0.61,1.96 -3.69,1.13 -3.08,-0.85"
         style="fill:#d8772e;fill-opacity:1;fill-rule:nonzero;stroke:none;stroke-width:0.1"
         id="path748" />
      <path
         d="m 1155.75,372.05 c 0,-1.27 0,-2.55 0,-3.83 0,-2.06 3.19,-2.06 3.19,0 0,1.28 0,2.56 0,3.83 0,2.06 -3.19,2.06 -3.19,0"
         style="fill:#d8772e;fill-opacity:1;fill-rule:nonzero;stroke:none;stroke-width:0.1"
         id="path750" />
      <path
         d="m 1139.62,357.51 c 1.48,-1.44 3.22,-2.3 5.17,-2.96 1.96,-0.66 2.79,2.42 0.85,3.08 -1.42,0.48 -2.69,1.09 -3.77,2.14 -1.47,1.44 -3.73,-0.82 -2.25,-2.26"
         style="fill:#d8772e;fill-opacity:1;fill-rule:nonzero;stroke:none;stroke-width:0.1"
         id="path752" />
      <path
         d="m 1058.51,295.57 c 0.64,-0.64 1.28,-1.28 1.92,-1.92 0.61,-0.61 1.64,-0.61 2.26,0 0.61,0.62 0.61,1.65 0,2.26 -0.64,0.64 -1.28,1.28 -1.92,1.92 -0.61,0.61 -1.64,0.61 -2.26,0 -0.61,-0.62 -0.61,-1.64 0,-2.26"
         style="fill:#d8772e;fill-opacity:1;fill-rule:nonzero;stroke:none;stroke-width:0.1"
         id="path754" />
      <path
         d="m 1047.02,277.05 c 0.87,-0.82 1.87,-1.1 3.04,-1.1 0.87,-0.01 1.6,0.72 1.6,1.59 0,0.87 -0.73,1.6 -1.6,1.6 -0.1,0 -0.21,0 -0.32,0 -0.11,0 -0.58,0.08 -0.1,0 -0.11,0.02 -0.53,0.2 -0.15,0.02 l -0.22,0.13 c 0.15,-0.12 0.15,-0.11 0.01,0.02 -0.64,0.6 -1.63,0.63 -2.26,0 -0.6,-0.6 -0.63,-1.66 0,-2.26"
         style="fill:#d8772e;fill-opacity:1;fill-rule:nonzero;stroke:none;stroke-width:0.1"
         id="path756" />
      <path
         d="m 1068.37,266.42 c 3.23,0.6 6.52,0.58 9.79,0.58 2.06,0 2.06,3.2 0,3.2 -3.56,0 -7.12,-0.05 -10.64,-0.7 -2.02,-0.37 -1.16,-3.45 0.85,-3.08"
         style="fill:#d8772e;fill-opacity:1;fill-rule:nonzero;stroke:none;stroke-width:0.1"
         id="path758" />
      <path
         d="m 1082.63,293.83 c 1.28,0 2.56,0 3.83,0 2.06,0 2.06,3.19 0,3.19 -1.27,0 -2.55,0 -3.83,0 -2.06,0 -2.06,-3.19 0,-3.19"
         style="fill:#d8772e;fill-opacity:1;fill-rule:nonzero;stroke:none;stroke-width:0.1"
         id="path760" />
      <path
         d="m 1105.62,293.83 c -0.24,0.04 -0.28,0.04 -0.1,0 0.16,-0.05 0.14,-0.04 -0.07,0.05 0.19,-0.08 0.36,-0.17 0.54,-0.26 0.51,-0.25 0.97,-0.4 1.55,-0.43 0.87,-0.05 1.59,0.76 1.59,1.59 0,0.91 -0.72,1.55 -1.59,1.6 0.24,-0.05 0.28,-0.05 0.1,-0.01 -0.16,0.06 -0.14,0.04 0.06,-0.04 -0.18,0.07 -0.35,0.17 -0.53,0.26 -0.51,0.25 -0.98,0.4 -1.55,0.43 -0.87,0.04 -1.6,-0.76 -1.6,-1.6 0,-0.9 0.73,-1.55 1.6,-1.59"
         style="fill:#d8772e;fill-opacity:1;fill-rule:nonzero;stroke:none;stroke-width:0.1"
         id="path762" />
      <path
         d="m 947.398,252.78 c 0.86,-0.85 1.791,-1.61 2.878,-2.16 0.774,-0.4 1.726,-0.21 2.184,0.57 0.421,0.72 0.201,1.79 -0.573,2.19 -0.277,0.14 -0.547,0.29 -0.812,0.45 -0.093,0.06 -0.185,0.12 -0.276,0.18 -0.017,0.02 -0.423,0.33 -0.162,0.12 -0.349,0.28 -0.665,0.6 -0.981,0.91 -1.458,1.46 -3.716,-0.8 -2.258,-2.26"
         style="fill:#d8772e;fill-opacity:1;fill-rule:nonzero;stroke:none;stroke-width:0.1"
         id="path764" />
      <path
         d="m 962.725,270.03 c 1.043,-1.05 2.172,-1.71 3.683,-1.75 0.87,-0.02 1.596,0.74 1.596,1.6 0,0.88 -0.727,1.57 -1.596,1.59 -0.116,0 -0.233,0.01 -0.348,0.02 0.157,-0.02 0.144,-0.01 -0.04,0.03 -0.094,0.02 -0.186,0.05 -0.276,0.09 0.33,-0.12 -0.051,0.05 -0.103,0.08 -0.149,0.1 -0.147,0.1 0.004,-0.02 l -0.198,0.17 c -0.162,0.14 -0.313,0.29 -0.465,0.44 -1.458,1.46 -3.716,-0.8 -2.257,-2.25"
         style="fill:#d8772e;fill-opacity:1;fill-rule:nonzero;stroke:none;stroke-width:0.1"
         id="path766" />
      <path
         d="m 979.18,249.76 c 1.634,0 3.14,0.16 4.637,0.86 0.789,0.37 0.981,1.49 0.573,2.18 -0.47,0.81 -1.395,0.94 -2.184,0.58 -0.949,-0.45 -2.004,-0.42 -3.026,-0.42 -2.059,-0.01 -2.059,-3.2 0,-3.2"
         style="fill:#d8772e;fill-opacity:1;fill-rule:nonzero;stroke:none;stroke-width:0.1"
         id="path768" />
      <path
         d="m 993.867,278.5 c 1.49,0 2.98,0 4.47,0 2.063,0 2.063,3.19 0,3.19 -1.49,0 -2.98,0 -4.47,0 -2.059,0 -2.059,-3.19 0,-3.19"
         style="fill:#d8772e;fill-opacity:1;fill-rule:nonzero;stroke:none;stroke-width:0.1"
         id="path770" />
      <path
         d="m 1022.44,248.06 c 0.26,-0.13 0.51,-0.27 0.76,-0.43 0.05,-0.03 0.4,-0.3 0.1,-0.06 0.1,-0.08 0.19,-0.16 0.29,-0.25 0.09,-0.09 0.17,-0.18 0.25,-0.27 0.29,-0.32 -0.18,0.26 0.07,-0.09 0.2,-0.28 0.36,-0.58 0.51,-0.88 0.39,-0.77 1.46,-0.99 2.18,-0.57 0.79,0.46 0.97,1.41 0.58,2.18 -0.71,1.39 -1.74,2.43 -3.13,3.13 -0.78,0.4 -1.73,0.21 -2.19,-0.57 -0.42,-0.72 -0.2,-1.79 0.58,-2.19"
         style="fill:#d8772e;fill-opacity:1;fill-rule:nonzero;stroke:none;stroke-width:0.1"
         id="path772" />
      <path
         d="m 1015.79,231.3 c 2.34,-0.65 4.02,-2.4 5.69,-4.06 1.45,-1.46 3.71,0.8 2.25,2.26 -2.06,2.06 -4.2,4.07 -7.09,4.88 -1.98,0.55 -2.83,-2.53 -0.85,-3.08"
         style="fill:#d8772e;fill-opacity:1;fill-rule:nonzero;stroke:none;stroke-width:0.1"
         id="path774" />
      <path
         d="m 1049.42,229.33 c 2.13,0 4.26,0 6.39,0 2.06,0 2.06,3.19 0,3.19 -2.13,0 -4.26,0 -6.39,0 -2.05,0 -2.05,-3.19 0,-3.19"
         style="fill:#d8772e;fill-opacity:1;fill-rule:nonzero;stroke:none;stroke-width:0.1"
         id="path776" />
      <path
         d="m 1039.21,261.26 c 0.1,0 0.21,0 0.32,-0.01 0.11,0 0.58,-0.08 0.1,0.01 0.12,-0.02 0.53,-0.21 0.16,-0.03 l 0.21,-0.12 c -0.15,0.11 -0.15,0.1 -0.01,-0.02 0.64,-0.6 1.63,-0.63 2.26,0 0.6,0.6 0.63,1.66 0,2.25 -0.87,0.83 -1.87,1.11 -3.04,1.11 -0.87,0 -1.6,-0.73 -1.6,-1.6 0,-0.87 0.73,-1.59 1.6,-1.59"
         style="fill:#d8772e;fill-opacity:1;fill-rule:nonzero;stroke:none;stroke-width:0.1"
         id="path778" />
      <path
         d="m 1173.46,341.55 c 1.78,-1.65 4.21,-2.23 6.45,-2.97 1.96,-0.64 2.8,2.44 0.85,3.08 -1.66,0.55 -3.72,0.92 -5.04,2.15 -1.51,1.39 -3.77,-0.86 -2.26,-2.26"
         style="fill:#d8772e;fill-opacity:1;fill-rule:nonzero;stroke:none;stroke-width:0.1"
         id="path780" />
      <path
         d="m 1184.32,359.43 c 2.03,-1.99 4.32,-3.5 7.09,-4.24 1.99,-0.53 2.83,2.55 0.85,3.08 -2.26,0.6 -4.04,1.8 -5.69,3.42 -1.47,1.44 -3.72,-0.82 -2.25,-2.26"
         style="fill:#d8772e;fill-opacity:1;fill-rule:nonzero;stroke:none;stroke-width:0.1"
         id="path782" />
      <path
         d="m 1178,371.15 c 2.19,-0.67 4.53,-0.69 6.81,-0.69 2.06,0 2.06,3.19 0,3.19 -2.01,0 -4.03,-0.01 -5.96,0.58 -1.98,0.61 -2.82,-2.48 -0.85,-3.08"
         style="fill:#d8772e;fill-opacity:1;fill-rule:nonzero;stroke:none;stroke-width:0.1"
         id="path784" />
      <path
         d="m 1202.85,365.57 c 1.45,0.65 3.22,0.64 4.73,1.11 1.96,0.61 1.12,3.7 -0.85,3.08 -1.82,-0.57 -3.74,-0.64 -5.49,-1.44 -0.79,-0.36 -0.97,-1.49 -0.57,-2.18 0.47,-0.81 1.39,-0.93 2.18,-0.57"
         style="fill:#d8772e;fill-opacity:1;fill-rule:nonzero;stroke:none;stroke-width:0.1"
         id="path786" />
      <path
         d="m 1207.96,347.69 c 2.56,1.27 5.11,2.55 7.67,3.83 1.84,0.92 0.22,3.67 -1.61,2.75 -2.56,-1.27 -5.11,-2.55 -7.67,-3.83 -1.84,-0.92 -0.22,-3.67 1.61,-2.75"
         style="fill:#d8772e;fill-opacity:1;fill-rule:nonzero;stroke:none;stroke-width:0.1"
         id="path788" />
      <path
         d="m 1216.1,351.94 c 2.06,0 2.06,3.19 0,3.19 -2.06,0 -2.06,-3.19 0,-3.19"
         style="fill:#d8772e;fill-opacity:1;fill-rule:nonzero;stroke:none;stroke-width:0.1"
         id="path790" />
      <path
         d="m 1192.47,327.67 c 1.37,0 3.02,0.16 4.3,-0.42 0.8,-0.36 1.71,-0.23 2.19,0.57 0.4,0.69 0.22,1.83 -0.58,2.19 -1.87,0.85 -3.89,0.85 -5.91,0.85 -2.06,0.01 -2.06,-3.19 0,-3.19"
         style="fill:#d8772e;fill-opacity:1;fill-rule:nonzero;stroke:none;stroke-width:0.1"
         id="path792" />
      <path
         d="m 1191.57,344.17 c 0.95,-2.55 3.17,-3.5 5.58,-4.31 1.96,-0.65 2.8,2.43 0.85,3.08 -1.15,0.39 -2.87,0.79 -3.35,2.08 -0.31,0.81 -1.07,1.36 -1.97,1.11 -0.78,-0.21 -1.41,-1.14 -1.11,-1.96"
         style="fill:#d8772e;fill-opacity:1;fill-rule:nonzero;stroke:none;stroke-width:0.1"
         id="path794" />
      <path
         d="m 1212.42,338.36 c 1.4,-1.38 3.06,-2.46 4.46,-3.84 1.48,-1.43 3.74,0.82 2.26,2.26 -1.4,1.38 -3.06,2.46 -4.47,3.83 -1.47,1.44 -3.73,-0.81 -2.25,-2.25"
         style="fill:#d8772e;fill-opacity:1;fill-rule:nonzero;stroke:none;stroke-width:0.1"
         id="path796" />
      <path
         d="m 1223.12,350.02 c 2.13,0 4.26,0 6.39,0 2.06,0 2.06,3.19 0,3.19 -2.13,0 -4.26,0 -6.39,0 -2.06,0 -2.06,-3.19 0,-3.19"
         style="fill:#d8772e;fill-opacity:1;fill-rule:nonzero;stroke:none;stroke-width:0.1"
         id="path798" />
      <path
         d="m 1238.45,358.32 c 2.52,0 4.98,0.11 7.45,0.7 2,0.48 1.15,3.55 -0.85,3.08 -2.19,-0.52 -4.36,-0.58 -6.6,-0.58 -2.06,0 -2.06,-3.2 0,-3.2"
         style="fill:#d8772e;fill-opacity:1;fill-rule:nonzero;stroke:none;stroke-width:0.1"
         id="path800" />
      <path
         d="m 1214.65,368.76 c 1.88,-0.85 3.9,-0.86 5.92,-0.86 2.06,0 2.06,3.19 0,3.2 -1.37,0 -3.02,-0.16 -4.3,0.42 -0.8,0.35 -1.72,0.23 -2.19,-0.58 -0.4,-0.69 -0.22,-1.82 0.57,-2.18"
         style="fill:#d8772e;fill-opacity:1;fill-rule:nonzero;stroke:none;stroke-width:0.1"
         id="path802" />
      <path
         d="m 1239.56,366.21 c 1.5,-0.7 3,-0.86 4.64,-0.86 2.06,0 2.06,3.19 0,3.19 -1.03,0 -2.08,-0.02 -3.03,0.42 -0.79,0.37 -1.71,0.23 -2.18,-0.57 -0.41,-0.7 -0.22,-1.82 0.57,-2.18"
         style="fill:#d8772e;fill-opacity:1;fill-rule:nonzero;stroke:none;stroke-width:0.1"
         id="path804" />
      <path
         d="m 1158.79,308.09 c 1.35,0.65 2.81,1.03 4.3,1.06 2.06,0.05 2.07,3.24 0,3.19 -2.07,-0.04 -4.05,-0.59 -5.91,-1.49 -1.85,-0.9 -0.23,-3.65 1.61,-2.76"
         style="fill:#d8772e;fill-opacity:1;fill-rule:nonzero;stroke:none;stroke-width:0.1"
         id="path806" />
      <path
         d="m 1161.82,321.29 c 1.91,0 3.83,0 5.74,0 2.06,0 2.06,3.19 0,3.19 -1.91,0 -3.83,0 -5.74,0 -2.06,0 -2.06,-3.19 0,-3.19"
         style="fill:#d8772e;fill-opacity:1;fill-rule:nonzero;stroke:none;stroke-width:0.1"
         id="path808" />
      <path
         d="m 1186.94,316.23 c 1.88,-0.63 3.69,-1.31 5.36,-2.39 1.74,-1.12 3.34,1.64 1.61,2.76 -1.89,1.22 -3.99,2 -6.12,2.71 -1.96,0.66 -2.8,-2.43 -0.85,-3.08"
         style="fill:#d8772e;fill-opacity:1;fill-rule:nonzero;stroke:none;stroke-width:0.1"
         id="path810" />
      <path
         d="m 1173.78,298.51 c 0.63,-0.29 1.26,-0.52 1.92,-0.71 0.26,-0.07 0.52,-0.15 0.77,-0.23 0.09,-0.03 0.29,-0.18 0.18,-0.08 0.65,-0.58 1.62,-0.65 2.26,0 0.59,0.59 0.65,1.67 0,2.25 -1.03,0.92 -2.32,0.97 -3.51,1.53 -0.79,0.37 -1.72,0.23 -2.19,-0.57 -0.41,-0.7 -0.21,-1.82 0.57,-2.19"
         style="fill:#d8772e;fill-opacity:1;fill-rule:nonzero;stroke:none;stroke-width:0.1"
         id="path812" />
      <path
         d="m 1131.17,280.42 c 1.06,0 2.12,0 3.19,0 2.06,0 2.06,3.19 0,3.19 -1.07,0 -2.13,0 -3.19,0 -2.06,0 -2.06,-3.19 0,-3.19"
         style="fill:#d8772e;fill-opacity:1;fill-rule:nonzero;stroke:none;stroke-width:0.1"
         id="path814" />
      <path
         d="m 1143.94,293.83 c 1.7,0 3.4,0 5.11,0 2.05,0 2.05,3.19 0,3.19 -1.71,0 -3.41,0 -5.11,0 -2.06,0 -2.06,-3.19 0,-3.19"
         style="fill:#d8772e;fill-opacity:1;fill-rule:nonzero;stroke:none;stroke-width:0.1"
         id="path816" />
      <path
         d="m 1133.72,256.15 c 1.49,0 2.98,0 4.47,0 2.06,0 2.06,3.19 0,3.19 -1.49,0 -2.98,0 -4.47,0 -2.06,0 -2.06,-3.19 0,-3.19"
         style="fill:#d8772e;fill-opacity:1;fill-rule:nonzero;stroke:none;stroke-width:0.1"
         id="path818" />
      <path
         d="m 1110.24,250.23 c 1.34,-1.28 3.14,-1.92 4.47,-3.19 1.49,-1.42 3.75,0.83 2.26,2.25 -1.34,1.28 -3.14,1.93 -4.47,3.2 -1.49,1.42 -3.75,-0.84 -2.26,-2.26"
         style="fill:#d8772e;fill-opacity:1;fill-rule:nonzero;stroke:none;stroke-width:0.1"
         id="path820" />
      <path
         d="m 1100.98,225.71 c 1.88,-0.84 3.9,-0.85 5.92,-0.85 2.06,0 2.06,3.19 0,3.19 -1.37,0 -3.02,-0.16 -4.3,0.42 -0.8,0.36 -1.72,0.24 -2.19,-0.57 -0.4,-0.69 -0.22,-1.83 0.57,-2.19"
         style="fill:#d8772e;fill-opacity:1;fill-rule:nonzero;stroke:none;stroke-width:0.1"
         id="path822" />
      <path
         d="m 1120.31,214.64 c 1.97,0.04 3.69,0.71 5.53,1.33 1.94,0.66 1.11,3.75 -0.85,3.08 -1.54,-0.52 -3.03,-1.18 -4.68,-1.22 -2.06,-0.04 -2.06,-3.24 0,-3.19"
         style="fill:#d8772e;fill-opacity:1;fill-rule:nonzero;stroke:none;stroke-width:0.1"
         id="path824" />
      <path
         d="m 1147.13,236.35 c 2.33,0 4.53,0.23 6.55,1.5 1.74,1.09 0.14,3.85 -1.61,2.75 -1.55,-0.97 -3.16,-1.05 -4.94,-1.06 -2.06,0 -2.06,-3.19 0,-3.19"
         style="fill:#d8772e;fill-opacity:1;fill-rule:nonzero;stroke:none;stroke-width:0.1"
         id="path826" />
      <path
         d="m 1160.12,263.87 c 1.59,-0.53 3.21,-1.02 4.72,-1.76 1.85,-0.89 3.47,1.86 1.62,2.76 -1.77,0.85 -3.64,1.46 -5.5,2.08 -1.95,0.65 -2.79,-2.43 -0.84,-3.08"
         style="fill:#d8772e;fill-opacity:1;fill-rule:nonzero;stroke:none;stroke-width:0.1"
         id="path828" />
      <path
         d="m 1166.76,282.55 c 2.36,-1.45 5.14,-1.49 7.83,-1.5 2.06,0 2.06,3.2 0,3.2 -2.12,0 -4.35,-0.09 -6.22,1.06 -1.76,1.08 -3.36,-1.69 -1.61,-2.76"
         style="fill:#d8772e;fill-opacity:1;fill-rule:nonzero;stroke:none;stroke-width:0.1"
         id="path830" />
      <path
         d="m 1196.94,304.04 c 1.28,0 2.55,0 3.83,0 2.06,0 2.06,3.2 0,3.2 -1.28,0 -2.55,0 -3.83,0 -2.06,0 -2.06,-3.2 0,-3.2"
         style="fill:#d8772e;fill-opacity:1;fill-rule:nonzero;stroke:none;stroke-width:0.1"
         id="path832" />
      <path
         d="m 1252.97,317.03 c 1.95,-0.92 4.08,-1.4 6.13,-2.07 1.96,-0.65 2.79,2.44 0.85,3.08 -1.77,0.58 -3.68,0.95 -5.37,1.75 -1.85,0.88 -3.47,-1.87 -1.61,-2.76"
         style="fill:#d8772e;fill-opacity:1;fill-rule:nonzero;stroke:none;stroke-width:0.1"
         id="path834" />
      <path
         d="m 1264.21,329 c 2.41,-0.78 4.9,-1.29 7.45,-1.33 2.06,-0.03 2.05,3.16 0,3.19 -2.27,0.04 -4.45,0.52 -6.6,1.22 -1.97,0.64 -2.8,-2.44 -0.85,-3.08"
         style="fill:#d8772e;fill-opacity:1;fill-rule:nonzero;stroke:none;stroke-width:0.1"
         id="path836" />
      <path
         d="m 1289.54,334.06 c 2.55,0 5.11,0 7.66,0 2.06,0 2.06,3.19 0,3.19 -2.55,0 -5.11,0 -7.66,0 -2.06,0 -2.06,-3.19 0,-3.19"
         style="fill:#d8772e;fill-opacity:1;fill-rule:nonzero;stroke:none;stroke-width:0.1"
         id="path838" />
      <path
         d="m 1271.44,343.05 c 1.75,0.55 3.51,0.58 5.32,0.59 2.06,0 2.06,3.19 0,3.19 -2.08,0 -4.16,-0.07 -6.17,-0.7 -1.96,-0.6 -1.12,-3.69 0.85,-3.08"
         style="fill:#d8772e;fill-opacity:1;fill-rule:nonzero;stroke:none;stroke-width:0.1"
         id="path840" />
      <path
         d="m 1270.38,353.21 c 1.91,0 3.83,0 5.75,0 2.06,0 2.06,3.2 0,3.2 -1.92,0 -3.84,0 -5.75,0 -2.06,0 -2.06,-3.2 0,-3.2"
         style="fill:#d8772e;fill-opacity:1;fill-rule:nonzero;stroke:none;stroke-width:0.1"
         id="path842" />
      <path
         d="m 1265.91,360.24 c 1.99,-0.04 3.9,-0.63 5.58,-1.7 1.74,-1.11 3.34,1.66 1.61,2.76 -2.14,1.36 -4.66,2.08 -7.19,2.13 -2.06,0.04 -2.06,-3.15 0,-3.19"
         style="fill:#d8772e;fill-opacity:1;fill-rule:nonzero;stroke:none;stroke-width:0.1"
         id="path844" />
      <path
         d="m 1291.29,352.79 c 1.82,-0.93 3.54,-2.02 5.49,-2.71 1.94,-0.69 2.77,2.4 0.84,3.08 -1.67,0.59 -3.15,1.58 -4.72,2.39 -1.83,0.94 -3.45,-1.82 -1.61,-2.76"
         style="fill:#d8772e;fill-opacity:1;fill-rule:nonzero;stroke:none;stroke-width:0.1"
         id="path846" />
      <path
         d="m 1313.64,342.58 c 1.44,-0.8 2.37,-2.58 3.25,-3.9 1.14,-1.7 3.91,-0.11 2.76,1.61 -1.2,1.8 -2.45,3.97 -4.4,5.04 -1.81,1 -3.42,-1.76 -1.61,-2.75"
         style="fill:#d8772e;fill-opacity:1;fill-rule:nonzero;stroke:none;stroke-width:0.1"
         id="path848" />
      <path
         d="m 1302.21,339.96 c 0.79,-1.5 2.26,-2.37 3.44,-3.52 1.47,-1.44 3.73,0.82 2.26,2.26 -0.97,0.94 -2.34,1.73 -2.95,2.87 -0.41,0.76 -1.45,1 -2.18,0.57 -0.77,-0.45 -0.98,-1.42 -0.57,-2.18"
         style="fill:#d8772e;fill-opacity:1;fill-rule:nonzero;stroke:none;stroke-width:0.1"
         id="path850" />
      <path
         d="m 1300.54,320.48 0.18,-0.2 c 0.31,-0.35 -0.17,0.25 0.12,-0.16 0.16,-0.21 0.3,-0.44 0.45,-0.67 0.36,-0.53 0.72,-1.07 1.17,-1.53 0.6,-0.63 1.65,-0.6 2.25,0 0.63,0.63 0.61,1.63 0,2.26 l -0.18,0.2 c -0.31,0.35 0.18,-0.25 -0.11,0.15 -0.16,0.22 -0.31,0.45 -0.46,0.67 -0.35,0.53 -0.72,1.07 -1.16,1.53 -0.6,0.63 -1.65,0.61 -2.26,0 -0.62,-0.62 -0.6,-1.63 0,-2.25"
         style="fill:#d8772e;fill-opacity:1;fill-rule:nonzero;stroke:none;stroke-width:0.1"
         id="path852" />
      <path
         d="m 1228.77,298.14 c -1.18,-2.71 1.06,-4.62 3.13,-6.01 0.72,-0.49 1.76,-0.14 2.18,0.57 0.46,0.79 0.15,1.7 -0.57,2.18 -0.56,0.38 -1.08,0.78 -1.56,1.25 -0.16,0.16 -0.26,0.32 -0.37,0.51 0.04,-0.1 0.03,-0.06 -0.02,0.12 0.02,-0.11 0.01,-0.13 -0.03,-0.23 0.34,0.8 0.24,1.71 -0.58,2.19 -0.68,0.4 -1.83,0.22 -2.18,-0.58"
         style="fill:#d8772e;fill-opacity:1;fill-rule:nonzero;stroke:none;stroke-width:0.1"
         id="path854" />
      <path
         d="m 1243.07,305.79 c 1.66,-1.62 3.63,-2.84 5.81,-3.61 1.95,-0.68 2.78,2.4 0.85,3.08 -1.65,0.59 -3.15,1.57 -4.4,2.79 -1.48,1.43 -3.74,-0.83 -2.26,-2.26"
         style="fill:#d8772e;fill-opacity:1;fill-rule:nonzero;stroke:none;stroke-width:0.1"
         id="path856" />
      <path
         d="m 1243.56,281.05 c 1.81,0 3.6,0.09 5.27,0.86 0.8,0.36 0.98,1.49 0.58,2.18 -0.48,0.81 -1.4,0.94 -2.19,0.58 -1.1,-0.51 -2.48,-0.42 -3.66,-0.42 -2.06,0 -2.06,-3.2 0,-3.2"
         style="fill:#d8772e;fill-opacity:1;fill-rule:nonzero;stroke:none;stroke-width:0.1"
         id="path858" />
      <path
         d="m 1266.55,284.25 c 2.13,0 4.25,0 6.38,0 2.06,0 2.06,3.19 0,3.19 -2.13,0 -4.25,0 -6.38,0 -2.06,0 -2.06,-3.19 0,-3.19"
         style="fill:#d8772e;fill-opacity:1;fill-rule:nonzero;stroke:none;stroke-width:0.1"
         id="path860" />
      <path
         d="m 1267.4,302.18 c 2.01,-0.62 4.08,-0.69 6.17,-0.69 2.06,0 2.06,3.19 0,3.19 -1.81,0 -3.57,0.04 -5.32,0.58 -1.97,0.61 -2.81,-2.47 -0.85,-3.08"
         style="fill:#d8772e;fill-opacity:1;fill-rule:nonzero;stroke:none;stroke-width:0.1"
         id="path862" />
      <path
         d="m 1281.07,319.59 c 1.23,-0.58 2.61,-0.71 3.83,-1.28 0.79,-0.37 1.71,-0.23 2.18,0.57 0.41,0.7 0.22,1.82 -0.57,2.19 -1.23,0.57 -2.61,0.71 -3.83,1.27 -0.79,0.37 -1.72,0.23 -2.18,-0.57 -0.41,-0.7 -0.22,-1.81 0.57,-2.18"
         style="fill:#d8772e;fill-opacity:1;fill-rule:nonzero;stroke:none;stroke-width:0.1"
         id="path864" />
      <path
         d="m 1286.98,304.04 c 1.02,0 2.08,0.02 3.03,-0.42 0.79,-0.37 1.71,-0.23 2.18,0.58 0.41,0.69 0.22,1.81 -0.57,2.18 -1.5,0.7 -3,0.85 -4.64,0.86 -2.06,0 -2.06,-3.2 0,-3.2"
         style="fill:#d8772e;fill-opacity:1;fill-rule:nonzero;stroke:none;stroke-width:0.1"
         id="path866" />
      <path
         d="m 1200.77,245.93 c 1.28,0 2.56,0 3.83,0 2.06,0 2.06,3.19 0,3.19 -1.27,0 -2.55,0 -3.83,0 -2.06,0 -2.06,-3.19 0,-3.19"
         style="fill:#d8772e;fill-opacity:1;fill-rule:nonzero;stroke:none;stroke-width:0.1"
         id="path868" />
      <path
         d="m 1213.38,265.95 c 1.67,-0.77 3.46,-0.86 5.27,-0.86 2.06,0 2.06,3.19 0,3.19 -1.18,0 -2.56,-0.08 -3.66,0.42 -0.79,0.36 -1.71,0.24 -2.19,-0.57 -0.4,-0.69 -0.21,-1.82 0.58,-2.18"
         style="fill:#d8772e;fill-opacity:1;fill-rule:nonzero;stroke:none;stroke-width:0.1"
         id="path870" />
      <path
         d="m 1237.17,255.51 c 1.92,0 3.83,0 5.75,0 2.06,0 2.06,3.19 0,3.19 -1.92,0 -3.83,0 -5.75,0 -2.06,0 -2.06,-3.19 0,-3.19"
         style="fill:#d8772e;fill-opacity:1;fill-rule:nonzero;stroke:none;stroke-width:0.1"
         id="path872" />
      <path
         d="m 1222.65,230.82 c 1.68,1.09 3.48,1.77 5.37,2.4 1.94,0.64 1.11,3.73 -0.85,3.07 -2.14,-0.71 -4.23,-1.48 -6.13,-2.71 -1.72,-1.11 -0.12,-3.88 1.61,-2.76"
         style="fill:#d8772e;fill-opacity:1;fill-rule:nonzero;stroke:none;stroke-width:0.1"
         id="path874" />
      <path
         d="m 1179.91,219.17 c 2.02,-0.67 4.03,-1.29 6.17,-1.34 2.06,-0.04 2.06,3.15 0,3.2 -1.84,0.04 -3.58,0.64 -5.32,1.22 -1.96,0.65 -2.79,-2.44 -0.85,-3.08"
         style="fill:#d8772e;fill-opacity:1;fill-rule:nonzero;stroke:none;stroke-width:0.1"
         id="path876" />
      <path
         d="m 1218.01,214 c 1.49,0 2.98,0 4.47,0 2.06,0 2.06,3.19 0,3.19 -1.49,0 -2.98,0 -4.47,0 -2.05,0 -2.05,-3.19 0,-3.19"
         style="fill:#d8772e;fill-opacity:1;fill-rule:nonzero;stroke:none;stroke-width:0.1"
         id="path878" />
      <path
         d="m 1282.3,224.28 c 2.19,0.55 4.32,1.18 6.6,1.22 2.05,0.03 2.06,3.22 0,3.19 -2.57,-0.04 -4.98,-0.71 -7.45,-1.34 -2,-0.5 -1.15,-3.58 0.85,-3.07"
         style="fill:#d8772e;fill-opacity:1;fill-rule:nonzero;stroke:none;stroke-width:0.1"
         id="path880" />
      <path
         d="m 1286.98,240.18 c 2.73,0 5.42,0.08 8.09,0.7 2.01,0.46 1.15,3.54 -0.85,3.08 -2.39,-0.55 -4.8,-0.58 -7.24,-0.58 -2.06,-0.01 -2.06,-3.2 0,-3.2"
         style="fill:#d8772e;fill-opacity:1;fill-rule:nonzero;stroke:none;stroke-width:0.1"
         id="path882" />
      <path
         d="m 1317.78,250.23 c 1.54,-1.53 3.11,-2.87 5.18,-3.6 1.94,-0.7 2.77,2.39 0.85,3.08 -1.52,0.54 -2.65,1.66 -3.77,2.78 -1.46,1.45 -3.71,-0.8 -2.26,-2.26"
         style="fill:#d8772e;fill-opacity:1;fill-rule:nonzero;stroke:none;stroke-width:0.1"
         id="path884" />
      <path
         d="m 1313.64,236.57 c 0.98,-0.53 1.43,-1.53 1.98,-2.62 0.39,-0.78 1.47,-0.99 2.18,-0.57 0.79,0.46 0.96,1.4 0.57,2.18 -0.74,1.49 -1.6,2.95 -3.12,3.77 -0.77,0.41 -1.73,0.2 -2.19,-0.58 -0.42,-0.72 -0.19,-1.77 0.58,-2.18"
         style="fill:#d8772e;fill-opacity:1;fill-rule:nonzero;stroke:none;stroke-width:0.1"
         id="path886" />
      <path
         d="m 1298.48,265.09 c 1.84,0 3.58,0.06 5.27,0.86 0.79,0.37 0.99,1.48 0.58,2.18 -0.47,0.8 -1.4,0.94 -2.19,0.57 -1.12,-0.52 -2.46,-0.42 -3.66,-0.42 -2.06,0 -2.06,-3.19 0,-3.19"
         style="fill:#d8772e;fill-opacity:1;fill-rule:nonzero;stroke:none;stroke-width:0.1"
         id="path888" />
      <path
         d="m 1324.66,274.03 c 2.24,0 4.41,-0.06 6.6,-0.58 2,-0.48 2.85,2.6 0.85,3.08 -2.47,0.58 -4.93,0.69 -7.45,0.69 -2.06,0 -2.06,-3.19 0,-3.19"
         style="fill:#d8772e;fill-opacity:1;fill-rule:nonzero;stroke:none;stroke-width:0.1"
         id="path890" />
      <path
         d="m 1317,260.62 c 1.63,0 3.14,0.16 4.63,0.85 0.79,0.37 0.98,1.49 0.58,2.19 -0.47,0.8 -1.4,0.94 -2.19,0.57 -0.95,-0.44 -2,-0.42 -3.02,-0.42 -2.06,0 -2.06,-3.19 0,-3.19"
         style="fill:#d8772e;fill-opacity:1;fill-rule:nonzero;stroke:none;stroke-width:0.1"
         id="path892" />
      <path
         d="m 1349.42,254.06 c 1.08,1.06 2.34,1.66 3.76,2.15 1.94,0.65 1.11,3.74 -0.85,3.07 -1.94,-0.66 -3.69,-1.51 -5.17,-2.96 -1.48,-1.44 0.78,-3.7 2.26,-2.26"
         style="fill:#d8772e;fill-opacity:1;fill-rule:nonzero;stroke:none;stroke-width:0.1"
         id="path894" />
      <path
         d="m 1362.83,269.39 c 1.42,1.38 3.13,2.27 5.04,2.78 1.99,0.53 1.14,3.61 -0.85,3.08 -2.43,-0.65 -4.64,-1.84 -6.45,-3.6 -1.48,-1.44 0.78,-3.7 2.26,-2.26"
         style="fill:#d8772e;fill-opacity:1;fill-rule:nonzero;stroke:none;stroke-width:0.1"
         id="path896" />
      <path
         d="m 1351.06,283.03 c 3.07,-0.77 5.99,-1.2 9.15,-0.64 2.02,0.36 1.16,3.43 -0.85,3.08 -2.56,-0.45 -4.97,0.02 -7.46,0.64 -1.99,0.49 -2.84,-2.59 -0.84,-3.08"
         style="fill:#d8772e;fill-opacity:1;fill-rule:nonzero;stroke:none;stroke-width:0.1"
         id="path898" />
      <path
         d="m 1324.17,302.59 c 1.28,-1.27 2.55,-2.55 3.83,-3.83 1.46,-1.45 3.72,0.8 2.26,2.26 -1.28,1.28 -2.56,2.56 -3.83,3.83 -1.46,1.46 -3.72,-0.8 -2.26,-2.26"
         style="fill:#d8772e;fill-opacity:1;fill-rule:nonzero;stroke:none;stroke-width:0.1"
         id="path900" />
      <path
         d="m 1316.26,292.06 c 1.27,-1.91 2.55,-3.83 3.83,-5.75 1.13,-1.7 3.9,-0.1 2.75,1.62 -1.27,1.91 -2.55,3.83 -3.83,5.74 -1.13,1.71 -3.9,0.11 -2.75,-1.61"
         style="fill:#d8772e;fill-opacity:1;fill-rule:nonzero;stroke:none;stroke-width:0.1"
         id="path902" />
      <path
         d="m 1341.64,301.38 c 0.91,-2.64 2.3,-5.07 4.24,-7.09 1.43,-1.48 3.69,0.78 2.26,2.26 -1.56,1.61 -2.69,3.57 -3.42,5.68 -0.67,1.94 -3.75,1.1 -3.08,-0.85"
         style="fill:#d8772e;fill-opacity:1;fill-rule:nonzero;stroke:none;stroke-width:0.1"
         id="path904" />
      <path
         d="m 1336.37,313.68 c 2.64,-0.9 5.26,-1.89 8.09,-1.97 2.06,-0.06 2.05,3.13 0,3.19 -2.51,0.07 -4.89,1.06 -7.24,1.86 -1.96,0.66 -2.79,-2.42 -0.85,-3.08"
         style="fill:#d8772e;fill-opacity:1;fill-rule:nonzero;stroke:none;stroke-width:0.1"
         id="path906" />
      <path
         d="m 1343.18,327.67 c 1.26,-0.03 2.54,-0.51 3.66,-1.06 1.85,-0.89 3.47,1.86 1.61,2.76 -1.64,0.8 -3.43,1.44 -5.27,1.49 -2.06,0.06 -2.06,-3.13 0,-3.19"
         style="fill:#d8772e;fill-opacity:1;fill-rule:nonzero;stroke:none;stroke-width:0.1"
         id="path908" />
      <path
         d="m 1362.07,312.24 c 1.45,-3.49 3.33,-6.73 5.27,-9.96 1.06,-1.76 3.82,-0.16 2.76,1.61 -1.79,2.98 -3.62,5.98 -4.95,9.2 -0.77,1.87 -3.86,1.05 -3.08,-0.85"
         style="fill:#d8772e;fill-opacity:1;fill-rule:nonzero;stroke:none;stroke-width:0.1"
         id="path910" />
      <path
         d="m 1351.16,315.86 c 0,-1.94 0.2,-4.15 2.07,-5.21 1.79,-1.02 3.4,1.74 1.61,2.75 -0.17,0.11 -0.21,0.13 -0.11,0.06 -0.14,0.14 -0.17,0.17 -0.08,0.1 -0.11,0.16 -0.15,0.37 -0.21,0.66 -0.1,0.42 -0.09,1.09 -0.09,1.64 0,2.06 -3.19,2.06 -3.19,0"
         style="fill:#d8772e;fill-opacity:1;fill-rule:nonzero;stroke:none;stroke-width:0.1"
         id="path912" />
      <path
         d="m 1358.98,297.24 c 2.07,-1.38 4.16,-2.71 6.38,-3.83 1.83,-0.93 3.45,1.82 1.61,2.75 -2.22,1.13 -4.31,2.45 -6.38,3.83 -1.72,1.15 -3.32,-1.62 -1.61,-2.75"
         style="fill:#d8772e;fill-opacity:1;fill-rule:nonzero;stroke:none;stroke-width:0.1"
         id="path914" />
      <path
         d="m 1374.15,290.95 c 0.05,-2.95 0.75,-5.84 1.33,-8.72 0.41,-2.02 3.49,-1.17 3.08,0.84 -0.52,2.61 -1.17,5.21 -1.22,7.88 -0.03,2.06 -3.22,2.06 -3.19,0"
         style="fill:#d8772e;fill-opacity:1;fill-rule:nonzero;stroke:none;stroke-width:0.1"
         id="path916" />
      <path
         d="m 1094.77,351.3 c 2.02,0 3.98,-0.11 5.96,-0.58 2,-0.48 2.85,2.6 0.85,3.08 -2.26,0.53 -4.51,0.69 -6.81,0.69 -2.06,0 -2.06,-3.19 0,-3.19"
         style="fill:#d8772e;fill-opacity:1;fill-rule:nonzero;stroke:none;stroke-width:0.1"
         id="path918" />
      <path
         d="m 1119.18,343.46 c 1.7,-1.69 3.44,-3.35 5.43,-4.71 1.71,-1.17 3.3,1.6 1.61,2.75 -1.76,1.21 -3.28,2.72 -4.78,4.22 -1.46,1.46 -3.72,-0.8 -2.26,-2.26"
         style="fill:#d8772e;fill-opacity:1;fill-rule:nonzero;stroke:none;stroke-width:0.1"
         id="path920" />
      <path
         d="m 1134.83,346.41 c 1.13,-0.6 1.96,-1.9 3.19,-2.56 0.77,-0.41 1.73,-0.2 2.19,0.58 0.42,0.73 0.19,1.77 -0.58,2.18 -1.13,0.6 -1.95,1.89 -3.19,2.56 -0.77,0.41 -1.73,0.19 -2.18,-0.58 -0.43,-0.73 -0.2,-1.77 0.57,-2.18"
         style="fill:#d8772e;fill-opacity:1;fill-rule:nonzero;stroke:none;stroke-width:0.1"
         id="path922" />
      <path
         d="m 1120.31,374.93 c 2.55,0 5.11,0 7.66,0 2.06,0 2.06,3.19 0,3.19 -2.55,0 -5.11,0 -7.66,0 -2.06,0 -2.06,-3.19 0,-3.19"
         style="fill:#d8772e;fill-opacity:1;fill-rule:nonzero;stroke:none;stroke-width:0.1"
         id="path924" />
      <path
         d="m 1128.51,368.05 c 0.64,-1.27 1.28,-2.55 1.92,-3.83 0.38,-0.77 1.47,-0.99 2.18,-0.57 0.79,0.46 0.96,1.41 0.57,2.18 -0.64,1.28 -1.27,2.56 -1.91,3.84 -0.39,0.77 -1.47,0.99 -2.19,0.57 -0.78,-0.46 -0.96,-1.41 -0.57,-2.19"
         style="fill:#d8772e;fill-opacity:1;fill-rule:nonzero;stroke:none;stroke-width:0.1"
         id="path926" />
      <path
         d="m 1056.45,371.73 c 1.92,0 3.83,0 5.75,0 2.06,0 2.06,3.2 0,3.2 -1.92,0 -3.83,0 -5.75,0 -2.06,0 -2.06,-3.2 0,-3.2"
         style="fill:#d8772e;fill-opacity:1;fill-rule:nonzero;stroke:none;stroke-width:0.1"
         id="path928" />
      <path
         d="m 1032.4,349.44 c 1.76,-0.63 3.19,-1.99 4.72,-3.03 1.71,-1.16 3.31,1.61 1.62,2.76 -1.81,1.22 -3.41,2.6 -5.49,3.35 -1.95,0.7 -2.78,-2.39 -0.85,-3.08"
         style="fill:#d8772e;fill-opacity:1;fill-rule:nonzero;stroke:none;stroke-width:0.1"
         id="path930" />
      <path
         d="m 1019.41,350.02 c 1.49,0 2.98,0 4.47,0 2.06,0 2.06,3.19 0,3.19 -1.49,0 -2.98,0 -4.47,0 -2.06,0 -2.06,-3.19 0,-3.19"
         style="fill:#d8772e;fill-opacity:1;fill-rule:nonzero;stroke:none;stroke-width:0.1"
         id="path932" />
      <path
         d="m 1021.97,366.62 c 3.15,0.01 6.25,0.11 9.36,0.7 2.02,0.38 1.16,3.46 -0.85,3.08 -2.82,-0.53 -5.65,-0.58 -8.51,-0.58 -2.06,0 -2.06,-3.2 0,-3.2"
         style="fill:#d8772e;fill-opacity:1;fill-rule:nonzero;stroke:none;stroke-width:0.1"
         id="path934" />
      <path
         d="m 1198.43,357.1 c 2.42,-0.78 4.91,-1.29 7.45,-1.33 2.06,-0.03 2.06,3.16 0,3.19 -2.27,0.04 -4.45,0.52 -6.6,1.22 -1.96,0.64 -2.8,-2.44 -0.85,-3.08"
         style="fill:#d8772e;fill-opacity:1;fill-rule:nonzero;stroke:none;stroke-width:0.1"
         id="path936" />
      <path
         d="m 1192.47,370.46 c 1.73,0.03 3.38,0.6 5.11,0.64 2.05,0.04 2.06,3.23 0,3.19 -1.73,-0.04 -3.39,-0.6 -5.11,-0.64 -2.06,-0.04 -2.06,-3.24 0,-3.19"
         style="fill:#d8772e;fill-opacity:1;fill-rule:nonzero;stroke:none;stroke-width:0.1"
         id="path938" />
      <path
         d="m 1178.32,351.45 c 0.98,-1.84 2.91,-2.65 4.79,-3.29 1.95,-0.66 2.78,2.43 0.84,3.08 -0.67,0.23 -1.31,0.47 -1.93,0.83 -0.46,0.27 -0.69,0.51 -0.94,0.99 -0.97,1.82 -3.73,0.21 -2.76,-1.61"
         style="fill:#d8772e;fill-opacity:1;fill-rule:nonzero;stroke:none;stroke-width:0.1"
         id="path940" />
      <path
         d="m 1249.73,321.34 c 2.77,0.7 5.47,1.47 8.04,2.72 1.86,0.89 0.24,3.65 -1.61,2.75 -2.32,-1.12 -4.79,-1.77 -7.28,-2.39 -2,-0.5 -1.15,-3.58 0.85,-3.08"
         style="fill:#d8772e;fill-opacity:1;fill-rule:nonzero;stroke:none;stroke-width:0.1"
         id="path942" />
      <path
         d="m 1260.59,337.31 c 2.15,0.7 4.33,1.18 6.6,1.22 2.05,0.03 2.06,3.22 0,3.19 -2.55,-0.04 -5.04,-0.55 -7.45,-1.33 -1.95,-0.64 -1.12,-3.72 0.85,-3.08"
         style="fill:#d8772e;fill-opacity:1;fill-rule:nonzero;stroke:none;stroke-width:0.1"
         id="path944" />
      <path
         d="m 1277.14,333.31 c 0.85,-2.31 2.53,-4.1 4.24,-5.81 1.46,-1.46 3.72,0.8 2.26,2.26 -1.28,1.28 -2.78,2.66 -3.42,4.4 -0.7,1.92 -3.79,1.09 -3.08,-0.85"
         style="fill:#d8772e;fill-opacity:1;fill-rule:nonzero;stroke:none;stroke-width:0.1"
         id="path946" />
      <path
         d="m 1294.65,328.95 c 1.7,0 3.4,0 5.1,0 2.06,0 2.06,3.19 0,3.19 -1.7,0 -3.4,0 -5.1,0 -2.06,0 -2.06,-3.19 0,-3.19"
         style="fill:#d8772e;fill-opacity:1;fill-rule:nonzero;stroke:none;stroke-width:0.1"
         id="path948" />
      <path
         d="m 1283.53,346.72 c 0.93,-2.55 3.09,-4.08 5.58,-4.94 1.95,-0.68 2.78,2.4 0.85,3.08 -1.34,0.46 -2.84,1.31 -3.35,2.71 -0.71,1.92 -3.79,1.09 -3.08,-0.85"
         style="fill:#d8772e;fill-opacity:1;fill-rule:nonzero;stroke:none;stroke-width:0.1"
         id="path950" />
      <path
         d="m 1280.17,359.02 c 1.72,-0.59 3.39,-1.33 5.11,-1.92 1.96,-0.66 2.79,2.42 0.85,3.08 -1.72,0.59 -3.39,1.33 -5.11,1.92 -1.95,0.66 -2.79,-2.42 -0.85,-3.08"
         style="fill:#d8772e;fill-opacity:1;fill-rule:nonzero;stroke:none;stroke-width:0.1"
         id="path952" />
      <path
         d="m 1307.63,350.72 c 3.06,-1.26 5.91,-2.99 8.56,-4.95 1.66,-1.23 3.25,1.55 1.61,2.76 -2.9,2.14 -5.99,3.89 -9.32,5.27 -1.9,0.78 -2.72,-2.31 -0.85,-3.08"
         style="fill:#d8772e;fill-opacity:1;fill-rule:nonzero;stroke:none;stroke-width:0.1"
         id="path954" />
      <path
         d="m 1336.94,337.08 c 1.2,-1.2 2.56,-2.31 4.32,-2.38 0.87,-0.04 1.6,0.75 1.6,1.59 0,0.9 -0.73,1.56 -1.6,1.6 -0.28,0.01 -0.6,0.2 -1.03,0.5 -0.26,0.18 -0.72,0.63 -1.03,0.95 -1.46,1.45 -3.72,-0.8 -2.26,-2.26"
         style="fill:#d8772e;fill-opacity:1;fill-rule:nonzero;stroke:none;stroke-width:0.1"
         id="path956" />
      <path
         d="m 904.363,229.48 c 1.19,-2.16 3.689,-3.71 5.681,-5.04 1.715,-1.15 3.311,1.61 1.612,2.75 -1.529,1.03 -3.622,2.24 -4.536,3.9 -0.993,1.81 -3.75,0.19 -2.757,-1.61"
         style="fill:#ed974a;fill-opacity:1;fill-rule:nonzero;stroke:none;stroke-width:0.1"
         id="path958" />
      <path
         d="m 896.481,221.98 c 0.083,-3.76 1.229,-7.18 2.612,-10.64 0.754,-1.89 3.843,-1.06 3.079,0.85 -1.272,3.18 -2.421,6.32 -2.497,9.79 -0.046,2.06 -3.238,2.06 -3.194,0"
         style="fill:#ed974a;fill-opacity:1;fill-rule:nonzero;stroke:none;stroke-width:0.1"
         id="path960" />
      <path
         d="m 910.683,211.03 c 1.446,-0.8 2.374,-2.57 3.258,-3.9 1.137,-1.71 3.904,-0.11 2.758,1.61 -1.2,1.8 -2.449,3.97 -4.405,5.04 -1.805,0.99 -3.416,-1.76 -1.611,-2.75"
         style="fill:#ed974a;fill-opacity:1;fill-rule:nonzero;stroke:none;stroke-width:0.1"
         id="path962" />
      <path
         d="m 913.237,191.87 c 3.3,-1.92 6.918,-3.19 10.218,-5.11 1.784,-1.04 3.39,1.72 1.611,2.76 -3.299,1.91 -6.918,3.19 -10.217,5.1 -1.784,1.04 -3.391,-1.72 -1.612,-2.75"
         style="fill:#ed974a;fill-opacity:1;fill-rule:nonzero;stroke:none;stroke-width:0.1"
         id="path964" />
      <path
         d="m 942.141,180.16 c 3.193,0 6.386,0 9.579,0 2.059,0 2.059,3.19 0,3.19 -3.193,0 -6.386,0 -9.579,0 -2.059,0 -2.059,-3.19 0,-3.19"
         style="fill:#ed974a;fill-opacity:1;fill-rule:nonzero;stroke:none;stroke-width:0.1"
         id="path966" />
      <path
         d="m 930.646,194.84 c 3.069,0 6.128,-0.02 9.155,-0.58 2.012,-0.37 2.872,2.71 0.849,3.08 -3.314,0.61 -6.642,0.7 -10.004,0.7 -2.059,0 -2.059,-3.2 0,-3.2"
         style="fill:#ed974a;fill-opacity:1;fill-rule:nonzero;stroke:none;stroke-width:0.1"
         id="path968" />
      <path
         d="m 927.878,211.5 c 2.554,0.64 5.158,1.3 7.406,2.72 1.734,1.1 0.133,3.86 -1.612,2.76 -2.019,-1.28 -4.35,-1.82 -6.643,-2.4 -1.996,-0.5 -1.149,-3.58 0.849,-3.08"
         style="fill:#ed974a;fill-opacity:1;fill-rule:nonzero;stroke:none;stroke-width:0.1"
         id="path970" />
      <path
         d="m 951.553,205.92 c 2.851,-1.48 5.376,-3.6 7.34,-6.14 1.258,-1.63 3.501,0.65 2.258,2.26 -2.109,2.73 -4.925,5.05 -7.986,6.63 -1.826,0.95 -3.441,-1.81 -1.612,-2.75"
         style="fill:#ed974a;fill-opacity:1;fill-rule:nonzero;stroke:none;stroke-width:0.1"
         id="path972" />
      <path
         d="m 950.591,194.67 c 1.701,-1.7 3.441,-3.36 5.432,-4.72 1.706,-1.16 3.301,1.61 1.612,2.76 -1.762,1.2 -3.282,2.72 -4.786,4.22 -1.457,1.46 -3.715,-0.8 -2.258,-2.26"
         style="fill:#ed974a;fill-opacity:1;fill-rule:nonzero;stroke:none;stroke-width:0.1"
         id="path974" />
      <path
         d="m 961.724,161.05 c 2.767,0.7 5.466,1.48 8.044,2.72 1.854,0.9 0.234,3.65 -1.612,2.76 -2.321,-1.12 -4.791,-1.77 -7.281,-2.4 -1.997,-0.5 -1.149,-3.58 0.849,-3.08"
         style="fill:#ed974a;fill-opacity:1;fill-rule:nonzero;stroke:none;stroke-width:0.1"
         id="path976" />
      <path
         d="m 946.611,169.94 c 1.278,0 2.555,0 3.832,0 2.059,0 2.059,3.19 0,3.19 -1.277,0 -2.554,0 -3.832,0 -2.059,0 -2.059,-3.19 0,-3.19"
         style="fill:#ed974a;fill-opacity:1;fill-rule:nonzero;stroke:none;stroke-width:0.1"
         id="path978" />
      <path
         d="m 971.941,176.38 c 2.589,0.61 5.233,0.58 7.877,0.58 2.059,0 2.059,3.2 0,3.2 -2.933,-0.01 -5.855,-0.03 -8.726,-0.7 -2.005,-0.47 -1.154,-3.55 0.849,-3.08"
         style="fill:#ed974a;fill-opacity:1;fill-rule:nonzero;stroke:none;stroke-width:0.1"
         id="path980" />
      <path
         d="m 973.646,191.71 c 2.757,-0.69 5.517,-1.35 8.302,-1.92 2.01,-0.41 2.866,2.67 0.849,3.08 -2.785,0.56 -5.545,1.23 -8.302,1.92 -1.998,0.5 -2.846,-2.58 -0.849,-3.08"
         style="fill:#ed974a;fill-opacity:1;fill-rule:nonzero;stroke:none;stroke-width:0.1"
         id="path982" />
      <path
         d="m 990.184,193.4 c 1.344,-1.17 3.279,-1.11 4.961,-1.11 2.059,0 2.059,3.19 0,3.19 -0.573,0 -1.145,0.01 -1.717,0.04 -0.223,0.02 -0.422,0.04 -0.633,0.08 -0.241,0.05 -0.499,0.18 -0.353,0.05 -0.657,0.57 -1.61,0.65 -2.258,0 -0.582,-0.58 -0.658,-1.68 0,-2.25"
         style="fill:#ed974a;fill-opacity:1;fill-rule:nonzero;stroke:none;stroke-width:0.1"
         id="path984" />
      <path
         d="m 1016.86,176.96 c 2.44,0 4.85,-0.03 7.24,-0.58 2,-0.46 2.85,2.62 0.84,3.08 -2.66,0.62 -5.36,0.69 -8.08,0.7 -2.06,0 -2.06,-3.2 0,-3.2"
         style="fill:#ed974a;fill-opacity:1;fill-rule:nonzero;stroke:none;stroke-width:0.1"
         id="path986" />
      <path
         d="m 995.145,165.47 c 2.341,0 4.683,0 7.025,0 2.06,0 2.06,3.19 0,3.19 -2.342,0 -4.684,0 -7.025,0 -2.06,0 -2.06,-3.19 0,-3.19"
         style="fill:#ed974a;fill-opacity:1;fill-rule:nonzero;stroke:none;stroke-width:0.1"
         id="path988" />
      <path
         d="m 990.507,156.11 c 2.669,-2 5.378,-3.89 8.683,-4.63 2.01,-0.46 2.86,2.62 0.85,3.07 -3.036,0.69 -5.474,2.48 -7.921,4.31 -1.65,1.24 -3.239,-1.53 -1.612,-2.75"
         style="fill:#ed974a;fill-opacity:1;fill-rule:nonzero;stroke:none;stroke-width:0.1"
         id="path990" />
      <path
         d="m 1024.1,148.92 c 2.52,-0.58 5.13,-0.69 7.66,-1.28 2,-0.46 2.85,2.62 0.85,3.08 -2.53,0.59 -5.14,0.69 -7.67,1.28 -2,0.46 -2.85,-2.61 -0.84,-3.08"
         style="fill:#ed974a;fill-opacity:1;fill-rule:nonzero;stroke:none;stroke-width:0.1"
         id="path992" />
      <path
         d="m 1037.29,164.19 c 2.15,0.04 4.24,0.61 6.39,0.64 2.05,0.03 2.06,3.22 0,3.19 -2.15,-0.03 -4.24,-0.59 -6.39,-0.64 -2.05,-0.04 -2.06,-3.23 0,-3.19"
         style="fill:#ed974a;fill-opacity:1;fill-rule:nonzero;stroke:none;stroke-width:0.1"
         id="path994" />
      <path
         d="m 1055.81,175.05 c 2.09,0 4.16,0.07 6.17,0.69 1.96,0.61 1.13,3.69 -0.85,3.08 -1.74,-0.54 -3.5,-0.58 -5.32,-0.58 -2.06,0 -2.06,-3.19 0,-3.19"
         style="fill:#ed974a;fill-opacity:1;fill-rule:nonzero;stroke:none;stroke-width:0.1"
         id="path996" />
      <path
         d="m 1027.07,187.82 c 2.13,0 4.26,0 6.39,0 2.06,0 2.06,3.19 0,3.19 -2.13,0 -4.26,0 -6.39,0 -2.05,0 -2.05,-3.19 0,-3.19"
         style="fill:#ed974a;fill-opacity:1;fill-rule:nonzero;stroke:none;stroke-width:0.1"
         id="path998" />
      <path
         d="m 1093.32,152.28 c 2.41,-1.11 5.69,-1.55 8.26,-0.8 1.97,0.57 1.13,3.65 -0.85,3.07 -1.7,-0.49 -4.18,-0.26 -5.8,0.48 -1.86,0.85 -3.48,-1.9 -1.61,-2.75"
         style="fill:#ed974a;fill-opacity:1;fill-rule:nonzero;stroke:none;stroke-width:0.1"
         id="path1000" />
      <path
         d="m 1061.39,145.89 c 2.93,-2.1 6.46,-3.26 9.96,-3.99 2.01,-0.42 2.86,2.65 0.85,3.08 -3.26,0.68 -6.46,1.71 -9.2,3.67 -1.68,1.2 -3.27,-1.57 -1.61,-2.76"
         style="fill:#ed974a;fill-opacity:1;fill-rule:nonzero;stroke:none;stroke-width:0.1"
         id="path1002" />
      <path
         d="m 1073.05,161 c 2.74,0.08 4.97,1.29 7.19,2.77 1.71,1.14 0.11,3.9 -1.61,2.76 -1.73,-1.15 -3.44,-2.28 -5.58,-2.34 -2.05,-0.06 -2.06,-3.25 0,-3.19"
         style="fill:#ed974a;fill-opacity:1;fill-rule:nonzero;stroke:none;stroke-width:0.1"
         id="path1004" />
      <path
         d="m 1096.04,175.69 c 3.21,0.04 6.38,0.59 9.58,0.63 2.06,0.03 2.06,3.23 0,3.2 -3.2,-0.05 -6.37,-0.59 -9.58,-0.64 -2.05,-0.03 -2.06,-3.22 0,-3.19"
         style="fill:#ed974a;fill-opacity:1;fill-rule:nonzero;stroke:none;stroke-width:0.1"
         id="path1006" />
      <path
         d="m 1133.55,174.63 c 2.18,-1.39 4.71,-2.08 7.03,-3.2 1.84,-0.89 3.46,1.86 1.61,2.76 -2.31,1.12 -4.85,1.81 -7.03,3.19 -1.74,1.11 -3.34,-1.66 -1.61,-2.75"
         style="fill:#ed974a;fill-opacity:1;fill-rule:nonzero;stroke:none;stroke-width:0.1"
         id="path1008" />
      <path
         d="m 1126.27,159.14 c 1.32,-0.43 2.83,-0.52 4.09,-1.12 0.79,-0.37 1.72,-0.22 2.18,0.58 0.41,0.7 0.22,1.81 -0.57,2.18 -1.55,0.73 -3.23,0.92 -4.85,1.44 -1.97,0.63 -2.8,-2.45 -0.85,-3.08"
         style="fill:#ed974a;fill-opacity:1;fill-rule:nonzero;stroke:none;stroke-width:0.1"
         id="path1010" />
      <path
         d="m 1125.58,139.5 c 1.29,0.58 2.94,0.42 4.31,0.42 2.06,0.01 2.06,3.2 0,3.2 -2.02,0 -4.04,-0.01 -5.92,-0.86 -0.79,-0.36 -0.97,-1.49 -0.57,-2.18 0.47,-0.81 1.39,-0.94 2.18,-0.58"
         style="fill:#ed974a;fill-opacity:1;fill-rule:nonzero;stroke:none;stroke-width:0.1"
         id="path1012" />
      <path
         d="m 1177.78,160.36 c 2.57,0.04 4.98,0.71 7.45,1.33 2,0.51 1.15,3.59 -0.85,3.08 -2.19,-0.55 -4.32,-1.18 -6.6,-1.22 -2.05,-0.03 -2.06,-3.22 0,-3.19"
         style="fill:#ed974a;fill-opacity:1;fill-rule:nonzero;stroke:none;stroke-width:0.1"
         id="path1014" />
      <path
         d="m 882.49,251.57 c 0.764,-2.17 1.954,-4.15 2.554,-6.38 0.533,-1.99 3.613,-1.15 3.079,0.85 -0.601,2.24 -1.79,4.21 -2.555,6.38 -0.678,1.93 -3.764,1.1 -3.078,-0.85"
         style="fill:#ed974a;fill-opacity:1;fill-rule:nonzero;stroke:none;stroke-width:0.1"
         id="path1016" />
      <path
         d="m 930.008,201.87 c 3.455,0.05 6.781,0.73 10.003,1.97 1.9,0.73 1.075,3.82 -0.849,3.08 -2.965,-1.14 -5.97,-1.81 -9.154,-1.86 -2.057,-0.03 -2.06,-3.22 0,-3.19"
         style="fill:#ed974a;fill-opacity:1;fill-rule:nonzero;stroke:none;stroke-width:0.1"
         id="path1018" />
      <path
         d="m 922.835,197.23 c 1.44,1.61 1.641,4.02 1.049,6.02 -0.581,1.97 -3.663,1.13 -3.079,-0.85 0.261,-0.88 0.321,-2.3 -0.228,-2.92 -1.368,-1.52 0.882,-3.79 2.258,-2.25"
         style="fill:#ed974a;fill-opacity:1;fill-rule:nonzero;stroke:none;stroke-width:0.1"
         id="path1020" />
      <path
         d="m 930.545,182.86 c 1.281,-2.68 1.91,-5.61 3.193,-8.3 0.887,-1.86 3.64,-0.24 2.757,1.61 -1.281,2.68 -1.91,5.62 -3.193,8.3 -0.887,1.86 -3.64,0.24 -2.757,-1.61"
         style="fill:#ed974a;fill-opacity:1;fill-rule:nonzero;stroke:none;stroke-width:0.1"
         id="path1022" />
      <path
         d="m 958.106,171.22 c 2.554,0 5.109,0 7.663,0 2.059,0 2.059,3.19 0,3.19 -2.554,0 -5.109,0 -7.663,0 -2.059,0 -2.059,-3.19 0,-3.19"
         style="fill:#ed974a;fill-opacity:1;fill-rule:nonzero;stroke:none;stroke-width:0.1"
         id="path1024" />
      <path
         d="m 959.383,180.79 c 3.181,0.05 6.412,0.8 8.792,3.03 1.509,1.4 -0.755,3.66 -2.258,2.25 -1.743,-1.62 -4.228,-2.05 -6.534,-2.08 -2.057,-0.03 -2.06,-3.22 0,-3.2"
         style="fill:#ed974a;fill-opacity:1;fill-rule:nonzero;stroke:none;stroke-width:0.1"
         id="path1026" />
      <path
         d="m 967.309,192.18 c 0.574,2.3 1.114,4.63 2.393,6.65 1.105,1.74 -1.659,3.34 -2.757,1.61 -1.424,-2.25 -2.076,-4.85 -2.716,-7.41 -0.5,-2 2.58,-2.84 3.08,-0.85"
         style="fill:#ed974a;fill-opacity:1;fill-rule:nonzero;stroke:none;stroke-width:0.1"
         id="path1028" />
      <path
         d="m 975.772,182.77 c 2.34,0.74 5.028,1.16 7.454,0.64 2.006,-0.44 2.86,2.64 0.848,3.07 -2.986,0.65 -6.254,0.28 -9.15,-0.63 -1.957,-0.62 -1.121,-3.7 0.848,-3.08"
         style="fill:#ed974a;fill-opacity:1;fill-rule:nonzero;stroke:none;stroke-width:0.1"
         id="path1030" />
      <path
         d="m 978.643,164.34 c 1.547,2.01 3.601,3.7 6.07,4.38 1.983,0.54 1.14,3.62 -0.849,3.08 -3.323,-0.92 -5.911,-3.17 -7.979,-5.85 -1.258,-1.63 1.518,-3.21 2.758,-1.61"
         style="fill:#ed974a;fill-opacity:1;fill-rule:nonzero;stroke:none;stroke-width:0.1"
         id="path1032" />
      <path
         d="m 979.18,155.89 c 2.059,0 2.059,3.19 0,3.19 -2.059,0 -2.059,-3.19 0,-3.19"
         style="fill:#ed974a;fill-opacity:1;fill-rule:nonzero;stroke:none;stroke-width:0.1"
         id="path1034" />
      <path
         d="m 979.818,155.89 c 1.277,0 2.555,0 3.832,0 2.059,0 2.059,3.19 0,3.19 -1.277,0 -2.555,0 -3.832,0 -2.059,0 -2.059,-3.19 0,-3.19"
         style="fill:#ed974a;fill-opacity:1;fill-rule:nonzero;stroke:none;stroke-width:0.1"
         id="path1036" />
      <path
         d="m 988.759,177.6 c 2.359,-0.03 4.826,-0.43 6.857,-1.7 1.753,-1.09 3.354,1.67 1.612,2.76 -2.498,1.56 -5.566,2.09 -8.469,2.13 -2.061,0.03 -2.058,-3.16 0,-3.19"
         style="fill:#ed974a;fill-opacity:1;fill-rule:nonzero;stroke:none;stroke-width:0.1"
         id="path1038" />
      <path
         d="m 1002.81,185.9 c 2.55,0 5.11,0 7.66,0 2.06,0 2.06,3.2 0,3.2 -2.55,0 -5.11,0 -7.66,0 -2.06,0 -2.06,-3.2 0,-3.2"
         style="fill:#ed974a;fill-opacity:1;fill-rule:nonzero;stroke:none;stroke-width:0.1"
         id="path1040" />
      <path
         d="m 1011.75,168.02 c 2.36,-0.04 4.66,-0.6 7.02,-0.64 2.06,-0.03 2.06,3.16 0,3.2 -2.36,0.04 -4.66,0.6 -7.02,0.64 -2.06,0.03 -2.06,-3.16 0,-3.2"
         style="fill:#ed974a;fill-opacity:1;fill-rule:nonzero;stroke:none;stroke-width:0.1"
         id="path1042" />
      <path
         d="m 1009.41,155.31 c 1.7,-0.58 3.22,-1.41 4.73,-2.4 1.72,-1.13 3.32,1.63 1.61,2.76 -1.73,1.14 -3.53,2.05 -5.49,2.72 -1.96,0.66 -2.79,-2.42 -0.85,-3.08"
         style="fill:#ed974a;fill-opacity:1;fill-rule:nonzero;stroke:none;stroke-width:0.1"
         id="path1044" />
      <path
         d="m 1037.93,155.25 c 1.64,0 3.14,0.16 4.64,0.86 0.79,0.36 0.98,1.48 0.57,2.18 -0.47,0.8 -1.39,0.94 -2.18,0.57 -0.95,-0.44 -2.01,-0.42 -3.03,-0.42 -2.06,0 -2.06,-3.19 0,-3.19"
         style="fill:#ed974a;fill-opacity:1;fill-rule:nonzero;stroke:none;stroke-width:0.1"
         id="path1046" />
      <path
         d="m 1040.48,176.96 c -0.28,0.06 -0.35,0.06 -0.19,0.03 l -0.26,0.11 c 0.13,-0.09 0.08,-0.04 -0.17,0.14 0.1,-0.08 0.18,-0.17 0.27,-0.26 0.47,-0.42 1,-0.63 1.63,-0.66 0.87,-0.04 1.6,0.76 1.6,1.6 0,0.9 -0.73,1.56 -1.6,1.6 0.29,-0.06 0.35,-0.06 0.2,-0.03 l 0.26,-0.11 c -0.14,0.09 -0.08,0.04 0.17,-0.14 -0.1,0.08 -0.18,0.17 -0.27,0.26 -0.47,0.42 -1,0.63 -1.64,0.66 -0.87,0.04 -1.59,-0.76 -1.59,-1.6 0,-0.9 0.73,-1.56 1.59,-1.6"
         style="fill:#ed974a;fill-opacity:1;fill-rule:nonzero;stroke:none;stroke-width:0.1"
         id="path1048" />
      <path
         d="m 1022.44,159.3 c 1.86,-0.9 3.83,-1.45 5.91,-1.5 2.06,-0.04 2.06,3.15 0,3.2 -1.49,0.03 -2.96,0.41 -4.3,1.06 -1.85,0.89 -3.47,-1.86 -1.61,-2.76"
         style="fill:#ed974a;fill-opacity:1;fill-rule:nonzero;stroke:none;stroke-width:0.1"
         id="path1050" />
      <path
         d="m 1226.95,185.26 c 1.92,0 3.84,0 5.75,0 2.06,0 2.06,3.2 0,3.2 -1.91,0 -3.83,0 -5.75,0 -2.05,0 -2.05,-3.2 0,-3.2"
         style="fill:#ed974a;fill-opacity:1;fill-rule:nonzero;stroke:none;stroke-width:0.1"
         id="path1052" />
      <path
         d="m 1240.85,153.16 c 1.28,1.28 2.56,2.56 3.84,3.84 1.45,1.45 -0.8,3.71 -2.26,2.25 -1.28,-1.27 -2.56,-2.55 -3.83,-3.83 -1.46,-1.46 0.8,-3.71 2.25,-2.26"
         style="fill:#ed974a;fill-opacity:1;fill-rule:nonzero;stroke:none;stroke-width:0.1"
         id="path1054" />
      <path
         d="m 1206.84,146.63 c 0,0.1 0,0.2 0.01,0.31 -0.04,-0.5 -0.01,-0.11 0.03,0.02 0.1,0.41 -0.13,-0.23 -0.01,0 0.19,0.35 -0.19,-0.21 -0.02,-0.02 0.2,0.21 -0.33,-0.23 -0.09,-0.06 0.34,0.22 -0.27,-0.09 -0.02,0.01 0.11,0.04 0.23,0.06 0.35,0.08 -0.51,-0.09 -0.06,-0.02 0.07,-0.02 0.87,0.01 1.59,0.72 1.59,1.59 0,0.87 -0.72,1.61 -1.59,1.6 -0.96,-0.01 -1.86,-0.27 -2.57,-0.94 -0.69,-0.66 -0.93,-1.65 -0.94,-2.57 -0.02,-0.87 0.73,-1.6 1.59,-1.6 0.88,0 1.59,0.73 1.6,1.6"
         style="fill:#ed974a;fill-opacity:1;fill-rule:nonzero;stroke:none;stroke-width:0.1"
         id="path1056" />
      <path
         d="m 1286.56,186.6 c 1.59,-0.53 3.21,-1.02 4.73,-1.76 1.84,-0.89 3.46,1.86 1.61,2.76 -1.77,0.86 -3.64,1.46 -5.49,2.08 -1.96,0.65 -2.8,-2.43 -0.85,-3.08"
         style="fill:#ed974a;fill-opacity:1;fill-rule:nonzero;stroke:none;stroke-width:0.1"
         id="path1058" />
      <path
         d="m 1304.65,200.65 c 1.88,0.58 3.86,0.69 5.75,1.27 1.96,0.61 1.12,3.7 -0.85,3.08 -1.88,-0.58 -3.87,-0.69 -5.75,-1.27 -1.96,-0.61 -1.12,-3.69 0.85,-3.08"
         style="fill:#ed974a;fill-opacity:1;fill-rule:nonzero;stroke:none;stroke-width:0.1"
         id="path1060" />
      <path
         d="m 917.069,179.1 c 1.921,-1.29 3.771,-2.6 5.424,-4.22 1.47,-1.45 3.729,0.81 2.258,2.25 -1.842,1.81 -3.929,3.29 -6.071,4.72 -1.718,1.15 -3.315,-1.62 -1.611,-2.75"
         style="fill:#ed974a;fill-opacity:1;fill-rule:nonzero;stroke:none;stroke-width:0.1"
         id="path1062" />
      <path
         d="m 903.288,195 c 2.019,2.64 4.366,5.01 6.386,7.66 1.25,1.64 -1.526,3.22 -2.757,1.61 -2.019,-2.64 -4.366,-5.02 -6.386,-7.66 -1.25,-1.64 1.526,-3.23 2.757,-1.61"
         style="fill:#ed974a;fill-opacity:1;fill-rule:nonzero;stroke:none;stroke-width:0.1"
         id="path1064" />
      <path
         d="m 917.875,219.75 c 2.165,-0.06 3.765,-1.26 5.257,-2.73 1.47,-1.44 3.728,0.82 2.258,2.26 -2.113,2.07 -4.482,3.58 -7.515,3.66 -2.061,0.06 -2.056,-3.14 0,-3.19"
         style="fill:#ed974a;fill-opacity:1;fill-rule:nonzero;stroke:none;stroke-width:0.1"
         id="path1066" />
      <path
         d="m 940.226,185.9 c 1.915,0 3.831,0 5.747,0 2.059,0 2.059,3.2 0,3.2 -1.916,0 -3.832,0 -5.747,0 -2.06,0 -2.06,-3.2 0,-3.2"
         style="fill:#ed974a;fill-opacity:1;fill-rule:nonzero;stroke:none;stroke-width:0.1"
         id="path1068" />
      <path
         d="m 946.235,199.21 c 0.586,2.53 0.691,5.13 1.277,7.66 0.465,2 -2.614,2.86 -3.079,0.85 -0.586,-2.53 -0.691,-5.13 -1.277,-7.66 -0.465,-2.01 2.614,-2.86 3.079,-0.85"
         style="fill:#ed974a;fill-opacity:1;fill-rule:nonzero;stroke:none;stroke-width:0.1"
         id="path1070" />
      <path
         d="m 974.709,198.04 c 2.019,0 4.018,0.02 5.962,-0.58 1.971,-0.62 2.807,2.46 0.849,3.07 -2.208,0.69 -4.519,0.7 -6.811,0.7 -2.059,0 -2.059,-3.19 0,-3.19"
         style="fill:#ed974a;fill-opacity:1;fill-rule:nonzero;stroke:none;stroke-width:0.1"
         id="path1072" />
      <path
         d="m 949.166,163.55 c 2.554,0 5.108,0 7.663,0 2.059,0 2.059,3.2 0,3.2 -2.555,0 -5.109,0 -7.663,0 -2.06,0 -2.06,-3.2 0,-3.2"
         style="fill:#ed974a;fill-opacity:1;fill-rule:nonzero;stroke:none;stroke-width:0.1"
         id="path1074" />
    </g>
  </g>
</svg>
