<svg width="699" height="334" viewBox="0 0 699 334" fill="none" xmlns="http://www.w3.org/2000/svg">
<g clip-path="url(#clip0_141_364)">
<path d="M632.261 60.5756C582.141 36.0956 110.314 29.0689 52.4153 64.8289C-1.22741 98.8823 -1.22747 169.562 0.47653 196.802C2.1792 224.056 35.3858 338.149 347.02 333.042C658.66 327.922 682.661 235.189 691.861 218.082C703.781 195.949 705.487 96.3356 632.261 60.5756" fill="#893C29"/>
<path d="M318.927 0.108879C112.878 2.70888 14.0992 68.2288 14.0992 138.055C14.0992 202.855 133.303 250.442 310.407 255.549C487.514 260.655 660.354 212.976 673.127 142.309C685.554 73.5755 589.687 -3.29112 318.927 0.108879Z" fill="#C25739"/>
<path d="M26.0192 141.456C26.8712 170.402 55.8218 204.469 131.601 224.056C283.154 263.216 475.994 246.789 470.487 238.522C463.674 228.309 388.901 260.589 161.402 218.082C124.35 211.162 93.2898 199.056 73.7018 183.176C52.3285 165.856 44.1045 144.629 43.9005 134.642C43.0485 92.9222 72.8512 81.8556 61.7818 76.7489C55.5485 73.8689 24.5165 90.3222 26.0192 141.456" fill="#F9735D"/>
<path d="M179.007 21.8822C171.141 22.3755 152.338 42.6156 119.385 83.3356C86.4328 124.069 55.8341 161.082 69.1714 165.536C82.5101 169.976 117.031 122.589 138.215 93.7089C159.399 64.8289 202.554 20.4022 179.007 21.8822" fill="#893C29"/>
<path d="M279.754 15.3489C271.234 16.0556 229.674 67.7622 195.154 110.896C160.618 154.029 124.661 198.749 139.265 203.029C153.867 207.296 193.767 151.709 215.887 121.176C238.007 90.6556 305.247 13.2022 279.754 15.3489Z" fill="#893C29"/>
<path d="M391.301 14.5756C382.807 15.5089 339.327 79.4023 306.781 123.776C274.234 168.149 231.221 220.709 252.514 220.709C267.861 220.709 307.247 164.602 327.967 133.282C348.674 101.962 426.207 10.7356 391.301 14.5756" fill="#893C29"/>
<path d="M507.354 25.4556C498.834 24.7222 454.594 82.1356 420.794 125.749C387.007 169.349 342.501 220.896 363.781 221.389C379.127 221.749 420.114 166.576 441.714 135.736C463.314 104.909 531.994 27.5622 507.354 25.4556Z" fill="#893C29"/>
<path d="M605.141 55.2823C598.287 54.8689 564.007 101.162 537.821 136.309C511.634 171.456 477.021 213.109 494.127 213.096C506.461 213.082 538.167 168.629 554.834 143.816C571.514 119.002 624.981 56.4823 605.141 55.2823Z" fill="#893C29"/>
<path d="M35.2513 202.136C36.8379 205.016 40.17 207.069 42.826 208.856C45.1126 210.389 47.2406 206.709 44.9753 205.189C42.9366 203.816 40.146 202.202 38.9273 199.989C37.6033 197.576 33.9273 199.722 35.2513 202.136" fill="#C25739"/>
<path d="M24.7421 212.136C24.8527 217.149 26.3807 221.696 28.2247 226.322C29.2301 228.829 33.3487 227.736 32.33 225.189C30.634 220.936 29.102 216.749 29.0007 212.136C28.9393 209.389 24.6834 209.376 24.7421 212.136Z" fill="#C25739"/>
<path d="M43.6779 226.736C45.6059 227.802 46.8433 230.162 48.0219 231.936C49.5379 234.202 53.2273 232.082 51.6993 229.789C50.0993 227.389 48.434 224.496 45.826 223.069C43.4193 221.736 41.2713 225.416 43.6779 226.736" fill="#C25739"/>
<path d="M47.0833 252.282C51.4833 254.842 56.3073 256.536 60.7073 259.096C63.086 260.482 65.2273 256.802 62.8553 255.416C58.4566 252.856 53.6313 251.162 49.2326 248.602C46.854 247.229 44.7113 250.909 47.0833 252.282Z" fill="#C25739"/>
<path d="M85.622 267.896C89.8793 267.896 94.1366 267.896 98.394 267.896C101.139 267.896 101.139 263.642 98.394 263.642C94.1366 263.642 89.8793 263.642 85.622 263.642C82.8767 263.642 82.8767 267.896 85.622 267.896Z" fill="#C25739"/>
<path d="M70.2952 248.309C74.3872 248.322 78.4659 248.349 82.5019 249.096C85.1846 249.589 86.3312 245.482 83.6339 244.989C79.2152 244.162 74.7779 244.056 70.2952 244.056C67.5499 244.056 67.5499 248.309 70.2952 248.309Z" fill="#C25739"/>
<path d="M66.6046 226.096C70.0099 225.242 73.4819 224.376 76.4793 222.482C78.7913 221.016 76.6566 217.336 74.3299 218.802C71.6379 220.509 68.5299 221.229 65.4726 222.002C62.8113 222.669 63.9406 226.762 66.6046 226.096Z" fill="#C25739"/>
<path d="M98.1713 233.549C101.973 235.522 105.339 238.349 107.958 241.736C109.635 243.896 112.626 240.869 110.969 238.722C108.157 235.082 104.402 231.989 100.321 229.869C97.8859 228.616 95.7326 232.282 98.1713 233.549" fill="#C25739"/>
<path d="M96.8885 248.549C99.1565 250.815 101.477 253.029 104.131 254.842C106.406 256.389 108.533 252.696 106.281 251.162C103.931 249.562 101.905 247.535 99.8992 245.535C97.9565 243.589 94.9459 246.602 96.8885 248.549Z" fill="#C25739"/>
<path d="M111.733 293.362C115.422 292.442 119.021 291.402 122.458 289.749C124.93 288.549 122.77 284.882 120.309 286.069C117.214 287.562 113.921 288.429 110.601 289.256C107.938 289.922 109.069 294.029 111.733 293.362" fill="#C25739"/>
<path d="M91.5819 281.522C93.2859 281.522 94.9886 281.522 96.6912 281.522C99.4366 281.522 99.4366 277.269 96.6912 277.269C94.9886 277.269 93.2859 277.269 91.5819 277.269C88.8366 277.269 88.8366 281.522 91.5819 281.522Z" fill="#C25739"/>
<path d="M125.355 272.936C128.807 272.122 132.333 272.162 135.858 272.162C138.603 272.162 138.603 267.896 135.858 267.896C131.947 267.896 128.051 267.936 124.223 268.829C121.55 269.456 122.685 273.562 125.355 272.936Z" fill="#C25739"/>
<path d="M127.629 252.495C131.305 253.415 134.985 254.295 138.698 255.055C141.378 255.589 142.519 251.496 139.83 250.949C136.117 250.189 132.437 249.309 128.761 248.389C126.097 247.722 124.966 251.829 127.629 252.495Z" fill="#C25739"/>
<path d="M149.679 250.242C151.471 251.802 154.051 251.722 156.294 251.722C159.039 251.722 159.039 247.469 156.294 247.469C155.53 247.469 154.767 247.456 154.005 247.416C153.707 247.389 153.442 247.362 153.161 247.309C152.839 247.242 152.495 247.069 152.69 247.242C151.814 246.482 150.543 246.376 149.679 247.242C148.903 248.016 148.802 249.482 149.679 250.242Z" fill="#C25739"/>
<path d="M185.247 272.162C188.501 272.162 191.714 272.189 194.901 272.936C197.567 273.549 198.701 269.442 196.021 268.829C192.474 268.002 188.874 267.896 185.247 267.896C182.501 267.896 182.501 272.149 185.247 272.162" fill="#C25739"/>
<path d="M156.294 287.482C159.415 287.482 162.538 287.482 165.661 287.482C168.407 287.482 168.407 283.229 165.661 283.229C162.538 283.229 159.415 283.229 156.294 283.229C153.547 283.229 153.547 287.482 156.294 287.482Z" fill="#C25739"/>
<path d="M150.11 299.962C153.669 302.629 157.281 305.149 161.687 306.136C164.367 306.749 165.501 302.642 162.821 302.029C158.773 301.122 155.522 298.736 152.259 296.282C150.059 294.642 147.941 298.336 150.11 299.962Z" fill="#C25739"/>
<path d="M194.9 309.549C198.26 310.322 201.74 310.469 205.114 311.242C207.78 311.869 208.914 307.762 206.247 307.136C202.874 306.362 199.394 306.216 196.02 305.442C193.354 304.816 192.22 308.922 194.9 309.549Z" fill="#C25739"/>
<path d="M212.487 289.189C215.354 289.136 218.141 288.376 221.007 288.336C223.741 288.296 223.754 284.029 221.007 284.082C218.141 284.122 215.354 284.869 212.487 284.922C209.754 284.989 209.741 289.242 212.487 289.189Z" fill="#C25739"/>
<path d="M237.181 274.709C239.967 274.709 242.727 274.616 245.407 273.789C248.021 272.976 246.914 268.869 244.274 269.682C241.954 270.402 239.607 270.456 237.181 270.456C234.434 270.456 234.434 274.709 237.181 274.709" fill="#C25739"/>
<path d="M198.861 257.682C201.701 257.682 204.541 257.682 207.381 257.682C210.127 257.682 210.127 253.429 207.381 253.429C204.541 253.429 201.701 253.429 198.861 253.429C196.127 253.429 196.127 257.682 198.861 257.682Z" fill="#C25739"/>
<path d="M287.194 305.069C290.407 306.536 294.781 307.122 298.207 306.136C300.834 305.376 299.714 301.269 297.074 302.029C294.807 302.682 291.501 302.389 289.341 301.402C286.861 300.269 284.701 303.936 287.194 305.069" fill="#C25739"/>
<path d="M244.621 313.589C248.527 316.376 253.234 317.936 257.901 318.909C260.581 319.469 261.714 315.362 259.034 314.802C254.687 313.895 250.421 312.522 246.767 309.909C244.527 308.309 242.407 312.002 244.621 313.589Z" fill="#C25739"/>
<path d="M260.167 293.442C263.821 293.336 266.794 291.722 269.754 289.749C272.034 288.229 269.901 284.549 267.607 286.069C265.301 287.602 263.021 289.096 260.167 289.189C257.434 289.269 257.421 293.522 260.167 293.442" fill="#C25739"/>
<path d="M290.821 273.856C295.101 273.802 299.327 273.069 303.594 273.002C306.341 272.962 306.341 268.709 303.594 268.749C299.327 268.816 295.101 269.536 290.821 269.602C288.087 269.642 288.074 273.896 290.821 273.856Z" fill="#C25739"/>
<path d="M340.834 275.269C343.741 277.109 347.114 278.029 350.207 279.522C352.661 280.722 354.821 277.056 352.354 275.856C349.274 274.362 345.887 273.429 342.981 271.589C340.661 270.122 338.527 273.802 340.834 275.269Z" fill="#C25739"/>
<path d="M331.127 295.922C332.887 296.482 334.901 296.616 336.581 297.416C337.634 297.909 338.874 297.709 339.487 296.642C340.034 295.709 339.781 294.229 338.727 293.736C336.661 292.762 334.421 292.509 332.261 291.816C329.634 290.976 328.527 295.082 331.127 295.922" fill="#C25739"/>
<path d="M330.207 322.096C331.927 321.322 334.127 321.536 335.954 321.536C338.701 321.536 338.701 317.282 335.954 317.282C333.261 317.282 330.567 317.296 328.061 318.429C327.007 318.909 326.767 320.416 327.301 321.336C327.927 322.416 329.154 322.576 330.207 322.096Z" fill="#C25739"/>
<path d="M399.807 294.295C403.234 294.242 406.447 293.349 409.741 292.522C412.407 291.842 411.274 287.736 408.607 288.416C405.687 289.149 402.847 289.989 399.807 290.042C397.074 290.082 397.061 294.335 399.807 294.295" fill="#C25739"/>
<path d="M6.08734 172.682C7.10601 175.576 8.69269 178.202 9.49269 181.189C10.2034 183.842 14.31 182.709 13.598 180.056C12.7967 177.069 11.2113 174.442 10.1913 171.549C9.28734 168.975 5.17267 170.082 6.08734 172.682Z" fill="#C25739"/>
<path d="M69.4445 238.949C74.0512 238.882 78.4858 237.976 82.7818 236.322C85.3151 235.349 84.2151 231.229 81.6498 232.215C77.6965 233.735 73.6898 234.629 69.4445 234.696C66.7018 234.736 66.6978 238.989 69.4445 238.949Z" fill="#C25739"/>
<path d="M59.8806 245.136C61.8006 242.989 62.0685 239.776 61.2792 237.109C60.5045 234.482 56.3952 235.602 57.1739 238.242C57.5219 239.416 57.6019 241.309 56.8699 242.122C55.0459 244.162 58.0459 247.189 59.8806 245.136" fill="#C25739"/>
<path d="M70.1605 264.295C71.8685 267.869 72.7071 271.776 74.4178 275.362C75.6005 277.842 79.2712 275.669 78.0938 273.216C76.3858 269.642 75.5472 265.722 73.8365 262.136C72.6538 259.669 68.9831 261.829 70.1605 264.295Z" fill="#C25739"/>
<path d="M106.909 279.816C110.314 279.816 113.721 279.816 117.126 279.816C119.871 279.816 119.871 275.562 117.126 275.562C113.721 275.562 110.314 275.562 106.909 275.562C104.163 275.562 104.163 279.816 106.909 279.816Z" fill="#C25739"/>
<path d="M108.611 267.042C112.853 266.989 117.161 265.976 120.334 263.016C122.346 261.136 119.327 258.136 117.323 260.002C114.999 262.176 111.686 262.749 108.611 262.789C105.869 262.829 105.865 267.082 108.611 267.042" fill="#C25739"/>
<path d="M119.179 251.856C119.945 248.802 120.665 245.696 122.37 243.002C123.843 240.682 120.158 238.549 118.694 240.856C116.795 243.856 115.926 247.322 115.073 250.736C114.406 253.389 118.513 254.522 119.179 251.856" fill="#C25739"/>
<path d="M130.463 264.416C133.583 263.429 137.167 262.869 140.402 263.562C143.077 264.149 144.215 260.042 141.533 259.455C137.551 258.602 133.194 259.096 129.333 260.309C126.723 261.136 127.838 265.242 130.463 264.416" fill="#C25739"/>
<path d="M134.291 288.989C136.354 286.309 139.093 284.056 142.385 283.149C145.029 282.429 143.905 278.309 141.253 279.042C136.822 280.256 133.371 283.269 130.614 286.829C128.937 289.002 132.638 291.122 134.291 288.989Z" fill="#C25739"/>
<path d="M135.007 300.256C137.753 300.256 137.753 296.002 135.007 296.002C132.262 296.002 132.262 300.256 135.007 300.256Z" fill="#C25739"/>
<path d="M135.858 300.256C137.561 300.256 139.265 300.256 140.967 300.256C143.713 300.256 143.713 296.002 140.967 296.002C139.265 296.002 137.561 296.002 135.858 296.002C133.113 296.002 133.113 300.256 135.858 300.256Z" fill="#C25739"/>
<path d="M147.779 271.309C150.925 271.349 154.214 271.882 156.922 273.576C159.259 275.029 161.394 271.336 159.071 269.896C155.741 267.816 151.65 267.109 147.779 267.042C145.031 267.002 145.035 271.269 147.779 271.309" fill="#C25739"/>
<path d="M166.514 260.242C169.914 260.242 173.327 260.242 176.727 260.242C179.474 260.242 179.474 255.976 176.727 255.976C173.327 255.976 169.914 255.976 166.514 255.976C163.767 255.976 163.767 260.242 166.514 260.242Z" fill="#C25739"/>
<path d="M178.434 284.082C181.581 284.122 184.647 284.882 187.794 284.922C190.541 284.976 190.541 280.709 187.794 280.669C184.647 280.616 181.581 279.869 178.434 279.816C175.687 279.776 175.687 284.029 178.434 284.082Z" fill="#C25739"/>
<path d="M175.314 301.029C177.581 301.802 179.607 302.896 181.621 304.216C183.914 305.736 186.047 302.056 183.767 300.549C181.461 299.016 179.061 297.816 176.447 296.922C173.834 296.042 172.727 300.149 175.314 301.029Z" fill="#C25739"/>
<path d="M213.341 301.109C215.527 301.109 217.527 300.895 219.527 299.962C220.58 299.469 220.834 297.976 220.287 297.056C219.661 295.976 218.434 295.802 217.381 296.282C216.114 296.882 214.701 296.842 213.341 296.856C210.594 296.856 210.594 301.109 213.341 301.109Z" fill="#C25739"/>
<path d="M216.741 272.162C216.367 272.082 216.274 272.069 216.487 272.122L216.141 271.976C216.314 272.082 216.247 272.029 215.914 271.789C216.047 271.896 216.154 272.016 216.274 272.136C216.901 272.696 217.607 272.962 218.447 273.002C219.607 273.056 220.581 272.002 220.581 270.882C220.581 269.682 219.607 268.802 218.447 268.749C218.834 268.829 218.914 268.829 218.714 268.789L219.061 268.936C218.874 268.816 218.954 268.882 219.287 269.122C219.154 269.016 219.047 268.882 218.927 268.776C218.301 268.216 217.594 267.936 216.741 267.896C215.581 267.842 214.621 268.909 214.621 270.029C214.621 271.229 215.594 272.109 216.741 272.162Z" fill="#C25739"/>
<path d="M192.687 295.709C195.167 296.909 197.794 297.642 200.567 297.696C203.314 297.762 203.314 293.509 200.567 293.442C198.581 293.402 196.621 292.896 194.834 292.029C192.367 290.842 190.207 294.509 192.687 295.709" fill="#C25739"/>
<path d="M465.367 261.082C467.927 261.082 470.487 261.082 473.034 261.082C475.781 261.082 475.781 256.829 473.034 256.829C470.487 256.829 467.927 256.829 465.367 256.829C462.634 256.829 462.634 261.082 465.367 261.082Z" fill="#C25739"/>
<path d="M483.901 303.882C485.607 302.189 487.314 300.482 489.021 298.776C490.954 296.842 487.954 293.829 486.007 295.776C484.301 297.469 482.594 299.175 480.901 300.882C478.954 302.815 481.967 305.829 483.901 303.882Z" fill="#C25739"/>
<path d="M438.554 312.602C438.554 312.469 438.554 312.336 438.567 312.189C438.514 312.856 438.554 312.336 438.607 312.162C438.741 311.616 438.434 312.456 438.594 312.162C438.847 311.696 438.341 312.429 438.567 312.189C438.834 311.909 438.127 312.496 438.447 312.269C438.901 311.976 438.087 312.376 438.421 312.256C438.567 312.202 438.727 312.176 438.887 312.149C438.207 312.269 438.807 312.176 438.981 312.176C440.141 312.162 441.101 311.216 441.101 310.042C441.101 308.896 440.141 307.896 438.981 307.922C437.701 307.936 436.501 308.282 435.554 309.176C434.634 310.056 434.314 311.376 434.301 312.602C434.274 313.762 435.274 314.736 436.421 314.736C437.594 314.736 438.541 313.762 438.554 312.602" fill="#C25739"/>
<path d="M544.847 259.309C546.967 260.016 549.127 260.669 551.154 261.642C553.607 262.842 555.767 259.162 553.301 257.976C550.941 256.829 548.447 256.029 545.981 255.202C543.367 254.336 542.247 258.442 544.847 259.309Z" fill="#C25739"/>
<path d="M568.967 240.576C571.474 239.802 574.114 239.656 576.634 238.869C579.247 238.056 578.127 233.949 575.501 234.762C572.994 235.549 570.341 235.696 567.834 236.469C565.221 237.282 566.341 241.389 568.967 240.576Z" fill="#C25739"/>
<path d="M52.1926 269.309C54.754 271.016 57.2206 272.776 59.4246 274.936C61.3846 276.869 64.3966 273.856 62.4353 271.922C59.9793 269.522 57.1967 267.536 54.3407 265.629C52.05 264.109 49.9206 267.802 52.1926 269.309Z" fill="#C25739"/>
<path d="M33.818 248.109C36.51 244.589 39.6393 241.429 42.3327 237.896C43.9993 235.709 40.298 233.589 38.6567 235.749C35.9647 239.269 32.8353 242.442 30.142 245.962C28.4753 248.149 32.1767 250.269 33.818 248.109Z" fill="#C25739"/>
<path d="M53.2672 215.109C56.1539 215.189 58.2873 216.789 60.2766 218.749C62.2366 220.669 65.2473 217.656 63.2873 215.736C60.4699 212.962 57.3112 210.962 53.2672 210.856C50.5192 210.776 50.5259 215.042 53.2672 215.109" fill="#C25739"/>
<path d="M83.0687 260.242C85.622 260.242 88.1767 260.242 90.7313 260.242C93.4767 260.242 93.4767 255.976 90.7313 255.976C88.1767 255.976 85.622 255.976 83.0687 255.976C80.322 255.976 80.322 260.242 83.0687 260.242Z" fill="#C25739"/>
<path d="M91.0806 242.496C91.8619 239.122 92.002 235.656 92.7833 232.282C93.4033 229.602 89.2979 228.469 88.6779 231.149C87.8966 234.522 87.7566 237.989 86.9753 241.362C86.3553 244.029 90.4606 245.176 91.0806 242.496Z" fill="#C25739"/>
<path d="M129.046 244.055C131.738 244.055 134.403 244.016 136.995 244.829C139.623 245.656 140.738 241.549 138.127 240.736C135.183 239.802 132.102 239.802 129.046 239.802C126.301 239.802 126.301 244.055 129.046 244.055Z" fill="#C25739"/>
<path d="M94.9886 290.042C98.3939 290.042 101.799 290.042 105.206 290.042C107.951 290.042 107.951 285.776 105.206 285.776C101.799 285.776 98.3939 285.776 94.9886 285.776C92.2419 285.776 92.2419 290.042 94.9886 290.042Z" fill="#C25739"/>
</g>
<defs>
<clipPath id="clip0_141_364">
<rect width="698.083" height="333.208" fill="white"/>
</clipPath>
</defs>
</svg>
