<?xml version="1.0" encoding="UTF-8" standalone="no"?>
<!-- Created with Inkscape (http://www.inkscape.org/) -->

<svg
   width="179.85693mm"
   height="99.653419mm"
   viewBox="0 0 179.85693 99.653419"
   version="1.1"
   id="svg12531"
   inkscape:version="1.1.1 (3bf5ae0d25, 2021-09-20)"
   sodipodi:docname="cheese-common.svg"
   xmlns:inkscape="http://www.inkscape.org/namespaces/inkscape"
   xmlns:sodipodi="http://sodipodi.sourceforge.net/DTD/sodipodi-0.dtd"
   xmlns="http://www.w3.org/2000/svg"
   xmlns:svg="http://www.w3.org/2000/svg">
  <sodipodi:namedview
     id="namedview12533"
     pagecolor="#505050"
     bordercolor="#ffffff"
     borderopacity="1"
     inkscape:pageshadow="0"
     inkscape:pageopacity="0"
     inkscape:pagecheckerboard="1"
     inkscape:document-units="mm"
     showgrid="false"
     inkscape:zoom="0.72337262"
     inkscape:cx="358.73628"
     inkscape:cy="376.70765"
     inkscape:window-width="1920"
     inkscape:window-height="1001"
     inkscape:window-x="-9"
     inkscape:window-y="-9"
     inkscape:window-maximized="1"
     inkscape:current-layer="layer1" />
  <defs
     id="defs12528" />
  <g
     inkscape:label="Layer 1"
     inkscape:groupmode="layer"
     id="layer1"
     transform="translate(-10.290742,-48.929447)">
    <g
       id="g12237"
       transform="matrix(0.35277777,0,0,-0.35277777,-527.50138,709.03274)">
      <path
         d="m 1953.16,1770.73 c -6.71,-1.32 -16.47,-2.65 -19.52,1.98 -3.05,4.63 4.95,11.79 10.37,13.89 8.54,3.31 23.78,0 24.39,-4.63 0.61,-4.63 -8.53,-9.92 -15.24,-11.24 m -29.31,-11.9 c -11.21,-12.1 -19.8,-17.86 -34.65,-11.25 -8.41,3.75 -8.02,16.58 -5.91,23.62 3.33,11.09 9.72,18.62 27.71,14.53 10.73,-2.44 22.04,-16.99 12.85,-26.9 m -75.62,-69.77 c -2.8,-11.52 -25.47,-18.5 -45.59,-22.6 -25.26,-5.15 -36.75,19.09 -22.59,32.03 14.16,12.94 43.21,12.58 55.55,9.29 12.34,-3.3 13.67,-14.44 12.63,-18.72 m -84.18,140.53 c -6.37,8.59 1,15.88 4.95,17.85 10.6,5.29 32.04,-2.81 49.49,-11.24 21.92,-10.58 12.02,-31.08 -7.77,-31.08 -19.8,0 -40.31,15.87 -46.67,24.47 m -36.77,-64.81 c -7.78,-1.33 -19.09,-2.65 -22.63,1.98 -3.54,4.63 5.74,11.79 12.02,13.89 9.9,3.31 27.58,0 28.29,-4.63 0.7,-4.63 -9.9,-9.92 -17.68,-11.24 m -40.01,-13.7 c -3.15,-4.94 -22.29,-14.57 -45.58,-14.09 -23.28,0.49 -38.79,4.85 -36.16,11.66 5.45,14.08 28.76,18.11 36.66,18.94 27.74,2.91 50.03,-8.74 45.08,-16.51 m 70.88,120.06 c -17.9,1.8 -244.06,-124.97 -233.33,-141.85 4.83,-7.61 58.32,-36.67 118.18,-66.39 10.94,8.82 24.09,15.78 37.61,17.08 17.8,1.71 32.12,-7.18 28.85,-25.48 -1.09,-6.05 -4.05,-13.06 -8.17,-19.76 54.82,-25.75 103.56,-46.39 113.27,-45.73 17.44,1.18 16.2,24.63 41.53,45.7 45.89,38.17 97.15,82.64 134.31,105.78 13.79,8.59 42.35,15.69 42.77,28.62 0.55,16.83 -234.94,97.99 -275.02,102.03"
         style="fill:#ffdd33;fill-opacity:1;fill-rule:nonzero;stroke:none;stroke-width:0.1"
         id="path1514" />
      <path
         d="m 2034.28,1768.83 c 0.04,1.29 -1.33,2.98 -3.9,4.98 -1.53,-1.54 0.32,-6.08 -1.5,-7.64 -13.74,-11.82 -29.14,-15.48 -45.56,-24.55 -39.6,-21.89 -74.58,-51.08 -109.22,-80.14 -13.61,-11.43 -24.25,-22.11 -36.51,-35.56 -6.62,-7.26 -9.02,-25.77 -26.52,-29.15 -2.36,-0.46 -7.48,0.65 -24.35,0.65 15.17,-6.07 18.86,-9.15 28.95,-8.7 17.47,0.79 16.21,24.64 41.54,45.71 45.88,38.17 97.14,82.64 134.3,105.78 13.79,8.59 42.35,15.69 42.77,28.62"
         style="fill:#ef9c07;fill-opacity:1;fill-rule:nonzero;stroke:none;stroke-width:0.1"
         id="path1516" />
      <path
         d="m 1607.65,1745.34 c 5.45,14.08 28.77,18.11 36.66,18.94 20.13,2.11 37.37,-3.44 43.44,-9.61 -2.16,7.27 -21.86,15.41 -45.56,12.92 -7.9,-0.83 -31.21,-4.86 -36.66,-18.94 -0.74,-1.92 -0.05,-3.64 1.85,-5.13 -0.06,0.58 0.03,1.19 0.27,1.82"
         style="fill:#ef9c07;fill-opacity:1;fill-rule:nonzero;stroke:none;stroke-width:0.1"
         id="path1518" />
      <path
         d="m 1719.5,1778 c 7.62,2.55 19.83,1.18 25.38,-1.7 -1.36,4.48 -18.51,7.59 -28.21,4.35 -6.28,-2.1 -15.55,-9.26 -12.02,-13.89 0.59,-0.77 1.39,-1.37 2.35,-1.84 -2.01,4.62 6.57,11.1 12.5,13.08"
         style="fill:#ef9c07;fill-opacity:1;fill-rule:nonzero;stroke:none;stroke-width:0.1"
         id="path1520" />
      <path
         d="m 1947.46,1783.42 c 6.11,2.36 15.65,1.34 20.81,-1.13 -1.02,4.53 -15.94,7.69 -24.35,4.44 -5.42,-2.1 -13.42,-9.26 -10.37,-13.89 0.7,-1.07 1.77,-1.81 3.06,-2.31 -1.47,4.6 5.8,10.94 10.85,12.89"
         style="fill:#ef9c07;fill-opacity:1;fill-rule:nonzero;stroke:none;stroke-width:0.1"
         id="path1522" />
      <path
         d="m 1885.41,1767.6 c 3.33,11.09 9.72,18.63 27.71,14.54 4.42,-1.01 8.94,-4.07 12.09,-8.02 -2.65,6.06 -8.88,11.27 -14.92,12.65 -17.98,4.09 -24.38,-3.45 -27.7,-14.54 -1.81,-6.01 -2.35,-16.25 2.78,-21.44 -1.95,5.36 -1.31,12.28 0.04,16.81"
         style="fill:#ef9c07;fill-opacity:1;fill-rule:nonzero;stroke:none;stroke-width:0.1"
         id="path1524" />
      <path
         d="m 1766.48,1827.28 c -6.37,8.59 1,15.88 4.95,17.85 10.6,5.29 32.03,-2.81 49.49,-11.24 2.06,-1 3.84,-2.08 5.35,-3.22 -2.01,2.38 -4.92,4.62 -8.88,6.52 -17.46,8.43 -38.89,16.54 -49.5,11.25 -3.95,-1.97 -11.31,-9.26 -4.95,-17.86 1.56,-2.11 3.98,-4.66 7.03,-7.3 -1.41,1.43 -2.6,2.79 -3.49,4"
         style="fill:#ef9c07;fill-opacity:1;fill-rule:nonzero;stroke:none;stroke-width:0.1"
         id="path1526" />
      <path
         d="m 1782.55,1694.98 c 14.16,12.94 43.2,12.58 55.54,9.28 3.68,-0.98 6.37,-2.66 8.32,-4.65 -1.79,3.6 -5.18,7.03 -11.15,8.62 -12.33,3.29 -41.38,3.66 -55.54,-9.28 -8.18,-7.48 -7.8,-18.72 -1.16,-25.9 -3.69,6.92 -2.8,15.72 3.99,21.93"
         style="fill:#ef9c07;fill-opacity:1;fill-rule:nonzero;stroke:none;stroke-width:0.1"
         id="path1528" />
      <path
         d="m 1635.86,1685.03 c -5.64,0 -15.81,8.01 -18.16,9.62 -10.34,7.08 -21.58,11.8 -33.02,17.22 -6.3,2.98 -12.79,6.26 -19.43,8.71 -4.95,1.81 -11.09,2.89 -15.48,5.82 -20.03,13.37 18.45,32.97 28.68,38.72 11.41,6.42 21.49,15.04 32.64,21.37 7.67,4.36 15.45,11.94 24.03,14.44 l 4.71,4.41 c 0.07,-0.03 0.14,-0.05 0.24,-0.05 0.79,0 2.65,1.01 4.7,2.02 2.06,1 4.31,2.01 5.9,2.01 0,0 0,0 0.01,0 8.18,-0.01 6.62,-5.11 1.3,-8.71 -11.13,-7.53 -22.81,-14.4 -34.31,-21.82 -9.43,-6.09 -19.66,-11.21 -27.82,-18.84 -4.92,-4.61 -11.91,-14.08 -13.3,-20.74 -1.98,-9.48 10.18,-13.78 17.44,-17.74 9.83,-5.35 18.35,-12.51 28.3,-17.64 4.17,-2.16 18.72,-10.52 17.09,-16.21 -0.53,-1.86 -1.82,-2.59 -3.52,-2.59"
         style="fill:#fce566;fill-opacity:1;fill-rule:nonzero;stroke:none;stroke-width:0.1"
         id="path1530" />
    </g>
  </g>
</svg>
