<svg width="680" height="377" viewBox="0 0 680 377" fill="none" xmlns="http://www.w3.org/2000/svg">
<g clip-path="url(#clip0_141_890)">
<path d="M571.613 133.905C562.667 135.665 549.653 137.439 545.587 131.265C541.52 125.092 552.187 115.545 559.413 112.745C570.8 108.332 591.12 112.745 591.933 118.919C592.747 125.092 580.56 132.145 571.613 133.905ZM532.533 149.772C517.587 165.905 506.133 173.585 486.333 164.772C475.12 159.772 475.64 142.665 478.453 133.279C482.893 118.492 491.413 108.452 515.4 113.905C529.707 117.159 544.787 136.559 532.533 149.772M431.707 242.799C427.973 258.159 397.747 267.465 370.92 272.932C337.24 279.799 321.92 247.479 340.8 230.225C359.68 212.972 398.413 213.452 414.867 217.839C431.32 222.239 433.093 237.092 431.707 242.799M319.467 55.4254C310.973 43.9721 320.8 34.2521 326.067 31.6254C340.2 24.5721 368.787 35.3721 392.053 46.6121C421.28 60.7187 408.08 88.052 381.693 88.052C355.293 88.052 327.947 66.8921 319.467 55.4254ZM270.44 141.839C260.067 143.612 244.987 145.372 240.267 139.199C235.547 133.025 247.92 123.479 256.293 120.679C269.493 116.265 293.067 120.679 294.013 126.852C294.947 133.025 280.813 140.079 270.44 141.839M217.093 160.105C212.893 166.692 187.373 179.532 156.32 178.892C125.28 178.239 104.6 172.425 108.107 163.345C115.373 144.572 146.453 139.199 156.986 138.092C193.973 134.212 223.693 149.745 217.093 160.105M311.6 0.0253082C287.733 -2.37469 -13.8135 166.652 0.493143 189.159C6.93314 199.305 78.2532 238.052 158.067 277.679C172.653 265.919 190.187 256.639 208.213 254.905C231.947 252.625 251.04 264.479 246.68 288.879C245.227 296.945 241.28 306.292 235.787 315.225C308.88 349.559 373.867 377.079 386.813 376.199C410.067 374.625 408.413 343.359 442.186 315.265C503.373 264.372 571.72 205.079 621.267 174.225C639.653 162.772 677.733 153.305 678.293 136.065C679.027 113.625 365.04 5.41197 311.6 0.0253082" fill="#FFDD33"/>
<path d="M679.773 136.439C679.827 134.719 678 132.465 674.573 129.798C672.533 131.852 675 137.905 672.573 139.985C654.253 155.745 633.72 160.625 611.827 172.719C559.027 201.905 512.387 240.825 466.2 279.572C448.053 294.812 433.867 309.052 417.52 326.985C408.693 336.665 405.493 361.345 382.16 365.852C379.013 366.465 372.187 364.985 349.693 364.985C369.92 373.078 374.84 377.185 388.293 376.585C411.587 375.532 409.907 343.732 443.68 315.638C504.853 264.745 573.2 205.452 622.747 174.599C641.133 163.145 679.213 153.679 679.773 136.439" fill="#EF9C07"/>
<path d="M110.933 167.759C118.2 148.985 149.293 143.612 159.813 142.505C186.653 139.692 209.64 147.092 217.733 155.319C214.853 145.625 188.586 134.772 156.986 138.092C146.453 139.199 115.373 144.572 108.106 163.345C107.12 165.905 108.04 168.199 110.573 170.185C110.493 169.412 110.613 168.599 110.933 167.759Z" fill="#EF9C07"/>
<path d="M260.067 124.212C270.227 120.812 286.507 122.639 293.907 126.479C292.093 120.505 269.227 116.359 256.293 120.679C247.92 123.479 235.56 133.025 240.267 139.199C241.053 140.225 242.12 141.025 243.4 141.652C240.72 135.492 252.16 126.852 260.067 124.212" fill="#EF9C07"/>
<path d="M564.013 116.985C572.16 113.838 584.88 115.198 591.76 118.492C590.4 112.452 570.507 108.239 559.294 112.572C552.067 115.372 541.4 124.919 545.467 131.092C546.4 132.519 547.827 133.505 549.547 134.172C547.587 128.039 557.28 119.585 564.013 116.985Z" fill="#EF9C07"/>
<path d="M481.28 138.079C485.72 123.292 494.24 113.239 518.227 118.692C524.12 120.039 530.147 124.119 534.347 129.385C530.813 121.305 522.507 114.359 514.453 112.519C490.48 107.065 481.947 117.119 477.52 131.905C475.107 139.919 474.387 153.572 481.227 160.492C478.627 153.345 479.48 144.119 481.28 138.079" fill="#EF9C07"/>
<path d="M322.707 58.5053C314.213 47.0519 324.04 37.332 329.307 34.7053C343.44 27.652 372.013 38.4519 395.293 49.6919C398.04 51.0253 400.413 52.4652 402.427 53.9852C399.747 50.8119 395.867 47.8254 390.587 45.292C367.307 34.052 338.733 23.2387 324.587 30.292C319.32 32.9187 309.507 42.6387 317.987 54.1054C320.067 56.9187 323.293 60.3186 327.36 63.8386C325.48 61.9319 323.893 60.1186 322.707 58.5053" fill="#EF9C07"/>
<path d="M344.133 234.905C363.013 217.652 401.733 218.132 418.186 222.532C423.093 223.839 426.68 226.079 429.28 228.732C426.893 223.932 422.373 219.359 414.413 217.239C397.973 212.852 359.24 212.359 340.36 229.612C329.453 239.585 329.96 254.572 338.813 264.145C333.893 254.919 335.08 243.185 344.133 234.905" fill="#EF9C07"/>
<path d="M148.547 248.172C141.027 248.172 127.467 237.492 124.333 235.345C110.547 225.905 95.56 219.612 80.3067 212.385C71.9067 208.412 63.2533 204.039 54.3999 200.772C47.7999 198.359 39.6133 196.919 33.76 193.012C7.05328 175.185 58.3599 149.052 71.9999 141.385C87.2132 132.825 100.653 121.332 115.52 112.892C125.747 107.079 136.12 96.9718 147.56 93.6385L153.84 87.7586C153.933 87.7986 154.027 87.8252 154.16 87.8252C155.213 87.8252 157.693 86.4785 160.427 85.1318C163.173 83.7985 166.173 82.452 168.293 82.452C168.293 82.452 168.293 82.452 168.307 82.452C179.213 82.4653 177.133 89.2652 170.04 94.0652C155.2 104.105 139.627 113.265 124.293 123.158C111.72 131.278 98.0799 138.105 87.1999 148.279C80.6399 154.425 71.32 167.052 69.4667 175.932C66.8267 188.572 83.0399 194.305 92.7199 199.585C105.827 206.719 117.187 216.265 130.453 223.105C136.013 225.985 155.413 237.132 153.24 244.719C152.533 247.199 150.813 248.172 148.547 248.172" fill="#FCE566"/>
</g>
<defs>
<clipPath id="clip0_141_890">
<rect width="679.774" height="376.643" fill="white"/>
</clipPath>
</defs>
</svg>
