<svg width="723" height="383" viewBox="0 0 723 383" fill="none" xmlns="http://www.w3.org/2000/svg">
<g clip-path="url(#clip0_141_882)">
<path d="M346.862 0.115379C321.888 -4.56462 -12.6183 134.689 0.368412 158.489C13.4884 182.515 49.9018 176.289 94.2218 196.782C158.742 226.635 252.768 291.222 322.782 328.702C361.862 349.622 357.288 381.022 390.808 381.929C415.528 382.582 416.742 351.289 455.062 326.569C524.502 281.795 602.302 229.342 657.555 203.382C678.062 193.755 719.168 187.995 721.395 170.889C724.275 148.622 402.808 10.622 346.862 0.115379" fill="#FFBE00"/>
<path d="M389.715 346.515C386.662 346.515 383.288 343.289 377.902 336.355C370.595 326.955 363.582 317.822 355.648 308.782C333.088 283.102 304.008 265.555 273.768 247.155C256.782 236.835 240.248 225.809 221.955 217.502C202.795 208.795 181.262 203.795 163.115 193.609C135.608 178.182 113.435 170.382 83.0083 161.702C76.3816 159.809 51.595 155.475 47.7284 150.875C40.1684 141.889 55.2083 137.822 62.6483 133.289C79.875 122.769 95.8483 112.342 114.035 103.755L132.968 94.8619C135.382 89.8353 157.235 82.7553 167.608 79.0887C174.515 76.6487 180.315 75.5686 184.835 75.5686C199.982 75.5686 200.848 87.702 181.675 101.622C167.408 111.982 143.888 129.355 157.822 146.595C164.608 154.995 181.368 160.502 190.995 166.235C203.368 173.595 215.288 180.569 228.542 186.929C263.262 203.569 298.168 219.582 331.968 237.529C354.928 249.729 387.208 255.915 406.968 272.889C430.382 292.995 414.742 315.022 401.368 334.795C396.235 342.382 393.182 346.515 389.715 346.515" fill="#FFCB27"/>
<path d="M566.955 206.675C558.115 206.675 552.355 202.049 555.102 187.795C560.075 161.955 570.448 150.529 545.608 128.449C530.008 114.582 511.155 108.569 494.008 97.542C487.168 93.1553 477.115 86.542 473.048 79.7287C468.702 72.4487 470.568 64.7554 476.568 64.7554C478.835 64.7554 481.702 65.8619 485.035 68.5019L489.142 72.862C499.008 76.142 506.475 85.2887 516.155 89.9287C527.648 95.4487 539.408 99.9687 550.848 105.422C575.235 117.062 599.648 123.582 625.315 130.502C640.168 134.515 674.715 150.729 666.888 168.769C662.608 178.622 648.302 181.769 638.688 183.755C625.942 186.382 616.822 188.635 604.182 194.595C594.155 199.302 578.115 206.675 566.955 206.675" fill="#FFCB27"/>
<path d="M132.595 102.689L128.368 104.969C114.795 111.769 101.915 119.555 88.835 126.849C82.4616 130.409 51.6483 145.115 75.1416 147.102C90.7149 148.409 105.315 132.249 115.742 124.355C125.675 116.862 140.795 111.209 147.888 101.435C144.115 97.2887 136.062 98.7686 132.595 102.689" fill="#F9ED98"/>
<path d="M722.929 171.409C723.142 169.689 721.435 167.275 718.062 164.289C715.702 166.129 717.742 172.395 714.982 174.235C694.142 188.169 671.995 191.049 647.715 200.982C589.182 224.955 536.235 259.222 483.795 293.355C463.182 306.782 446.862 319.582 427.902 335.875C417.662 344.662 409.195 365.915 384.115 368.155C380.729 368.462 364.929 367.169 357.422 359.315C366.702 371.795 373.502 381.929 392.342 382.435C417.062 383.102 418.262 351.809 456.595 327.089C526.035 282.315 603.835 229.849 659.089 203.902C679.595 194.275 720.702 188.515 722.929 171.409Z" fill="#EF9C07"/>
</g>
<defs>
<clipPath id="clip0_141_882">
<rect width="722.946" height="382.446" fill="white"/>
</clipPath>
</defs>
</svg>
