<svg width="459" height="893" viewBox="0 0 459 893" fill="none" xmlns="http://www.w3.org/2000/svg">
<g clip-path="url(#clip0_141_975)">
<path d="M0 834.44H458.213V74.3242H0V834.44Z" fill="#FF1206"/>
<path d="M0.0131836 834.44L36.4132 892.253H229.107V834.44H0.0131836" fill="#CED5D0"/>
<path d="M458.213 834.44L421.813 892.253H229.106V834.44H458.213" fill="#CED5D0"/>
<path d="M0 74.3201L34.8 36.3468H229.107V74.3201H0Z" fill="#CED5D0"/>
<path d="M458.213 74.3201L423.426 36.3468H229.106V74.3201H458.213Z" fill="#CED5D0"/>
<path d="M422.507 36.3468H35.7202C25.6802 36.3468 17.5469 28.2001 17.5469 18.1735C17.5469 8.13346 25.6802 0.000145939 35.7202 0.000145939H422.507C432.534 0.000145939 440.68 8.13346 440.68 18.1735C440.68 28.2001 432.534 36.3468 422.507 36.3468Z" fill="#CED5D0"/>
<path d="M17.5469 18.1733H440.68V-9.86041e-05H17.5469V18.1733Z" fill="#D2D2D8"/>
<path d="M422.507 36.3468H35.7202C25.6802 36.3468 17.5469 28.2001 17.5469 18.1735C17.5469 18.1334 17.5469 18.1069 17.5469 18.0669C17.5469 18.0518 17.5469 18.0404 17.5469 18.0268C17.5469 18.0117 17.5469 18.0003 17.5469 17.9867C17.5593 16.3201 17.8269 14.7201 18.2536 13.1867C20.4269 20.8001 27.4135 26.3867 35.7202 26.3867H324.147C325.4 23.9201 326.12 21.1334 326.12 18.1734C326.12 8.13339 317.987 7.22211e-05 307.947 7.22211e-05H422.507C422.533 7.22211e-05 422.573 7.22211e-05 422.613 7.22211e-05C422.629 7.22211e-05 422.64 7.22211e-05 422.64 7.22211e-05C422.666 7.22211e-05 422.693 7.22211e-05 422.72 7.22211e-05C422.736 7.22211e-05 422.747 7.22211e-05 422.76 7.22211e-05C422.787 7.22211e-05 422.8 7.22211e-05 422.827 7.22211e-05C422.843 7.22211e-05 422.853 7.22211e-05 422.867 7.22211e-05C422.893 7.22211e-05 422.92 7.22211e-05 422.947 7.22211e-05C422.963 7.22211e-05 422.963 7.22211e-05 422.973 7.22211e-05C423.014 7.22211e-05 423.054 7.22211e-05 423.08 7.22211e-05C423.096 7.22211e-05 423.107 7.22211e-05 423.12 7.22211e-05C423.147 7.22211e-05 423.16 0.0151675 423.187 0.0151675C423.203 0.0151675 423.227 0.0151675 423.24 0.0151675C423.256 0.0151675 423.28 0.0151675 423.293 0.0151675C423.32 0.0151675 423.333 0.0151675 423.347 0.0151675C423.363 0.0151675 423.387 0.0151675 423.4 0.0151675C423.426 0.0151675 423.44 0.0151675 423.453 0.0151675C423.469 0.0302643 423.493 0.0302662 423.506 0.0302662C423.522 0.0302662 423.547 0.0302662 423.56 0.0302662H423.576C423.629 0.0302662 423.682 0.0453615 423.736 0.0453615C423.752 0.0453615 423.752 0.0453615 423.762 0.0453615C423.789 0.0453615 423.815 0.0453615 423.842 0.0453615C423.842 0.0453615 423.858 0.0453615 423.869 0.0453615C423.895 0.0604583 423.922 0.0604602 423.949 0.0604602C423.949 0.0604602 423.949 0.0604602 423.965 0.0604602C431.618 0.673801 437.938 6.03381 439.978 13.1938C440.178 13.9138 440.338 14.6605 440.445 15.4071C440.471 15.5405 440.485 15.674 440.511 15.8071C440.605 16.5538 440.671 17.3138 440.685 18.0871C440.685 18.1272 440.685 18.1537 440.685 18.1805C440.685 28.2072 432.538 36.3538 422.512 36.3538" fill="#B1B5B9"/>
<path d="M71.5602 595.013C69.1202 595.013 66.6669 594.534 64.2802 593.494C49.6002 587.107 46.7602 565.867 46.2535 548.534C44.4935 487.574 42.7336 426.627 40.9736 365.667C59.6269 356.413 79.6668 351.374 100.32 349.147C98.6002 410.374 98.8669 471.707 101.12 532.987C101.654 547.614 102.187 562.934 96.4935 576.027C91.9068 586.614 81.8002 595.013 71.5602 595.013ZM39.8802 327.56C39.6536 319.8 39.4269 312.04 39.2002 304.267C59.4002 295.2 80.4936 288.96 102.76 286.573C102.32 295.307 101.92 304.054 101.574 312.787C99.6536 312.92 97.7336 313.08 95.8136 313.267C76.5869 315.147 57.6669 320.027 39.8802 327.56" fill="#FF837D"/>
<path d="M63.9868 186.587C55.3868 186.587 46.7868 175.92 43.8268 160.227C40.2801 141.454 45.3202 118.24 54.7468 109.907C55.5735 109.174 56.5468 108.587 57.4401 108.587C58.1868 108.587 58.8935 108.987 59.4135 110.04L61.3735 106.427C62.0001 106.307 62.6268 106.24 63.2402 106.24C72.9335 106.24 82.2801 120.68 84.0535 139.133C85.9468 158.773 79.0001 180.08 68.9868 185.32C67.3468 186.187 65.6668 186.587 63.9868 186.587" fill="#FF837D"/>
<path d="M337.439 745.082C337.439 752.242 336.386 758.855 334.279 764.922C332.159 770.975 329.012 776.189 324.826 780.549C320.639 784.909 315.412 788.282 309.159 790.682C302.906 793.082 295.679 794.268 287.479 794.268C279.839 794.268 272.906 793.135 266.692 790.842C260.479 788.548 255.159 785.229 250.706 780.868C246.439 776.695 243.132 771.495 240.812 765.308C238.479 759.122 237.306 752.348 237.306 745.015C237.306 740.962 237.532 737.308 237.986 734.042C238.439 730.788 239.039 727.775 239.772 725.015C240.586 722.122 241.506 719.508 242.519 717.148C243.532 714.802 244.479 712.735 245.332 710.962H268.706V713.815C267.679 715.028 266.452 716.548 265.039 718.375C263.612 720.215 262.226 722.295 260.852 724.628C259.479 727.002 258.319 729.562 257.372 732.335C256.426 735.095 255.959 738.042 255.959 741.202C255.959 744.695 256.506 748.015 257.599 751.162C258.692 754.308 260.519 757.228 263.052 759.895C265.519 762.455 268.759 764.509 272.812 766.082C276.866 767.655 281.772 768.442 287.546 768.442C293.572 768.442 298.612 767.602 302.652 765.882C306.706 764.188 309.892 762.042 312.212 759.455C314.586 756.815 316.279 753.882 317.279 750.642C318.292 747.415 318.799 744.215 318.799 741.069C318.799 738.042 318.359 735.055 317.452 732.108C316.546 729.148 315.332 726.415 313.786 723.908C312.532 721.802 311.199 719.842 309.786 718.028C308.372 716.215 307.146 714.722 306.119 713.562V710.962H329.159C330.239 713.389 331.252 715.695 332.199 717.895C333.146 720.095 333.972 722.402 334.666 724.815C335.572 727.975 336.252 730.922 336.732 733.682C337.212 736.455 337.439 740.242 337.439 745.082" fill="#EDEDC3"/>
<path d="M311.813 631.935C308.879 629.522 305.413 627.735 301.426 626.562C297.439 625.402 292.746 624.815 287.346 624.815C281.559 624.815 276.639 625.482 272.586 626.828C268.533 628.162 265.253 629.908 262.746 632.068C260.159 634.268 258.279 636.802 257.119 639.668C255.959 642.548 255.373 645.535 255.373 648.642C255.373 651.788 255.933 654.748 257.053 657.535C258.173 660.322 260.026 662.882 262.626 665.202C265.039 667.362 268.373 669.122 272.626 670.482C276.866 671.842 281.799 672.522 287.413 672.522C293.146 672.522 298.039 671.868 302.066 670.548C306.106 669.228 309.399 667.495 311.946 665.335C314.493 663.175 316.359 660.655 317.573 657.762C318.786 654.868 319.386 651.828 319.386 648.642C319.386 645.442 318.773 642.402 317.546 639.508C316.306 636.615 314.399 634.095 311.813 631.935V631.935ZM287.413 598.988C302.773 598.988 314.973 603.388 324.013 612.202C333.053 621.002 337.573 633.162 337.573 648.695C337.573 664.188 333.053 676.335 324.013 685.148C314.973 693.948 302.773 698.348 287.413 698.348C271.919 698.348 259.679 693.948 250.679 685.148C241.679 676.335 237.186 664.188 237.186 648.695C237.186 633.255 241.679 621.108 250.679 612.255C259.679 603.415 271.919 598.988 287.413 598.988" fill="#EDEDC3"/>
<path d="M335.573 510.508V580.028H239.186V555.175H316.919V510.508H335.573" fill="#EDEDC3"/>
<path d="M298.413 444.855L263.893 456.708L298.413 468.562V444.855ZM335.573 406.495V432.162L316.079 438.882V474.548L335.573 481.255V506.308L239.186 470.708V442.095L335.573 406.495" fill="#EDEDC3"/>
<path d="M458.213 139.414C439.413 142.84 420.76 149.32 403.52 157.093C361.8 175.933 322.507 202.067 277.547 210.72C242.827 217.387 207.6 213.107 172.253 208.827C149.52 206.08 126.733 203.32 104 203.494C85.2666 203.614 41.5067 212.093 0 227.4V325.773C39.0667 300.574 81.0534 284.24 128.347 285.56C182.52 287.08 236.16 309.547 289.56 300.267C333.707 292.587 370.96 264.36 409.987 242.334C425.053 233.84 441.427 226.187 458.213 221.014V139.414" fill="#EDEDC3"/>
<path d="M458.213 249.147C436.96 254.84 416.44 263.28 397.373 274.293C373.333 288.187 351.413 306.133 325.547 316.254C289.547 330.333 249.36 327.934 211.067 322.68C172.787 317.427 134.28 309.507 95.8134 313.267C64.4534 316.333 33.9467 327.373 7.76002 344.867C5.2 346.573 2.61335 348.253 0 349.933V393.053C11.84 383.76 23.8267 374.733 37.08 367.667C86.2667 341.44 145.707 345.68 200.72 354.64C242.493 361.44 285.613 370.533 326.547 359.814C361.227 350.733 390.6 328.347 422.28 311.587C433.573 305.6 445.747 300.347 458.213 296.707V249.147" fill="#EDEDC3"/>
<path d="M458.213 834.44H335.267V357.227C366.227 346.973 393.28 326.92 422.28 311.587C433.573 305.6 445.747 300.347 458.213 296.707V834.44M335.267 312.027V285.093C360.947 272.933 385.107 256.373 409.987 242.333C425.053 233.84 441.427 226.187 458.213 221.013V249.147C436.96 254.84 416.44 263.28 397.373 274.293C376.4 286.413 357.04 301.627 335.267 312.027M335.267 190.8V74.3201H458.213V139.413C439.413 142.84 420.76 149.32 403.52 157.093C380.48 167.493 358.187 180.12 335.267 190.8Z" fill="#D23331"/>
<path d="M421.813 892.253H310.72L335.266 834.44H458.213L421.813 892.253Z" fill="#B1B5B9"/>
<path d="M458.213 74.3201H335.267L305.387 36.3468H422.507L458.213 74.3201Z" fill="#B1B5B9"/>
<path d="M335.267 285.093V190.8C358.187 180.12 380.48 167.493 403.52 157.093C420.76 149.32 439.413 142.84 458.213 139.413V221.013C441.427 226.187 425.053 233.84 409.987 242.333C385.107 256.373 360.947 272.933 335.267 285.093" fill="#C6C5B0"/>
<path d="M335.267 357.227V312.027C357.04 301.627 376.4 286.414 397.373 274.294C416.44 263.28 436.96 254.84 458.213 249.147V296.707C445.747 300.347 433.573 305.6 422.28 311.587C393.28 326.92 366.227 346.974 335.267 357.227" fill="#C6C5B0"/>
<path d="M359.318 566.812C359.479 566.858 359.664 567.043 359.873 567.367C360.335 568.061 360.844 568.754 361.399 569.448C361.954 570.119 363.85 571.807 367.088 574.513C371.204 577.982 374.743 581.127 377.703 583.948C380.663 586.747 385.45 591.58 392.064 598.449L395.568 602.056C395.383 599.882 395.105 597.084 394.735 593.661C394.203 588.782 393.938 586.076 393.938 585.544C393.938 583.879 393.891 582.515 393.799 581.451C393.729 580.387 393.695 579.427 393.695 578.572C393.695 571.865 395.325 568.512 398.586 568.512C399.904 568.512 400.945 568.859 401.708 569.552C402.448 570.223 402.818 571.137 402.818 572.293C402.818 573.218 402.656 574.305 402.332 575.554C401.8 577.542 401.535 580.063 401.535 583.116C401.535 584.272 401.72 587.66 402.09 593.28V593.245C402.413 598.957 402.679 602.715 402.887 604.519C403.096 606.323 403.512 608.381 404.136 610.694C404.645 612.498 404.899 613.654 404.899 614.163C404.899 616.476 403.755 617.632 401.465 617.632C399.615 617.632 398.227 617.007 397.302 615.759C395.013 612.683 391.544 608.682 386.896 603.756C382.224 598.83 377.61 594.193 373.055 589.846C372.314 589.152 371.47 588.331 370.522 587.383C366.683 583.544 363.665 580.746 361.468 578.988C361.468 579.358 361.931 583.555 362.856 591.58C363.457 596.645 363.758 600.461 363.758 603.028C363.758 604.6 363.561 606.219 363.168 607.884C362.081 610.336 360.717 611.561 359.075 611.561C358.312 611.561 357.433 611.087 356.438 610.139C355.444 609.191 354.947 608.416 354.947 607.815C354.947 607.375 355.074 606.797 355.328 606.08C355.606 605.363 355.745 604.82 355.745 604.45L355.814 598.032C355.837 596.275 355.756 594.344 355.571 592.239C355.432 590.69 355.282 588.215 355.12 584.816C354.935 581 354.715 578.387 354.461 576.976C353.744 572.721 353.386 570.038 353.386 568.928C353.386 567.009 354.415 566.049 356.473 566.049C357.629 566.049 358.578 566.303 359.318 566.812L359.318 566.812Z" fill="#EDEDC3"/>
<path d="M360.462 518.594L361.017 529.278C361.226 533.001 361.561 536.204 362.023 538.887C362.463 541.57 362.81 543.027 363.064 543.258C363.295 543.466 364.001 543.616 365.18 543.709C366.336 543.824 368.372 544.241 371.285 544.958C373.506 545.536 375.321 545.883 376.732 545.998C376.732 544.518 376.581 542.391 376.281 539.615C375.98 536.84 375.691 534.875 375.413 533.718C374.604 530.388 374.199 527.81 374.199 525.983C374.199 522.329 375.286 520.502 377.46 520.502C379.056 520.502 380.166 521.01 380.79 522.028C381.392 523.046 381.808 524.641 382.039 526.815C382.178 528.156 382.386 529.66 382.664 531.325C382.802 532.203 382.941 533.302 383.08 534.62C383.82 541.026 384.398 544.807 384.814 545.964V545.998C384.93 546.391 385.196 546.692 385.612 546.9C386.028 547.085 387.751 547.432 390.781 547.941C393.787 548.45 395.892 548.704 397.094 548.704C397.95 548.588 398.378 548.056 398.378 547.108C398.378 545.998 398.077 543.084 397.476 538.367C396.852 533.626 396.424 530.689 396.192 529.555C395.522 526.387 395.186 524.317 395.186 523.346C395.603 520.409 396.967 518.94 399.28 518.94C400.344 518.94 401.153 519.287 401.708 519.981C402.749 522.294 403.396 525.497 403.651 529.59C403.836 532.758 404.229 536.597 404.83 541.107C405.686 545.131 406.114 548.924 406.114 552.485C406.114 554.358 405.709 555.711 404.899 556.544C404.113 557.376 402.876 557.874 401.188 558.035L400.043 558.14C399.858 558.163 399.153 557.966 397.927 557.55C395.082 556.625 388.757 555.492 378.952 554.15C369.146 552.809 363.688 552.138 362.578 552.138C362.555 552.138 362.463 552.208 362.301 552.346C362.162 552.508 361.723 552.786 360.983 553.179C360.22 553.549 359.445 553.734 358.659 553.734C358.242 553.734 357.907 553.688 357.653 553.595C357.167 553.503 356.681 553.006 356.196 552.104C355.71 551.202 355.467 550.358 355.467 549.571C355.467 548.484 355.536 547.386 355.675 546.276C355.675 544.356 354.981 538.112 353.594 527.543C353.131 524.028 352.9 522.19 352.9 522.028L352.866 521.542C352.565 517.38 353.906 515.298 356.889 515.298C357.445 515.298 358.138 515.68 358.971 516.443C359.78 517.183 360.277 517.9 360.462 518.594V518.594Z" fill="#EDEDC3"/>
<path d="M361.676 504.857L360.879 505.308C359.722 506.048 358.867 506.418 358.311 506.418C357.201 506.418 356.242 505.851 355.432 504.718C354.6 503.585 354.183 502.556 354.183 501.631C354.183 501.214 354.218 500.682 354.288 500.035C354.38 499.387 354.426 498.994 354.426 498.855C353.362 492.033 352.831 487.246 352.831 484.494C352.831 479.337 354.056 475.267 356.508 472.283C358.936 469.277 361.942 467.774 365.527 467.774C368.95 467.774 372.199 469.254 375.275 472.214C378.35 475.151 380.871 479.094 382.837 484.043C389.497 475.81 394.076 469.566 396.574 465.311C397.476 463.808 398.632 463.056 400.043 463.056C400.968 463.056 401.893 463.588 402.818 464.652C403.743 465.692 404.206 466.675 404.206 467.6C404.206 468.942 403.627 470.468 402.471 472.179C401.315 473.891 399.499 476.307 397.025 479.429C394.527 482.551 393.036 484.355 392.55 484.841C388.873 489.235 386.433 492.403 385.23 494.346C385.23 496.797 384.016 498.023 381.588 498.023C380.455 498.023 379.484 497.479 378.674 496.392C377.842 495.306 377.425 494.068 377.425 492.681C377.425 492.288 377.483 491.86 377.599 491.397C377.738 490.958 377.807 490.646 377.807 490.461C377.807 488.981 376.57 486.24 374.095 482.239C371.621 478.238 368.765 476.238 365.527 476.238C363.908 476.238 362.521 477.082 361.364 478.77C360.208 480.435 359.63 482.563 359.63 485.153C359.63 488.229 359.815 490.715 360.185 492.611C360.555 494.485 360.821 495.514 360.983 495.699C361.121 495.861 361.48 496.069 362.058 496.323C362.636 496.554 365.018 497.063 369.204 497.849C373.367 498.613 377.946 499.318 382.941 499.965C387.913 500.613 391.579 500.937 393.938 500.937C395.441 500.937 396.794 500.821 397.996 500.59C399.199 500.382 400.239 500.278 401.118 500.278C401.951 500.278 402.841 500.775 403.789 501.769C404.761 502.741 405.246 503.804 405.246 504.961C405.246 508.175 403.026 509.783 398.586 509.783C394.978 509.783 389.925 509.389 383.427 508.603C376.928 507.794 371.216 506.846 366.29 505.759C365.504 505.597 364.799 505.458 364.174 505.342L361.676 504.857Z" fill="#EDEDC3"/>
<path d="M405.871 444.393C405.871 448.301 403.997 451.77 400.251 454.8C396.481 457.829 392.596 459.344 388.595 459.344C383.878 459.344 378.582 457.899 372.708 455.008C366.834 452.117 362.035 448.394 358.312 443.838C354.588 439.259 352.727 434.483 352.727 429.511C352.727 425.649 353.189 422.469 354.114 419.972C355.039 417.451 356.404 415.138 358.207 413.034C359.988 410.906 361.838 409.496 363.758 408.802C365.654 408.085 368.267 407.726 371.598 407.726C374.535 407.726 378.108 408.675 382.317 410.571C386.502 412.444 390.457 415.185 394.18 418.792C397.904 422.377 400.783 426.031 402.818 429.754C404.853 433.477 405.871 438.357 405.871 444.393V444.393ZM388.283 450.568C391.128 450.568 393.498 449.724 395.395 448.035C397.291 446.347 398.239 444.405 398.239 442.208C398.239 436.01 395.267 430.194 389.324 424.759C383.357 419.324 377.032 416.607 370.349 416.607C367.99 416.607 366.094 417.058 364.66 417.96C363.203 418.862 362 420.4 361.052 422.573C360.081 424.724 359.595 427.037 359.595 429.511C359.595 433.975 362.821 438.6 369.273 443.387C375.726 448.174 382.062 450.568 388.283 450.568V450.568Z" fill="#EDEDC3"/>
</g>
<defs>
<clipPath id="clip0_141_975">
<rect width="458.213" height="892.254" fill="white"/>
</clipPath>
</defs>
</svg>
