<svg width="459" height="893" viewBox="0 0 459 893" fill="none" xmlns="http://www.w3.org/2000/svg">
<g clip-path="url(#clip0_141_902)">
<path d="M0 834.44H458.213V74.324H0V834.44Z" fill="#FF1206"/>
<path d="M0.0131836 834.44L36.4132 892.253H229.107V834.44H0.0131836Z" fill="#CED5D0"/>
<path d="M458.213 834.44L421.813 892.253H229.106V834.44H458.213Z" fill="#CED5D0"/>
<path d="M0 74.32L34.8 36.3467H229.107V74.32H0Z" fill="#CED5D0"/>
<path d="M458.213 74.32L423.427 36.3467H229.106V74.32H458.213Z" fill="#CED5D0"/>
<path d="M422.507 36.3467H35.7202C25.6802 36.3467 17.5469 28.2 17.5469 18.1734C17.5469 8.13334 25.6802 2.28882e-05 35.7202 2.28882e-05H422.507C432.534 2.28882e-05 440.68 8.13334 440.68 18.1734C440.68 28.2 432.534 36.3467 422.507 36.3467Z" fill="#CED5D0"/>
<path d="M17.5469 18.1734H440.68V-4.51983e-05H17.5469V18.1734Z" fill="#D2D2D8"/>
<path d="M422.507 36.3467H35.7202C25.6802 36.3467 17.5469 28.2 17.5469 18.1734C17.5469 18.1333 17.5469 18.1068 17.5469 18.0668C17.5469 18.0516 17.5469 18.0403 17.5469 18.0267C17.5469 18.0116 17.5469 18.0003 17.5469 17.9866C17.5601 16.32 17.8269 14.72 18.2535 13.1866C20.4269 20.8 27.4136 26.3866 35.7202 26.3866H324.147C325.4 23.92 326.12 21.1333 326.12 18.1733C326.12 8.1333 317.987 -7.62939e-06 307.947 -7.62939e-06H422.507C422.533 -7.62939e-06 422.573 -7.62939e-06 422.613 -7.62939e-06C422.629 -7.62939e-06 422.64 -7.62939e-06 422.64 -7.62939e-06C422.666 -7.62939e-06 422.693 -7.62939e-06 422.72 -7.62939e-06C422.735 -7.62939e-06 422.747 -7.62939e-06 422.76 -7.62939e-06C422.787 -7.62939e-06 422.8 -7.62939e-06 422.827 -7.62939e-06C422.842 -7.62939e-06 422.853 -7.62939e-06 422.867 -7.62939e-06C422.893 -7.62939e-06 422.92 -7.62939e-06 422.947 -7.62939e-06C422.962 -7.62939e-06 422.962 -7.62939e-06 422.973 -7.62939e-06C423.013 -7.62939e-06 423.053 -7.62939e-06 423.08 -7.62939e-06C423.095 -7.62939e-06 423.106 -7.62939e-06 423.12 -7.62939e-06C423.146 -7.62939e-06 423.16 0.0151022 423.186 0.0151022C423.202 0.0151022 423.227 0.0151022 423.24 0.0151022C423.255 0.0151022 423.28 0.0151022 423.293 0.0151022C423.319 0.0151022 423.333 0.0151022 423.346 0.0151022C423.361 0.0151022 423.386 0.0151022 423.4 0.0151022C423.426 0.0151022 423.44 0.0151022 423.453 0.0151022C423.468 0.0302203 423.493 0.0302264 423.506 0.0302264C423.521 0.0302264 423.546 0.0302264 423.56 0.0302264H423.575C423.628 0.0302264 423.681 0.0453362 423.735 0.0453362C423.75 0.0453362 423.75 0.0453362 423.761 0.0453362C423.787 0.0453362 423.814 0.0453362 423.841 0.0453362C423.841 0.0453362 423.856 0.0453362 423.868 0.0453362C423.894 0.0604543 423.921 0.0604604 423.948 0.0604604C423.948 0.0604604 423.948 0.0604604 423.963 0.0604604C431.616 0.673802 437.936 6.03382 439.976 13.1938C440.176 13.9138 440.336 14.6605 440.443 15.4071C440.469 15.5405 440.483 15.674 440.509 15.8071C440.603 16.5538 440.669 17.3138 440.683 18.0871C440.683 18.1272 440.683 18.1537 440.683 18.1805C440.683 28.2072 432.536 36.3538 422.509 36.3538" fill="#B1B5B9"/>
<path d="M71.5602 595.013C69.1202 595.013 66.6669 594.533 64.2802 593.493C49.6002 587.107 46.7602 565.867 46.2535 548.533C44.4935 487.573 42.7336 426.627 40.9736 365.667C59.6269 356.413 79.6669 351.373 100.32 349.147C98.6002 410.373 98.8669 471.707 101.12 532.987C101.654 547.613 102.187 562.933 96.4936 576.027C91.9069 586.613 81.8002 595.013 71.5602 595.013M39.8802 327.56C39.6535 319.8 39.4269 312.04 39.2002 304.267C59.4002 295.2 80.4935 288.96 102.76 286.573C102.32 295.307 101.92 304.053 101.574 312.787C99.6536 312.92 97.7336 313.08 95.8136 313.267C76.5869 315.147 57.6669 320.027 39.8802 327.56" fill="#FF837D"/>
<path d="M63.9868 186.587C55.3868 186.587 46.7868 175.92 43.8268 160.227C40.2801 141.453 45.3201 118.24 54.7468 109.907C55.5735 109.173 56.5468 108.587 57.4401 108.587C58.1868 108.587 58.8935 108.987 59.4135 110.04L61.3735 106.427C62.0001 106.307 62.6268 106.24 63.2401 106.24C72.9335 106.24 82.2801 120.68 84.0535 139.133C85.9468 158.773 79.0001 180.08 68.9868 185.32C67.3468 186.187 65.6668 186.587 63.9868 186.587" fill="#FF837D"/>
<path d="M458.213 139.413C439.413 142.84 420.76 149.32 403.52 157.093C361.8 175.933 322.507 202.067 277.547 210.72C242.827 217.387 207.6 213.107 172.253 208.827C149.52 206.08 126.733 203.32 104 203.493C85.2667 203.614 41.5067 212.093 0 227.4V325.773C39.0667 300.573 81.0533 284.24 128.347 285.56C182.52 287.08 236.16 309.547 289.56 300.267C333.707 292.587 370.96 264.36 409.987 242.333C425.053 233.84 441.427 226.187 458.213 221.013V139.413" fill="#EDEDC3"/>
<path d="M458.213 249.147C436.96 254.84 416.44 263.28 397.373 274.293C373.333 288.187 351.413 306.133 325.547 316.253C289.547 330.333 249.36 327.933 211.067 322.68C172.787 317.427 134.28 309.507 95.8134 313.267C64.4534 316.333 33.9467 327.373 7.76001 344.867C5.20001 346.573 2.61334 348.253 0 349.933V393.053C11.84 383.76 23.8267 374.733 37.08 367.667C86.2667 341.44 145.707 345.68 200.72 354.64C242.493 361.44 285.613 370.533 326.547 359.813C361.227 350.733 390.6 328.347 422.28 311.587C433.573 305.6 445.747 300.347 458.213 296.707V249.147" fill="#EDEDC3"/>
<path d="M458.213 834.44H335.267V357.227C366.227 346.973 393.28 326.92 422.28 311.587C433.573 305.6 445.747 300.347 458.213 296.707V834.44ZM335.267 312.027V285.093C360.947 272.933 385.107 256.373 409.987 242.333C425.053 233.84 441.427 226.187 458.213 221.013V249.147C436.96 254.84 416.44 263.28 397.373 274.293C376.4 286.413 357.04 301.627 335.267 312.027M335.267 190.8V74.32H458.213V139.413C439.413 142.84 420.76 149.32 403.52 157.093C380.48 167.493 358.187 180.12 335.267 190.8" fill="#D23331"/>
<path d="M421.814 892.253H310.72L335.267 834.44H458.214L421.814 892.253Z" fill="#B1B5B9"/>
<path d="M458.213 74.32H335.267L305.387 36.3467H422.507L458.213 74.32Z" fill="#B1B5B9"/>
<path d="M335.267 285.093V190.8C358.187 180.12 380.48 167.493 403.52 157.093C420.76 149.32 439.413 142.84 458.213 139.413V221.013C441.427 226.187 425.053 233.84 409.987 242.333C385.107 256.373 360.947 272.933 335.267 285.093" fill="#C6C5B0"/>
<path d="M335.267 357.227V312.027C357.04 301.627 376.4 286.413 397.373 274.293C416.44 263.28 436.96 254.84 458.213 249.147V296.707C445.747 300.347 433.573 305.6 422.28 311.587C393.28 326.92 366.227 346.973 335.267 357.227Z" fill="#C6C5B0"/>
<path d="M339.923 746.09C339.923 753.25 338.87 759.863 336.763 765.93C334.643 771.983 331.496 777.196 327.31 781.556C323.123 785.916 317.896 789.29 311.643 791.69C305.39 794.09 298.163 795.276 289.963 795.276C282.323 795.276 275.39 794.143 269.176 791.85C262.963 789.557 257.643 786.236 253.19 781.876C248.923 777.703 245.616 772.503 243.296 766.317C240.963 760.13 239.79 753.357 239.79 746.023C239.79 741.97 240.016 738.316 240.47 735.05C240.923 731.797 241.523 728.783 242.256 726.023C243.07 723.13 243.99 720.517 245.003 718.157C246.016 715.81 246.963 713.743 247.816 711.97H271.19V714.823C270.163 716.036 268.936 717.556 267.523 719.383C266.096 721.223 264.71 723.303 263.336 725.636C261.963 728.01 260.803 730.57 259.856 733.343C258.91 736.103 258.443 739.05 258.443 742.21C258.443 745.703 258.99 749.023 260.083 752.17C261.176 755.317 263.003 758.236 265.536 760.903C268.003 763.463 271.243 765.516 275.296 767.09C279.35 768.663 284.256 769.45 290.03 769.45C296.056 769.45 301.096 768.61 305.136 766.89C309.19 765.196 312.376 763.05 314.696 760.463C317.07 757.823 318.763 754.89 319.763 751.65C320.776 748.423 321.283 745.223 321.283 742.077C321.283 739.05 320.843 736.063 319.936 733.116C319.03 730.156 317.816 727.423 316.27 724.916C315.016 722.81 313.683 720.85 312.27 719.036C310.856 717.223 309.63 715.73 308.603 714.57V711.97H331.643C332.723 714.396 333.736 716.703 334.683 718.903C335.63 721.103 336.456 723.41 337.15 725.823C338.056 728.983 338.736 731.93 339.216 734.69C339.696 737.463 339.923 741.25 339.923 746.09" fill="#EDEDC3"/>
<path d="M314.296 632.943C311.363 630.53 307.896 628.743 303.909 627.57C299.923 626.41 295.229 625.823 289.829 625.823C284.043 625.823 279.123 626.49 275.069 627.837C271.016 629.17 267.736 630.916 265.229 633.076C262.643 635.276 260.763 637.81 259.603 640.676C258.443 643.556 257.856 646.543 257.856 649.65C257.856 652.796 258.416 655.757 259.536 658.543C260.656 661.33 262.509 663.89 265.109 666.21C267.523 668.37 270.856 670.13 275.109 671.49C279.349 672.85 284.283 673.53 289.896 673.53C295.629 673.53 300.523 672.877 304.549 671.557C308.589 670.237 311.883 668.503 314.429 666.343C316.976 664.183 318.843 661.663 320.056 658.77C321.269 655.877 321.869 652.836 321.869 649.65C321.869 646.45 321.256 643.41 320.029 640.517C318.789 637.623 316.883 635.103 314.296 632.943V632.943ZM289.896 599.997C305.256 599.997 317.456 604.396 326.496 613.21C335.536 622.01 340.056 634.17 340.056 649.703C340.056 665.197 335.536 677.343 326.496 686.156C317.456 694.957 305.256 699.356 289.896 699.356C274.403 699.356 262.163 694.957 253.163 686.156C244.163 677.343 239.669 665.197 239.669 649.703C239.669 634.263 244.163 622.117 253.163 613.263C262.163 604.423 274.403 599.997 289.896 599.997" fill="#EDEDC3"/>
<path d="M338.056 511.516V581.036H241.669V556.183H319.403V511.516H338.056Z" fill="#EDEDC3"/>
<path d="M300.896 445.863L266.376 457.716L300.896 469.57V445.863ZM338.056 407.503V433.17L318.563 439.89V475.556L338.056 482.263V507.316L241.669 471.717V443.103L338.056 407.503Z" fill="#EDEDC3"/>
</g>
<defs>
<clipPath id="clip0_141_902">
<rect width="458.213" height="892.253" fill="white"/>
</clipPath>
</defs>
</svg>
