<svg width="459" height="893" viewBox="0 0 459 893" fill="none" xmlns="http://www.w3.org/2000/svg">
<g clip-path="url(#clip0_141_2)">
<path d="M0 834.447H458.213V74.3311H0V834.447Z" fill="#63D378"/>
<path d="M0 834.447L36.4 892.26H229.107V834.447H0Z" fill="#CED5D0"/>
<path d="M458.213 834.447L421.813 892.26H229.107V834.447H458.213" fill="#CED5D0"/>
<path d="M0 74.3271L34.8 36.3538H229.107V74.3271H0Z" fill="#CED5D0"/>
<path d="M458.213 74.3271L423.413 36.3538H229.107V74.3271H458.213" fill="#CED5D0"/>
<path d="M422.493 36.3538H35.72C25.68 36.3538 17.5467 28.2071 17.5467 18.1805C17.5467 8.14046 25.68 0.00714111 35.72 0.00714111H422.493C432.533 0.00714111 440.68 8.14046 440.68 18.1805C440.68 28.2071 432.533 36.3538 422.493 36.3538Z" fill="#CED5D0"/>
<path d="M440.68 18.1805C440.68 18.154 440.68 18.1272 440.68 18.0871C440.68 18.1272 440.68 18.1536 440.68 18.1805ZM17.5467 18.1805C17.5467 18.1404 17.5467 18.114 17.5467 18.0739C17.5467 18.114 17.5467 18.1404 17.5467 18.1805ZM17.5467 18.0338C17.5467 18.0187 17.5467 18.0074 17.5467 17.9938C17.5467 18.0089 17.5467 18.0202 17.5467 18.0338ZM423.96 0.0604681C423.945 0.0604681 423.945 0.0604681 423.934 0.0604681C423.949 0.0604681 423.949 0.0604681 423.96 0.0604681ZM423.853 0.0453583C423.853 0.0453583 423.838 0.0453583 423.827 0.0453583C423.842 0.0453583 423.853 0.0453583 423.853 0.0453583ZM423.76 0.0453583C423.745 0.0453583 423.734 0.0453583 423.734 0.0453583C423.734 0.0453583 423.749 0.0453583 423.76 0.0453583ZM423.573 0.030234H423.558H423.573ZM423.507 0.030234C423.492 0.030234 423.467 0.0302423 423.454 0.0151242C423.469 0.0302423 423.494 0.030234 423.507 0.030234ZM423.4 0.0151242C423.385 0.0151242 423.36 0.0151242 423.347 0.0151242C423.362 0.0151242 423.387 0.0151242 423.4 0.0151242ZM423.294 0.0151242C423.279 0.0151242 423.254 0.0151242 423.24 0.0151242C423.256 0.0151242 423.28 0.0151242 423.294 0.0151242ZM423.187 0.0151242C423.161 0.0151242 423.134 0 423.107 0C423.133 0 423.16 0.0151242 423.187 0.0151242ZM423.081 0C423.041 0 423.014 0 422.974 0C423.014 0 423.041 0 423.081 0ZM422.947 0C422.921 0 422.894 0 422.867 0C422.893 0 422.92 0 422.947 0ZM422.827 0C422.801 0 422.774 0 422.761 0C422.776 0 422.801 0 422.827 0ZM422.721 0C422.694 0 422.667 0 422.641 0C422.667 0 422.694 0 422.721 0ZM422.614 0C422.574 0 422.534 0 422.494 0C422.534 0 422.574 0 422.614 0Z" fill="#D2D2D8"/>
<path d="M422.493 36.3538H35.72C25.68 36.3538 17.5467 28.2071 17.5467 18.1805C17.5467 18.1404 17.5467 18.114 17.5467 18.0739C17.5467 18.0588 17.5467 18.0474 17.5467 18.0338C17.5467 18.0187 17.5467 18.0074 17.5467 17.9938C17.5618 16.3271 17.8135 14.7271 18.2534 13.1938C20.4267 20.8071 27.4133 26.3938 35.72 26.3938H324.147C325.4 23.9271 326.12 21.1405 326.12 18.1804C326.12 8.14043 317.987 0.0071106 307.947 0.0071106H422.493C422.533 0.0071106 422.574 0.0071106 422.613 0.0071106C422.613 0.0071106 422.628 0.0071106 422.64 0.0071106C422.666 0.0071106 422.693 0.0071106 422.72 0.0071106C422.735 0.0071106 422.746 0.0071106 422.76 0.0071106C422.775 0.0071106 422.8 0.0071106 422.826 0.0071106C422.841 0.0071106 422.853 0.0071106 422.866 0.0071106C422.893 0.0071106 422.92 0.0071106 422.947 0.0071106C422.947 0.0071106 422.962 0.0071106 422.973 0.0071106C423.013 0.0071106 423.04 0.0071106 423.08 0.0071106C423.095 0.0071106 423.106 0.0071106 423.106 0.0071106C423.133 0.0071106 423.159 0.0222204 423.186 0.0222204C423.201 0.0222204 423.213 0.0222204 423.239 0.0222204C423.255 0.0222204 423.28 0.0222204 423.293 0.0222204C423.308 0.0222204 423.333 0.0222204 423.346 0.0222204C423.361 0.0222204 423.386 0.0222204 423.399 0.0222204C423.414 0.0222204 423.439 0.0222204 423.453 0.0222204C423.468 0.0373385 423.493 0.0373446 423.506 0.0373446C423.521 0.0373446 423.546 0.0373446 423.559 0.0373446H423.574C423.628 0.0373446 423.681 0.0524688 423.734 0.0524688C423.734 0.0524688 423.749 0.0524688 423.761 0.0524688C423.787 0.0524688 423.814 0.0524688 423.827 0.0524688C423.842 0.0524688 423.854 0.0524688 423.854 0.0524688C423.88 0.067587 423.907 0.0675787 423.934 0.0675787C423.949 0.0675787 423.949 0.0675787 423.96 0.0675787C431.614 0.68092 437.92 6.04094 439.96 13.2009C440.173 13.9209 440.32 14.6676 440.44 15.4142C440.467 15.5477 440.48 15.6811 440.507 15.8143C440.6 16.5609 440.667 17.3209 440.68 18.0943C440.68 18.1343 440.68 18.1608 440.68 18.1876C440.68 28.2143 432.534 36.3609 422.494 36.3609" fill="#B1B5B9"/>
<path d="M0 347.434H458.213V304.022H0V347.434Z" fill="#9EF47D"/>
<path d="M0 284.074H458.213V270.41H0V284.074Z" fill="#9EF47D"/>
<path d="M70.3867 225.274C70.3867 239.194 59.12 250.474 45.2 250.474C31.28 250.474 20.0134 239.194 20.0134 225.274C20.0134 211.367 31.28 200.087 45.2 200.087C59.12 200.087 70.3867 211.367 70.3867 225.274Z" fill="#9EF47D"/>
<path d="M143.96 225.274C143.96 239.194 132.68 250.474 118.76 250.474C104.853 250.474 93.5734 239.194 93.5734 225.274C93.5734 211.367 104.853 200.087 118.76 200.087C132.68 200.087 143.96 211.367 143.96 225.274Z" fill="#9EF47D"/>
<path d="M217.52 225.274C217.52 239.194 206.24 250.474 192.333 250.474C178.413 250.474 167.133 239.194 167.133 225.274C167.133 211.367 178.413 200.087 192.333 200.087C206.24 200.087 217.52 211.367 217.52 225.274Z" fill="#9EF47D"/>
<path d="M291.08 225.274C291.08 239.194 279.8 250.474 265.893 250.474C251.973 250.474 240.693 239.194 240.693 225.274C240.693 211.367 251.973 200.087 265.893 200.087C279.8 200.087 291.08 211.367 291.08 225.274Z" fill="#9EF47D"/>
<path d="M438.213 225.274C438.213 239.194 426.933 250.474 413.027 250.474C399.107 250.474 387.827 239.194 387.827 225.274C387.827 211.367 399.107 200.087 413.027 200.087C426.933 200.087 438.213 211.367 438.213 225.274Z" fill="#9EF47D"/>
<path d="M364.653 225.274C364.653 239.194 353.373 250.474 339.453 250.474C325.547 250.474 314.267 239.194 314.267 225.274C314.267 211.367 325.547 200.087 339.453 200.087C353.373 200.087 364.653 211.367 364.653 225.274Z" fill="#9EF47D"/>
<path d="M70.3867 155.9C70.3867 169.82 59.12 181.101 45.2 181.101C31.28 181.101 20.0134 169.82 20.0134 155.9C20.0134 141.994 31.28 130.714 45.2 130.714C59.12 130.714 70.3867 141.994 70.3867 155.9Z" fill="#9EF47D"/>
<path d="M143.96 155.9C143.96 169.82 132.68 181.101 118.76 181.101C104.853 181.101 93.5734 169.82 93.5734 155.9C93.5734 141.994 104.853 130.714 118.76 130.714C132.68 130.714 143.96 141.994 143.96 155.9Z" fill="#9EF47D"/>
<path d="M217.52 155.9C217.52 169.82 206.24 181.101 192.333 181.101C178.413 181.101 167.133 169.82 167.133 155.9C167.133 141.994 178.413 130.714 192.333 130.714C206.24 130.714 217.52 141.994 217.52 155.9Z" fill="#9EF47D"/>
<path d="M291.08 155.9C291.08 169.82 279.8 181.101 265.893 181.101C251.973 181.101 240.693 169.82 240.693 155.9C240.693 141.994 251.973 130.714 265.893 130.714C279.8 130.714 291.08 141.994 291.08 155.9Z" fill="#9EF47D"/>
<path d="M438.213 155.9C438.213 169.82 426.933 181.101 413.027 181.101C399.107 181.101 387.827 169.82 387.827 155.9C387.827 141.994 399.107 130.714 413.027 130.714C426.933 130.714 438.213 141.994 438.213 155.9Z" fill="#9EF47D"/>
<path d="M364.653 155.9C364.653 169.82 353.373 181.101 339.453 181.101C325.547 181.101 314.267 169.82 314.267 155.9C314.267 141.994 325.547 130.714 339.453 130.714C353.373 130.714 364.653 141.994 364.653 155.9Z" fill="#9EF47D"/>
<path d="M335.253 834.447H458.213L458.213 347.434H335.253M458.214 304.023H335.254V284.076H458.214V304.023M458.214 270.41H335.254V250.116C336.628 250.356 338.028 250.477 339.454 250.477C353.374 250.477 364.654 239.197 364.654 225.277C364.654 211.37 353.374 200.09 339.454 200.09C338.028 200.09 336.628 200.21 335.254 200.437V180.743C336.628 180.983 338.028 181.103 339.454 181.103C353.374 181.103 364.654 169.823 364.654 155.903C364.654 141.996 353.374 130.716 339.454 130.716C338.028 130.716 336.628 130.837 335.254 131.063V74.3296H458.214V270.41M413.028 200.09C399.108 200.09 387.828 211.37 387.828 225.276C387.828 239.196 399.108 250.476 413.028 250.476C426.934 250.476 438.214 239.196 438.214 225.276C438.214 211.37 426.934 200.09 413.028 200.09ZM413.028 130.716C399.108 130.716 387.828 141.996 387.828 155.903C387.828 169.823 399.108 181.103 413.028 181.103C426.934 181.103 438.214 169.823 438.214 155.903C438.214 141.996 426.934 130.716 413.028 130.716Z" fill="#6AB47E"/>
<path d="M421.813 892.26H310.72L335.253 834.447H458.213L421.813 892.26Z" fill="#B1B5B9"/>
<path d="M458.213 74.3271H335.253L305.387 36.3538H422.493L458.213 74.3271Z" fill="#B1B5B9"/>
<path d="M335.253 347.434H458.214V304.022H335.253V347.434Z" fill="#91CA81"/>
<path d="M335.253 284.074H458.214V270.41H335.253V284.074Z" fill="#91CA81"/>
<path d="M413.027 250.474C399.107 250.474 387.827 239.194 387.827 225.274C387.827 211.367 399.107 200.087 413.027 200.087C426.933 200.087 438.213 211.367 438.213 225.274C438.213 239.194 426.933 250.474 413.027 250.474Z" fill="#91CA81"/>
<path d="M339.453 250.474C338.027 250.474 336.627 250.354 335.253 250.114V200.434C336.627 200.207 338.027 200.087 339.453 200.087C353.373 200.087 364.653 211.367 364.653 225.274C364.653 239.194 353.373 250.474 339.453 250.474" fill="#91CA81"/>
<path d="M413.027 181.101C399.107 181.101 387.827 169.82 387.827 155.9C387.827 141.994 399.107 130.714 413.027 130.714C426.933 130.714 438.213 141.994 438.213 155.9C438.213 169.82 426.933 181.101 413.027 181.101Z" fill="#91CA81"/>
<path d="M339.453 181.1C338.027 181.1 336.627 180.981 335.253 180.741V131.061C336.627 130.834 338.027 130.714 339.453 130.714C353.373 130.714 364.653 141.994 364.653 155.901C364.653 169.821 353.373 181.101 339.453 181.101" fill="#91CA81"/>
<path d="M89.24 586.941H62.9201C57.5467 582.301 54.4134 575.047 52.6001 566.994H102.56C101.973 568.981 101.28 570.927 100.453 572.834C98.0134 578.461 94 583.487 89.24 586.941M104.853 523.594H49.5867C47.8934 464.874 46.2 406.141 44.5067 347.434H104.24C102.627 406.087 102.84 464.874 104.853 523.594M105.764 304.021H43.2578C43.0578 297.367 42.8711 290.727 42.6711 284.074H106.698C106.364 290.714 106.058 297.367 105.764 304.021ZM107.351 270.407H42.3334C42.2533 263.701 42.3485 256.994 42.9467 250.367C43.68 250.434 44.44 250.474 45.2001 250.474C59.1201 250.474 70.3867 239.194 70.3867 225.274C70.3867 221.207 69.4267 217.367 67.7201 213.967C68.9601 213.807 70.2267 213.727 71.4934 213.727C79.2534 213.727 87.32 216.794 93.72 222.541C93.6267 223.434 93.5734 224.354 93.5734 225.274C93.5734 234.634 98.6667 242.794 106.24 247.141C107.587 254.701 107.627 262.581 107.347 270.407" fill="#B3E9BD"/>
<path d="M102.56 566.994H52.6C51 559.967 50.4133 552.327 50.2133 545.327C50.0134 538.087 49.8 530.834 49.5867 523.594H104.853C104.933 525.66 105 527.727 105.08 529.794C105.533 542.301 105.987 555.301 102.56 566.994" fill="#B3E9BD"/>
<path d="M75.5201 591.807C73.08 591.807 70.6267 591.34 68.2401 590.301C66.2667 589.434 64.4933 588.301 62.92 586.941H89.24C85.0667 589.981 80.3067 591.807 75.5201 591.807Z" fill="#B3E9BD"/>
<path d="M104.24 347.434H44.5066C44.08 332.954 43.6666 318.487 43.2533 304.021H105.76C105.147 318.487 104.64 332.941 104.24 347.434" fill="#CFFABF"/>
<path d="M106.693 284.074H42.6667C42.6516 283.314 42.6266 282.567 42.6134 281.807C42.4936 278.02 42.3866 274.22 42.3333 270.407H107.347C107.253 273.154 107.107 275.9 106.96 278.62C106.867 280.447 106.773 282.247 106.693 284.074" fill="#CFFABF"/>
<path d="M45.2 250.474C44.44 250.474 43.68 250.434 42.9467 250.367C43.36 245.607 44.0533 240.887 45.1066 236.247C48.24 222.447 57.4133 215.341 67.72 213.967C69.4267 217.367 70.3867 221.207 70.3867 225.274C70.3867 239.194 59.12 250.474 45.2 250.474" fill="#CFFABF"/>
<path d="M106.24 247.141C98.6667 242.794 93.5734 234.634 93.5734 225.274C93.5734 224.354 93.6267 223.434 93.72 222.541C97.7067 226.127 101.053 230.767 103.253 236.354C104.627 239.847 105.587 243.461 106.24 247.141Z" fill="#CFFABF"/>
<path d="M67.9467 183.394C64.2667 183.394 60.5867 181.447 57.3467 177.981C65.12 173.687 70.3867 165.407 70.3867 155.9C70.3867 142.874 60.5067 132.154 47.8134 130.847C49.64 120.434 53.5067 111.3 58.7067 106.7C59.5334 105.967 60.5067 105.394 61.4 105.394C62.1467 105.394 62.8534 105.794 63.3734 106.847L65.3333 103.221C65.96 103.101 66.5867 103.047 67.2 103.047C76.8934 103.047 86.2401 117.474 88.0134 135.94C89.9067 155.58 82.9601 176.874 72.9467 182.127C71.3067 182.98 69.6267 183.394 67.9467 183.394" fill="#B3E9BD"/>
<path d="M57.3466 177.981C53.0266 173.34 49.48 166.007 47.7866 157.034C46.2 148.607 46.3333 139.301 47.8131 130.847C60.5065 132.154 70.3864 142.874 70.3864 155.9C70.3864 165.407 65.1198 173.687 57.3464 177.981" fill="#CFFABF"/>
<path d="M322.702 774.877C322.702 779.557 322.13 783.639 320.986 787.123C319.842 790.607 318.23 793.285 316.15 795.157C314.018 796.977 311.548 797.887 308.74 797.887C304.476 797.887 302.344 795.001 302.344 789.229C306.296 789.021 309.286 787.695 311.314 785.251C313.342 782.755 314.356 779.271 314.356 774.799C314.356 771.107 313.732 768.247 312.484 766.219C311.184 764.191 309.39 763.177 307.102 763.177C305.594 763.177 304.372 763.567 303.436 764.347C302.448 765.127 301.59 766.453 300.862 768.325C300.082 770.197 299.302 772.927 298.522 776.515C297.326 781.611 296 785.641 294.544 788.605C293.088 791.517 291.346 793.623 289.318 794.923C287.238 796.223 284.664 796.873 281.596 796.873C278.632 796.873 276.032 796.015 273.796 794.299C271.56 792.531 269.818 790.061 268.57 786.889C267.322 783.665 266.698 779.973 266.698 775.813C266.698 771.809 267.244 768.247 268.336 765.127C269.376 761.955 270.858 759.485 272.782 757.717C274.706 755.897 276.916 754.987 279.412 754.987C283.26 754.987 285.262 757.769 285.418 763.333C281.83 763.645 279.204 764.789 277.54 766.765C275.876 768.741 275.044 771.757 275.044 775.813C275.044 779.297 275.616 781.975 276.76 783.847C277.904 785.719 279.516 786.655 281.596 786.655C283.052 786.655 284.274 786.291 285.262 785.563C286.198 784.835 287.03 783.613 287.758 781.897C288.434 780.181 289.136 777.737 289.864 774.565C291.06 769.209 292.412 764.971 293.92 761.851C295.376 758.731 297.17 756.469 299.302 755.065C301.382 753.661 303.956 752.959 307.024 752.959C310.196 752.959 312.978 753.869 315.37 755.689C317.71 757.457 319.53 760.005 320.83 763.333C322.078 766.609 322.702 770.457 322.702 774.877Z" fill="white"/>
<path d="M272.158 745.444C270.806 745.444 269.688 744.95 268.804 743.962C267.868 742.974 267.4 741.726 267.4 740.218V718.534C267.4 714.79 268.154 711.488 269.662 708.628C271.118 705.716 273.224 703.48 275.98 701.92C278.684 700.308 281.83 699.502 285.418 699.502C289.058 699.502 292.256 700.282 295.012 701.842C297.716 703.402 299.822 705.612 301.33 708.472C302.786 711.332 303.514 714.686 303.514 718.534V734.992H314.98C317.476 734.992 319.4 735.902 320.752 737.722C322.052 739.49 322.702 742.064 322.702 745.444H272.158ZM294.466 718.534C294.466 715.778 293.66 713.646 292.048 712.138C290.436 710.63 288.2 709.876 285.34 709.876C282.532 709.876 280.348 710.656 278.788 712.216C277.228 713.724 276.448 715.83 276.448 718.534V734.992H294.466V718.534Z" fill="white"/>
<path d="M322.702 694.66C322.442 696.896 321.662 698.664 320.362 699.964C319.062 701.212 317.424 701.836 315.448 701.836C313.94 701.836 312.38 701.472 310.768 700.744L270.13 682.882C267.842 681.894 266.698 680.178 266.698 677.734C266.698 675.342 267.842 673.652 270.13 672.664L310.768 654.802C312.484 654.074 314.044 653.71 315.448 653.71C317.424 653.71 319.062 654.36 320.362 655.66C321.662 656.908 322.442 658.676 322.702 660.964L307.882 667.516V688.03L322.702 694.66ZM298.99 670.714L277.618 679.294L278.008 680.23L282.844 678.358L298.99 684.91V670.714Z" fill="white"/>
<path d="M272.158 646.116C270.806 646.116 269.688 645.622 268.804 644.634C267.868 643.646 267.4 642.398 267.4 640.89V620.064C267.4 614.448 268.882 610.106 271.846 607.038C274.81 603.918 278.97 602.358 284.326 602.358C287.394 602.358 289.994 602.982 292.126 604.23C294.206 605.478 295.87 607.376 297.118 609.924H297.352C299.38 605.348 303.228 603.06 308.896 603.06H314.98C317.476 603.06 319.4 603.944 320.752 605.712C322.052 607.48 322.702 610.08 322.702 613.512H309.364C306.608 613.512 304.58 614.058 303.28 615.15C301.98 616.242 301.33 617.906 301.33 620.142V635.82H314.98C317.528 635.82 319.452 636.704 320.752 638.472C322.052 640.188 322.702 642.736 322.702 646.116H272.158ZM292.438 620.61C292.438 618.114 291.736 616.19 290.332 614.838C288.876 613.486 286.848 612.81 284.248 612.81C278.944 612.81 276.292 615.41 276.292 620.61V635.82H292.438V620.61Z" fill="white"/>
<path d="M274.576 593.938C272.028 593.938 270.078 593.028 268.726 591.208C267.374 589.388 266.698 586.814 266.698 583.486H291.736L266.698 557.356C267.634 556.056 268.7 555.016 269.896 554.236C271.04 553.404 272.054 552.988 272.938 552.988C273.718 552.988 274.498 553.274 275.278 553.846C276.006 554.366 276.89 555.172 277.93 556.264L292.672 571.864L319.426 550.414C321.61 552.026 322.702 554.132 322.702 556.732C322.702 559.228 321.766 561.23 319.894 562.738L299.224 579.04L303.592 583.486H315.292C317.84 583.486 319.712 584.318 320.908 585.982C322.104 587.646 322.702 590.298 322.702 593.938H274.576Z" fill="white"/>
<path d="M322 537.443C322 538.951 321.454 540.251 320.362 541.343C319.27 542.383 317.97 542.903 316.462 542.903H274.42C271.82 542.903 269.896 542.045 268.648 540.329C267.348 538.613 266.698 535.987 266.698 532.451H312.952V511.391C312.952 508.947 313.732 507.101 315.292 505.853C316.8 504.605 319.036 503.981 322 503.981V537.443Z" fill="white"/>
<path d="M274.498 495.64C272.054 495.64 270.156 494.73 268.804 492.91C267.4 491.09 266.698 488.516 266.698 485.188H314.902C317.398 485.188 319.322 486.098 320.674 487.918C322.026 489.738 322.702 492.312 322.702 495.64H274.498Z" fill="white"/>
<path d="M274.966 474.501C272.418 474.501 270.416 473.643 268.96 471.927C267.452 470.211 266.698 467.897 266.698 464.985L307.882 438.621L307.258 437.841L301.954 441.039H266.698C266.698 437.659 267.348 435.111 268.648 433.395C269.948 431.627 271.872 430.743 274.42 430.743H315.604C317.528 430.743 319.192 431.575 320.596 433.239C322 434.851 322.702 436.723 322.702 438.855L279.256 466.623L279.958 467.403L285.262 464.205H314.98C317.528 464.205 319.452 465.089 320.752 466.857C322.052 468.573 322.702 471.121 322.702 474.501H274.966Z" fill="white"/>
<path d="M322.702 399.554C322.702 404.182 321.818 408.316 320.05 411.956C318.282 415.544 315.812 418.352 312.64 420.38C309.468 422.408 305.854 423.422 301.798 423.422H287.446C283.39 423.422 279.802 422.434 276.682 420.458C273.51 418.43 271.066 415.648 269.35 412.112C267.582 408.576 266.698 404.52 266.698 399.944C266.698 395.368 267.4 391.312 268.804 387.776C270.156 384.188 272.054 381.406 274.498 379.43C276.942 377.454 279.75 376.466 282.922 376.466C284.846 376.466 286.354 377.116 287.446 378.416C288.538 379.664 289.084 381.354 289.084 383.486C289.084 384.526 288.928 385.67 288.616 386.918C287.368 386.814 286.146 386.762 284.95 386.762C282.194 386.762 279.958 387.984 278.242 390.428C276.526 392.872 275.668 396.044 275.668 399.944C275.668 403.792 276.76 406.938 278.944 409.382C281.128 411.774 283.962 412.97 287.446 412.97H301.798C305.282 412.97 308.142 411.722 310.378 409.226C312.614 406.73 313.732 403.506 313.732 399.554C313.732 395.706 312.848 392.586 311.08 390.194C309.26 387.75 306.92 386.528 304.06 386.528H301.642V393.236C301.642 395.212 300.888 396.824 299.38 398.072C297.82 399.32 295.818 399.944 293.374 399.944V380.99C293.374 379.534 293.816 378.364 294.7 377.48C295.584 376.596 296.754 376.154 298.21 376.154H304.294C307.882 376.154 311.08 377.142 313.888 379.118C316.644 381.094 318.802 383.876 320.362 387.464C321.922 391 322.702 395.03 322.702 399.554Z" fill="white"/>
<path d="M412.702 615.044C412.702 617.644 412.13 619.802 410.986 621.518C409.79 623.182 408.1 624.3 405.916 624.872L357.868 637.118C357.088 635.87 356.698 634.258 356.698 632.282C356.698 630.358 357.166 628.772 358.102 627.524C358.986 626.276 360.26 625.444 361.924 625.028L391.486 618.476L397.492 620.036L397.726 619.334L360.208 608.726C359.116 608.414 358.258 607.868 357.634 607.088C357.01 606.256 356.698 605.268 356.698 604.124C356.698 602.98 357.01 601.992 357.634 601.16C358.258 600.328 359.116 599.756 360.208 599.444L392.188 590.942L398.506 592.424L398.74 591.566L361.924 583.142C360.26 582.778 358.986 581.998 358.102 580.802C357.166 579.554 356.698 577.942 356.698 575.966C356.698 574.042 357.088 572.404 357.868 571.052L405.916 583.376C408.1 583.948 409.79 585.092 410.986 586.808C412.13 588.472 412.702 590.604 412.702 593.204L369.334 605.06L369.568 605.762L374.17 604.514L412.702 615.044Z" fill="white"/>
<path d="M412.702 564.663C412.442 566.899 411.662 568.667 410.362 569.967C409.062 571.215 407.424 571.839 405.448 571.839C403.94 571.839 402.38 571.475 400.768 570.747L360.13 552.885C357.842 551.897 356.698 550.181 356.698 547.737C356.698 545.345 357.842 543.655 360.13 542.667L400.768 524.805C402.484 524.077 404.044 523.713 405.448 523.713C407.424 523.713 409.062 524.363 410.362 525.663C411.662 526.911 412.442 528.679 412.702 530.967L397.882 537.519V558.033L412.702 564.663ZM388.99 540.717L367.618 549.297L368.008 550.233L372.844 548.361L388.99 554.913V540.717Z" fill="white"/>
<path d="M366.448 508.575V527.373C360.416 527.373 357.4 524.643 357.4 519.183L357.4 479.325C363.432 479.325 366.448 482.081 366.448 487.593V498.123H404.98C407.476 498.123 409.4 499.007 410.752 500.775C412.052 502.543 412.702 505.143 412.702 508.575H366.448Z" fill="white"/>
<path d="M362.158 472.625C360.858 472.625 359.74 472.131 358.804 471.143C357.868 470.103 357.4 468.855 357.4 467.399V432.611C360.52 432.611 362.808 433.157 364.264 434.249C365.668 435.289 366.37 437.005 366.37 439.397V462.173H379.942V441.425C383.062 441.425 385.35 441.971 386.806 443.063C388.21 444.103 388.912 445.819 388.912 448.211V462.173H403.03V437.759C403.03 435.419 403.758 433.729 405.214 432.689C406.618 431.597 408.88 431.051 412 431.051V467.399C412 468.855 411.558 470.103 410.674 471.143C409.738 472.131 408.594 472.625 407.242 472.625H362.158Z" fill="white"/>
<path d="M362.158 423.494C360.806 423.494 359.688 423 358.804 422.012C357.868 421.024 357.4 419.776 357.4 418.268V397.442C357.4 391.826 358.882 387.484 361.846 384.416C364.81 381.296 368.97 379.736 374.326 379.736C377.394 379.736 379.994 380.36 382.126 381.608C384.206 382.856 385.87 384.754 387.118 387.302H387.352C389.38 382.726 393.228 380.438 398.896 380.438H404.98C407.476 380.438 409.4 381.322 410.752 383.09C412.052 384.858 412.702 387.458 412.702 390.89H399.364C396.608 390.89 394.58 391.436 393.28 392.528C391.98 393.62 391.33 395.284 391.33 397.52V413.198H404.98C407.528 413.198 409.452 414.082 410.752 415.85C412.052 417.566 412.702 420.114 412.702 423.494H362.158ZM382.438 397.988C382.438 395.492 381.736 393.568 380.332 392.216C378.876 390.864 376.848 390.188 374.248 390.188C368.944 390.188 366.292 392.788 366.292 397.988V413.198H382.438V397.988Z" fill="white"/>
</g>
<defs>
<clipPath id="clip0_141_2">
<rect width="458.215" height="892.261" fill="white"/>
</clipPath>
</defs>
</svg>
