<svg width="460" height="893" viewBox="0 0 460 893" fill="none" xmlns="http://www.w3.org/2000/svg">
<g clip-path="url(#clip0_141_928)">
<path d="M0 834.447H458.211V74.3312H0V834.447Z" fill="#63D378"/>
<path d="M0.000488281 834.447L36.4005 892.26H229.105V834.447H0.000488281Z" fill="#CED5D0"/>
<path d="M458.21 834.447L421.81 892.26H229.106V834.447H458.21Z" fill="#CED5D0"/>
<path d="M0 74.3272L34.7963 36.3538H229.106V74.3272H0" fill="#CED5D0"/>
<path d="M458.21 74.3272L423.414 36.3538H229.106V74.3272H458.21" fill="#CED5D0"/>
<path d="M422.494 36.3539H35.7155C25.6786 36.3539 17.5415 28.2072 17.5415 18.1805C17.5415 8.14051 25.6786 0.00718689 35.7155 0.00718689H422.494C432.532 0.00718689 440.669 8.14051 440.669 18.1805C440.669 28.2072 432.532 36.3539 422.494 36.3539Z" fill="#CED5D0"/>
<path d="M440.669 18.1805C440.669 18.1541 440.669 18.1272 440.669 18.0872C440.669 18.1272 440.669 18.1537 440.669 18.1805ZM17.5415 18.1805C17.5415 18.1405 17.5415 18.114 17.5421 18.0739C17.5415 18.114 17.5415 18.1405 17.5415 18.1805ZM17.5421 18.0339C17.5421 18.0188 17.5426 18.0074 17.5426 17.9938C17.5426 18.0089 17.5421 18.0203 17.5421 18.0339ZM423.95 0.0605138C423.946 0.0605138 423.939 0.0605138 423.935 0.0605138C423.939 0.0605138 423.946 0.0605138 423.95 0.0605138ZM423.854 0.0453896C423.847 0.0453896 423.839 0.0453896 423.831 0.0453896C423.839 0.0453896 423.847 0.0453896 423.854 0.0453896ZM423.754 0.0453896C423.746 0.0453896 423.735 0.0453896 423.728 0.0453896C423.735 0.0453896 423.746 0.0453896 423.754 0.0453896ZM423.564 0.0302798C423.562 0.0302798 423.56 0.0302798 423.56 0.0302798C423.561 0.0302798 423.564 0.0302798 423.564 0.0302798ZM423.5 0.0302798C423.484 0.0302798 423.466 0.0302737 423.45 0.0151556C423.466 0.0302737 423.484 0.0302798 423.5 0.0302798ZM423.398 0.0151556C423.379 0.0151556 423.36 0.0151556 423.341 0.0151556C423.36 0.0151556 423.379 0.0151556 423.398 0.0151556ZM423.29 0.0151556C423.271 0.0151556 423.25 0.0151556 423.232 0.0151556C423.251 0.0151556 423.27 0.0151556 423.29 0.0151556ZM423.185 0.0151556C423.158 0.0151556 423.134 4.57764e-05 423.109 4.57764e-05C423.135 4.57764e-05 423.159 0.0151556 423.185 0.0151556ZM423.076 4.57764e-05C423.042 4.57764e-05 423.006 4.57764e-05 422.972 4.57764e-05C423.006 4.57764e-05 423.042 4.57764e-05 423.076 4.57764e-05ZM422.936 4.57764e-05C422.913 4.57764e-05 422.888 4.57764e-05 422.865 4.57764e-05C422.888 4.57764e-05 422.912 4.57764e-05 422.936 4.57764e-05ZM422.821 4.57764e-05C422.798 4.57764e-05 422.776 4.57764e-05 422.752 4.57764e-05C422.775 4.57764e-05 422.798 4.57764e-05 422.821 4.57764e-05ZM422.713 4.57764e-05C422.687 4.57764e-05 422.664 4.57764e-05 422.638 4.57764e-05C422.665 4.57764e-05 422.688 4.57764e-05 422.713 4.57764e-05ZM422.604 4.57764e-05C422.566 4.57764e-05 422.532 4.57764e-05 422.495 4.57764e-05C422.532 4.57764e-05 422.568 4.57764e-05 422.604 4.57764e-05Z" fill="#D2D2D8"/>
<path d="M422.494 36.3538H35.7155C25.6786 36.3538 17.5415 28.2072 17.5415 18.1805C17.5415 18.1405 17.5415 18.114 17.5421 18.0739C17.5421 18.0588 17.5421 18.0475 17.5421 18.0339C17.5421 18.0188 17.5426 18.0074 17.5426 17.9938C17.5615 16.3271 17.8139 14.7272 18.2499 13.1938C20.416 20.8071 27.4072 26.3938 35.7155 26.3938H324.138C325.393 23.9271 326.115 21.1405 326.115 18.1805C326.115 8.14046 317.979 0.00715637 307.943 0.00715637H422.494C422.532 0.00715637 422.567 0.00715637 422.603 0.00715637C422.615 0.00715637 422.626 0.00715637 422.637 0.00715637C422.664 0.00715637 422.687 0.00715637 422.712 0.00715637C422.727 0.00715637 422.739 0.00715637 422.751 0.00715637C422.773 0.00715637 422.797 0.00715637 422.82 0.00715637C422.835 0.00715637 422.85 0.00715637 422.864 0.00715637C422.886 0.00715637 422.91 0.00715637 422.934 0.00715637C422.946 0.00715637 422.957 0.00715637 422.972 0.00715637C423.006 0.00715637 423.041 0.00715637 423.076 0.00715637C423.088 0.00715637 423.099 0.00715637 423.11 0.00715637C423.137 0.00715637 423.161 0.0222662 423.186 0.0222662C423.201 0.0222662 423.216 0.0222662 423.233 0.0222662C423.252 0.0222662 423.271 0.0222662 423.291 0.0222662C423.306 0.0222662 423.325 0.0222662 423.342 0.0222662C423.361 0.0222662 423.38 0.0222662 423.399 0.0222662C423.418 0.0222662 423.433 0.0222662 423.452 0.0222662C423.467 0.0373843 423.486 0.0373904 423.501 0.0373904C423.52 0.0373904 423.539 0.0373904 423.559 0.0373904C423.561 0.0373904 423.563 0.0373904 423.563 0.0373904C423.618 0.0373904 423.672 0.0525002 423.727 0.0525002C423.735 0.0525002 423.746 0.0525002 423.753 0.0525002C423.78 0.0525002 423.804 0.0525002 423.829 0.0525002C423.837 0.0525002 423.845 0.0525002 423.852 0.0525002C423.879 0.0676183 423.905 0.0676244 423.932 0.0676244C423.936 0.0676244 423.944 0.0676244 423.947 0.0676244C431.609 0.680966 437.919 6.04098 439.958 13.201C440.163 13.921 440.318 14.6676 440.434 15.4143C440.457 15.5477 440.475 15.6811 440.493 15.8143C440.591 16.5609 440.661 17.321 440.666 18.0943C440.666 18.1344 440.666 18.1608 440.666 18.1877C440.666 28.2143 432.529 36.361 422.491 36.361" fill="#B1B5B9"/>
<path d="M458.21 443.514C438.066 449.541 416.476 450.767 395.857 446.607C375.793 442.567 356.858 433.781 336.65 430.527C300.064 424.647 260.886 438.701 236.382 466.487C226.794 477.367 219.401 490.074 209.465 500.634C182.048 529.767 138.148 538.701 98.6263 532.487C70.925 528.141 44.4349 517.261 16.5317 514.487C11.4656 513.981 5.82962 513.781 0 513.994V834.14H458.21V443.514Z" fill="#F4E41E"/>
<path d="M62.2103 283.141C5.06923 361.287 20.885 471.114 98.3169 529.847C175.75 588.594 285.776 574.221 345.625 498.141L62.2103 283.141" fill="#77BB63"/>
<path d="M71.4875 290.18C19.2494 361.674 34.9666 463.074 107.329 517.967C179.693 572.86 281.578 560.674 336.346 491.101L71.4875 290.18Z" fill="#E6F9B4"/>
<path d="M81.3291 297.647C32.2939 364.714 46.2971 459.301 113.282 510.114C180.269 560.941 275.129 548.927 326.506 483.647L81.3291 297.647Z" fill="#CEF490"/>
<path d="M201.552 388.847L206.284 392.434L112.921 515.514L108.189 511.927L201.552 388.847" fill="#E6F9B4"/>
<path d="M201.838 393.38L59.005 432.767L53.293 423.394L201.552 388.847L201.711 391.38L201.838 393.38" fill="#E6F9B4"/>
<path d="M54.6567 339.434C55.8847 339.847 201.711 391.38 201.711 391.38L201.552 388.847L56.2462 333.94L54.6569 339.434" fill="#E6F9B4"/>
<path d="M202.468 397.474L192.421 544.914L198.329 545.274L204.7 394.527L202.468 397.474" fill="#E6F9B4"/>
<path d="M292.117 522.141L201.712 391.38L201.552 388.847L296.085 516.914L292.117 522.141" fill="#E6F9B4"/>
<path d="M331.92 389.581C310.487 389.581 293.112 372.194 293.112 350.767C293.112 329.327 310.487 311.954 331.92 311.954C333.549 311.954 335.152 312.06 336.728 312.247V389.274C335.152 389.474 333.549 389.58 331.92 389.58" fill="#95E1A3"/>
<path d="M184.038 301.687C162.605 301.687 145.229 284.314 145.229 262.874C145.229 241.447 162.605 224.061 184.038 224.061C205.47 224.061 222.846 241.447 222.846 262.874C222.846 284.314 205.47 301.687 184.038 301.687" fill="#95E1A3"/>
<path d="M286.738 224.06C270.959 224.06 258.167 211.274 258.167 195.501C258.167 179.714 270.959 166.927 286.738 166.927C302.517 166.927 315.307 179.714 315.307 195.501C315.307 211.274 302.517 224.06 286.738 224.06" fill="#95E1A3"/>
<path d="M423.285 892.26H312.189H421.81L458.21 834.447H336.728H458.21V834.141V443.514V74.3273L423.414 36.354H423.969L459.684 74.3273V834.447L423.285 892.261" fill="#E0DFE4"/>
<path d="M458.21 834.447H336.728V834.141H458.21V834.447ZM420.557 449.047C412.27 449.047 403.989 448.247 395.857 446.607C375.818 442.581 356.908 433.794 336.728 430.541V389.274C355.893 386.914 370.729 370.567 370.729 350.767C370.729 330.967 355.893 314.621 336.728 312.247V74.3272H458.21V443.514C446.012 447.167 433.28 449.047 420.557 449.047" fill="#68BD7C"/>
<path d="M421.81 892.26H312.189L336.728 834.447H458.21L421.81 892.26" fill="#BABFC0"/>
<path d="M458.21 74.3272H336.728L306.854 36.3538H423.414L458.21 74.3272" fill="#BABFC0"/>
<path d="M458.21 834.14H336.728V508.607C339.8 505.26 342.772 501.767 345.625 498.141L336.728 491.394V430.54C356.908 433.794 375.818 442.58 395.857 446.607C403.989 448.247 412.27 449.047 420.557 449.047C433.28 449.047 446.012 447.167 458.21 443.514V834.14Z" fill="#D7CA37"/>
<path d="M336.728 508.607V491.394L345.625 498.14C342.772 501.767 339.8 505.26 336.728 508.607" fill="#77AB6C"/>
<path d="M336.728 389.274V312.247C355.893 314.621 370.729 330.967 370.729 350.767C370.729 370.567 355.893 386.914 336.728 389.274Z" fill="#8EC89D"/>
<path d="M245.368 817.966V781.158H262.101V796.233H277.954V782.81H293.848V796.233H328.954V817.966H245.368" fill="#63D378"/>
<path d="M259.674 754.158H278.261C278.261 751.715 277.928 750.002 277.248 749.021C276.581 748.041 274.408 747.55 270.728 747.55H266.128C263.474 747.55 261.741 748.023 260.914 748.97C260.088 749.918 259.674 751.646 259.674 754.158ZM245.368 775.891V760.507C245.368 750.253 245.768 743.309 246.554 739.676C247.354 736.046 249.368 733.087 252.621 730.798C255.874 728.509 261.074 727.363 268.194 727.363C274.701 727.363 279.074 728.174 281.301 729.79C283.541 731.41 284.888 734.591 285.328 739.341C286.394 735.039 287.821 732.149 289.621 730.667C291.408 729.19 293.048 728.267 294.541 727.906C296.048 727.545 300.168 727.363 306.914 727.363H328.954V747.55H301.181C296.701 747.55 293.941 747.903 292.874 748.609C291.808 749.314 291.274 751.163 291.274 754.158H328.954V775.891H245.368" fill="#63D378"/>
<path d="M245.368 718.948V682.708H262.101V697.215H277.954V683.638H293.848V697.215H312.234V681.263H328.954V718.948H245.368Z" fill="#63D378"/>
<path d="M270.674 628.966V649.151H264.474C261.581 649.151 259.741 649.41 258.954 649.926C258.154 650.442 257.768 651.303 257.768 652.507C257.768 653.817 258.301 654.805 259.368 655.475C260.434 656.147 262.048 656.482 264.221 656.482C267.008 656.482 269.114 656.107 270.528 655.35C271.941 654.631 273.634 652.583 275.634 649.209C281.381 639.534 286.088 633.441 289.768 630.927C293.461 628.417 299.394 627.159 307.581 627.159C313.541 627.159 317.928 627.857 320.741 629.25C323.568 630.643 325.941 633.338 327.848 637.33C329.754 641.323 330.714 645.97 330.714 651.269C330.714 657.085 329.608 662.051 327.408 666.162C325.208 670.275 322.394 672.97 318.994 674.242C315.581 675.515 310.754 676.151 304.488 676.151H299.008V655.966H309.181C312.314 655.966 314.328 655.682 315.221 655.114C316.114 654.547 316.568 653.539 316.568 652.094C316.568 650.649 315.994 649.574 314.861 648.867C313.728 648.163 312.034 647.81 309.808 647.81C304.874 647.81 301.661 648.481 300.141 649.823C298.634 651.201 296.101 654.591 292.554 659.993C288.981 665.397 286.381 668.975 284.768 670.731C283.141 672.486 280.914 673.942 278.048 675.094C275.194 676.249 271.541 676.823 267.101 676.823C260.701 676.823 256.021 676.006 253.061 674.371C250.101 672.737 247.794 670.095 246.128 666.446C244.448 662.799 243.621 658.393 243.621 653.23C243.621 647.586 244.528 642.777 246.354 638.801C248.181 634.826 250.474 632.193 253.248 630.902C256.021 629.611 260.728 628.966 267.368 628.966H270.674" fill="#63D378"/>
<path d="M245.368 570.371H328.954V592.106H293.848V598.611H328.954V620.345H245.368V598.611H275.261V592.106H245.368V570.371Z" fill="#63D378"/>
<path d="M340.728 796.713H406.634V783.683H423.128V818.14H340.728V796.713" fill="white"/>
<path d="M340.728 757.063H423.128V778.491H340.728V757.063Z" fill="white"/>
<path d="M340.728 682.345H423.127V701.075L367.488 701.102L423.127 708.558V721.843L368.768 729.707L423.127 729.733V748.464H340.728V720.737C345.674 719.915 351.514 719.067 358.234 718.193L379.208 715.151L340.728 710.225V682.347" fill="white"/>
<path d="M340.728 673.743V638.013H357.207V652.315H372.834V638.929H388.514V652.315H406.634V636.587H423.128V673.743H340.728Z" fill="white"/>
<path d="M102.709 533.074C101.344 532.9 99.9823 532.7 98.6263 532.487C76.9316 529.087 55.9823 521.674 34.5135 517.287C34.453 516.287 34.405 515.287 34.3672 514.3C33.149 482.674 31.9307 451.047 30.712 419.407C38.287 461.874 61.2369 501.714 98.3169 529.847C99.7676 530.954 101.236 532.02 102.709 533.074M28.8178 370.22C27.2839 330.407 25.75 290.594 24.2162 250.78C23.6281 235.501 23.0672 219.98 27.5459 205.22C32.2427 189.74 47.0356 182.687 62.7463 182.687C79.585 182.687 97.4796 190.794 105.125 205.314C112.056 218.487 111.057 233.354 110.074 247.594C108.485 270.607 107.27 293.634 106.429 316.687L62.2103 283.14C42.8577 309.607 31.8735 339.714 28.8178 370.22Z" fill="#99E2A7"/>
<path d="M68.1225 560.78C64.8665 560.78 61.5985 560.3 58.4185 559.26C39.947 553.234 35.5174 533.994 34.5137 517.287C55.9825 521.674 76.9318 529.087 98.6265 532.487C99.9825 532.7 101.344 532.9 102.709 533.074C103.385 533.554 104.058 534.034 104.74 534.5C103.861 536.994 102.762 539.434 101.392 541.807C95.2665 552.38 81.7865 560.78 68.1225 560.78Z" fill="#F8ED6D"/>
<path d="M104.74 534.5C104.058 534.034 103.385 533.554 102.709 533.074C101.236 532.021 99.7678 530.954 98.3171 529.847C61.2371 501.714 38.2871 461.874 30.7121 419.407C30.0808 403.007 29.4491 386.62 28.8179 370.22C31.8736 339.714 42.8579 309.607 62.2104 283.141L106.429 316.687L71.4877 290.18C19.2496 361.674 34.9668 463.074 107.329 517.967C107.48 518.087 107.633 518.194 107.784 518.314C107.44 523.847 106.573 529.287 104.74 534.5" fill="#A6D399"/>
<path d="M107.784 518.314C107.633 518.194 107.48 518.087 107.329 517.967C34.9666 463.074 19.2494 361.674 71.4875 290.181L106.429 316.687L81.3289 297.647C72.5835 309.607 65.8422 322.447 61.0502 335.754L56.2462 333.941L54.6569 339.434C54.7824 339.474 56.4196 340.047 59.2542 341.047C50.7675 367.674 49.9156 395.954 56.2542 422.714L53.2929 423.394L58.9889 432.741C67.5556 460.434 84.0236 486.021 107.865 505.821C108.005 509.981 108.041 514.167 107.784 518.314" fill="#EFFBCE"/>
<path d="M107.865 505.821C84.0238 486.021 67.5558 460.434 58.9891 432.74L59.0042 432.767L105.162 420.034C105.476 446.287 106.274 472.527 107.556 498.767C107.67 501.1 107.784 503.46 107.864 505.82M56.2535 422.714C49.9149 395.954 50.7669 367.674 59.2535 341.047C67.3042 343.887 85.0256 350.154 105.334 357.327C105.019 375.327 104.934 393.327 105.076 411.327L56.2535 422.714M105.421 352.527L61.0495 335.754C65.8415 322.447 72.5828 309.607 81.3281 297.647L106.428 316.687C105.992 328.621 105.657 340.581 105.421 352.527Z" fill="#DFF8B7"/>
<path d="M59.0051 432.767L58.9899 432.741L53.2939 423.394L56.2553 422.714L105.078 411.327C105.101 414.234 105.129 417.141 105.163 420.034L59.006 432.767" fill="#EFFBCE"/>
<path d="M105.334 357.327C85.0261 350.154 67.3047 343.887 59.254 341.047C56.4194 340.047 54.7821 339.474 54.6567 339.434L56.2461 333.94L61.0501 335.754L105.422 352.527C105.392 354.127 105.362 355.727 105.334 357.327" fill="#EFFBCE"/>
<path d="M58.0182 152.367C46.5528 152.367 35.0791 144.967 31.1249 134.087C26.3967 121.074 33.1166 104.981 45.6958 99.1938C46.7969 98.7005 48.0915 98.2872 49.2915 98.2872C50.2902 98.2872 51.2249 98.5672 51.9262 99.3005L54.5448 96.7938C55.3742 96.7005 56.2009 96.6604 57.0289 96.6604C69.9542 96.6604 82.4235 106.674 84.7969 119.46C87.3209 133.074 78.0502 147.847 64.6915 151.487C62.5049 152.074 60.2622 152.367 58.0182 152.367" fill="#99E2A7"/>
</g>
<defs>
<clipPath id="clip0_141_928">
<rect width="459.684" height="892.261" fill="white"/>
</clipPath>
</defs>
</svg>
