<?xml version="1.0" encoding="UTF-8" standalone="no"?>
<!-- Created with Inkscape (http://www.inkscape.org/) -->

<svg
   width="121.23596mm"
   height="236.07727mm"
   viewBox="0 0 121.23596 236.07727"
   version="1.1"
   id="svg4558"
   sodipodi:docname="drink-soda.svg"
   inkscape:version="1.1.1 (3bf5ae0d25, 2021-09-20)"
   xmlns:inkscape="http://www.inkscape.org/namespaces/inkscape"
   xmlns:sodipodi="http://sodipodi.sourceforge.net/DTD/sodipodi-0.dtd"
   xmlns="http://www.w3.org/2000/svg"
   xmlns:svg="http://www.w3.org/2000/svg">
  <sodipodi:namedview
     id="namedview4560"
     pagecolor="#505050"
     bordercolor="#ffffff"
     borderopacity="1"
     inkscape:pageshadow="0"
     inkscape:pageopacity="0"
     inkscape:pagecheckerboard="1"
     inkscape:document-units="mm"
     showgrid="false"
     inkscape:zoom="0.5"
     inkscape:cx="131"
     inkscape:cy="593"
     inkscape:window-width="1920"
     inkscape:window-height="1001"
     inkscape:window-x="-9"
     inkscape:window-y="-9"
     inkscape:window-maximized="1"
     inkscape:current-layer="layer1" />
  <defs
     id="defs4555">
    <clipPath
       clipPathUnits="userSpaceOnUse"
       id="clipPath262">
      <path
         d="m 13714.5,18258.4 c 0,0.2 0,0.4 0,0.7 0,-0.3 0,-0.5 0,-0.7 m -3173.5,0 c 0,0.3 0,0.5 0,0.8 0,-0.3 0,-0.5 0,-0.8 m 0,1.1 c 0,0.1 0,0.2 0,0.3 0,-0.1 0,-0.2 0,-0.3 m 3048.1,134.8 c -0.1,0 -0.1,0 -0.1,0 0,0 0,0 0.1,0 m -0.7,0.1 c -0.1,0 -0.2,0 -0.2,0 0,0 0.1,0 0.2,0 m -0.8,0 c -0.1,0 -0.1,0 -0.2,0 0.1,0 0.1,0 0.2,0 m -1.4,0.1 h -0.1 0.1 m -0.5,0 c -0.1,0 -0.3,0 -0.4,0.1 0.1,-0.1 0.3,-0.1 0.4,-0.1 m -0.8,0.1 c -0.1,0 -0.3,0 -0.4,0 0.2,0 0.3,0 0.4,0 m -0.8,0 c -0.1,0 -0.3,0 -0.4,0 0.1,0 0.3,0 0.4,0 m -0.8,0 c -0.2,0 -0.3,0.1 -0.5,0.1 0.2,0 0.3,-0.1 0.5,-0.1 m -0.8,0.1 c -0.2,0 -0.5,0 -0.8,0 0.3,0 0.6,0 0.8,0 m -1,0 c -0.2,0 -0.4,0 -0.6,0 0.2,0 0.4,0 0.6,0 m -0.9,0 c -0.2,0 -0.3,0 -0.5,0 0.2,0 0.3,0 0.5,0 m -0.8,0 c -0.2,0 -0.4,0 -0.6,0 0.2,0 0.4,0 0.6,0 m -0.8,0 c -0.3,0 -0.6,0 -0.8,0 0.2,0 0.5,0 0.8,0"
         id="path260" />
    </clipPath>
    <clipPath
       clipPathUnits="userSpaceOnUse"
       id="clipPath262-0">
      <path
         d="m 13714.5,18258.4 c 0,0.2 0,0.4 0,0.7 0,-0.3 0,-0.5 0,-0.7 m -3173.5,0 c 0,0.3 0,0.5 0,0.8 0,-0.3 0,-0.5 0,-0.8 m 0,1.1 c 0,0.1 0,0.2 0,0.3 0,-0.1 0,-0.2 0,-0.3 m 3048.1,134.8 c -0.1,0 -0.1,0 -0.1,0 0,0 0,0 0.1,0 m -0.7,0.1 c -0.1,0 -0.2,0 -0.2,0 0,0 0.1,0 0.2,0 m -0.8,0 c -0.1,0 -0.1,0 -0.2,0 0.1,0 0.1,0 0.2,0 m -1.4,0.1 h -0.1 0.1 m -0.5,0 c -0.1,0 -0.3,0 -0.4,0.1 0.1,-0.1 0.3,-0.1 0.4,-0.1 m -0.8,0.1 c -0.1,0 -0.3,0 -0.4,0 0.2,0 0.3,0 0.4,0 m -0.8,0 c -0.1,0 -0.3,0 -0.4,0 0.1,0 0.3,0 0.4,0 m -0.8,0 c -0.2,0 -0.3,0.1 -0.5,0.1 0.2,0 0.3,-0.1 0.5,-0.1 m -0.8,0.1 c -0.2,0 -0.5,0 -0.8,0 0.3,0 0.6,0 0.8,0 m -1,0 c -0.2,0 -0.4,0 -0.6,0 0.2,0 0.4,0 0.6,0 m -0.9,0 c -0.2,0 -0.3,0 -0.5,0 0.2,0 0.3,0 0.5,0 m -0.8,0 c -0.2,0 -0.4,0 -0.6,0 0.2,0 0.4,0 0.6,0 m -0.8,0 c -0.3,0 -0.6,0 -0.8,0 0.2,0 0.5,0 0.8,0"
         id="path260-1" />
    </clipPath>
  </defs>
  <g
     inkscape:label="Layer 1"
     inkscape:groupmode="layer"
     id="layer1"
     transform="translate(-70.20267,-38.86137)">
    <g
       id="g5705">
      <path
         d="M 70.20267,259.64219 H 191.43829 V 58.52815 H 70.20267 Z"
         style="fill:#63d378;fill-opacity:1;fill-rule:nonzero;stroke:none;stroke-width:0.0352778"
         id="path562" />
      <path
         d="m 70.20267,259.64219 9.63083,15.29645 h 50.98698 V 259.64219 H 70.20267"
         style="fill:#ced5d0;fill-opacity:1;fill-rule:nonzero;stroke:none;stroke-width:0.0352778"
         id="path564" />
      <path
         d="m 191.43829,259.64219 -9.63083,15.29645 h -50.98698 v -15.29645 h 60.61781"
         style="fill:#ced5d0;fill-opacity:1;fill-rule:nonzero;stroke:none;stroke-width:0.0352778"
         id="path566" />
      <path
         d="m 70.20267,58.52709 9.2075,-10.04711 h 51.41031 V 58.52709 H 70.20267"
         style="fill:#ced5d0;fill-opacity:1;fill-rule:nonzero;stroke:none;stroke-width:0.0352778"
         id="path568" />
      <path
         d="m 191.43829,58.52709 -9.2075,-10.04711 h -51.41031 v 10.04711 h 60.61781"
         style="fill:#ced5d0;fill-opacity:1;fill-rule:nonzero;stroke:none;stroke-width:0.0352778"
         id="path570" />
      <path
         d="M 181.98737,48.47998 H 79.65359 c -2.65642,0 -4.80836,-2.15547 -4.80836,-4.80836 0,-2.65642 2.15194,-4.80836 4.80836,-4.80836 h 102.33378 c 2.65642,0 4.81189,2.15194 4.81189,4.80836 0,2.65289 -2.15547,4.80836 -4.81189,4.80836"
         style="fill:#ced5d0;fill-opacity:1;fill-rule:nonzero;stroke:none;stroke-width:0.0352778"
         id="path572" />
      <path
         d="m 186.79926,43.67162 c 0,-0.007 0,-0.0141 0,-0.0247 0,0.0106 0,0.0176 0,0.0247 m -111.95403,0 c 0,-0.0106 0,-0.0176 0,-0.0282 0,0.0106 0,0.0176 0,0.0282 m 0,-0.0388 c 0,-0.004 0,-0.007 0,-0.0106 0,0.004 0,0.007 0,0.0106 m 107.5302,-4.75545 c -0.004,0 -0.004,0 -0.007,0 0.004,0 0.004,0 0.007,0 m -0.0282,-0.004 c 0,0 -0.004,0 -0.007,0 0.004,0 0.007,0 0.007,0 m -0.0247,0 c -0.004,0 -0.007,0 -0.007,0 0,0 0.004,0 0.007,0 m -0.0494,-0.004 h -0.004 0.004 m -0.0176,0 c -0.004,0 -0.0106,0 -0.0141,-0.004 0.004,0.004 0.0106,0.004 0.0141,0.004 m -0.0282,-0.004 c -0.004,0 -0.0106,0 -0.0141,0 0.004,0 0.0106,0 0.0141,0 m -0.0282,0 c -0.004,0 -0.0106,0 -0.0141,0 0.004,0 0.0106,0 0.0141,0 m -0.0282,0 c -0.007,0 -0.0141,-0.004 -0.0212,-0.004 0.007,0 0.0141,0.004 0.0212,0.004 m -0.0282,-0.004 c -0.0106,0 -0.0176,0 -0.0282,0 0.0106,0 0.0176,0 0.0282,0 m -0.0353,0 c -0.007,0 -0.0141,0 -0.0212,0 0.007,0 0.0141,0 0.0212,0 m -0.0317,0 c -0.007,0 -0.0141,0 -0.0176,0 0.004,0 0.0106,0 0.0176,0 m -0.0282,0 c -0.007,0 -0.0141,0 -0.0212,0 0.007,0 0.0141,0 0.0212,0 m -0.0282,0 c -0.0106,0 -0.0212,0 -0.0317,0 0.0106,0 0.0212,0 0.0317,0"
         style="fill:#d2d2d8;fill-opacity:1;fill-rule:nonzero;stroke:none;stroke-width:0.0352778"
         id="path574" />
      <path
         d="M 181.98737,48.47998 H 79.65359 v 0 c -2.65642,0 -4.80836,-2.15547 -4.80836,-4.80836 v 0 c 0,-0.0106 0,-0.0176 0,-0.0282 0,-0.004 0,-0.007 0,-0.0106 0,-0.004 0,-0.007 0,-0.0106 0.004,-0.44097 0.0706,-0.8643 0.18697,-1.27 0.57503,2.01436 2.42358,3.4925 4.62139,3.4925 h 76.31289 c 0.33161,-0.65264 0.52211,-1.38994 0.52211,-2.17311 0,-2.65642 -2.15194,-4.80836 -4.80836,-4.80836 h 30.30714 v 0 c 0.0106,0 0.0212,0 0.0317,0 0,0 0.004,0 0.007,0 0.007,0 0.0141,0 0.0212,0 0.004,0 0.007,0 0.0106,0 0.004,0 0.0106,0 0.0176,0 0.004,0 0.007,0 0.0106,0 0.007,0 0.0141,0 0.0212,0 0,0 0.004,0 0.007,0 0.0106,0 0.0176,0 0.0282,0 0.004,0 0.007,0 0.007,0 0.007,0 0.0141,0.004 0.0212,0.004 0.004,0 0.007,0 0.0141,0 0.004,0 0.0106,0 0.0141,0 0.004,0 0.0106,0 0.0141,0 0.004,0 0.0106,0 0.0141,0 0.004,0 0.0106,0 0.0141,0 0.004,0.004 0.0106,0.004 0.0141,0.004 0.004,0 0.0106,0 0.0141,0 h 0.004 c 0.0141,0 0.0282,0.004 0.0423,0.004 0,0 0.004,0 0.007,0 0.007,0 0.0141,0 0.0176,0 0.004,0 0.007,0 0.007,0 0.007,0.004 0.0141,0.004 0.0212,0.004 0.004,0 0.004,0 0.007,0 2.02494,0.16228 3.69358,1.58045 4.23333,3.47486 0.0564,0.1905 0.0952,0.38806 0.127,0.58561 0.007,0.0353 0.0106,0.0706 0.0176,0.10584 0.0247,0.19755 0.0423,0.39864 0.0459,0.60325 0,0.0106 0,0.0176 0,0.0247 v 0 c 0,2.65289 -2.15547,4.80836 -4.81189,4.80836"
         style="fill:#b1b5b9;fill-opacity:1;fill-rule:nonzero;stroke:none;stroke-width:0.0352778"
         id="path576" />
      <path
         d="M 70.20267,130.78657 H 191.43829 V 119.30048 H 70.20267 Z"
         style="fill:#9ef47d;fill-opacity:1;fill-rule:nonzero;stroke:none;stroke-width:0.0352778"
         id="path590" />
      <path
         d="M 70.20267,114.02257 H 191.43829 V 110.4073 H 70.20267 Z"
         style="fill:#9ef47d;fill-opacity:1;fill-rule:nonzero;stroke:none;stroke-width:0.0352778"
         id="path592" />
      <path
         d="m 88.82581,98.46507 c 0,3.683 -2.98097,6.6675 -6.66397,6.6675 -3.683,0 -6.66397,-2.9845 -6.66397,-6.6675 0,-3.67947 2.98097,-6.66397 6.66397,-6.66397 3.683,0 6.66397,2.9845 6.66397,6.66397"
         style="fill:#9ef47d;fill-opacity:1;fill-rule:nonzero;stroke:none;stroke-width:0.0352778"
         id="path594" />
      <path
         d="m 108.29209,98.46507 c 0,3.683 -2.9845,6.6675 -6.6675,6.6675 -3.67947,0 -6.66397,-2.9845 -6.66397,-6.6675 0,-3.67947 2.9845,-6.66397 6.66397,-6.66397 3.683,0 6.6675,2.9845 6.6675,6.66397"
         style="fill:#9ef47d;fill-opacity:1;fill-rule:nonzero;stroke:none;stroke-width:0.0352778"
         id="path596" />
      <path
         d="m 127.75484,98.46507 c 0,3.683 -2.9845,6.6675 -6.66397,6.6675 -3.683,0 -6.6675,-2.9845 -6.6675,-6.6675 0,-3.67947 2.9845,-6.66397 6.6675,-6.66397 3.67947,0 6.66397,2.9845 6.66397,6.66397"
         style="fill:#9ef47d;fill-opacity:1;fill-rule:nonzero;stroke:none;stroke-width:0.0352778"
         id="path598" />
      <path
         d="m 147.21759,98.46507 c 0,3.683 -2.9845,6.6675 -6.66397,6.6675 -3.683,0 -6.6675,-2.9845 -6.6675,-6.6675 0,-3.67947 2.9845,-6.66397 6.6675,-6.66397 3.67947,0 6.66397,2.9845 6.66397,6.66397"
         style="fill:#9ef47d;fill-opacity:1;fill-rule:nonzero;stroke:none;stroke-width:0.0352778"
         id="path600" />
      <path
         d="m 186.14662,98.46507 c 0,3.683 -2.9845,6.6675 -6.66397,6.6675 -3.683,0 -6.6675,-2.9845 -6.6675,-6.6675 0,-3.67947 2.9845,-6.66397 6.6675,-6.66397 3.67947,0 6.66397,2.9845 6.66397,6.66397"
         style="fill:#9ef47d;fill-opacity:1;fill-rule:nonzero;stroke:none;stroke-width:0.0352778"
         id="path602" />
      <path
         d="m 166.68387,98.46507 c 0,3.683 -2.9845,6.6675 -6.6675,6.6675 -3.67947,0 -6.66397,-2.9845 -6.66397,-6.6675 0,-3.67947 2.9845,-6.66397 6.66397,-6.66397 3.683,0 6.6675,2.9845 6.6675,6.66397"
         style="fill:#9ef47d;fill-opacity:1;fill-rule:nonzero;stroke:none;stroke-width:0.0352778"
         id="path604" />
      <path
         d="m 88.82581,80.11004 c 0,3.683 -2.98097,6.6675 -6.66397,6.6675 -3.683,0 -6.66397,-2.9845 -6.66397,-6.6675 0,-3.67947 2.98097,-6.66397 6.66397,-6.66397 3.683,0 6.66397,2.9845 6.66397,6.66397"
         style="fill:#9ef47d;fill-opacity:1;fill-rule:nonzero;stroke:none;stroke-width:0.0352778"
         id="path606" />
      <path
         d="m 108.29209,80.11004 c 0,3.683 -2.9845,6.6675 -6.6675,6.6675 -3.67947,0 -6.66397,-2.9845 -6.66397,-6.6675 0,-3.67947 2.9845,-6.66397 6.66397,-6.66397 3.683,0 6.6675,2.9845 6.6675,6.66397"
         style="fill:#9ef47d;fill-opacity:1;fill-rule:nonzero;stroke:none;stroke-width:0.0352778"
         id="path608" />
      <path
         d="m 127.75484,80.11004 c 0,3.683 -2.9845,6.6675 -6.66397,6.6675 -3.683,0 -6.6675,-2.9845 -6.6675,-6.6675 0,-3.67947 2.9845,-6.66397 6.6675,-6.66397 3.67947,0 6.66397,2.9845 6.66397,6.66397"
         style="fill:#9ef47d;fill-opacity:1;fill-rule:nonzero;stroke:none;stroke-width:0.0352778"
         id="path610" />
      <path
         d="m 147.21759,80.11004 c 0,3.683 -2.9845,6.6675 -6.66397,6.6675 -3.683,0 -6.6675,-2.9845 -6.6675,-6.6675 0,-3.67947 2.9845,-6.66397 6.6675,-6.66397 3.67947,0 6.66397,2.9845 6.66397,6.66397"
         style="fill:#9ef47d;fill-opacity:1;fill-rule:nonzero;stroke:none;stroke-width:0.0352778"
         id="path612" />
      <path
         d="m 186.14662,80.11004 c 0,3.683 -2.9845,6.6675 -6.66397,6.6675 -3.683,0 -6.6675,-2.9845 -6.6675,-6.6675 0,-3.67947 2.9845,-6.66397 6.6675,-6.66397 3.67947,0 6.66397,2.9845 6.66397,6.66397"
         style="fill:#9ef47d;fill-opacity:1;fill-rule:nonzero;stroke:none;stroke-width:0.0352778"
         id="path614" />
      <path
         d="m 166.68387,80.11004 c 0,3.683 -2.9845,6.6675 -6.6675,6.6675 -3.67947,0 -6.66397,-2.9845 -6.66397,-6.6675 0,-3.67947 2.9845,-6.66397 6.66397,-6.66397 3.683,0 6.6675,2.9845 6.6675,6.66397"
         style="fill:#9ef47d;fill-opacity:1;fill-rule:nonzero;stroke:none;stroke-width:0.0352778"
         id="path616" />
      <path
         d="m 158.90512,259.64219 h 32.53317 l -7e-5,-128.85557 h -32.53317 m 32.53351,-11.4858 h -32.53317 v -5.27756 h 32.53317 v 5.27756 m 0,-8.89353 h -32.53317 v -5.36928 c 0.36336,0.0635 0.73378,0.0953 1.11125,0.0953 3.683,0 6.6675,-2.9845 6.6675,-6.6675 0,-3.67947 -2.9845,-6.66397 -6.6675,-6.66397 -0.37747,0 -0.74789,0.0318 -1.11125,0.0917 v -5.21053 c 0.36336,0.0635 0.73378,0.0952 1.11125,0.0952 3.683,0 6.6675,-2.9845 6.6675,-6.6675 0,-3.67947 -2.9845,-6.66397 -6.6675,-6.66397 -0.37747,0 -0.74789,0.0318 -1.11125,0.0917 v -15.0107 h 32.53317 v 51.87951 m -11.95564,-18.6055 c -3.683,0 -6.6675,2.9845 -6.6675,6.66397 0,3.683 2.9845,6.6675 6.6675,6.6675 3.67947,0 6.66397,-2.9845 6.66397,-6.6675 0,-3.67947 -2.9845,-6.66397 -6.66397,-6.66397 m 0,-18.35503 c -3.683,0 -6.6675,2.9845 -6.6675,6.66397 0,3.683 2.9845,6.6675 6.6675,6.6675 3.67947,0 6.66397,-2.9845 6.66397,-6.6675 0,-3.67947 -2.9845,-6.66397 -6.66397,-6.66397"
         style="fill:#6ab47e;fill-opacity:1;fill-rule:nonzero;stroke:none;stroke-width:0.0352778"
         id="path630"
         sodipodi:nodetypes="ccccccccccccsssccssscccccsssccsssc" />
      <path
         d="m 181.80746,274.93864 h -29.39345 l 6.49111,-15.29645 h 32.53317 l -9.63083,15.29645"
         style="fill:#b1b5b9;fill-opacity:1;fill-rule:nonzero;stroke:none;stroke-width:0.0352778"
         id="path632" />
      <path
         d="M 191.43829,58.52709 H 158.90512 L 151.0029,48.47998 h 30.98447 l 9.45092,10.04711"
         style="fill:#b1b5b9;fill-opacity:1;fill-rule:nonzero;stroke:none;stroke-width:0.0352778"
         id="path634" />
      <path
         d="M 158.90512,130.78657 H 191.4384 V 119.30048 H 158.90512 Z"
         style="fill:#91ca81;fill-opacity:1;fill-rule:nonzero;stroke:none;stroke-width:0.0352778"
         id="path644" />
      <path
         d="M 158.90512,114.02257 H 191.4384 V 110.4073 H 158.90512 Z"
         style="fill:#91ca81;fill-opacity:1;fill-rule:nonzero;stroke:none;stroke-width:0.0352778"
         id="path646" />
      <path
         d="m 179.48265,105.13257 c -3.683,0 -6.6675,-2.9845 -6.6675,-6.6675 0,-3.67947 2.9845,-6.66397 6.6675,-6.66397 3.67947,0 6.66397,2.9845 6.66397,6.66397 0,3.683 -2.9845,6.6675 -6.66397,6.6675"
         style="fill:#91ca81;fill-opacity:1;fill-rule:nonzero;stroke:none;stroke-width:0.0352778"
         id="path648" />
      <path
         d="m 160.01637,105.13257 c -0.37747,0 -0.74789,-0.0318 -1.11125,-0.0953 v -13.1445 c 0.36336,-0.06 0.73378,-0.0917 1.11125,-0.0917 3.683,0 6.6675,2.9845 6.6675,6.66397 0,3.683 -2.9845,6.6675 -6.6675,6.6675"
         style="fill:#91ca81;fill-opacity:1;fill-rule:nonzero;stroke:none;stroke-width:0.0352778"
         id="path650" />
      <path
         d="m 179.48265,86.77754 c -3.683,0 -6.6675,-2.9845 -6.6675,-6.6675 0,-3.67947 2.9845,-6.66397 6.6675,-6.66397 3.67947,0 6.66397,2.9845 6.66397,6.66397 0,3.683 -2.9845,6.6675 -6.66397,6.6675"
         style="fill:#91ca81;fill-opacity:1;fill-rule:nonzero;stroke:none;stroke-width:0.0352778"
         id="path652" />
      <path
         d="m 160.01637,86.77754 c -0.37747,0 -0.74789,-0.0317 -1.11125,-0.0952 v -13.1445 c 0.36336,-0.06 0.73378,-0.0917 1.11125,-0.0917 3.683,0 6.6675,2.9845 6.6675,6.66397 0,3.683 -2.9845,6.6675 -6.6675,6.6675"
         style="fill:#91ca81;fill-opacity:1;fill-rule:nonzero;stroke:none;stroke-width:0.0352778"
         id="path654" />
      <path
         d="m 93.81409,194.15605 h -6.96383 c -1.4217,-1.22767 -2.25073,-3.14678 -2.7305,-5.27756 h 13.21858 c -0.15522,0.52564 -0.33867,1.0407 -0.55739,1.54517 -0.64558,1.48872 -1.70744,2.81869 -2.96686,3.73239 m 4.13103,-16.76048 H 83.32248 c -0.44803,-15.53633 -0.89606,-31.07619 -1.34409,-46.609 h 15.80445 c -0.42686,15.5187 -0.37042,31.07267 0.16228,46.609 m 0.24106,-58.0954 H 81.64795 c -0.0529,-1.76036 -0.1023,-3.5172 -0.15522,-5.27756 h 16.94039 c -0.0882,1.75683 -0.16933,3.5172 -0.24694,5.27756 m 0.4198,-8.89353 H 81.40337 c -0.0212,-1.77447 0.004,-3.54895 0.16227,-5.30225 0.19403,0.0176 0.39511,0.0282 0.5962,0.0282 3.683,0 6.66397,-2.9845 6.66397,-6.6675 0,-1.07597 -0.254,-2.09197 -0.70555,-2.99156 0.32808,-0.0423 0.66322,-0.0635 0.99836,-0.0635 2.05316,0 4.18747,0.81139 5.8808,2.33187 -0.0247,0.23636 -0.0388,0.47977 -0.0388,0.72319 0,2.4765 1.34761,4.6355 3.35139,5.78556 0.3563,2.00025 0.36688,4.08516 0.2928,6.15597"
         style="fill:#b3e9bd;fill-opacity:1;fill-rule:nonzero;stroke:none;stroke-width:0.0352778"
         id="path660"
         sodipodi:nodetypes="cccccccccccccccccccsscscscc" />
      <path
         d="m 157.1705,233.46183 v 0 l -0.0494,0.0423 c -0.127,0.0988 -0.254,0.20814 -0.38453,0.32102 -0.0459,0.0423 -0.0952,0.0847 -0.14464,0.13053 -0.10231,0.0953 -0.20814,0.1905 -0.3175,0.29281 -0.0459,0.0459 -0.0917,0.0917 -0.14111,0.13758 -0.14817,0.14817 -0.29986,0.29986 -0.45509,0.46214 l -0.0247,0.0282 c -0.14816,0.15522 -0.29986,0.32103 -0.45155,0.49389 -0.0494,0.0564 -0.10231,0.11642 -0.1517,0.17286 -0.11994,0.13406 -0.23636,0.27517 -0.3563,0.41628 -0.0529,0.0635 -0.10584,0.127 -0.15875,0.1905 -0.16228,0.19403 -0.32456,0.39511 -0.49036,0.60678 l -0.0247,0.0282 -0.73731,0.93839 c -0.1658,0.21519 -0.32808,0.41628 -0.4833,0.60678 -0.0459,0.0564 -0.0882,0.10583 -0.13406,0.15875 -0.10936,0.13405 -0.21872,0.26458 -0.32456,0.38805 -0.0494,0.06 -0.0988,0.11289 -0.14816,0.16934 -0.0952,0.10936 -0.1905,0.21519 -0.28223,0.3175 -0.0494,0.0564 -0.0988,0.10583 -0.15169,0.16227 -0.0847,0.0917 -0.16933,0.17992 -0.254,0.26459 -1.46403,1.48166 -2.52942,1.86619 -3.937,1.86619 -2.45181,0 -3.89819,-1.7145 -3.89819,-4.03225 0,-0.0811 0,-0.15875 0.004,-0.23636 0.0318,-2.00025 0.50094,-3.1115 0.90663,-3.683 v -0.004 c 0.18345,-0.26105 0.35631,-0.40922 0.4692,-0.47978 0.5715,-0.37041 1.143,-0.40569 1.47814,-0.43744 0.46919,-0.0353 0.60325,-0.067 0.60325,-0.13406 v -0.004 c 0,-0.0247 -0.0212,-0.0529 -0.0882,-0.0811 -0.11289,-0.0459 -0.35278,-0.0847 -0.8502,-0.0847 -1.88383,0.0353 -2.55411,-0.0988 -2.9598,-0.20108 -0.067,-0.0176 -0.11995,-0.007 -0.1517,0.0247 v 0 c -0.0317,0.0282 -0.0494,0.0776 -0.0494,0.14464 0,0.40217 -0.067,0.77258 -0.20108,1.41111 -0.20108,0.83961 -0.33514,1.81328 -0.33514,3.12561 0,0.13406 0,0.26811 0.007,0.40217 0.14817,4.03578 2.56117,6.55461 6.04308,6.55461 1.51342,0 2.91042,-0.38805 4.5332,-1.68628 v 0 l 0.0635,-0.0494 c 0.0706,-0.06 0.14111,-0.11641 0.21167,-0.17991 0.067,-0.0529 0.13405,-0.11289 0.20108,-0.17286 0.11289,-0.0988 0.22578,-0.20461 0.34219,-0.31398 0.067,-0.06 0.13053,-0.12347 0.19756,-0.18697 0.0741,-0.0741 0.14817,-0.14816 0.22225,-0.22578 0.0741,-0.0741 0.15169,-0.15169 0.22578,-0.2293 0.11289,-0.11995 0.22577,-0.24342 0.34219,-0.37042 0.0741,-0.0811 0.1517,-0.1658 0.22931,-0.254 0.0776,-0.0882 0.15522,-0.17639 0.23283,-0.26811 0.0811,-0.0917 0.16228,-0.1905 0.24342,-0.28928 0.06,-0.0705 0.11994,-0.13758 0.17991,-0.21166 l 1.24178,-1.50989 c 0.58914,-0.71261 1.11831,-1.29822 1.61572,-1.77447 l 0.0494,-0.0494 c 0.10936,-0.10231 0.21873,-0.20109 0.32456,-0.29634 l 0.0282,-0.0247 c 1.34408,-1.17475 2.50825,-1.55222 4.09928,-1.55222 2.15194,0 4.46969,1.47814 4.46969,4.70252 0,0.10231 0,0.20462 -0.004,0.30339 -0.007,0.13759 -0.0141,0.27517 -0.0282,0.41275 -0.004,0.06 -0.0141,0.11995 -0.0212,0.18345 -0.007,0.0741 -0.0141,0.14816 -0.0247,0.21872 -0.007,0.067 -0.0212,0.13053 -0.0318,0.19756 -0.0106,0.067 -0.0212,0.13405 -0.0317,0.20108 -0.0141,0.067 -0.0282,0.13053 -0.0423,0.19403 -0.0141,0.067 -0.0282,0.13405 -0.0423,0.19755 -0.0141,0.0635 -0.0317,0.127 -0.0494,0.18697 -0.0176,0.067 -0.0318,0.13053 -0.0529,0.19403 -0.0176,0.06 -0.0353,0.11995 -0.0565,0.17992 -0.0176,0.0635 -0.0388,0.127 -0.06,0.18697 -0.0176,0.06 -0.0423,0.11642 -0.0635,0.17286 -0.0212,0.06 -0.0423,0.11995 -0.067,0.17639 -0.0212,0.0565 -0.0459,0.11289 -0.0705,0.16581 -0.0247,0.0564 -0.0494,0.11289 -0.0776,0.16933 -0.0212,0.0529 -0.0494,0.10231 -0.0741,0.15522 -0.0282,0.0529 -0.0529,0.10584 -0.0847,0.15875 -0.0247,0.0494 -0.0529,0.0952 -0.0776,0.14111 -0.0317,0.0529 -0.0635,0.10231 -0.0952,0.1517 -0.0247,0.0423 -0.0529,0.0847 -0.0811,0.127 -0.0317,0.0494 -0.067,0.0917 -0.1023,0.13758 -0.0282,0.0388 -0.0564,0.0776 -0.0847,0.11289 -0.0353,0.0459 -0.0705,0.0847 -0.10937,0.127 -0.0282,0.0317 -0.0564,0.067 -0.0882,0.0988 -0.0388,0.0388 -0.0776,0.0741 -0.11288,0.10936 l -0.0917,0.0811 c -0.0423,0.0353 -0.0847,0.0635 -0.12348,0.0952 l -0.0917,0.067 c -0.0459,0.0282 -0.0917,0.0529 -0.13758,0.0776 l -0.0811,0.0423 c -0.0635,0.0317 -0.13053,0.0564 -0.19403,0.0741 l -0.0317,0.0106 c -0.65616,0.17991 -1.17828,0.20461 -1.52753,0.20461 -0.11288,0 -0.21166,0 -0.28575,0 v 0 c -0.27163,0 -0.37041,0 -0.37041,0.067 v 0 h -0.003 c 0,0.0988 0.16933,0.1658 0.53975,0.20108 0.53622,0.0317 1.41111,0.16933 3.63008,0.16933 v 0 0 c 0.18345,0 0.30692,-0.0106 0.40922,-0.0529 h -0.004 v -0.004 l 0.004,0.004 c 0.10231,-0.0459 0.17639,-0.13053 0.26459,-0.28575 0.7373,-1.54517 0.97366,-3.09034 0.97366,-4.67078 0,-0.14464 -0.004,-0.29281 -0.007,-0.43745 -0.06,-1.66511 -0.47625,-3.30905 -1.40405,-4.63902 -1.64747,-2.31775 -4.20158,-2.85398 -5.58095,-2.85398 -1.67569,0 -3.09386,0.39159 -4.68136,1.651"
         style="fill:#ffffff;fill-opacity:1;fill-rule:nonzero;stroke:none;stroke-width:0.0352778"
         id="path578" />
      <path
         d="m 146.98933,206.50961 c 0.0388,-0.0353 0.0811,-0.0706 0.11994,-0.10231 0.34573,-0.28927 0.71261,-0.56091 1.1042,-0.81139 0.0494,-0.0282 0.0952,-0.0564 0.14111,-0.0847 0.16581,-0.10231 0.33514,-0.20109 0.508,-0.29634 0.0388,-0.0247 0.0811,-0.0459 0.11994,-0.067 0.2152,-0.11642 0.43392,-0.22578 0.6597,-0.32809 1.76389,-0.80433 3.90172,-1.27705 6.39586,-1.27705 9.779,0 11.52878,6.25122 11.52878,9.27805 0,0.0388 -0.004,0.0811 -0.004,0.11995 -0.004,0.20461 -0.0106,0.40569 -0.0247,0.60325 -0.004,0.0564 -0.007,0.10936 -0.0141,0.1658 -0.0141,0.17639 -0.0317,0.35278 -0.0564,0.52564 -0.007,0.0494 -0.0106,0.0953 -0.0176,0.14111 -0.067,0.43745 -0.15875,0.86431 -0.2787,1.28059 -0.0141,0.0494 -0.0282,0.0953 -0.0423,0.14464 -0.0494,0.16227 -0.10583,0.32102 -0.16228,0.4833 -0.0176,0.0494 -0.0353,0.0988 -0.0529,0.14817 -0.0705,0.18697 -0.14816,0.37394 -0.2293,0.55386 l -0.0141,0.0317 c -0.0917,0.19756 -0.18697,0.39158 -0.29281,0.58208 -0.0176,0.0388 -0.0388,0.0741 -0.06,0.11289 -0.0847,0.14817 -0.17286,0.29634 -0.26458,0.4445 -0.0282,0.0459 -0.06,0.0952 -0.0882,0.14111 -0.0988,0.14817 -0.19756,0.29281 -0.30339,0.43745 l -0.0635,0.0917 c -0.13053,0.17286 -0.26811,0.34572 -0.40922,0.51153 l -0.0565,0.06 c -0.12347,0.14111 -0.25047,0.28222 -0.381,0.41628 -0.0423,0.0423 -0.0811,0.0811 -0.12347,0.12347 -0.11995,0.11994 -0.24342,0.23989 -0.37395,0.35631 -0.0353,0.0317 -0.0741,0.067 -0.11289,0.1023 -0.33161,0.29281 -0.68791,0.56797 -1.06186,0.8255 -0.0459,0.0317 -0.0952,0.06 -0.14111,0.0917 -0.14817,0.0988 -0.29986,0.19403 -0.45155,0.28575 -0.0529,0.0318 -0.10231,0.06 -0.1517,0.0917 -0.1905,0.10936 -0.381,0.21519 -0.57855,0.31397 -1.95439,0.99836 -4.33917,1.56633 -7.06262,1.56633 -7.35894,0 -11.05958,-4.19805 -11.05958,-9.81075 l 0.004,-0.0564 c 0,-0.1905 0.007,-0.381 0.0212,-0.56798 0.003,-0.06 0.007,-0.11994 0.0141,-0.17638 0.0106,-0.16228 0.0282,-0.32103 0.0494,-0.47978 0.007,-0.0459 0.0141,-0.0952 0.0212,-0.14111 0.0282,-0.20109 0.0635,-0.39864 0.10583,-0.5962 0.0106,-0.0423 0.0212,-0.0847 0.0317,-0.127 0.0353,-0.15875 0.0776,-0.3175 0.11995,-0.47272 0.0176,-0.0564 0.0317,-0.10936 0.0494,-0.16581 0.0529,-0.17639 0.11289,-0.35277 0.17639,-0.52916 l 0.0176,-0.0494 c 0.0741,-0.19403 0.15522,-0.381 0.23989,-0.56797 0.0212,-0.0459 0.0423,-0.0952 0.067,-0.14112 0.067,-0.14816 0.14111,-0.2928 0.21872,-0.43744 0.0247,-0.0459 0.0494,-0.0882 0.0741,-0.13406 0.0988,-0.17991 0.20814,-0.35983 0.32103,-0.53622 l 0.0353,-0.0494 c 0.10583,-0.15875 0.21519,-0.31397 0.32808,-0.46566 0.0353,-0.0423 0.067,-0.0882 0.10231,-0.13053 0.10936,-0.14464 0.22577,-0.28575 0.34572,-0.42333 l 0.0635,-0.0741 c 0.14464,-0.16228 0.2928,-0.32103 0.45155,-0.47272 l 0.0917,-0.0917 c 0.13053,-0.12347 0.26458,-0.24695 0.4057,-0.36689 z m 1.5628,-4.56847 c -0.0388,0.0247 -0.0776,0.0494 -0.11641,0.0741 -0.16228,0.0952 -0.32103,0.1905 -0.47625,0.29281 -0.06,0.0423 -0.11995,0.0811 -0.17992,0.11994 -0.20108,0.13758 -0.39864,0.27869 -0.58561,0.42686 l -0.0106,0.007 c -0.19403,0.15169 -0.37747,0.31044 -0.56092,0.47272 -0.0529,0.0459 -0.1023,0.0952 -0.15522,0.14464 -0.13406,0.127 -0.26811,0.254 -0.39511,0.38453 -0.0459,0.0494 -0.0952,0.0988 -0.14111,0.14816 -0.16581,0.17639 -0.32809,0.35631 -0.48331,0.54328 l -0.06,0.0811 c -0.13405,0.1658 -0.26458,0.33161 -0.38805,0.508 -0.0459,0.06 -0.0882,0.11994 -0.13053,0.17992 -0.10583,0.15522 -0.21167,0.31397 -0.31045,0.47625 -0.0353,0.0529 -0.067,0.1023 -0.1023,0.15522 -0.127,0.21166 -0.24695,0.42686 -0.36336,0.64911 -0.0247,0.0423 -0.0459,0.0917 -0.067,0.13758 -0.0952,0.17992 -0.18345,0.36336 -0.26459,0.55034 -0.0317,0.067 -0.0635,0.13758 -0.0952,0.20813 -0.0776,0.18698 -0.15522,0.381 -0.2293,0.5715 -0.0176,0.0529 -0.0388,0.0988 -0.0564,0.14817 -0.0882,0.24342 -0.16581,0.48683 -0.24342,0.73378 -0.0176,0.0635 -0.0318,0.12347 -0.0494,0.18697 -0.0564,0.19403 -0.10936,0.39158 -0.15875,0.59267 -0.0176,0.0776 -0.0353,0.15522 -0.0529,0.2293 -0.0494,0.22931 -0.0952,0.45861 -0.13758,0.69498 -0.007,0.0317 -0.0141,0.067 -0.0176,0.0988 -0.0459,0.26812 -0.0847,0.53975 -0.11642,0.81139 -0.007,0.0741 -0.0141,0.14817 -0.0212,0.22225 -0.0212,0.21167 -0.0388,0.42334 -0.0529,0.63853 -0.004,0.0811 -0.0106,0.15875 -0.0141,0.23989 -0.0141,0.28222 -0.0212,0.56797 -0.0212,0.85725 0,0.29281 0.007,0.58208 0.0212,0.86783 v 0.007 0 c 0.4692,8.65011 7.84931,12.36839 13.11981,12.36839 3.3408,0 7.02028,-1.17475 9.64847,-3.77472 v 0.004 l 0.0741,-0.0776 c 0.06,-0.06 0.11642,-0.11994 0.17286,-0.17991 0.0811,-0.0847 0.16228,-0.17287 0.23989,-0.26106 0.0564,-0.0635 0.11289,-0.127 0.16581,-0.1905 0.0776,-0.0882 0.15522,-0.17992 0.2293,-0.27517 0.0529,-0.067 0.10584,-0.13052 0.15523,-0.19755 0.0741,-0.0988 0.14816,-0.19756 0.21872,-0.29986 0.0494,-0.067 0.0952,-0.13406 0.14464,-0.20109 0.0741,-0.10936 0.14464,-0.22225 0.21872,-0.33514 0.0388,-0.0635 0.0776,-0.12347 0.11642,-0.18697 0.0847,-0.14111 0.16933,-0.28575 0.24694,-0.43039 0.0212,-0.0388 0.0459,-0.0776 0.067,-0.11994 0.1023,-0.18697 0.19755,-0.381 0.28928,-0.57856 0.0212,-0.0423 0.0388,-0.0882 0.0564,-0.13052 0.0706,-0.15523 0.13758,-0.31398 0.20461,-0.47273 0.0282,-0.0706 0.0529,-0.14464 0.0811,-0.21519 0.0494,-0.13758 0.1023,-0.27517 0.14817,-0.41628 0.0282,-0.0847 0.0529,-0.16933 0.0811,-0.25047 0.0423,-0.13758 0.0847,-0.27164 0.12347,-0.41275 0.0247,-0.0882 0.0459,-0.17639 0.0705,-0.26811 0.0353,-0.13759 0.0706,-0.2787 0.0988,-0.41981 0.0212,-0.0917 0.0423,-0.18697 0.06,-0.28222 0.0318,-0.14464 0.0564,-0.29281 0.0811,-0.44097 0.0176,-0.0953 0.0318,-0.1905 0.0459,-0.28575 0.0247,-0.15522 0.0423,-0.3175 0.0635,-0.47978 0.007,-0.0882 0.0212,-0.17992 0.0282,-0.27164 0.0176,-0.18344 0.0317,-0.37042 0.0423,-0.55739 0.004,-0.0741 0.0106,-0.14464 0.0141,-0.22225 0.0141,-0.26458 0.0212,-0.53622 0.0212,-0.81139 0,-0.75847 -0.0564,-1.49225 -0.15875,-2.20133 l -0.0141,-0.0776 c -0.0317,-0.20461 -0.067,-0.41275 -0.10584,-0.61384 v 0 c -1.29116,-6.44877 -6.87916,-10.5163 -13.46905,-10.5163 -2.51531,0 -4.71664,0.58561 -6.54403,1.6263 v -0.004"
         style="fill:#ffffff;fill-opacity:1;fill-rule:nonzero;stroke:none;stroke-width:0.0352778"
         id="path580" />
      <path
         d="m 144.45991,182.69005 0.004,-0.0176 c 0.4445,-2.31422 1.41111,-4.49086 3.44311,-6.42055 0.0988,-0.0952 0.20461,-0.19403 0.3175,-0.29281 l 0.0776,-0.0635 c 0.0882,-0.0776 0.17992,-0.15522 0.27517,-0.23283 0.0388,-0.0282 0.0776,-0.06 0.11642,-0.0917 0.0882,-0.0706 0.17991,-0.13759 0.27516,-0.20814 0.0459,-0.0353 0.0917,-0.067 0.14111,-0.10231 0.0952,-0.067 0.19403,-0.13758 0.29634,-0.20461 0.0494,-0.0353 0.0988,-0.067 0.14816,-0.0988 0.11289,-0.0741 0.22578,-0.14464 0.34573,-0.21519 0.0459,-0.0282 0.0882,-0.0529 0.13405,-0.0811 0.16228,-0.0917 0.32808,-0.18345 0.50095,-0.27517 l 0.0176,-0.007 c 0.18344,-0.0952 0.37394,-0.18698 0.5715,-0.27517 0.0353,-0.0176 0.0776,-0.0317 0.11288,-0.0494 0.15875,-0.067 0.3175,-0.13405 0.48331,-0.19755 1.28764,-0.49389 2.83281,-0.83256 4.65314,-0.83256 3.09386,0 6.32178,0.94192 8.03275,2.68817 1.24178,1.24178 2.15194,2.83633 2.65994,4.62139 v 0 c 0.0705,0.23989 0.13053,0.48683 0.18345,0.73377 0.0106,0.0529 0.0212,0.10937 0.0318,0.16228 0.1023,0.49742 0.17286,1.00542 0.21167,1.524 0.007,0.06 0.0106,0.11642 0.0141,0.17639 0.0141,0.25753 0.0247,0.51858 0.0247,0.78317 0,2.10255 -0.17639,3.42194 -0.43039,4.26861 -0.25753,0.85019 -0.59267,1.22767 -0.9137,1.44639 l -0.0811,0.0423 -0.06,0.0247 -0.0882,0.0317 -0.0705,0.0212 c -0.0353,0.0106 -0.0741,0.0176 -0.11289,0.0282 l -0.0776,0.0176 c -0.0459,0.0106 -0.0952,0.0176 -0.14464,0.0282 l -0.0741,0.0106 c -0.06,0.0106 -0.12348,0.0212 -0.18698,0.0282 l -0.0494,0.007 c -0.254,0.0353 -0.52917,0.0635 -0.8008,0.0811 v 0 0 c -0.28928,0.0247 -0.56798,0.0388 -0.80787,0.0494 -0.63852,0.0317 -3.72886,0.067 -7.29191,0.067 h -4.16984 c -1.82386,0 -4.06752,-0.0176 -5.67972,-0.0282 -0.6738,-0.004 -1.23472,-0.007 -1.61219,-0.007 -0.0494,0 -0.0882,0 -0.127,-0.004 l -0.0212,-0.004 c -0.0388,-0.004 -0.0705,-0.0106 -0.0988,-0.0176 -0.10936,-0.0388 -0.17639,-0.13053 -0.27517,-0.34572 l -0.0141,0.0106 v 0 l 0.0141,-0.0106 -0.0141,-0.0317 c -0.13405,-0.27164 -0.23636,-1.51342 -0.23636,-2.18722 0,-1.55223 0.0706,-3.07623 0.35278,-4.55084 z m 2.33539,-9.42975 c -0.22578,0.21872 -0.43391,0.4445 -0.635,0.67381 l -0.0564,0.0635 c -0.18697,0.21872 -0.36336,0.4445 -0.52917,0.6738 -0.0247,0.0353 -0.0494,0.067 -0.0705,0.0988 -0.15875,0.22578 -0.31044,0.45508 -0.44802,0.68792 -0.0247,0.0353 -0.0459,0.0741 -0.0706,0.11289 -0.13406,0.23283 -0.26106,0.46919 -0.381,0.70555 -0.0176,0.0388 -0.0388,0.0776 -0.0564,0.11289 -0.11642,0.24342 -0.22578,0.48683 -0.32809,0.73378 l -0.0388,0.0952 c -0.1023,0.254 -0.19755,0.51153 -0.28222,0.77258 l -0.0141,0.0459 c -0.17992,0.54681 -0.32456,1.09714 -0.44097,1.64748 l -0.0106,0.0282 h 0.004 c -0.55739,2.6423 -0.47273,5.24228 -0.47273,7.02733 0,0.34572 0.004,0.69497 0.007,1.0407 v 0 l 0.004,0.0917 v 0 c 0.0212,1.40758 0.0741,2.69169 0.0882,3.22086 v 0.0141 c 0,0.0317 0,0.0635 0,0.0882 v 0.0212 l 0.004,0.06 c 0,0.43745 -0.1023,1.67923 -0.1023,3.79589 0,0.38453 0.06,0.52564 0.12347,0.53623 l 0.0106,0.004 c 0.067,0 0.10231,-0.13405 0.10231,-0.43744 0,-0.43745 0.0317,-0.70556 0.067,-0.94192 0.0176,-0.127 0.0494,-0.24341 0.0882,-0.34925 0.0106,-0.0353 0.0247,-0.0635 0.0388,-0.0953 0.0317,-0.0705 0.0635,-0.13758 0.1023,-0.20108 0.0176,-0.0317 0.0388,-0.06 0.06,-0.0917 0.0423,-0.0529 0.0847,-0.10231 0.13053,-0.1517 l 0.0776,-0.0741 c 0.0529,-0.0459 0.11289,-0.0882 0.17639,-0.13053 l 0.067,-0.0423 c 0.0882,-0.0494 0.18344,-0.0952 0.28222,-0.13053 l 0.0847,-0.0282 c 0.0776,-0.0247 0.15522,-0.0494 0.23636,-0.067 0.0423,-0.0106 0.0882,-0.0212 0.13053,-0.0282 0.0635,-0.0141 0.127,-0.0247 0.1905,-0.0317 0.16581,-0.0247 0.33867,-0.0459 0.51858,-0.0565 1.07598,-0.067 2.01789,-0.067 7.26017,-0.067 h 5.91609 c 3.22438,0 5.8808,0 7.29191,0.16934 l 0.0741,0.0106 c 0.9525,0.13053 1.94734,0.30692 2.07786,0.96309 0.067,0.30338 0.067,0.70555 0.067,1.00894 0,0.23283 0.067,0.26811 0.10231,0.26811 l 0.0318,-0.0106 c 0.0423,-0.0317 0.1023,-0.14464 0.1023,-0.52564 0,-1.00895 -0.1023,-3.12914 -0.1023,-3.29495 0,-0.16933 0.1023,-1.31233 0.20108,-2.79047 0.0247,-0.3563 0.0494,-0.73378 0.0741,-1.1183 0.003,-0.0459 0.003,-0.0882 0.007,-0.13053 0.0106,-0.14817 0.0176,-0.29986 0.0247,-0.45156 0.003,-0.0635 0.007,-0.127 0.0106,-0.19403 0.007,-0.13052 0.0141,-0.25752 0.0212,-0.38805 0.004,-0.0776 0.007,-0.15522 0.0106,-0.23283 0.004,-0.11995 0.0106,-0.23989 0.0141,-0.35631 0.004,-0.0811 0.007,-0.16228 0.007,-0.24342 0.007,-0.11289 0.0106,-0.22577 0.0141,-0.33514 0,-0.0847 0.004,-0.16933 0.004,-0.254 0.004,-0.10583 0.007,-0.21166 0.0106,-0.3175 0,-0.0847 0,-0.1658 0,-0.24694 0.004,-0.0635 0.004,-0.13053 0.004,-0.19403 v 0 c 0,-0.0706 0,-0.14111 0,-0.20814 0,-5.715 -2.3495,-8.7383 -3.86291,-10.18469 -1.86973,-1.77447 -4.87539,-3.429 -8.76301,-3.61245 v 0 c -0.23636,-0.0106 -0.47625,-0.0176 -0.71613,-0.0176 v 0 c -4.0005,0 -6.78745,1.58045 -8.53723,3.25967"
         style="fill:#ffffff;fill-opacity:1;fill-rule:nonzero;stroke:none;stroke-width:0.0352778"
         id="path582" />
      <path
         d="m 157.21989,153.33541 c 0.0212,0.004 0.0282,0.0282 0.0282,0.0953 v 6.62164 l -0.0141,0.0459 c -0.0176,0.0176 -0.0529,0.0106 -0.11994,-0.0106 l -9.17575,-2.99156 c -0.34925,-0.11641 -0.53269,-0.17639 -0.53975,-0.23989 l 0.0247,-0.0423 0.0176,-0.0141 c 0.0212,-0.0141 0.0459,-0.0282 0.0776,-0.0459 l 0.0106,-0.004 c 0.0423,-0.0212 0.0988,-0.0423 0.16228,-0.067 l 0.0176,-0.007 c 0.0635,-0.0247 0.14111,-0.0529 0.2293,-0.0847 l 9.17575,-3.22792 c 0.0494,-0.0176 0.0847,-0.0317 0.10584,-0.0282 l 0.0106,-0.0141 v 0 l -0.0106,0.0141 m 11.01725,-10.18822 c -0.067,0 -0.0988,0.0988 -0.0988,0.37042 0,0.33513 0,0.97366 -0.16933,1.47813 -0.0388,0.10937 -0.0776,0.21167 -0.11642,0.30692 l -0.0318,0.0741 c -0.0388,0.0847 -0.0776,0.16581 -0.11995,0.24342 l -0.0141,0.0247 c -0.0459,0.0811 -0.0988,0.15522 -0.15169,0.22577 l -0.0423,0.0564 c -0.0494,0.06 -0.10231,0.11641 -0.16228,0.16933 l -0.0318,0.0317 c -0.067,0.0635 -0.14464,0.12347 -0.22578,0.18345 l -0.0635,0.0423 c -0.0705,0.0494 -0.14816,0.0988 -0.23283,0.14464 l -0.06,0.0388 c -0.10231,0.0564 -0.2152,0.11289 -0.33867,0.17286 l -0.0882,0.0423 c -0.10583,0.0494 -0.22225,0.1023 -0.34219,0.15522 -0.0388,0.0141 -0.0741,0.0317 -0.11289,0.0494 -0.0706,0.0282 -0.14464,0.06 -0.22225,0.0917 -0.0529,0.0247 -0.10936,0.0459 -0.16581,0.0706 -0.0882,0.0353 -0.17991,0.0741 -0.27164,0.10936 -0.0565,0.0247 -0.11288,0.0494 -0.17286,0.0706 -0.0988,0.0423 -0.20461,0.0847 -0.31044,0.127 -0.22225,0.0917 -0.45861,0.18698 -0.71967,0.28928 -5.11175,2.05317 -18.99003,7.3272 -20.10128,7.76464 -1.24177,0.50447 -1.44639,0.67381 -1.44639,0.80786 l 0.004,0.0106 h 0.0212 v 0.004 l -0.0212,-0.004 c 0.0141,0.13406 0.26811,0.33867 1.47814,0.762 l 0.77259,0.28223 19.99897,7.31308 0.0176,0.007 c 0.24694,0.0917 0.48331,0.17991 0.70203,0.27164 l 0.0176,0.007 c 0.22577,0.0882 0.43391,0.17992 0.62794,0.27164 1.23472,0.58208 1.90147,1.2065 2.02847,2.20133 0.067,0.50095 0.067,0.73731 0.067,1.00542 0,0.22931 0.0317,0.33161 0.0952,0.33867 v -0.0212 0.0212 h 0.004 c 0.0353,0 0.13759,-0.10231 0.13759,-0.5715 0,-0.91017 -0.10231,-3.56306 -0.10231,-3.86645 0,-0.37041 0.10231,-1.37936 0.10231,-2.62114 0,-0.40216 -0.10231,-0.50447 -0.13759,-0.50447 v 0 l -0.0423,0.0247 c -0.0388,0.0459 -0.0565,0.15875 -0.0565,0.31044 0,0.20108 0,0.5715 -0.1023,1.00894 -0.0141,0.067 -0.0353,0.127 -0.0635,0.18345 l -0.0212,0.0459 c -0.0212,0.0388 -0.0423,0.0741 -0.0635,0.10936 l -0.0353,0.0423 -0.0811,0.0847 -0.0388,0.0317 c -0.0388,0.0282 -0.0776,0.0529 -0.12347,0.0776 l -0.0212,0.0106 c -0.0529,0.0247 -0.11289,0.0459 -0.17639,0.06 l -0.0388,0.007 c -0.0529,0.0106 -0.10584,0.0176 -0.16228,0.0247 l -0.067,0.004 c -0.0529,0.004 -0.10936,0.004 -0.16581,0 l -0.0776,-0.004 c -0.0635,-0.004 -0.13405,-0.0106 -0.20461,-0.0176 l -0.0564,-0.007 c -0.11289,-0.0141 -0.23636,-0.0353 -0.36689,-0.0635 l -0.0741,-0.0176 c -0.127,-0.0247 -0.25752,-0.0564 -0.39511,-0.0952 l -0.0318,-0.007 c -0.14464,-0.0388 -0.29986,-0.0847 -0.46214,-0.13406 -0.0388,-0.0106 -0.0776,-0.0247 -0.11994,-0.0353 -0.16228,-0.0494 -0.32808,-0.10231 -0.50447,-0.16228 l -0.007,-0.004 -6.05014,-2.04964 c -0.10231,-0.0388 -0.14111,-0.0564 -0.15875,-0.0776 v 0 l -0.0106,-0.0564 v 0 -7.52828 -0.0106 c 0,-0.0423 0,-0.067 0.0106,-0.0811 v 0 c 0.0141,-0.0176 0.0388,-0.0247 0.0917,-0.0423 l 8.36789,-3.16089 c 0.67028,-0.23636 0.87489,0.0353 0.97367,0.20109 0.0635,0.13052 0.0988,0.22577 0.15875,0.23636 v -0.0212 0.0212 h 0.0106 c 0.067,0 0.20108,-0.10231 0.23636,-1.00895 0.0988,-2.31775 0.067,-4.70605 0.067,-5.44336 0,-0.39864 -0.0847,-0.49036 -0.127,-0.50447 v 0 h -0.0106"
         style="fill:#ffffff;fill-opacity:1;fill-rule:nonzero;stroke:none;stroke-width:0.0352778"
         id="path584" />
      <path
         d="m 168.37825,145.22152 c 0,1.06892 -0.0106,2.48356 -0.0705,3.8735 -0.0353,0.90664 -0.16934,1.00895 -0.23636,1.00895 h -0.0106 v -0.0212 0.0212 c -0.06,-0.0106 -0.0952,-0.10584 -0.15874,-0.23636 -0.0988,-0.16581 -0.30339,-0.43745 -0.97367,-0.20109 l -8.36789,3.16089 c -0.0529,0.0176 -0.0776,0.0247 -0.0917,0.0423 v 0 c -0.0106,0.0141 -0.0106,0.0388 -0.0106,0.0811 v 0.0106 7.52828 0 l 0.0106,0.0564 v 0 c 0.0176,0.0212 0.0564,0.0388 0.15875,0.0776 l 6.05014,2.04964 0.007,0.004 c 0.17639,0.06 0.34219,0.11289 0.50447,0.16228 0.0423,0.0106 0.0811,0.0247 0.11994,0.0353 0.16228,0.0494 0.3175,0.0952 0.46214,0.13406 l 0.0317,0.007 c 0.13759,0.0388 0.26811,0.0706 0.39511,0.0952 l 0.0741,0.0176 c 0.13053,0.0282 0.254,0.0494 0.36689,0.0635 l 0.0564,0.007 c 0.0706,0.007 0.14111,0.0141 0.20461,0.0176 l 0.0776,0.004 c 0.0564,0.004 0.11289,0.004 0.16581,0 l 0.067,-0.004 c 0.0564,-0.007 0.10936,-0.0141 0.16228,-0.0247 l 0.0388,-0.007 c 0.0635,-0.0141 0.12347,-0.0353 0.17639,-0.06 l 0.0212,-0.0106 c 0.0459,-0.0247 0.0847,-0.0494 0.12347,-0.0776 l 0.0388,-0.0317 0.0811,-0.0847 0.0353,-0.0423 c 0.0212,-0.0353 0.0423,-0.0705 0.0635,-0.10936 l 0.0212,-0.0459 c 0.0282,-0.0564 0.0494,-0.11642 0.0635,-0.18345 0.1023,-0.43744 0.1023,-0.80786 0.1023,-1.00894 0,-0.15169 0.0176,-0.26458 0.0564,-0.31044 l 0.0423,-0.0247 v 0 c 0.0353,0 0.13759,0.10231 0.13759,0.50447 0,1.24178 -0.10231,2.25073 -0.10231,2.62114 0,0.30339 0.10231,2.95628 0.10231,3.86645 0,0.46919 -0.10231,0.5715 -0.13759,0.5715 h -0.004 v -0.0212 0.0212 c -0.0635,-0.007 -0.0952,-0.10936 -0.0952,-0.33867 0,-0.26811 0,-0.50447 -0.067,-1.00542 -0.127,-0.99483 -0.79375,-1.61925 -2.02847,-2.20133 -0.19403,-0.0917 -0.40217,-0.18344 -0.62794,-0.27164 l -0.0176,-0.007 c -0.21872,-0.0917 -0.45509,-0.17992 -0.70203,-0.27164 l -0.0176,-0.007 -19.99897,-7.31308 -0.77259,-0.28223 c -1.21003,-0.42333 -1.46403,-0.62794 -1.47814,-0.762 l 0.0212,0.004 v -0.004 h -0.0212 l -0.004,-0.0106 c 0,-0.13405 0.20462,-0.30339 1.44639,-0.80786 1.11125,-0.43744 14.98953,-5.71147 20.10128,-7.76464 0.26106,-0.1023 0.49742,-0.19755 0.71967,-0.28928 0.10583,-0.0423 0.21167,-0.0847 0.31044,-0.127 0.06,-0.0212 0.11642,-0.0459 0.17286,-0.0706 0.0917,-0.0353 0.18345,-0.0741 0.27164,-0.10936 0.0564,-0.0247 0.11289,-0.0459 0.16581,-0.0706 0.0776,-0.0317 0.15169,-0.0635 0.22225,-0.0917 0.0388,-0.0176 0.0741,-0.0353 0.11289,-0.0494 0.11994,-0.0529 0.23636,-0.10583 0.34219,-0.15522 l 0.0882,-0.0423 c 0.12347,-0.06 0.23636,-0.11641 0.33867,-0.17286 l 0.06,-0.0388 c 0.0847,-0.0459 0.16228,-0.0952 0.23283,-0.14464 l 0.0635,-0.0423 c 0.0811,-0.06 0.15875,-0.11995 0.22578,-0.18345 l 0.0317,-0.0317 c 0.06,-0.0529 0.11289,-0.10936 0.16228,-0.16933 l 0.0423,-0.0564 c 0.0529,-0.0706 0.10583,-0.14464 0.15169,-0.22577 l 0.0141,-0.0247 c 0.0423,-0.0776 0.0811,-0.15875 0.11995,-0.24342 l 0.0318,-0.0741 c 0.0388,-0.0952 0.0776,-0.19755 0.11641,-0.30692 0.16934,-0.50447 0.16934,-1.143 0.16934,-1.47813 0,-0.27164 0.0318,-0.37042 0.0988,-0.37042 h 0.0106 v 0 c 0.0423,0.0141 0.127,0.10583 0.127,0.50447 0,0.29633 0.004,0.85725 0.004,1.56986 m -20.97977,11.63427 c 0.007,0.0635 0.1905,0.12348 0.53975,0.23989 l 9.17575,2.99156 c 0.067,0.0212 0.10231,0.0282 0.11995,0.0106 l 0.0141,-0.0459 v -6.62164 c 0,-0.067 -0.007,-0.0917 -0.0282,-0.0953 v 0 c -0.0212,-0.004 -0.0564,0.0106 -0.10584,0.0282 l -9.17575,3.22792 c -0.0882,0.0317 -0.1658,0.06 -0.2293,0.0847 l -0.0176,0.007 c -0.0635,0.0247 -0.11995,0.0459 -0.16228,0.067 l -0.0106,0.004 c -0.0317,0.0176 -0.0564,0.0317 -0.0776,0.0459 l -0.0176,0.0141 -0.0247,0.0423 m 9.82133,-3.52072 0.0106,-0.0141 v 0 l -0.0106,0.0141"
         style="fill:#ffffff;fill-opacity:1;fill-rule:nonzero;stroke:none;stroke-width:0.0352778"
         id="path638" />
      <path
         d="m 168.84391,239.74128 c 0,1.58044 -0.23636,3.12561 -0.97366,4.67078 -0.0882,0.15522 -0.16228,0.23988 -0.26459,0.28575 l -0.004,-0.004 v 0.004 h 0.004 c -0.1023,0.0423 -0.22577,0.0529 -0.40922,0.0529 v 0 0 c -2.21897,0 -3.09386,-0.13758 -3.63008,-0.16933 -0.37042,-0.0353 -0.53975,-0.10231 -0.53975,-0.20108 h 0.004 v 0 c 0,-0.067 0.0988,-0.067 0.37041,-0.067 v 0 c 0.0741,0 0.17287,0 0.28575,0 0.34925,0 0.87137,-0.0247 1.52753,-0.20461 l 0.0317,-0.0106 c 0.0635,-0.0176 0.13053,-0.0423 0.19403,-0.0741 l 0.0811,-0.0423 c 0.0459,-0.0247 0.0917,-0.0494 0.13758,-0.0776 l 0.0917,-0.067 c 0.0388,-0.0317 0.0811,-0.06 0.12348,-0.0952 l 0.0917,-0.0811 c 0.0353,-0.0353 0.0741,-0.0706 0.11289,-0.10936 0.0318,-0.0317 0.06,-0.067 0.0882,-0.0988 0.0388,-0.0423 0.0741,-0.0811 0.10936,-0.127 0.0282,-0.0353 0.0565,-0.0741 0.0847,-0.11289 0.0353,-0.0459 0.0706,-0.0882 0.1023,-0.13758 0.0282,-0.0423 0.0564,-0.0847 0.0811,-0.127 0.0317,-0.0494 0.0635,-0.0988 0.0952,-0.1517 0.0247,-0.0459 0.0529,-0.0917 0.0776,-0.14111 0.0318,-0.0529 0.0564,-0.10583 0.0847,-0.15875 0.0247,-0.0529 0.0529,-0.1023 0.0741,-0.15522 0.0282,-0.0564 0.0529,-0.11289 0.0776,-0.16933 0.0247,-0.0529 0.0494,-0.10936 0.0705,-0.16581 0.0247,-0.0564 0.0459,-0.11642 0.067,-0.17639 0.0212,-0.0564 0.0459,-0.11289 0.0635,-0.17286 0.0212,-0.06 0.0423,-0.12347 0.06,-0.18697 0.0212,-0.06 0.0388,-0.11995 0.0565,-0.17992 0.0212,-0.0635 0.0353,-0.127 0.0529,-0.19403 0.0176,-0.06 0.0353,-0.12347 0.0494,-0.18697 0.0141,-0.0635 0.0282,-0.13053 0.0423,-0.19755 0.0141,-0.0635 0.0282,-0.127 0.0423,-0.19403 0.0106,-0.067 0.0212,-0.13406 0.0317,-0.20108 0.0106,-0.067 0.0247,-0.13053 0.0318,-0.19756 0.0106,-0.0706 0.0176,-0.14464 0.0247,-0.21872 0.007,-0.0635 0.0176,-0.12347 0.0212,-0.18345 0.0141,-0.13758 0.0212,-0.27516 0.0282,-0.41275 0.004,-0.0988 0.004,-0.20108 0.004,-0.30339 0,-3.22438 -2.31775,-4.70252 -4.46969,-4.70252 -1.59103,0 -2.7552,0.37747 -4.09928,1.55222 l -0.0282,0.0247 c -0.10583,0.0952 -0.2152,0.19403 -0.32456,0.29634 l -0.0494,0.0494 c -0.49741,0.47625 -1.02658,1.06186 -1.61572,1.77447 l -1.24178,1.50989 c -0.06,0.0741 -0.11994,0.14111 -0.17991,0.21166 -0.0811,0.0988 -0.16228,0.19756 -0.24342,0.28928 -0.0776,0.0917 -0.15522,0.17992 -0.23283,0.26811 -0.0776,0.0882 -0.15523,0.17286 -0.22931,0.254 -0.11642,0.127 -0.2293,0.25047 -0.34219,0.37042 -0.0741,0.0776 -0.1517,0.15522 -0.22578,0.2293 -0.0741,0.0776 -0.14817,0.1517 -0.22225,0.22578 -0.067,0.0635 -0.13053,0.127 -0.19756,0.18697 -0.11641,0.10937 -0.2293,0.2152 -0.34219,0.31398 -0.067,0.06 -0.13406,0.11994 -0.20108,0.17286 -0.0706,0.0635 -0.14112,0.11994 -0.21167,0.17991 l -0.0635,0.0494 v 0 c -1.62278,1.29823 -3.01978,1.68628 -4.5332,1.68628 -3.48191,0 -5.89491,-2.51883 -6.04308,-6.55461 -0.007,-0.13406 -0.007,-0.26811 -0.007,-0.40217 0,-1.31233 0.13406,-2.286 0.33514,-3.12561 0.13405,-0.63853 0.20108,-1.00894 0.20108,-1.41111 0,-0.067 0.0176,-0.11642 0.0494,-0.14464 v 0 c 0.0318,-0.0317 0.0847,-0.0423 0.1517,-0.0247 0.40569,0.1023 1.07597,0.23636 2.9598,0.20108 0.49742,0 0.73731,0.0388 0.8502,0.0847 0.067,0.0282 0.0882,0.0564 0.0882,0.0811 v 0.004 c 0,0.067 -0.13406,0.0988 -0.60325,0.13406 -0.33514,0.0317 -0.90664,0.067 -1.47814,0.43744 -0.11289,0.0706 -0.28575,0.21873 -0.4692,0.47978 v 0.004 c -0.40569,0.5715 -0.87488,1.68275 -0.90663,3.683 -0.004,0.0776 -0.004,0.15522 -0.004,0.23636 0,2.31775 1.44639,4.03225 3.8982,4.03225 1.40758,0 2.47297,-0.38453 3.937,-1.86619 0.0847,-0.0847 0.16933,-0.17286 0.254,-0.26459 0.0529,-0.0564 0.10231,-0.10583 0.15169,-0.16227 0.0917,-0.10231 0.18698,-0.20814 0.28223,-0.3175 0.0494,-0.0565 0.0988,-0.10937 0.14816,-0.16934 0.10584,-0.12347 0.2152,-0.254 0.32456,-0.38805 0.0459,-0.0529 0.0882,-0.10231 0.13406,-0.15875 0.15522,-0.1905 0.3175,-0.39159 0.4833,-0.60678 l 0.73731,-0.93839 0.0247,-0.0282 c 0.1658,-0.21167 0.32808,-0.41275 0.49036,-0.60678 0.0529,-0.0635 0.10583,-0.127 0.15875,-0.1905 0.11994,-0.14111 0.23636,-0.28222 0.3563,-0.41628 0.0494,-0.0564 0.10231,-0.11641 0.1517,-0.17286 0.15169,-0.17286 0.30339,-0.33867 0.45155,-0.49389 l 0.0247,-0.0282 c 0.15523,-0.16228 0.30692,-0.31397 0.45509,-0.46214 0.0494,-0.0459 0.0953,-0.0917 0.14111,-0.13758 0.10936,-0.10231 0.21519,-0.19756 0.3175,-0.29281 0.0494,-0.0459 0.0988,-0.0882 0.14464,-0.13053 0.13053,-0.11288 0.25753,-0.22225 0.38453,-0.32102 l 0.0494,-0.0423 v 0 c 1.5875,-1.25941 3.00566,-1.651 4.68136,-1.651 1.37936,0 3.93347,0.53623 5.58094,2.85398 0.92781,1.32997 1.34409,2.97391 1.40406,4.63902 0.004,0.14464 0.007,0.29281 0.007,0.43745"
         style="fill:#ffffff;fill-opacity:1;fill-rule:nonzero;stroke:none;stroke-width:0.0352778"
         id="path662" />
      <path
         d="M 97.33834,188.87849 H 84.11976 c -0.42334,-1.85914 -0.57856,-3.88055 -0.63148,-5.73264 -0.0529,-1.91558 -0.10936,-3.83469 -0.1658,-5.75028 h 14.62264 c 0.0212,0.54681 0.0388,1.09362 0.06,1.64042 0.11994,3.30906 0.23989,6.74864 -0.66675,9.8425"
         style="fill:#b3e9bd;fill-opacity:1;fill-rule:nonzero;stroke:none;stroke-width:0.0352778"
         id="path664" />
      <path
         d="m 90.18401,195.44369 c -0.64559,0 -1.2947,-0.12348 -1.92617,-0.39864 -0.52211,-0.22931 -0.99131,-0.52917 -1.40758,-0.889 h 6.96383 c -1.1042,0.80433 -2.36361,1.28764 -3.63008,1.28764"
         style="fill:#b3e9bd;fill-opacity:1;fill-rule:nonzero;stroke:none;stroke-width:0.0352778"
         id="path666" />
      <path
         d="M 97.78284,130.78657 H 81.97839 c -0.11289,-3.83117 -0.22225,-7.6588 -0.33161,-11.48644 h 16.53823 c -0.16228,3.82764 -0.29634,7.65175 -0.40217,11.48644"
         style="fill:#cffabf;fill-opacity:1;fill-rule:nonzero;stroke:none;stroke-width:0.0352778"
         id="path668" />
      <path
         d="M 98.43195,114.02257 H 81.49156 c -0.004,-0.20108 -0.0106,-0.39864 -0.0141,-0.59972 -0.0317,-1.00189 -0.06,-2.00731 -0.0741,-3.01625 H 98.6048 c -0.0247,0.72672 -0.0635,1.45344 -0.1023,2.17311 -0.0247,0.4833 -0.0494,0.95955 -0.0706,1.44286"
         style="fill:#cffabf;fill-opacity:1;fill-rule:nonzero;stroke:none;stroke-width:0.0352778"
         id="path670" />
      <path
         d="m 82.16184,105.13257 c -0.20109,0 -0.40217,-0.0106 -0.5962,-0.0282 0.10936,-1.25942 0.29281,-2.50825 0.5715,-3.73592 0.82903,-3.65125 3.25614,-5.53156 5.98312,-5.89492 0.45155,0.89959 0.70555,1.91559 0.70555,2.99156 0,3.683 -2.98097,6.6675 -6.66397,6.6675"
         style="fill:#cffabf;fill-opacity:1;fill-rule:nonzero;stroke:none;stroke-width:0.0352778"
         id="path672" />
      <path
         d="m 98.31201,104.25063 c -2.00378,-1.15006 -3.35139,-3.30906 -3.35139,-5.78556 0,-0.24342 0.0141,-0.48683 0.0388,-0.72319 1.05481,0.94897 1.94028,2.17663 2.52236,3.65477 0.36336,0.92428 0.61736,1.88031 0.79023,2.85398"
         style="fill:#cffabf;fill-opacity:1;fill-rule:nonzero;stroke:none;stroke-width:0.0352778"
         id="path674" />
      <path
         d="m 88.18023,87.38432 c -0.97367,0 -1.94734,-0.51506 -2.80459,-1.43228 2.0567,-1.13594 3.45017,-3.32669 3.45017,-5.842 0,-3.44664 -2.61408,-6.28297 -5.97253,-6.62869 0.48331,-2.7552 1.50636,-5.17173 2.8822,-6.38881 0.21872,-0.19403 0.47625,-0.34572 0.71261,-0.34572 0.19755,0 0.38453,0.10583 0.52211,0.38453 l 0.51858,-0.95956 c 0.16581,-0.0317 0.33161,-0.0459 0.49389,-0.0459 2.5647,0 5.03767,3.81705 5.50686,8.70303 0.50095,5.19641 -1.33702,10.83028 -3.98639,12.22022 -0.43391,0.22578 -0.87841,0.33514 -1.32291,0.33514"
         style="fill:#b3e9bd;fill-opacity:1;fill-rule:nonzero;stroke:none;stroke-width:0.0352778"
         id="path676" />
      <path
         d="m 85.37564,85.95204 c -1.143,-1.22767 -2.08138,-3.16794 -2.52941,-5.54214 -0.41981,-2.22955 -0.38453,-4.69194 0.007,-6.92855 3.35845,0.34572 5.97253,3.18205 5.97253,6.62869 0,2.51531 -1.39347,4.70606 -3.45017,5.842"
         style="fill:#cffabf;fill-opacity:1;fill-rule:nonzero;stroke:none;stroke-width:0.0352778"
         id="path678" />
    </g>
  </g>
</svg>
