<?xml version="1.0" encoding="UTF-8" standalone="no"?>
<!-- Created with Inkscape (http://www.inkscape.org/) -->

<svg
   width="121.62463mm"
   height="236.07727mm"
   viewBox="0 0 121.62464 236.07727"
   version="1.1"
   id="svg4558"
   sodipodi:docname="drink-lime.svg"
   inkscape:version="1.1.1 (3bf5ae0d25, 2021-09-20)"
   xmlns:inkscape="http://www.inkscape.org/namespaces/inkscape"
   xmlns:sodipodi="http://sodipodi.sourceforge.net/DTD/sodipodi-0.dtd"
   xmlns="http://www.w3.org/2000/svg"
   xmlns:svg="http://www.w3.org/2000/svg">
  <sodipodi:namedview
     id="namedview4560"
     pagecolor="#505050"
     bordercolor="#ffffff"
     borderopacity="1"
     inkscape:pageshadow="0"
     inkscape:pageopacity="0"
     inkscape:pagecheckerboard="1"
     inkscape:document-units="mm"
     showgrid="false"
     inkscape:zoom="0.72337262"
     inkscape:cx="143.07979"
     inkscape:cy="412.6504"
     inkscape:window-width="1920"
     inkscape:window-height="1001"
     inkscape:window-x="-9"
     inkscape:window-y="-9"
     inkscape:window-maximized="1"
     inkscape:current-layer="layer1" />
  <defs
     id="defs4555">
    <clipPath
       clipPathUnits="userSpaceOnUse"
       id="clipPath262">
      <path
         d="m 13714.5,18258.4 c 0,0.2 0,0.4 0,0.7 0,-0.3 0,-0.5 0,-0.7 m -3173.5,0 c 0,0.3 0,0.5 0,0.8 0,-0.3 0,-0.5 0,-0.8 m 0,1.1 c 0,0.1 0,0.2 0,0.3 0,-0.1 0,-0.2 0,-0.3 m 3048.1,134.8 c -0.1,0 -0.1,0 -0.1,0 0,0 0,0 0.1,0 m -0.7,0.1 c -0.1,0 -0.2,0 -0.2,0 0,0 0.1,0 0.2,0 m -0.8,0 c -0.1,0 -0.1,0 -0.2,0 0.1,0 0.1,0 0.2,0 m -1.4,0.1 h -0.1 0.1 m -0.5,0 c -0.1,0 -0.3,0 -0.4,0.1 0.1,-0.1 0.3,-0.1 0.4,-0.1 m -0.8,0.1 c -0.1,0 -0.3,0 -0.4,0 0.2,0 0.3,0 0.4,0 m -0.8,0 c -0.1,0 -0.3,0 -0.4,0 0.1,0 0.3,0 0.4,0 m -0.8,0 c -0.2,0 -0.3,0.1 -0.5,0.1 0.2,0 0.3,-0.1 0.5,-0.1 m -0.8,0.1 c -0.2,0 -0.5,0 -0.8,0 0.3,0 0.6,0 0.8,0 m -1,0 c -0.2,0 -0.4,0 -0.6,0 0.2,0 0.4,0 0.6,0 m -0.9,0 c -0.2,0 -0.3,0 -0.5,0 0.2,0 0.3,0 0.5,0 m -0.8,0 c -0.2,0 -0.4,0 -0.6,0 0.2,0 0.4,0 0.6,0 m -0.8,0 c -0.3,0 -0.6,0 -0.8,0 0.2,0 0.5,0 0.8,0"
         id="path260" />
    </clipPath>
    <clipPath
       clipPathUnits="userSpaceOnUse"
       id="clipPath262-0">
      <path
         d="m 13714.5,18258.4 c 0,0.2 0,0.4 0,0.7 0,-0.3 0,-0.5 0,-0.7 m -3173.5,0 c 0,0.3 0,0.5 0,0.8 0,-0.3 0,-0.5 0,-0.8 m 0,1.1 c 0,0.1 0,0.2 0,0.3 0,-0.1 0,-0.2 0,-0.3 m 3048.1,134.8 c -0.1,0 -0.1,0 -0.1,0 0,0 0,0 0.1,0 m -0.7,0.1 c -0.1,0 -0.2,0 -0.2,0 0,0 0.1,0 0.2,0 m -0.8,0 c -0.1,0 -0.1,0 -0.2,0 0.1,0 0.1,0 0.2,0 m -1.4,0.1 h -0.1 0.1 m -0.5,0 c -0.1,0 -0.3,0 -0.4,0.1 0.1,-0.1 0.3,-0.1 0.4,-0.1 m -0.8,0.1 c -0.1,0 -0.3,0 -0.4,0 0.2,0 0.3,0 0.4,0 m -0.8,0 c -0.1,0 -0.3,0 -0.4,0 0.1,0 0.3,0 0.4,0 m -0.8,0 c -0.2,0 -0.3,0.1 -0.5,0.1 0.2,0 0.3,-0.1 0.5,-0.1 m -0.8,0.1 c -0.2,0 -0.5,0 -0.8,0 0.3,0 0.6,0 0.8,0 m -1,0 c -0.2,0 -0.4,0 -0.6,0 0.2,0 0.4,0 0.6,0 m -0.9,0 c -0.2,0 -0.3,0 -0.5,0 0.2,0 0.3,0 0.5,0 m -0.8,0 c -0.2,0 -0.4,0 -0.6,0 0.2,0 0.4,0 0.6,0 m -0.8,0 c -0.3,0 -0.6,0 -0.8,0 0.2,0 0.5,0 0.8,0"
         id="path260-1" />
    </clipPath>
  </defs>
  <g
     inkscape:label="Layer 1"
     inkscape:groupmode="layer"
     id="layer1"
     transform="translate(-70.50342,-38.97935)">
    <g
       id="g117553">
      <path
         d="M 70.50342,259.76017 H 191.73833 V 58.64613 H 70.50342 Z"
         style="fill:#63d378;fill-opacity:1;fill-rule:nonzero;stroke:none;stroke-width:0.0352778"
         id="path16" />
      <path
         d="m 70.50356,259.76017 9.63084,15.29645 h 50.98637 V 259.76017 H 70.50356"
         style="fill:#ced5d0;fill-opacity:1;fill-rule:nonzero;stroke:none;stroke-width:0.0352778"
         id="path18" />
      <path
         d="m 191.73823,259.76017 -9.63084,15.29645 h -50.98627 v -15.29645 h 60.61711"
         style="fill:#ced5d0;fill-opacity:1;fill-rule:nonzero;stroke:none;stroke-width:0.0352778"
         id="path20" />
      <path
         d="m 70.50342,58.64507 9.20651,-10.04711 h 51.41119 v 10.04711 h -60.6177"
         style="fill:#ced5d0;fill-opacity:1;fill-rule:nonzero;stroke:none;stroke-width:0.0352778"
         id="path22" />
      <path
         d="m 191.73823,58.64507 -9.20644,-10.04711 h -51.41067 v 10.04711 h 60.61711"
         style="fill:#ced5d0;fill-opacity:1;fill-rule:nonzero;stroke:none;stroke-width:0.0352778"
         id="path24" />
      <path
         d="M 182.28837,48.59796 H 79.95317 c -2.6556,0 -4.80853,-2.15547 -4.80853,-4.80836 0,-2.65642 2.15293,-4.80836 4.80853,-4.80836 h 102.3352 c 2.65571,0 4.80871,2.15194 4.80871,4.80836 0,2.65289 -2.153,4.80836 -4.80871,4.80836"
         style="fill:#ced5d0;fill-opacity:1;fill-rule:nonzero;stroke:none;stroke-width:0.0352778"
         id="path26" />
      <path
         d="m 187.09708,43.7896 c 0,-0.007 0,-0.0141 0,-0.0247 0,0.0106 0,0.0176 0,0.0247 m -111.95244,0 c 0,-0.0106 0,-0.0176 1.4e-4,-0.0282 -1.4e-4,0.0106 -1.4e-4,0.0176 -1.4e-4,0.0282 m 1.4e-4,-0.0388 c 0,-0.004 1.4e-4,-0.007 1.4e-4,-0.0106 0,0.004 -1.4e-4,0.007 -1.4e-4,0.0106 M 182.6736,38.99535 c -0.001,0 -0.003,0 -0.004,0 0.001,0 0.003,0 0.004,0 m -0.0254,-0.004 c -0.002,0 -0.004,0 -0.006,0 0.002,0 0.004,0 0.006,0 m -0.0265,0 c -0.002,0 -0.005,0 -0.007,0 0.002,0 0.005,0 0.007,0 m -0.0504,-0.004 c -3.6e-4,0 -0.001,0 -0.001,0 3.5e-4,0 0.001,0 0.001,0 m -0.0169,0 c -0.004,0 -0.009,0 -0.013,-0.004 0.004,0.004 0.009,0.004 0.013,0.004 m -0.0268,-0.004 c -0.005,0 -0.0102,0 -0.0152,0 0.005,0 0.01,0 0.0152,0 m -0.0286,0 c -0.005,0 -0.0106,0 -0.0155,0 0.005,0 0.0102,0 0.0155,0 m -0.0279,0 c -0.007,0 -0.0134,-0.004 -0.0201,-0.004 0.007,0 0.0134,0.004 0.0201,0.004 m -0.0289,-0.004 c -0.009,0 -0.0183,0 -0.0275,0 0.009,0 0.0187,0 0.0275,0 m -0.037,0 c -0.006,0 -0.0127,0 -0.0187,0 0.006,0 0.0123,0 0.0187,0 m -0.0303,0 c -0.006,0 -0.012,0 -0.0183,0 0.006,0 0.0123,0 0.0183,0 m -0.0286,0 c -0.007,0 -0.013,0 -0.0198,0 0.007,0 0.0131,0 0.0198,0 m -0.0289,0 c -0.01,0 -0.019,0 -0.0289,0 0.01,0 0.0194,0 0.0289,0"
         style="fill:#d2d2d8;fill-opacity:1;fill-rule:nonzero;stroke:none;stroke-width:0.0352778"
         id="path28" />
      <path
         d="M 182.28837,48.59796 H 79.95317 v 0 c -2.6556,0 -4.80853,-2.15547 -4.80853,-4.80836 v 0 c 0,-0.0106 0,-0.0176 1.4e-4,-0.0282 0,-0.004 0,-0.007 0,-0.0106 0,-0.004 1.4e-4,-0.007 1.4e-4,-0.0106 0.005,-0.44097 0.0718,-0.8643 0.18715,-1.27 0.57312,2.01436 2.42287,3.4925 4.6211,3.4925 h 76.31184 c 0.33196,-0.65264 0.52317,-1.38994 0.52317,-2.17311 0,-2.65642 -2.15265,-4.80836 -4.80801,-4.80836 h 30.3082 v 0 c 0.01,0 0.0194,0 0.0289,0 0.003,0 0.006,0 0.009,0 0.007,0 0.0131,0 0.0198,0 0.004,0 0.007,0 0.0102,0 0.006,0 0.0123,0 0.0183,0 0.004,0 0.008,0 0.0116,0 0.006,0 0.0123,0 0.0187,0 0.003,0 0.006,0 0.01,0 0.009,0 0.0183,0 0.0275,0 0.003,0 0.006,0 0.009,0 0.007,0 0.0134,0.004 0.0201,0.004 0.004,0 0.008,0 0.0123,0 0.005,0 0.0102,0 0.0155,0 0.004,0 0.009,0 0.0134,0 0.005,0 0.01,0 0.0152,0 0.005,0 0.009,0 0.0138,0 0.004,0.004 0.009,0.004 0.013,0.004 0.005,0 0.0102,0 0.0155,0 3.5e-4,0 0.001,0 0.001,0 0.0145,0 0.0289,0.004 0.0434,0.004 0.002,0 0.005,0 0.007,0 0.007,0 0.0134,0 0.0201,0 0.002,0 0.004,0 0.006,0 0.007,0.004 0.0141,0.004 0.0212,0.004 0.001,0 0.003,0 0.004,0 2.02706,0.16228 3.69676,1.58045 4.23616,3.47486 0.0543,0.1905 0.0952,0.38806 0.12594,0.58561 0.006,0.0353 0.0109,0.0706 0.0155,0.10584 0.0261,0.19755 0.0445,0.39864 0.0459,0.60325 0,0.0106 0,0.0176 0,0.0247 v 0 c 0,2.65289 -2.153,4.80836 -4.80871,4.80836"
         style="fill:#b1b5b9;fill-opacity:1;fill-rule:nonzero;stroke:none;stroke-width:0.0352778"
         id="path30" />
      <path
         d="m 191.73823,156.32572 c -5.32977,1.59456 -11.0423,1.91911 -16.49766,0.81844 -5.3086,-1.06891 -10.31839,-3.39372 -15.66509,-4.2545 -9.68023,-1.55575 -20.0459,2.16253 -26.52925,9.51442 -2.53682,2.87867 -4.49298,6.24064 -7.12188,9.03464 -7.25417,7.7082 -18.86937,10.07181 -29.32606,8.42786 -7.32931,-1.15005 -14.33813,-4.02872 -21.72085,-4.7625 -1.34041,-0.13405 -2.8316,-0.18697 -4.37402,-0.13053 v 84.70548 H 191.73823 V 156.32572"
         style="fill:#f4e41e;fill-opacity:1;fill-rule:nonzero;stroke:none;stroke-width:0.0352778"
         id="path32" />
      <path
         d="m 86.96322,113.89361 c -15.11857,20.6763 -10.93399,49.73461 9.55322,65.27447 20.48757,15.54339 49.59845,11.74045 65.43358,-8.38905 l -74.9868,-56.88542"
         style="fill:#77bb63;fill-opacity:1;fill-rule:nonzero;stroke:none;stroke-width:0.0352778"
         id="path34" />
      <path
         d="m 89.41785,115.75627 c -13.82134,18.91595 -9.66283,45.7447 9.48302,60.26856 19.14631,14.52386 46.10347,11.29947 60.59417,-7.10847 L 89.41785,115.75627"
         style="fill:#e6f9b4;fill-opacity:1;fill-rule:nonzero;stroke:none;stroke-width:0.0352778"
         id="path36" />
      <path
         d="m 92.0217,117.73183 c -12.9739,17.74472 -9.26888,42.77078 8.45432,56.21514 17.72356,13.44789 42.82194,10.26936 56.41552,-7.00264 L 92.0217,117.73183"
         style="fill:#cef490;fill-opacity:1;fill-rule:nonzero;stroke:none;stroke-width:0.0352778"
         id="path38" />
      <path
         d="m 123.83062,141.86183 1.25201,0.94897 -24.70221,32.56492 -1.25201,-0.94897 24.70221,-32.56492"
         style="fill:#e6f9b4;fill-opacity:1;fill-rule:nonzero;stroke:none;stroke-width:0.0352778"
         id="path40" />
      <path
         d="m 123.90647,143.06127 -37.79133,10.42106 -1.5113,-2.48003 39.22678,-9.14047 0.0423,0.67028 0.0335,0.52916"
         style="fill:#e6f9b4;fill-opacity:1;fill-rule:nonzero;stroke:none;stroke-width:0.0352778"
         id="path42" />
      <path
         d="m 84.96474,128.78788 c 0.3249,0.10937 38.90821,13.74423 38.90821,13.74423 l -0.0423,-0.67028 -38.44537,-14.52739 -0.42051,1.45344"
         style="fill:#e6f9b4;fill-opacity:1;fill-rule:nonzero;stroke:none;stroke-width:0.0352778"
         id="path44" />
      <path
         d="m 124.07298,144.1443 -2.65818,39.01017 1.56315,0.0952 1.68558,-39.88506 -0.59055,0.77964"
         style="fill:#e6f9b4;fill-opacity:1;fill-rule:nonzero;stroke:none;stroke-width:0.0352778"
         id="path46" />
      <path
         d="m 147.7927,177.12903 -23.91975,-34.59692 -0.0423,-0.67028 25.01194,33.88431 -1.04986,1.38289"
         style="fill:#e6f9b4;fill-opacity:1;fill-rule:nonzero;stroke:none;stroke-width:0.0352778"
         id="path48" />
      <path
         d="m 158.32382,142.05586 c -5.6709,0 -10.26795,-4.60023 -10.26795,-10.26936 0,-5.67267 4.59705,-10.26937 10.26795,-10.26937 0.43109,0 0.85513,0.0282 1.27212,0.0776 v 20.37997 c -0.41699,0.0529 -0.84103,0.0811 -1.27212,0.0811"
         style="fill:#95e1a3;fill-opacity:1;fill-rule:nonzero;stroke:none;stroke-width:0.0352778"
         id="path50" />
      <path
         d="m 119.19688,118.80075 c -5.6709,0 -10.2683,-4.5967 -10.2683,-10.26937 0,-5.66914 4.5974,-10.26936 10.2683,-10.26936 5.67055,0 10.26795,4.60022 10.26795,10.26936 0,5.67267 -4.5974,10.26937 -10.26795,10.26937"
         style="fill:#95e1a3;fill-opacity:1;fill-rule:nonzero;stroke:none;stroke-width:0.0352778"
         id="path52" />
      <path
         d="m 146.36959,98.26202 c -4.17477,0 -7.55932,-3.38314 -7.55932,-7.5565 0,-4.17689 3.38455,-7.56003 7.55932,-7.56003 4.17477,0 7.55897,3.38314 7.55897,7.56003 0,4.17336 -3.3842,7.5565 -7.55897,7.5565"
         style="fill:#95e1a3;fill-opacity:1;fill-rule:nonzero;stroke:none;stroke-width:0.0352778"
         id="path54" />
      <path
         d="m 182.49757,275.05662 h -29.39416 29.00398 l 9.63084,-15.29645 h -32.14229 32.14229 v -0.0811 -103.35331 0 -97.68065 l -9.20644,-10.04711 h 0.14675 l 9.44951,10.04711 v 201.1151 l -9.63048,15.29645"
         style="fill:#e0dfe4;fill-opacity:1;fill-rule:nonzero;stroke:none;stroke-width:0.0352778"
         id="path56" />
      <path
         d="m 191.73823,259.76017 h -32.14229 v -0.0811 h 32.14229 v 0.0811 m -9.96245,-101.97042 c -2.19251,0 -4.38361,-0.21167 -6.53521,-0.64559 -5.30189,-1.06539 -10.30534,-3.39019 -15.64463,-4.25097 v -10.91847 c 5.07083,-0.62442 8.99618,-4.94947 8.99618,-10.18822 0,-5.23875 -3.92535,-9.56381 -8.99618,-10.19175 V 58.64507 h 32.14229 v 97.68065 c -3.22757,0.96661 -6.59624,1.46403 -9.96245,1.46403"
         style="fill:#68bd7c;fill-opacity:1;fill-rule:nonzero;stroke:none;stroke-width:0.0352778"
         id="path58" />
      <path
         d="m 182.10739,275.05662 h -29.00398 l 6.49253,-15.29645 h 32.14229 l -9.63084,15.29645"
         style="fill:#babfc0;fill-opacity:1;fill-rule:nonzero;stroke:none;stroke-width:0.0352778"
         id="path60" />
      <path
         d="m 191.73823,58.64507 v 0 h -32.14229 l -7.90399,-10.04711 h 30.83984 l 9.20644,10.04711"
         style="fill:#babfc0;fill-opacity:1;fill-rule:nonzero;stroke:none;stroke-width:0.0352778"
         id="path62" />
      <path
         d="m 191.73823,259.67903 v 0 h -32.14229 v -86.1307 c 0.8128,-0.88547 1.59914,-1.80975 2.35408,-2.7693 l -2.35408,-1.78506 v -16.10078 c 5.33929,0.86078 10.34274,3.18558 15.64463,4.25097 2.1516,0.43392 4.3427,0.64559 6.53521,0.64559 3.36621,0 6.73488,-0.49742 9.96245,-1.46403 v 0 103.35331"
         style="fill:#d7ca37;fill-opacity:1;fill-rule:nonzero;stroke:none;stroke-width:0.0352778"
         id="path64" />
      <path
         d="m 159.59594,173.54833 v -4.55436 l 2.35408,1.78506 c -0.75494,0.95955 -1.54128,1.88383 -2.35408,2.7693"
         style="fill:#77ab6c;fill-opacity:1;fill-rule:nonzero;stroke:none;stroke-width:0.0352778"
         id="path66" />
      <path
         d="m 159.59594,141.97472 v -20.37997 c 5.07083,0.62794 8.99618,4.953 8.99618,10.19175 0,5.23875 -3.92535,9.5638 -8.99618,10.18822"
         style="fill:#8ec89d;fill-opacity:1;fill-rule:nonzero;stroke:none;stroke-width:0.0352778"
         id="path68" />
      <path
         d="m 135.42361,255.39963 v -9.73893 h 4.42736 v 3.98851 h 4.19453 v -3.55142 h 4.20512 v 3.55142 h 9.28864 v 5.75042 h -22.11564"
         style="fill:#63d378;fill-opacity:1;fill-rule:nonzero;stroke:none;stroke-width:0.0352778"
         id="path70" />
      <path
         d="m 139.20892,238.51695 h 4.91772 c 0,-0.64629 -0.0882,-1.09961 -0.26811,-1.35925 -0.17639,-0.25929 -0.75142,-0.38911 -1.72509,-0.38911 h -1.21708 c -0.70203,0 -1.16064,0.12523 -1.37936,0.3757 -0.21872,0.25083 -0.32808,0.70803 -0.32808,1.37266 z m -3.78531,5.75028 v -4.07035 c 0,-2.71321 0.10583,-4.55048 0.31397,-5.51145 0.21167,-0.96061 0.74436,-1.74343 1.60514,-2.34915 0.86078,-0.60571 2.23661,-0.90875 4.12045,-0.90875 1.72155,0 2.87866,0.21449 3.4678,0.64205 0.59267,0.42863 0.94897,1.27036 1.06539,2.52695 0.28222,-1.13806 0.6597,-1.90288 1.13595,-2.29482 0.47272,-0.39088 0.90663,-0.635 1.30175,-0.7306 0.39863,-0.0956 1.48872,-0.14358 3.27377,-0.14358 h 5.83142 v 5.34106 h -7.34836 c -1.18533,0 -1.91558,0.0935 -2.19781,0.2801 -0.28222,0.18662 -0.42333,0.67592 -0.42333,1.46826 h 9.9695 v 5.75028 h -22.11564"
         style="fill:#63d378;fill-opacity:1;fill-rule:nonzero;stroke:none;stroke-width:0.0352778"
         id="path72" />
      <path
         d="m 135.4236,229.20115 v -9.5885 h 4.42736 v 3.83822 h 4.19453 v -3.59234 h 4.20511 v 3.59234 h 4.86481 v -4.22063 h 4.42384 v 9.97091 H 135.4236"
         style="fill:#63d378;fill-opacity:1;fill-rule:nonzero;stroke:none;stroke-width:0.0352778"
         id="path74" />
      <path
         d="m 142.11933,205.39323 v 5.34071 h -1.64041 c -0.76553,0 -1.25236,0.0684 -1.4605,0.20496 -0.21167,0.13653 -0.31398,0.36442 -0.31398,0.68298 0,0.34643 0.14112,0.60783 0.42334,0.78528 0.28222,0.1778 0.70908,0.26635 1.28411,0.26635 0.7373,0 1.29469,-0.0991 1.66864,-0.29951 0.37394,-0.19015 0.82197,-0.73201 1.35114,-1.62489 1.52047,-2.55976 2.76577,-4.17195 3.73944,-4.83694 0.9772,-0.66428 2.54706,-0.99695 4.71311,-0.99695 1.57692,0 2.73756,0.1845 3.48192,0.55315 0.74789,0.36866 1.37583,1.08162 1.88031,2.13784 0.50447,1.05657 0.75847,2.286 0.75847,3.68794 0,1.53881 -0.29281,2.85291 -0.87489,3.94053 -0.58208,1.08832 -1.32645,1.80128 -2.22603,2.13783 -0.90311,0.3369 -2.18017,0.50518 -3.83822,0.50518 h -1.44992 v -5.34071 h 2.6917 c 0.82902,0 1.36172,-0.0751 1.59808,-0.22542 0.23636,-0.14993 0.35631,-0.41663 0.35631,-0.79904 0,-0.38241 -0.1517,-0.66675 -0.45156,-0.85373 -0.29986,-0.18626 -0.74789,-0.27975 -1.33703,-0.27975 -1.30528,0 -2.15547,0.17745 -2.55764,0.5327 -0.39864,0.36442 -1.06891,1.26153 -2.0073,2.69063 -0.94545,1.42981 -1.63336,2.37667 -2.06023,2.84128 -0.43038,0.46425 -1.01952,0.84948 -1.778,1.15428 -0.75494,0.30551 -1.72155,0.45756 -2.8963,0.45756 -1.69333,0 -2.93158,-0.21626 -3.71475,-0.64876 -0.78317,-0.43251 -1.39347,-1.13136 -1.83445,-2.09691 -0.4445,-0.96485 -0.66322,-2.13078 -0.66322,-3.49674 0,-1.4933 0.23989,-2.76577 0.7232,-3.81776 0.4833,-1.05163 1.09008,-1.74836 1.82386,-2.08985 0.73378,-0.34149 1.97908,-0.51224 3.73591,-0.51224 h 0.87489"
         style="fill:#63d378;fill-opacity:1;fill-rule:nonzero;stroke:none;stroke-width:0.0352778"
         id="path76" />
      <path
         d="m 135.42362,189.89006 h 22.11562 v 5.75063 h -9.28863 v 1.72121 h 9.28863 v 5.75028 h -22.11562 v -5.75028 h 7.90928 v -1.72121 h -7.90928 v -5.75063"
         style="fill:#63d378;fill-opacity:1;fill-rule:nonzero;stroke:none;stroke-width:0.0352778"
         id="path78" />
      <path
         d="m 160.65428,249.77621 h 17.43781 v -3.44735 h 4.36386 v 9.11681 h -21.80167 v -5.66946"
         style="fill:#ffffff;fill-opacity:1;fill-rule:nonzero;stroke:none;stroke-width:0.0352778"
         id="path80" />
      <path
         d="m 160.65428,239.28565 h 21.80168 v 5.6695 h -21.80168 v -5.6695"
         style="fill:#ffffff;fill-opacity:1;fill-rule:nonzero;stroke:none;stroke-width:0.0352778"
         id="path82" />
      <path
         d="m 160.65428,219.51634 h 21.80166 v 4.95582 l -14.72141,0.007 14.72141,1.97273 v 3.51508 l -14.38274,2.08068 14.38274,0.007 v 4.95583 h -21.80166 v -7.33602 c 1.3088,-0.21766 2.85397,-0.44203 4.63197,-0.6731 l 5.5492,-0.80504 -10.18117,-1.30316 v -7.37623"
         style="fill:#ffffff;fill-opacity:1;fill-rule:nonzero;stroke:none;stroke-width:0.0352778"
         id="path84" />
      <path
         d="m 160.65428,217.24057 v -9.45373 h 4.36033 v 3.78424 h 4.13456 v -3.54188 h 4.14866 v 3.54188 h 4.79426 v -4.16137 h 4.36386 v 9.83086 h -21.80167"
         style="fill:#ffffff;fill-opacity:1;fill-rule:nonzero;stroke:none;stroke-width:0.0352778"
         id="path86" />
      <path
         d="m 97.67849,180.0218 c -0.36124,-0.0459 -0.72143,-0.0988 -1.0802,-0.15522 -5.74005,-0.89958 -11.28289,-2.86103 -16.96318,-4.02166 -0.016,-0.26459 -0.0287,-0.52917 -0.0387,-0.79023 -0.32233,-8.36789 -0.64467,-16.73578 -0.96711,-25.10719 2.00421,11.23597 8.07639,21.77697 17.88714,29.22058 0.38383,0.29281 0.77223,0.57503 1.16205,0.85372 M 78.12811,136.93352 c -0.40583,-10.53394 -0.81167,-21.06789 -1.2175,-31.60183 -0.15558,-4.04283 -0.30399,-8.14917 0.88099,-12.05442 1.24269,-4.09575 5.15666,-5.96194 9.31344,-5.96194 4.45523,0 9.18986,2.14489 11.21269,5.98664 1.83374,3.48544 1.56951,7.41891 1.30951,11.18658 -0.42051,6.08894 -0.74189,12.18142 -0.9645,18.28095 l -11.69952,-8.87589 c -5.12036,7.00264 -8.02661,14.96836 -8.83511,23.03991"
         style="fill:#99e2a7;fill-opacity:1;fill-rule:nonzero;stroke:none;stroke-width:0.0352778"
         id="path88" />
      <path
         d="m 88.52744,187.35253 c -0.86149,0 -1.72614,-0.127 -2.56752,-0.40217 -4.88724,-1.59456 -6.05924,-6.68514 -6.32481,-11.10544 5.68029,1.16063 11.22313,3.12208 16.96318,4.02166 0.35877,0.0564 0.71896,0.10936 1.0802,0.15522 0.17886,0.127 0.35702,0.254 0.53728,0.37748 -0.23248,0.65969 -0.52316,1.30527 -0.88582,1.93322 -1.62066,2.79753 -5.18724,5.02003 -8.80251,5.02003"
         style="fill:#f8ed6d;fill-opacity:1;fill-rule:nonzero;stroke:none;stroke-width:0.0352778"
         id="path90" />
      <path
         d="m 98.21577,180.39928 c -0.18026,-0.12348 -0.35842,-0.25048 -0.53728,-0.37748 -0.38982,-0.27869 -0.77822,-0.56091 -1.16205,-0.85372 -9.81075,-7.44361 -15.88293,-17.98461 -17.88714,-29.22058 -0.16704,-4.33917 -0.33418,-8.67481 -0.50119,-13.01398 0.8085,-8.07155 3.71475,-16.03727 8.83511,-23.03991 l 11.69952,8.87589 v 0 l -9.24489,-7.01323 c -13.82134,18.91595 -9.66283,45.7447 9.48302,60.26856 0.0399,0.0317 0.0804,0.06 0.1203,0.0917 -0.091,1.46403 -0.32033,2.90336 -0.8054,4.28272"
         style="fill:#a6d399;fill-opacity:1;fill-rule:nonzero;stroke:none;stroke-width:0.0352778"
         id="path92" />
      <path
         d="m 99.02117,176.11655 c -0.0399,-0.0317 -0.0804,-0.06 -0.1203,-0.0917 -19.14585,-14.52386 -23.30436,-41.35261 -9.48302,-60.26856 l 9.24489,7.01323 v 0 l -6.64104,-5.03767 c -2.31387,3.16442 -4.09751,6.56167 -5.3654,10.08239 l -1.27105,-0.47978 -0.42051,1.45344 c 0.0332,0.0106 0.46637,0.16228 1.21637,0.42687 -2.24543,7.04497 -2.47085,14.52739 -0.79375,21.60764 l -0.78352,0.17991 1.50707,2.47298 c 2.2666,7.32719 6.62376,14.097 12.93178,19.33575 0.037,1.10066 0.0466,2.20839 -0.0215,3.30553"
         style="fill:#effbce;fill-opacity:1;fill-rule:nonzero;stroke:none;stroke-width:0.0352778"
         id="path94" />
      <path
         d="M 99.04269,172.81103 C 92.73467,167.57228 88.37751,160.80247 86.11091,153.47527 l 0.004,0.007 12.21247,-3.36902 c 0.0832,6.94619 0.29421,13.88886 0.63358,20.83153 0.03,0.61736 0.0603,1.24177 0.0815,1.86619 M 85.38713,150.82243 c -1.6771,-7.08025 -1.45168,-14.56267 0.79375,-21.60764 2.13008,0.75141 6.81885,2.40947 12.192,4.30742 -0.0833,4.7625 -0.10583,9.525 -0.0681,14.2875 l -12.91767,3.01272 m 13.00904,-18.57022 -11.7401,-4.43795 c 1.26789,-3.52072 3.05153,-6.91797 5.3654,-10.08239 l 6.64104,5.03767 c -0.11535,3.15736 -0.2039,6.32177 -0.26634,9.48267"
         style="fill:#dff8b7;fill-opacity:1;fill-rule:nonzero;stroke:none;stroke-width:0.0352778"
         id="path96" />
      <path
         d="m 86.11514,153.48233 -0.004,-0.007 -1.50707,-2.47297 0.78352,-0.17992 12.91767,-3.01272 c 0.006,0.76905 0.0134,1.53811 0.0226,2.30364 l -12.21247,3.36903"
         style="fill:#effbce;fill-opacity:1;fill-rule:nonzero;stroke:none;stroke-width:0.0352778"
         id="path98" />
      <path
         d="m 98.37311,133.52216 c -5.37315,-1.89794 -10.06192,-3.556 -12.192,-4.30741 -0.75,-0.26459 -1.18321,-0.41628 -1.21637,-0.42687 l 0.42051,-1.45344 1.27105,0.47978 11.7401,4.43794 c -0.008,0.42334 -0.0159,0.84667 -0.0233,1.27"
         style="fill:#effbce;fill-opacity:1;fill-rule:nonzero;stroke:none;stroke-width:0.0352778"
         id="path100" />
      <path
         d="m 85.85409,79.29316 c -3.03354,0 -6.0693,-1.95792 -7.11553,-4.83658 -1.25099,-3.44312 0.52698,-7.70114 3.85523,-9.2322 0.29132,-0.13053 0.63387,-0.23989 0.95137,-0.23989 0.26423,0 0.51153,0.0741 0.69709,0.26811 l 0.69285,-0.66322 c 0.21943,-0.0247 0.43815,-0.0353 0.65723,-0.0353 3.41982,0 6.719,2.64936 7.34695,6.0325 0.66781,3.60186 -1.78506,7.51064 -5.31954,8.47373 -0.57855,0.15522 -1.17193,0.23283 -1.76565,0.23283"
         style="fill:#99e2a7;fill-opacity:1;fill-rule:nonzero;stroke:none;stroke-width:0.0352778"
         id="path102" />
    </g>
  </g>
</svg>
