<?xml version="1.0" encoding="UTF-8" standalone="no"?>
<!-- Created with Inkscape (http://www.inkscape.org/) -->

<svg
   width="121.23562mm"
   height="236.07538mm"
   viewBox="0 0 121.23562 236.07538"
   version="1.1"
   id="svg4558"
   inkscape:version="1.1.1 (3bf5ae0d25, 2021-09-20)"
   sodipodi:docname="drink-cola.svg"
   xmlns:inkscape="http://www.inkscape.org/namespaces/inkscape"
   xmlns:sodipodi="http://sodipodi.sourceforge.net/DTD/sodipodi-0.dtd"
   xmlns="http://www.w3.org/2000/svg"
   xmlns:svg="http://www.w3.org/2000/svg">
  <sodipodi:namedview
     id="namedview4560"
     pagecolor="#505050"
     bordercolor="#ffffff"
     borderopacity="1"
     inkscape:pageshadow="0"
     inkscape:pageopacity="0"
     inkscape:pagecheckerboard="1"
     inkscape:document-units="mm"
     showgrid="false"
     inkscape:zoom="0.51150168"
     inkscape:cx="122.18924"
     inkscape:cy="442.81379"
     inkscape:window-width="1920"
     inkscape:window-height="1001"
     inkscape:window-x="-9"
     inkscape:window-y="-9"
     inkscape:window-maximized="1"
     inkscape:current-layer="layer1" />
  <defs
     id="defs4555">
    <clipPath
       clipPathUnits="userSpaceOnUse"
       id="clipPath262">
      <path
         d="m 13714.5,18258.4 c 0,0.2 0,0.4 0,0.7 0,-0.3 0,-0.5 0,-0.7 m -3173.5,0 c 0,0.3 0,0.5 0,0.8 0,-0.3 0,-0.5 0,-0.8 m 0,1.1 c 0,0.1 0,0.2 0,0.3 0,-0.1 0,-0.2 0,-0.3 m 3048.1,134.8 c -0.1,0 -0.1,0 -0.1,0 0,0 0,0 0.1,0 m -0.7,0.1 c -0.1,0 -0.2,0 -0.2,0 0,0 0.1,0 0.2,0 m -0.8,0 c -0.1,0 -0.1,0 -0.2,0 0.1,0 0.1,0 0.2,0 m -1.4,0.1 h -0.1 0.1 m -0.5,0 c -0.1,0 -0.3,0 -0.4,0.1 0.1,-0.1 0.3,-0.1 0.4,-0.1 m -0.8,0.1 c -0.1,0 -0.3,0 -0.4,0 0.2,0 0.3,0 0.4,0 m -0.8,0 c -0.1,0 -0.3,0 -0.4,0 0.1,0 0.3,0 0.4,0 m -0.8,0 c -0.2,0 -0.3,0.1 -0.5,0.1 0.2,0 0.3,-0.1 0.5,-0.1 m -0.8,0.1 c -0.2,0 -0.5,0 -0.8,0 0.3,0 0.6,0 0.8,0 m -1,0 c -0.2,0 -0.4,0 -0.6,0 0.2,0 0.4,0 0.6,0 m -0.9,0 c -0.2,0 -0.3,0 -0.5,0 0.2,0 0.3,0 0.5,0 m -0.8,0 c -0.2,0 -0.4,0 -0.6,0 0.2,0 0.4,0 0.6,0 m -0.8,0 c -0.3,0 -0.6,0 -0.8,0 0.2,0 0.5,0 0.8,0"
         id="path260" />
    </clipPath>
    <clipPath
       clipPathUnits="userSpaceOnUse"
       id="clipPath262-0">
      <path
         d="m 13714.5,18258.4 c 0,0.2 0,0.4 0,0.7 0,-0.3 0,-0.5 0,-0.7 m -3173.5,0 c 0,0.3 0,0.5 0,0.8 0,-0.3 0,-0.5 0,-0.8 m 0,1.1 c 0,0.1 0,0.2 0,0.3 0,-0.1 0,-0.2 0,-0.3 m 3048.1,134.8 c -0.1,0 -0.1,0 -0.1,0 0,0 0,0 0.1,0 m -0.7,0.1 c -0.1,0 -0.2,0 -0.2,0 0,0 0.1,0 0.2,0 m -0.8,0 c -0.1,0 -0.1,0 -0.2,0 0.1,0 0.1,0 0.2,0 m -1.4,0.1 h -0.1 0.1 m -0.5,0 c -0.1,0 -0.3,0 -0.4,0.1 0.1,-0.1 0.3,-0.1 0.4,-0.1 m -0.8,0.1 c -0.1,0 -0.3,0 -0.4,0 0.2,0 0.3,0 0.4,0 m -0.8,0 c -0.1,0 -0.3,0 -0.4,0 0.1,0 0.3,0 0.4,0 m -0.8,0 c -0.2,0 -0.3,0.1 -0.5,0.1 0.2,0 0.3,-0.1 0.5,-0.1 m -0.8,0.1 c -0.2,0 -0.5,0 -0.8,0 0.3,0 0.6,0 0.8,0 m -1,0 c -0.2,0 -0.4,0 -0.6,0 0.2,0 0.4,0 0.6,0 m -0.9,0 c -0.2,0 -0.3,0 -0.5,0 0.2,0 0.3,0 0.5,0 m -0.8,0 c -0.2,0 -0.4,0 -0.6,0 0.2,0 0.4,0 0.6,0 m -0.8,0 c -0.3,0 -0.6,0 -0.8,0 0.2,0 0.5,0 0.8,0"
         id="path260-1" />
    </clipPath>
    <clipPath
       clipPathUnits="userSpaceOnUse"
       id="clipPath262-4">
      <path
         d="m 13714.5,18258.4 c 0,0.2 0,0.4 0,0.7 0,-0.3 0,-0.5 0,-0.7 m -3173.5,0 c 0,0.3 0,0.5 0,0.8 0,-0.3 0,-0.5 0,-0.8 m 0,1.1 c 0,0.1 0,0.2 0,0.3 0,-0.1 0,-0.2 0,-0.3 m 3048.1,134.8 c -0.1,0 -0.1,0 -0.1,0 0,0 0,0 0.1,0 m -0.7,0.1 c -0.1,0 -0.2,0 -0.2,0 0,0 0.1,0 0.2,0 m -0.8,0 c -0.1,0 -0.1,0 -0.2,0 0.1,0 0.1,0 0.2,0 m -1.4,0.1 h -0.1 0.1 m -0.5,0 c -0.1,0 -0.3,0 -0.4,0.1 0.1,-0.1 0.3,-0.1 0.4,-0.1 m -0.8,0.1 c -0.1,0 -0.3,0 -0.4,0 0.2,0 0.3,0 0.4,0 m -0.8,0 c -0.1,0 -0.3,0 -0.4,0 0.1,0 0.3,0 0.4,0 m -0.8,0 c -0.2,0 -0.3,0.1 -0.5,0.1 0.2,0 0.3,-0.1 0.5,-0.1 m -0.8,0.1 c -0.2,0 -0.5,0 -0.8,0 0.3,0 0.6,0 0.8,0 m -1,0 c -0.2,0 -0.4,0 -0.6,0 0.2,0 0.4,0 0.6,0 m -0.9,0 c -0.2,0 -0.3,0 -0.5,0 0.2,0 0.3,0 0.5,0 m -0.8,0 c -0.2,0 -0.4,0 -0.6,0 0.2,0 0.4,0 0.6,0 m -0.8,0 c -0.3,0 -0.6,0 -0.8,0 0.2,0 0.5,0 0.8,0"
         id="path260-6" />
    </clipPath>
  </defs>
  <g
     inkscape:label="Layer 1"
     inkscape:groupmode="layer"
     id="layer1"
     transform="translate(-70.335062,-39.05884)">
    <g
       id="g115035">
      <path
         d="M 70.335062,259.83778 H 191.57068 V 58.72374 H 70.335062 Z"
         style="fill:#ff1206;fill-opacity:1;fill-rule:nonzero;stroke:none;stroke-width:0.0352778"
         id="path244" />
      <path
         d="m 70.33859,259.83778 9.630834,15.29645 H 130.95287 V 259.83778 H 70.33859"
         style="fill:#ced5d0;fill-opacity:1;fill-rule:nonzero;stroke:none;stroke-width:0.0352778"
         id="path246" />
      <path
         d="m 191.57068,259.83778 -9.63083,15.29645 h -50.98698 v -15.29645 h 60.61781"
         style="fill:#ced5d0;fill-opacity:1;fill-rule:nonzero;stroke:none;stroke-width:0.0352778"
         id="path248" />
      <path
         d="M 70.335062,58.72268 79.542563,48.67557 H 130.95287 V 58.72268 H 70.335062"
         style="fill:#ced5d0;fill-opacity:1;fill-rule:nonzero;stroke:none;stroke-width:0.0352778"
         id="path250" />
      <path
         d="m 191.57068,58.72268 -9.20397,-10.04711 h -51.41384 v 10.04711 h 60.61781"
         style="fill:#ced5d0;fill-opacity:1;fill-rule:nonzero;stroke:none;stroke-width:0.0352778"
         id="path252" />
      <path
         d="M 182.12329,48.67557 H 79.785979 c -2.656416,0 -4.808361,-2.15547 -4.808361,-4.80836 0,-2.65642 2.151945,-4.80836 4.808361,-4.80836 H 182.12329 c 2.65289,0 4.80836,2.15194 4.80836,4.80836 0,2.65289 -2.15547,4.80836 -4.80836,4.80836"
         style="fill:#ced5d0;fill-opacity:1;fill-rule:nonzero;stroke:none;stroke-width:0.0352778"
         id="path254" />
      <g
         id="g256"
         transform="matrix(0.03527778,0,0,-0.03527778,-296.88546,687.98303)">
        <g
           id="g258"
           clip-path="url(#clipPath262-4)">
          <path
             d="m 10541,18258.4 h 3173.5 v 136.301 H 10541 Z"
             style="fill:#d2d2d8;fill-opacity:1;fill-rule:nonzero;stroke:none"
             id="path264" />
        </g>
      </g>
      <path
         d="M 182.12329,48.67557 H 79.785979 v 0 c -2.656416,0 -4.808361,-2.15547 -4.808361,-4.80836 v 0 c 0,-0.0106 0,-0.0176 0,-0.0282 0,-0.004 0,-0.007 0,-0.0106 0,-0.004 0,-0.007 0,-0.0106 0.0035,-0.44097 0.07408,-0.8643 0.186972,-1.27 0.575028,2.01436 2.423584,3.4925 4.621389,3.4925 h 76.312891 c 0.33162,-0.65264 0.52212,-1.38994 0.52212,-2.17311 0,-2.65642 -2.15195,-4.80836 -4.80837,-4.80836 h 30.31067 v 0 c 0.007,0 0.0176,0 0.0282,0 0.004,0 0.007,0 0.007,0 0.007,0 0.0141,0 0.0212,0 0.004,0 0.007,0 0.0106,0 0.007,0 0.0106,0 0.0176,0 0.004,0 0.007,0 0.0106,0 0.007,0 0.0141,0 0.0212,0 0.004,0 0.004,0 0.007,0 0.0106,0 0.0212,0 0.0282,0 0.004,0 0.007,0 0.0106,0 0.007,0 0.0106,0.004 0.0176,0.004 0.004,0 0.0106,0 0.0141,0 0.004,0 0.0106,0 0.0141,0 0.007,0 0.0106,0 0.0141,0 0.004,0 0.0106,0 0.0141,0 0.007,0 0.0106,0 0.0141,0 0.004,0.004 0.0106,0.004 0.0141,0.004 0.004,0 0.0106,0 0.0141,0 h 0.004 c 0.0141,0 0.0282,0.004 0.0423,0.004 0.004,0 0.004,0 0.007,0 0.007,0 0.0141,0 0.0212,0 0,0 0.004,0 0.007,0 0.007,0.004 0.0141,0.004 0.0212,0.004 0,0 0,0 0.004,0 2.02494,0.16228 3.69711,1.58045 4.23686,3.47486 0.0529,0.1905 0.0952,0.38806 0.12347,0.58561 0.007,0.0353 0.0106,0.0706 0.0176,0.10584 0.0247,0.19755 0.0423,0.39864 0.0459,0.60325 0,0.0106 0,0.0176 0,0.0247 v 0 c 0,2.65289 -2.15547,4.80836 -4.80836,4.80836"
         style="fill:#b1b5b9;fill-opacity:1;fill-rule:nonzero;stroke:none;stroke-width:0.0352778"
         id="path266" />
      <path
         d="m 89.268647,196.48947 c -0.645584,0 -1.294695,-0.127 -1.926167,-0.40216 -3.884084,-1.68981 -4.6355,-7.30956 -4.769556,-11.89567 -0.465667,-16.129 -0.931333,-32.25448 -1.397,-48.38348 4.935361,-2.44828 10.237612,-3.78178 15.70214,-4.37092 -0.455084,16.19956 -0.384528,32.42734 0.211666,48.64101 0.141112,3.86997 0.282223,7.92339 -1.224138,11.38766 -1.213556,2.80106 -3.887612,5.02356 -6.596945,5.02356 m -8.382001,-70.7637 c -0.05997,-2.05316 -0.119944,-4.10633 -0.179917,-6.16303 5.344584,-2.39888 10.925529,-4.04988 16.816918,-4.68136 -0.116416,2.3107 -0.22225,4.62492 -0.313972,6.93561 -0.508,0.0353 -1.016,0.0776 -1.524,0.127 -5.087056,0.49742 -10.092973,1.78859 -14.799029,3.78178"
         style="fill:#ff837d;fill-opacity:1;fill-rule:nonzero;stroke:none;stroke-width:0.0352778"
         id="path268" />
      <path
         d="m 87.264869,88.42658 c -2.275417,0 -4.550834,-2.82223 -5.334001,-6.97442 -0.938389,-4.96711 0.395112,-11.10897 2.889251,-13.31384 0.218722,-0.19402 0.47625,-0.34925 0.712611,-0.34925 0.197555,0 0.384528,0.10584 0.522111,0.38453 l 0.518583,-0.95603 c 0.165806,-0.0317 0.331611,-0.0494 0.493889,-0.0494 2.564695,0 5.037667,3.82058 5.506862,8.70302 0.500944,5.19642 -1.337028,10.83381 -3.986389,12.22023 -0.433917,0.2293 -0.878417,0.33514 -1.322917,0.33514"
         style="fill:#ff837d;fill-opacity:1;fill-rule:nonzero;stroke:none;stroke-width:0.0352778"
         id="path270" />
      <path
         d="m 191.57068,75.9453 c -4.97417,0.90664 -9.90953,2.62114 -14.47094,4.67783 -11.03842,4.98475 -21.43478,11.8992 -33.33045,14.18872 -9.18633,1.76389 -18.50672,0.63148 -27.85886,-0.50094 -6.01487,-0.72672 -12.04384,-1.45697 -18.058699,-1.41111 -4.956529,0.0318 -16.534696,2.27541 -27.516669,6.3253 v 26.02795 c 10.33639,-6.6675 21.445363,-10.98903 33.958388,-10.63978 14.33336,0.40217 28.52562,6.34647 42.65437,3.89114 11.68047,-2.032 21.53708,-9.50031 31.86289,-15.32819 3.98639,-2.2472 8.3185,-4.27214 12.75997,-5.64092 v -21.59"
         style="fill:#ededc3;fill-opacity:1;fill-rule:nonzero;stroke:none;stroke-width:0.0352778"
         id="path280" />
      <path
         d="m 191.57068,104.97891 c -5.62328,1.50636 -11.05253,3.73944 -16.09725,6.65339 -6.36058,3.67594 -12.16025,8.42433 -19.00414,11.10192 -9.525,3.72533 -20.15772,3.09033 -30.2895,1.70039 -10.12825,-1.38995 -20.31648,-3.48545 -30.494115,-2.49062 -8.297334,0.81139 -16.36889,3.73239 -23.297446,8.36084 -0.677333,0.45155 -1.361722,0.89605 -2.053167,1.34055 v 11.40884 c 3.132667,-2.45886 6.304139,-4.84717 9.810751,-6.71689 13.013973,-6.93914 28.740807,-5.81731 43.296417,-3.44664 11.05253,1.79917 22.46137,4.20511 33.29164,1.36878 9.17575,-2.40242 16.94745,-8.32556 25.32945,-12.75998 2.98803,-1.58397 6.20889,-2.97391 9.50736,-3.937 v -12.58358"
         style="fill:#ededc3;fill-opacity:1;fill-rule:nonzero;stroke:none;stroke-width:0.0352778"
         id="path282" />
      <path
         d="m 191.57068,259.83778 h -32.52964 v -126.2627 c 8.1915,-2.71286 15.34936,-8.01864 23.02228,-12.07559 2.98803,-1.58397 6.20889,-2.97391 9.50736,-3.937 V 259.83778 M 159.04104,121.61591 v -7.12611 c 6.7945,-3.21733 13.18684,-7.59883 19.76967,-11.31358 3.98639,-2.2472 8.3185,-4.27214 12.75997,-5.64092 v 7.44361 c -5.62328,1.50636 -11.05253,3.73944 -16.09725,6.65339 -5.54919,3.20675 -10.67153,7.23194 -16.43239,9.98361 m 0,-32.07456 V 58.72268 h 32.52964 V 75.9453 c -4.97417,0.90664 -9.90953,2.62114 -14.47094,4.67783 -6.096,2.75167 -11.99445,6.09247 -18.0587,8.91822"
         style="fill:#d23331;fill-opacity:1;fill-rule:nonzero;stroke:none;stroke-width:0.0352778"
         id="path284" />
      <path
         d="M 181.93985,275.13423 H 152.5464 l 6.49464,-15.29645 h 32.52964 l -9.63083,15.29645"
         style="fill:#b1b5b9;fill-opacity:1;fill-rule:nonzero;stroke:none;stroke-width:0.0352778"
         id="path286" />
      <path
         d="m 191.57068,58.72268 h -32.52964 l -7.90575,-10.04711 h 30.988 l 9.44739,10.04711"
         style="fill:#b1b5b9;fill-opacity:1;fill-rule:nonzero;stroke:none;stroke-width:0.0352778"
         id="path288" />
      <path
         d="M 159.04104,114.4898 V 89.54135 c 6.06425,-2.82575 11.9627,-6.16655 18.0587,-8.91822 4.56141,-2.05669 9.49677,-3.77119 14.47094,-4.67783 v 0 21.59 0 c -4.44147,1.36878 -8.77358,3.39372 -12.75997,5.64092 -6.58283,3.71475 -12.97517,8.09625 -19.76967,11.31358"
         style="fill:#c6c5b0;fill-opacity:1;fill-rule:nonzero;stroke:none;stroke-width:0.0352778"
         id="path290" />
      <path
         d="m 159.04104,133.57508 v -11.95917 c 5.76086,-2.75167 10.8832,-6.77686 16.43239,-9.98361 5.04472,-2.91395 10.47397,-5.14703 16.09725,-6.65339 v 0 12.58358 0 c -3.29847,0.96309 -6.51933,2.35303 -9.50736,3.937 -7.67292,4.05695 -14.83078,9.36273 -23.02228,12.07559"
         style="fill:#c6c5b0;fill-opacity:1;fill-rule:nonzero;stroke:none;stroke-width:0.0352778"
         id="path292" />
      <path
         d="m 160.273,236.46177 c 0,1.89441 -0.2787,3.64419 -0.83609,5.24933 -0.56091,1.60161 -1.39347,2.98097 -2.50119,4.13456 -1.10772,1.15358 -2.49061,2.04611 -4.14514,2.68111 -1.65453,0.635 -3.56659,0.94897 -5.73617,0.94897 -2.02142,0 -3.85586,-0.29986 -5.49981,-0.90664 -1.64394,-0.60678 -3.05152,-1.48519 -4.2298,-2.63878 -1.12889,-1.10419 -2.00378,-2.48002 -2.61761,-4.11691 -0.61736,-1.63689 -0.92781,-3.429 -0.92781,-5.36928 0,-1.07245 0.06,-2.03906 0.17992,-2.90336 0.11994,-0.86078 0.27869,-1.65806 0.47272,-2.38831 0.21519,-0.76553 0.45861,-1.45697 0.72672,-2.08139 0.26811,-0.62089 0.51859,-1.16769 0.74436,-1.63689 h 6.1842 v 0.75495 c -0.27164,0.32102 -0.5962,0.72319 -0.97014,1.2065 -0.37747,0.48683 -0.74436,1.03716 -1.10772,1.65452 -0.36336,0.62795 -0.67028,1.30528 -0.92075,2.03906 -0.25047,0.73025 -0.37395,1.50989 -0.37395,2.34597 0,0.92428 0.14464,1.8027 0.43392,2.63525 0.28928,0.83256 0.77258,1.60514 1.44286,2.3107 0.65264,0.67733 1.50989,1.22061 2.58233,1.63689 1.07245,0.41627 2.37067,0.62441 3.8982,0.62441 1.59455,0 2.92805,-0.22225 3.99697,-0.67733 1.07245,-0.44803 1.91558,-1.016 2.52942,-1.70039 0.62795,-0.6985 1.07597,-1.47461 1.34056,-2.33186 0.26811,-0.85372 0.40216,-1.70039 0.40216,-2.53294 0,-0.80081 -0.11641,-1.59103 -0.3563,-2.37067 -0.23989,-0.78317 -0.56092,-1.50636 -0.97014,-2.16959 -0.33162,-0.55738 -0.68439,-1.07597 -1.05834,-1.55575 -0.37394,-0.47977 -0.6985,-0.87488 -0.97014,-1.1818 v -0.68792 h 6.09601 c 0.28575,0.64206 0.55386,1.25236 0.80433,1.83445 0.25047,0.58208 0.46919,1.19239 0.65264,1.83091 0.23989,0.83609 0.4198,1.61573 0.54681,2.34598 0.127,0.73377 0.18697,1.73566 0.18697,3.01625"
         style="fill:#ededc3;fill-opacity:1;fill-rule:nonzero;stroke:none;stroke-width:0.0352778"
         id="path272" />
      <path
         d="m 153.4926,206.52504 c -0.77611,-0.63853 -1.69333,-1.11125 -2.74813,-1.42169 -1.05481,-0.30692 -2.29659,-0.46214 -3.72534,-0.46214 -1.53105,0 -2.8328,0.17639 -3.90525,0.53269 -1.07244,0.35278 -1.94028,0.81492 -2.6035,1.38642 -0.68439,0.58208 -1.1818,1.25236 -1.48872,2.01083 -0.30692,0.762 -0.46214,1.55223 -0.46214,2.3742 0,0.83255 0.14817,1.61572 0.4445,2.35303 0.29633,0.7373 0.7867,1.41463 1.47461,2.02847 0.63853,0.5715 1.52047,1.03716 2.64584,1.397 1.12183,0.35983 2.42711,0.53975 3.9123,0.53975 1.51695,0 2.81164,-0.17286 3.87703,-0.52211 1.06892,-0.34925 1.94028,-0.80786 2.61408,-1.37936 0.67381,-0.5715 1.1677,-1.23825 1.48873,-2.00378 0.32103,-0.76553 0.47978,-1.56986 0.47978,-2.413 0,-0.84667 -0.16228,-1.651 -0.48684,-2.41653 -0.32808,-0.76553 -0.83255,-1.43228 -1.51695,-2.00378 z m -6.45583,-8.71714 c 4.064,0 7.29192,1.16417 9.68376,3.49603 2.39183,2.32833 3.58775,5.54567 3.58775,9.65553 0,4.09928 -1.19592,7.31308 -3.58775,9.64494 -2.39184,2.32834 -5.61976,3.4925 -9.68376,3.4925 -4.09928,0 -7.33778,-1.16416 -9.71903,-3.4925 -2.38125,-2.33186 -3.57011,-5.54566 -3.57011,-9.64494 0,-4.08517 1.18886,-7.29897 3.57011,-9.64142 2.38125,-2.33892 5.61975,-3.51014 9.71903,-3.51014"
         style="fill:#ededc3;fill-opacity:1;fill-rule:nonzero;stroke:none;stroke-width:0.0352778"
         id="path274" />
      <path
         d="M 159.77911,174.39757 V 192.7914 H 134.2768 v -6.57578 h 20.56695 v -11.81805 h 4.93536"
         style="fill:#ededc3;fill-opacity:1;fill-rule:nonzero;stroke:none;stroke-width:0.0352778"
         id="path276" />
      <path
         d="m 149.94719,157.02679 -9.13342,3.13619 9.13342,3.1362 z m 9.83192,-10.14942 v 6.79097 l -5.15761,1.77801 v 9.4368 l 5.15761,1.77447 v 6.6287 l -25.50231,-9.41917 v -7.57061 l 25.50231,-9.41917"
         style="fill:#ededc3;fill-opacity:1;fill-rule:nonzero;stroke:none;stroke-width:0.0352778"
         id="path278" />
    </g>
  </g>
</svg>
