<?xml version="1.0" encoding="UTF-8" standalone="no"?>
<!-- Created with Inkscape (http://www.inkscape.org/) -->

<svg
   width="121.62463mm"
   height="236.07727mm"
   viewBox="0 0 121.62464 236.07727"
   version="1.1"
   id="svg4558"
   sodipodi:docname="drink-orange.svg"
   inkscape:version="1.1.1 (3bf5ae0d25, 2021-09-20)"
   xmlns:inkscape="http://www.inkscape.org/namespaces/inkscape"
   xmlns:sodipodi="http://sodipodi.sourceforge.net/DTD/sodipodi-0.dtd"
   xmlns="http://www.w3.org/2000/svg"
   xmlns:svg="http://www.w3.org/2000/svg">
  <sodipodi:namedview
     id="namedview4560"
     pagecolor="#505050"
     bordercolor="#ffffff"
     borderopacity="1"
     inkscape:pageshadow="0"
     inkscape:pageopacity="0"
     inkscape:pagecheckerboard="1"
     inkscape:document-units="mm"
     showgrid="false"
     inkscape:zoom="0.78374771"
     inkscape:cx="-7.0175643"
     inkscape:cy="445.93432"
     inkscape:window-width="1920"
     inkscape:window-height="1001"
     inkscape:window-x="-9"
     inkscape:window-y="-9"
     inkscape:window-maximized="1"
     inkscape:current-layer="layer1" />
  <defs
     id="defs4555">
    <rect
       x="33.235472"
       y="725.3153"
       width="373.4103"
       height="95.796361"
       id="rect101498" />
    <rect
       x="15.640222"
       y="606.05861"
       width="365.59019"
       height="103.61647"
       id="rect70840" />
    <clipPath
       clipPathUnits="userSpaceOnUse"
       id="clipPath262">
      <path
         d="m 13714.5,18258.4 c 0,0.2 0,0.4 0,0.7 0,-0.3 0,-0.5 0,-0.7 m -3173.5,0 c 0,0.3 0,0.5 0,0.8 0,-0.3 0,-0.5 0,-0.8 m 0,1.1 c 0,0.1 0,0.2 0,0.3 0,-0.1 0,-0.2 0,-0.3 m 3048.1,134.8 c -0.1,0 -0.1,0 -0.1,0 0,0 0,0 0.1,0 m -0.7,0.1 c -0.1,0 -0.2,0 -0.2,0 0,0 0.1,0 0.2,0 m -0.8,0 c -0.1,0 -0.1,0 -0.2,0 0.1,0 0.1,0 0.2,0 m -1.4,0.1 h -0.1 0.1 m -0.5,0 c -0.1,0 -0.3,0 -0.4,0.1 0.1,-0.1 0.3,-0.1 0.4,-0.1 m -0.8,0.1 c -0.1,0 -0.3,0 -0.4,0 0.2,0 0.3,0 0.4,0 m -0.8,0 c -0.1,0 -0.3,0 -0.4,0 0.1,0 0.3,0 0.4,0 m -0.8,0 c -0.2,0 -0.3,0.1 -0.5,0.1 0.2,0 0.3,-0.1 0.5,-0.1 m -0.8,0.1 c -0.2,0 -0.5,0 -0.8,0 0.3,0 0.6,0 0.8,0 m -1,0 c -0.2,0 -0.4,0 -0.6,0 0.2,0 0.4,0 0.6,0 m -0.9,0 c -0.2,0 -0.3,0 -0.5,0 0.2,0 0.3,0 0.5,0 m -0.8,0 c -0.2,0 -0.4,0 -0.6,0 0.2,0 0.4,0 0.6,0 m -0.8,0 c -0.3,0 -0.6,0 -0.8,0 0.2,0 0.5,0 0.8,0"
         id="path260" />
    </clipPath>
    <clipPath
       clipPathUnits="userSpaceOnUse"
       id="clipPath262-0">
      <path
         d="m 13714.5,18258.4 c 0,0.2 0,0.4 0,0.7 0,-0.3 0,-0.5 0,-0.7 m -3173.5,0 c 0,0.3 0,0.5 0,0.8 0,-0.3 0,-0.5 0,-0.8 m 0,1.1 c 0,0.1 0,0.2 0,0.3 0,-0.1 0,-0.2 0,-0.3 m 3048.1,134.8 c -0.1,0 -0.1,0 -0.1,0 0,0 0,0 0.1,0 m -0.7,0.1 c -0.1,0 -0.2,0 -0.2,0 0,0 0.1,0 0.2,0 m -0.8,0 c -0.1,0 -0.1,0 -0.2,0 0.1,0 0.1,0 0.2,0 m -1.4,0.1 h -0.1 0.1 m -0.5,0 c -0.1,0 -0.3,0 -0.4,0.1 0.1,-0.1 0.3,-0.1 0.4,-0.1 m -0.8,0.1 c -0.1,0 -0.3,0 -0.4,0 0.2,0 0.3,0 0.4,0 m -0.8,0 c -0.1,0 -0.3,0 -0.4,0 0.1,0 0.3,0 0.4,0 m -0.8,0 c -0.2,0 -0.3,0.1 -0.5,0.1 0.2,0 0.3,-0.1 0.5,-0.1 m -0.8,0.1 c -0.2,0 -0.5,0 -0.8,0 0.3,0 0.6,0 0.8,0 m -1,0 c -0.2,0 -0.4,0 -0.6,0 0.2,0 0.4,0 0.6,0 m -0.9,0 c -0.2,0 -0.3,0 -0.5,0 0.2,0 0.3,0 0.5,0 m -0.8,0 c -0.2,0 -0.4,0 -0.6,0 0.2,0 0.4,0 0.6,0 m -0.8,0 c -0.3,0 -0.6,0 -0.8,0 0.2,0 0.5,0 0.8,0"
         id="path260-1" />
    </clipPath>
    <clipPath
       clipPathUnits="userSpaceOnUse"
       id="clipPath262-9">
      <path
         d="m 13714.5,18258.4 c 0,0.2 0,0.4 0,0.7 0,-0.3 0,-0.5 0,-0.7 m -3173.5,0 c 0,0.3 0,0.5 0,0.8 0,-0.3 0,-0.5 0,-0.8 m 0,1.1 c 0,0.1 0,0.2 0,0.3 0,-0.1 0,-0.2 0,-0.3 m 3048.1,134.8 c -0.1,0 -0.1,0 -0.1,0 0,0 0,0 0.1,0 m -0.7,0.1 c -0.1,0 -0.2,0 -0.2,0 0,0 0.1,0 0.2,0 m -0.8,0 c -0.1,0 -0.1,0 -0.2,0 0.1,0 0.1,0 0.2,0 m -1.4,0.1 h -0.1 0.1 m -0.5,0 c -0.1,0 -0.3,0 -0.4,0.1 0.1,-0.1 0.3,-0.1 0.4,-0.1 m -0.8,0.1 c -0.1,0 -0.3,0 -0.4,0 0.2,0 0.3,0 0.4,0 m -0.8,0 c -0.1,0 -0.3,0 -0.4,0 0.1,0 0.3,0 0.4,0 m -0.8,0 c -0.2,0 -0.3,0.1 -0.5,0.1 0.2,0 0.3,-0.1 0.5,-0.1 m -0.8,0.1 c -0.2,0 -0.5,0 -0.8,0 0.3,0 0.6,0 0.8,0 m -1,0 c -0.2,0 -0.4,0 -0.6,0 0.2,0 0.4,0 0.6,0 m -0.9,0 c -0.2,0 -0.3,0 -0.5,0 0.2,0 0.3,0 0.5,0 m -0.8,0 c -0.2,0 -0.4,0 -0.6,0 0.2,0 0.4,0 0.6,0 m -0.8,0 c -0.3,0 -0.6,0 -0.8,0 0.2,0 0.5,0 0.8,0"
         id="path260-4" />
    </clipPath>
    <clipPath
       clipPathUnits="userSpaceOnUse"
       id="clipPath262-0-8">
      <path
         d="m 13714.5,18258.4 c 0,0.2 0,0.4 0,0.7 0,-0.3 0,-0.5 0,-0.7 m -3173.5,0 c 0,0.3 0,0.5 0,0.8 0,-0.3 0,-0.5 0,-0.8 m 0,1.1 c 0,0.1 0,0.2 0,0.3 0,-0.1 0,-0.2 0,-0.3 m 3048.1,134.8 c -0.1,0 -0.1,0 -0.1,0 0,0 0,0 0.1,0 m -0.7,0.1 c -0.1,0 -0.2,0 -0.2,0 0,0 0.1,0 0.2,0 m -0.8,0 c -0.1,0 -0.1,0 -0.2,0 0.1,0 0.1,0 0.2,0 m -1.4,0.1 h -0.1 0.1 m -0.5,0 c -0.1,0 -0.3,0 -0.4,0.1 0.1,-0.1 0.3,-0.1 0.4,-0.1 m -0.8,0.1 c -0.1,0 -0.3,0 -0.4,0 0.2,0 0.3,0 0.4,0 m -0.8,0 c -0.1,0 -0.3,0 -0.4,0 0.1,0 0.3,0 0.4,0 m -0.8,0 c -0.2,0 -0.3,0.1 -0.5,0.1 0.2,0 0.3,-0.1 0.5,-0.1 m -0.8,0.1 c -0.2,0 -0.5,0 -0.8,0 0.3,0 0.6,0 0.8,0 m -1,0 c -0.2,0 -0.4,0 -0.6,0 0.2,0 0.4,0 0.6,0 m -0.9,0 c -0.2,0 -0.3,0 -0.5,0 0.2,0 0.3,0 0.5,0 m -0.8,0 c -0.2,0 -0.4,0 -0.6,0 0.2,0 0.4,0 0.6,0 m -0.8,0 c -0.3,0 -0.6,0 -0.8,0 0.2,0 0.5,0 0.8,0"
         id="path260-1-3" />
    </clipPath>
  </defs>
  <g
     inkscape:label="Layer 1"
     inkscape:groupmode="layer"
     id="layer1"
     transform="translate(-70.50342,-38.97935)">
    <g
       id="g121036">
      <path
         d="M 70.50342,259.76017 H 191.73833 V 58.64613 H 70.50342 Z"
         style="fill:#ffd43f;fill-opacity:1;fill-rule:nonzero;stroke:none;stroke-width:0.0352778"
         id="path16" />
      <path
         d="m 70.50356,259.76017 9.63084,15.29645 h 50.98637 V 259.76017 H 70.50356"
         style="fill:#ced5d0;fill-opacity:1;fill-rule:nonzero;stroke:none;stroke-width:0.0352778"
         id="path18" />
      <path
         d="m 191.73823,259.76017 -9.63084,15.29645 h -50.98627 v -15.29645 h 60.61711"
         style="fill:#ced5d0;fill-opacity:1;fill-rule:nonzero;stroke:none;stroke-width:0.0352778"
         id="path20" />
      <path
         d="m 70.50342,58.64507 9.20651,-10.04711 h 51.41119 v 10.04711 h -60.6177"
         style="fill:#ced5d0;fill-opacity:1;fill-rule:nonzero;stroke:none;stroke-width:0.0352778"
         id="path22" />
      <path
         d="m 191.73823,58.64507 -9.20644,-10.04711 h -51.41067 v 10.04711 h 60.61711"
         style="fill:#ced5d0;fill-opacity:1;fill-rule:nonzero;stroke:none;stroke-width:0.0352778"
         id="path24" />
      <path
         d="M 182.28837,48.59796 H 79.95317 c -2.6556,0 -4.80853,-2.15547 -4.80853,-4.80836 0,-2.65642 2.15293,-4.80836 4.80853,-4.80836 h 102.3352 c 2.65571,0 4.80871,2.15194 4.80871,4.80836 0,2.65289 -2.153,4.80836 -4.80871,4.80836"
         style="fill:#ced5d0;fill-opacity:1;fill-rule:nonzero;stroke:none;stroke-width:0.0352778"
         id="path26" />
      <path
         d="m 187.09708,43.7896 c 0,-0.007 0,-0.0141 0,-0.0247 0,0.0106 0,0.0176 0,0.0247 m -111.95244,0 c 0,-0.0106 0,-0.0176 1.4e-4,-0.0282 -1.4e-4,0.0106 -1.4e-4,0.0176 -1.4e-4,0.0282 m 1.4e-4,-0.0388 c 0,-0.004 1.4e-4,-0.007 1.4e-4,-0.0106 0,0.004 -1.4e-4,0.007 -1.4e-4,0.0106 M 182.6736,38.99535 c -0.001,0 -0.003,0 -0.004,0 0.001,0 0.003,0 0.004,0 m -0.0254,-0.004 c -0.002,0 -0.004,0 -0.006,0 0.002,0 0.004,0 0.006,0 m -0.0265,0 c -0.002,0 -0.005,0 -0.007,0 0.002,0 0.005,0 0.007,0 m -0.0504,-0.004 c -3.6e-4,0 -0.001,0 -0.001,0 3.5e-4,0 0.001,0 0.001,0 m -0.0169,0 c -0.004,0 -0.009,0 -0.013,-0.004 0.004,0.004 0.009,0.004 0.013,0.004 m -0.0268,-0.004 c -0.005,0 -0.0102,0 -0.0152,0 0.005,0 0.01,0 0.0152,0 m -0.0286,0 c -0.005,0 -0.0106,0 -0.0155,0 0.005,0 0.0102,0 0.0155,0 m -0.0279,0 c -0.007,0 -0.0134,-0.004 -0.0201,-0.004 0.007,0 0.0134,0.004 0.0201,0.004 m -0.0289,-0.004 c -0.009,0 -0.0183,0 -0.0275,0 0.009,0 0.0187,0 0.0275,0 m -0.037,0 c -0.006,0 -0.0127,0 -0.0187,0 0.006,0 0.0123,0 0.0187,0 m -0.0303,0 c -0.006,0 -0.012,0 -0.0183,0 0.006,0 0.0123,0 0.0183,0 m -0.0286,0 c -0.007,0 -0.013,0 -0.0198,0 0.007,0 0.0131,0 0.0198,0 m -0.0289,0 c -0.01,0 -0.019,0 -0.0289,0 0.01,0 0.0194,0 0.0289,0"
         style="fill:#d2d2d8;fill-opacity:1;fill-rule:nonzero;stroke:none;stroke-width:0.0352778"
         id="path28" />
      <path
         d="M 182.28837,48.59796 H 79.95317 v 0 c -2.6556,0 -4.80853,-2.15547 -4.80853,-4.80836 v 0 c 0,-0.0106 0,-0.0176 1.4e-4,-0.0282 0,-0.004 0,-0.007 0,-0.0106 0,-0.004 1.4e-4,-0.007 1.4e-4,-0.0106 0.005,-0.44097 0.0718,-0.8643 0.18715,-1.27 0.57312,2.01436 2.42287,3.4925 4.6211,3.4925 h 76.31184 c 0.33196,-0.65264 0.52317,-1.38994 0.52317,-2.17311 0,-2.65642 -2.15265,-4.80836 -4.80801,-4.80836 h 30.3082 v 0 c 0.01,0 0.0194,0 0.0289,0 0.003,0 0.006,0 0.009,0 0.007,0 0.0131,0 0.0198,0 0.004,0 0.007,0 0.0102,0 0.006,0 0.0123,0 0.0183,0 0.004,0 0.008,0 0.0116,0 0.006,0 0.0123,0 0.0187,0 0.003,0 0.006,0 0.01,0 0.009,0 0.0183,0 0.0275,0 0.003,0 0.006,0 0.009,0 0.007,0 0.0134,0.004 0.0201,0.004 0.004,0 0.008,0 0.0123,0 0.005,0 0.0102,0 0.0155,0 0.004,0 0.009,0 0.0134,0 0.005,0 0.01,0 0.0152,0 0.005,0 0.009,0 0.0138,0 0.004,0.004 0.009,0.004 0.013,0.004 0.005,0 0.0102,0 0.0155,0 3.5e-4,0 0.001,0 0.001,0 0.0145,0 0.0289,0.004 0.0434,0.004 0.002,0 0.005,0 0.007,0 0.007,0 0.0134,0 0.0201,0 0.002,0 0.004,0 0.006,0 0.007,0.004 0.0141,0.004 0.0212,0.004 0.001,0 0.003,0 0.004,0 2.02706,0.16228 3.69676,1.58045 4.23616,3.47486 0.0543,0.1905 0.0952,0.38806 0.12594,0.58561 0.006,0.0353 0.0109,0.0706 0.0155,0.10584 0.0261,0.19755 0.0445,0.39864 0.0459,0.60325 0,0.0106 0,0.0176 0,0.0247 v 0 c 0,2.65289 -2.153,4.80836 -4.80871,4.80836"
         style="fill:#b1b5b9;fill-opacity:1;fill-rule:nonzero;stroke:none;stroke-width:0.0352778"
         id="path30" />
      <path
         d="m 191.73823,156.32572 c -5.32977,1.59456 -11.0423,1.91911 -16.49766,0.81844 -5.3086,-1.06891 -10.31839,-3.39372 -15.66509,-4.2545 -9.68023,-1.55575 -20.0459,2.16253 -26.52925,9.51442 -2.53682,2.87867 -4.49298,6.24064 -7.12188,9.03464 -7.25417,7.7082 -18.86937,10.07181 -29.32606,8.42786 -7.32931,-1.15005 -14.33813,-4.02872 -21.72085,-4.7625 -1.34041,-0.13405 -2.8316,-0.18697 -4.37402,-0.13053 v 84.70548 H 191.73823 V 156.32572"
         style="fill:#ffc800;fill-opacity:1;fill-rule:nonzero;stroke:none;stroke-width:0.0352778"
         id="path32" />
      <path
         d="m 86.96322,113.89361 c -15.11857,20.6763 -10.93399,49.73461 9.55322,65.27447 20.48757,15.54339 49.59845,11.74045 65.43358,-8.38905 l -74.9868,-56.88542"
         style="fill:#77bb63;fill-opacity:1;fill-rule:nonzero;stroke:none;stroke-width:0.0352778"
         id="path34" />
      <path
         d="m 89.41785,115.75627 c -13.82134,18.91595 -9.66283,45.7447 9.48302,60.26856 19.14631,14.52386 46.10347,11.29947 60.59417,-7.10847 L 89.41785,115.75627"
         style="fill:#e6f9b4;fill-opacity:1;fill-rule:nonzero;stroke:none;stroke-width:0.0352778"
         id="path36" />
      <path
         d="m 92.0217,117.73183 c -12.9739,17.74472 -9.26888,42.77078 8.45432,56.21514 17.72356,13.44789 42.82194,10.26936 56.41552,-7.00264 L 92.0217,117.73183"
         style="fill:#f7b719;fill-opacity:1;fill-rule:nonzero;stroke:none;stroke-width:0.0352778"
         id="path38" />
      <path
         d="m 123.83062,141.86183 1.25201,0.94897 -24.70221,32.56492 -1.25201,-0.94897 24.70221,-32.56492"
         style="fill:#e6f9b4;fill-opacity:1;fill-rule:nonzero;stroke:none;stroke-width:0.0352778"
         id="path40" />
      <path
         d="m 123.90647,143.06127 -37.79133,10.42106 -1.5113,-2.48003 39.22678,-9.14047 0.0423,0.67028 0.0335,0.52916"
         style="fill:#e6f9b4;fill-opacity:1;fill-rule:nonzero;stroke:none;stroke-width:0.0352778"
         id="path42" />
      <path
         d="m 84.96474,128.78788 c 0.3249,0.10937 38.90821,13.74423 38.90821,13.74423 l -0.0423,-0.67028 -38.44537,-14.52739 -0.42051,1.45344"
         style="fill:#e6f9b4;fill-opacity:1;fill-rule:nonzero;stroke:none;stroke-width:0.0352778"
         id="path44" />
      <path
         d="m 124.07298,144.1443 -2.65818,39.01017 1.56315,0.0952 1.68558,-39.88506 -0.59055,0.77964"
         style="fill:#e6f9b4;fill-opacity:1;fill-rule:nonzero;stroke:none;stroke-width:0.0352778"
         id="path46" />
      <path
         d="m 147.7927,177.12903 -23.91975,-34.59692 -0.0423,-0.67028 25.01194,33.88431 -1.04986,1.38289"
         style="fill:#e6f9b4;fill-opacity:1;fill-rule:nonzero;stroke:none;stroke-width:0.0352778"
         id="path48" />
      <path
         d="m 158.32382,142.05586 c -5.6709,0 -10.26795,-4.60023 -10.26795,-10.26936 0,-5.67267 4.59705,-10.26937 10.26795,-10.26937 0.43109,0 0.85513,0.0282 1.27212,0.0776 v 20.37997 c -0.41699,0.0529 -0.84103,0.0811 -1.27212,0.0811"
         style="fill:#ffe83f;fill-opacity:1;fill-rule:nonzero;stroke:none;stroke-width:0.0352778"
         id="path50" />
      <path
         d="m 119.19688,118.80075 c -5.6709,0 -10.2683,-4.5967 -10.2683,-10.26937 0,-5.66914 4.5974,-10.26936 10.2683,-10.26936 5.67055,0 10.26795,4.60022 10.26795,10.26936 0,5.67267 -4.5974,10.26937 -10.26795,10.26937"
         style="fill:#ffe83f;fill-opacity:1;fill-rule:nonzero;stroke:none;stroke-width:0.0352778"
         id="path52" />
      <path
         d="m 146.36959,98.26202 c -4.17477,0 -7.55932,-3.38314 -7.55932,-7.5565 0,-4.17689 3.38455,-7.56003 7.55932,-7.56003 4.17477,0 7.55897,3.38314 7.55897,7.56003 0,4.17336 -3.3842,7.5565 -7.55897,7.5565"
         style="fill:#ffe83f;fill-opacity:1;fill-rule:nonzero;stroke:none;stroke-width:0.0352778"
         id="path54" />
      <path
         d="m 182.49757,275.05662 h -29.39416 29.00398 l 9.63084,-15.29645 h -32.14229 32.14229 v -0.0811 -103.35331 0 -97.68065 L 182.53179,48.598 h 0.14675 l 9.44951,10.04711 v 201.1151 l -9.63048,15.29645"
         style="fill:#e0dfe4;fill-opacity:1;fill-rule:nonzero;stroke:none;stroke-width:0.0352778"
         id="path56" />
      <path
         d="m 191.73823,259.76017 h -32.14229 v -0.0811 h 32.14229 v 0.0811 m -9.96245,-101.97042 c -2.19251,0 -4.38361,-0.21167 -6.53521,-0.64559 -5.30189,-1.06539 -10.30534,-3.39019 -15.64463,-4.25097 v -10.91847 c 5.07083,-0.62442 8.99618,-4.94947 8.99618,-10.18822 0,-5.23875 -3.92535,-9.56381 -8.99618,-10.19175 V 58.64507 h 32.14229 v 97.68065 c -3.22757,0.96661 -6.59624,1.46403 -9.96245,1.46403"
         style="fill:#ffcc28;fill-opacity:1;fill-rule:nonzero;stroke:none;stroke-width:0.0352778"
         id="path58" />
      <path
         d="m 182.10739,275.05662 h -29.00398 l 6.49253,-15.29645 h 32.14229 l -9.63084,15.29645"
         style="fill:#babfc0;fill-opacity:1;fill-rule:nonzero;stroke:none;stroke-width:0.0352778"
         id="path60" />
      <path
         d="m 191.73823,58.64507 v 0 h -32.14229 l -7.90399,-10.04711 h 30.83984 l 9.20644,10.04711"
         style="fill:#babfc0;fill-opacity:1;fill-rule:nonzero;stroke:none;stroke-width:0.0352778"
         id="path62" />
      <path
         d="m 191.73823,259.67903 v 0 h -32.14229 v -86.1307 c 0.8128,-0.88547 1.59914,-1.80975 2.35408,-2.7693 l -2.35408,-1.78506 v -16.10078 c 5.33929,0.86078 10.34274,3.18558 15.64463,4.25097 2.1516,0.43392 4.3427,0.64559 6.53521,0.64559 3.36621,0 6.73488,-0.49742 9.96245,-1.46403 v 0 103.35331"
         style="fill:#ffbc00;fill-opacity:1;fill-rule:nonzero;stroke:none;stroke-width:0.0352778"
         id="path64" />
      <path
         d="m 159.59594,173.54833 v -4.55436 l 2.35408,1.78506 c -0.75494,0.95955 -1.54128,1.88383 -2.35408,2.7693"
         style="fill:#77ab6c;fill-opacity:1;fill-rule:nonzero;stroke:none;stroke-width:0.0352778"
         id="path66" />
      <path
         d="m 159.59594,141.97472 v -20.37997 c 5.07083,0.62794 8.99618,4.953 8.99618,10.19175 0,5.23875 -3.92535,9.5638 -8.99618,10.18822"
         style="fill:#ffdd3f;fill-opacity:1;fill-rule:nonzero;stroke:none;stroke-width:0.0352778"
         id="path68" />
      <path
         d="m 97.67849,180.0218 c -0.36124,-0.0459 -0.72143,-0.0988 -1.0802,-0.15522 -5.74005,-0.89958 -11.28289,-2.86103 -16.96318,-4.02166 -0.016,-0.26459 -0.0287,-0.52917 -0.0387,-0.79023 -0.32233,-8.36789 -0.64467,-16.73578 -0.96711,-25.10719 2.00421,11.23597 8.07639,21.77697 17.88714,29.22058 0.38383,0.29281 0.77223,0.57503 1.16205,0.85372 M 78.12811,136.93352 c -0.40583,-10.53394 -0.81167,-21.06789 -1.2175,-31.60183 -0.15558,-4.04283 -0.30399,-8.14917 0.88099,-12.05442 1.24269,-4.09575 5.15666,-5.96194 9.31344,-5.96194 4.45523,0 9.18986,2.14489 11.21269,5.98664 1.83374,3.48544 1.56951,7.41891 1.30951,11.18658 -0.42051,6.08894 -0.74189,12.18142 -0.9645,18.28095 l -11.69952,-8.87589 c -5.12036,7.00264 -8.02661,14.96836 -8.83511,23.03991"
         style="fill:#ffe83f;fill-opacity:1;fill-rule:nonzero;stroke:none;stroke-width:0.0352778"
         id="path88" />
      <path
         d="m 88.52744,187.35253 c -0.86149,0 -1.72614,-0.127 -2.56752,-0.40217 -4.88724,-1.59456 -6.05924,-6.68514 -6.32481,-11.10544 5.68029,1.16063 11.22313,3.12208 16.96318,4.02166 0.35877,0.0564 0.71896,0.10936 1.0802,0.15522 0.17886,0.127 0.35702,0.254 0.53728,0.37748 -0.23248,0.65969 -0.52316,1.30527 -0.88582,1.93322 -1.62066,2.79753 -5.18724,5.02003 -8.80251,5.02003"
         style="fill:#f7d219;fill-opacity:1;fill-rule:nonzero;stroke:none;stroke-width:0.0352778"
         id="path90" />
      <path
         d="m 98.21577,180.39928 c -0.18026,-0.12348 -0.35842,-0.25048 -0.53728,-0.37748 -0.38982,-0.27869 -0.77822,-0.56091 -1.16205,-0.85372 -9.81075,-7.44361 -15.88293,-17.98461 -17.88714,-29.22058 -0.16704,-4.33917 -0.33418,-8.67481 -0.50119,-13.01398 0.8085,-8.07155 3.71475,-16.03727 8.83511,-23.03991 l 11.69952,8.87589 v 0 l -9.24489,-7.01323 c -13.82134,18.91595 -9.66283,45.7447 9.48302,60.26856 0.0399,0.0317 0.0804,0.06 0.1203,0.0917 -0.091,1.46403 -0.32033,2.90336 -0.8054,4.28272"
         style="fill:#a6d399;fill-opacity:1;fill-rule:nonzero;stroke:none;stroke-width:0.0352778"
         id="path92" />
      <path
         d="m 99.02117,176.11655 c -0.0399,-0.0317 -0.0804,-0.06 -0.1203,-0.0917 -19.14585,-14.52386 -23.30436,-41.35261 -9.48302,-60.26856 l 9.24489,7.01323 v 0 l -6.64104,-5.03767 c -2.31387,3.16442 -4.09751,6.56167 -5.3654,10.08239 l -1.27105,-0.47978 -0.42051,1.45344 c 0.0332,0.0106 0.46637,0.16228 1.21637,0.42687 -2.24543,7.04497 -2.47085,14.52739 -0.79375,21.60764 l -0.78352,0.17991 1.50707,2.47298 c 2.2666,7.32719 6.62376,14.097 12.93178,19.33575 0.037,1.10066 0.0466,2.20839 -0.0215,3.30553"
         style="fill:#effbce;fill-opacity:1;fill-rule:nonzero;stroke:none;stroke-width:0.0352778"
         id="path94" />
      <path
         d="M 99.04269,172.81103 C 92.73467,167.57228 88.37751,160.80247 86.11091,153.47527 l 0.004,0.007 12.21247,-3.36902 c 0.0832,6.94619 0.29421,13.88886 0.63358,20.83153 0.03,0.61736 0.0603,1.24177 0.0815,1.86619 M 85.38713,150.82243 c -1.6771,-7.08025 -1.45168,-14.56267 0.79375,-21.60764 2.13008,0.75141 6.81885,2.40947 12.192,4.30742 -0.0833,4.7625 -0.10583,9.525 -0.0681,14.2875 l -12.91767,3.01272 m 13.00904,-18.57022 -11.7401,-4.43795 c 1.26789,-3.52072 3.05153,-6.91797 5.3654,-10.08239 l 6.64104,5.03767 c -0.11535,3.15736 -0.2039,6.32177 -0.26634,9.48267"
         style="fill:#ffd93f;fill-opacity:1;fill-rule:nonzero;stroke:none;stroke-width:0.0352778"
         id="path96" />
      <path
         d="m 86.11514,153.48233 -0.004,-0.007 -1.50707,-2.47297 0.78352,-0.17992 12.91767,-3.01272 c 0.006,0.76905 0.0134,1.53811 0.0226,2.30364 l -12.21247,3.36903"
         style="fill:#effbce;fill-opacity:1;fill-rule:nonzero;stroke:none;stroke-width:0.0352778"
         id="path98" />
      <path
         d="m 98.37311,133.52216 c -5.37315,-1.89794 -10.06192,-3.556 -12.192,-4.30741 -0.75,-0.26459 -1.18321,-0.41628 -1.21637,-0.42687 l 0.42051,-1.45344 1.27105,0.47978 11.7401,4.43794 c -0.008,0.42334 -0.0159,0.84667 -0.0233,1.27"
         style="fill:#effbce;fill-opacity:1;fill-rule:nonzero;stroke:none;stroke-width:0.0352778"
         id="path100" />
      <path
         d="m 85.85409,79.29316 c -3.03354,0 -6.0693,-1.95792 -7.11553,-4.83658 -1.25099,-3.44312 0.52698,-7.70114 3.85523,-9.2322 0.29132,-0.13053 0.63387,-0.23989 0.95137,-0.23989 0.26423,0 0.51153,0.0741 0.69709,0.26811 l 0.69285,-0.66322 c 0.21943,-0.0247 0.43815,-0.0353 0.65723,-0.0353 3.41982,0 6.719,2.64936 7.34695,6.0325 0.66781,3.60186 -1.78506,7.51064 -5.31954,8.47373 -0.57855,0.15522 -1.17193,0.23283 -1.76565,0.23283"
         style="fill:#ffe83f;fill-opacity:1;fill-rule:nonzero;stroke:none;stroke-width:0.0352778"
         id="path102" />
      <path
         d="m 170.45741,241.19876 q 3.43958,0 5.76571,2.19384 2.3592,2.23793 2.3592,5.66649 0,3.40651 -2.38125,5.65547 -2.32613,2.20486 -5.74366,2.20486 -3.42856,0 -5.76571,-2.20486 -2.39227,-2.24896 -2.39227,-5.65547 0,-3.38446 2.39227,-5.64444 2.3592,-2.21589 5.76571,-2.21589 z m -0.022,4.17821 q -1.65365,0 -2.8112,1.00322 -1.21267,1.0473 -1.21267,2.6789 0,1.55443 1.25677,2.63481 1.21267,1.04731 2.78915,1.04731 1.68672,0 2.81119,-0.98117 1.1796,-1.03628 1.1796,-2.70095 0,-1.55443 -1.24574,-2.64583 -1.19063,-1.03629 -2.7671,-1.03629 z"
         style="font-weight:bold;font-size:85.3333px;line-height:1.25;font-family:'Berlin Sans FB Demi';-inkscape-font-specification:'Berlin Sans FB Demi Bold';white-space:pre;fill:#e8ffee;stroke-width:0.264583"
         id="path114433" />
      <path
         d="m 178.06418,226.41518 q 0.0772,0 0.11024,0.22048 0.0662,0.41893 0.0662,2.10564 0,1.44419 -0.0662,1.96233 -0.0331,0.24253 -0.0551,0.27561 -0.0331,0.0661 -0.22049,0.15434 -0.42995,0.16536 -1.27882,0.48507 -1.10242,0.42994 -3.25216,1.34496 -0.42995,0.19844 -0.47405,0.91502 0.022,-0.33073 0.022,1.1355 0,0.16537 0.56224,0.16537 0.74965,0 2.23793,-0.1323 1.48828,-0.14331 2.23794,-0.14331 0.18741,0 0.22048,0.0992 0.011,0.15434 0.022,0.30868 0.0441,0.65043 0.0441,2.02847 0,1.57647 -0.0661,1.89618 -0.0661,0.3197 -0.34175,0.3197 -1.21267,0 -3.66007,-0.11024 -2.44739,-0.12127 -3.67109,-0.12127 -4.66328,0 -7.27604,0.20947 l -0.15434,0.011 q -0.18741,0.011 -0.25356,-0.34176 -0.0661,-0.3638 -0.13229,-3.37343 -0.0441,-2.0395 -0.0441,-3.25217 0,-2.51354 1.1355,-4.10104 1.27883,-1.79696 3.69315,-1.79696 1.60954,0 2.56866,0.46302 0.95911,0.46302 1.86311,1.70877 0.17638,0.25356 0.33072,0.25356 -0.011,0 2.7671,-1.34497 2.77813,-1.34496 3.06476,-1.34496 z m -9.8888,4.6302 q -1.34496,0 -1.86311,0.88195 -0.39687,0.6835 -0.39687,2.13871 0,1.04731 0.3197,1.11346 0.37483,0.0661 2.16077,0.0661 0.25355,0 0.74965,-0.011 0.49609,-0.011 0.73863,-0.011 0.0551,0 0.11024,-0.35278 0.0992,-0.67248 0.0992,-1.41111 0,-2.41432 -1.91823,-2.41432 z"
         style="font-weight:bold;font-size:85.3333px;line-height:1.25;font-family:'Berlin Sans FB Demi';-inkscape-font-specification:'Berlin Sans FB Demi Bold';white-space:pre;fill:#e8ffee;stroke-width:0.264583"
         id="path114435" />
      <path
         d="m 177.89881,210.62838 q 0.19844,0 0.27561,0.27561 0.0882,0.33073 0.0882,2.05051 0,1.57648 -0.0882,2.02848 -0.0772,0.37482 -0.49609,0.47404 -1.5875,0.37483 -1.69774,0.58429 -0.0772,0.17639 -0.0772,2.95451 0,1.87413 0.0992,1.9954 0.17639,0.18741 1.1796,0.41892 0.91502,0.20947 0.99219,0.50712 0.0882,0.37483 0.0882,2.51354 0,1.68672 -0.3197,1.68672 -0.28663,0 -7.04453,-2.49149 -7.30911,-2.70096 -8.03671,-2.93247 -0.41893,-0.13229 -0.41893,-0.30867 0,-0.29766 0.0551,-0.91502 0.0551,-0.62839 0.0551,-0.93707 0,-0.29765 -0.0331,-0.87092 -0.0441,-0.58429 -0.0441,-0.87092 0,-0.20946 0.3638,-0.38585 1.15755,-0.54019 7.9375,-3.15295 6.82404,-2.62378 7.12169,-2.62378 z m -10.04313,7.81623 q 0.48507,0.23151 2.10564,0.78272 1.71979,0.59532 2.01744,0.59532 0.19844,0 0.22049,-0.66146 0.022,-0.34176 0.022,-1.12448 0,-0.72761 -0.17639,-0.80478 -0.0551,-0.022 -0.15434,-0.022 -0.3638,0 -2.00642,0.50712 -1.5875,0.4961 -2.02847,0.7276 z"
         style="font-weight:bold;font-size:85.3333px;line-height:1.25;font-family:'Berlin Sans FB Demi';-inkscape-font-specification:'Berlin Sans FB Demi Bold';white-space:pre;fill:#e8ffee;stroke-width:0.264583"
         id="path114437" />
      <path
         d="m 163.04908,194.75338 q 1.25677,0 3.78134,0.11025 2.51354,0.0992 3.78133,0.0992 h 7.26501 q 0.29766,0 0.29766,0.3197 0,0.26458 0.022,0.80478 0.022,0.52916 0.022,0.79374 0,0.28664 -0.0441,0.8599 -0.0441,0.57326 -0.0441,0.85989 0,0.19844 -0.3638,0.47405 -1.06935,0.79375 -4.74045,3.57187 -1.02525,0.76068 -3.02066,2.31511 -0.0661,0.0441 -0.13229,0.16536 0.0772,0.0882 0.24254,0.0882 1.27882,0 3.83645,-0.0661 2.55764,-0.0772 3.83646,-0.0772 0.38585,0 0.38585,0.29765 v 3.81441 q 0,0.31971 -0.34175,0.31971 -1.19063,0 -3.59392,-0.11025 -2.4033,-0.12126 -3.60495,-0.12126 -1.26779,0 -3.79236,0.11024 -2.52456,0.0992 -3.78133,0.0992 -0.24254,0 -0.24254,-0.42995 0,-0.63941 -0.0882,-1.57647 -0.022,-0.22049 -0.14332,-0.87092 -0.0992,-0.55122 -0.0992,-0.87092 0,-0.1323 0.37483,-0.4079 l 5.63342,-4.11207 q 0.76067,-0.55121 2.2269,-1.66467 0.34176,-0.2756 0.34176,-0.47404 0,-0.14332 -0.8599,-0.14332 -1.15755,0 -3.48368,0.1323 -2.32612,0.12126 -3.4947,0.12126 -0.4079,0 -0.4079,-0.23151 0,-0.66145 -0.0551,-1.9954 -0.0551,-1.33394 -0.0551,-1.99539 0,-0.20947 0.34175,-0.20947 z"
         style="font-weight:bold;font-size:85.3333px;line-height:1.25;font-family:'Berlin Sans FB Demi';-inkscape-font-specification:'Berlin Sans FB Demi Bold';white-space:pre;fill:#e8ffee;stroke-width:0.264583"
         id="path114439" />
      <path
         d="m 177.82164,178.19489 q 0.29766,-0.022 0.29766,0.30867 0,0.20947 -0.24254,1.21268 -0.24253,0.99218 -0.33072,1.22369 0.90399,2.30408 0.90399,4.42075 0,3.40651 -2.27101,5.58932 -2.23793,2.16076 -5.65547,2.16076 -3.4947,0 -5.79878,-2.09461 -2.38125,-2.16077 -2.38125,-5.61137 0,-1.67569 0.63942,-3.15295 0.70555,-1.59853 1.98437,-2.51354 0.26458,-0.18741 0.37482,-0.18741 0.35278,0 1.5875,0.99218 1.2237,0.98116 1.2237,1.2678 0,0.0661 -0.452,0.50711 -0.54018,0.54019 -0.83784,1.10243 -0.452,0.83785 -0.452,1.85209 0,1.65364 1.23472,2.62378 1.13551,0.90399 2.83325,0.90399 1.79696,0 2.84427,-0.93706 1.08038,-0.97014 1.08038,-2.74506 0,-1.12447 -0.56224,-2.51353 -0.3638,0.0331 -1.85208,0.19843 -1.14653,0.14332 -1.85208,0.14332 -0.20946,0 -0.25356,-0.14332 -0.022,-0.0551 -0.022,-0.17639 0,-0.3197 0.0661,-0.95911 0.0551,-0.65043 0.0551,-0.98116 0,-0.35278 -0.0441,-1.05834 -0.0551,-0.70555 -0.0551,-1.05833 0,-0.27561 0.36381,-0.27561 0.52916,0 1.59852,0.0661 1.06936,0.0551 1.59852,0.0551 1.42214,0 4.25538,-0.20946 z"
         style="font-weight:bold;font-size:85.3333px;line-height:1.25;font-family:'Berlin Sans FB Demi';-inkscape-font-specification:'Berlin Sans FB Demi Bold';white-space:pre;fill:#e8ffee;stroke-width:0.264583"
         id="path114441" />
      <path
         d="m 174.74586,165.3626 q 0.47405,0 1.74184,0.18742 1.37804,0.19843 1.64262,0.35277 0.20947,0.1323 0.20947,0.36381 0,0.0992 -0.0331,0.33073 -0.11024,0.80477 -0.11024,4.69635 0,0.84887 -0.011,2.52456 -0.011,1.67569 -0.011,2.51354 0,0.3638 -0.3197,0.3638 -1.23472,0 -3.70417,-0.13229 -2.48046,-0.14331 -3.71519,-0.14331 -1.25677,0 -4.68532,0.13229 -0.88195,0.0331 -2.63481,0.12127 l -0.15434,0.011 q -0.25356,0.022 -0.25356,-0.27561 0,-0.8158 0.0441,-2.44739 0.0441,-1.64262 0.0441,-2.45842 0,-0.80478 -0.0441,-2.42535 -0.0441,-1.62057 -0.0441,-2.42534 0,-0.57327 0.42995,-0.66146 0.25355,-0.0551 1.5434,-0.16537 1.27882,-0.12126 1.55443,-0.12126 0.23151,0 0.23151,0.22048 0,0.0661 -0.011,0.23151 -0.24253,2.93247 -0.24253,5.26962 0,0.58429 0.27561,0.71658 0.13229,0.0551 0.84887,0.0551 0.74965,0 0.99218,-0.22049 0.20947,-0.18741 0.20947,-0.71658 0,-0.11024 -0.011,-0.42994 -0.022,-0.31971 -0.022,-0.52917 0,-1.38906 -0.0772,-2.8112 -0.011,-0.12126 -0.0551,-0.60633 -0.0441,-0.37483 -0.0441,-0.59532 0,-0.26458 0.25356,-0.26458 -0.23151,0 1.68672,0.19844 0.88194,0.0882 1.76389,0.0882 0.22049,0 0.22049,0.31971 0,0 -0.11025,0.99219 -0.0661,0.62838 -0.0661,2.86631 v 1.16858 q 0,0.45199 0.22048,0.52917 0.0551,0.011 0.68351,0.011 0.83784,0 1.08038,-0.11024 0.41892,-0.18742 0.49609,-1.41112 0,0.022 0,-1.60954 0,-0.58429 -0.0992,-1.73082 -0.11025,-1.15755 -0.11025,-1.73081 0,-0.24254 0.39688,-0.24254 z"
         style="font-weight:bold;font-size:85.3333px;line-height:1.25;font-family:'Berlin Sans FB Demi';-inkscape-font-specification:'Berlin Sans FB Demi Bold';white-space:pre;fill:#e8ffee;stroke-width:0.264583"
         id="path114443" />
      <path
         d="m 147.71312,250.24358 q 0.22738,0.1378 0.68902,0.37896 0.2136,0.0758 0.60633,0.26872 0.062,0.0413 0.062,0.11024 0,-0.007 -0.24116,0.66835 -0.24805,0.66835 -0.24805,1.10243 0,1.26779 1.11621,1.26779 0.62012,0 1.08176,-0.88883 0.77859,-1.49517 0.89573,-1.65365 0.70969,-0.88883 1.91547,-0.88883 1.5434,0 2.43223,1.21956 0.79927,1.09554 0.79927,2.69407 0,0.74414 -0.16537,0.79926 -0.26182,0.0276 -0.76481,0.12402 -0.2067,0.0551 -0.62012,0.17225 -0.062,0.0207 -0.11713,0.0207 -0.0965,0 -0.0965,-0.10335 0,-0.16536 0.0344,-0.50298 0.0344,-0.34451 0.0344,-0.51676 0,-2.13596 -1.37804,-2.13596 -0.67523,0 -1.17133,0.86127 -0.89572,1.57096 -0.93017,1.60541 -0.7028,0.86817 -1.88791,0.86817 -1.28158,0 -2.05328,-0.84061 -0.74414,-0.81993 -0.74414,-2.12217 0,-0.55122 0.17915,-1.2678 0.19981,-0.77859 0.48231,-1.17133 0.0276,-0.0344 0.0896,-0.0689 z"
         style="font-size:53.3333px;line-height:1.25;font-family:'Berlin Sans FB';-inkscape-font-specification:'Berlin Sans FB';white-space:pre;fill:#e8f1e8;stroke-width:0.264583"
         id="path114396" />
      <path
         d="m 150.58633,241.36902 q 1.61919,0 2.59071,0.87505 0.99908,0.90262 0.99908,2.50114 0,0.39274 -0.0276,1.192 -0.0344,0.79237 -0.0344,1.19201 0,0.22048 0.28249,0.22048 0.36518,0 1.09554,-0.0413 0.73036,-0.0482 1.09554,-0.0482 0.11714,0 0.11714,0.13091 0,0.1447 -0.0276,0.44098 -0.0345,0.28938 -0.0345,0.43408 0,0.12402 0.0207,0.36518 0.0207,0.24115 0.0207,0.35829 0,0.17225 -0.2136,0.17225 -0.75103,0 -2.26687,-0.062 -1.51584,-0.0689 -2.27376,-0.0689 -2.14974,0 -4.61642,0.15848 l -0.10336,0.007 q -0.15158,0.007 -0.15158,-0.17915 0,-0.37207 0.007,-1.11621 0.007,-0.75103 0.007,-1.12999 0,-0.32384 -0.0276,-0.97152 -0.0276,-0.64767 -0.0276,-0.97151 0,-1.52273 1.03352,-2.50114 1.01286,-0.95774 2.53559,-0.95774 z m 0.10335,1.73633 q -1.03353,0 -1.65364,0.5581 -0.64768,0.57878 -0.64768,1.59853 0,0.31694 0.0551,1.12999 0.0551,0.93017 0.11024,0.95773 0.0827,0.0482 2.37023,0.0482 0.28939,0 0.86816,-0.0138 0.57878,-0.0207 0.86817,-0.0207 0.062,0 0.0965,-0.15158 0.0758,-0.37896 0.0758,-2.10151 0,-0.96463 -0.59945,-1.50206 -0.57188,-0.50298 -1.5434,-0.50298 z"
         style="font-size:53.3333px;line-height:1.25;font-family:'Berlin Sans FB';-inkscape-font-specification:'Berlin Sans FB';white-space:pre;fill:#e8f1e8;stroke-width:0.264583"
         id="path114398" />
      <path
         d="m 156.60146,231.84678 q 0.0827,0 0.0827,0.16537 0,0.13091 -0.0207,0.38585 -0.0207,0.24804 -0.0207,0.37896 0,0.13091 0.0207,0.39274 0.0207,0.26182 0.0207,0.39274 0,0.19292 -1.04042,0.49609 -1.0473,0.29628 -1.06108,0.60634 -0.0138,0.25494 -0.0138,1.3298 v 1.08865 q 0,1.13689 0.0138,1.29536 0.0207,0.24804 1.06108,0.53054 1.04042,0.27561 1.04042,0.42719 v 1.5503 q 0,0.1378 -0.0965,0.1378 -0.0689,0 -0.31006,-0.0965 l -4.61642,-1.68809 q -0.55811,-0.2136 -3.21772,-1.29536 -0.44097,-0.19293 -1.32981,-0.52365 -0.26182,-0.0827 -0.26182,-0.17915 0,-0.13091 0.0344,-0.38585 0.0344,-0.25494 0.0344,-0.38585 0,-0.12402 -0.0344,-0.37207 -0.0413,-0.25494 -0.0413,-0.37207 0,-0.062 0.25494,-0.17225 0.38584,-0.16537 4.15478,-1.63298 5.29855,-2.07395 5.34678,-2.07395 z m -3.80338,3.21083 q -0.19982,0 -1.79145,0.62012 -1.5434,0.59944 -2.02571,0.84749 3.63801,1.42627 3.81027,1.42627 0.23427,0 0.27561,-0.52366 0.007,-0.0276 0.007,-0.67523 v -0.70969 q 0,-0.9853 -0.27561,-0.9853 z"
         style="font-size:53.3333px;line-height:1.25;font-family:'Berlin Sans FB';-inkscape-font-specification:'Berlin Sans FB';white-space:pre;fill:#e8f1e8;stroke-width:0.264583"
         id="path114400" />
      <path
         d="m 156.62902,223.6199 q 0.0551,0 0.0551,0.11024 0,0.13091 -0.0207,0.39963 -0.0207,0.26872 -0.0207,0.39963 0,0.1447 0.0207,0.43408 0.0207,0.2825 0.0207,0.4272 0,0.15847 -0.17225,0.24115 -0.46853,0.22049 -2.90077,1.25402 -0.24805,0.10335 -0.30317,0.50298 -0.007,0.0896 -0.007,0.62701 0,0.95084 0.0276,1.12999 0.0207,0.14469 0.3514,0.14469 0.48232,0 1.44694,-0.0413 0.95774,-0.0482 1.43316,-0.0482 0.1447,0 0.1447,0.1378 0,0.13781 -0.0276,0.4203 -0.0345,0.27561 -0.0345,0.4203 0,0.11714 0.0207,0.35829 0.0207,0.24116 0.0207,0.35829 0,0.17226 -0.15847,0.17226 -0.76481,0 -2.29443,-0.0689 -1.53652,-0.0758 -2.30133,-0.0758 -2.1773,0 -4.64398,0.15848 l -0.11025,0.007 q -0.1378,0.007 -0.1378,-0.28939 0,-0.59256 -0.0276,-1.77078 -0.0344,-1.18511 -0.0344,-1.77078 0,-1.52962 0.73036,-2.4529 0.80615,-1.01975 2.28754,-1.01975 1.01975,0 1.60541,0.27561 0.62012,0.28939 1.17823,1.07487 0.0896,0.13091 0.17225,0.13091 0.0965,0 1.83279,-0.81993 1.73633,-0.82682 1.84657,-0.82682 z m -6.2494,1.88791 q -1.24712,0 -1.66742,0.71658 -0.31006,0.53054 -0.31006,1.90858 0,1.11621 0.17914,1.13688 0.37207,0.0482 1.99127,0.0482 h 1.31602 q 0.0138,-0.0207 0.0276,-0.0896 0.0138,-0.12402 0.0345,-0.40652 0.0344,-0.65457 0.0344,-1.41249 0,-1.90169 -1.60542,-1.90169 z"
         style="font-size:53.3333px;line-height:1.25;font-family:'Berlin Sans FB';-inkscape-font-specification:'Berlin Sans FB';white-space:pre;fill:#e8f1e8;stroke-width:0.264583"
         id="path114402" />
      <path
         d="m 156.36031,215.05539 q 0.32383,0 0.32383,0.19982 v 1.58474 q 0,0.19982 -1.46761,1.04042 -1.24023,0.70969 -1.79144,0.94396 -0.53055,0.23426 -0.59256,0.26871 -0.34451,0.20671 -0.36518,0.48232 -0.007,0.0827 -0.007,0.46164 0,0.86816 0.2136,0.86816 0.63389,0 1.8948,-0.0413 1.2609,-0.0482 1.88791,-0.0482 0.22737,0 0.22737,0.17225 0,0.13092 -0.0207,0.39275 -0.0207,0.26182 -0.0207,0.39274 0,0.12402 0.0207,0.37207 0.0207,0.24115 0.0207,0.36518 0,0.17225 -0.15847,0.17225 -0.75792,0 -2.27376,-0.0689 -1.52273,-0.0758 -2.28065,-0.0758 -0.79927,0 -2.39779,0.0758 -1.60541,0.0689 -2.40467,0.0689 -0.15159,0 -0.15159,-0.17225 0,-0.12403 0.0207,-0.37896 0.0207,-0.25494 0.0207,-0.38585 0,-0.12403 -0.0207,-0.37207 -0.0207,-0.24805 -0.0207,-0.37207 0,-0.15848 0.12403,-0.15848 0.58566,0 1.76388,0.0413 1.17823,0.0345 1.77078,0.0345 0.26872,0 0.33762,-0.0345 0.12402,-0.0551 0.12402,-0.2825 0,-1.33669 -0.49609,-1.95681 -0.44097,-0.53054 -1.61919,-1.00597 -0.92329,-0.3445 -1.84657,-0.68901 -0.11714,-0.0482 -0.15848,-0.2136 -0.0276,-0.11024 -0.0276,-0.73036 0,-0.75792 0.2136,-0.75792 0.12402,0 1.11621,0.31695 1.15755,0.37207 2.03949,0.96463 0.59945,0.39274 1.20579,1.04041 0.14469,0.16537 0.26182,0.16537 0.12403,0 1.23335,-0.55811 0.95773,-0.48231 1.53651,-0.87505 0.53054,-0.43408 1.63297,-1.21267 0.062,-0.0345 0.13092,-0.0345 z"
         style="font-size:53.3333px;line-height:1.25;font-family:'Berlin Sans FB';-inkscape-font-specification:'Berlin Sans FB';white-space:pre;fill:#e8f1e8;stroke-width:0.264583"
         id="path114404" />
      <path
         d="m 155.18897,207.77247 q 0.96463,0 1.37115,0.10335 0.19982,0.0482 0.19982,0.24116 0,0.50987 -0.062,1.52962 -0.0551,1.01975 -0.0551,1.52962 0,0.48231 0.0207,1.44005 0.0207,0.95773 0.0207,1.44005 0,0.17225 -0.17225,0.17225 -0.75103,0 -2.26687,-0.0482 -1.51585,-0.0551 -2.27377,-0.0551 -0.79926,0 -2.39089,0.0758 -1.59852,0.0689 -2.39779,0.0689 -0.15158,0 -0.15158,-0.17225 0,-0.12403 0.0207,-0.37896 0.0207,-0.25494 0.0207,-0.38585 0,-0.12403 -0.0207,-0.38585 -0.0207,-0.26183 -0.0207,-0.38585 0,-0.16537 0.13091,-0.16537 0.73036,0 2.19797,0.0551 1.46761,0.0551 2.20486,0.0551 0.35829,0 1.08865,0 0.73036,0.007 1.08865,0.007 1.52962,0 1.52962,-0.12402 0,-2.54248 -0.12402,-3.83783 -0.007,-0.062 -0.0482,-0.31695 -0.0413,-0.20671 -0.0413,-0.31695 0,-0.14469 0.13091,-0.14469 z"
         style="font-size:53.3333px;line-height:1.25;font-family:'Berlin Sans FB';-inkscape-font-specification:'Berlin Sans FB';white-space:pre;fill:#e8f1e8;stroke-width:0.264583"
         id="path114406" />
      <path
         d="m 156.53945,205.0784 q 0.14469,0 0.14469,0.19982 0,0.12402 -0.0207,0.37896 -0.0207,0.25494 -0.0207,0.37896 0,0.13091 0.0207,0.38585 0.0207,0.25494 0.0207,0.37896 0,0.17225 -0.15847,0.17225 -0.78548,0 -2.36333,-0.0689 -1.58475,-0.0758 -2.37712,-0.0758 -0.76481,0 -2.29443,0.0758 -1.53651,0.0689 -2.30132,0.0689 -0.17226,0 -0.17226,-0.15847 0,-0.13091 0.0207,-0.39963 0.0207,-0.26872 0.0207,-0.40652 0,-0.12402 -0.0207,-0.37207 -0.0207,-0.24805 -0.0207,-0.37207 0,-0.17915 0.13781,-0.17915 0.7717,0 2.3151,0.0551 1.5434,0.0551 2.3151,0.0551 0.79237,0 2.37712,-0.0551 1.58474,-0.062 2.37711,-0.062 z"
         style="font-size:53.3333px;line-height:1.25;font-family:'Berlin Sans FB';-inkscape-font-specification:'Berlin Sans FB';white-space:pre;fill:#e8f1e8;stroke-width:0.264583"
         id="path114408" />
      <path
         d="m 147.1688,194.96361 q 0.79237,0 2.39089,0.0551 1.59852,0.0551 2.39779,0.0551 0.75103,0 2.25309,-0.0138 1.49517,-0.0138 2.2462,-0.0138 0.22737,0 0.22737,0.17225 0,0.10335 -0.0207,0.31006 -0.0207,0.20671 -0.0207,0.31006 0,0.11024 0.0207,0.33762 0.0207,0.22737 0.0207,0.33762 0,0.12402 -0.22737,0.29628 -2.00505,1.48827 -5.98068,4.51307 -0.60634,0.46853 -0.67524,0.54432 0,0.0689 0.28249,0.0689 1.0611,0 3.19016,-0.0344 2.12218,-0.0344 3.18327,-0.0344 0.22737,0 0.22737,0.1378 0,0.11714 -0.0207,0.3583 -0.0207,0.24115 -0.0207,0.35828 0,0.12403 0.0207,0.37207 0.0207,0.24116 0.0207,0.36518 0,0.17226 -0.1378,0.17226 -0.75792,0 -2.28065,-0.0689 -1.52962,-0.0758 -2.29443,-0.0758 -0.83372,0 -3.00413,0.062 -0.56499,0.0138 -1.69498,0.0689 l -0.0896,0.007 q -0.10336,0.007 -0.11025,-0.16537 -0.007,-0.44786 -0.0276,-0.7028 -0.007,-0.0965 -0.0551,-0.36517 -0.0413,-0.22738 -0.0413,-0.35829 0,-0.062 0.19982,-0.2136 2.17729,-1.58474 6.47677,-4.85069 0.17915,-0.1447 0.31006,-0.26872 -0.28939,-0.0482 -1.32292,-0.0482 -0.89572,0 -2.68717,0.0689 -1.79145,0.062 -2.68028,0.062 -0.22738,0 -0.22738,-0.1378 0,-0.12402 0.0207,-0.37207 0.0207,-0.25494 0.0207,-0.37896 0,-0.13091 -0.0207,-0.39274 -0.0207,-0.26183 -0.0207,-0.39274 0,-0.14469 0.15159,-0.14469 z"
         style="font-size:53.3333px;line-height:1.25;font-family:'Berlin Sans FB';-inkscape-font-specification:'Berlin Sans FB';white-space:pre;fill:#e8f1e8;stroke-width:0.264583"
         id="path114410" />
      <path
         d="m 156.34652,185.0693 q 0.15159,-0.0138 0.15159,0.17226 0,0.10335 -0.19293,0.50298 -0.19981,0.39274 -0.2825,0.50298 0.86128,1.2678 0.86128,3.00413 0,2.02571 -1.51584,3.33485 -1.43316,1.24023 -3.49333,1.24023 -2.10839,0 -3.54155,-1.21956 -1.51584,-1.28847 -1.51584,-3.35552 0,-1.06109 0.50298,-2.0395 0.49609,-0.9853 1.36426,-1.57096 0.13091,-0.0896 0.19981,-0.0896 0.0965,0 0.64079,0.4961 0.53744,0.4892 0.53744,0.56499 0,0.0551 -0.42031,0.42031 -0.50987,0.44097 -0.77859,0.8406 -0.4203,0.62701 -0.4203,1.30913 0,1.30225 1.08865,2.13596 0.99219,0.75792 2.34266,0.75792 1.31603,0 2.32889,-0.77859 1.09554,-0.84749 1.09554,-2.12907 0,-1.2609 -0.68902,-2.3151 -0.18604,0.0138 -1.30914,0.11713 -0.79926,0.0827 -1.30224,0.0827 -0.11714,0 -0.11714,-0.15159 0,-0.13091 0.0207,-0.39274 0.0138,-0.26183 0.0138,-0.39274 0,-0.13091 -0.0138,-0.39963 -0.0138,-0.26872 -0.0138,-0.39963 0,-0.1447 0.22049,-0.1447 0.24115,0 0.73036,0.0207 0.48231,0.0138 0.72347,0.0138 0.99218,0 2.68717,-0.13091 z"
         style="font-size:53.3333px;line-height:1.25;font-family:'Berlin Sans FB';-inkscape-font-specification:'Berlin Sans FB';white-space:pre;fill:#e8f1e8;stroke-width:0.264583"
         id="path114412" />
    </g>
  </g>
</svg>
