<svg width="460" height="893" viewBox="0 0 460 893" fill="none" xmlns="http://www.w3.org/2000/svg">
<g clip-path="url(#clip0_141_1007)">
<path d="M0 834.447H458.211V74.3312H0V834.447Z" fill="#FFD43F"/>
<path d="M0.000488281 834.447L36.4005 892.26H229.105V834.447H0.000488281Z" fill="#CED5D0"/>
<path d="M458.21 834.447L421.81 892.26H229.106V834.447H458.21Z" fill="#CED5D0"/>
<path d="M0 74.3272L34.7963 36.3538H229.106V74.3272H0" fill="#CED5D0"/>
<path d="M458.21 74.3272L423.414 36.3538H229.106V74.3272H458.21" fill="#CED5D0"/>
<path d="M422.494 36.3539H35.7155C25.6786 36.3539 17.5415 28.2072 17.5415 18.1805C17.5415 8.14051 25.6786 0.00718689 35.7155 0.00718689H422.494C432.532 0.00718689 440.669 8.14051 440.669 18.1805C440.669 28.2072 432.532 36.3539 422.494 36.3539Z" fill="#CED5D0"/>
<path d="M440.669 18.1805C440.669 18.1541 440.669 18.1272 440.669 18.0872C440.669 18.1272 440.669 18.1537 440.669 18.1805ZM17.5415 18.1805C17.5415 18.1405 17.5415 18.114 17.5421 18.0739C17.5415 18.114 17.5415 18.1405 17.5415 18.1805ZM17.5421 18.0339C17.5421 18.0188 17.5426 18.0074 17.5426 17.9938C17.5426 18.0089 17.5421 18.0203 17.5421 18.0339ZM423.95 0.0605138C423.946 0.0605138 423.939 0.0605138 423.935 0.0605138C423.939 0.0605138 423.946 0.0605138 423.95 0.0605138ZM423.854 0.0453896C423.847 0.0453896 423.839 0.0453896 423.831 0.0453896C423.839 0.0453896 423.847 0.0453896 423.854 0.0453896ZM423.754 0.0453896C423.746 0.0453896 423.735 0.0453896 423.728 0.0453896C423.735 0.0453896 423.746 0.0453896 423.754 0.0453896ZM423.564 0.0302798C423.562 0.0302798 423.56 0.0302798 423.56 0.0302798C423.561 0.0302798 423.564 0.0302798 423.564 0.0302798ZM423.5 0.0302798C423.484 0.0302798 423.466 0.0302737 423.45 0.0151556C423.466 0.0302737 423.484 0.0302798 423.5 0.0302798ZM423.398 0.0151556C423.379 0.0151556 423.36 0.0151556 423.341 0.0151556C423.36 0.0151556 423.379 0.0151556 423.398 0.0151556ZM423.29 0.0151556C423.271 0.0151556 423.25 0.0151556 423.232 0.0151556C423.251 0.0151556 423.27 0.0151556 423.29 0.0151556ZM423.185 0.0151556C423.158 0.0151556 423.134 4.57764e-05 423.109 4.57764e-05C423.135 4.57764e-05 423.159 0.0151556 423.185 0.0151556ZM423.076 4.57764e-05C423.042 4.57764e-05 423.006 4.57764e-05 422.972 4.57764e-05C423.006 4.57764e-05 423.042 4.57764e-05 423.076 4.57764e-05ZM422.936 4.57764e-05C422.913 4.57764e-05 422.888 4.57764e-05 422.865 4.57764e-05C422.888 4.57764e-05 422.912 4.57764e-05 422.936 4.57764e-05ZM422.821 4.57764e-05C422.798 4.57764e-05 422.776 4.57764e-05 422.752 4.57764e-05C422.775 4.57764e-05 422.798 4.57764e-05 422.821 4.57764e-05ZM422.713 4.57764e-05C422.687 4.57764e-05 422.664 4.57764e-05 422.638 4.57764e-05C422.665 4.57764e-05 422.688 4.57764e-05 422.713 4.57764e-05ZM422.604 4.57764e-05C422.566 4.57764e-05 422.532 4.57764e-05 422.495 4.57764e-05C422.532 4.57764e-05 422.568 4.57764e-05 422.604 4.57764e-05Z" fill="#D2D2D8"/>
<path d="M422.494 36.3538H35.7155C25.6786 36.3538 17.5415 28.2072 17.5415 18.1805C17.5415 18.1405 17.5415 18.114 17.5421 18.0739C17.5421 18.0588 17.5421 18.0475 17.5421 18.0339C17.5421 18.0188 17.5426 18.0074 17.5426 17.9938C17.5615 16.3271 17.8139 14.7272 18.2499 13.1938C20.416 20.8071 27.4072 26.3938 35.7155 26.3938H324.138C325.393 23.9271 326.115 21.1405 326.115 18.1805C326.115 8.14046 317.979 0.00715637 307.943 0.00715637H422.494C422.532 0.00715637 422.567 0.00715637 422.603 0.00715637C422.615 0.00715637 422.626 0.00715637 422.637 0.00715637C422.664 0.00715637 422.687 0.00715637 422.712 0.00715637C422.727 0.00715637 422.739 0.00715637 422.751 0.00715637C422.773 0.00715637 422.797 0.00715637 422.82 0.00715637C422.835 0.00715637 422.85 0.00715637 422.864 0.00715637C422.886 0.00715637 422.91 0.00715637 422.934 0.00715637C422.946 0.00715637 422.957 0.00715637 422.972 0.00715637C423.006 0.00715637 423.041 0.00715637 423.076 0.00715637C423.088 0.00715637 423.099 0.00715637 423.11 0.00715637C423.137 0.00715637 423.161 0.0222662 423.186 0.0222662C423.201 0.0222662 423.216 0.0222662 423.233 0.0222662C423.252 0.0222662 423.271 0.0222662 423.291 0.0222662C423.306 0.0222662 423.325 0.0222662 423.342 0.0222662C423.361 0.0222662 423.38 0.0222662 423.399 0.0222662C423.418 0.0222662 423.433 0.0222662 423.452 0.0222662C423.467 0.0373843 423.486 0.0373904 423.501 0.0373904C423.52 0.0373904 423.539 0.0373904 423.559 0.0373904C423.561 0.0373904 423.563 0.0373904 423.563 0.0373904C423.618 0.0373904 423.672 0.0525002 423.727 0.0525002C423.735 0.0525002 423.746 0.0525002 423.753 0.0525002C423.78 0.0525002 423.804 0.0525002 423.829 0.0525002C423.837 0.0525002 423.845 0.0525002 423.852 0.0525002C423.879 0.0676183 423.905 0.0676244 423.932 0.0676244C423.936 0.0676244 423.944 0.0676244 423.947 0.0676244C431.609 0.680966 437.919 6.04098 439.958 13.201C440.163 13.921 440.318 14.6676 440.434 15.4143C440.457 15.5477 440.475 15.6811 440.493 15.8143C440.591 16.5609 440.661 17.321 440.666 18.0943C440.666 18.1344 440.666 18.1608 440.666 18.1877C440.666 28.2143 432.529 36.361 422.491 36.361" fill="#B1B5B9"/>
<path d="M458.21 443.514C438.066 449.541 416.476 450.767 395.857 446.607C375.793 442.567 356.858 433.781 336.65 430.527C300.064 424.647 260.886 438.701 236.382 466.487C226.794 477.367 219.401 490.074 209.465 500.634C182.048 529.767 138.148 538.701 98.6263 532.487C70.925 528.141 44.4349 517.261 16.5317 514.487C11.4656 513.981 5.82962 513.781 0 513.994V834.14H458.21V443.514Z" fill="#FFC800"/>
<path d="M62.2103 283.141C5.06923 361.287 20.885 471.114 98.3169 529.847C175.75 588.594 285.776 574.221 345.625 498.141L62.2103 283.141" fill="#77BB63"/>
<path d="M71.4875 290.18C19.2494 361.674 34.9666 463.074 107.329 517.967C179.693 572.86 281.578 560.674 336.346 491.101L71.4875 290.18Z" fill="#E6F9B4"/>
<path d="M81.3291 297.647C32.2939 364.714 46.2971 459.301 113.282 510.114C180.269 560.941 275.129 548.927 326.506 483.647L81.3291 297.647Z" fill="#F7B719"/>
<path d="M201.552 388.847L206.284 392.434L112.921 515.514L108.189 511.927L201.552 388.847" fill="#E6F9B4"/>
<path d="M201.838 393.38L59.005 432.767L53.293 423.394L201.552 388.847L201.711 391.38L201.838 393.38" fill="#E6F9B4"/>
<path d="M54.6567 339.434C55.8847 339.847 201.711 391.38 201.711 391.38L201.552 388.847L56.2462 333.94L54.6569 339.434" fill="#E6F9B4"/>
<path d="M202.468 397.474L192.421 544.914L198.329 545.274L204.7 394.527L202.468 397.474" fill="#E6F9B4"/>
<path d="M292.117 522.141L201.712 391.38L201.552 388.847L296.085 516.914L292.117 522.141" fill="#E6F9B4"/>
<path d="M331.92 389.581C310.487 389.581 293.112 372.194 293.112 350.767C293.112 329.327 310.487 311.954 331.92 311.954C333.549 311.954 335.152 312.06 336.728 312.247V389.274C335.152 389.474 333.549 389.58 331.92 389.58" fill="#FFE83F"/>
<path d="M184.038 301.687C162.605 301.687 145.229 284.314 145.229 262.874C145.229 241.447 162.605 224.061 184.038 224.061C205.47 224.061 222.846 241.447 222.846 262.874C222.846 284.314 205.47 301.687 184.038 301.687" fill="#FFE83F"/>
<path d="M286.738 224.06C270.959 224.06 258.167 211.274 258.167 195.501C258.167 179.714 270.959 166.927 286.738 166.927C302.517 166.927 315.307 179.714 315.307 195.501C315.307 211.274 302.517 224.06 286.738 224.06" fill="#FFE83F"/>
<path d="M423.285 892.26H312.189H421.81L458.21 834.447H336.728H458.21V834.141V443.514V74.3273L423.414 36.354H423.969L459.684 74.3273V834.447L423.285 892.261" fill="#E0DFE4"/>
<path d="M458.21 834.447H336.728V834.141H458.21V834.447ZM420.557 449.047C412.27 449.047 403.989 448.247 395.857 446.607C375.818 442.581 356.908 433.794 336.728 430.541V389.274C355.893 386.914 370.729 370.567 370.729 350.767C370.729 330.967 355.893 314.621 336.728 312.247V74.3272H458.21V443.514C446.012 447.167 433.28 449.047 420.557 449.047" fill="#FFCC28"/>
<path d="M421.81 892.26H312.189L336.728 834.447H458.21L421.81 892.26" fill="#BABFC0"/>
<path d="M458.21 74.3272H336.728L306.854 36.3538H423.414L458.21 74.3272" fill="#BABFC0"/>
<path d="M458.21 834.14H336.728V508.607C339.8 505.26 342.772 501.767 345.625 498.141L336.728 491.394V430.54C356.908 433.794 375.818 442.58 395.857 446.607C403.989 448.247 412.27 449.047 420.557 449.047C433.28 449.047 446.012 447.167 458.21 443.514V834.14Z" fill="#FFBC00"/>
<path d="M336.728 508.607V491.394L345.625 498.14C342.772 501.767 339.8 505.26 336.728 508.607" fill="#77AB6C"/>
<path d="M336.728 389.274V312.247C355.893 314.621 370.729 330.967 370.729 350.767C370.729 370.567 355.893 386.914 336.728 389.274Z" fill="#FFDD3F"/>
<path d="M102.709 533.074C101.344 532.9 99.9823 532.7 98.6263 532.487C76.9316 529.087 55.9823 521.674 34.5135 517.287C34.453 516.287 34.405 515.287 34.3672 514.3C33.149 482.674 31.9307 451.047 30.712 419.407C38.287 461.874 61.2369 501.714 98.3169 529.847C99.7676 530.954 101.236 532.02 102.709 533.074M28.8178 370.22C27.2839 330.407 25.75 290.594 24.2162 250.78C23.6281 235.501 23.0672 219.98 27.5459 205.22C32.2427 189.74 47.0356 182.687 62.7463 182.687C79.585 182.687 97.4796 190.794 105.125 205.314C112.056 218.487 111.057 233.354 110.074 247.594C108.485 270.607 107.27 293.634 106.429 316.687L62.2103 283.14C42.8577 309.607 31.8735 339.714 28.8178 370.22Z" fill="#FFE83F"/>
<path d="M68.1225 560.78C64.8665 560.78 61.5985 560.3 58.4185 559.26C39.947 553.234 35.5174 533.994 34.5137 517.287C55.9825 521.674 76.9318 529.087 98.6265 532.487C99.9825 532.7 101.344 532.9 102.709 533.074C103.385 533.554 104.058 534.034 104.74 534.5C103.861 536.994 102.762 539.434 101.392 541.807C95.2665 552.38 81.7865 560.78 68.1225 560.78Z" fill="#F7D219"/>
<path d="M104.74 534.5C104.058 534.034 103.385 533.554 102.709 533.074C101.236 532.021 99.7678 530.954 98.3171 529.847C61.2371 501.714 38.2871 461.874 30.7121 419.407C30.0808 403.007 29.4491 386.62 28.8179 370.22C31.8736 339.714 42.8579 309.607 62.2104 283.141L106.429 316.687L71.4877 290.18C19.2496 361.674 34.9668 463.074 107.329 517.967C107.48 518.087 107.633 518.194 107.784 518.314C107.44 523.847 106.573 529.287 104.74 534.5" fill="#A6D399"/>
<path d="M107.784 518.314C107.633 518.194 107.48 518.087 107.329 517.967C34.9666 463.074 19.2494 361.674 71.4875 290.181L106.429 316.687L81.3289 297.647C72.5835 309.607 65.8422 322.447 61.0502 335.754L56.2462 333.941L54.6569 339.434C54.7824 339.474 56.4196 340.047 59.2542 341.047C50.7675 367.674 49.9156 395.954 56.2542 422.714L53.2929 423.394L58.9889 432.741C67.5556 460.434 84.0236 486.021 107.865 505.821C108.005 509.981 108.041 514.167 107.784 518.314" fill="#EFFBCE"/>
<path d="M107.865 505.821C84.0238 486.021 67.5558 460.434 58.9891 432.74L59.0042 432.767L105.162 420.034C105.476 446.287 106.274 472.527 107.556 498.767C107.67 501.1 107.784 503.46 107.864 505.82M56.2535 422.714C49.9149 395.954 50.7669 367.674 59.2535 341.047C67.3042 343.887 85.0256 350.154 105.334 357.327C105.019 375.327 104.934 393.327 105.076 411.327L56.2535 422.714M105.421 352.527L61.0495 335.754C65.8415 322.447 72.5828 309.607 81.3281 297.647L106.428 316.687C105.992 328.621 105.657 340.581 105.421 352.527Z" fill="#FFD93F"/>
<path d="M59.0051 432.767L58.9899 432.741L53.2939 423.394L56.2553 422.714L105.078 411.327C105.101 414.234 105.129 417.141 105.163 420.034L59.006 432.767" fill="#EFFBCE"/>
<path d="M105.334 357.327C85.0261 350.154 67.3047 343.887 59.254 341.047C56.4194 340.047 54.7821 339.474 54.6567 339.434L56.2461 333.94L61.0501 335.754L105.422 352.527C105.392 354.127 105.362 355.727 105.334 357.327" fill="#EFFBCE"/>
<path d="M58.0182 152.367C46.5528 152.367 35.0791 144.967 31.1249 134.087C26.3967 121.074 33.1166 104.981 45.6958 99.1938C46.7969 98.7005 48.0915 98.2872 49.2915 98.2872C50.2902 98.2872 51.2249 98.5672 51.9262 99.3005L54.5448 96.7938C55.3742 96.7005 56.2009 96.6604 57.0289 96.6604C69.9542 96.6604 82.4235 106.674 84.7969 119.46C87.3209 133.074 78.0502 147.847 64.6915 151.487C62.5049 152.074 60.2622 152.367 58.0182 152.367" fill="#FFE83F"/>
<path d="M377.779 764.294C386.445 764.294 393.709 767.058 399.57 772.585C405.515 778.224 408.487 785.363 408.487 794.002C408.487 802.585 405.487 809.71 399.487 815.377C393.626 820.933 386.39 823.71 377.779 823.71C369.14 823.71 361.876 820.933 355.987 815.377C349.959 809.71 346.945 802.585 346.945 794.002C346.945 785.474 349.959 778.363 355.987 772.669C361.931 767.085 369.195 764.294 377.779 764.294ZM377.695 780.085C373.529 780.085 369.987 781.349 367.07 783.877C364.015 786.516 362.487 789.891 362.487 794.002C362.487 797.919 364.07 801.238 367.237 803.96C370.293 806.599 373.807 807.919 377.779 807.919C382.029 807.919 385.57 806.683 388.404 804.21C391.376 801.599 392.862 798.197 392.862 794.002C392.862 790.085 391.293 786.752 388.154 784.002C385.154 781.391 381.668 780.085 377.695 780.085V780.085Z" fill="#E8FFEE"/>
<path d="M406.529 708.419C406.723 708.419 406.862 708.697 406.945 709.252C407.112 710.308 407.195 712.961 407.195 717.211C407.195 720.849 407.112 723.322 406.945 724.627C406.862 725.238 406.792 725.586 406.737 725.669C406.654 725.835 406.376 726.03 405.904 726.252C404.82 726.669 403.209 727.28 401.07 728.086C398.293 729.169 394.195 730.863 388.779 733.169C387.695 733.669 387.098 734.822 386.987 736.627C387.042 735.794 387.07 737.224 387.07 740.919C387.07 741.336 387.779 741.544 389.195 741.544C391.084 741.544 393.903 741.377 397.653 741.044C401.403 740.683 404.223 740.502 406.112 740.502C406.584 740.502 406.862 740.627 406.945 740.877C406.973 741.266 407.001 741.655 407.028 742.044C407.139 743.683 407.195 746.238 407.195 749.71C407.195 753.683 407.112 756.072 406.945 756.877C406.779 757.683 406.348 758.085 405.653 758.085C402.598 758.085 397.987 757.947 391.82 757.669C385.654 757.363 381.029 757.21 377.945 757.21C366.195 757.21 357.028 757.474 350.445 758.002L349.862 758.044C349.39 758.071 349.07 757.641 348.903 756.752C348.737 755.835 348.57 751.585 348.404 744.002C348.292 738.863 348.237 734.766 348.237 731.71C348.237 725.377 349.667 720.21 352.529 716.21C355.751 711.683 360.404 709.419 366.487 709.419C370.542 709.419 373.779 710.002 376.195 711.169C378.612 712.335 380.959 714.488 383.237 717.627C383.681 718.266 384.098 718.585 384.487 718.585C384.459 718.585 387.945 716.891 394.945 713.502C401.945 710.113 405.806 708.419 406.528 708.419L406.529 708.419ZM369.154 725.919C365.765 725.919 363.418 727.03 362.112 729.252C361.112 730.974 360.612 733.669 360.612 737.336C360.612 739.974 361.015 741.377 361.82 741.544C362.765 741.71 365.487 741.794 369.987 741.794C370.626 741.794 371.57 741.78 372.82 741.752C374.07 741.724 375.001 741.711 375.612 741.711C375.751 741.711 375.89 741.266 376.029 740.377C376.279 738.683 376.404 736.905 376.404 735.044C376.404 728.961 373.987 725.919 369.154 725.919L369.154 725.919Z" fill="#E8FFEE"/>
<path d="M405.904 648.752C406.404 648.752 406.751 649.099 406.945 649.794C407.168 650.627 407.279 653.211 407.279 657.544C407.279 661.516 407.168 664.072 406.945 665.211C406.751 666.155 406.126 666.752 405.07 667.002C401.07 667.947 398.931 668.683 398.654 669.211C398.459 669.655 398.362 673.377 398.362 680.377C398.362 685.099 398.487 687.613 398.737 687.919C399.181 688.391 400.667 688.919 403.195 689.502C405.501 690.03 406.751 690.669 406.945 691.419C407.167 692.363 407.278 695.53 407.278 700.919C407.278 705.169 406.876 707.294 406.07 707.294C405.348 707.294 396.473 704.155 379.445 697.877C361.028 691.072 350.903 687.377 349.07 686.794C348.015 686.461 347.487 686.072 347.487 685.627C347.487 684.877 347.556 683.724 347.695 682.169C347.834 680.586 347.903 679.405 347.903 678.627C347.903 677.877 347.862 676.78 347.778 675.336C347.667 673.863 347.612 672.766 347.612 672.044C347.612 671.516 348.07 671.03 348.987 670.586C351.903 669.224 361.903 665.252 378.987 658.669C396.181 652.058 405.153 648.752 405.903 648.752H405.904ZM367.945 678.294C369.168 678.877 371.82 679.863 375.904 681.252C380.237 682.752 382.779 683.502 383.529 683.502C384.029 683.502 384.306 682.669 384.362 681.002C384.417 680.141 384.445 678.724 384.445 676.752C384.445 674.919 384.223 673.905 383.778 673.711C383.64 673.655 383.445 673.627 383.195 673.627C382.278 673.627 379.751 674.266 375.612 675.544C371.612 676.794 369.056 677.711 367.945 678.294L367.945 678.294Z" fill="#E8FFEE"/>
<path d="M349.779 588.752C352.945 588.752 357.709 588.891 364.07 589.169C370.404 589.419 375.168 589.544 378.362 589.544H405.82C406.57 589.544 406.945 589.947 406.945 590.752C406.945 591.419 406.973 592.433 407.028 593.794C407.084 595.127 407.112 596.127 407.112 596.794C407.112 597.516 407.056 598.599 406.945 600.044C406.834 601.488 406.778 602.572 406.778 603.294C406.778 603.794 406.32 604.391 405.403 605.085C402.709 607.085 396.737 611.585 387.487 618.585C384.903 620.502 381.098 623.419 376.07 627.335C375.903 627.447 375.737 627.655 375.57 627.96C375.764 628.183 376.07 628.294 376.487 628.294C379.709 628.294 384.542 628.211 390.987 628.044C397.431 627.849 402.264 627.752 405.487 627.752C406.459 627.752 406.945 628.127 406.945 628.877V643.294C406.945 644.099 406.514 644.502 405.653 644.502C402.653 644.502 398.125 644.363 392.07 644.086C386.014 643.78 381.473 643.627 378.445 643.627C375.25 643.627 370.473 643.766 364.112 644.044C357.75 644.294 352.987 644.419 349.82 644.419C349.209 644.419 348.903 643.877 348.903 642.794C348.903 641.183 348.792 639.197 348.57 636.835C348.514 636.28 348.334 635.183 348.028 633.544C347.778 632.155 347.653 631.058 347.653 630.252C347.653 629.919 348.126 629.405 349.07 628.71L370.362 613.169C372.278 611.78 375.084 609.683 378.778 606.877C379.639 606.183 380.07 605.585 380.07 605.085C380.07 604.724 378.987 604.544 376.82 604.544C373.903 604.544 369.514 604.71 363.653 605.044C357.792 605.349 353.389 605.502 350.445 605.502C349.417 605.502 348.903 605.21 348.903 604.627C348.903 602.96 348.834 600.447 348.695 597.085C348.556 593.724 348.487 591.21 348.487 589.544C348.487 589.016 348.917 588.752 349.778 588.752L349.779 588.752Z" fill="#E8FFEE"/>
<path d="M405.612 526.169C406.362 526.114 406.737 526.502 406.737 527.336C406.737 527.863 406.432 529.391 405.821 531.919C405.209 534.419 404.793 535.961 404.571 536.544C406.848 542.349 407.987 547.919 407.987 553.252C407.987 561.836 405.126 568.877 399.404 574.377C393.765 579.822 386.64 582.544 378.029 582.544C369.223 582.544 361.918 579.905 356.112 574.627C350.112 569.183 347.112 562.113 347.112 553.419C347.112 549.197 347.918 545.225 349.529 541.502C351.307 537.474 353.807 534.308 357.029 532.002C357.696 531.53 358.168 531.294 358.446 531.294C359.335 531.294 361.335 532.544 364.446 535.044C367.529 537.516 369.071 539.113 369.071 539.836C369.071 540.002 368.501 540.641 367.362 541.752C366.001 543.113 364.946 544.502 364.196 545.919C363.057 548.03 362.487 550.363 362.487 552.919C362.487 557.086 364.043 560.391 367.154 562.836C370.015 565.113 373.585 566.252 377.862 566.252C382.39 566.252 385.973 565.072 388.612 562.711C391.335 560.266 392.696 556.808 392.696 552.336C392.696 549.502 391.987 546.336 390.571 542.836C389.654 542.919 387.321 543.169 383.571 543.586C380.682 543.947 378.348 544.127 376.571 544.127C376.043 544.127 375.723 543.947 375.612 543.586C375.557 543.447 375.529 543.225 375.529 542.919C375.529 542.113 375.612 540.905 375.779 539.294C375.918 537.655 375.987 536.419 375.987 535.586C375.987 534.697 375.932 533.363 375.821 531.586C375.682 529.808 375.612 528.475 375.612 527.586C375.612 526.891 376.071 526.544 376.987 526.544C378.321 526.544 380.335 526.627 383.029 526.794C385.723 526.933 387.737 527.002 389.071 527.002C392.654 527.002 398.015 526.738 405.154 526.21L405.612 526.169Z" fill="#E8FFEE"/>
<path d="M393.987 477.669C395.182 477.669 397.376 477.905 400.57 478.377C404.043 478.877 406.112 479.322 406.779 479.711C407.307 480.044 407.57 480.502 407.57 481.086C407.57 481.336 407.529 481.752 407.445 482.336C407.168 484.363 407.029 490.28 407.029 500.086C407.029 502.225 407.015 505.405 406.987 509.627C406.959 513.849 406.946 517.016 406.946 519.127C406.946 520.044 406.543 520.502 405.737 520.502C402.626 520.502 397.959 520.336 391.737 520.002C385.487 519.641 380.807 519.461 377.696 519.461C374.529 519.461 368.626 519.627 359.987 519.961C357.765 520.044 354.446 520.197 350.029 520.419L349.446 520.461C348.807 520.516 348.487 520.169 348.487 519.419C348.487 517.363 348.543 514.28 348.654 510.169C348.765 506.03 348.821 502.933 348.821 500.877C348.821 498.849 348.765 495.794 348.654 491.711C348.543 487.627 348.487 484.572 348.487 482.544C348.487 481.099 349.029 480.266 350.112 480.044C350.751 479.905 352.696 479.697 355.946 479.419C359.168 479.113 361.126 478.961 361.821 478.961C362.404 478.961 362.696 479.238 362.696 479.794C362.696 479.96 362.682 480.252 362.654 480.669C362.043 488.058 361.737 494.697 361.737 500.586C361.737 502.058 362.085 502.961 362.779 503.294C363.112 503.433 364.182 503.502 365.987 503.502C367.876 503.502 369.126 503.224 369.737 502.669C370.265 502.197 370.529 501.294 370.529 499.96C370.529 499.683 370.515 499.141 370.487 498.336C370.432 497.53 370.404 496.863 370.404 496.335C370.404 492.835 370.307 489.294 370.113 485.71C370.085 485.405 370.015 484.641 369.904 483.419C369.793 482.474 369.738 481.724 369.738 481.169C369.738 480.502 370.057 480.169 370.696 480.169C370.113 480.169 372.238 480.419 377.071 480.919C379.293 481.141 381.515 481.252 383.738 481.252C384.293 481.252 384.571 481.655 384.571 482.461C384.571 482.461 384.432 483.711 384.154 486.211C383.988 487.794 383.904 491.405 383.904 497.044V501.461C383.904 502.599 384.182 503.266 384.738 503.461C384.877 503.488 385.738 503.502 387.321 503.502C389.432 503.502 390.793 503.363 391.404 503.085C392.46 502.613 393.085 500.835 393.279 497.752C393.279 497.807 393.279 495.78 393.279 491.669C393.279 490.197 393.154 488.016 392.905 485.127C392.627 482.21 392.488 480.03 392.488 478.585C392.488 477.974 392.988 477.669 393.988 477.669L393.987 477.669Z" fill="#E8FFEE"/>
<path d="M291.816 798.479C292.389 798.826 293.257 799.304 294.42 799.911C294.959 800.102 295.722 800.441 296.712 800.927C296.868 801.031 296.946 801.17 296.946 801.344C296.946 801.326 296.643 802.168 296.035 803.87C295.41 805.554 295.097 806.942 295.097 808.036C295.097 811.231 296.504 812.828 299.316 812.828C300.879 812.828 302.241 811.708 303.405 809.469C305.366 805.701 306.495 803.618 306.79 803.219C308.578 800.979 310.991 799.859 314.03 799.859C317.919 799.859 320.983 801.396 323.222 804.469C325.236 807.229 326.243 810.623 326.243 814.651C326.243 816.526 326.035 817.533 325.618 817.672C324.958 817.741 323.995 817.897 322.728 818.14C322.207 818.279 321.426 818.496 320.384 818.791C320.228 818.844 320.08 818.87 319.941 818.87C319.698 818.87 319.576 818.739 319.576 818.479C319.576 818.062 319.62 817.429 319.706 816.578C319.793 815.71 319.836 815.059 319.836 814.625C319.836 809.243 318.1 806.552 314.628 806.552C312.927 806.552 311.451 807.637 310.201 809.807C307.944 813.766 306.772 815.788 306.685 815.875C304.915 818.062 302.536 819.156 299.55 819.156C296.321 819.156 293.734 818.097 291.79 815.979C289.915 813.913 288.977 811.239 288.977 807.958C288.977 806.569 289.203 804.972 289.654 803.167C290.158 801.205 290.765 799.729 291.477 798.74C291.547 798.653 291.66 798.566 291.816 798.479L291.816 798.479Z" fill="#E8F1E8"/>
<path d="M302.676 764.937C306.756 764.937 310.019 766.04 312.467 768.245C314.985 770.519 316.243 773.67 316.243 777.698C316.243 778.687 316.209 780.189 316.139 782.203C316.052 784.199 316.009 785.701 316.009 786.708C316.009 787.264 316.365 787.541 317.077 787.541C317.997 787.541 319.377 787.489 321.217 787.385C323.058 787.264 324.438 787.203 325.358 787.203C325.653 787.203 325.801 787.368 325.801 787.698C325.801 788.063 325.766 788.618 325.696 789.365C325.609 790.094 325.566 790.641 325.566 791.005C325.566 791.318 325.592 791.778 325.644 792.385C325.696 792.993 325.722 793.445 325.722 793.74C325.722 794.174 325.453 794.391 324.915 794.391C323.023 794.391 320.167 794.313 316.347 794.156C312.528 793.983 309.663 793.896 307.754 793.896C302.337 793.896 296.521 794.096 290.306 794.495L289.915 794.521C289.533 794.539 289.342 794.313 289.342 793.844C289.342 792.907 289.351 791.501 289.369 789.626C289.386 787.733 289.395 786.31 289.395 785.355C289.395 784.539 289.36 783.315 289.291 781.683C289.221 780.051 289.187 778.827 289.187 778.011C289.187 774.174 290.489 771.023 293.093 768.558C295.645 766.145 298.839 764.938 302.676 764.938L302.676 764.937ZM303.066 771.5C300.462 771.5 298.379 772.203 296.816 773.609C295.184 775.068 294.368 777.081 294.368 779.651C294.368 780.449 294.438 781.873 294.577 783.922C294.715 786.265 294.854 787.472 294.993 787.541C295.202 787.663 298.188 787.724 303.952 787.724C304.681 787.724 305.775 787.706 307.233 787.671C308.691 787.619 309.785 787.593 310.514 787.593C310.67 787.593 310.792 787.402 310.879 787.02C311.07 786.065 311.165 783.418 311.165 779.078C311.165 776.647 310.41 774.755 308.9 773.401C307.459 772.133 305.514 771.5 303.066 771.5L303.066 771.5Z" fill="#E8F1E8"/>
<path d="M325.41 728.948C325.618 728.948 325.722 729.156 325.722 729.573C325.722 729.903 325.696 730.389 325.644 731.031C325.592 731.656 325.566 732.133 325.566 732.463C325.566 732.793 325.592 733.288 325.644 733.948C325.696 734.607 325.722 735.102 325.722 735.432C325.722 735.918 324.412 736.543 321.79 737.307C319.151 738.054 317.814 738.818 317.78 739.599C317.745 740.241 317.727 741.916 317.727 744.625V748.739C317.727 751.604 317.745 753.236 317.78 753.635C317.832 754.26 319.169 754.929 321.79 755.64C324.412 756.335 325.722 756.873 325.722 757.255V763.114C325.722 763.462 325.601 763.635 325.358 763.635C325.184 763.635 324.793 763.514 324.186 763.27L306.738 756.89C305.332 756.352 301.278 754.72 294.576 751.994C293.465 751.508 291.79 750.849 289.55 750.015C288.891 749.807 288.561 749.581 288.561 749.338C288.561 749.008 288.604 748.522 288.691 747.88C288.777 747.237 288.821 746.751 288.821 746.422C288.821 746.109 288.777 745.64 288.691 745.015C288.587 744.373 288.535 743.904 288.535 743.609C288.535 743.453 288.856 743.236 289.498 742.958C290.47 742.541 295.705 740.484 305.201 736.786C318.552 731.56 325.288 728.948 325.41 728.948L325.41 728.948ZM311.035 741.083C310.531 741.083 308.274 741.864 304.264 743.427C300.375 744.937 297.823 746.005 296.608 746.63C305.774 750.224 310.575 752.021 311.009 752.021C311.599 752.021 311.946 751.361 312.05 750.041C312.068 749.972 312.077 749.121 312.077 747.489V744.807C312.077 742.324 311.73 741.083 311.035 741.083H311.035Z" fill="#E8F1E8"/>
<path d="M325.514 697.854C325.653 697.854 325.722 697.993 325.722 698.271C325.722 698.601 325.696 699.104 325.644 699.781C325.592 700.458 325.566 700.962 325.566 701.292C325.566 701.656 325.592 702.203 325.644 702.932C325.696 703.644 325.722 704.182 325.722 704.547C325.722 704.946 325.505 705.25 325.071 705.458C323.891 706.014 320.236 707.594 314.108 710.198C313.483 710.458 313.101 711.092 312.962 712.099C312.944 712.325 312.935 713.115 312.935 714.469C312.935 716.864 312.97 718.288 313.04 718.739C313.092 719.104 313.535 719.286 314.368 719.286C315.583 719.286 317.406 719.234 319.837 719.13C322.25 719.009 324.055 718.948 325.253 718.948C325.618 718.948 325.8 719.122 325.8 719.469C325.8 719.816 325.765 720.346 325.696 721.057C325.609 721.752 325.565 722.281 325.565 722.646C325.565 722.941 325.592 723.392 325.644 724C325.696 724.608 325.722 725.059 325.722 725.354C325.722 725.788 325.522 726.005 325.123 726.005C323.196 726.005 320.305 725.919 316.451 725.745C312.58 725.554 309.68 725.458 307.753 725.458C302.267 725.458 296.416 725.658 290.201 726.057L289.784 726.084C289.437 726.101 289.264 725.737 289.264 724.99C289.264 723.497 289.229 721.266 289.159 718.297C289.073 715.311 289.029 713.08 289.029 711.605C289.029 707.751 289.949 704.66 291.79 702.334C293.821 699.764 296.703 698.48 300.436 698.48C303.005 698.48 305.028 698.827 306.503 699.521C308.066 700.251 309.55 701.605 310.956 703.584C311.182 703.914 311.399 704.079 311.607 704.079C311.851 704.079 314.16 703.046 318.534 700.98C322.909 698.896 325.236 697.855 325.514 697.855L325.514 697.854ZM301.894 704.989C298.752 704.989 296.651 705.892 295.592 707.698C294.811 709.035 294.42 711.439 294.42 714.911C294.42 717.724 294.646 719.156 295.097 719.208C296.035 719.33 298.544 719.39 302.623 719.39H307.597C307.632 719.338 307.667 719.225 307.702 719.052C307.736 718.739 307.78 718.227 307.832 717.515C307.919 715.866 307.962 714.086 307.962 712.177C307.962 707.385 305.94 704.989 301.894 704.989L301.894 704.989Z" fill="#E8F1E8"/>
<path d="M324.498 665.484C325.314 665.484 325.722 665.736 325.722 666.239V672.229C325.722 672.733 323.873 674.043 320.175 676.161C317.05 677.95 314.793 679.139 313.405 679.729C312.068 680.319 311.321 680.658 311.165 680.745C310.297 681.265 309.837 681.873 309.785 682.568C309.767 682.776 309.758 683.358 309.758 684.312C309.758 686.5 310.027 687.594 310.566 687.594C312.163 687.594 314.55 687.542 317.727 687.438C320.904 687.316 323.283 687.255 324.862 687.255C325.435 687.255 325.722 687.472 325.722 687.906C325.722 688.236 325.696 688.731 325.644 689.391C325.591 690.05 325.565 690.545 325.565 690.875C325.565 691.188 325.591 691.656 325.644 692.281C325.696 692.889 325.722 693.349 325.722 693.662C325.722 694.096 325.522 694.313 325.123 694.313C323.213 694.313 320.349 694.226 316.529 694.052C312.692 693.861 309.819 693.766 307.909 693.766C305.895 693.766 302.875 693.861 298.847 694.052C294.802 694.226 291.772 694.313 289.758 694.313C289.376 694.313 289.185 694.096 289.185 693.662C289.185 693.349 289.211 692.872 289.264 692.229C289.316 691.587 289.342 691.101 289.342 690.771C289.342 690.458 289.316 689.99 289.264 689.365C289.211 688.74 289.185 688.271 289.185 687.958C289.185 687.559 289.342 687.359 289.654 687.359C291.13 687.359 293.352 687.412 296.321 687.516C299.29 687.603 301.52 687.646 303.014 687.646C303.691 687.646 304.116 687.603 304.29 687.516C304.602 687.377 304.758 687.021 304.758 686.448C304.758 683.08 304.133 680.615 302.883 679.052C301.772 677.715 299.732 676.448 296.764 675.25C294.437 674.382 292.111 673.514 289.784 672.646C289.489 672.524 289.29 672.255 289.185 671.839C289.116 671.561 289.081 670.641 289.081 669.078C289.081 667.168 289.35 666.214 289.888 666.214C290.201 666.214 291.607 666.613 294.107 667.411C297.024 668.349 299.593 669.564 301.815 671.057C303.326 672.047 304.845 673.358 306.373 674.99C306.737 675.406 307.067 675.615 307.362 675.615C307.675 675.615 309.229 674.911 312.024 673.505C314.437 672.29 316.373 671.188 317.831 670.198C319.168 669.104 321.225 667.576 324.003 665.615C324.159 665.528 324.324 665.484 324.498 665.484L324.498 665.484Z" fill="#E8F1E8"/>
<path d="M320.071 637.958C322.502 637.958 324.229 638.088 325.253 638.349C325.757 638.47 326.009 638.774 326.009 639.26C326.009 640.545 325.931 642.472 325.774 645.042C325.636 647.611 325.566 649.538 325.566 650.823C325.566 652.038 325.592 653.852 325.644 656.265C325.697 658.679 325.723 660.493 325.723 661.708C325.723 662.142 325.506 662.359 325.072 662.359C323.179 662.359 320.323 662.298 316.504 662.177C312.684 662.038 309.82 661.969 307.91 661.969C305.896 661.969 302.884 662.064 298.874 662.255C294.846 662.429 291.825 662.516 289.811 662.516C289.429 662.516 289.238 662.299 289.238 661.865C289.238 661.552 289.264 661.075 289.316 660.432C289.369 659.79 289.395 659.304 289.395 658.974C289.395 658.662 289.369 658.175 289.316 657.516C289.264 656.856 289.238 656.37 289.238 656.057C289.238 655.641 289.403 655.432 289.733 655.432C291.573 655.432 294.342 655.502 298.04 655.641C301.738 655.779 304.516 655.849 306.374 655.849C307.276 655.849 308.648 655.849 310.488 655.849C312.328 655.866 313.7 655.875 314.603 655.875C318.457 655.875 320.384 655.719 320.384 655.407C320.384 649 320.228 644.165 319.915 640.901C319.898 640.745 319.837 640.346 319.733 639.703C319.629 639.183 319.577 638.783 319.577 638.506C319.577 638.141 319.742 637.959 320.072 637.959L320.071 637.958Z" fill="#E8F1E8"/>
<path d="M325.176 627.776C325.54 627.776 325.722 628.028 325.722 628.531C325.722 628.844 325.696 629.321 325.644 629.963C325.592 630.606 325.566 631.083 325.566 631.396C325.566 631.726 325.592 632.212 325.644 632.854C325.696 633.496 325.722 633.974 325.722 634.286C325.722 634.72 325.523 634.937 325.123 634.937C323.144 634.937 320.167 634.851 316.191 634.677C312.198 634.486 309.203 634.39 307.207 634.39C305.28 634.39 302.389 634.486 298.535 634.677C294.663 634.851 291.764 634.937 289.837 634.937C289.403 634.937 289.186 634.738 289.186 634.338C289.186 634.009 289.212 633.505 289.264 632.828C289.316 632.151 289.342 631.639 289.342 631.292C289.342 630.979 289.316 630.51 289.264 629.885C289.212 629.26 289.186 628.791 289.186 628.479C289.186 628.028 289.36 627.802 289.707 627.802C291.651 627.802 294.568 627.871 298.457 628.01C302.346 628.149 305.262 628.218 307.207 628.218C309.203 628.218 312.198 628.149 316.191 628.01C320.184 627.854 323.179 627.776 325.176 627.776V627.776Z" fill="#E8F1E8"/>
<path d="M289.759 589.547C291.755 589.547 294.767 589.616 298.795 589.755C302.823 589.894 305.844 589.963 307.858 589.963C309.75 589.963 312.589 589.946 316.373 589.911C320.141 589.876 322.97 589.859 324.863 589.859C325.436 589.859 325.722 590.076 325.722 590.51C325.722 590.77 325.696 591.161 325.644 591.682C325.592 592.203 325.566 592.593 325.566 592.854C325.566 593.132 325.592 593.557 325.644 594.13C325.696 594.703 325.722 595.128 325.722 595.406C325.722 595.718 325.436 596.092 324.863 596.526C319.811 600.276 312.276 605.961 302.259 613.583C300.731 614.763 299.88 615.449 299.707 615.64C299.707 615.814 300.062 615.901 300.774 615.901C303.448 615.901 307.467 615.857 312.832 615.771C318.179 615.684 322.189 615.641 324.863 615.641C325.436 615.641 325.722 615.814 325.722 616.161C325.722 616.457 325.696 616.908 325.644 617.516C325.592 618.123 325.566 618.575 325.566 618.87C325.566 619.182 325.592 619.651 325.644 620.276C325.696 620.884 325.722 621.344 325.722 621.656C325.722 622.09 325.549 622.307 325.201 622.307C323.292 622.307 320.418 622.22 316.582 622.047C312.727 621.856 309.837 621.76 307.91 621.76C305.809 621.76 302.024 621.838 296.556 621.995C295.132 622.029 292.997 622.116 290.149 622.255L289.811 622.282C289.55 622.299 289.411 622.091 289.394 621.657C289.376 620.528 289.342 619.643 289.29 619C289.272 618.757 289.203 618.297 289.081 617.62C288.977 617.047 288.925 616.596 288.925 616.266C288.925 616.11 289.177 615.841 289.68 615.459C295.167 611.466 303.326 605.355 314.16 597.125C314.611 596.761 315.002 596.422 315.332 596.11C314.602 595.988 312.936 595.928 310.332 595.928C308.075 595.928 304.689 596.014 300.175 596.188C295.661 596.344 292.285 596.422 290.045 596.422C289.472 596.422 289.186 596.249 289.186 595.901C289.186 595.589 289.212 595.12 289.264 594.495C289.316 593.853 289.342 593.375 289.342 593.063C289.342 592.733 289.316 592.238 289.264 591.579C289.212 590.919 289.186 590.424 289.186 590.094C289.186 589.73 289.377 589.547 289.759 589.547V589.547Z" fill="#E8F1E8"/>
<path d="M324.446 552.151C324.828 552.116 325.019 552.333 325.019 552.802C325.019 553.062 324.776 553.696 324.29 554.703C323.787 555.693 323.431 556.326 323.222 556.604C325.392 559.799 326.477 563.583 326.477 567.958C326.477 573.062 324.568 577.264 320.748 580.562C317.137 583.687 312.736 585.25 307.545 585.25C302.233 585.25 297.771 583.713 294.16 580.641C290.34 577.394 288.431 573.167 288.431 567.958C288.431 565.285 289.064 562.715 290.332 560.25C291.582 557.767 293.3 555.788 295.488 554.312C295.818 554.087 296.07 553.974 296.243 553.974C296.486 553.974 297.294 554.599 298.665 555.849C300.019 557.081 300.696 557.793 300.696 557.984C300.696 558.123 300.167 558.653 299.108 559.573C297.823 560.684 296.842 561.743 296.165 562.75C295.106 564.33 294.576 565.979 294.576 567.698C294.576 570.979 295.948 573.67 298.691 575.771C301.191 577.68 304.142 578.635 307.545 578.635C310.861 578.635 313.795 577.654 316.347 575.693C319.108 573.557 320.488 570.875 320.488 567.646C320.488 564.469 319.62 561.552 317.884 558.896C317.415 558.93 315.766 559.078 312.936 559.338C310.922 559.547 309.281 559.651 308.014 559.651C307.719 559.651 307.571 559.46 307.571 559.078C307.571 558.748 307.597 558.253 307.649 557.594C307.684 556.934 307.702 556.439 307.702 556.109C307.702 555.779 307.684 555.276 307.649 554.599C307.615 553.922 307.597 553.418 307.597 553.088C307.597 552.724 307.875 552.542 308.431 552.542C309.038 552.542 309.958 552.568 311.191 552.62C312.406 552.655 313.318 552.672 313.925 552.672C316.425 552.672 319.811 552.507 324.082 552.177L324.446 552.151Z" fill="#E8F1E8"/>
</g>
<defs>
<clipPath id="clip0_141_1007">
<rect width="459.684" height="892.261" fill="white"/>
</clipPath>
</defs>
</svg>
