<?xml version="1.0" encoding="UTF-8" standalone="no"?>
<!-- Created with Inkscape (http://www.inkscape.org/) -->

<svg
   width="189.06419mm"
   height="103.11776mm"
   viewBox="0 0 189.06419 103.11776"
   version="1.1"
   id="svg11989"
   inkscape:version="1.1.1 (3bf5ae0d25, 2021-09-20)"
   sodipodi:docname="extra-eggs.svg"
   xmlns:inkscape="http://www.inkscape.org/namespaces/inkscape"
   xmlns:sodipodi="http://sodipodi.sourceforge.net/DTD/sodipodi-0.dtd"
   xmlns="http://www.w3.org/2000/svg"
   xmlns:svg="http://www.w3.org/2000/svg">
  <sodipodi:namedview
     id="namedview11991"
     pagecolor="#505050"
     bordercolor="#ffffff"
     borderopacity="1"
     inkscape:pageshadow="0"
     inkscape:pageopacity="0"
     inkscape:pagecheckerboard="1"
     inkscape:document-units="mm"
     showgrid="false"
     inkscape:zoom="0.69753788"
     inkscape:cx="302.49253"
     inkscape:cy="125.44122"
     inkscape:window-width="1920"
     inkscape:window-height="1001"
     inkscape:window-x="-9"
     inkscape:window-y="-9"
     inkscape:window-maximized="1"
     inkscape:current-layer="layer7" />
  <defs
     id="defs11986" />
  <g
     inkscape:groupmode="layer"
     id="layer7"
     inkscape:label="Layer 7"
     style="display:inline"
     transform="translate(-2.397317,-4.3474412)">
    <g
       id="g12475"
       transform="matrix(0.35277777,0,0,-0.35277777,-532.16683,279.13937)"
       style="display:inline">
      <path
         d="m 1972.02,618.9 c -9.95,8.43 -22.59,11.53 -32.4,19.32 -10.48,8.32 -15.62,5.55 -18.94,16.87 -11.69,39.83 -78.23,63.05 -111.94,68.56 -25.94,4.25 -56.27,3.06 -80.36,-3.98 l -21.53,-4.31 c -20.47,1.01 -49.89,-6.58 -67.48,-17.58 -22.95,-14.34 -23.71,-32.23 -34.78,-54.17 -12.54,-24.87 -38.34,-41.78 -35.5,-73.27 3.8,-42.28 45.39,-47.46 78.92,-54.81 14.04,-3.08 25.49,-6.22 39.83,-6.82 19.24,-0.81 34.8,-7.24 53.45,-10.4 31.1,-5.26 67.28,-10.13 98.98,-9.76 48.52,0.55 132.91,13.87 149.29,68.63 7.37,24.65 2.03,45.14 -17.54,61.72"
         style="fill:#e2cfac;fill-opacity:1;fill-rule:nonzero;stroke:none;stroke-width:0.1"
         id="path1532" />
      <path
         d="m 1969.15,628.22 c -9.96,8.44 -22.59,11.53 -32.4,19.33 -10.48,8.32 -8.37,15.67 -11.69,26.98 -11.69,39.83 -85.48,52.94 -119.19,58.45 -25.94,4.24 -56.27,3.06 -80.36,-3.99 l -21.53,-4.3 c -20.47,1 -49.89,-6.58 -67.48,-17.58 -22.95,-14.35 -23.71,-32.23 -34.78,-54.18 -12.54,-24.86 -38.34,-41.77 -35.5,-73.26 3.8,-42.29 45.39,-47.47 78.92,-54.82 14.04,-3.08 25.49,-6.21 39.83,-6.81 19.24,-0.81 34.8,-7.25 53.45,-10.4 31.1,-5.27 67.28,-10.13 98.98,-9.77 48.52,0.56 132.91,13.88 149.29,68.64 7.37,24.64 2.03,45.13 -17.54,61.71"
         style="fill:#f9f1b7;fill-opacity:1;fill-rule:nonzero;stroke:none;stroke-width:0.1"
         id="path1534" />
      <path
         d="m 1924.31,676.87 c -0.01,0.02 -0.03,0.04 -0.04,0.05 -0.07,0.19 -0.14,0.37 -0.21,0.56 0.09,-0.2 0.17,-0.41 0.25,-0.61 m -309.85,5.61 c 4.73,10.84 10.58,20.38 23.92,28.73 16.54,10.34 43.55,17.66 63.73,17.66 1.28,0 2.53,-0.03 3.75,-0.09 l 21.53,4.31 c 14.82,4.33 31.99,6.45 49.06,6.45 10.68,0 21.32,-0.83 31.3,-2.46 25.71,-4.21 73.83,-16.04 100.45,-38.93 -26.87,21.88 -76.43,30.59 -102.33,34.83 -9.98,1.63 -20.62,2.46 -31.3,2.46 -17.07,0 -34.24,-2.11 -49.06,-6.45 l -21.53,-4.3 c -1.22,0.06 -2.47,0.09 -3.75,0.09 -20.18,0 -47.19,-7.33 -63.73,-17.67 -11.64,-7.28 -17.57,-15.46 -22.04,-24.63"
         style="fill:#efe6be;fill-opacity:1;fill-rule:nonzero;stroke:none;stroke-width:0.1"
         id="path1536" />
      <path
         d="m 1924.27,676.92 c -8.37,11.06 -21.83,20.28 -28.61,24.42 -22.78,13.92 -47.99,18.08 -74.17,18.08 -4.76,0 -9.56,-0.14 -14.37,-0.38 -38.85,-1.95 -76.94,-3.39 -116.24,-5.38 -17.48,-0.89 -27.97,0.02 -50.35,-8.35 -8.7,-3.25 -17.36,-11.5 -27.07,-25.17 0.33,0.78 0.67,1.57 1,2.34 4.47,9.17 10.4,17.35 22.04,24.63 16.54,10.34 43.55,17.67 63.73,17.67 1.28,0 2.53,-0.03 3.75,-0.09 l 21.53,4.3 c 14.82,4.34 31.99,6.45 49.06,6.45 10.68,0 21.32,-0.83 31.3,-2.46 25.9,-4.24 75.46,-12.95 102.33,-34.83 7.09,-6.09 12.65,-12.96 15.86,-20.67 0.07,-0.19 0.14,-0.37 0.21,-0.56"
         style="fill:#eee4b7;fill-opacity:1;fill-rule:nonzero;stroke:none;stroke-width:0.1"
         id="path1538" />
      <path
         d="m 1677.43,671.59 c 0.53,-10.78 25.83,-42.34 94,-43.05 72.5,-0.77 101.89,29.42 101.17,46.64 -0.72,17.22 -12.2,71.03 -101.17,68.88 -63.23,-1.53 -96.15,-28.7 -94,-72.47"
         style="fill:#ffbe00;fill-opacity:1;fill-rule:nonzero;stroke:none;stroke-width:0.1"
         id="path1540" />
      <path
         d="m 1871.88,675.89 c -0.39,9.59 -4.14,30.51 -22.72,46.81 7,-12 8.82,-23.78 9.09,-30.3 0.72,-17.22 -28.67,-47.41 -101.17,-46.64 -40.07,0.42 -65.32,11.5 -79.44,22.75 5.09,-12.97 18.44,-42.33 93.07,-43.56 86.82,-1.44 101.89,33.72 101.17,50.94"
         style="fill:#ffa21a;fill-opacity:1;fill-rule:nonzero;stroke:none;stroke-width:0.1"
         id="path1542" />
      <path
         d="m 1752.29,733.06 c 0,0 -18.17,0.95 -35.87,-13.4 -17.66,-14.31 -21.53,-27.74 -21.53,-27.74 l 22.01,-8.61 c 0,0 -0.96,12.44 14.35,27.74 13.87,13.88 30.13,17.22 30.13,17.22 l -9.09,4.79"
         style="fill:#ffdd33;fill-opacity:1;fill-rule:nonzero;stroke:none;stroke-width:0.1"
         id="path1544" />
      <path
         d="m 1861.66,563.24 c -14.14,4.35 -34.14,9.01 -37.89,25.83 -1.26,5.67 28.02,17.94 10.09,23.68 -16.44,5.26 -45.93,-15.07 -119.14,5.58 -20.15,5.68 -46.12,8.88 -52.36,31.73 -2.35,8.62 -2.62,23.58 -13.79,26.39 -13.73,3.45 -13.78,-11.24 -16.5,-19.16 -1.12,0.18 -0.06,0.78 -0.56,1.38 v -5.74 c 1.83,-27.51 -46.87,-51.23 -28.9,-79.64 7.93,-12.54 24,-15.36 37.51,-17.07 8.29,-1.05 16.01,-0.2 24.22,-0.16 11.66,0.06 30.28,6.17 41.88,4.98 46.63,-4.82 77.96,-32.97 124.84,-36.6 17.89,-1.38 48.65,-10.25 55.02,10.62 5.71,18.72 -10.01,23.74 -24.42,28.18"
         style="fill:#ffffff;fill-opacity:1;fill-rule:nonzero;stroke:none;stroke-width:0.1"
         id="path1546" />
    </g>
  </g>
</svg>
