<?xml version="1.0" encoding="UTF-8" standalone="no"?>
<!-- Created with Inkscape (http://www.inkscape.org/) -->

<svg
   width="189.06419mm"
   height="103.11776mm"
   viewBox="0 0 189.06419 103.11776"
   version="1.1"
   id="svg11989"
   inkscape:version="1.1.1 (3bf5ae0d25, 2021-09-20)"
   sodipodi:docname="extra-salami.svg"
   xmlns:inkscape="http://www.inkscape.org/namespaces/inkscape"
   xmlns:sodipodi="http://sodipodi.sourceforge.net/DTD/sodipodi-0.dtd"
   xmlns="http://www.w3.org/2000/svg"
   xmlns:svg="http://www.w3.org/2000/svg">
  <sodipodi:namedview
     id="namedview11991"
     pagecolor="#505050"
     bordercolor="#ffffff"
     borderopacity="1"
     inkscape:pageshadow="0"
     inkscape:pageopacity="0"
     inkscape:pagecheckerboard="1"
     inkscape:document-units="mm"
     showgrid="false"
     inkscape:zoom="0.69753788"
     inkscape:cx="302.49253"
     inkscape:cy="125.44122"
     inkscape:window-width="1920"
     inkscape:window-height="1001"
     inkscape:window-x="-9"
     inkscape:window-y="-9"
     inkscape:window-maximized="1"
     inkscape:current-layer="layer4" />
  <defs
     id="defs11986" />
  <g
     inkscape:groupmode="layer"
     id="layer4"
     inkscape:label="Layer 4"
     style="display:inline"
     transform="translate(-2.397317,-4.3474412)">
    <g
       id="g12508"
       transform="matrix(0.35277777,0,0,-0.35277777,-531.43303,161.18115)"
       style="display:inline">
      <path
         d="m 1960.27,266.22 c -14.71,16.52 -75.42,41.2 -144.58,31.14 -41.01,-5.96 -121.77,-24.14 -117.07,-72.33 5.51,-56.54 91.83,-76.63 154.29,-68.59 62.47,8.05 162.79,47.55 107.36,109.78"
         style="fill:#893c29;fill-opacity:1;fill-rule:nonzero;stroke:none;stroke-width:0.1"
         id="path1548" />
      <path
         d="m 1946.92,280.56 c -17.41,13.64 -62.12,38.68 -131.29,28.62 -41.01,-5.96 -117.59,-27.63 -112.77,-75.82 4.82,-48.18 87.53,-73.15 150,-65.1 62.47,8.04 170.79,52.22 94.06,112.3"
         style="fill:#c65236;fill-opacity:1;fill-rule:nonzero;stroke:none;stroke-width:0.1"
         id="path1550" />
      <path
         d="m 1826.4,218.96 c -7.28,0.27 -14.85,0.94 -22.56,2.09 2.07,1.27 4.83,2.16 7.16,2.23 0.24,0 0.48,0.01 0.72,0.01 5.65,0 11.69,-1.74 14.68,-4.33"
         style="fill:#e88f78;fill-opacity:1;fill-rule:nonzero;stroke:none;stroke-width:0.1"
         id="path1552" />
      <path
         d="m 1805.33,243.68 c -3.31,0 -6.44,0.48 -8.63,1.55 6.47,4.63 12.76,9.58 18.61,14.75 4.86,-0.5 8.76,-2.22 9.54,-5.07 1.36,-4.94 -2.74,-8.4 -11.4,-10.34 -2.56,-0.57 -5.4,-0.89 -8.12,-0.89"
         style="fill:#e88f78;fill-opacity:1;fill-rule:nonzero;stroke:none;stroke-width:0.1"
         id="path1554" />
      <path
         d="m 1863.8,267.21 c -7.06,0 -15.87,2.81 -13.9,7.79 1.04,2.65 6.25,5.2 9.97,5.35 0.32,0.02 0.65,0.02 0.97,0.02 6.99,0 14.14,-2.98 14.1,-6.95 -0.05,-4.15 -3.96,-6.18 -11.03,-6.21 -0.04,0 -0.07,0 -0.11,0"
         style="fill:#e88f78;fill-opacity:1;fill-rule:nonzero;stroke:none;stroke-width:0.1"
         id="path1556" />
      <path
         d="m 1908.03,262.2 c -1.68,1.3 -2.49,2.92 -1.78,4.79 0.32,0.87 1.09,1.71 2.12,2.46 -0.03,-0.32 -0.05,-0.64 -0.07,-0.97 -0.13,-2.17 -0.2,-4.26 -0.27,-6.28"
         style="fill:#e88f78;fill-opacity:1;fill-rule:nonzero;stroke:none;stroke-width:0.1"
         id="path1558" />
      <path
         d="m 1878.33,224.2 c -6.52,1.53 -12,4.76 -10.35,9.18 1.21,3.22 7.64,6.16 12.3,6.2 0.08,0 0.16,0 0.23,0 7.1,0 14.64,-2.5 17.63,-6.03 -0.75,-0.66 -1.56,-1.31 -2.44,-1.96 -3.56,-2.64 -9.56,-5.24 -17.37,-7.39"
         style="fill:#e88f78;fill-opacity:1;fill-rule:nonzero;stroke:none;stroke-width:0.1"
         id="path1560" />
      <path
         d="m 1756.74,204 c -8.87,0 -20.22,3.49 -18.13,9.64 0.09,0.27 0.22,0.53 0.38,0.8 4.21,1.46 8.3,3.03 12.23,4.73 0.76,0.33 1.53,0.66 2.3,1.01 5.37,-0.28 10.7,-1.87 13.83,-4.21 -1.43,-3 -1.57,-6.58 -0.77,-10.25 -2.26,-1.14 -5.55,-1.71 -9.78,-1.72 -0.02,0 -0.04,0 -0.06,0"
         style="fill:#e88f78;fill-opacity:1;fill-rule:nonzero;stroke:none;stroke-width:0.1"
         id="path1562" />
      <path
         d="m 1813.27,357.83 c -20.5,8.33 -72.84,15.28 -136.58,-13.4 -37.79,-17.01 -110.44,-50.06 -91.16,-104.69 16.12,-45.66 107.84,-45.48 165.69,-20.57 57.85,24.9 152.33,101.99 62.05,138.66"
         style="fill:#893c29;fill-opacity:1;fill-rule:nonzero;stroke:none;stroke-width:0.1"
         id="path1564" />
      <path
         d="m 1807.54,362.64 c -20.5,8.33 -62.95,11.66 -134.1,-8.57 -39.87,-11.32 -105.48,-58.89 -87.59,-103.89 17.88,-45 104.26,-46.27 162.11,-21.37 57.85,24.91 149.86,97.16 59.58,133.83"
         style="fill:#c65236;fill-opacity:1;fill-rule:nonzero;stroke:none;stroke-width:0.1"
         id="path1566" />
      <path
         d="m 1705.3,254.37 c -3.59,0 -6.37,1.04 -6.71,3.72 -0.35,2.84 3.52,7.32 7.18,9.01 3.71,1.71 8.05,2.67 11.67,2.67 3.36,0 6.1,-0.82 7.14,-2.64 2.15,-3.78 -0.69,-7.25 -7.78,-10.23 -3.54,-1.49 -7.92,-2.53 -11.5,-2.53"
         style="fill:#e88f78;fill-opacity:1;fill-rule:nonzero;stroke:none;stroke-width:0.1"
         id="path1568" />
      <path
         d="m 1684.45,281.61 c -2.57,0 -4.54,0.93 -5.24,3.22 -1,3.3 2.32,9.54 6,12.4 4.85,3.78 11.17,6.28 15.74,6.28 2.21,0 4.01,-0.58 5.05,-1.88 3.2,-4 0.8,-8.8 -6.4,-14 -4.54,-3.28 -10.73,-6.02 -15.15,-6.02"
         style="fill:#e88f78;fill-opacity:1;fill-rule:nonzero;stroke:none;stroke-width:0.1"
         id="path1570" />
      <path
         d="m 1671.7,339.47 c 1.13,2.61 4.26,5.55 7.15,6.76 3.39,1.43 7.25,2.19 10.59,2.19 1.61,0 3.09,-0.18 4.34,-0.55 -7.47,-2.49 -14.86,-5.32 -22.08,-8.4"
         style="fill:#e88f78;fill-opacity:1;fill-rule:nonzero;stroke:none;stroke-width:0.1"
         id="path1572" />
      <path
         d="m 1727.08,326.09 c -3.36,0 -5.93,1.09 -6.01,3.9 -0.02,0.49 0.08,1.03 0.28,1.6 1.72,0.65 3.41,1.3 5.05,1.94 5.71,2.24 11.39,4.35 17.12,6.37 0.53,-0.4 0.93,-0.89 1.17,-1.47 1.6,-3.84 -1.18,-7.25 -7.67,-10.07 -3.11,-1.35 -6.86,-2.27 -9.94,-2.27"
         style="fill:#e88f78;fill-opacity:1;fill-rule:nonzero;stroke:none;stroke-width:0.1"
         id="path1574" />
      <path
         d="m 1782.76,340.82 c -3.73,0 -6.63,1.14 -6.76,4.07 -0.13,2.91 3.86,7.34 7.45,8.93 3.38,1.5 7.23,2.31 10.51,2.31 3.52,0 6.39,-0.94 7.31,-2.98 1.78,-3.93 -1.17,-7.37 -8.1,-10.16 -3.24,-1.3 -7.14,-2.17 -10.41,-2.17"
         style="fill:#e88f78;fill-opacity:1;fill-rule:nonzero;stroke:none;stroke-width:0.1"
         id="path1576" />
      <path
         d="m 1762.23,294.07 c -4.46,0 -7.94,1.35 -8.11,4.82 -0.16,3.44 4.59,8.68 8.86,10.55 4.01,1.76 8.57,2.72 12.47,2.72 4.22,0 7.66,-1.12 8.77,-3.54 2.12,-4.66 -1.38,-8.73 -9.64,-12.01 -3.83,-1.52 -8.46,-2.54 -12.35,-2.54"
         style="fill:#e88f78;fill-opacity:1;fill-rule:nonzero;stroke:none;stroke-width:0.1"
         id="path1578" />
      <path
         d="m 1809.13,300.89 c -2.01,0 -3.61,0.77 -4.44,2.6 -1.42,3.14 1.07,9.76 4.36,13.07 4.78,4.83 11.54,8.34 16.19,8.34 1.58,0 2.93,-0.4 3.86,-1.31 3.69,-3.55 1.93,-8.62 -4.54,-14.7 -4.47,-4.2 -10.96,-8 -15.43,-8"
         style="fill:#e88f78;fill-opacity:1;fill-rule:nonzero;stroke:none;stroke-width:0.1"
         id="path1580" />
      <path
         d="m 1745.98,243.98 c -3.43,0 -6.03,1.14 -6.5,4.01 -0.55,3.4 3.58,9.14 7.61,11.48 4.58,2.66 10.09,4.24 14.43,4.24 3.14,0 5.66,-0.83 6.77,-2.67 2.63,-4.39 -0.39,-8.83 -8.22,-13.01 -4.33,-2.32 -9.84,-4.05 -14.09,-4.05"
         style="fill:#e88f78;fill-opacity:1;fill-rule:nonzero;stroke:none;stroke-width:0.1"
         id="path1582" />
      <path
         d="m 1672.28,221.99 c -9.5,0 -18.93,1.84 -28.29,3.35 -8.24,1.34 -16.34,2.31 -23.98,5.91 -11.36,5.35 -20.86,18.25 -23.28,30.49 -2.8,14.12 6.69,29.17 16.88,38.27 15.9,14.2 31.58,27.5 51.19,36.42 2.28,1.04 4.58,2.06 6.9,3.04 -0.31,-0.71 -0.47,-1.4 -0.43,-2.02 0.17,-2.96 3.27,-4.1 7.21,-4.1 3.32,0 7.24,0.81 10.49,2.05 7.11,2.69 10.11,6.07 8.24,9.99 -0.56,1.18 -1.79,2 -3.43,2.48 6.16,2.06 12.38,3.89 18.62,5.45 5.54,1.38 11.26,3.4 16.8,4.3 2.83,0.47 7.19,0.14 9.59,1.2 l 14,1.6 c 4.59,-0.63 14.83,-1.73 14.01,-8.8 -0.56,-4.81 -8.63,-6.78 -12.3,-7.99 -3.69,-1.21 -7.34,-2.45 -10.98,-3.73 -1.22,0.92 -3.13,1.35 -5.34,1.35 -3.11,0 -6.81,-0.85 -10.06,-2.41 -2.78,-1.33 -5.84,-4.56 -6.77,-7.25 -17.69,-6.72 -38.8,-14.2 -50.14,-29.25 -8.03,-10.65 -13.64,-25.43 -4.9,-37.12 5.77,-7.72 14.65,-11.64 23.4,-15.09 6.06,-2.39 10.56,-7.25 11.51,-14 2.01,-14.21 -17.44,-13.76 -26.31,-14.09 -0.88,-0.04 -1.75,-0.05 -2.63,-0.05 m -7.59,21.57 c -4.05,0 -8.89,-1.11 -13.08,-3.1 -4.21,-2 -8.8,-7.38 -8.53,-10.81 0.26,-3.31 3.46,-4.59 7.61,-4.59 4.01,0 8.91,1.19 12.91,2.92 8.15,3.53 11.53,7.69 9.26,12.29 -1.11,2.26 -4.27,3.29 -8.17,3.29 m -34.12,24.36 c -4.58,0 -10.89,-2.5 -15.75,-6.28 -3.68,-2.87 -7,-9.11 -6,-12.4 0.7,-2.29 2.67,-3.22 5.25,-3.22 4.41,0 10.6,2.74 15.15,6.02 7.2,5.2 9.6,10 6.4,14 -1.04,1.3 -2.85,1.88 -5.05,1.88 m 14,39.19 c -4.58,0 -10.89,-2.5 -15.75,-6.28 -3.68,-2.86 -7,-9.1 -6,-12.4 0.7,-2.29 2.67,-3.22 5.24,-3.22 4.42,0 10.61,2.74 15.16,6.02 7.19,5.2 9.59,10 6.39,14 -1.04,1.3 -2.84,1.88 -5.04,1.88"
         style="fill:#d1664c;fill-opacity:1;fill-rule:nonzero;stroke:none;stroke-width:0.1"
         id="path1584" />
      <path
         d="m 1614.07,246.02 c -2.58,0 -4.55,0.93 -5.25,3.22 -1,3.29 2.32,9.53 6,12.4 4.86,3.78 11.17,6.28 15.75,6.28 2.2,0 4.01,-0.58 5.05,-1.88 3.2,-4 0.8,-8.8 -6.4,-14 -4.55,-3.28 -10.74,-6.02 -15.15,-6.02"
         style="fill:#ed9781;fill-opacity:1;fill-rule:nonzero;stroke:none;stroke-width:0.1"
         id="path1586" />
      <path
         d="m 1628.06,285.21 c -2.57,0 -4.54,0.93 -5.24,3.22 -1,3.3 2.32,9.54 6,12.4 4.86,3.78 11.17,6.28 15.75,6.28 2.2,0 4,-0.58 5.04,-1.88 3.2,-4 0.8,-8.8 -6.39,-14 -4.55,-3.28 -10.74,-6.02 -15.16,-6.02"
         style="fill:#ed9781;fill-opacity:1;fill-rule:nonzero;stroke:none;stroke-width:0.1"
         id="path1588" />
      <path
         d="m 1678.48,333.35 c -3.94,0 -7.04,1.14 -7.21,4.1 -0.04,0.62 0.12,1.31 0.43,2.02 7.22,3.08 14.61,5.91 22.08,8.4 1.64,-0.48 2.87,-1.3 3.43,-2.48 1.87,-3.92 -1.13,-7.3 -8.24,-9.99 -3.25,-1.24 -7.17,-2.05 -10.49,-2.05"
         style="fill:#ed9781;fill-opacity:1;fill-rule:nonzero;stroke:none;stroke-width:0.1"
         id="path1590" />
      <path
         d="m 1721.35,331.59 c 0.93,2.69 3.99,5.92 6.77,7.25 3.25,1.56 6.95,2.41 10.06,2.41 2.21,0 4.12,-0.43 5.34,-1.35 -5.73,-2.02 -11.41,-4.13 -17.12,-6.37 -1.64,-0.64 -3.33,-1.29 -5.05,-1.94"
         style="fill:#ed9781;fill-opacity:1;fill-rule:nonzero;stroke:none;stroke-width:0.1"
         id="path1592" />
      <path
         d="m 1650.69,225.06 c -4.15,0 -7.35,1.28 -7.61,4.59 -0.27,3.43 4.32,8.81 8.53,10.81 4.19,1.99 9.03,3.1 13.08,3.1 3.9,0 7.06,-1.03 8.17,-3.29 2.27,-4.6 -1.11,-8.76 -9.26,-12.29 -4,-1.73 -8.9,-2.92 -12.91,-2.92"
         style="fill:#ed9781;fill-opacity:1;fill-rule:nonzero;stroke:none;stroke-width:0.1"
         id="path1594" />
      <path
         d="m 1840.62,177.51 c -16.89,0 -35.45,2.19 -55.59,7.49 -8.75,2.3 -16.47,11.74 -18.45,20.72 2.49,1.27 3.73,3.23 3.59,5.91 -0.08,1.61 -1.13,3.08 -2.82,4.34 2.18,4.59 7.34,7.81 16.63,7.81 3.16,0 6.79,-0.37 10.95,-1.19 2.99,-0.59 5.96,-1.1 8.91,-1.54 -1.51,-0.92 -2.65,-2.05 -2.99,-3.21 -1.5,-5.19 8.56,-8.23 16.25,-8.29 0.11,0 0.22,0 0.33,0 7.47,0 11.34,2.06 10.86,6.32 -0.13,1.11 -0.81,2.16 -1.89,3.09 2.61,-0.1 5.18,-0.14 7.71,-0.14 17.37,0 32.75,2.21 44.22,5.38 2.48,-0.59 5.1,-0.93 7.55,-1 0.42,-0.01 0.84,-0.01 1.24,-0.01 8.08,0 12.45,2.36 12.35,7.24 -0.03,1.1 -0.5,2.15 -1.33,3.12 9.26,8.14 9.51,17.31 9.89,28.65 2.93,-2.28 8.5,-3.62 13.24,-3.73 0.31,-0.01 0.62,-0.01 0.92,-0.01 6.88,0 10.61,2 10.54,6.14 -0.07,4.26 -8.23,7.66 -15.83,7.66 -0.09,0 -0.19,0 -0.28,0 -2.68,-0.04 -6.05,-1.21 -8.25,-2.81 0.76,8.66 4.66,12.21 9.97,12.21 17.24,0 49.33,-37.47 36.75,-58.17 -7.07,-11.62 -47.59,-45.98 -114.47,-45.98 m 9.17,22.66 c -1.29,0 -2.58,-0.07 -3.84,-0.23 -4.63,-0.56 -10.69,-4.2 -11.53,-7.54 -1.4,-5.6 7.61,-8.23 15.84,-8.23 1.05,0 2.09,0.05 3.09,0.13 8.85,0.76 13.37,3.63 12.69,8.71 -0.59,4.36 -8.33,7.16 -16.25,7.16 m 87.43,30.09 c -3.73,0 -8,-0.81 -11.81,-2.35 -4.32,-1.74 -9.22,-6.84 -9.16,-10.28 0.07,-3.66 3.86,-5.08 8.66,-5.08 3.73,0 8.07,0.86 11.72,2.19 8.35,3.03 11.97,6.99 9.99,11.71 -1.09,2.6 -4.84,3.81 -9.4,3.81"
         style="fill:#d1664c;fill-opacity:1;fill-rule:nonzero;stroke:none;stroke-width:0.1"
         id="path1596" />
      <path
         d="m 1817.43,209.55 c -0.11,0 -0.22,0 -0.33,0 -7.69,0.06 -17.75,3.1 -16.25,8.29 0.34,1.16 1.48,2.29 2.99,3.21 7.71,-1.15 15.28,-1.82 22.56,-2.09 1.08,-0.93 1.76,-1.98 1.89,-3.09 0.48,-4.26 -3.39,-6.32 -10.86,-6.32"
         style="fill:#ed9781;fill-opacity:1;fill-rule:nonzero;stroke:none;stroke-width:0.1"
         id="path1598" />
      <path
         d="m 1922.19,258.46 c -0.3,0 -0.61,0 -0.92,0.01 -4.74,0.11 -10.31,1.45 -13.24,3.73 0.07,2.02 0.14,4.11 0.27,6.28 0.02,0.33 0.04,0.65 0.07,0.97 2.2,1.6 5.57,2.77 8.25,2.81 0.09,0 0.19,0 0.28,0 7.6,0 15.76,-3.4 15.83,-7.66 0.07,-4.14 -3.66,-6.14 -10.54,-6.14"
         style="fill:#ed9781;fill-opacity:1;fill-rule:nonzero;stroke:none;stroke-width:0.1"
         id="path1600" />
      <path
         d="m 1887.12,223.19 c -0.4,0 -0.82,0 -1.24,0.01 -2.45,0.07 -5.07,0.41 -7.55,1 7.81,2.15 13.81,4.75 17.37,7.39 0.88,0.65 1.69,1.3 2.44,1.96 0.83,-0.97 1.3,-2.02 1.33,-3.12 0.1,-4.88 -4.27,-7.24 -12.35,-7.24"
         style="fill:#ed9781;fill-opacity:1;fill-rule:nonzero;stroke:none;stroke-width:0.1"
         id="path1602" />
      <path
         d="m 1924.91,212.55 c -4.8,0 -8.59,1.42 -8.66,5.08 -0.06,3.44 4.84,8.54 9.16,10.28 3.81,1.54 8.08,2.35 11.81,2.35 4.56,0 8.31,-1.21 9.4,-3.81 1.98,-4.72 -1.64,-8.68 -9.99,-11.71 -3.65,-1.33 -7.99,-2.19 -11.72,-2.19"
         style="fill:#ed9781;fill-opacity:1;fill-rule:nonzero;stroke:none;stroke-width:0.1"
         id="path1604" />
      <path
         d="m 1850.26,184.17 c -8.23,0 -17.24,2.63 -15.84,8.23 0.84,3.34 6.9,6.98 11.53,7.54 1.26,0.16 2.55,0.23 3.84,0.23 7.92,0 15.66,-2.8 16.25,-7.16 0.68,-5.08 -3.84,-7.95 -12.69,-8.71 -1,-0.08 -2.04,-0.13 -3.09,-0.13"
         style="fill:#ed9781;fill-opacity:1;fill-rule:nonzero;stroke:none;stroke-width:0.1"
         id="path1606" />
      <path
         d="m 1766.58,205.72 c -0.8,3.67 -0.66,7.25 0.77,10.25 1.69,-1.26 2.74,-2.73 2.82,-4.34 0.14,-2.68 -1.1,-4.64 -3.59,-5.91"
         style="fill:#ed9781;fill-opacity:1;fill-rule:nonzero;stroke:none;stroke-width:0.1"
         id="path1608" />
    </g>
  </g>
</svg>
