<svg width="715" height="390" viewBox="0 0 715 390" fill="none" xmlns="http://www.w3.org/2000/svg">
<path d="M545.881 133.531L470.934 105.771L364.427 101.424L287.374 118.01L244.667 154.864L254.04 182.771C254.04 182.771 252.147 168.517 268.187 154.397C284.241 140.277 304.227 121.77 361.561 121.264C428.574 120.664 479.92 124.464 508.454 134.917C533.054 143.931 561.054 165.117 561.4 168.211C561.76 171.304 569.08 161.117 569.08 161.117L545.881 133.531" fill="#994575"/>
<path d="M578.96 159.144L557.24 206.237L480.533 244.864L374.24 244.811L291.187 221.664L255.666 199.437L235.853 166.117L229.453 192.904C229.453 192.904 226.573 206.637 254.946 231.131C278.893 251.797 376.747 282.157 448.24 274.917C601.8 259.384 588.133 188.864 588.133 188.864L578.96 159.144" fill="#994575"/>
<path d="M558.054 186.17C541.854 220.357 478.414 245.237 386.894 236.424C318.107 229.81 253.707 212.544 251.4 169.051C248.827 120.557 331.467 107.131 380.52 105.624C522.454 101.277 577.294 145.61 558.054 186.17V186.17ZM376.067 95.9705C323.4 97.5972 233.307 118.357 236.067 170.424C238.534 217.117 311.68 242.144 385.174 252.117C478.347 264.784 561.054 225.717 578.454 189.024C599.094 145.477 528.427 91.3039 376.067 95.9705Z" fill="#ECCEED"/>
<path d="M276.693 225.371C277.227 230.344 273.88 234.731 274.427 239.771C274.64 241.731 278.014 241.277 277.8 239.331C277.267 234.357 280.613 229.957 280.067 224.931C279.867 222.971 276.48 223.424 276.693 225.371Z" fill="#C1599A"/>
<path d="M301.093 235.784C299.853 240.144 298.253 244.424 296.906 248.757C296.333 250.624 299.533 251.797 300.106 249.917C301.453 245.584 303.053 241.317 304.293 236.944C304.813 235.077 301.626 233.89 301.093 235.784Z" fill="#C1599A"/>
<path d="M320.307 242.57C319.813 247.49 319.814 252.477 318.067 257.184C317.387 259.037 320.587 260.197 321.267 258.344C323.12 253.37 323.187 248.144 323.707 242.944C323.907 240.997 320.493 240.624 320.307 242.57" fill="#C1599A"/>
<path d="M364.107 252.251C364.254 256.944 364.414 261.624 363.947 266.291C363.747 268.237 367.16 268.611 367.36 266.664C367.827 261.997 367.667 257.317 367.52 252.624C367.454 250.691 364.04 250.304 364.107 252.251Z" fill="#C1599A"/>
<path d="M415.4 258.651C417.36 261.917 416.48 266.011 417.493 269.504C418.04 271.397 421.427 270.984 420.867 269.064C419.76 265.277 420.653 261.011 418.52 257.451C417.48 255.717 414.347 256.891 415.4 258.651" fill="#C1599A"/>
<path d="M458.267 255.864C457.867 259.624 457.374 263.544 458.467 267.277C459.014 269.171 462.4 268.757 461.84 266.837C460.814 263.344 461.294 259.744 461.68 256.237C461.894 254.291 458.48 253.917 458.267 255.864" fill="#C1599A"/>
<path d="M492.013 250.811C492.506 254.251 491.933 257.744 492.253 261.211C492.44 263.171 495.813 262.717 495.64 260.771C495.306 257.304 495.88 253.824 495.4 250.357C495.12 248.411 491.746 248.851 492.013 250.811Z" fill="#C1599A"/>
<path d="M536.867 231.49C536.387 235.917 535.894 240.344 535.414 244.77C535.201 246.717 538.614 247.09 538.827 245.144C539.307 240.717 539.787 236.29 540.28 231.864C540.494 229.917 537.081 229.544 536.867 231.49Z" fill="#C1599A"/>
<path d="M235.521 191.131C234.961 195.784 233.8 200.317 232.64 204.864C232.147 206.757 235.56 207.104 236.04 205.237C237.214 200.691 238.374 196.157 238.934 191.504C239.16 189.557 235.761 189.184 235.521 191.131" fill="#C1599A"/>
<path d="M249.294 210.344C248.934 213.637 248.614 216.97 247.587 220.144C246.987 221.997 250.187 223.17 250.787 221.304C251.907 217.864 252.307 214.29 252.707 210.717C252.92 208.784 249.507 208.397 249.294 210.344Z" fill="#C1599A"/>
<path d="M263.587 220.624C264.76 223.891 263.254 228.104 262.854 231.384C262.627 233.331 266.04 233.704 266.267 231.757C266.747 227.771 268.133 223.397 266.693 219.424C266.013 217.544 262.907 218.771 263.587 220.624Z" fill="#C1599A"/>
<path d="M290.307 233.371C289.254 237.051 288.747 240.784 288.334 244.557C288.12 246.504 291.534 246.877 291.747 244.931C292.134 241.437 292.534 237.944 293.507 234.544C294.054 232.677 290.854 231.491 290.307 233.371Z" fill="#C1599A"/>
<path d="M310.16 241.251C311.04 245.117 310.693 249.037 310.946 252.944C311.066 254.904 314.44 254.437 314.32 252.504C314.066 248.597 314.427 244.691 313.533 240.811C313.093 238.877 309.706 239.317 310.16 241.251Z" fill="#C1599A"/>
<path d="M328.921 246.357C329.707 250.904 328.694 255.437 328.747 259.984C328.774 261.931 332.187 262.317 332.161 260.357C332.094 255.531 333.12 250.744 332.294 245.917C331.96 243.971 328.587 244.411 328.921 246.357" fill="#C1599A"/>
<path d="M340.986 249.104C340.453 253.917 339.96 258.731 340.84 263.544C341.2 265.491 344.573 265.051 344.213 263.104C343.386 258.557 343.893 254.011 344.386 249.491C344.6 247.544 341.199 247.157 340.986 249.104Z" fill="#C1599A"/>
<path d="M347.6 251.664C347.173 256.064 347.373 260.477 347.6 264.904C347.693 266.851 351.067 266.397 350.973 264.464C350.76 260.304 350.614 256.17 351.014 252.037C351.2 250.09 347.8 249.717 347.6 251.664" fill="#C1599A"/>
<path d="M467.613 113.957C467.333 116.984 467.586 120.051 467.306 123.077C467.12 125.024 470.533 125.411 470.72 123.451C471 120.424 470.746 117.357 471.026 114.331C471.213 112.384 467.8 111.997 467.613 113.957Z" fill="#C1599A"/>
<path d="M474.387 117.304C475.173 119.344 475.067 121.677 475.574 123.784C476.04 125.704 479.413 125.277 478.947 123.344C478.373 120.944 478.4 118.437 477.494 116.104C476.774 114.224 473.667 115.437 474.387 117.304Z" fill="#C1599A"/>
<path d="M482.907 119.291C482.707 121.104 482.506 122.917 482.306 124.731C482.093 126.677 485.507 127.051 485.72 125.104C485.92 123.291 486.12 121.477 486.32 119.664C486.533 117.717 483.12 117.344 482.907 119.291Z" fill="#C1599A"/>
<path d="M501.734 123.797C501.52 125.77 501.387 127.744 501.841 129.717C502.294 131.637 505.667 131.21 505.214 129.277C504.814 127.557 504.961 125.89 505.147 124.17C505.361 122.224 501.947 121.85 501.734 123.797Z" fill="#C1599A"/>
<path d="M513.893 128.344C514.76 130.464 515.213 132.731 515.76 134.904C516.253 136.824 519.64 136.397 519.147 134.464C518.52 132.024 517.973 129.517 517.013 127.144C516.253 125.291 513.147 126.504 513.893 128.344" fill="#C1599A"/>
<path d="M525.56 133.131C525.374 134.917 525.307 136.664 525.733 138.437C526.2 140.37 529.573 139.931 529.107 137.997C528.733 136.464 528.8 135.05 528.973 133.504C529.187 131.557 525.774 131.184 525.56 133.131" fill="#C1599A"/>
<path d="M540.093 143.744C540.573 144.357 540.387 146.224 539.96 147.13C539.133 148.93 542.333 150.09 543.16 148.29C544.04 146.384 544.147 143.664 542.733 141.877C541.453 140.25 538.813 142.13 540.093 143.744Z" fill="#C1599A"/>
<path d="M453.427 111.171C453.121 113.997 452.814 116.811 452.494 119.624C452.281 121.571 455.694 121.944 455.907 119.997C456.214 117.184 456.534 114.371 456.841 111.544C457.054 109.597 453.641 109.224 453.427 111.171Z" fill="#C1599A"/>
<path d="M440.293 112.891C440.08 112.731 440.2 112.917 440.2 113.104C440.187 113.597 440.067 114.091 439.96 114.571C439.733 115.651 439.32 116.691 438.96 117.731C438.32 119.584 441.52 120.757 442.16 118.904C442.96 116.557 445.013 112.464 442.293 110.464C440.56 109.197 438.573 111.624 440.293 112.891Z" fill="#C1599A"/>
<path d="M431.574 109.597C430.44 112.584 430.254 115.69 430.56 118.85C430.747 120.81 434.12 120.357 433.933 118.411C433.68 115.811 433.84 113.21 434.774 110.757C435.467 108.917 432.267 107.757 431.574 109.597Z" fill="#C1599A"/>
<path d="M418.933 111.064C418.773 112.917 419.307 114.637 419.773 116.451C420.28 118.357 423.667 117.931 423.16 115.997C422.76 114.491 422.2 112.997 422.333 111.437C422.507 109.49 419.093 109.104 418.933 111.064Z" fill="#C1599A"/>
<path d="M408.494 111.744C408.267 113.904 408.04 116.104 408.534 118.264C408.974 120.197 412.36 119.757 411.907 117.824C411.48 115.931 411.707 114.01 411.907 112.117C412.12 110.17 408.707 109.797 408.494 111.744" fill="#C1599A"/>
<path d="M397.214 162.184L319.68 140.224L213.333 148.451L138.547 176.584L100.12 223.251L112.48 253.437C112.48 253.437 109.04 237.651 123.453 219.811C137.867 201.971 155.707 178.731 212.653 171.104C279.2 162.184 330.667 160.117 360.16 168.357C385.6 175.451 415.747 195.797 416.427 199.224C417.107 202.664 423.293 190.304 423.293 190.304L397.214 162.184" fill="#994575"/>
<path d="M432.894 186.877L416.427 242.451L344.387 295.291L238.72 308.317L153.64 292.544L115.907 271.957L92.5736 236.971L89.1469 267.837C89.1469 267.837 87.7734 283.624 118.653 307.637C144.707 327.904 245.294 349.957 315.574 333.024C466.507 296.664 445.24 219.131 445.24 219.131L432.894 186.877" fill="#994575"/>
<path d="M415.053 219.811C402.667 260.197 342.32 295.971 250.387 297.344C181.293 298.371 115.387 286.917 108.36 238.344C100.52 184.184 181.2 158.931 229.8 151.197C370.413 128.837 429.76 171.877 415.053 219.811ZM224.32 140.904C172.133 149.211 84.8533 183.637 93.2666 241.771C100.813 293.917 176.24 313.024 250.387 315.184C344.387 317.931 422.347 263.864 435.64 220.504C451.413 169.037 375.253 116.891 224.32 140.904" fill="#ECCEED"/>
<path d="M139.64 298.491C140.707 304.011 137.867 309.357 138.947 314.957C139.374 317.117 142.68 316.197 142.267 314.037C141.187 308.517 144.04 303.171 142.947 297.571C142.52 295.411 139.214 296.331 139.64 298.491Z" fill="#C1599A"/>
<path d="M165.027 307.184C164.267 312.237 163.147 317.237 162.28 322.277C161.907 324.437 165.214 325.37 165.587 323.184C166.454 318.144 167.587 313.157 168.334 308.09C168.654 305.93 165.347 304.997 165.027 307.184Z" fill="#C1599A"/>
<path d="M184.866 312.437C184.906 318.024 185.453 323.637 184.24 329.131C183.76 331.291 187.066 332.211 187.546 330.051C188.84 324.224 188.333 318.344 188.293 312.437C188.28 310.224 184.84 310.224 184.866 312.437Z" fill="#C1599A"/>
<path d="M229.453 317.931C230.12 323.184 230.787 328.411 230.827 333.704C230.853 335.917 234.28 335.917 234.266 333.704C234.213 328.411 233.547 323.184 232.893 317.931C232.613 315.771 229.187 315.731 229.453 317.931Z" fill="#C1599A"/>
<path d="M281.146 318.797C283.453 322.211 283.013 326.931 284.413 330.731C285.16 332.797 288.48 331.904 287.72 329.824C286.2 325.704 286.626 320.797 284.12 317.064C282.893 315.237 279.92 316.957 281.146 318.797Z" fill="#C1599A"/>
<path d="M323.453 310.384C323.453 314.651 323.4 319.117 324.893 323.184C325.64 325.251 328.96 324.357 328.2 322.277C326.813 318.477 326.893 314.371 326.893 310.384C326.893 308.171 323.453 308.171 323.453 310.384" fill="#C1599A"/>
<path d="M356.454 300.544C357.307 304.357 357.12 308.357 357.827 312.211C358.227 314.384 361.534 313.464 361.134 311.291C360.427 307.437 360.614 303.464 359.76 299.637C359.28 297.477 355.974 298.384 356.454 300.544" fill="#C1599A"/>
<path d="M398.934 273.331C398.934 278.357 398.934 283.397 398.934 288.424C398.934 290.637 402.36 290.637 402.36 288.424C402.36 283.397 402.36 278.357 402.36 273.331C402.36 271.117 398.934 271.117 398.934 273.331Z" fill="#C1599A"/>
<path d="M94.9873 265.104C94.9339 270.397 94.2672 275.624 93.6139 280.877C93.3339 283.064 96.7607 283.037 97.0407 280.877C97.7073 275.624 98.3607 270.397 98.414 265.104C98.4274 262.877 95.0006 262.891 94.9873 265.104Z" fill="#C1599A"/>
<path d="M110.76 284.997C110.76 288.731 110.813 292.517 110.133 296.197C109.733 298.371 113.04 299.291 113.44 297.117C114.173 293.104 114.186 289.051 114.186 284.997C114.186 282.784 110.76 282.784 110.76 284.997Z" fill="#C1599A"/>
<path d="M126.093 294.784C127.613 298.304 126.573 303.224 126.547 306.944C126.52 309.157 129.96 309.157 129.973 306.944C130.013 302.424 130.907 297.331 129.053 293.051C128.173 291.024 125.213 292.771 126.093 294.784" fill="#C1599A"/>
<path d="M154.053 305.811C153.387 310.064 153.307 314.317 153.307 318.611C153.293 320.824 156.733 320.824 156.733 318.611C156.733 314.637 156.747 310.664 157.36 306.717C157.693 304.557 154.387 303.624 154.053 305.811" fill="#C1599A"/>
<path d="M174.627 312.211C175.933 316.451 176.013 320.891 176.693 325.251C177.027 327.424 180.333 326.491 180 324.331C179.32 319.971 179.253 315.544 177.933 311.291C177.293 309.184 173.973 310.091 174.627 312.211Z" fill="#C1599A"/>
<path d="M193.84 315.637C195.107 320.637 194.6 325.864 195.147 330.971C195.387 333.144 198.827 333.157 198.587 330.971C198 325.557 198.493 320.051 197.147 314.731C196.6 312.584 193.293 313.491 193.84 315.637Z" fill="#C1599A"/>
<path d="M206.134 317.237C206.134 322.704 206.174 328.171 207.561 333.477C208.134 335.611 211.441 334.704 210.867 332.571C209.547 327.544 209.561 322.397 209.561 317.237C209.561 315.024 206.134 315.024 206.134 317.237Z" fill="#C1599A"/>
<path d="M212.986 319.304C213.04 324.291 213.72 329.224 214.426 334.171C214.733 336.344 218.04 335.411 217.733 333.251C217.066 328.611 216.48 323.984 216.426 319.304C216.4 317.091 212.973 317.091 212.986 319.304" fill="#C1599A"/>
<path d="M317.279 149.824C317.333 153.277 317.919 156.677 317.973 160.117C317.999 162.33 321.426 162.33 321.4 160.117C321.346 156.677 320.76 153.277 320.706 149.824C320.68 147.624 317.253 147.61 317.279 149.824Z" fill="#C1599A"/>
<path d="M324.374 152.757C325.387 154.957 325.534 157.584 326.267 159.891C326.934 161.984 330.241 161.091 329.574 158.984C328.734 156.357 328.494 153.531 327.334 151.024C326.427 149.011 323.467 150.757 324.374 152.757" fill="#C1599A"/>
<path d="M333.066 153.944C333.066 156.01 333.066 158.064 333.066 160.117C333.066 162.33 336.493 162.33 336.493 160.117C336.493 158.064 336.493 156.01 336.493 153.944C336.493 151.73 333.066 151.73 333.066 153.944Z" fill="#C1599A"/>
<path d="M352.28 156.691C352.28 158.931 352.347 161.157 353.027 163.317C353.68 165.424 356.987 164.531 356.334 162.411C355.747 160.531 355.707 158.637 355.707 156.691C355.707 154.477 352.267 154.477 352.28 156.691" fill="#C1599A"/>
<path d="M364.853 160.304C365.947 162.571 366.64 165.064 367.427 167.437C368.12 169.531 371.44 168.637 370.733 166.531C369.853 163.864 369.04 161.104 367.827 158.571C366.867 156.571 363.907 158.317 364.853 160.304Z" fill="#C1599A"/>
<path d="M376.974 164.237C376.974 166.277 377.107 168.237 377.72 170.184C378.387 172.277 381.707 171.384 381.027 169.264C380.494 167.597 380.4 165.984 380.4 164.237C380.4 162.024 376.974 162.024 376.974 164.237Z" fill="#C1599A"/>
<path d="M392.574 174.371C393.12 174.997 393.134 177.117 392.814 178.184C392.187 180.317 395.493 181.224 396.12 179.104C396.787 176.851 396.6 173.784 395 171.944C393.547 170.277 391.12 172.704 392.574 174.371" fill="#C1599A"/>
<path d="M302.88 148.451C302.88 151.664 302.88 154.864 302.88 158.064C302.88 160.277 306.306 160.277 306.306 158.064C306.306 154.864 306.306 151.664 306.306 148.451C306.306 146.251 302.88 146.251 302.88 148.451Z" fill="#C1599A"/>
<path d="M290 151.997C289.773 151.851 289.92 152.051 289.933 152.251C289.987 152.811 289.92 153.384 289.867 153.931C289.747 155.171 289.454 156.397 289.214 157.611C288.787 159.771 292.094 160.691 292.52 158.517C293.067 155.797 294.654 150.944 291.734 149.037C289.88 147.824 288.16 150.797 290 151.997" fill="#C1599A"/>
<path d="M280.973 149.37C280.186 152.864 280.333 156.384 280.973 159.891C281.386 162.064 284.693 161.144 284.293 158.984C283.746 156.104 283.626 153.157 284.293 150.29C284.773 148.13 281.466 147.21 280.973 149.37Z" fill="#C1599A"/>
<path d="M268.574 152.571C268.614 154.691 269.334 156.544 270 158.517C270.707 160.597 274.027 159.704 273.307 157.611C272.747 155.944 272.04 154.344 272 152.571C271.947 150.371 268.521 150.357 268.574 152.571" fill="#C1599A"/>
<path d="M258.279 154.637C258.279 157.077 258.293 159.584 259.026 161.944C259.666 164.05 262.986 163.157 262.333 161.037C261.693 158.957 261.706 156.784 261.706 154.637C261.706 152.424 258.279 152.424 258.279 154.637" fill="#C1599A"/>
<path d="M593.266 252.277L529.08 203.571L427.053 172.464L347.16 171.397L294.373 200.824L294.867 233.451C294.867 233.451 297.413 217.504 317.346 206.144C337.266 194.784 362.36 179.651 418.16 193.291C483.387 209.251 532.053 226.104 556.52 244.517C577.613 260.397 598.266 290.344 597.653 293.784C597.04 297.224 607.293 287.984 607.293 287.984L593.266 252.277" fill="#994575"/>
<path d="M617.494 288.29L581.894 334.037L495.547 356.957L392.414 330.584L318.933 284.864L291.307 251.944L282.333 210.864L267.88 238.357C267.88 238.357 260.854 252.557 280.854 286.17C297.72 314.53 383.347 371.744 454.96 381.597C608.773 402.77 617.227 322.811 617.227 322.811L617.494 288.29" fill="#994575"/>
<path d="M588.867 312.451C562.614 345.544 493.387 356.851 407.267 324.611C342.56 300.384 285.374 265.677 296.534 217.891C308.974 164.597 393.307 170.504 441.387 181.024C580.481 211.451 620.041 273.171 588.867 312.451V312.451ZM440.027 169.437C388.414 158.144 294.587 158.384 281.227 215.584C269.241 266.891 332.507 312.171 400.761 341.224C487.294 378.051 579.601 356.117 607.787 320.597C641.241 278.424 589.334 202.104 440.027 169.437Z" fill="#ECCEED"/>
<path d="M303.733 285.304C302.72 290.837 298.12 294.784 297.093 300.384C296.693 302.557 300.106 302.904 300.493 300.744C301.52 295.211 306.12 291.264 307.146 285.651C307.546 283.477 304.12 283.131 303.733 285.304" fill="#C1599A"/>
<path d="M324.2 302.651C321.653 307.091 318.787 311.331 316.147 315.704C315.013 317.584 317.747 319.651 318.893 317.757C321.533 313.384 324.4 309.144 326.946 304.704C328.04 302.811 325.293 300.744 324.2 302.651Z" fill="#C1599A"/>
<path d="M340.747 314.784C338.76 319.997 337.227 325.424 334.08 330.104C332.853 331.931 335.6 333.984 336.827 332.157C340.16 327.211 341.84 321.544 343.946 316.024C344.733 313.971 341.547 312.717 340.747 314.784Z" fill="#C1599A"/>
<path d="M380.28 336.144C378.987 341.277 377.694 346.397 375.8 351.344C375.014 353.41 378.213 354.664 379 352.597C380.893 347.637 382.174 342.531 383.48 337.397C384.014 335.291 380.827 334.011 380.28 336.144Z" fill="#C1599A"/>
<path d="M428.093 355.797C429 359.824 426.867 364.064 426.787 368.104C426.733 370.304 430.147 370.677 430.187 368.464C430.293 364.077 432.467 359.664 431.493 355.264C431.013 353.117 427.613 353.637 428.093 355.797Z" fill="#C1599A"/>
<path d="M470.561 363.384C469.001 367.371 467.321 371.504 467.227 375.837C467.174 378.024 470.587 378.41 470.64 376.197C470.734 372.157 472.307 368.357 473.76 364.637C474.56 362.584 471.374 361.331 470.561 363.384Z" fill="#C1599A"/>
<path d="M504.867 366.264C504.281 370.131 502.641 373.771 501.894 377.624C501.481 379.797 504.894 380.131 505.307 377.984C506.054 374.131 507.694 370.491 508.28 366.611C508.614 364.437 505.201 364.077 504.867 366.264Z" fill="#C1599A"/>
<path d="M554.347 356.411C552.507 361.091 550.681 365.771 548.841 370.464C548.041 372.517 551.227 373.771 552.041 371.717C553.867 367.024 555.707 362.344 557.547 357.651C558.347 355.597 555.147 354.344 554.347 356.411" fill="#C1599A"/>
<path d="M274.32 237.93C272.346 242.85 269.813 247.477 267.28 252.117C266.226 254.064 269.44 255.291 270.48 253.371C273.013 248.717 275.533 244.09 277.506 239.184C278.333 237.13 275.146 235.877 274.32 237.93Z" fill="#C1599A"/>
<path d="M281.76 262.211C280.4 265.691 279.067 269.224 277.093 272.424C275.933 274.291 278.68 276.357 279.84 274.477C281.987 271.011 283.467 267.237 284.947 263.464C285.76 261.397 282.56 260.144 281.76 262.211" fill="#C1599A"/>
<path d="M292.466 276.904C292.6 280.744 289.84 284.944 288.453 288.411C287.626 290.464 290.813 291.704 291.64 289.651C293.333 285.451 296.026 281.037 295.853 276.371C295.773 274.171 292.386 274.717 292.466 276.904" fill="#C1599A"/>
<path d="M314.481 297.371C312.321 301.091 310.681 305.024 309.107 309.024C308.307 311.077 311.494 312.331 312.307 310.277C313.76 306.571 315.227 302.877 317.227 299.424C318.321 297.531 315.587 295.464 314.481 297.371" fill="#C1599A"/>
<path d="M331.307 310.837C330.987 315.251 329.44 319.424 328.48 323.731C327.987 325.877 331.413 326.224 331.893 324.077C332.853 319.771 334.4 315.624 334.72 311.197C334.88 308.997 331.48 308.624 331.307 310.837Z" fill="#C1599A"/>
<path d="M347.947 321.037C347.307 326.157 344.934 330.837 343.587 335.784C343.014 337.89 346.2 339.17 346.774 337.037C348.2 331.784 350.68 326.837 351.36 321.384C351.64 319.197 348.227 318.837 347.947 321.037Z" fill="#C1599A"/>
<path d="M358.814 327.011C356.827 332.091 354.854 337.197 354.227 342.651C353.974 344.837 357.374 345.211 357.64 343.011C358.24 337.851 360.12 333.051 362 328.251C362.814 326.197 359.614 324.944 358.814 327.011Z" fill="#C1599A"/>
<path d="M364.44 331.424C362.68 336.091 361.506 340.931 360.36 345.784C359.853 347.931 363.266 348.264 363.773 346.144C364.853 341.584 365.973 337.064 367.64 332.677C368.426 330.611 365.226 329.357 364.44 331.424" fill="#C1599A"/>
<path d="M523.347 211.637C522.133 214.864 521.44 218.251 520.227 221.477C519.454 223.544 522.654 224.797 523.427 222.717C524.627 219.491 525.334 216.117 526.534 212.891C527.307 210.824 524.12 209.571 523.347 211.637" fill="#C1599A"/>
<path d="M528.88 216.944C529.013 219.37 528.186 221.864 528.04 224.277C527.893 226.477 531.306 226.851 531.453 224.637C531.626 221.891 532.426 219.171 532.266 216.411C532.146 214.211 528.76 214.757 528.88 216.944Z" fill="#C1599A"/>
<path d="M536.534 221.224C535.787 223.144 535.04 225.051 534.28 226.971C533.48 229.037 536.667 230.291 537.48 228.224C538.227 226.304 538.987 224.384 539.734 222.477C540.534 220.411 537.347 219.157 536.534 221.224Z" fill="#C1599A"/>
<path d="M553.427 230.784C552.613 232.877 551.867 234.971 551.707 237.224C551.547 239.424 554.96 239.797 555.12 237.584C555.253 235.624 555.907 233.851 556.613 232.037C557.427 229.971 554.227 228.717 553.427 230.784Z" fill="#C1599A"/>
<path d="M563.827 238.731C564.014 241.237 563.747 243.811 563.614 246.317C563.507 248.517 566.921 248.891 567.027 246.677C567.174 243.864 567.427 241.011 567.214 238.197C567.054 235.997 563.667 236.544 563.827 238.731Z" fill="#C1599A"/>
<path d="M573.68 246.811C572.933 248.717 572.333 250.584 572.2 252.624C572.053 254.824 575.466 255.197 575.613 252.984C575.733 251.224 576.227 249.691 576.867 248.064C577.68 246.011 574.48 244.757 573.68 246.811" fill="#C1599A"/>
<path d="M584.507 261.93C584.787 262.717 584.027 264.704 583.334 265.584C581.974 267.331 584.734 269.384 586.081 267.637C587.521 265.784 588.467 262.864 587.654 260.557C586.907 258.477 583.761 259.864 584.507 261.93" fill="#C1599A"/>
<path d="M510.427 205.104C509.254 208.091 508.094 211.064 506.921 214.051C506.121 216.117 509.307 217.357 510.121 215.304C511.281 212.317 512.454 209.344 513.614 206.357C514.427 204.291 511.227 203.051 510.427 205.104Z" fill="#C1599A"/>
<path d="M497.147 203.704C497 203.491 497.053 203.731 496.986 203.931C496.84 204.464 496.56 204.971 496.32 205.464C495.76 206.571 495.04 207.611 494.373 208.651C493.187 210.504 495.92 212.557 497.12 210.704C498.613 208.371 501.867 204.424 499.84 201.584C498.56 199.771 495.867 201.917 497.147 203.704" fill="#C1599A"/>
<path d="M489.707 197.984C487.693 200.944 486.547 204.264 485.867 207.771C485.453 209.944 488.866 210.291 489.28 208.131C489.84 205.251 490.8 202.464 492.453 200.037C493.693 198.211 490.947 196.144 489.707 197.984Z" fill="#C1599A"/>
<path d="M476.986 196.437C476.253 198.424 476.24 200.411 476.146 202.491C476.053 204.691 479.466 205.064 479.56 202.851C479.64 201.104 479.56 199.344 480.173 197.677C480.933 195.611 477.746 194.357 476.986 196.437Z" fill="#C1599A"/>
<path d="M466.654 194.597C465.76 196.877 464.867 199.224 464.68 201.677C464.507 203.877 467.92 204.251 468.094 202.037C468.254 199.877 469.054 197.851 469.84 195.851C470.654 193.784 467.454 192.544 466.654 194.597" fill="#C1599A"/>
<path d="M303.72 310.771L306.187 334.837C306.187 334.837 312.773 334.011 318.426 332.371C324.08 330.717 329.227 329.384 329.227 329.384C329.227 329.384 320.173 324.451 315.04 320.744C309.893 317.037 303.72 310.771 303.72 310.771" fill="#703459"/>
</svg>
