<svg width="715" height="390" viewBox="0 0 715 390" fill="none" xmlns="http://www.w3.org/2000/svg">
<path d="M596.067 237.797C576.454 215.771 495.507 182.864 403.294 196.277C348.614 204.224 240.934 228.464 247.201 292.717C254.547 368.104 369.641 394.891 452.921 384.171C536.214 373.437 669.974 320.771 596.067 237.797Z" fill="#893C29"/>
<path d="M578.267 218.677C555.054 200.491 495.441 167.104 403.214 180.517C348.534 188.464 246.427 217.357 252.854 281.611C259.281 345.851 369.561 379.144 452.854 368.411C536.147 357.691 680.574 298.784 578.267 218.677Z" fill="#C65236"/>
<path d="M417.574 300.811C407.868 300.451 397.774 299.557 387.494 298.024C390.254 296.331 393.934 295.144 397.041 295.051C397.361 295.051 397.681 295.037 398.001 295.037C405.534 295.037 413.588 297.357 417.574 300.811" fill="#E88F78"/>
<path d="M389.48 267.851C385.067 267.851 380.894 267.211 377.974 265.784C386.6 259.611 394.987 253.011 402.787 246.117C409.267 246.784 414.467 249.077 415.507 252.877C417.32 259.464 411.854 264.077 400.307 266.664C396.894 267.424 393.107 267.851 389.48 267.851" fill="#E88F78"/>
<path d="M467.44 236.477C458.027 236.477 446.28 232.731 448.907 226.091C450.294 222.557 457.24 219.157 462.2 218.957C462.627 218.931 463.067 218.931 463.494 218.931C472.814 218.931 482.347 222.904 482.294 228.197C482.227 233.731 477.014 236.437 467.587 236.477C467.534 236.477 467.494 236.477 467.44 236.477" fill="#E88F78"/>
<path d="M526.414 243.157C524.174 241.424 523.094 239.264 524.041 236.771C524.468 235.611 525.494 234.491 526.868 233.491C526.828 233.917 526.801 234.344 526.774 234.784C526.601 237.677 526.508 240.464 526.414 243.157Z" fill="#E88F78"/>
<path d="M486.814 293.824C478.12 291.784 470.814 287.477 473.014 281.584C474.627 277.291 483.2 273.371 489.414 273.317C489.52 273.317 489.627 273.317 489.72 273.317C499.187 273.317 509.24 276.651 513.227 281.357C512.227 282.237 511.147 283.104 509.974 283.971C505.227 287.491 497.227 290.957 486.814 293.824" fill="#E88F78"/>
<path d="M324.694 320.757C312.867 320.757 297.734 316.104 300.52 307.904C300.64 307.544 300.814 307.197 301.027 306.837C306.64 304.891 312.094 302.797 317.334 300.531C318.347 300.091 319.374 299.651 320.4 299.184C327.56 299.557 334.667 301.677 338.84 304.797C336.934 308.797 336.747 313.571 337.814 318.464C334.8 319.984 330.414 320.744 324.774 320.757C324.747 320.757 324.72 320.757 324.694 320.757" fill="#E88F78"/>
<path d="M400.067 115.651C372.734 104.544 302.947 95.2773 217.96 133.517C167.574 156.197 70.707 200.264 96.4137 273.104C117.907 333.984 240.2 333.744 317.334 300.531C394.467 267.331 520.44 164.544 400.067 115.651" fill="#893C29"/>
<path d="M392.427 109.237C365.094 98.1307 308.494 93.6907 213.627 120.664C160.467 135.757 72.9873 199.184 96.8407 259.184C120.681 319.184 235.854 320.877 312.987 287.677C390.121 254.464 512.801 158.131 392.427 109.237Z" fill="#C65236"/>
<path d="M256.107 253.597C251.32 253.597 247.614 252.211 247.16 248.637C246.694 244.851 251.854 238.877 256.734 236.624C261.68 234.344 267.467 233.064 272.294 233.064C276.774 233.064 280.427 234.157 281.814 236.584C284.68 241.624 280.894 246.251 271.44 250.224C266.72 252.211 260.88 253.597 256.107 253.597" fill="#E88F78"/>
<path d="M228.307 217.277C224.88 217.277 222.254 216.037 221.32 212.984C219.987 208.584 224.414 200.264 229.32 196.451C235.787 191.411 244.214 188.077 250.307 188.077C253.254 188.077 255.654 188.851 257.041 190.584C261.307 195.917 258.107 202.317 248.507 209.251C242.454 213.624 234.2 217.277 228.307 217.277" fill="#E88F78"/>
<path d="M211.307 140.131C212.813 136.651 216.987 132.731 220.84 131.117C225.36 129.211 230.507 128.197 234.96 128.197C237.107 128.197 239.08 128.437 240.747 128.931C230.787 132.251 220.933 136.024 211.307 140.131Z" fill="#E88F78"/>
<path d="M285.148 157.971C280.668 157.971 277.241 156.517 277.134 152.771C277.108 152.117 277.241 151.397 277.508 150.637C279.801 149.771 282.054 148.904 284.241 148.051C291.854 145.064 299.428 142.251 307.068 139.557C307.774 140.091 308.308 140.744 308.628 141.517C310.761 146.637 307.054 151.184 298.401 154.944C294.254 156.744 289.254 157.971 285.148 157.971" fill="#E88F78"/>
<path d="M359.388 138.331C354.414 138.331 350.548 136.811 350.374 132.904C350.201 129.024 355.521 123.117 360.308 120.997C364.814 118.997 369.948 117.917 374.321 117.917C379.014 117.917 382.841 119.171 384.068 121.891C386.441 127.131 382.508 131.717 373.268 135.437C368.948 137.171 363.748 138.331 359.388 138.331" fill="#E88F78"/>
<path d="M332.014 200.664C326.067 200.664 321.427 198.864 321.201 194.237C320.987 189.651 327.321 182.664 333.014 180.171C338.361 177.824 344.441 176.544 349.641 176.544C355.267 176.544 359.854 178.037 361.334 181.264C364.161 187.477 359.494 192.904 348.481 197.277C343.374 199.304 337.201 200.664 332.014 200.664Z" fill="#E88F78"/>
<path d="M394.548 191.571C391.868 191.571 389.734 190.544 388.628 188.104C386.734 183.917 390.054 175.091 394.441 170.677C400.814 164.237 409.828 159.557 416.028 159.557C418.134 159.557 419.934 160.091 421.174 161.304C426.094 166.037 423.748 172.797 415.121 180.904C409.161 186.504 400.508 191.571 394.548 191.571" fill="#E88F78"/>
<path d="M310.347 267.451C305.774 267.451 302.307 265.931 301.68 262.104C300.947 257.571 306.454 249.917 311.827 246.797C317.934 243.251 325.28 241.144 331.067 241.144C335.254 241.144 338.614 242.251 340.094 244.704C343.6 250.557 339.574 256.477 329.134 262.051C323.36 265.144 316.014 267.451 310.347 267.451" fill="#E88F78"/>
<path d="M212.081 296.771C199.414 296.771 186.841 294.317 174.361 292.304C163.374 290.517 152.574 289.224 142.387 284.424C127.241 277.291 114.574 260.091 111.347 243.771C107.614 224.944 120.267 204.877 133.854 192.744C155.054 173.811 175.961 156.077 202.107 144.184C205.147 142.797 208.214 141.437 211.307 140.131C210.894 141.077 210.681 141.997 210.734 142.824C210.961 146.771 215.094 148.291 220.347 148.291C224.774 148.291 230.001 147.211 234.334 145.557C243.814 141.971 247.814 137.464 245.321 132.237C244.574 130.664 242.934 129.571 240.747 128.931C248.961 126.184 257.254 123.744 265.574 121.664C272.961 119.824 280.587 117.131 287.974 115.931C291.747 115.304 297.561 115.744 300.761 114.331L319.427 112.197C325.547 113.037 339.201 114.504 338.107 123.931C337.361 130.344 326.601 132.971 321.707 134.584C316.787 136.197 311.921 137.851 307.067 139.557C305.441 138.331 302.894 137.757 299.947 137.757C295.801 137.757 290.867 138.891 286.534 140.971C282.827 142.744 278.747 147.051 277.507 150.637C253.921 159.597 225.774 169.571 210.654 189.637C199.947 203.837 192.467 223.544 204.121 239.131C211.814 249.424 223.654 254.651 235.321 259.251C243.401 262.437 249.401 268.917 250.667 277.917C253.347 296.864 227.414 296.264 215.587 296.704C214.414 296.757 213.254 296.771 212.081 296.771ZM201.961 268.011C196.561 268.011 190.107 269.491 184.521 272.144C178.907 274.811 172.787 281.984 173.147 286.557C173.494 290.971 177.761 292.677 183.294 292.677C188.641 292.677 195.174 291.091 200.507 288.784C211.374 284.077 215.881 278.531 212.854 272.397C211.374 269.384 207.161 268.011 201.961 268.011M156.467 235.531C150.361 235.531 141.947 238.864 135.467 243.904C130.561 247.731 126.134 256.051 127.467 260.437C128.401 263.491 131.027 264.731 134.467 264.731C140.347 264.731 148.601 261.077 154.667 256.704C164.267 249.771 167.467 243.371 163.201 238.037C161.814 236.304 159.401 235.531 156.467 235.531M175.134 183.277C169.027 183.277 160.614 186.611 154.134 191.651C149.227 195.464 144.801 203.784 146.134 208.184C147.067 211.237 149.694 212.477 153.121 212.477C159.014 212.477 167.267 208.824 173.334 204.451C182.921 197.517 186.121 191.117 181.854 185.784C180.467 184.051 178.067 183.277 175.134 183.277" fill="#D1664C"/>
<path d="M134.467 264.731C131.027 264.731 128.4 263.491 127.467 260.437C126.134 256.051 130.56 247.731 135.467 243.904C141.947 238.864 150.36 235.531 156.467 235.531C159.4 235.531 161.814 236.304 163.2 238.037C167.467 243.371 164.267 249.771 154.667 256.704C148.6 261.077 140.347 264.731 134.467 264.731" fill="#ED9781"/>
<path d="M153.121 212.477C149.694 212.477 147.067 211.237 146.134 208.184C144.801 203.784 149.227 195.464 154.134 191.651C160.614 186.611 169.027 183.277 175.134 183.277C178.067 183.277 180.467 184.051 181.854 185.784C186.121 191.117 182.921 197.517 173.334 204.451C167.267 208.824 159.014 212.477 153.121 212.477" fill="#ED9781"/>
<path d="M220.347 148.291C215.094 148.291 210.96 146.771 210.734 142.824C210.68 141.997 210.894 141.077 211.307 140.131C220.934 136.024 230.787 132.251 240.747 128.931C242.934 129.571 244.574 130.664 245.32 132.237C247.814 137.464 243.814 141.971 234.334 145.557C230 147.211 224.774 148.291 220.347 148.291" fill="#ED9781"/>
<path d="M277.507 150.637C278.747 147.051 282.827 142.744 286.534 140.971C290.867 138.891 295.8 137.757 299.947 137.757C302.894 137.757 305.44 138.331 307.067 139.557C299.427 142.251 291.854 145.064 284.24 148.051C282.054 148.904 279.8 149.771 277.507 150.637Z" fill="#ED9781"/>
<path d="M183.294 292.677C177.76 292.677 173.494 290.971 173.147 286.557C172.787 281.984 178.907 274.811 184.52 272.144C190.107 269.491 196.56 268.011 201.96 268.011C207.16 268.011 211.374 269.384 212.854 272.397C215.88 278.531 211.374 284.077 200.507 288.784C195.174 291.091 188.64 292.677 183.294 292.677" fill="#ED9781"/>
<path d="M436.534 356.077C414.014 356.077 389.267 353.157 362.414 346.091C350.747 343.024 340.453 330.437 337.813 318.464C341.133 316.771 342.787 314.157 342.6 310.584C342.494 308.437 341.094 306.477 338.84 304.797C341.747 298.677 348.627 294.384 361.014 294.384C365.227 294.384 370.067 294.877 375.614 295.971C379.6 296.757 383.56 297.437 387.493 298.024C385.48 299.251 383.96 300.757 383.507 302.304C381.507 309.224 394.92 313.277 405.173 313.357C405.32 313.357 405.467 313.357 405.614 313.357C415.574 313.357 420.734 310.611 420.094 304.931C419.92 303.451 419.014 302.051 417.574 300.811C421.054 300.944 424.48 300.997 427.854 300.997C451.014 300.997 471.52 298.051 486.813 293.824C490.12 294.611 493.614 295.064 496.88 295.157C497.44 295.171 498 295.171 498.534 295.171C509.307 295.171 515.133 292.024 515 285.517C514.96 284.051 514.334 282.651 513.227 281.357C525.574 270.504 525.907 258.277 526.414 243.157C530.32 246.197 537.747 247.984 544.067 248.131C544.48 248.144 544.893 248.144 545.293 248.144C554.467 248.144 559.44 245.477 559.347 239.957C559.253 234.277 548.374 229.744 538.24 229.744C538.12 229.744 537.987 229.744 537.867 229.744C534.294 229.797 529.8 231.357 526.867 233.491C527.88 221.944 533.08 217.211 540.16 217.211C563.147 217.211 605.933 267.171 589.16 294.771C579.733 310.264 525.707 356.077 436.534 356.077M448.76 325.864C447.04 325.864 445.32 325.957 443.64 326.171C437.467 326.917 429.387 331.771 428.267 336.224C426.4 343.691 438.414 347.197 449.387 347.197C450.787 347.197 452.173 347.131 453.507 347.024C465.307 346.011 471.334 342.184 470.427 335.411C469.64 329.597 459.32 325.864 448.76 325.864M565.333 285.744C560.36 285.744 554.667 286.824 549.587 288.877C543.827 291.197 537.294 297.997 537.374 302.584C537.467 307.464 542.52 309.357 548.92 309.357C553.894 309.357 559.68 308.211 564.547 306.437C575.68 302.397 580.507 297.117 577.867 290.824C576.414 287.357 571.413 285.744 565.333 285.744Z" fill="#D1664C"/>
<path d="M405.613 313.357C405.467 313.357 405.32 313.357 405.173 313.357C394.92 313.277 381.507 309.224 383.507 302.304C383.96 300.757 385.48 299.251 387.493 298.024C397.773 299.557 407.867 300.451 417.573 300.811C419.013 302.051 419.92 303.451 420.093 304.931C420.733 310.611 415.573 313.357 405.613 313.357" fill="#ED9781"/>
<path d="M545.294 248.144C544.894 248.144 544.481 248.144 544.067 248.131C537.747 247.984 530.321 246.197 526.414 243.157C526.507 240.464 526.601 237.677 526.774 234.784C526.801 234.344 526.827 233.917 526.867 233.491C529.801 231.357 534.294 229.797 537.867 229.744C537.987 229.744 538.121 229.744 538.241 229.744C548.374 229.744 559.254 234.277 559.347 239.957C559.441 245.477 554.467 248.144 545.294 248.144" fill="#ED9781"/>
<path d="M498.534 295.171C498 295.171 497.44 295.171 496.88 295.157C493.614 295.064 490.12 294.611 486.813 293.824C497.227 290.957 505.227 287.491 509.973 283.971C511.147 283.104 512.227 282.237 513.227 281.357C514.334 282.651 514.96 284.051 515 285.517C515.133 292.024 509.307 295.171 498.534 295.171" fill="#ED9781"/>
<path d="M548.92 309.357C542.52 309.357 537.467 307.464 537.374 302.584C537.294 297.997 543.827 291.197 549.587 288.877C554.667 286.824 560.36 285.744 565.334 285.744C571.414 285.744 576.414 287.357 577.867 290.824C580.507 297.117 575.68 302.397 564.547 306.437C559.68 308.211 553.894 309.357 548.92 309.357Z" fill="#ED9781"/>
<path d="M449.387 347.197C438.414 347.197 426.401 343.691 428.267 336.224C429.387 331.771 437.467 326.917 443.641 326.171C445.321 325.957 447.041 325.864 448.761 325.864C459.321 325.864 469.641 329.597 470.427 335.411C471.334 342.184 465.307 346.011 453.507 347.024C452.174 347.131 450.787 347.197 449.387 347.197" fill="#ED9781"/>
<path d="M337.814 318.464C336.747 313.571 336.934 308.797 338.84 304.797C341.094 306.477 342.494 308.437 342.6 310.584C342.787 314.157 341.134 316.771 337.814 318.464Z" fill="#ED9781"/>
</svg>
