<svg width="715" height="390" viewBox="0 0 715 390" fill="none" xmlns="http://www.w3.org/2000/svg">
<path d="M404.254 208.37C401.454 209.13 392.214 204.837 378.961 200.544C356.401 193.237 322.241 185.93 288.547 203.544C271.214 212.61 257.801 249.504 260.347 278.784C262.894 308.05 292.094 345.144 339.107 364.624C427.587 401.277 500.801 383.837 536.494 371.37C592.587 351.784 626.547 278.237 611.361 228.624C607.854 217.184 596.001 206.704 587.054 196.797C527.734 131.21 467.454 156.29 446.067 163.997C414.401 175.424 414.947 205.477 404.254 208.37" fill="#E22727"/>
<path d="M402.307 183.29C399.947 183.93 394.054 182.477 385.441 181.037C366.414 177.837 334.107 174.65 297.294 193.904C262.627 212.037 243.147 300.597 337.161 339.544C425.641 376.197 498.854 358.757 534.547 346.29C603.574 322.184 637.721 238.997 589.974 186.184C530.654 120.597 465.507 131.21 444.121 138.93C412.454 150.344 413.001 180.397 402.307 183.29" fill="#FF6A5F"/>
<path d="M444.521 349.97C416.827 349.97 384.694 345.184 349.867 331.05C358.947 326.024 368.134 320.317 377.347 313.81C399.041 321.424 419.72 324.184 437.681 324.184C469.547 324.184 492.801 315.464 497.601 309.637C503.534 302.437 462.2 268.57 431.854 245.45C436.134 233.144 437.587 221.37 436.121 211.237C434.36 199.144 429.614 186.397 423.32 175.264C426.774 166.504 432.334 157.21 443.627 150.984C450.961 146.944 463.467 143.704 478.76 143.704C490.827 143.704 504.641 145.73 518.987 150.984C537.147 157.637 557.401 168.344 575.387 192.93C612.441 243.61 585.107 315.37 523.894 336.57C506.441 342.61 478.894 349.97 444.521 349.97ZM489.827 164.304C487.2 164.304 484.747 164.53 482.521 164.97C458.214 169.784 444.281 195.824 450.921 216.09C459.787 243.104 520.801 299.21 532.587 299.21C532.961 299.21 533.294 299.157 533.574 299.037C542.321 295.17 562.094 266.784 560.307 226.21C558.547 185.904 515.854 164.304 489.827 164.304" fill="#FB544B"/>
<path d="M402.307 223.797C412.441 230.504 506.347 299.037 497.601 309.637C488.841 320.25 418.841 340.504 346.881 299.997C304.907 276.357 303.134 238.264 323.547 226.69C343.974 215.117 390.641 216.09 402.307 223.797Z" fill="#FF6A5F"/>
<path d="M450.921 216.09C460.067 243.97 524.827 302.89 533.574 299.037C542.321 295.17 562.094 266.784 560.307 226.21C558.374 181.85 506.827 160.144 482.521 164.97C458.214 169.784 444.281 195.824 450.921 216.09" fill="#FF6A5F"/>
<path d="M391.361 314.797C387.587 314.797 386.147 311.01 386.347 307.077C390.161 304.01 393.774 300.85 397.174 297.584C401.987 297.904 400.974 311.117 395.027 313.864C393.614 314.504 392.401 314.797 391.361 314.797" fill="#F89270"/>
<path d="M415.306 318.824C405.92 318.824 407.587 302.637 415.44 302.41L418.84 303.37C423.52 305.624 424.147 318.21 415.92 318.81C415.707 318.824 415.507 318.824 415.307 318.824" fill="#F89270"/>
<path d="M438.587 319.317C432.947 319.317 429.68 307.05 433.907 305.304L435.854 304.824C436.347 304.57 436.84 304.464 437.307 304.464C442.254 304.464 445.974 316.464 440.334 318.93C439.734 319.197 439.147 319.317 438.587 319.317" fill="#F89270"/>
<path d="M455.561 320.29C449.161 320.29 444.307 307.437 449.947 303.37H450.921C451.148 303.33 451.361 303.304 451.587 303.304C457.121 303.304 463.161 317.264 457.734 319.797C457.001 320.13 456.267 320.29 455.561 320.29" fill="#F89270"/>
<path d="M475.853 314.864C470.987 314.864 462.987 305.344 465.973 301.024C466.2 300.917 466.347 300.864 466.453 300.864C466.8 300.864 466.64 301.344 466.96 301.45L468.427 300.477C471.653 301.037 483.907 309.944 477.547 314.37C477.053 314.717 476.48 314.864 475.853 314.864" fill="#F89270"/>
<path d="M462.48 214.57C458.68 213.957 454.773 209.65 453.84 205.957C453.187 205.65 453.493 202.877 455.573 202.877C456.427 202.877 457.573 203.344 459.067 204.624C461.72 206.904 465.187 211.224 462.48 214.57" fill="#F89270"/>
<path d="M467.227 199.904C463.174 199.89 456.934 192.197 459.187 188.117V188.597C459.907 186.97 460.92 186.317 462.04 186.317C465.947 186.317 471.147 194.29 469.894 197.757C469.347 199.277 468.374 199.904 467.227 199.904" fill="#F89270"/>
<path d="M474.48 190.557C469.507 190.557 466.067 175.304 469.4 172.677L470.374 174.61C471 174.264 471.587 174.104 472.147 174.104C477.707 174.104 479.494 190.024 474.747 190.544C474.654 190.557 474.574 190.557 474.48 190.557" fill="#F89270"/>
<path d="M487.427 185.757C487.412 185.757 487.401 185.757 487.387 185.757C481.747 185.65 484.707 168.797 487.387 168.344L488.84 168.824C495.614 170.077 492 185.77 487.427 185.757" fill="#F89270"/>
<path d="M498.853 185.277C498.08 185.277 497.32 185.01 496.613 184.384C493.2 181.41 499.28 168.664 503.187 168.664C503.44 168.664 503.68 168.717 503.92 168.824L504.893 170.264C509.573 173.13 503.987 185.29 498.853 185.277" fill="#F89270"/>
<path d="M511.427 188.97C508.747 188.97 506.147 188.05 508.774 185.224L509.747 184.264C510.361 181.437 516.121 176.584 519.241 176.584C520.774 176.584 521.667 177.744 521.04 180.877C520.36 184.224 518.12 187.197 514.6 188.504C513.841 188.784 512.627 188.97 511.427 188.97" fill="#F89270"/>
<path d="M523.214 198.45C519.454 198.45 516.467 196.784 521.414 193.424L521.907 191.97C525.347 190.464 528.614 186.584 533.161 186.584C534.174 186.584 535.254 186.784 536.401 187.237C536.641 191.304 531.587 195.65 528.241 197.384C526.867 198.09 524.961 198.45 523.214 198.45" fill="#F89270"/>
<path d="M535.081 207.584C532.881 207.584 531.121 207.09 530.654 205.957L530.174 205.477C531.534 203.05 539.121 198.45 543.707 198.45C545.561 198.45 546.934 199.197 547.201 201.144C547.734 204.904 540.187 207.584 535.081 207.584Z" fill="#F89270"/>
<path d="M544.281 217.797C540.254 217.797 536.334 216.904 535.521 215.597L535.027 214.157C536.614 213.224 544.414 210.717 549.507 210.717C552.094 210.717 553.987 211.37 554.001 213.21C554.027 216.53 549.081 217.797 544.281 217.797" fill="#F89270"/>
<path d="M548.827 230.837C544.067 230.837 538.241 228.077 536.494 225.25L537.467 224.29C537.414 224.224 537.334 224.197 537.254 224.197C537.161 224.197 537.054 224.224 536.961 224.237C536.868 224.264 536.788 224.277 536.734 224.277C536.628 224.277 536.641 224.21 536.908 223.93C538.628 223.104 543.641 222.064 548.028 222.064C552.908 222.064 557.001 223.357 554.961 227.677C553.894 229.957 551.534 230.837 548.828 230.837" fill="#F89270"/>
<path d="M549.293 246.184C543.973 246.184 537.107 242.944 536.493 239.237L536 237.784C537.12 237.157 540.827 236.53 544.72 236.53C550.227 236.53 556.093 237.797 555.467 242.157C555.067 245.037 552.453 246.184 549.293 246.184" fill="#F89270"/>
<path d="M547.4 260.57C543.067 260.57 536.334 256.704 534.547 254.184L534.054 252.25C535.08 251.437 537.08 251.024 539.374 251.024C544.907 251.024 552.094 253.41 551.08 258.037C550.667 259.864 549.254 260.57 547.4 260.57" fill="#F89270"/>
<path d="M544.601 274.93C539.881 274.93 531.68 270.544 530.174 267.197V265.757C530.974 265.037 532.454 264.717 534.254 264.717C539.387 264.717 546.974 267.357 547.787 270.944C548.454 273.824 546.961 274.93 544.601 274.93Z" fill="#F89270"/>
<path d="M536.454 288.677C532.494 288.677 525.187 280.797 524.827 277.33C524.987 277.317 525.187 277.317 525.387 277.317C529.36 277.317 539.374 279.877 538.921 285.53C538.734 287.784 537.787 288.677 536.454 288.677" fill="#F89270"/>
<path d="M279.854 175.104C283.227 175.224 293.56 166.704 308.894 158.184C329.147 146.93 358.147 135.69 391.427 144.33C410.387 149.25 431.894 182.144 436.12 211.237C440.347 240.317 420.4 283.024 379.08 312.584C301.32 368.224 226.014 367.744 188.414 363.65C129.307 357.21 79.3737 293.25 82.8003 241.517C83.587 229.57 92.7337 216.704 99.187 205.037C141.92 127.797 206.374 138.624 228.974 141.317C262.427 145.304 268.774 174.69 279.854 175.104" fill="#E22727"/>
<path d="M276 150.25C279.12 150.357 287.08 145.864 299.214 141.37C317.574 134.57 345.494 127.77 380.694 136.904C418.614 146.744 457.867 228.61 375.24 287.717C297.467 343.357 222.174 342.89 184.56 338.784C111.814 330.864 59.5069 257.557 93.9069 195.357C136.654 118.117 202.52 113.77 225.12 116.464C258.574 120.45 264.92 149.837 276 150.25Z" fill="#FF6A5F"/>
<path d="M218.574 328.29C208.614 328.29 199.894 327.677 192.707 326.917C128.241 320.077 85.1739 256.344 109.667 198.65C121.547 170.637 138.801 155.65 154.974 145.077C176.161 131.224 197.947 126.357 213.761 126.357C219.534 126.357 224.494 126.997 228.361 128.09C257.054 136.21 259.774 167.237 269.587 167.57C269.614 167.57 269.641 167.57 269.667 167.57C272.627 167.57 280.947 162.144 293.361 156.704C305.761 151.277 322.241 145.837 341.507 145.837C349.521 145.837 358.014 146.784 366.907 149.05C400.507 157.637 435.161 229.557 361.814 281.677C307.641 320.17 254.894 328.29 218.574 328.29ZM346.254 172.77C322.907 172.77 292.894 181.65 285.281 189.69C276.947 198.504 201.201 286.41 212.147 294.77C215.627 297.424 225.334 299.624 238.907 299.624C268.107 299.624 315.201 289.41 356.707 251.41C392.174 218.917 385.174 181.424 362.641 174.757C357.974 173.384 352.347 172.77 346.254 172.77M194.961 150.464C194.534 150.464 194.107 150.464 193.681 150.477C168.907 151.264 123.694 184.01 131.961 227.65C139.521 267.57 165.281 290.757 174.681 292.544C174.801 292.57 174.921 292.584 175.041 292.584C185.294 292.584 233.681 221.997 236.161 193.144C237.961 172.277 219.121 150.464 194.961 150.464" fill="#FB544B"/>
<path d="M285.28 189.69C276.947 198.504 201.2 286.41 212.147 294.77C223.093 303.13 295.92 307.077 356.707 251.41C392.173 218.917 385.173 181.424 362.64 174.757C340.107 168.09 294.88 179.544 285.28 189.69Z" fill="#FF6A5F"/>
<path d="M236.16 193.144C233.654 222.357 184.094 294.33 174.68 292.544C165.28 290.757 139.52 267.57 131.96 227.65C123.694 184.01 168.907 151.264 193.68 150.477C218.454 149.69 238 171.904 236.16 193.144" fill="#FF6A5F"/>
<path d="M343.201 191.797C341.934 191.797 340.774 191.237 339.827 189.85C337.161 185.93 348.987 179.53 354.507 179.53C355.707 179.53 356.614 179.824 357.001 180.517L356.534 180.624C355.027 182.77 348.267 191.797 343.201 191.797" fill="#F89270"/>
<path d="M354.893 203.064C354.693 203.064 354.507 203.064 354.32 203.051C349.613 202.864 344.8 199.157 351.32 196.691L350.853 196.797C354.187 194.611 361.253 192.451 365.28 192.357C365.4 192.357 365.52 192.357 365.64 192.357C371.387 192.357 374.6 195.371 368.773 198.704C365.013 200.851 359.48 203.064 354.893 203.064" fill="#F89270"/>
<path d="M359.307 225.797C355.147 225.797 348.907 223.97 346.307 221.504C340.907 216.384 345.333 213.544 350.507 212.237C354.333 212.437 360.493 213.13 363.773 215.584C368.733 219.304 367.067 224.57 361.107 225.65C360.573 225.744 359.96 225.797 359.307 225.797" fill="#F89270"/>
<path d="M350.507 212.237H350.494L350.961 212.13C350.814 212.157 350.654 212.197 350.507 212.237" fill="#F89270"/>
<path d="M347.173 244.45C342.907 244.45 337.093 242.397 335.533 239.464C333.76 236.13 336.093 231.05 339.693 231.05C340.107 231.05 340.547 231.13 340.987 231.277L339.24 230.197C339.28 230.197 339.32 230.197 339.36 230.197C345.24 230.197 360.88 240.17 349.987 244.05C349.2 244.317 348.24 244.45 347.173 244.45" fill="#F89270"/>
<path d="M333.561 263.824C328.107 263.824 319.747 256.21 324.281 251.477L325.361 249.744C325.867 249.584 326.401 249.517 326.947 249.517C333.387 249.517 342.667 259.45 335.667 263.33C335.054 263.664 334.334 263.824 333.561 263.824" fill="#F89270"/>
<path d="M315.241 276.01C314.561 276.01 313.827 275.93 313.001 275.757C306.201 274.344 302.094 260.264 308.094 260.264C309.134 260.264 310.494 260.704 312.201 261.704L311.401 260.41C312.014 260.037 312.641 259.864 313.254 259.864C316.281 259.864 319.161 263.904 320.081 267.93C321.014 271.97 320.001 276.01 315.241 276.01" fill="#F89270"/>
<path d="M292.64 285.37C285.44 285.37 283.56 274.01 287.413 270.904L290.507 269.21C290.867 269.13 291.227 269.09 291.587 269.09C298.827 269.09 303.293 283.784 293.787 285.277C293.387 285.344 293 285.37 292.64 285.37" fill="#F89270"/>
<path d="M270.907 290.997C270.627 290.997 270.347 290.97 270.04 290.917C263.693 289.717 264.947 276.064 270.36 276.064C270.627 276.064 270.893 276.091 271.173 276.157L273.173 276.184C277.933 276.971 277.28 290.997 270.907 290.997" fill="#F89270"/>
<path d="M254.427 295.784C254.053 295.784 253.68 295.744 253.293 295.664C247.187 294.37 250.333 278.264 256.16 278.144L257.107 277.917C263.907 280.757 261.533 295.784 254.427 295.784" fill="#F89270"/>
<path d="M233.774 295.037C233.427 295.037 233.094 294.984 232.761 294.85C225.547 291.984 235.441 280.544 238.454 279.277L240.094 279.877C240.414 279.69 240.067 279.197 240.587 279.197C240.681 279.197 240.814 279.21 240.974 279.25C245.081 282.97 238.641 295.037 233.774 295.037" fill="#F89270"/>
<path d="M325.374 191.104C324.467 191.104 323.614 190.744 322.881 189.89C320.174 186.757 327.361 177.837 331.347 177.837C331.547 177.837 331.747 177.864 331.934 177.904L332.401 177.797C335.787 181.57 329.974 191.104 325.374 191.104" fill="#F89270"/>
<path d="M305.347 194.677C304.853 194.677 304.373 194.53 303.907 194.197C297.347 189.424 311.253 181.904 313.133 180.77L314.187 181.024C314.36 183.824 309.493 194.677 305.347 194.677" fill="#F89270"/>
<path d="M224.56 194.277C221.16 191.624 223.56 186.637 225.614 183.824C227.014 181.917 228.187 181.277 229.08 181.277C230.774 181.277 231.52 183.53 231 183.93C230.947 187.73 228.12 192.824 224.56 194.277" fill="#F89270"/>
<path d="M215.946 181.117C215.053 181.117 214.2 180.664 213.493 179.57C211.373 176.317 215.066 166.584 219.106 166.584C220.013 166.584 220.947 167.064 221.813 168.237L221.707 167.757C225.013 171.424 220.027 181.117 215.947 181.117" fill="#F89270"/>
<path d="M206.88 173.65C204.493 173.65 202.88 169.477 202.64 165.304C202.387 161.13 203.507 156.957 206.587 156.957C206.933 156.957 207.32 157.01 207.733 157.13L208.227 155.037C212.147 156.877 212.227 173.037 207.12 173.637C207.04 173.65 206.96 173.65 206.88 173.65" fill="#F89270"/>
<path d="M193.201 171.89C188.747 171.89 182.334 158.317 188.414 155.664L189.721 154.864C189.734 154.864 189.748 154.864 189.761 154.864C192.507 154.864 199.147 170.45 193.707 171.824C193.547 171.864 193.374 171.89 193.201 171.89" fill="#F89270"/>
<path d="M181.64 174.037C176.627 174.037 169.413 164.33 173.12 160.69L173.733 159.064C174.053 158.797 174.427 158.69 174.853 158.69C178.867 158.69 186.96 169.037 184.413 172.57C183.667 173.597 182.707 174.037 181.64 174.037" fill="#F89270"/>
<path d="M168.56 180.664C168.293 180.664 168.053 180.664 167.84 180.624C164.107 180.144 161.24 177.757 159.827 174.664C158.24 171.21 159.387 169.97 161.493 169.97C164.787 169.97 170.453 173.037 171.587 175.397L172.76 176.117C177.027 178.997 171.507 180.664 168.56 180.664" fill="#F89270"/>
<path d="M158.787 192.597C158 192.597 157.253 192.517 156.6 192.357C152.933 191.424 147.013 188.317 146.307 184.304C147.987 183.157 149.613 182.744 151.187 182.744C154.893 182.744 158.347 185.064 161.52 185.65L162.32 186.957C169.36 189.677 163.56 192.597 158.787 192.597Z" fill="#F89270"/>
<path d="M147.867 204.29C143.6 204.29 139.24 203.064 138.987 200.29C138.734 197.61 141 196.65 144 196.65C148.614 196.65 154.96 198.917 156.56 200.664L156.2 201.25C155.88 203.197 151.92 204.29 147.867 204.29Z" fill="#F89270"/>
<path d="M140.76 216.464C137.92 216.464 135.6 215.677 135.12 213.57C134.4 210.37 140.334 209.504 145.76 209.504C149.374 209.504 152.76 209.89 153.813 210.224L153.68 211.73C152.973 213.81 145.973 216.464 140.76 216.464" fill="#F89270"/>
<path d="M141.947 229.85C140.187 229.85 138.614 229.277 137.507 227.877C132.8 221.944 144.787 219.93 151.2 219.93C152.507 219.93 153.574 220.01 154.227 220.157C155.067 220.704 153.907 220.29 153.774 220.624L154.934 221.344C153.72 225.024 147.054 229.85 141.947 229.85" fill="#F89270"/>
<path d="M144.947 244.917C142.84 244.917 141.107 244.104 140.32 242.09C137.947 235.97 151.174 233.29 156.534 233.29C157.307 233.29 157.907 233.344 158.28 233.45L158.147 234.97C158.427 239.304 150.44 244.917 144.947 244.917" fill="#F89270"/>
<path d="M151.134 258.37C149.881 258.37 148.854 257.85 148.254 256.57C145.761 251.384 155.774 246.69 161.227 246.69C162.134 246.69 162.921 246.824 163.494 247.104L163.467 249.09C162.174 252.25 155.387 258.37 151.134 258.37" fill="#F89270"/>
<path d="M157.147 271.717C155.52 271.717 154.414 270.77 154.4 268.397C154.374 264.104 163.64 258.984 168.48 258.984C169.24 258.984 169.88 259.104 170.374 259.37L170.707 260.784C169.92 264.73 161.587 271.717 157.147 271.717" fill="#F89270"/>
<path d="M168.934 283.184C167.88 283.184 166.974 282.437 166.374 280.597C164.56 274.917 174.787 269.957 178.227 269.437C178.694 273.077 172.814 283.184 168.934 283.184" fill="#F89270"/>
<path d="M335.214 339.064L328.894 359.797L309.934 349.677L335.214 339.064Z" fill="#C62424"/>
</svg>
