<svg width="715" height="390" viewBox="0 0 715 390" fill="none" xmlns="http://www.w3.org/2000/svg">
<path d="M608.96 213.384C595.693 202.144 578.84 198.01 565.76 187.624C551.787 176.53 544.933 180.224 540.507 165.13C524.92 112.024 436.2 81.0635 391.253 73.7169C356.667 68.0502 316.227 69.6369 284.107 79.0236L255.4 84.7702C228.107 83.4236 188.88 93.5435 165.427 108.21C134.827 127.33 133.813 151.184 119.053 180.437C102.333 213.597 67.9333 236.144 71.72 278.13C76.7866 334.503 132.24 341.41 176.947 351.21C195.667 355.317 210.933 359.504 230.053 360.304C255.707 361.384 276.453 369.957 301.32 374.17C342.787 381.184 391.027 387.677 433.293 387.184C497.987 386.45 610.507 368.69 632.347 295.677C642.173 262.81 635.053 235.49 608.96 213.384" fill="#E2CFAC"/>
<path d="M605.133 200.957C591.853 189.704 575.013 185.584 561.933 175.184C547.96 164.09 550.773 154.29 546.347 139.21C530.76 86.1035 432.373 68.6236 387.427 61.2769C352.84 55.6236 312.4 57.1969 280.28 66.5969L251.573 72.3302C224.28 70.9969 185.053 81.1035 161.6 95.7702C131 114.904 129.987 138.744 115.227 168.01C98.5067 201.157 64.1067 223.704 67.8933 265.69C72.96 322.077 128.413 328.984 173.12 338.784C191.84 342.89 207.107 347.064 226.227 347.864C251.88 348.944 272.627 357.53 297.493 361.73C338.96 368.757 387.2 375.237 429.467 374.757C494.16 374.01 606.68 356.25 628.52 283.237C638.347 250.384 631.227 223.064 605.133 200.957" fill="#F9F1B7"/>
<path d="M545.346 136.09C545.333 136.064 545.306 136.037 545.293 136.024C545.2 135.77 545.106 135.53 545.013 135.277C545.133 135.544 545.24 135.824 545.346 136.09M132.213 128.61C138.52 114.157 146.32 101.437 164.106 90.3035C186.16 76.5168 222.173 66.7569 249.08 66.7569C250.786 66.7569 252.453 66.7968 254.08 66.8768L282.786 61.1302C302.546 55.3568 325.44 52.5302 348.2 52.5302C362.44 52.5302 376.626 53.6368 389.933 55.8102C424.213 61.4235 488.373 77.1968 523.866 107.717C488.04 78.5435 421.96 66.9302 387.426 61.2769C374.12 59.1036 359.933 57.9969 345.693 57.9969C322.933 57.9969 300.04 60.8102 280.28 66.5969L251.573 72.3302C249.946 72.2502 248.28 72.2102 246.573 72.2102C219.666 72.2102 183.653 81.9836 161.6 95.7702C146.08 105.477 138.173 116.384 132.213 128.61" fill="#EFE6BE"/>
<path d="M545.293 136.024C534.133 121.277 516.187 108.984 507.147 103.464C476.773 84.9036 443.16 79.357 408.253 79.357C401.907 79.357 395.507 79.5437 389.093 79.8637C337.293 82.4637 286.507 84.3837 234.107 87.037C210.8 88.2237 196.813 87.0103 166.973 98.1703C155.373 102.504 143.827 113.504 130.88 131.73C131.32 130.69 131.773 129.637 132.213 128.61C138.173 116.384 146.08 105.477 161.6 95.7703C183.653 81.9837 219.667 72.2103 246.573 72.2103C248.28 72.2103 249.947 72.2503 251.573 72.3303L280.28 66.597C300.04 60.8103 322.933 57.997 345.693 57.997C359.933 57.997 374.12 59.1037 387.427 61.277C421.96 66.9303 488.04 78.5436 523.867 107.717C533.32 115.837 540.733 124.997 545.013 135.277C545.107 135.53 545.2 135.77 545.293 136.024Z" fill="#EEE4B7"/>
<path d="M216.173 143.13C216.88 157.504 250.613 199.584 341.506 200.53C438.173 201.557 477.36 161.304 476.4 138.344C475.44 115.384 460.133 43.6369 341.506 46.5036C257.2 48.5436 213.306 84.7702 216.173 143.13Z" fill="#FFBE00"/>
<path d="M475.44 137.397C474.92 124.61 469.92 96.7168 445.147 74.9835C454.48 90.9835 456.906 106.69 457.266 115.383C458.226 138.343 419.04 178.597 322.373 177.57C268.946 177.01 235.28 162.237 216.453 147.237C223.24 164.53 241.04 203.677 340.546 205.317C456.306 207.237 476.4 160.357 475.44 137.397" fill="#FFA21A"/>
<path d="M315.986 61.1702C315.986 61.1702 291.76 59.9036 268.16 79.0369C244.613 98.1169 239.453 116.024 239.453 116.024L268.8 127.504C268.8 127.504 267.52 110.917 287.933 90.5169C306.426 72.0102 328.106 67.5568 328.106 67.5568L315.986 61.1702" fill="#FFDD33"/>
<path d="M461.813 287.597C442.96 281.797 416.293 275.584 411.293 253.157C409.613 245.597 448.653 229.237 424.747 221.584C402.827 214.57 363.507 241.677 265.893 214.144C239.027 206.57 204.4 202.304 196.08 171.837C192.947 160.344 192.587 140.397 177.693 136.65C159.387 132.05 159.32 151.637 155.693 162.197C154.2 161.957 155.613 161.157 154.947 160.357V168.01C157.387 204.69 92.4533 236.317 116.413 274.197C126.987 290.917 148.413 294.677 166.427 296.957C177.48 298.357 187.773 297.224 198.72 297.17C214.267 297.09 239.093 288.944 254.56 290.53C316.733 296.957 358.507 334.49 421.013 339.33C444.867 341.17 485.88 352.997 494.373 325.17C501.987 300.21 481.027 293.517 461.813 287.597" fill="white"/>
</svg>
