<svg width="715" height="390" viewBox="0 0 715 390" fill="none" xmlns="http://www.w3.org/2000/svg">
<g clip-path="url(#clip0_141_1098)">
<path d="M674.374 95.3539C660.358 101.538 594.314 135.324 594.314 135.324C556.246 147.57 510.94 132.11 473.461 124.562C444.873 118.808 389.209 92.5053 360.206 108.956C356.072 111.301 354.028 118.11 350.692 119.579C347.932 120.772 341.755 120.764 336.582 120.748C334.342 120.74 332.299 120.732 330.798 120.829C315.557 121.77 305.939 123.085 294.901 130.787C282.986 139.097 278.39 139.641 261.129 140.169C239.457 140.826 238.718 143.342 224.574 153.47C216.122 159.533 217.658 158.892 204.945 158.234C193.561 157.642 181.542 156.189 169.88 157.715C152.307 160.02 126.005 171.625 121.086 184.635C108.097 183.831 95.4309 185.633 84.9009 191.265C70.7569 198.829 71.6691 207.31 64.4528 216.895C58.7144 224.539 43.0925 226.268 33.2668 233.905C20.3237 243.96 17.495 258.634 25.5657 270.961C28.9833 276.188 33.4283 276.326 36.8806 280.14C42.3765 286.219 15.3819 311.321 18.1876 318.178C24.8497 334.459 53.8882 340.505 77.8117 342.704C80.4442 342.948 87.4988 340.123 94.7844 337.299C103.455 333.931 112.45 330.571 114.632 332.389C117.773 334.994 115.683 345.114 118.523 349.156C131.362 367.506 168.264 372.732 194.323 373.99C206.7 374.582 219.574 374.599 231.698 372.343C237.205 371.312 249.352 365.533 255.229 366.621C263.403 368.13 270.446 378.462 279.533 381.96C310.962 394.068 347.921 392.859 372.941 372.489C380.088 366.67 384.891 356.655 395.202 353.108C405.178 349.667 409.369 353.685 419.414 354.066C443.395 354.959 449.688 341.065 456.246 327.674C474.789 333.29 477.11 336.78 501.079 332.137C527.635 326.992 537.981 317.716 547.552 300.34C554.284 288.118 549.261 283.046 568.185 283.248C585.343 283.435 590.839 282.453 597.905 269.906C604.105 258.893 603.251 247.564 602.315 236.161C601.807 230.034 598.598 218.923 604.902 213.251C607.661 210.775 615.432 211.644 618.976 208.746C623.018 205.435 622.533 201.491 622.186 197.401C621.366 188.027 617.106 182.086 619.958 172.477C624.899 155.816 645.024 141.492 663.394 130.235C670.495 125.893 690.885 119.855 691.59 112.51C692.075 107.446 678.774 98.4865 674.374 95.3539" fill="#89ED29"/>
<path d="M669.687 94.3232C669.687 94.3232 554.78 160.588 410.108 205.735C228.326 262.464 128.718 277.803 138.89 281.893C149.074 285.975 254.294 259.47 376.613 228.094C639.148 160.758 697.316 113.744 697.316 113.744C697.316 113.744 694.407 105.563 684.223 99.428C674.051 93.3006 669.687 94.3232 669.687 94.3232" fill="#DBFF81"/>
<path d="M126.19 325.036C124.712 325.036 123.13 324.622 121.456 323.673C108.963 316.563 125.37 310.363 132.182 305.396C136.881 301.979 142.054 299.001 146.892 295.69C151.152 292.76 154.212 288.686 158.53 285.975L159.974 284.953C160.782 284.717 161.417 284.612 161.925 284.612C164.904 284.612 162.953 288.329 161.983 290.066C157.93 297.216 148.739 304.016 142.724 310.533C138.81 314.786 133.614 325.036 126.19 325.036" fill="#AAF44C"/>
<path d="M271.428 367.562C268.922 367.562 266.417 363.253 263.773 361.208C259.824 358.148 254.109 357.669 249.26 356.111C236.016 351.85 236.847 345.78 240.115 336.577C247.678 315.33 250.38 292.703 250.137 270.645C250.853 270.255 250.633 269.858 251.407 269.687C259.893 282.932 263.946 299.837 263.958 314.721C263.958 324.776 266.567 332.665 270.504 342.185C272.848 347.874 277.732 358.156 274.903 364.17C273.737 366.645 272.583 367.562 271.428 367.562" fill="#AAF44C"/>
<path d="M188.204 369.064C185.433 369.064 182.754 368.804 180.341 368.26L175.977 365.201C175.365 365.517 175.988 366.158 174.868 366.158C174.81 366.158 174.753 366.158 174.683 366.15C165.158 359.268 188.481 334.832 193.238 328.396C199.761 319.574 207.705 311.418 213.582 302.345C217.473 296.339 218.224 287.598 223.962 282.404C225.971 280.578 227.911 279.645 229.389 279.645C231.294 279.645 232.437 281.211 231.998 284.441C231.421 288.743 227.045 293.247 224.851 297.224C219.39 307.149 214.413 317.732 213.016 328.266C211.746 337.924 220.348 350.097 214.367 359.09C210.13 365.469 198.514 369.064 188.204 369.064" fill="#AAF44C"/>
<path d="M375.932 356.509C369.812 344.627 370.274 332.421 368.658 319.834C367.087 307.531 365.644 295.04 366.475 282.51C367.457 267.877 362.261 244.439 376.463 232.826C377.952 231.6 377.583 230.902 379.442 230.334C382.467 240.406 377.432 252.741 376.647 263.113C375.493 278.192 381.404 291.948 389.729 305.575C393.828 312.27 397.5 318.884 402.268 325.32C405.224 329.305 410.016 334.872 410.143 339.531C410.304 345.204 405.663 344.554 399.22 345.277C392.2 346.056 387.743 347.833 383.009 351.794C381.185 353.319 380.054 355.275 378.841 355.486L375.932 356.509" fill="#AAF44C"/>
<path d="M464.836 324.484C460.356 324.484 454.756 323.324 453.728 322.269L449.364 323.283C446.882 310.809 444.33 299.074 444.284 286.089C444.238 273.623 446.651 261.304 449.93 249.179C453.232 237.013 453.313 215.207 467.526 206.701C470.505 208.406 461.211 226.804 460.298 230.78C458.07 240.503 455.922 250.932 456.627 260.922C457.423 272.284 459.317 283.484 461.695 294.667C462.885 300.291 474.558 318.138 470.286 323.17C469.489 324.119 467.33 324.484 464.836 324.484" fill="#AAF44C"/>
<path d="M554.134 277.811C553.868 277.811 553.614 277.803 553.349 277.803H548.984C541.006 269.143 543.246 254.746 543.892 244.707C544.701 232.485 548.049 219.711 553.141 207.894C556.559 199.973 560.958 192.077 565.507 184.245C567.065 181.559 569.756 176.04 573.531 174.417C575.009 173.784 576.141 173.508 576.995 173.508C580.343 173.508 579.281 177.777 578.069 180.698C573.716 191.127 566.419 200.436 564.075 211.368C561.951 221.301 563.913 231.673 565.749 241.388C567.354 249.917 571.257 260.127 570.795 268.6C570.425 275.522 561.904 277.811 554.134 277.811Z" fill="#AAF44C"/>
<path d="M91.2164 280.132C84.6352 280.132 77.8808 279.296 71.4266 278.712C63.3212 277.973 52.5373 277.949 45.8175 274.224L42.1803 272.69C36.0147 269.054 49.5237 264.436 53.8188 264.112C54.6963 264.047 55.5623 264.022 56.4167 264.022C63.4713 264.022 70.1219 266.035 76.9341 267.179C83.8848 268.348 91.2513 268.527 98.6408 268.527C100.303 268.527 101.977 268.518 103.64 268.51C105.303 268.502 106.954 268.494 108.605 268.494C111.261 268.494 113.905 268.518 116.514 268.6C117.403 268.632 118.442 268.64 119.585 268.64C120.232 268.64 120.925 268.632 121.629 268.632C122.333 268.632 123.061 268.624 123.811 268.624C130.6 268.624 138.706 268.835 141.869 271.156C133.256 277.356 112.323 277.3 101.123 279.337C97.9017 279.913 94.5879 280.132 91.2164 280.132" fill="#AAF44C"/>
<path d="M235.589 250.989C227.726 250.989 218.12 248.781 213.074 248.156C198.769 246.387 184.994 243.538 170.885 240.617C154.709 237.265 137.413 234.619 121.987 229.774C110.303 226.098 82.8231 216.002 82.1765 205.224L80.7217 203.69C81.7377 203.455 84.9475 198.756 87.2682 197.036C89.9123 195.08 94.0688 192.499 97.6135 191.557C99.4031 191.079 101.297 190.859 103.26 190.859C114.113 190.859 126.744 197.466 131.802 203.187C135.45 207.318 136.639 211.157 141.962 214.444C148.22 218.29 156.406 220.944 163.773 223.606C178.84 229.06 193.019 235.033 209.264 239.075C220.025 241.745 238.187 242.767 246.593 247.645C244.549 250.161 240.392 250.989 235.589 250.989" fill="#AAF44C"/>
<path d="M352.77 216.943C343.96 216.943 333.326 215.426 327.218 214.947C300.316 212.845 273.102 208.032 247.216 201.645C230.22 197.457 212.196 193.513 195.789 188.246C183.978 184.464 159.061 175.561 157.803 164.849V163.315C163.807 160.799 172.177 159.663 180.698 159.663C189.173 159.663 197.775 160.791 204.333 162.803C218.616 167.202 229.723 176.616 242.712 182.736C269.061 195.169 304.599 202.27 335.37 207.139C342.932 208.341 350.391 209.404 357.758 210.451C363.496 211.27 372.41 212.26 363.588 215.572C360.898 216.586 357.053 216.943 352.77 216.943" fill="#AAF44C"/>
<path d="M396.53 204.469C386.531 204.469 374.2 203.057 369.385 202.7C341.906 200.639 314.842 187.889 292.315 177.241C280.007 171.43 266.948 167.105 253.774 162.422C248.301 160.474 241.951 158.648 240.669 154.128C239.723 150.768 242.644 145.533 247.228 144.405L252.319 145.428C253.428 145.038 254.64 144.86 255.922 144.86C265.967 144.86 280.55 155.783 286.496 159.752C304 171.422 321.042 180.147 342.483 187.978C353.301 191.931 363.843 194.43 375.366 196.427C385.584 198.196 401.795 197.863 410.2 202.148C408.249 203.901 402.857 204.469 396.53 204.469" fill="#AAF44C"/>
<path d="M452.355 171.487C440.532 171.487 428.986 170.343 417.394 167.421C404.37 164.134 298.377 143.659 319.217 127.03L322.127 124.984C326.122 123.848 333.165 122.801 339.215 122.801C341.801 122.801 344.215 122.996 346.12 123.45C358.047 126.315 366.233 132.735 373.749 139.284C383.055 147.392 401.783 152.269 415.373 155.775C432.473 160.19 453.267 162.925 471.348 163.94C474.881 164.143 478.415 164.216 481.948 164.216C486.428 164.216 490.896 164.094 495.341 163.94C496.069 163.915 496.946 163.899 497.893 163.899C503.239 163.899 510.663 164.5 503.92 168.046C501.749 169.182 498.066 169.361 494.417 169.361C493.621 169.361 492.824 169.353 492.051 169.345C491.266 169.337 490.515 169.329 489.787 169.329C488.552 169.329 487.409 169.345 486.451 169.442C479.95 170.043 473.45 170.522 466.822 170.968C461.938 171.301 457.124 171.487 452.355 171.487" fill="#AAF44C"/>
<path d="M143.439 313.317C140.437 318.113 136.604 322.171 132.032 326.351C127.287 330.668 121.133 333.842 119.966 339.604C119.008 344.303 121.409 351.802 128.695 352.97V355.202C132.979 357.182 139.756 362.888 142.677 356.541C144.894 351.712 143.035 344.238 143.936 339.157C145.172 332.113 146.072 324.963 149.143 318.219C151.614 312.789 156.025 308.115 155.194 302.207C148.485 304.138 146.13 309.016 143.439 313.317" fill="#69CC2F"/>
<path d="M293.076 324.574C285.56 314.648 284.544 304.13 280.884 293.58C279.487 289.538 278.332 285.61 276.923 281.666C275.954 278.955 275.722 274.224 273.887 271.862C273.61 271.497 273.309 270.207 273.148 269.711C271.393 269.573 270.908 270.142 270.088 270.969V269.63C267.941 280.205 272.386 290.869 273.898 301.371C275.826 314.932 277.697 328.623 281.346 341.949C283.609 350.203 286.437 358.359 290.86 365.996C295.651 374.282 299.888 378.421 312.566 379.72C318.87 380.369 328.892 382.463 334.654 380.085C338.603 371.685 326.837 364.389 320.21 357.994C309.899 348.044 301.366 335.514 293.076 324.574" fill="#69CC2F"/>
<path d="M400.051 249.13C400.259 246.062 407.314 225.473 398.17 228.63L396.264 228.184C389.579 244.829 380.735 263.625 386.104 281.317C387.397 285.602 396.553 309.665 406.436 305.307C414.288 301.85 405.259 286.324 403.873 281.999C400.444 271.31 399.289 260.2 400.051 249.13Z" fill="#69CC2F"/>
<path d="M131.073 288.24C132.563 285.61 129.226 283.403 125.531 284.336L122.991 283.451C110.394 285.959 97.0238 288.621 83.6765 289.238C78.0536 289.506 72.3152 289.968 66.7038 289.587C61.866 289.262 56.5548 287.818 51.3475 288.353C40.2748 289.49 37.9887 297.751 33.428 303.846C29.941 308.529 19.3764 321.433 36.6147 319.014C45.586 317.756 54.6037 309.876 62.2472 306.614C73.1698 301.947 85.3622 298.011 97.7858 295.917C106.134 294.505 114.886 293.783 122.991 291.803C125.369 291.226 129.988 290.147 131.073 288.24" fill="#69CC2F"/>
<path d="M239.053 284.295C231.501 282.916 229.7 300.892 229.019 303.505C226.86 311.759 220.175 319.485 218.062 327.568C216.168 334.84 218.385 341.974 219.355 348.961C219.724 351.696 221.26 370.557 228.88 365.006L233.949 364.56C249.259 365.809 235.785 355.259 232.529 351.193C227.691 345.163 226.664 336.958 228.384 330.141C229.666 325.061 248.197 285.975 239.053 284.295" fill="#69CC2F"/>
<path d="M615.502 164.013C617.141 161.635 624.277 154.696 623.884 154.201L617.545 156.433C609.567 158.218 601.485 169.84 598.356 175.05C594.176 181.997 591.44 190.73 594.107 198.334C596.647 205.622 616.229 209.079 610.733 200.874C607.985 196.792 604.51 196.451 604.233 191.192C604.013 187.248 604.683 183.734 605.976 180.049C607.997 174.312 611.865 169.288 615.502 164.013" fill="#69CC2F"/>
<path d="M341.293 241.615C341.062 241.818 340.831 242.045 340.623 242.281L341.097 242.451C341.062 241.996 342.378 241.785 341.293 241.615Z" fill="#69CC2F"/>
<path d="M339.238 319.542C337.033 311.353 332.137 302.897 331.098 294.602C329.816 284.36 330.567 274.248 333.003 264.282C334.4 258.569 335.855 247.377 340.624 242.28L338.568 241.558C330.394 249.284 326.768 259.169 325.267 268.762C323.027 283.135 321.342 297.321 322.08 311.978C322.704 324.452 327.519 337.81 333.65 349.529C337.264 356.428 341.005 370.638 353.151 372.132C381.162 375.581 357.238 345.95 351.708 339.726C345.762 333.03 341.316 327.292 339.238 319.542" fill="#69CC2F"/>
<path d="M497.454 311.929C490.018 303.513 491.254 291.039 492.004 281C492.351 276.374 495.434 268.575 491.947 264.282C486.797 257.919 485.25 267.764 484.442 271.635C482.179 282.583 477.398 292.614 476.787 303.724C476.509 308.764 481.89 331.399 494.856 325.117H498.667C504.024 326.343 506.864 322.309 505.317 318.397C504.451 316.214 499.209 313.926 497.454 311.929" fill="#69CC2F"/>
<path d="M553.66 183.482C549.931 184.075 547.587 186.444 545.266 188.749C527.439 206.458 534.043 232.98 530.256 253.586C527.808 266.92 523.109 280.262 522.439 293.701C522.255 297.256 521.216 308.18 529.136 307.101C534.459 306.378 537.75 295.617 537.657 293.701L542.414 288.353C537.426 286.008 540.013 270.409 539.585 264.282C538.95 255.33 538.604 246.046 538.604 236.875C538.604 227.445 538.362 217.097 541.675 208.13C544.527 200.403 555.242 191.354 553.66 183.482" fill="#69CC2F"/>
</g>
<defs>
<clipPath id="clip0_141_1098">
<rect width="714.573" height="389.736" fill="white"/>
</clipPath>
</defs>
</svg>
