<svg width="715" height="390" viewBox="0 0 715 390" fill="none" xmlns="http://www.w3.org/2000/svg">
<path d="M112.76 167.29C121.107 140.464 158.054 135.664 184.4 121.157C202.307 111.304 225.24 100.637 245.96 96.1704C256.894 93.7971 267.427 91.6638 278.627 91.7572C286.44 91.8238 294.334 93.8238 301.734 93.6904L331.747 92.5438C349.267 110.757 328.84 127.784 307.813 139.61C299.04 144.53 294.814 142.397 291.014 140.25C288.88 139.05 286.88 137.85 284.28 137.89C275.627 138.037 271.2 142.464 268.52 149.824C264.84 159.904 291.774 162.544 300.574 165.931C309 169.171 321.587 172.97 325.267 180.77C330.64 192.157 318.44 201.944 308.547 207.784C298.92 213.464 286.387 218.344 273.427 219.237C261.027 220.104 257.56 217.184 248.547 211.557C233.747 202.33 224.333 194.664 208.147 187.584C208.173 189.77 195.707 193.304 194.533 197.13C193.36 200.97 203.467 205.117 202.614 207.317C198.56 217.65 168.867 231.677 144.907 228.504C133.734 227.024 106.187 227.557 94.3737 200.05C89.627 188.997 109.227 178.677 112.76 167.29" fill="#634E40"/>
<path d="M134.014 163.904C149.16 137.424 179.134 119.357 210.774 107.464C232.774 99.1839 263 84.0639 287.054 90.9572C294.134 92.9972 302.68 98.304 306.04 103.917C308.347 107.771 308.52 117.491 304.84 119.104L302.08 122.931C297.387 121.517 289.987 121.877 284.92 124.304C283.64 124.917 280.174 128.264 278.734 129.197C276.027 130.931 274.454 130.904 271.987 133.104C270.267 134.624 270.294 137.251 267.694 139.051C265.16 140.784 261.08 140.491 258.374 142.677C253 147.011 256.814 152.077 250.987 155.731C245.72 159.037 236.44 157.651 232 161.651C229.987 163.477 231.587 166.224 229.494 168.197C227.507 170.077 222.707 171.144 220 172.157C214.04 174.397 207.494 175.731 202.934 179.691C200.88 181.464 200.654 184.091 197.854 185.771C195.2 187.357 190.8 186.477 188.067 187.864C184.8 189.517 184.614 191.571 182 193.397C178.52 195.824 176.56 195.357 172.72 197.037C169.787 198.317 168.307 200.731 165.134 202.131C162.094 203.477 157.774 203.104 154.494 203.891C143.734 206.451 134.934 210.451 127.16 201.077C117.254 189.157 127.347 175.571 134.014 163.904" fill="#8C735B"/>
<path d="M323.254 178.304C313.214 158.531 241.16 141.024 243.094 131.877C245.027 122.717 276.254 107.771 291.92 111.531C307.6 115.277 280.787 126.157 294.507 133.611C300.533 136.891 359.414 103.344 322 83.8105C289.587 66.8772 229.28 64.4772 153.04 113.504C87.187 155.851 80.4135 190.531 103.907 207.464C144.507 236.731 195.36 202.464 194.027 199.264C192.854 196.437 187.547 197.811 180.787 199.184C171.334 201.104 159.04 203.011 151.2 193.477C145.107 186.064 171.853 164.464 193.573 169.357C209.187 172.864 259.907 218.571 275.054 213.544C290.214 208.517 329.934 191.477 323.254 178.304" fill="#A5896A"/>
<path d="M311.961 88.1838C311.947 88.1838 311.881 88.1571 311.774 88.1171L311.761 88.0772C311.921 88.1572 311.974 88.1838 311.961 88.1838Z" fill="#BF9E7C"/>
<path d="M141.534 169.49C127.174 169.49 125.267 155.131 132.76 146.384C140 137.931 151.814 130.29 161.107 123.677C183.08 108.024 205.56 96.7439 232.28 89.2105C245.534 85.4772 263.32 82.4905 279.827 82.4905C291.2 82.4905 301.947 83.9038 310.2 87.4771C310.414 87.5705 311.36 87.9571 311.774 88.1171L313.72 95.2771C315.134 104.81 283.467 102.41 276.374 103.13C262.84 104.504 243.414 106.557 232.894 114.477C219.014 124.93 221.907 136.704 233.667 145.531C239.08 149.584 248.827 153.971 243.694 161.237C240.707 165.464 234.134 166.504 228.307 166.504C226.454 166.504 224.667 166.397 223.094 166.251C208.96 164.997 196.907 154.957 182.707 154.957C181.694 154.957 180.667 155.01 179.627 155.117C165.667 156.584 157.48 167.904 144.107 169.357C143.214 169.451 142.347 169.49 141.534 169.49" fill="#BF9E7C"/>
<path d="M604.654 235.664C590.894 201.037 549.414 202.117 517.947 187.877C496.547 178.211 469.494 168.477 445.921 166.664C433.494 165.704 421.547 164.971 409.227 167.411C400.641 169.104 392.294 173.424 384.134 174.757L350.907 179.37C334.734 207.637 360.121 226.504 385.281 238.197C401.667 245.81 402.894 232.371 410.894 231.051C420.441 229.464 426.054 234.557 430.267 243.957C436.041 256.864 406.854 265.97 397.747 272.357C389.014 278.477 375.827 286.224 373.107 297.531C369.147 314.064 384.241 324.824 396.121 330.69C407.681 336.41 422.307 340.437 436.721 338.997C450.521 337.624 453.827 332.957 462.787 323.49C477.507 307.957 486.547 295.637 503.161 282.717C503.507 285.704 517.814 287.917 519.774 292.864C521.721 297.824 511.294 305.517 512.627 308.317C518.841 321.464 553.907 334.397 579.747 325.157C591.787 320.864 622.187 315.931 630.494 276.264C633.827 260.304 610.507 250.357 604.654 235.664" fill="#634E40"/>
<path d="M580.694 235.424C559.494 202.677 523.427 184.371 486.574 174.731C460.947 168.037 425.107 153.757 399.814 168.051C392.374 172.264 383.867 181.197 381.134 189.504C379.267 195.184 380.721 208.397 385.054 209.824L388.747 214.437C393.667 211.557 401.867 210.53 407.867 212.784C409.374 213.344 413.761 217.17 415.507 218.13C418.774 219.917 420.521 219.571 423.601 222.024C425.747 223.744 426.174 227.304 429.347 229.197C432.427 231.037 436.867 229.797 440.214 232.197C446.867 236.984 443.534 244.611 450.574 248.371C456.934 251.771 466.92 247.997 472.48 252.504C475 254.544 473.707 258.597 476.361 260.851C478.867 262.984 484.321 263.437 487.467 264.264C494.427 266.077 501.854 266.53 507.547 270.957C510.107 272.944 510.814 276.451 514.187 278.144C515.841 278.984 517.894 278.811 519.947 278.651C521.854 278.491 523.747 278.344 525.307 278.984C529.174 280.557 529.734 283.304 532.921 285.224C537.161 287.797 539.254 286.771 543.761 288.251C547.214 289.397 549.241 292.344 552.987 293.597C555.107 294.304 557.614 294.104 560.081 293.904C561.774 293.771 563.454 293.637 564.974 293.784C577.267 295.05 587.641 298.664 594.587 284.371C603.454 266.197 590.027 249.864 580.694 235.424" fill="#8C735B"/>
<path d="M374.907 293.784C382.574 264.93 458.867 226.437 455.174 214.437C451.494 202.437 414.587 188.597 397.974 196.904C381.361 205.211 412.734 214.437 398.894 227.357C392.827 233.024 322.307 199.677 360.134 165.531C392.921 135.957 458.867 120.317 551.134 171.064C630.854 214.917 644.227 260.477 621.267 288.251C581.587 336.237 519.774 300.25 520.694 295.637C521.454 291.81 526.894 292.264 533.934 292.731C544.814 293.437 559.547 294.157 566.827 279.024C572.267 267.717 539.147 243.957 516.081 255.037C499.507 262.997 451.494 335.304 433.961 331.624C416.427 327.93 369.8 312.997 374.907 293.784" fill="#A5896A"/>
<path d="M371.933 169.411C371.92 169.411 371.987 169.357 372.133 169.224V169.277C372.013 169.357 371.947 169.411 371.933 169.411" fill="#BF9E7C"/>
<path d="M471.014 258.944C466.534 258.944 462.254 257.81 459.534 254.344C452.654 245.544 462.627 237.61 467.894 230.997C479.321 216.624 480.494 200.09 463.441 188.784C454.801 183.064 442.241 181.704 430.347 181.704C424.427 181.704 418.681 182.037 413.654 182.344C408.894 182.637 394.587 186.264 383.894 186.264C376.761 186.264 371.241 184.65 371.214 179.37L372.134 169.277C372.547 168.984 373.534 168.251 373.747 168.077C388.507 156.717 412.787 152.624 434.814 152.624C443.774 152.624 452.361 153.304 459.787 154.437C490.481 159.157 517.161 169.81 544.014 186.504C555.374 193.557 569.667 201.477 579.067 211.437C589.374 222.33 589.187 243.89 570.521 244.877C570.094 244.904 569.681 244.917 569.267 244.917C562.321 244.917 556.227 241.904 550.054 238.877C543.894 235.864 537.654 232.85 530.441 232.85C529.961 232.85 529.481 232.864 529.001 232.891C511.574 233.877 499.507 251.957 483.067 256.904C479.654 257.931 475.254 258.944 471.014 258.944" fill="#BF9E7C"/>
<path d="M136.267 278.704C151.16 247.944 187.907 251.997 216.96 241.251C236.707 233.944 261.494 227.011 282.56 227.091C293.667 227.131 304.347 227.344 315.107 230.491C322.6 232.677 329.68 237.264 336.827 239.091L365.974 245.784C378.187 272.931 354.174 288.371 330.934 297.251C315.787 303.024 315.734 290.597 308.734 288.797C300.374 286.637 294.987 290.891 290.534 299.224C284.414 310.637 309.64 321.157 317.227 327.691C324.507 333.957 335.64 342.037 337.174 352.624C339.427 368.091 325.2 376.851 314.187 381.371C303.48 385.771 290.187 388.384 277.48 385.997C265.334 383.717 262.76 379.184 255.52 369.837C243.654 354.477 236.56 342.504 222.8 329.411C222.267 332.131 209.374 333.104 207.267 337.504C205.16 341.904 213.827 349.744 212.427 352.224C205.894 363.837 173.747 373.104 151.507 362.731C141.147 357.891 114.52 351.117 110.2 314.077C108.454 299.184 129.947 291.771 136.267 278.704" fill="#634E40"/>
<path d="M157.574 280.264C178.907 251.771 212.36 237.624 245.84 231.504C269.107 227.237 302.054 216.784 323.414 231.771C329.707 236.184 336.56 245.024 338.36 252.851C339.587 258.197 337.267 270.224 333.307 271.211L329.68 275.184C325.534 272.171 318.32 270.624 312.827 272.237C311.44 272.651 307.254 275.837 305.627 276.584C302.587 277.997 301.067 277.544 298.134 279.571C296.094 280.984 295.454 284.224 292.48 285.731C289.6 287.197 285.76 285.731 282.6 287.691C276.32 291.584 278.694 298.837 272.16 301.771C269.414 302.997 266.107 302.744 262.814 302.504C259 302.224 255.214 301.944 252.374 303.944C249.974 305.637 250.814 309.451 248.294 311.317C245.894 313.091 241.014 313.104 238.147 313.624C231.84 314.784 225.2 314.651 219.814 318.291C217.374 319.931 216.48 323.104 213.36 324.411C211.827 325.051 210.014 324.744 208.2 324.437C206.52 324.157 204.854 323.877 203.414 324.344C199.854 325.504 199.16 327.984 196.174 329.517C192.2 331.571 190.44 330.477 186.32 331.504C183.16 332.291 181.12 334.851 177.707 335.731C175.774 336.224 173.574 335.851 171.401 335.491C169.894 335.237 168.414 334.984 167.04 335.011C156.027 335.264 146.547 337.811 141.454 324.184C134.987 306.837 148.174 292.837 157.574 280.264" fill="#8C735B"/>
<path d="M335.867 349.051C331.28 321.997 266.467 281.011 270.667 270.264C274.867 259.531 308.72 249.544 322.827 258.397C336.947 267.251 308.374 273.41 319.667 286.29C324.627 291.944 389.827 266.531 358.854 232.397C332 202.811 274.627 183.584 188.774 223.371C114.587 257.731 99.2141 298.584 117.467 325.77C149.027 372.757 206.707 344.277 206.24 339.984C205.254 330.89 175.267 345.077 166.534 321.317C162.574 310.53 193.814 291.171 213.454 303.051C227.574 311.571 264.654 381.517 280.507 379.424C296.36 377.331 338.934 367.064 335.867 349.051" fill="#A5896A"/>
<path d="M348.067 235.077C348.067 235.077 348.001 235.024 347.907 234.944V234.89C348.041 235.024 348.081 235.077 348.067 235.077" fill="#BF9E7C"/>
<path d="M254.894 310.037C250.614 310.037 246.041 308.571 242.641 307.197C228.414 301.437 219.081 283.944 203.681 281.757C202.614 281.611 201.561 281.544 200.521 281.544C194.841 281.544 189.641 283.624 184.481 285.717C179.321 287.811 174.214 289.891 168.734 289.891C167.801 289.891 166.841 289.837 165.881 289.704C149.374 287.411 150.867 267.597 160.854 258.357C169.974 249.917 183.281 243.691 193.907 238.064C219.054 224.731 243.561 216.904 271.187 214.851C274.254 214.611 277.534 214.491 280.961 214.491C303.307 214.491 331.641 219.664 346.561 233.717C346.747 233.891 347.561 234.637 347.907 234.944L347.947 244.277C347.587 248.397 343.894 249.797 338.907 249.797C329.227 249.797 314.654 244.557 310.014 243.877C303.161 242.864 294.761 241.664 286.574 241.664C278.801 241.664 271.214 242.744 265.307 246.117C249.294 255.224 249.054 270.504 258.107 284.531C262.267 290.997 270.521 299.011 263.734 306.584C261.441 309.131 258.254 310.037 254.894 310.037" fill="#BF9E7C"/>
</svg>
