<svg width="715" height="390" viewBox="0 0 715 390" fill="none" xmlns="http://www.w3.org/2000/svg">
<g clip-path="url(#clip0_141_1060)">
<path d="M714.574 228.582C688.36 241.37 671.227 256.905 634.787 264.877C616.747 268.824 598.934 267.278 579.507 268.572C552.747 270.362 535.373 279.226 523.653 289.699C505.387 306.046 483.68 319.978 438.347 318.446C392.36 316.894 357.08 320.898 336.8 341.241C325.253 352.844 311.773 366.387 280.48 368.17C268.24 368.867 204.133 371.843 177.08 384.977L86 322.609C86.16 321.933 141.6 294.659 160.707 291.029C181.267 287.119 202.84 288.384 223.827 286.385C253.907 283.531 272.067 277.349 290.187 266.243C307.987 255.338 318.107 241.701 352.333 239.53C380.093 237.776 404.72 240.925 430.693 233.736C454.64 227.101 460.867 215.096 479.16 206.312C500.32 196.147 532.187 196.054 561.36 194.213C590.627 192.366 636.694 177.615 658.2 168.931C671.227 190.583 700.654 211.027 714.574 228.582" fill="#CC5552"/>
<path d="M673.24 187.787C671.56 186.04 669.933 184.279 668.387 182.51C668.6 182.431 668.813 182.352 669.04 182.273C670.547 184.07 672.133 185.86 673.773 187.643C673.6 187.686 673.414 187.736 673.24 187.787" fill="#FFDBD1"/>
<path d="M306.347 285.451C306.6 283.409 307.04 281.742 307.733 280.714C310.24 276.99 312.587 273.403 314.747 270.024C326.44 263.734 338.894 257.976 355.534 254.677C385.267 248.789 419.08 253.742 444.867 241.737C453.147 237.884 461.067 234.103 469.373 230.279C476.707 226.907 489.414 219.625 500.267 219.625C500.987 219.625 501.707 219.654 502.413 219.726C501.08 222.091 495.454 223.715 494.214 226.001C494.974 226.059 495.707 226.088 496.44 226.088C502.547 226.088 507.813 224.14 512.467 221.997C517.653 219.611 517.333 217.562 520.427 214.773C523.733 211.804 534.094 209.525 542.28 209.525C544.694 209.525 546.907 209.719 548.707 210.158C549.907 210.453 549.334 212.056 551.254 212.523C552.334 212.782 553.307 212.882 554.24 212.882C556.174 212.882 557.947 212.465 560.093 212.163C567.6 211.128 574.947 209.137 581.76 207.254C594.293 203.774 605.24 197.326 618.187 194.825C620.254 196.658 621.134 197.549 623.24 197.549C624.467 197.549 626.12 197.24 628.653 196.65C636.72 194.76 643.773 191.324 651.44 188.851C655.16 187.65 661.373 185.034 668.387 182.51C669.933 184.279 671.56 186.04 673.24 187.787C665.094 189.994 656.8 192.014 649.04 194.019C639.467 196.485 632.014 200.065 623.214 203.149C616.254 205.579 612.267 204.551 605.64 206.794C598.427 209.23 591.934 212.343 583.867 214.025C574.96 215.873 565.254 216.383 556.2 218.058C549.774 219.237 543.64 220.775 537.16 221.925C532.347 222.774 528.36 222.328 524.107 222.752C517.933 223.356 509.253 226.785 508.067 230.566C507.16 233.442 510.014 234.347 513.894 234.347C517.64 234.347 522.334 233.499 525.547 232.766C545.347 228.23 564.52 224.14 584.814 220.43C588.96 219.675 613.454 212.997 622.24 212.997C623.734 212.997 624.76 213.191 625.187 213.63C630.414 219.172 585.707 226.562 580.72 227.662C561.053 231.997 541.24 237.014 520.934 240.335C515.867 241.162 511.56 241.651 507.307 241.651C503.507 241.651 499.76 241.263 495.534 240.386C492.76 239.811 490.107 239.552 487.547 239.552C474.187 239.552 463.48 246.539 451.813 251.125C435.107 257.696 419.627 256.804 400.76 259.112C383.6 261.211 366.694 263.008 351.947 268.421C343.627 271.476 336.56 275.437 328.093 278.377C320.96 280.85 313.573 283.086 306.347 285.451" fill="#E6867B"/>
<path d="M162.574 375.66L151.96 368.393C152.027 368.234 152.107 368.084 152.187 367.925L163.134 375.43C162.947 375.502 162.76 375.581 162.574 375.66Z" fill="#FFDBD1"/>
<path d="M163.134 375.43L152.187 367.925C152.2 367.897 152.227 367.861 152.24 367.825L163.267 375.373C163.227 375.394 163.187 375.409 163.134 375.43" fill="#E6867B"/>
<path d="M700.306 213.551C698.906 212.228 697.48 210.891 696.026 209.539C696.093 209.518 696.147 209.496 696.2 209.475C697.667 210.826 699.107 212.156 700.52 213.479C700.453 213.508 700.373 213.529 700.306 213.551Z" fill="#FFDBD1"/>
<path d="M306.334 336.202C302.774 336.202 299.254 335.922 295.747 335.641C292.254 335.361 288.761 335.081 285.267 335.081C284.627 335.081 283.987 335.088 283.36 335.109C287.227 330.466 293.44 325.57 298.427 320.689C302.44 318.051 304.787 315.032 309.454 312.458C326.534 303.048 346.64 300.813 369.8 300.813C369.947 300.813 370.107 300.813 370.254 300.813C370.281 300.813 370.294 300.813 370.307 300.813C374.84 300.813 379.214 300.058 383.48 299.31C387.76 298.556 391.947 297.808 396.107 297.808C396.267 297.808 396.427 297.808 396.587 297.808C404.774 297.923 411.414 301.819 420.44 301.949C420.614 301.949 420.774 301.949 420.947 301.949C429.561 301.949 442.267 298.879 444.854 294.048C447.601 288.937 440.334 285.853 431.574 285.781C431.561 285.781 431.561 285.781 431.547 285.781C430.494 285.781 426.214 286.126 420.934 286.472C415.654 286.817 409.374 287.155 404.334 287.155C396.614 287.155 391.774 286.357 397.8 283.517C404.014 280.606 419.734 278.758 433.294 278.758C441.201 278.758 448.374 279.384 452.48 280.8C457.654 282.575 460.027 286.299 466.987 286.543C467.28 286.551 467.587 286.558 467.881 286.558C478.241 286.558 485.907 280.124 486.48 275.265C487.067 270.247 487.507 267.177 496.68 264.367C506.56 261.347 520.534 260.506 531.627 259.579C563.267 256.919 587.4 244.426 617.48 239.573C634.454 236.842 648.521 232.076 662.881 226.476C674.601 221.911 682.494 215.492 693.414 210.531C693.894 210.309 694.827 209.956 696.027 209.539C697.48 210.891 698.907 212.228 700.307 213.551C699.334 213.896 698.467 214.212 697.8 214.492C693.04 216.491 688.014 218.511 683.654 220.79C667.827 229.042 650.694 237.072 631.107 242.952C609.294 249.515 586.387 253.95 562.974 258.443C550.747 260.787 539.04 264.209 527.067 266.998C518.587 268.982 509.134 270.98 502.507 274.517C496.441 277.752 499.72 280.059 497.467 283.819C495.427 287.219 487.241 289.671 480.881 290.382C479.667 290.526 478.507 290.576 477.374 290.576C475.347 290.576 473.427 290.404 471.507 290.231C469.601 290.059 467.68 289.886 465.64 289.886C465.16 289.886 464.681 289.893 464.187 289.915C455.787 290.282 457.134 291.698 456.36 295.177C455.587 298.635 448.76 300.367 442.374 302.782C436.04 305.176 429.267 306.916 421.667 307.57C416.44 308.023 411.214 308.174 405.987 308.174C395.667 308.174 385.32 307.592 374.827 307.577C374.76 307.577 374.707 307.577 374.654 307.577C362.347 307.577 350.867 309.374 339.961 312.545C332.107 314.823 308.414 322.12 308.027 327.497C307.72 331.932 316.654 329.625 321.32 330.954C330.427 333.542 318.707 335.038 313.467 335.749C311.067 336.08 308.68 336.202 306.334 336.202Z" fill="#E6867B"/>
<path d="M177.08 384.84L163.267 375.373C164.56 374.862 165.694 374.496 166.627 374.366C173.307 373.425 180.907 374.69 187.374 372.871C197.347 370.068 205.947 363.317 213.333 358.94C218.733 355.748 219.947 354.871 226.28 354.871C227.187 354.871 228.2 354.892 229.333 354.921C230.827 354.964 232.334 354.993 233.827 354.993C240.24 354.993 246.494 354.447 251.48 351.931C257.574 348.847 255.64 345.964 258.747 342.6C261.214 339.926 269.68 337.388 274.64 336.217C277.573 335.519 280.467 335.203 283.36 335.109C282.16 336.54 281.2 337.942 280.547 339.322C277.04 346.805 290.827 367.437 280.48 368.026C268.24 368.723 204.134 371.699 177.08 384.84M152.24 367.825L149.227 365.762C151.84 364.489 154.307 363.238 156.56 362.038C154.894 363.878 153.547 365.783 152.494 367.408C152.4 367.544 152.32 367.681 152.24 367.825" fill="#B44B49"/>
<path d="M299.88 259.716C299.907 259.644 299.947 259.572 299.987 259.5C308.613 253.339 316.827 247.2 329.587 243.283C329.627 243.297 329.64 243.333 329.653 243.398C316.8 247.323 308.56 253.519 299.88 259.716" fill="#D7C1C1"/>
<path d="M186.867 358.616C183.733 358.616 180.707 358.106 177.733 356.884C174.493 355.554 172.56 354.519 170.187 354.519C169.52 354.519 168.827 354.598 168.053 354.777C179.027 344.642 180.813 332.996 188.4 322.271C191.72 317.598 195.387 313.558 199.547 310C206.653 308.85 213.88 308.124 221.16 307.951C248.52 307.304 270.173 299.31 291.693 290.684C296.427 288.793 301.347 287.09 306.347 285.451C305.52 292.05 306.52 302.567 306.333 308.138C306.2 312.192 302.773 316.434 298.427 320.689C296.973 321.645 295.307 322.551 293.213 323.371C284.76 326.699 276.76 327.029 267.667 328.597C258.467 330.178 253.533 334.276 243.427 334.628C236.267 334.872 231.813 334.398 225.853 336.863C212.733 342.291 210.587 354.037 195.893 357.452C192.773 358.17 189.773 358.616 186.867 358.616M222.92 296.248C227.4 294.393 232.293 292.647 237.64 290.957C260.866 283.596 287.613 280.814 298.04 263.101C298.707 261.973 299.307 260.837 299.88 259.716C308.56 253.519 316.8 247.323 329.653 243.398C329.826 244.62 324.093 255.381 314.747 270.024C302.28 276.724 290.653 284.013 275.68 289.555C259.48 295.565 241.227 295.623 222.92 296.248Z" fill="#B44B49"/>
<path d="M199.547 310C205.974 304.493 213.587 300.115 222.92 296.248C241.227 295.623 259.48 295.565 275.68 289.555C290.653 284.013 302.28 276.724 314.747 270.024C312.587 273.403 310.24 276.99 307.733 280.714C307.04 281.741 306.6 283.409 306.347 285.451C301.347 287.09 296.427 288.793 291.693 290.684C270.173 299.31 248.52 307.304 221.16 307.951C213.88 308.124 206.654 308.85 199.547 310" fill="#C66D65"/>
<path d="M163.267 375.373L152.24 367.825C152.32 367.681 152.4 367.544 152.493 367.408C153.547 365.783 154.894 363.878 156.56 362.038C161.827 359.241 165.947 356.726 168.013 354.821C168.027 354.806 168.04 354.792 168.053 354.777C168.827 354.598 169.52 354.519 170.187 354.519C172.56 354.519 174.493 355.554 177.733 356.884C180.707 358.106 183.734 358.616 186.867 358.616C189.774 358.616 192.774 358.17 195.894 357.452C210.587 354.037 212.734 342.291 225.854 336.863C231.814 334.398 236.267 334.872 243.427 334.628C253.533 334.276 258.467 330.178 267.667 328.597C276.76 327.029 284.76 326.699 293.214 323.371C295.307 322.551 296.973 321.645 298.427 320.689C293.44 325.57 287.227 330.466 283.36 335.109C280.467 335.203 277.573 335.519 274.64 336.217C269.68 337.388 261.213 339.926 258.747 342.6C255.64 345.964 257.573 348.847 251.48 351.931C246.493 354.447 240.24 354.993 233.827 354.993C232.333 354.993 230.827 354.964 229.333 354.921C228.2 354.892 227.187 354.871 226.28 354.871C219.947 354.871 218.733 355.748 213.333 358.94C205.947 363.317 197.347 370.068 187.373 372.871C180.907 374.69 173.307 373.425 166.627 374.366C165.694 374.496 164.56 374.862 163.267 375.373" fill="#C66D65"/>
<path d="M386.48 73.395C358.227 84.8608 326.694 90.9926 305.294 108.77C294.68 117.583 294.133 127.302 288.093 137.345C279.787 151.168 260.36 158.695 239.067 162.914C205.827 169.499 176.36 178.355 170.574 202.638C164.707 227.281 150.747 245.209 109.854 252.096C86.5469 256.014 59.3335 260.586 50.1602 276.817C46.5735 283.165 29.04 316.549 0 328.381L96.36 388.398C97.6267 388.442 157.787 364.245 168.013 354.821C179.013 344.67 180.8 333.01 188.4 322.271C199.293 306.894 213.987 298.448 237.64 290.957C260.867 283.596 287.613 280.814 298.04 263.101C306.493 248.739 305.4 235.109 323.413 222.716C340.027 211.293 363.067 210.265 382.52 202.243C405.04 192.963 411.24 176.105 420.107 161.009C429 145.87 464.573 124.269 484.467 114.521C447.493 103.529 415.813 84.0916 386.48 73.395" fill="#DB5F56"/>
<path d="M405.827 81.5613C394.014 84.8752 384.614 91.805 373.227 95.5718C357.587 100.748 340.253 101.79 330.067 110.51C320.413 118.769 318.694 128.632 315.24 138.035C311.707 147.675 302.453 152.707 287.36 157.854C278.587 160.851 267.747 163.267 260.347 167.249C255.04 170.103 253.627 174.049 249.894 177.471C237 189.296 211.32 193.063 193.44 201.812C179.533 208.619 179.693 214.679 178.147 224.075C176.8 232.32 169.427 240.601 158.453 246.23C149.973 250.572 124.893 258.113 125.973 265.258C131.16 264.92 137.187 261.973 141.787 260.844C129.493 282.273 74.2136 282.504 51.2803 298.822C41.7469 305.6 38.9068 314.32 31.8135 321.746C29.3068 324.37 20.7469 334.412 14.5869 338.021L34.3734 350.335C35.0134 349.436 35.5868 348.595 36.1335 347.869C41.8935 340.012 49.4002 330.609 63.8268 326.44C74.8135 323.27 87.2669 322.767 97.2669 318.317C105.52 314.644 112.827 310.266 121 306.557C126.067 304.256 131.893 301.755 135.64 298.714C139.133 295.889 141.413 292.402 132.12 293.092C126.147 293.531 121.267 296.83 116.827 298.649C112.507 300.417 90.4003 312.667 90.2803 304.005C90.1736 297.326 112.573 291 120.12 287.183C127.12 283.632 133.653 280.829 142.027 278.37C146.973 276.918 152.52 275.416 156.36 273.216C164.8 268.378 168.24 261.563 171.867 255.539C176 248.652 186.8 246.165 192.907 240.141C196.694 236.403 194.52 234.168 194.107 230.365C193.587 225.628 198.16 222.242 203.507 218.647C218.04 208.878 239.16 203.012 253.387 193.552C263.24 186.989 271.813 180.455 285.427 176.177C300.92 171.318 310.067 164.352 318.027 155.517C326.827 145.762 337.654 136.022 341.174 125.16C343.587 117.734 355.134 114.557 366.267 110.237C378.92 105.32 391.107 100.007 403.214 94.7379C407.467 92.8905 414.227 90.1875 418.28 87.3337C414.067 85.3568 409.92 83.416 405.827 81.5613" fill="#FFB7A4"/>
<path d="M410.827 114.571C398.6 119.057 385.427 119.876 378.6 128.086C372 136.015 375.84 144.102 364.333 151.104C355.947 156.2 343.027 160.657 337.174 166.875C334.294 169.93 334.76 173.194 332.814 176.285C331.027 179.117 327.4 181.828 323.907 184.157C320.8 186.227 295.813 199.713 297.427 193.631C298.92 188.031 321.053 185.364 320.987 179.642C320.88 171.569 297.92 187.643 295.187 189.318C286.787 194.479 278.2 198.85 267.973 202.948C263.08 204.91 256.174 207.462 256.16 211.121C256.16 214.701 263.28 216.893 263.16 220.516C263.067 223.651 259.907 227.453 256.84 229.991C250 235.656 242.107 242.262 234.053 247.287C229.32 250.234 224.307 249.702 219.494 249.17C214.534 248.624 209.8 248.077 205.8 251.319C202.92 253.663 202.92 256.955 200.587 259.673C197.52 263.238 192.614 265.905 187.867 268.781C178.347 274.553 171.627 279.197 168.894 286.637C165.694 295.407 167.933 303.243 160.013 311.696C148.293 324.219 126.933 331.386 102.707 335.095C85.3335 337.755 70.4934 342.916 63.9867 352.47C61.0801 356.733 61.2269 361.7 61.5069 366.488L74.8669 374.812C74.9336 370.901 73.6136 366.869 77.5736 363.26C89.307 352.599 114.534 345.971 133.48 339.602C149.174 334.319 159.067 325.434 169.947 317.613C176.374 312.99 180.814 307.556 182.947 302.042C186.067 294.027 190.32 286.486 200.973 280.045C208.88 275.257 223.2 272.08 225.48 265.682C226.48 262.9 225.72 258.968 229.814 256.761C233.827 254.597 241.054 254.612 245.574 252.427C254.6 248.07 261.507 242.406 269.427 237.525C280.107 230.926 276.627 226.9 274.12 219.467C272.374 214.277 276.76 207.095 285.6 204.148C295.32 200.913 308.507 202.804 318.88 199.274C331.92 194.839 334.053 185.587 339.973 178.521C342.4 175.624 344.907 172.411 349.507 170.347C353.987 168.342 358.934 168.227 362.8 165.747C370.707 160.657 374.973 152.103 377.4 145.834C379.427 140.565 382.187 132.629 387.867 128.172C393.654 123.629 405.053 120.89 413.667 118.122C416.947 117.073 424.107 115.096 422.707 112.393C420.64 108.403 414.107 113.378 410.827 114.571" fill="#FFB7A4"/>
<path d="M313.387 209.705C303.974 209.705 292.987 207.167 283.32 205.047C284.04 204.716 284.8 204.414 285.6 204.148C295.32 200.913 308.507 202.804 318.88 199.274C322.027 198.203 324.547 196.844 326.64 195.306C329.44 195.27 332.24 195.241 335.04 195.241C341.027 195.241 347.014 195.371 353 195.802C371.614 197.139 361.374 202.739 350.24 205.672C340.147 208.332 324.654 209.69 313.454 209.705C313.44 209.705 313.414 209.705 313.387 209.705M269.84 202.193C262.307 200.503 254.934 198.62 247.267 197.211C249.414 196.047 251.467 194.832 253.387 193.552C256.867 191.237 260.187 188.923 263.614 186.716C267.44 186.953 271.574 187.068 276.28 187.226C274.347 190.339 270.56 191.669 277.04 193.638C279.04 194.249 282.094 194.638 285.454 194.889C280.56 197.477 275.44 199.878 269.84 202.193M206.92 193.962C202.894 193.962 198.907 193.768 195.52 192.711C184 189.131 192 179.268 202.947 179.268C203.027 179.268 203.12 179.268 203.2 179.268L208.774 177.392C211.467 177.141 214.08 177.011 216.64 177.011C225.12 177.011 232.867 178.442 240.134 181.547C241.027 181.928 241.894 182.28 242.76 182.604C234.707 187.284 224.387 190.54 214.2 193.897C214.134 193.897 214.067 193.897 214 193.897C212.854 193.897 211.68 193.911 210.494 193.933C209.307 193.947 208.12 193.962 206.92 193.962" fill="#E27166"/>
<path d="M247.267 197.211C243.974 196.607 240.627 196.09 237.174 195.709C230.2 194.939 223.414 194.12 216.28 193.926C215.6 193.904 214.907 193.897 214.2 193.897C224.387 190.54 234.707 187.284 242.76 182.604C249.84 185.285 256.12 186.241 263.614 186.716C260.187 188.923 256.867 191.237 253.387 193.552C251.467 194.832 249.414 196.047 247.267 197.211" fill="#FFB7A4"/>
<path d="M283.32 205.047C280.96 204.529 278.68 204.033 276.52 203.609C274.267 203.163 272.053 202.681 269.84 202.193C275.44 199.878 280.56 197.477 285.453 194.889C291.266 195.313 298.053 195.342 302.12 195.428C304.56 195.479 306.986 195.5 309.413 195.5C313.706 195.5 317.987 195.435 322.253 195.371C323.72 195.349 325.173 195.328 326.64 195.306C324.546 196.844 322.027 198.203 318.88 199.274C308.507 202.804 295.32 200.913 285.6 204.148C284.8 204.414 284.04 204.716 283.32 205.047" fill="#FFB7A4"/>
<path d="M421.534 134.412C419.054 134.412 416.44 133.664 413.8 132.672C407.187 130.185 401.04 127.23 394.827 124.326C399.92 122.177 406.08 120.473 411.48 118.812C416.107 120.193 420.36 121.724 423.574 123.679C427.694 126.174 431.84 128.596 428.107 131.939C426.12 133.729 423.894 134.412 421.534 134.412ZM388.494 121.422C386.68 120.61 384.853 119.826 382.987 119.064C376.907 116.591 370.8 114.377 363.48 113.054C362.387 112.853 361.24 112.695 360.08 112.558C362.12 111.796 364.2 111.034 366.267 110.237C370.44 108.612 374.56 106.951 378.64 105.262C382.307 111.013 393.24 113.845 404.053 116.742C398.573 118.302 393.174 119.538 388.494 121.422M333.814 107.807C327.12 102.128 342.24 91.9128 352.333 90.2307L357.907 88.3473C360.64 87.5278 363.454 87.0318 366.174 87.0318C369.574 87.0318 372.814 87.8154 375.494 89.7491C377.227 90.9927 377.92 92.3369 378.12 93.7315C376.52 94.4 374.894 95.0183 373.227 95.5718C359.374 100.158 344.187 101.495 333.814 107.807" fill="#E27166"/>
<path d="M360.08 112.558C353.067 111.732 345.134 111.818 338.894 110.15C336.56 109.525 334.907 108.727 333.813 107.807C344.187 101.495 359.374 100.158 373.227 95.5717C374.894 95.0182 376.52 94.4 378.12 93.7314C378.493 96.3409 377.093 99.1445 377.413 101.855C377.56 103.098 377.987 104.227 378.64 105.262C374.56 106.951 370.44 108.612 366.267 110.236C364.2 111.034 362.12 111.796 360.08 112.558" fill="#FFB7A4"/>
<path d="M394.826 124.326C392.733 123.341 390.626 122.371 388.493 121.422C393.173 119.539 398.573 118.302 404.053 116.742C406.56 117.411 409.066 118.094 411.48 118.813C406.08 120.473 399.92 122.177 394.826 124.326" fill="#FFB7A4"/>
<path d="M184.84 297.621C186.867 293.358 189.533 289.268 193.667 285.458C206.64 287.744 210.853 293.071 197.08 296.198C193.107 297.104 189.014 297.542 184.84 297.621ZM166.773 296.133C151.573 293.631 136.227 288.592 122.827 285.839C128.853 282.913 134.747 280.512 142.027 278.37C143.387 277.975 144.774 277.572 146.174 277.155C152.507 278.543 154 280.038 157.867 282.59C160.44 284.286 164.734 284.811 169.614 284.926C169.36 285.48 169.12 286.047 168.894 286.637C167.707 289.908 167.267 293.049 166.773 296.133ZM76.9733 284.15C73.4133 284.15 69.9069 283.884 66.6003 283.057C53.4003 279.772 67.32 267.559 67.32 267.559C69.7067 266.387 72.7202 265.941 75.8669 265.941C82.7869 265.941 90.2936 268.119 92.9469 269.521C102.427 274.553 110.08 274.409 122.28 274.97C114.12 278.233 104.467 280.757 94.7201 283.244C93.9467 283.273 93.1601 283.301 92.3867 283.337C87.3734 283.589 82.1066 284.15 76.9733 284.15" fill="#E27166"/>
<path d="M122.826 285.839C121.906 285.645 121 285.472 120.093 285.307C112.666 283.934 105.653 283.194 98.2132 283.194C97.0532 283.194 95.8931 283.208 94.7197 283.244C104.466 280.757 114.12 278.233 122.28 274.97C122.987 274.999 123.72 275.035 124.453 275.078C131.293 275.43 138.066 275.567 144.68 276.853C145.2 276.954 145.707 277.055 146.173 277.155C144.773 277.572 143.386 277.975 142.026 278.37C134.746 280.512 128.853 282.913 122.826 285.839" fill="#FFB7A4"/>
<path d="M183.36 297.635C177.92 297.635 172.36 297.053 166.773 296.133C167.267 293.049 167.707 289.908 168.894 286.637C169.12 286.047 169.36 285.479 169.614 284.926C170.414 284.948 171.213 284.955 172.04 284.955C174 284.955 176.013 284.912 178.027 284.868C180.053 284.825 182.08 284.775 184.04 284.775C187.187 284.775 190.187 284.89 192.747 285.3C193.067 285.35 193.373 285.4 193.667 285.458C189.533 289.268 186.867 293.358 184.84 297.621C184.347 297.628 183.867 297.635 183.36 297.635" fill="#FFB7A4"/>
</g>
<defs>
<clipPath id="clip0_141_1060">
<rect width="714.573" height="389.736" fill="white"/>
</clipPath>
</defs>
</svg>
