<?xml version="1.0" encoding="UTF-8" standalone="no"?>
<!-- Created with Inkscape (http://www.inkscape.org/) -->

<svg
   width="189.06419mm"
   height="103.11776mm"
   viewBox="0 0 189.06419 103.11776"
   version="1.1"
   id="svg11989"
   inkscape:version="1.1.1 (3bf5ae0d25, 2021-09-20)"
   sodipodi:docname="extra-tomato.svg"
   xmlns:inkscape="http://www.inkscape.org/namespaces/inkscape"
   xmlns:sodipodi="http://sodipodi.sourceforge.net/DTD/sodipodi-0.dtd"
   xmlns="http://www.w3.org/2000/svg"
   xmlns:svg="http://www.w3.org/2000/svg">
  <sodipodi:namedview
     id="namedview11991"
     pagecolor="#505050"
     bordercolor="#ffffff"
     borderopacity="1"
     inkscape:pageshadow="0"
     inkscape:pageopacity="0"
     inkscape:pagecheckerboard="1"
     inkscape:document-units="mm"
     showgrid="false"
     inkscape:zoom="0.69753788"
     inkscape:cx="302.49253"
     inkscape:cy="125.44122"
     inkscape:window-width="1920"
     inkscape:window-height="1001"
     inkscape:window-x="-9"
     inkscape:window-y="-9"
     inkscape:window-maximized="1"
     inkscape:current-layer="layer3" />
  <defs
     id="defs11986" />
  <g
     inkscape:groupmode="layer"
     id="layer3"
     inkscape:label="Layer 3"
     style="display:inline"
     transform="translate(-2.397317,-4.3474412)">
    <g
       id="g1574">
      <path
         d="m 109.35601,59.478771 c -0.74083,0.201083 -3.18558,-0.934861 -6.69219,-2.070805 -5.969002,-1.933223 -15.007169,-3.866445 -23.921863,0.79375 -4.586111,2.398888 -8.135055,12.160249 -7.46125,19.907249 0.673806,7.743472 8.399639,17.55775 20.838583,22.711835 23.41033,9.69786 42.78136,5.08353 52.22522,1.78505 14.84136,-5.182302 23.82661,-24.641524 19.80847,-37.768385 -0.9278,-3.026833 -4.064,-5.799666 -6.43114,-8.420805 -15.69508,-17.353138 -31.64416,-10.717389 -37.30272,-8.678333 -8.37847,3.023305 -8.23383,10.974916 -11.06311,11.740444"
         style="fill:#e22727;fill-opacity:1;fill-rule:nonzero;stroke:none;stroke-width:0.0352778"
         id="path1994" />
      <path
         d="m 108.84096,52.843021 c -0.62442,0.169334 -2.1837,-0.215194 -4.46264,-0.596194 -5.034141,-0.846667 -13.581946,-1.689806 -23.322141,3.404305 -9.172222,4.797778 -14.326305,28.229277 10.548056,38.533916 23.410335,9.697862 42.781355,5.083528 52.225225,1.785056 18.2633,-6.378222 27.29794,-28.388028 14.66497,-42.361555 -15.69509,-17.353139 -32.93181,-14.545027 -38.59036,-12.502444 -8.37847,3.019778 -8.23384,10.971388 -11.06311,11.736916"
         style="fill:#ff6a5f;fill-opacity:1;fill-rule:nonzero;stroke:none;stroke-width:0.0352778"
         id="path1996" />
      <path
         d="m 120.0099,96.94377 c -7.32719,0 -15.82914,-1.266472 -25.043693,-5.005916 2.402416,-1.329972 4.833055,-2.839861 7.270753,-4.561417 5.73969,2.014361 11.21127,2.744611 15.96319,2.744611 8.43139,0 14.58383,-2.307166 15.85383,-3.848805 1.56986,-1.905 -9.36625,-10.865556 -17.39547,-16.982722 1.13242,-3.256139 1.51695,-6.371167 1.12889,-9.052278 -0.46567,-3.199694 -1.72155,-6.57225 -3.38667,-9.517944 0.9137,-2.31775 2.38478,-4.776611 5.37281,-6.424083 1.94028,-1.068917 5.24933,-1.926167 9.29569,-1.926167 3.19264,0 6.84742,0.536222 10.64331,1.926167 4.80483,1.760361 10.16353,4.593166 14.9225,11.098389 9.80369,13.409083 2.57175,32.395582 -13.62428,38.004749 -4.61786,1.598083 -11.90625,3.545416 -21.00086,3.545416 m 11.98739,-49.124304 c -0.69497,0 -1.34408,0.05997 -1.93322,0.176389 -6.43114,1.273527 -10.11767,8.163277 -8.36084,13.525499 2.34598,7.147278 18.48909,21.992167 21.60764,21.992167 0.0988,0 0.18697,-0.01411 0.26106,-0.04586 2.31422,-1.023055 7.54591,-8.533694 7.07319,-19.268721 -0.46566,-10.664472 -11.76161,-16.379472 -18.64783,-16.379472"
         style="fill:#fb544b;fill-opacity:1;fill-rule:nonzero;stroke:none;stroke-width:0.0352778"
         id="path1998" />
      <path
         d="m 108.84096,63.56041 c 2.68111,1.774472 27.52725,19.907249 25.21302,22.711833 -2.31775,2.808111 -20.83858,8.166805 -39.877995,-2.550584 C 83.07054,77.46691 82.601346,67.388049 88.002374,64.325938 93.406929,61.263827 105.75415,61.521354 108.84096,63.56041"
         style="fill:#ff6a5f;fill-opacity:1;fill-rule:nonzero;stroke:none;stroke-width:0.0352778"
         id="path2000" />
      <path
         d="m 121.70323,61.521354 c 2.42006,7.376584 19.55448,22.965833 21.8687,21.946305 2.31422,-1.023055 7.54591,-8.533694 7.07319,-19.268721 -0.51153,-11.736917 -14.14991,-17.480139 -20.58105,-16.203083 -6.43114,1.273527 -10.11767,8.163277 -8.36084,13.525499"
         style="fill:#ff6a5f;fill-opacity:1;fill-rule:nonzero;stroke:none;stroke-width:0.0352778"
         id="path2002" />
      <path
         d="m 105.94465,87.637493 c -0.99836,0 -1.37936,-1.001889 -1.32644,-2.042584 1.00894,-0.811388 1.96497,-1.647472 2.86455,-2.511777 1.27353,0.08467 1.00542,3.580694 -0.56797,4.307416 -0.37394,0.169334 -0.69497,0.246945 -0.97014,0.246945"
         style="fill:#f89270;fill-opacity:1;fill-rule:nonzero;stroke:none;stroke-width:0.0352778"
         id="path2004" />
      <path
         d="m 112.28054,88.702882 c -2.48356,0 -2.04258,-4.282723 0.0353,-4.342695 l 0.89958,0.254 c 1.23825,0.596195 1.40406,3.926417 -0.77258,4.085167 -0.0564,0.0035 -0.10936,0.0035 -0.16228,0.0035"
         style="fill:#f89270;fill-opacity:1;fill-rule:nonzero;stroke:none;stroke-width:0.0352778"
         id="path2006" />
      <path
         d="m 118.44004,88.833409 c -1.49225,0 -2.35656,-3.245555 -1.23825,-3.707694 l 0.51506,-0.127 c 0.13052,-0.06703 0.26105,-0.09525 0.38452,-0.09525 1.30881,0 2.29306,3.175 0.80081,3.827639 -0.15875,0.07055 -0.31397,0.102305 -0.46214,0.102305"
         style="fill:#f89270;fill-opacity:1;fill-rule:nonzero;stroke:none;stroke-width:0.0352778"
         id="path2008" />
      <path
         d="m 122.9309,89.090937 c -1.69333,0 -2.97744,-3.400778 -1.48519,-4.47675 h 0.25752 c 0.06,-0.01058 0.11642,-0.01764 0.17639,-0.01764 1.46403,0 3.06211,3.693584 1.62631,4.363861 -0.19403,0.08819 -0.38806,0.130528 -0.57503,0.130528"
         style="fill:#f89270;fill-opacity:1;fill-rule:nonzero;stroke:none;stroke-width:0.0352778"
         id="path2010" />
      <path
         d="m 128.30018,87.655132 c -1.28764,0 -3.40431,-2.518834 -2.61409,-3.661834 0.06,-0.02822 0.0988,-0.04233 0.127,-0.04233 0.0917,0 0.0494,0.127 0.13406,0.155222 l 0.38806,-0.257528 c 0.85372,0.148167 4.09575,2.504723 2.413,3.675945 -0.13053,0.09172 -0.28223,0.130528 -0.44803,0.130528"
         style="fill:#f89270;fill-opacity:1;fill-rule:nonzero;stroke:none;stroke-width:0.0352778"
         id="path2012" />
      <path
         d="m 124.76182,61.119188 c -1.00542,-0.162278 -2.03906,-1.30175 -2.286,-2.278945 -0.17286,-0.08114 -0.0917,-0.814916 0.45861,-0.814916 0.22578,0 0.52917,0.123472 0.92428,0.462139 0.70202,0.60325 1.61925,1.74625 0.90311,2.631722"
         style="fill:#f89270;fill-opacity:1;fill-rule:nonzero;stroke:none;stroke-width:0.0352778"
         id="path2014" />
      <path
         d="m 126.01771,57.238632 c -1.07245,-0.0035 -2.72345,-2.039055 -2.12725,-3.118555 v 0.127 c 0.1905,-0.430389 0.45861,-0.60325 0.75494,-0.60325 1.03364,0 2.40947,2.109611 2.07786,3.026833 -0.14464,0.402167 -0.40217,0.567972 -0.70555,0.567972"
         style="fill:#f89270;fill-opacity:1;fill-rule:nonzero;stroke:none;stroke-width:0.0352778"
         id="path2016" />
      <path
         d="m 127.93682,54.76566 c -1.31586,0 -2.22603,-4.035778 -1.34409,-4.73075 l 0.25753,0.511528 c 0.16581,-0.09172 0.32103,-0.134056 0.4692,-0.134056 1.47108,0 1.9438,4.212167 0.68791,4.34975 -0.0247,0.0035 -0.0459,0.0035 -0.0706,0.0035"
         style="fill:#f89270;fill-opacity:1;fill-rule:nonzero;stroke:none;stroke-width:0.0352778"
         id="path2018" />
      <path
         d="m 131.36229,53.49566 c -0.004,0 -0.007,0 -0.0106,0 -1.49225,-0.02822 -0.70909,-4.487333 0,-4.607278 l 0.38452,0.127 c 1.79211,0.331612 0.83609,4.483806 -0.37394,4.480278"
         style="fill:#f89270;fill-opacity:1;fill-rule:nonzero;stroke:none;stroke-width:0.0352778"
         id="path2020" />
      <path
         d="m 134.38559,53.36866 c -0.20461,0 -0.40569,-0.07055 -0.59266,-0.236361 -0.90311,-0.786694 0.70555,-4.15925 1.73919,-4.15925 0.067,0 0.13053,0.01411 0.19403,0.04233 l 0.25753,0.381 c 1.23825,0.758473 -0.23989,3.975806 -1.59809,3.972278"
         style="fill:#f89270;fill-opacity:1;fill-rule:nonzero;stroke:none;stroke-width:0.0352778"
         id="path2022" />
      <path
         d="m 137.71229,54.345855 c -0.70908,0 -1.397,-0.243417 -0.70203,-0.991306 l 0.25753,-0.254 c 0.16228,-0.747889 1.68628,-2.032 2.51178,-2.032 0.40569,0 0.64205,0.306917 0.47625,1.135944 -0.17992,0.885473 -0.77259,1.672167 -1.70392,2.017889 -0.20108,0.07408 -0.52211,0.123473 -0.83961,0.123473"
         style="fill:#f89270;fill-opacity:1;fill-rule:nonzero;stroke:none;stroke-width:0.0352778"
         id="path2024" />
      <path
         d="m 140.83084,56.854104 c -0.99483,0 -1.78505,-0.440972 -0.47625,-1.329972 l 0.13053,-0.384527 c 0.91017,-0.398639 1.77447,-1.425223 2.97745,-1.425223 0.26811,0 0.55386,0.05292 0.85725,0.172861 0.0635,1.075973 -1.27353,2.226028 -2.159,2.684639 -0.36336,0.186972 -0.86784,0.282222 -1.32998,0.282222"
         style="fill:#f89270;fill-opacity:1;fill-rule:nonzero;stroke:none;stroke-width:0.0352778"
         id="path2026" />
      <path
         d="m 143.97057,59.270632 c -0.58209,0 -1.04775,-0.130528 -1.17123,-0.430389 l -0.127,-0.127 c 0.35984,-0.642055 2.36714,-1.859139 3.5807,-1.859139 0.49036,0 0.85372,0.197556 0.92428,0.712612 0.14111,0.994833 -1.85561,1.703916 -3.20675,1.703916"
         style="fill:#f89270;fill-opacity:1;fill-rule:nonzero;stroke:none;stroke-width:0.0352778"
         id="path2028" />
      <path
         d="m 146.40473,61.97291 c -1.06539,0 -2.10255,-0.236361 -2.31775,-0.582083 l -0.13052,-0.381 c 0.4198,-0.246945 2.48355,-0.910167 3.83116,-0.910167 0.68439,0 1.18534,0.172861 1.18886,0.659694 0.007,0.878417 -1.30175,1.213556 -2.57175,1.213556"
         style="fill:#f89270;fill-opacity:1;fill-rule:nonzero;stroke:none;stroke-width:0.0352778"
         id="path2030" />
      <path
         d="m 147.60771,65.423077 c -1.25942,0 -2.80106,-0.73025 -3.2632,-1.478139 l 0.25753,-0.254 c -0.0141,-0.01764 -0.0353,-0.0247 -0.0564,-0.0247 -0.0247,0 -0.0529,0.0071 -0.0776,0.01058 -0.0247,0.0071 -0.0459,0.01058 -0.06,0.01058 -0.0282,0 -0.0247,-0.01764 0.0459,-0.09172 0.45509,-0.218723 1.78153,-0.493889 2.94217,-0.493889 1.29117,0 2.37419,0.342194 1.83444,1.485194 -0.28222,0.60325 -0.90664,0.836084 -1.62277,0.836084"
         style="fill:#f89270;fill-opacity:1;fill-rule:nonzero;stroke:none;stroke-width:0.0352778"
         id="path2032" />
      <path
         d="m 147.73118,69.483549 c -1.40759,0 -3.22439,-0.85725 -3.38667,-1.837973 l -0.13053,-0.384527 c 0.29634,-0.165806 1.27706,-0.331611 2.30717,-0.331611 1.45697,0 3.00919,0.335138 2.84339,1.488722 -0.10583,0.762 -0.79728,1.065389 -1.63336,1.065389"
         style="fill:#f89270;fill-opacity:1;fill-rule:nonzero;stroke:none;stroke-width:0.0352778"
         id="path2034" />
      <path
         d="m 147.23023,73.290021 c -1.14652,0 -2.92805,-1.023056 -3.40077,-1.689806 l -0.13053,-0.511528 c 0.27164,-0.215194 0.8008,-0.324555 1.40758,-0.324555 1.46403,0 3.3655,0.631472 3.09739,1.855611 -0.10936,0.483306 -0.48331,0.670278 -0.97367,0.670278"
         style="fill:#f89270;fill-opacity:1;fill-rule:nonzero;stroke:none;stroke-width:0.0352778"
         id="path2036" />
      <path
         d="m 146.4894,77.089437 c -1.24883,0 -3.41842,-1.160638 -3.81706,-2.046111 v -0.381 c 0.21167,-0.1905 0.60325,-0.275166 1.0795,-0.275166 1.3582,0 3.3655,0.6985 3.5807,1.647472 0.17639,0.762 -0.21872,1.054805 -0.84314,1.054805"
         style="fill:#f89270;fill-opacity:1;fill-rule:nonzero;stroke:none;stroke-width:0.0352778"
         id="path2038" />
      <path
         d="m 144.33393,80.726576 c -1.04775,0 -2.98097,-2.084916 -3.07622,-3.002139 0.0423,-0.0035 0.0952,-0.0035 0.14816,-0.0035 1.05128,0 3.70064,0.677333 3.5807,2.173111 -0.0494,0.596194 -0.29986,0.832555 -0.65264,0.832555"
         style="fill:#f89270;fill-opacity:1;fill-rule:nonzero;stroke:none;stroke-width:0.0352778"
         id="path2040" />
      <path
         d="m 76.441846,50.676966 c 0.892528,0.03175 3.626556,-2.2225 7.6835,-4.47675 5.358694,-2.977445 13.031611,-5.951361 21.836944,-3.665361 5.0165,1.30175 10.70681,10.004777 11.82511,17.702388 1.11831,7.694083 -4.15925,18.993555 -15.09183,26.814639 C 82.121568,101.7733 62.19668,101.6463 52.248347,100.56327 36.609708,98.859354 23.398181,81.936604 24.304819,68.248826 c 0.208139,-3.160888 2.628195,-6.565194 4.335639,-9.651999 11.306528,-20.436417 28.359805,-17.571861 34.339388,-16.85925 8.851195,1.054806 10.530417,8.830028 13.462,8.939389"
         style="fill:#e22727;fill-opacity:1;fill-rule:nonzero;stroke:none;stroke-width:0.0352778"
         id="path2042" />
      <path
         d="m 75.422318,44.101188 c 0.8255,0.02822 2.931584,-1.160639 6.141861,-2.3495 4.85775,-1.799166 12.244917,-3.598333 21.558251,-1.181805 10.033,2.6035 20.41878,24.264055 -1.44286,39.902693 C 81.10204,95.193993 61.18068,95.07052 51.228819,93.983965 31.981264,91.888465 18.141792,72.492743 27.243458,56.03566 38.553514,35.599244 55.980735,34.449188 61.960319,35.161799 c 8.851194,1.054806 10.530416,8.830028 13.461999,8.939389"
         style="fill:#ff6a5f;fill-opacity:1;fill-rule:nonzero;stroke:none;stroke-width:0.0352778"
         id="path2044" />
      <path
         d="m 60.22818,91.207604 c -2.63525,0 -4.942417,-0.162278 -6.843889,-0.363361 C 36.327486,89.034493 24.932764,72.171715 31.413292,56.907021 34.556541,49.49516 39.121486,45.529938 43.40068,42.73241 c 5.605639,-3.665361 11.370028,-4.953 15.553972,-4.953 1.527528,0 2.839861,0.169334 3.862917,0.458612 7.591777,2.148416 8.311444,10.357555 10.907888,10.445749 0.0071,0 0.01411,0 0.02117,0 0.783167,0 2.9845,-1.435805 6.268861,-2.875139 3.280833,-1.435805 7.641166,-2.875138 12.738805,-2.875138 2.120195,0 4.367389,0.250472 6.720417,0.850194 8.89,2.271889 18.05869,21.300722 -1.347614,35.090805 C 83.793735,89.059187 69.837846,91.207604 60.22818,91.207604 M 94.010179,50.059605 c -6.177139,0 -14.118166,2.3495 -16.132527,4.47675 -2.204861,2.331861 -22.246167,25.590499 -19.349861,27.802416 0.92075,0.702027 3.488972,1.284111 7.08025,1.284111 7.725833,0 20.185944,-2.702278 31.167916,-12.756444 9.383893,-8.597195 7.531803,-18.517306 1.569861,-20.281194 -1.234722,-0.363362 -2.723445,-0.525639 -4.335639,-0.525639 M 53.980485,44.157633 c -0.112888,0 -0.225777,0 -0.338666,0.0035 -6.554611,0.208139 -18.517305,8.872361 -16.330083,20.418778 2.00025,10.562166 8.815916,16.696971 11.303,17.169694 0.03175,0.0071 0.0635,0.01058 0.09525,0.01058 2.712861,0 15.515166,-18.676055 16.171333,-26.310166 0.47625,-5.520972 -4.5085,-11.292416 -10.900834,-11.292416"
         style="fill:#fb544b;fill-opacity:1;fill-rule:nonzero;stroke:none;stroke-width:0.0352778"
         id="path2046" />
      <path
         d="m 77.877652,54.536355 c -2.204861,2.331861 -22.246167,25.590499 -19.349861,27.802416 2.896305,2.211916 22.165027,3.256138 38.248166,-11.472333 9.383893,-8.597195 7.531803,-18.517306 1.569861,-20.281194 -5.961945,-1.763889 -17.928166,1.266472 -20.468166,3.951111"
         style="fill:#ff6a5f;fill-opacity:1;fill-rule:nonzero;stroke:none;stroke-width:0.0352778"
         id="path2048" />
      <path
         d="M 64.881319,55.450049 C 64.218096,63.17941 51.105347,82.222354 48.614736,81.749632 46.127652,81.276909 39.311986,75.142104 37.311736,64.579938 35.124514,53.033521 47.087208,44.369299 53.641819,44.16116 c 6.554611,-0.208139 11.726333,5.669139 11.2395,11.288889"
         style="fill:#ff6a5f;fill-opacity:1;fill-rule:nonzero;stroke:none;stroke-width:0.0352778"
         id="path2050" />
      <path
         d="m 93.202318,55.093743 c -0.335139,0 -0.642056,-0.148166 -0.892528,-0.515055 -0.705555,-1.037167 2.423583,-2.7305 3.884083,-2.7305 0.3175,0 0.557389,0.07761 0.659695,0.261055 l -0.123472,0.02822 c -0.398639,0.567972 -2.187223,2.956277 -3.527778,2.956277"
         style="fill:#f89270;fill-opacity:1;fill-rule:nonzero;stroke:none;stroke-width:0.0352778"
         id="path2052" />
      <path
         d="m 96.296179,58.074716 c -0.05292,0 -0.102306,0 -0.151694,-0.0035 -1.245306,-0.04939 -2.518834,-1.030111 -0.79375,-1.68275 l -0.123473,0.02822 c 0.881945,-0.578556 2.751667,-1.150055 3.817056,-1.17475 0.03175,0 0.0635,0 0.09525,0 1.520472,0 2.370662,0.797278 0.829028,1.679222 -0.994834,0.567972 -2.458862,1.153584 -3.672417,1.153584"
         style="fill:#f89270;fill-opacity:1;fill-rule:nonzero;stroke:none;stroke-width:0.0352778"
         id="path2054" />
      <path
         d="m 97.463873,64.089577 c -1.100666,0 -2.751666,-0.483306 -3.439583,-1.135945 -1.42875,-1.354667 -0.257528,-2.106083 1.11125,-2.451805 v 0 0 c 1.012472,0.05292 2.642306,0.236361 3.510139,0.885472 1.312333,0.98425 0.871361,2.377722 -0.705556,2.663472 -0.141111,0.02469 -0.303389,0.03881 -0.47625,0.03881"
         style="fill:#f89270;fill-opacity:1;fill-rule:nonzero;stroke:none;stroke-width:0.0352778"
         id="path2056" />
      <path
         d="m 95.13554,60.501827 v 0 h -0.0035 l 0.123473,-0.02822 c -0.03881,0.0071 -0.08114,0.01764 -0.119945,0.02822 v 0"
         style="fill:#f89270;fill-opacity:1;fill-rule:nonzero;stroke:none;stroke-width:0.0352778"
         id="path2058" />
      <path
         d="m 94.253596,69.024938 c -1.128889,0 -2.667,-0.543278 -3.07975,-1.319389 -0.469195,-0.881945 0.148166,-2.226028 1.100666,-2.226028 0.109361,0 0.225778,0.02117 0.342195,0.05997 l -0.462139,-0.28575 c 0.01058,0 0.02117,0 0.03175,0 1.55575,0 5.693833,2.638778 2.811639,3.665361 -0.208139,0.07056 -0.462139,0.105834 -0.744361,0.105834"
         style="fill:#f89270;fill-opacity:1;fill-rule:nonzero;stroke:none;stroke-width:0.0352778"
         id="path2060" />
      <path
         d="m 90.651735,74.150799 c -1.442861,0 -3.654778,-2.014362 -2.455334,-3.266723 l 0.28575,-0.458611 c 0.134056,-0.04233 0.275167,-0.05997 0.419806,-0.05997 1.703917,0 4.15925,2.628194 2.307167,3.654778 -0.162278,0.08819 -0.352778,0.130528 -0.557389,0.130528"
         style="fill:#f89270;fill-opacity:1;fill-rule:nonzero;stroke:none;stroke-width:0.0352778"
         id="path2062" />
      <path
         d="m 85.804568,77.375187 c -0.179917,0 -0.373944,-0.02117 -0.592667,-0.06703 -1.799166,-0.373945 -2.885722,-4.099278 -1.298222,-4.099278 0.275167,0 0.635,0.116417 1.086556,0.381 l -0.211667,-0.342195 c 0.162278,-0.09878 0.328083,-0.144638 0.490361,-0.144638 0.800806,0 1.562806,1.068916 1.806222,2.134305 0.246945,1.068917 -0.02117,2.137833 -1.280583,2.137833"
         style="fill:#f89270;fill-opacity:1;fill-rule:nonzero;stroke:none;stroke-width:0.0352778"
         id="path2064" />
      <path
         d="m 79.824985,79.851687 c -1.905,0 -2.402417,-3.005666 -1.382889,-3.827639 l 0.818444,-0.448027 c 0.09525,-0.02117 0.1905,-0.03175 0.28575,-0.03175 1.915584,0 3.097389,3.887611 0.582084,4.282722 -0.105834,0.01764 -0.208139,0.02469 -0.303389,0.02469"
         style="fill:#f89270;fill-opacity:1;fill-rule:nonzero;stroke:none;stroke-width:0.0352778"
         id="path2066" />
      <path
         d="m 74.074707,81.340409 c -0.07408,0 -0.148166,-0.0071 -0.229305,-0.02117 -1.679223,-0.3175 -1.347611,-3.929945 0.08467,-3.929945 0.07056,0 0.141111,0.0071 0.215195,0.0247 l 0.529166,0.0071 c 1.259417,0.208139 1.086556,3.919361 -0.599722,3.919361"
         style="fill:#f89270;fill-opacity:1;fill-rule:nonzero;stroke:none;stroke-width:0.0352778"
         id="path2068" />
      <path
         d="m 69.714374,82.606882 c -0.09878,0 -0.197556,-0.01058 -0.299861,-0.03175 -1.615722,-0.342195 -0.783167,-4.60375 0.758472,-4.6355 l 0.250472,-0.05997 c 1.799167,0.751416 1.171223,4.727222 -0.709083,4.727222"
         style="fill:#f89270;fill-opacity:1;fill-rule:nonzero;stroke:none;stroke-width:0.0352778"
         id="path2070" />
      <path
         d="m 64.249846,82.409326 c -0.09172,0 -0.179916,-0.01411 -0.268111,-0.04939 -1.908528,-0.758472 0.709084,-3.785305 1.506361,-4.120444 l 0.433917,0.15875 c 0.08467,-0.04939 -0.0071,-0.179917 0.130528,-0.179917 0.02469,0 0.05997,0.0035 0.102305,0.01411 1.086556,0.98425 -0.617361,4.176889 -1.905,4.176889"
         style="fill:#f89270;fill-opacity:1;fill-rule:nonzero;stroke:none;stroke-width:0.0352778"
         id="path2072" />
      <path
         d="m 88.485679,54.910299 c -0.239889,0 -0.465667,-0.09525 -0.659694,-0.321028 -0.716139,-0.829028 1.185333,-3.189111 2.240139,-3.189111 0.05292,0 0.105833,0.0071 0.155222,0.01764 l 0.123472,-0.02822 c 0.896056,0.998361 -0.642056,3.520722 -1.859139,3.520722"
         style="fill:#f89270;fill-opacity:1;fill-rule:nonzero;stroke:none;stroke-width:0.0352778"
         id="path2074" />
      <path
         d="m 83.186957,55.855743 c -0.130528,0 -0.257528,-0.0388 -0.381,-0.127 -1.735667,-1.262944 1.943806,-3.252611 2.441222,-3.552472 l 0.278695,0.06703 c 0.04586,0.740833 -1.241778,3.612444 -2.338917,3.612444"
         style="fill:#f89270;fill-opacity:1;fill-rule:nonzero;stroke:none;stroke-width:0.0352778"
         id="path2076" />
      <path
         d="m 61.812152,55.74991 c -0.899583,-0.702028 -0.264583,-2.021417 0.278694,-2.765778 0.370417,-0.504472 0.680861,-0.673805 0.917223,-0.673805 0.448027,0 0.645583,0.596194 0.508,0.702028 -0.01411,1.005416 -0.762,2.353027 -1.703917,2.737555"
         style="fill:#f89270;fill-opacity:1;fill-rule:nonzero;stroke:none;stroke-width:0.0352778"
         id="path2078" />
      <path
         d="m 59.533208,52.267993 c -0.236362,0 -0.462139,-0.119944 -0.649112,-0.409222 -0.560916,-0.860778 0.416278,-3.436055 1.485195,-3.436055 0.239889,0 0.486833,0.127 0.716139,0.437444 l -0.02822,-0.127 c 0.874888,0.970139 -0.4445,3.534833 -1.524,3.534833"
         style="fill:#f89270;fill-opacity:1;fill-rule:nonzero;stroke:none;stroke-width:0.0352778"
         id="path2080" />
      <path
         d="m 57.134319,50.292438 c -0.631472,0 -1.058334,-1.104194 -1.121834,-2.208389 -0.06703,-1.104194 0.229306,-2.208389 1.044223,-2.208389 0.09172,0 0.194027,0.01411 0.303388,0.04586 l 0.130528,-0.553861 c 1.037167,0.486834 1.058334,4.7625 -0.292805,4.92125 -0.02117,0.0035 -0.04233,0.0035 -0.0635,0.0035"
         style="fill:#f89270;fill-opacity:1;fill-rule:nonzero;stroke:none;stroke-width:0.0352778"
         id="path2082" />
      <path
         d="m 53.514819,49.826771 c -1.178278,0 -2.875139,-3.591277 -1.266472,-4.293305 l 0.345722,-0.211667 c 0.0035,0 0.0071,0 0.01058,0 0.726722,0 2.483556,4.123972 1.044222,4.487333 -0.04233,0.01058 -0.08819,0.01764 -0.134055,0.01764"
         style="fill:#f89270;fill-opacity:1;fill-rule:nonzero;stroke:none;stroke-width:0.0352778"
         id="path2084" />
      <path
         d="m 50.456236,50.394744 c -1.326445,0 -3.234973,-2.568223 -2.25425,-3.531306 l 0.162277,-0.430389 c 0.08467,-0.07055 0.183445,-0.09878 0.296334,-0.09878 1.061861,0 3.203222,2.737556 2.529416,3.672417 -0.197555,0.271639 -0.451555,0.388056 -0.733777,0.388056"
         style="fill:#f89270;fill-opacity:1;fill-rule:nonzero;stroke:none;stroke-width:0.0352778"
         id="path2086" />
      <path
         d="m 46.995486,52.148049 c -0.07056,0 -0.134056,0 -0.1905,-0.01058 -0.987778,-0.127 -1.74625,-0.758473 -2.120195,-1.576917 -0.419805,-0.913694 -0.116416,-1.241778 0.440972,-1.241778 0.871362,0 2.370667,0.811389 2.670528,1.435806 l 0.310445,0.1905 c 1.128888,0.762 -0.331612,1.202972 -1.11125,1.202972"
         style="fill:#f89270;fill-opacity:1;fill-rule:nonzero;stroke:none;stroke-width:0.0352778"
         id="path2088" />
      <path
         d="m 44.409625,55.30541 c -0.208139,0 -0.405695,-0.02117 -0.578556,-0.0635 -0.970139,-0.246944 -2.536472,-1.068917 -2.723444,-2.130778 0.4445,-0.303389 0.874888,-0.41275 1.291166,-0.41275 0.980722,0 1.894417,0.613834 2.734028,0.769056 l 0.211667,0.345722 c 1.862666,0.719667 0.328083,1.49225 -0.934861,1.49225"
         style="fill:#f89270;fill-opacity:1;fill-rule:nonzero;stroke:none;stroke-width:0.0352778"
         id="path2090" />
      <path
         d="m 41.520375,58.399271 c -1.128889,0 -2.282473,-0.324555 -2.3495,-1.058333 -0.06703,-0.709084 0.532694,-0.963084 1.326444,-0.963084 1.220611,0 2.899833,0.599723 3.323167,1.061862 l -0.09525,0.155222 c -0.08467,0.515055 -1.132417,0.804333 -2.204861,0.804333"
         style="fill:#f89270;fill-opacity:1;fill-rule:nonzero;stroke:none;stroke-width:0.0352778"
         id="path2092" />
      <path
         d="m 39.640069,61.620132 c -0.751417,0 -1.36525,-0.208139 -1.49225,-0.765528 -0.1905,-0.846666 1.379361,-1.075972 2.815167,-1.075972 0.956027,0 1.852083,0.102306 2.130777,0.1905 l -0.03528,0.398639 c -0.186973,0.550333 -2.039056,1.252361 -3.418417,1.252361"
         style="fill:#f89270;fill-opacity:1;fill-rule:nonzero;stroke:none;stroke-width:0.0352778"
         id="path2094" />
      <path
         d="m 39.954041,65.162021 c -0.465666,0 -0.881944,-0.151694 -1.17475,-0.522111 -1.245305,-1.569861 1.926167,-2.102556 3.623028,-2.102556 0.345722,0 0.627944,0.02117 0.800806,0.05997 0.22225,0.144638 -0.08467,0.03528 -0.119945,0.123472 l 0.306917,0.1905 c -0.321028,0.973666 -2.084917,2.250722 -3.436056,2.250722"
         style="fill:#f89270;fill-opacity:1;fill-rule:nonzero;stroke:none;stroke-width:0.0352778"
         id="path2096" />
      <path
         d="m 40.747791,69.14841 c -0.557389,0 -1.016,-0.215195 -1.224139,-0.747889 -0.627944,-1.61925 2.871611,-2.328333 4.289778,-2.328333 0.204611,0 0.363361,0.01411 0.462139,0.04233 l -0.03528,0.402167 c 0.07408,1.146527 -2.039055,2.631722 -3.4925,2.631722"
         style="fill:#f89270;fill-opacity:1;fill-rule:nonzero;stroke:none;stroke-width:0.0352778"
         id="path2098" />
      <path
         d="m 42.38468,72.707937 c -0.331611,0 -0.60325,-0.137583 -0.762,-0.47625 -0.659694,-1.372305 1.989667,-2.614083 3.432528,-2.614083 0.239889,0 0.448028,0.03528 0.599722,0.109361 l -0.0071,0.525639 c -0.342195,0.836083 -2.137834,2.455333 -3.263195,2.455333"
         style="fill:#f89270;fill-opacity:1;fill-rule:nonzero;stroke:none;stroke-width:0.0352778"
         id="path2100" />
      <path
         d="m 43.975708,76.239243 c -0.430389,0 -0.723195,-0.250472 -0.726722,-0.878417 -0.0071,-1.135944 2.44475,-2.490611 3.725333,-2.490611 0.201083,0 0.370417,0.03175 0.500944,0.102306 l 0.08819,0.373944 c -0.208139,1.044222 -2.413,2.892778 -3.58775,2.892778"
         style="fill:#f89270;fill-opacity:1;fill-rule:nonzero;stroke:none;stroke-width:0.0352778"
         id="path2102" />
      <path
         d="m 47.094263,79.273132 c -0.278694,0 -0.518583,-0.197556 -0.677333,-0.684389 -0.479778,-1.502833 2.226028,-2.815167 3.136194,-2.95275 0.123473,0.963083 -1.432277,3.637139 -2.458861,3.637139"
         style="fill:#f89270;fill-opacity:1;fill-rule:nonzero;stroke:none;stroke-width:0.0352778"
         id="path2104" />
      <path
         d="m 91.089179,94.058048 -1.672167,5.485694 -5.016499,-2.677583 z"
         style="fill:#c62424;fill-opacity:1;fill-rule:nonzero;stroke:none;stroke-width:0.0352778"
         id="path2106" />
    </g>
  </g>
</svg>
