<?xml version="1.0" encoding="UTF-8" standalone="no"?>
<!-- Created with Inkscape (http://www.inkscape.org/) -->

<svg
   width="292.93469mm"
   height="334.97662mm"
   viewBox="0 0 292.93469 334.97662"
   version="1.1"
   id="svg1196"
   inkscape:version="1.1.1 (3bf5ae0d25, 2021-09-20)"
   sodipodi:docname="fries.svg"
   xmlns:inkscape="http://www.inkscape.org/namespaces/inkscape"
   xmlns:sodipodi="http://sodipodi.sourceforge.net/DTD/sodipodi-0.dtd"
   xmlns="http://www.w3.org/2000/svg"
   xmlns:svg="http://www.w3.org/2000/svg">
  <sodipodi:namedview
     id="namedview1198"
     pagecolor="#505050"
     bordercolor="#ffffff"
     borderopacity="1"
     inkscape:pageshadow="0"
     inkscape:pageopacity="0"
     inkscape:pagecheckerboard="1"
     inkscape:document-units="mm"
     showgrid="false"
     inkscape:zoom="0.72337262"
     inkscape:cx="777.60754"
     inkscape:cy="803.8734"
     inkscape:window-width="1920"
     inkscape:window-height="1001"
     inkscape:window-x="-9"
     inkscape:window-y="-9"
     inkscape:window-maximized="1"
     inkscape:current-layer="layer1" />
  <defs
     id="defs1193" />
  <g
     inkscape:label="Layer 1"
     inkscape:groupmode="layer"
     id="layer1"
     transform="translate(100.7469,63.97723)">
    <g
       id="g1127"
       transform="translate(119.62873,103.00815)">
      <path
         d="m -212.77257,-111.05952 13.69166,0.34925 c 0,0 26.9681,50.454281 38.36635,82.768728 12.20541,34.6075018 22.6822,81.809171 22.6822,81.809171 l -6.42937,8.131529 -5.26274,-11.768668 -63.0481,-161.29001"
         style="fill:#f9c41c;fill-opacity:1;fill-rule:nonzero;stroke:none;stroke-width:0.0352778"
         id="path36" />
      <path
         d="m -220.37563,-96.479213 c 0.65793,1.471083 32.90817,56.486781 44.65779,90.6603664 11.74961,34.1700576 17.9772,62.5757266 17.9772,62.5757266 l 13.27891,5.242278 c 0,0 -13.72129,-56.2398372 -21.67926,-77.985061 -7.95796,-21.745223 -46.63158,-95.073617 -46.63158,-95.073617 l -7.60306,14.580307"
         style="fill:#fbd544;fill-opacity:1;fill-rule:nonzero;stroke:none;stroke-width:0.0352778"
         id="path38" />
      <path
         d="m -105.63677,-166.98538 12.57935,5.41513 c 0,0 6.275211,56.86426 4.840464,91.101344 -1.536347,36.660669 -9.361664,84.373866 -9.361664,84.373866 l -8.99195,5.157612 -0.50906,-12.8799178 1.44286,-173.1680342"
         style="fill:#f9c41c;fill-opacity:1;fill-rule:nonzero;stroke:none;stroke-width:0.0352778"
         id="path40" />
      <path
         d="m -118.11629,-156.27858 c 0.0639,1.6122 9.54582,64.674756 7.747,100.763925 -1.79881,36.092696 -6.5786,64.7735316 -6.5786,64.7735316 l 10.37732,9.8036954 c 0,0 8.173858,-57.308754 8.871652,-80.454505 0.697795,-23.142224 -7.937852,-105.593447 -7.937852,-105.593447 l -12.47952,10.7068"
         style="fill:#fbd544;fill-opacity:1;fill-rule:nonzero;stroke:none;stroke-width:0.0352778"
         id="path42" />
      <path
         d="m 19.094523,-143.78319 9.788526,9.58145 c 0,0 -14.599357,55.312028 -28.25362152,86.741002 C -13.991801,-13.805736 -38.456942,27.899656 -38.456942,27.899656 l -10.24502,1.576916 4.158545,-12.202584 63.63794,-161.057178"
         style="fill:#f9c41c;fill-opacity:1;fill-rule:nonzero;stroke:none;stroke-width:0.0352778"
         id="path44" />
      <path
         d="m 3.5984054,-138.27985 c -0.5196417,1.524 -14.3573504,63.778694 -29.0180904,96.805751 -14.661093,33.0270578 -29.438602,58.070754 -29.438602,58.070754 l 6.156325,12.879917 c 0,0 28.241627,-50.531892 37.218058,-71.874949 8.9767841,-21.346584 30.578427,-101.384813 30.578427,-101.384813 l -15.4961176,5.50334"
         style="fill:#fbd544;fill-opacity:1;fill-rule:nonzero;stroke:none;stroke-width:0.0352778"
         id="path46" />
      <path
         d="m -59.50684,-154.65933 12.578998,5.41514 c 0,0 6.275211,56.864255 4.840464,91.097812 -1.535995,36.664197 -9.361664,84.377395 -9.361664,84.377395 l -8.991601,5.157611 -0.509411,-12.883445 1.443214,-173.164513"
         style="fill:#f9c41c;fill-opacity:1;fill-rule:nonzero;stroke:none;stroke-width:0.0352778"
         id="path48" />
      <path
         d="m -71.986355,-143.95252 c 0.06385,1.60866 9.545815,64.671224 7.747001,100.763921 -1.799167,36.089169 -6.578601,64.773532 -6.578601,64.773532 l 10.377312,9.803695 c 0,0 8.173862,-57.308754 8.871656,-80.454505 0.697795,-23.145752 -7.937853,-105.593453 -7.937853,-105.593453 l -12.479515,10.70681"
         style="fill:#fbd544;fill-opacity:1;fill-rule:nonzero;stroke:none;stroke-width:0.0352778"
         id="path50" />
      <path
         d="m -144.51077,-130.09894 -12.10451,6.40645 c 0,0 -1.69686,57.185279 2.47756,91.196586 4.47005,36.4172525 16.09513,83.350811 16.09513,83.350811 l 9.37648,4.420306 -0.52528,-12.879918 -15.31938,-172.494235"
         style="fill:#f9c41c;fill-opacity:1;fill-rule:nonzero;stroke:none;stroke-width:0.0352778"
         id="path52" />
      <path
         d="m -131.21316,-120.42577 c 0.0656,1.60867 -4.3307,65.228615 0.35525,101.060256 4.6863,35.831641 11.74961,64.036226 11.74961,64.036226 l -9.55781,10.604501 c 0,0 -12.74162,-56.4691426 -15.29221,-79.484366 -2.55093,-23.011696 -0.55245,-105.889787 -0.55245,-105.889787 l 13.29761,9.67317"
         style="fill:#fbd544;fill-opacity:1;fill-rule:nonzero;stroke:none;stroke-width:0.0352778"
         id="path54" />
      <path
         d="m 72.559057,-110.99955 -1.905,16.622892 c 0,0 -37.996639,34.163002 -50.892431,60.314421 C 5.0342111,-4.1925409 5.5164583,26.1781 7.6592307,43.781712 8.8135197,53.267907 5.6346389,59.035824 5.6346389,59.035824 L -5.4418785,59.01113 -12.987443,54.597879 5.842425,-37.96396 l 44.110278,-65.04517 22.606354,-7.99042"
         style="fill:#f9c41c;fill-opacity:1;fill-rule:nonzero;stroke:none;stroke-width:0.0352778"
         id="path56" />
      <path
         d="m 51.440014,-115.44808 c 0,0 -30.107469,30.709312 -50.48779483,76.940842 C -19.428107,7.727821 -12.987443,54.597879 -12.987443,54.597879 L 0.65835526,53.031546 c 0,0 -6.22158926,-57.4533925 12.01596474,-92.784089 21.796376,-42.223975 59.884737,-71.247007 59.884737,-71.247007 l -21.119043,-4.44853"
         style="fill:#fbd544;fill-opacity:1;fill-rule:nonzero;stroke:none;stroke-width:0.0352778"
         id="path58" />
      <path
         d="m -193.41953,-150.45774 15.2841,-16.04081 17.58809,8.4455 -7.8479,17.38842 -12.13837,7.81755 -12.88592,-17.61066"
         style="fill:#ffeb31;fill-opacity:1;fill-rule:nonzero;stroke:none;stroke-width:0.0352778"
         id="path60" />
      <path
         d="m -176.50207,-144.01249 15.95473,-14.04056 c 0,0 11.79054,79.195088 14.62934,119.411757 2.8388,40.2166691 8.1601,113.068813 8.1601,113.068813 l -11.41871,9.55675 -10.00689,-81.6539494 -22.40175,-133.2865106 5.08318,-13.0563"
         style="fill:#f9c41c;fill-opacity:1;fill-rule:nonzero;stroke:none;stroke-width:0.0352778"
         id="path62" />
      <path
         d="m -193.41953,-150.45774 c 0,0 22.49558,94.869001 23.7864,142.5575044 1.29116,47.6885026 3.8481,80.7966996 3.8481,80.7966996 l 16.60842,11.087806 c 0,0 -12.48657,-154.640148 -16.55233,-180.558733 -4.06577,-25.918587 -10.77313,-47.438027 -10.77313,-47.438027 l -16.91746,-6.44525"
         style="fill:#fbd544;fill-opacity:1;fill-rule:nonzero;stroke:none;stroke-width:0.0352778"
         id="path64" />
      <path
         d="m 46.813686,-64.729211 -3.836106,-21.826363 -19.320934,-2.712861 -3.099859,18.824223 5.774267,13.232696 20.482632,-7.517695"
         style="fill:#ffeb31;fill-opacity:1;fill-rule:nonzero;stroke:none;stroke-width:0.0352778"
         id="path66" />
      <path
         d="m 29.160332,-68.740295 -5.503686,-20.52814 c 0,0 -53.690665,59.400726 -78.334311,91.3094778 C -79.320958,33.946267 -124.1128,91.650132 -124.1128,91.650132 l 4.21216,14.283968 53.567549,-62.43461 92.492342,-98.552006 3.001081,-13.687779"
         style="fill:#f9c41c;fill-opacity:1;fill-rule:nonzero;stroke:none;stroke-width:0.0352778"
         id="path68" />
      <path
         d="m 46.813686,-64.729211 c 0,0 -71.284399,66.512726 -98.778842,105.498201 -27.494797,38.989002 -47.96614,65.13336 -47.96614,65.13336 l -19.969344,0.0318 c 0,0 96.067396,-121.824753 113.8110615,-141.149921 17.7429595,-19.32164 35.2499105,-33.524474 35.2499105,-33.524474 l 17.653354,4.011084"
         style="fill:#fbd544;fill-opacity:1;fill-rule:nonzero;stroke:none;stroke-width:0.0352778"
         id="path70" />
      <path
         d="m -142.45337,-99.403741 15.28375,-16.044339 17.58844,8.4455 -7.84789,17.388423 -12.13874,7.817556 -12.88556,-17.60714"
         style="fill:#ffeb31;fill-opacity:1;fill-rule:nonzero;stroke:none;stroke-width:0.0352778"
         id="path72" />
      <path
         d="m -125.53626,-92.962019 15.95508,-14.040561 c 0,0 11.790187,79.195093 14.62899,119.411762 2.838803,40.21667 8.160104,113.072338 8.160104,113.072338 l -11.418712,9.55323 -10.006892,-81.653954 -22.40175,-133.286508 5.08318,-13.056307"
         style="fill:#f9c41c;fill-opacity:1;fill-rule:nonzero;stroke:none;stroke-width:0.0352778"
         id="path74" />
      <path
         d="m -142.45337,-99.403741 c 0,0 22.49523,94.8654779 23.78605,142.553981 1.29116,47.688503 3.8481,80.7967 3.8481,80.7967 l 16.608422,11.08781 c 0,0 -12.486222,-154.640153 -16.552332,-180.558738 -4.06577,-25.915057 -10.77313,-47.438031 -10.77313,-47.438031 l -16.91711,-6.441722"
         style="fill:#fbd544;fill-opacity:1;fill-rule:nonzero;stroke:none;stroke-width:0.0352778"
         id="path76" />
      <path
         d="m -94.287203,-126.17958 17.974381,-12.95752 15.734596,11.53583 -10.912829,15.64922 -13.369573,5.45042 -9.426575,-19.67795"
         style="fill:#ffeb31;fill-opacity:1;fill-rule:nonzero;stroke:none;stroke-width:0.0352778"
         id="path78" />
      <path
         d="m -78.84365,-116.73571 18.265424,-10.86556 c 0,0 -2.979562,80.013532 -7.587545,120.0679233 C -72.773755,32.517517 -80.9455,105.1086 -80.9455,105.1086 l -12.981517,7.29192 5.184775,-82.101975 2.500136,-135.135065 7.398456,-11.89919"
         style="fill:#f9c41c;fill-opacity:1;fill-rule:nonzero;stroke:none;stroke-width:0.0352778"
         id="path80" />
      <path
         d="m -94.287203,-126.17958 c 0,0 4.659841,97.387843 -2.844095,144.497791 -7.503932,47.113475 -11.081452,80.126421 -11.081452,80.126421 l 14.285733,13.955888 c 0,0 16.174156,-154.30148 16.945681,-180.523454 0.771525,-26.221974 -1.862314,-48.612776 -1.862314,-48.612776 l -15.443553,-9.44387"
         style="fill:#fbd544;fill-opacity:1;fill-rule:nonzero;stroke:none;stroke-width:0.0352778"
         id="path82" />
      <path
         d="m -50.072503,-126.17958 17.974028,-12.95752 15.734596,11.53583 -10.912476,15.64922 -13.369926,5.45042 -9.426222,-19.67795"
         style="fill:#ffeb31;fill-opacity:1;fill-rule:nonzero;stroke:none;stroke-width:0.0352778"
         id="path84" />
      <path
         d="m -34.629303,-116.73571 18.265424,-10.86556 c 0,0 -2.979561,80.013532 -7.587545,120.0679233 C -28.559055,32.517517 -36.7308,105.1086 -36.7308,105.1086 l -12.98187,7.29192 5.184775,-82.101975 2.500489,-135.135065 7.398103,-11.89919"
         style="fill:#f9c41c;fill-opacity:1;fill-rule:nonzero;stroke:none;stroke-width:0.0352778"
         id="path86" />
      <path
         d="m -50.072503,-126.17958 c 0,0 4.659489,97.387843 -2.844448,144.497791 -7.503936,47.113475 -11.081103,80.126421 -11.081103,80.126421 l 14.285384,13.955888 c 0,0 16.174509,-154.30148 16.945681,-180.523454 0.771526,-26.221974 -1.862314,-48.612776 -1.862314,-48.612776 l -15.4432,-9.44387"
         style="fill:#fbd544;fill-opacity:1;fill-rule:nonzero;stroke:none;stroke-width:0.0352778"
         id="path88" />
      <path
         d="m -159.3807,-43.470821 13.35369,-15.16239 18.28412,4.004028 -5.86422,15.084779 -11.13931,8.117417 -14.63428,-12.043834"
         style="fill:#ffeb31;fill-opacity:1;fill-rule:nonzero;stroke:none;stroke-width:0.0352778"
         id="path90" />
      <path
         d="m -141.97606,-40.955515 14.23317,-13.673668 c 0,0 20.2304,61.3304206 27.39426,92.960478 7.163857,31.630058 20.318236,88.903535 20.318236,88.903535 l -10.240081,9.39094 -18.735675,-63.5635 -36.57389,-102.820618 3.60398,-11.197167"
         style="fill:#f9c41c;fill-opacity:1;fill-rule:nonzero;stroke:none;stroke-width:0.0352778"
         id="path92" />
      <path
         d="m -159.3807,-43.470821 c 0,0 32.50071,72.164227 38.94631,109.99259 6.4456,37.828361 12.56066,63.835141 12.56066,63.835141 l 17.603255,6.26886 c 0,0 -29.097815,-121.383782 -35.923365,-141.4215609 -6.82484,-20.0377791 -15.78222,-36.1597241 -15.78222,-36.1597241 l -17.40464,-2.515306"
         style="fill:#fbd544;fill-opacity:1;fill-rule:nonzero;stroke:none;stroke-width:0.0352778"
         id="path94" />
      <path
         d="m -113.75278,-67.710184 c 0.12559,-0.645583 18.112674,-10.484556 18.112674,-10.484556 l 12.960703,10.484556 -11.73092,16.880418 -12.145077,-4.303889 -7.19738,-12.576529"
         style="fill:#ffeb31;fill-opacity:1;fill-rule:nonzero;stroke:none;stroke-width:0.0352778"
         id="path96" />
      <path
         d="m -96.091662,-58.799017 13.412259,-8.911167 c 0,0 -9.132359,36.00803 -4.297539,78.983422 4.83482,42.975391 27.396724,102.065672 27.396724,102.065672 l -4.313061,9.3345 -25.364724,-45.32489 -18.132077,-95.620423 11.298418,-40.527114"
         style="fill:#f9c41c;fill-opacity:1;fill-rule:nonzero;stroke:none;stroke-width:0.0352778"
         id="path98" />
      <path
         d="m -78.154322,124.38438 c 4.139848,2.88925 9.779001,0.61031 14.261043,-1.71097 -9.890126,-15.73036 -32.8482,-67.623975 -35.594575,-128.0442287 -0.883006,-19.4310013 -0.252236,-35.0766963 3.396192,-53.4281983 -6.560958,-1.252361 -12.753978,-4.377972 -17.661118,-8.911167 -1.00189,9.976556 -1.03222,37.824836 -0.62336,45.935198 5.80249,115.129035 34.539068,144.984616 36.221818,146.159366"
         style="fill:#fbd544;fill-opacity:1;fill-rule:nonzero;stroke:none;stroke-width:0.0352778"
         id="path100" />
      <path
         d="m -186.78025,-68.930795 c -0.37677,-0.53975 -20.80789,-2.243667 -20.80789,-2.243667 l -7.59813,14.837834 17.56516,10.675057 9.35813,-8.858251 1.48273,-14.410973"
         style="fill:#ffeb31;fill-opacity:1;fill-rule:nonzero;stroke:none;stroke-width:0.0352778"
         id="path102" />
      <path
         d="m -199.31374,-53.627294 -15.87253,-2.709334 c 0,0 22.9429,29.217058 35.94135,70.463838 12.99916,41.246781 16.32374,104.40812 16.32374,104.40812 l 7.72583,6.78744 4.81683,-51.717223 -22.1802,-94.763172 -26.75502,-32.469669"
         style="fill:#f9c41c;fill-opacity:1;fill-rule:nonzero;stroke:none;stroke-width:0.0352778"
         id="path104" />
      <path
         d="m -141.46488,121.10355 c -2.61338,4.32153 -8.69139,4.52261 -13.73047,4.21922 2.66524,-18.3903 2.62008,-75.134613 -19.35903,-131.483811 -7.06826,-18.122196 -13.98623,-32.169808 -24.75936,-47.466253 5.48993,-3.802945 9.88483,-9.172223 12.53349,-15.303501 4.95935,8.713612 16.27399,34.159474 19.18829,41.740669 41.35861,107.597229 27.18964,146.540366 26.12708,148.293676"
         style="fill:#fbd544;fill-opacity:1;fill-rule:nonzero;stroke:none;stroke-width:0.0352778"
         id="path106" />
      <path
         d="m -69.512677,-69.728073 19.293418,-10.897306 14.366876,13.200945 -12.57159,14.347473 -13.889215,3.944056 -7.199489,-20.595168"
         style="fill:#ffeb31;fill-opacity:1;fill-rule:nonzero;stroke:none;stroke-width:0.0352778"
         id="path108" />
      <path
         d="m -55.205068,-58.640267 19.352685,-8.784167 c 0,0 -11.783837,79.195089 -20.779671,118.494535 -8.995834,39.302975 -25.12166,110.546449 -25.12166,110.546449 l -13.706476,5.81731 14.205304,-81.029534 17.385243,-134.034397 8.664575,-11.010196"
         style="fill:#f9c41c;fill-opacity:1;fill-rule:nonzero;stroke:none;stroke-width:0.0352778"
         id="path110" />
      <path
         d="m -69.512677,-69.728073 c 0,0 -6.106231,97.303173 -18.758959,143.30187 -12.652734,45.998693 -19.848694,78.415453 -19.848694,78.415453 l 12.66014,15.44461 c 0,0 33.088441,-151.574511 36.746747,-177.553068 3.657953,-25.978557 3.508375,-48.521059 3.508375,-48.521059 l -14.307609,-11.087806"
         style="fill:#fbd544;fill-opacity:1;fill-rule:nonzero;stroke:none;stroke-width:0.0352778"
         id="path112" />
      <path
         d="m -22.553718,-63.240489 13.351581,5.750278 c 0,0 6.6611504,60.3567539 5.1382086,96.696395 -1.630539,38.911391 -9.9366926,89.556176 -9.9366926,89.556176 l -9.54405,5.47511 -0.540809,-13.67367 1.531762,-183.804289"
         style="fill:#f9c41c;fill-opacity:1;fill-rule:nonzero;stroke:none;stroke-width:0.0352778"
         id="path114" />
      <path
         d="m -35.799819,-51.873988 c 0.06773,1.707444 10.132131,68.647032 8.222897,106.955173 -1.909586,38.308141 -6.982883,68.749335 -6.982883,68.749335 l 11.015134,10.40695 c 0,0 8.675511,-60.829478 9.415992,-85.396924 0.741186,-24.563918 -8.425039,-112.081035 -8.425039,-112.081035 l -13.246101,11.366501"
         style="fill:#fbd544;fill-opacity:1;fill-rule:nonzero;stroke:none;stroke-width:0.0352778"
         id="path116" />
      <path
         d="m -128.48795,-53.913044 -13.48811,12.957529 9.79417,20.524612 -6.09318,-20.517557 9.78712,-12.964584"
         style="fill:#f7ab14;fill-opacity:1;fill-rule:nonzero;stroke:none;stroke-width:0.0352778"
         id="path118" />
      <path
         d="m -96.091662,-58.799017 c 0,0 -3.521781,18.940641 -3.619147,31.104419 -0.09737,12.163779 0.222955,22.3237793 0.222955,22.3237793 0,0 1.235075,-35.0343633 3.396192,-42.6614193 2.161822,-7.623528 8.087784,-16.139584 8.087784,-16.139584 l -8.087784,5.372805"
         style="fill:#f7ab14;fill-opacity:1;fill-rule:nonzero;stroke:none;stroke-width:0.0352778"
         id="path120" />
      <path
         d="m -155.74251,-124.15463 5.36399,62.51928 3.30694,-67.10892 z"
         style="fill:#f7ab14;fill-opacity:1;fill-rule:nonzero;stroke:none;stroke-width:0.0352778"
         id="path122" />
      <path
         d="m -85.222225,26.562628 c 0.2286,1.143 3.540125,14.435667 3.540125,14.435667 l 7.376231,-54.800503 c 0,0 3.994856,-44.612281 4.011436,-44.831003 0.01658,-0.22225 -3.893255,47.864892 -7.464072,56.5679202 -3.570817,8.7030284 -7.46372,28.6279188 -7.46372,28.6279188"
         style="fill:#f7ab14;fill-opacity:1;fill-rule:nonzero;stroke:none;stroke-width:0.0352778"
         id="path124" />
      <path
         d="m -65.656463,48.851129 c 1.012472,-1.160639 29.80408,-116.275563 29.80408,-116.275563 L -55.204009,50.004713 -65.656463,48.851129"
         style="fill:#f7ab14;fill-opacity:1;fill-rule:nonzero;stroke:none;stroke-width:0.0352778"
         id="path126" />
      <path
         d="m -32.625172,-24.995848 -0.593019,69.991116 10.889192,-3.996973 -10.18152,-67.080698 -0.114653,1.086555"
         style="fill:#f7ab14;fill-opacity:1;fill-rule:nonzero;stroke:none;stroke-width:0.0352778"
         id="path128" />
      <path
         d="m -141.97606,-1.7689574 3.93347,52.6238644 8.98314,1.686278 c 0,0 -4.19771,-26.094974 -6.45831,-34.727447 -2.2606,-8.6289447 -6.4583,-19.5826954 -6.4583,-19.5826954"
         style="fill:#f7ab14;fill-opacity:1;fill-rule:nonzero;stroke:none;stroke-width:0.0352778"
         id="path130" />
      <path
         d="m -8.7093064,-52.791211 4.8715086,66.20581 3.75884746,-75.049949 z"
         style="fill:#f7ab14;fill-opacity:1;fill-rule:nonzero;stroke:none;stroke-width:0.0352778"
         id="path132" />
      <path
         d="m -18.508415,2.1609873 c 0,0 -3.856567,23.1386957 -18.425585,32.5684467 -14.569017,9.426223 -51.849164,7.856361 -51.849164,7.856361 0,0 -37.279796,1.569862 -51.849166,-7.856361 -14.56902,-9.429751 -18.42558,-32.5684467 -18.42558,-32.5684467 h -18.85421 l 20.99663,165.8302627 h 68.132326 68.132329 L 0.34579413,2.1609873 H -18.508415"
         style="fill:#ff5b40;fill-opacity:1;fill-rule:nonzero;stroke:none;stroke-width:0.0352778"
         id="path134" />
      <path
         d="m -156.91549,167.99125 -17.56834,-26.13731 -25.66882,-175.090677 22.24053,35.3977243 20.99663,165.8302627"
         style="fill:#ea412a;fill-opacity:1;fill-rule:nonzero;stroke:none;stroke-width:0.0352778"
         id="path136" />
      <path
         d="M -20.646954,167.99125 -3.0782672,141.85394 20.164851,-34.866571 0.34967469,2.1609873 -20.646954,167.99125"
         style="fill:#ea412a;fill-opacity:1;fill-rule:nonzero;stroke:none;stroke-width:0.0352778"
         id="path138" />
      <path
         d="m -159.3807,-43.470821 17.40464,2.515306 13.48811,-12.957529 c 0,0 -3.82799,2.832806 -12.81818,6.480528 -8.99019,3.644195 -18.07457,3.961695 -18.07457,3.961695"
         style="fill:#ffff3e;fill-opacity:1;fill-rule:nonzero;stroke:none;stroke-width:0.0352778"
         id="path140" />
      <path
         d="m -113.75278,-67.710184 c 0,0 2.41406,4.279195 7.24218,6.776862 4.82812,2.494139 9.976555,3.721806 9.976555,3.721806 l 13.854642,-10.498668 c 0,0 1.432984,1.781528 -12.780787,1.947334 -14.21377,0.165805 -18.29259,-1.947334 -18.29259,-1.947334"
         style="fill:#ffff3e;fill-opacity:1;fill-rule:nonzero;stroke:none;stroke-width:0.0352778"
         id="path142" />
      <path
         d="m -57.22719,-70.856962 c 1.086908,-4.039306 3.887964,-7.584722 7.564614,-9.577917 -0.922161,-0.673806 -2.202039,-0.08467 -3.177469,0.508 -5.631392,3.418417 -11.262432,6.840362 -16.893471,10.258778 4.033662,4.882445 9.947981,7.831668 14.583834,12.075585 -0.603955,-2.070806 -1.795991,-3.866445 -2.250722,-6.014862 -0.550333,-2.592917 0.173214,-4.734278 0.173214,-7.249584"
         style="fill:#ffff3e;fill-opacity:1;fill-rule:nonzero;stroke:none;stroke-width:0.0352778"
         id="path144" />
    </g>
  </g>
</svg>
