<svg width="1108" height="1267" viewBox="0 0 1108 1267" fill="none" xmlns="http://www.w3.org/2000/svg">
<g clip-path="url(#clip0_141_1333)">
<path d="M28.7363 211.373L80.4843 212.693C80.4843 212.693 182.411 403.387 225.491 525.52C271.622 656.32 311.219 834.72 311.219 834.72L286.919 865.453L267.028 820.973L28.7363 211.373" fill="#F9C41C"/>
<path d="M0 266.48C2.48666 272.04 124.377 479.973 168.785 609.133C213.193 738.28 236.731 845.64 236.731 845.64L286.919 865.453C286.919 865.453 235.059 652.893 204.981 570.707C174.904 488.52 28.736 211.373 28.736 211.373L0 266.48" fill="#FBD544"/>
<path d="M433.658 0L481.202 20.4666C481.202 20.4666 504.92 235.387 499.497 364.787C493.69 503.347 464.114 683.68 464.114 683.68L430.129 703.173L428.205 654.493L433.658 0" fill="#F9C41C"/>
<path d="M386.492 40.4667C386.734 46.56 422.571 284.907 415.772 421.307C408.974 557.72 390.908 666.12 390.908 666.12L430.13 703.173C430.13 703.173 461.023 486.573 463.66 399.093C466.298 311.627 433.659 0 433.659 0L386.492 40.4667" fill="#FBD544"/>
<path d="M905.084 87.6933L942.08 123.907C942.08 123.907 886.902 332.96 835.295 451.747C780.034 578.947 687.567 736.573 687.567 736.573L648.846 742.533L664.563 696.413L905.084 87.6933" fill="#F9C41C"/>
<path d="M846.516 108.493C844.552 114.253 792.252 349.547 736.841 474.373C681.429 599.2 625.577 693.853 625.577 693.853L648.845 742.533C648.845 742.533 755.585 551.547 789.512 470.88C823.44 390.2 905.084 87.6933 905.084 87.6933L846.516 108.493" fill="#FBD544"/>
<path d="M608.008 46.5866L655.551 67.0533C655.551 67.0533 679.268 281.973 673.846 411.36C668.04 549.933 638.463 730.267 638.463 730.267L604.479 749.76L602.554 701.067L608.008 46.5866" fill="#F9C41C"/>
<path d="M560.842 87.0533C561.083 93.1333 596.92 331.48 590.122 467.893C583.322 604.293 565.258 712.707 565.258 712.707L604.479 749.76C604.479 749.76 635.372 533.16 638.01 445.68C640.647 358.2 608.008 46.5866 608.008 46.5866L560.842 87.0533Z" fill="#FBD544"/>
<path d="M286.733 139.413L240.984 163.627C240.984 163.627 234.571 379.76 250.348 508.307C267.243 645.947 311.18 823.333 311.18 823.333L346.619 840.04L344.633 791.36L286.733 139.413" fill="#F9C41C"/>
<path d="M336.992 175.973C337.24 182.053 320.624 422.507 338.335 557.933C356.047 693.36 382.743 799.96 382.743 799.96L346.619 840.04C346.619 840.04 298.461 626.613 288.821 539.627C279.18 452.653 286.733 139.413 286.733 139.413L336.992 175.973Z" fill="#FBD544"/>
<path d="M1107.15 211.6L1099.95 274.427C1099.95 274.427 956.345 403.547 907.605 502.387C851.942 615.28 853.765 730.067 861.864 796.6C866.226 832.453 854.212 854.253 854.212 854.253L812.348 854.16L783.829 837.48L854.997 487.64L1021.71 241.8L1107.15 211.6Z" fill="#F9C41C"/>
<path d="M1027.33 194.787C1027.33 194.787 913.543 310.853 836.515 485.587C759.487 660.333 783.83 837.48 783.83 837.48L835.404 831.56C835.404 831.56 811.89 614.413 880.819 480.88C963.199 321.293 1107.15 211.6 1107.15 211.6L1027.33 194.787" fill="#FBD544"/>
<path d="M101.881 62.4667L159.647 1.83997L226.122 33.76L196.461 99.48L150.584 129.027L101.881 62.4667" fill="#FFEB31"/>
<path d="M165.821 86.8266L226.123 33.7599C226.123 33.7599 270.685 333.08 281.415 485.08C292.144 637.08 312.256 912.427 312.256 912.427L269.099 948.547L231.277 639.933L146.609 136.173L165.821 86.8266" fill="#F9C41C"/>
<path d="M101.881 62.4667C101.881 62.4667 186.904 421.027 191.782 601.267C196.662 781.507 206.326 906.64 206.326 906.64L269.098 948.547C269.098 948.547 221.905 364.08 206.538 266.12C191.171 168.16 165.821 86.8266 165.821 86.8266L101.881 62.4667" fill="#FBD544"/>
<path d="M1009.85 386.48L995.35 303.987L922.326 293.733L910.61 364.88L932.434 414.893L1009.85 386.48" fill="#FFEB31"/>
<path d="M943.128 371.32L922.327 293.733C922.327 293.733 719.401 518.24 626.26 638.84C533.12 759.427 363.828 977.52 363.828 977.52L379.748 1031.51L582.208 795.533L931.785 423.053L943.128 371.32" fill="#F9C41C"/>
<path d="M1009.85 386.48C1009.85 386.48 740.428 637.867 636.512 785.213C532.595 932.573 455.223 1031.39 455.223 1031.39L379.748 1031.51C379.748 1031.51 742.837 571.067 809.9 498.027C876.96 425 943.128 371.32 943.128 371.32L1009.85 386.48" fill="#FBD544"/>
<path d="M294.51 255.427L352.275 194.787L418.751 226.707L389.09 292.427L343.211 321.973L294.51 255.427" fill="#FFEB31"/>
<path d="M358.448 279.773L418.751 226.707C418.751 226.707 463.312 526.027 474.042 678.027C484.771 830.027 504.883 1105.39 504.883 1105.39L461.726 1141.49L423.904 832.88L339.236 329.12L358.448 279.773Z" fill="#F9C41C"/>
<path d="M294.51 255.427C294.51 255.427 379.531 613.973 384.41 794.213C389.29 974.453 398.954 1099.59 398.954 1099.59L461.726 1141.49C461.726 1141.49 414.534 557.027 399.166 459.067C383.799 361.12 358.448 279.773 358.448 279.773L294.51 255.427" fill="#FBD544"/>
<path d="M476.555 154.227L544.489 105.253L603.959 148.853L562.713 208L512.183 228.6L476.555 154.227" fill="#FFEB31"/>
<path d="M534.924 189.92L603.959 148.853C603.959 148.853 592.697 451.267 575.281 602.653C557.865 754.027 526.98 1028.39 526.98 1028.39L477.916 1055.95L497.512 745.64L506.961 234.893L534.924 189.92Z" fill="#F9C41C"/>
<path d="M476.555 154.227C476.555 154.227 494.167 522.307 465.806 700.36C437.444 878.427 423.923 1003.2 423.923 1003.2L477.916 1055.95C477.916 1055.95 539.047 472.76 541.963 373.653C544.879 274.547 534.924 189.92 534.924 189.92L476.555 154.227" fill="#FBD544"/>
<path d="M643.665 154.227L711.598 105.253L771.068 148.853L729.824 208L679.292 228.6L643.665 154.227Z" fill="#FFEB31"/>
<path d="M702.033 189.92L771.068 148.853C771.068 148.853 759.807 451.267 742.391 602.653C724.976 754.027 694.091 1028.39 694.091 1028.39L645.025 1055.95L664.621 745.64L674.072 234.893L702.033 189.92Z" fill="#F9C41C"/>
<path d="M643.665 154.227C643.665 154.227 661.276 522.307 632.915 700.36C604.553 878.427 591.033 1003.2 591.033 1003.2L645.025 1055.95C645.025 1055.95 706.157 472.76 709.072 373.653C711.988 274.547 702.033 189.92 702.033 189.92L643.665 154.227" fill="#FBD544"/>
<path d="M230.532 466.827L281.003 409.52L350.108 424.653L327.944 481.667L285.843 512.347L230.532 466.827" fill="#FFEB31"/>
<path d="M296.314 476.333L350.108 424.653C350.108 424.653 426.57 656.453 453.646 776C480.722 895.547 530.439 1112.01 530.439 1112.01L491.736 1147.51L420.924 907.267L282.692 518.653L296.314 476.333" fill="#F9C41C"/>
<path d="M230.532 466.827C230.532 466.827 353.37 739.573 377.731 882.547C402.092 1025.52 425.204 1123.81 425.204 1123.81L491.736 1147.51C491.736 1147.51 381.76 688.733 355.963 613C330.168 537.267 296.314 476.333 296.314 476.333L230.532 466.827" fill="#FBD544"/>
<path d="M402.984 375.213C403.459 372.773 471.442 335.587 471.442 335.587L520.427 375.213L476.09 439.013L430.187 422.747L402.984 375.213Z" fill="#FFEB31"/>
<path d="M469.735 408.893L520.427 375.213C520.427 375.213 485.911 511.307 504.184 673.733C522.458 836.16 607.731 1059.49 607.731 1059.49L591.43 1094.77L495.563 923.467L427.032 562.067L469.735 408.893" fill="#F9C41C"/>
<path d="M537.53 1101.24C553.176 1112.16 574.49 1103.55 591.43 1094.77C554.05 1035.32 467.279 839.187 456.899 610.827C453.562 537.387 455.946 478.253 469.735 408.893C444.938 404.16 421.531 392.347 402.984 375.213C399.198 412.92 399.083 518.173 400.628 548.827C422.559 983.96 531.17 1096.8 537.53 1101.24" fill="#FBD544"/>
<path d="M126.975 370.6C125.551 368.56 48.3306 362.12 48.3306 362.12L19.6133 418.2L86.0013 458.547L121.371 425.067L126.975 370.6" fill="#FFEB31"/>
<path d="M79.6039 428.44L19.6133 418.2C19.6133 418.2 106.327 528.627 155.455 684.52C204.585 840.413 217.151 1079.13 217.151 1079.13L246.351 1104.79L264.556 909.32L180.725 551.16L79.6039 428.44Z" fill="#F9C41C"/>
<path d="M298.245 1088.84C288.368 1105.17 265.396 1105.93 246.35 1104.79C256.424 1035.28 256.253 820.813 173.182 607.84C146.467 539.347 120.321 486.253 79.6035 428.44C100.353 414.067 116.964 393.773 126.974 370.6C145.718 403.533 188.482 499.707 199.497 528.36C355.813 935.027 302.261 1082.21 298.245 1088.84" fill="#FBD544"/>
<path d="M570.19 367.587L643.11 326.4L697.41 376.293L649.896 430.52L597.401 445.427L570.19 367.587Z" fill="#FFEB31"/>
<path d="M624.266 409.493L697.41 376.293C697.41 376.293 652.873 675.613 618.873 824.147C584.873 972.693 523.925 1241.96 523.925 1241.96L472.121 1263.95L525.81 957.693L591.518 451.107L624.266 409.493" fill="#F9C41C"/>
<path d="M570.19 367.587C570.19 367.587 547.112 735.347 499.29 909.2C451.469 1083.05 424.271 1205.57 424.271 1205.57L472.121 1263.95C472.121 1263.95 597.18 691.067 611.006 592.88C624.832 494.693 624.266 409.493 624.266 409.493L570.19 367.587" fill="#FBD544"/>
<path d="M747.673 392.107L798.136 413.84C798.136 413.84 823.312 641.96 817.556 779.307C811.393 926.373 780 1117.79 780 1117.79L743.928 1138.48L741.884 1086.8L747.673 392.107" fill="#F9C41C"/>
<path d="M697.609 435.067C697.865 441.52 735.904 694.52 728.688 839.307C721.471 984.093 702.296 1099.15 702.296 1099.15L743.928 1138.48C743.928 1138.48 776.717 908.573 779.516 815.72C782.317 722.88 747.673 392.107 747.673 392.107L697.609 435.067Z" fill="#FBD544"/>
<path d="M347.292 427.36L296.313 476.333L333.331 553.907L310.301 476.36L347.292 427.36Z" fill="#F7AB14"/>
<path d="M469.735 408.893C469.735 408.893 456.424 480.48 456.056 526.453C455.688 572.427 456.899 610.827 456.899 610.827C456.899 610.827 461.567 478.413 469.735 449.587C477.905 420.773 500.303 388.587 500.303 388.587L469.735 408.893" fill="#F7AB14"/>
<path d="M244.282 161.88L264.556 398.173L277.054 144.533L244.282 161.88Z" fill="#F7AB14"/>
<path d="M510.816 731.52C511.68 735.84 524.196 786.08 524.196 786.08L552.075 578.96C552.075 578.96 567.174 410.347 567.236 409.52C567.299 408.68 552.522 590.427 539.026 623.32C525.53 656.213 510.816 731.52 510.816 731.52" fill="#F7AB14"/>
<path d="M584.766 815.76C588.592 811.373 697.411 376.293 697.411 376.293L624.271 820.12L584.766 815.76Z" fill="#F7AB14"/>
<path d="M709.609 536.653L707.367 801.187L748.523 786.08L710.042 532.547L709.609 536.653" fill="#F7AB14"/>
<path d="M296.313 624.44L311.18 823.333L345.132 829.707C345.132 829.707 329.267 731.08 320.723 698.453C312.179 665.84 296.313 624.44 296.313 624.44" fill="#F7AB14"/>
<path d="M799.999 431.6L818.411 681.827L832.618 398.173L799.999 431.6Z" fill="#F7AB14"/>
<path d="M762.963 639.293C762.963 639.293 748.387 726.747 693.323 762.387C638.259 798.013 497.358 792.08 497.358 792.08C497.358 792.08 356.458 798.013 301.392 762.387C246.328 726.747 231.752 639.293 231.752 639.293H160.492L239.85 1266.05H497.358H754.866L834.223 639.293H762.963Z" fill="#FF5B40"/>
<path d="M239.85 1266.05L173.45 1167.27L76.4336 505.507L160.492 639.293L239.85 1266.05Z" fill="#EA412A"/>
<path d="M754.88 1266.05L821.281 1167.27L909.129 499.347L834.237 639.293L754.88 1266.05Z" fill="#EA412A"/>
<path d="M230.532 466.827L296.314 476.333L347.292 427.36C347.292 427.36 332.824 438.067 298.846 451.853C264.867 465.627 230.532 466.827 230.532 466.827Z" fill="#FFFF3E"/>
<path d="M402.984 375.213C402.984 375.213 412.108 391.387 430.356 400.827C448.604 410.253 468.063 414.893 468.063 414.893L520.427 375.213C520.427 375.213 525.843 381.947 472.122 382.573C418.4 383.2 402.984 375.213 402.984 375.213Z" fill="#FFFF3E"/>
<path d="M616.623 363.32C620.731 348.053 631.318 334.653 645.214 327.12C641.729 324.573 636.891 326.8 633.205 329.04C611.921 341.96 590.638 354.893 569.355 367.813C584.601 386.267 606.954 397.413 624.475 413.453C622.193 405.627 617.687 398.84 615.969 390.72C613.889 380.92 616.623 372.827 616.623 363.32" fill="#FFFF3E"/>
</g>
<defs>
<clipPath id="clip0_141_1333">
<rect width="1107.15" height="1266.05" fill="white"/>
</clipPath>
</defs>
</svg>
