<?xml version="1.0" encoding="UTF-8" standalone="no"?>
<!-- Created with Inkscape (http://www.inkscape.org/) -->

<svg
   width="197.87193mm"
   height="190.01987mm"
   viewBox="0 0 197.87193 190.01987"
   version="1.1"
   id="svg1248"
   inkscape:version="1.1.1 (3bf5ae0d25, 2021-09-20)"
   sodipodi:docname="frie-bbq.svg"
   xmlns:inkscape="http://www.inkscape.org/namespaces/inkscape"
   xmlns:sodipodi="http://sodipodi.sourceforge.net/DTD/sodipodi-0.dtd"
   xmlns="http://www.w3.org/2000/svg"
   xmlns:svg="http://www.w3.org/2000/svg">
  <sodipodi:namedview
     id="namedview1250"
     pagecolor="#505050"
     bordercolor="#ffffff"
     borderopacity="1"
     inkscape:pageshadow="0"
     inkscape:pageopacity="0"
     inkscape:pagecheckerboard="1"
     inkscape:document-units="mm"
     showgrid="false"
     inkscape:zoom="0.72337262"
     inkscape:cx="100.22497"
     inkscape:cy="564.71588"
     inkscape:window-width="1920"
     inkscape:window-height="1001"
     inkscape:window-x="-9"
     inkscape:window-y="-9"
     inkscape:window-maximized="1"
     inkscape:current-layer="layer1" />
  <defs
     id="defs1245" />
  <g
     inkscape:label="Layer 1"
     inkscape:groupmode="layer"
     id="layer1"
     transform="translate(-162.95074,35.756237)">
    <g
       id="g1321">
      <path
         d="m 350.1582,-28.460797 10.66447,20.87034 c 0,0 -44.72517,55.562505 -78.14381,82.243085 -35.78931,28.564422 -89.6232,58.173062 -89.6232,58.173062 L 177.08894,125.435 188.36019,114.03322 350.1582,-28.460797"
         style="fill:#f9c41c;fill-opacity:1;fill-rule:nonzero;stroke:none;stroke-width:0.0352778"
         id="path402" />
      <path
         d="m 324.72292,-35.756237 c -1.41111,1.42522 -47.86842,66.325755 -83.45664,94.075255 -35.58823,27.75303 -68.04379,45.448372 -68.04379,45.448372 l 3.86645,21.66761 c 0,0 63.13664,-37.154562 85.38987,-55.541342 22.25322,-18.3903 87.67939,-98.354455 87.67939,-98.354455 l -25.43528,-7.29544"
         style="fill:#fbd544;fill-opacity:1;fill-rule:nonzero;stroke:none;stroke-width:0.0352778"
         id="path404" />
      <path
         d="m 208.60611,91.021518 c -3.24203,0.49389 -6.48053,0.98425 -9.72256,1.47814 -1.26647,0.19403 -2.56469,0.38806 -3.82764,0.14817 -1.36525,-0.254 -2.58586,-0.99836 -3.88055,-1.50989 -4.79425,-1.89442 -10.414,-0.45155 -14.60148,2.55411 -4.18747,3.00214 -7.18255,7.366002 -9.8425,11.779252 -2.02141,3.35845 -3.95816,7.03792 -3.76766,10.95375 0.16933,3.4925 2.0073,6.64634 3.67947,9.7155 1.99672,3.66537 3.82764,7.42245 5.48217,11.25362 1.36877,3.17147 2.62819,6.4135 4.48027,9.33097 1.85561,2.91394 4.38856,5.52097 7.60236,6.78744 5.7785,2.27895 13.1057,-0.83255 15.47989,-6.57577 1.31587,-3.18206 1.24884,-6.88623 3.01978,-9.8425 1.81681,-3.03389 5.19995,-4.68842 8.31145,-6.36764 9.69433,-5.22817 18.44675,-12.19553 25.71044,-20.47523 1.48873,-1.70039 2.96686,-3.54541 3.43606,-5.75733 0.49389,-2.30364 -0.16933,-4.713112 0.16228,-7.041452 0.71261,-5.00239 5.62327,-8.26205 7.7858,-12.83052 0.64559,-1.36525 1.00895,-3.07623 0.15523,-4.32506 -1.67217,-2.44828 -7.38717,-2.2472 -9.75431,-1.07597 -2.70581,1.34055 -4.76603,4.04283 -7.47536,5.55272 -6.84036,3.81706 -14.79198,5.08353 -22.43314,6.24769"
         style="fill:#ff5e2c;fill-opacity:1;fill-rule:nonzero;stroke:none;stroke-width:0.0352778"
         id="path406" />
      <path
         d="m 248.07489,84.608018 c 0.64911,-1.36877 1.01247,-3.07975 0.15875,-4.32505 -0.80786,-1.18533 -2.56117,-1.74978 -4.42384,-1.88383 0.84667,1.92616 0.62442,4.28977 -0.28575,6.22652 -1.07597,2.286 -2.96686,4.07459 -4.92477,5.66914 -7.72937,6.29356 -17.25437,10.361092 -27.14626,11.595812 -4.16277,0.52211 -8.8265,0.74789 -11.71927,3.7853 -2.76578,2.90689 -2.90337,7.38717 -2.51884,11.38062 0.381,3.98991 1.08656,8.19855 -0.50094,11.88155 -1.60161,3.71123 -5.588,6.25475 -9.62731,6.14186 -4.0393,-0.10936 -7.88106,-2.87161 -9.27453,-6.66397 -0.96308,-2.62819 -0.97719,-5.85964 -3.14325,-7.63764 -2.91394,-2.39536 -7.76816,-0.46919 -10.78089,-2.74461 -0.34572,-0.26458 -0.64205,-0.56797 -0.89958,-0.89958 0.36689,3.20675 2.06375,6.1348 3.6195,8.9923 1.99672,3.66184 3.82764,7.41892 5.47864,11.25009 1.36878,3.17147 2.62819,6.4135 4.4838,9.33097 1.85209,2.91395 4.38503,5.5245 7.59884,6.79097 5.78203,2.27542 13.10922,-0.83608 15.48342,-6.5793 1.31586,-3.18206 1.24883,-6.88623 3.01625,-9.83898 1.8168,-3.03741 5.19994,-4.69194 8.31497,-6.37116 9.69433,-5.22464 18.44322,-12.19553 25.70692,-20.47523 1.49225,-1.70039 2.96686,-3.54541 3.43958,-5.75733 0.49036,-2.30011 -0.16933,-4.709582 0.15875,-7.041442 0.71261,-5.00239 5.62328,-8.26206 7.78581,-12.82701"
         style="fill:#f43b22;fill-opacity:1;fill-rule:nonzero;stroke:none;stroke-width:0.0352778"
         id="path408" />
      <path
         d="m 170.36147,109.55294 c -0.64559,0 -1.31234,-0.37394 -1.47109,-0.9913 -0.14111,-0.56092 0.1517,-1.12889 0.44097,-1.62984 1.93675,-3.34786 4.16631,-6.52639 6.65692,-9.482662 2.07433,-2.46592 5.09059,-5.05531 8.41375,-5.05531 0.7867,0 1.59103,0.14464 2.40242,0.47272 1.60161,0.64206 3.73592,1.76036 4.02167,3.63009 0.28927,1.91205 -1.37584,3.594802 -3.25262,3.594802 -0.06,0 -0.11994,0 -0.17991,-0.004 -1.39347,-0.0811 -2.60703,-0.987772 -3.97934,-1.245302 -0.27516,-0.0529 -0.5468,-0.0776 -0.81844,-0.0776 -2.25072,0 -4.32858,1.686282 -5.70089,3.559532 -1.53811,2.09902 -2.62467,4.57552 -4.57553,6.29355 -0.51505,0.45861 -1.12183,0.86431 -1.80622,0.92781 -0.0529,0.007 -0.10231,0.007 -0.15169,0.007"
         style="fill:#ff7e56;fill-opacity:1;fill-rule:nonzero;stroke:none;stroke-width:0.0352778"
         id="path410" />
    </g>
  </g>
</svg>
