<svg width="748" height="719" viewBox="0 0 748 719" fill="none" xmlns="http://www.w3.org/2000/svg">
<g clip-path="url(#clip0_141_1391)">
<path d="M707.556 27.5733L747.862 106.453C747.862 106.453 578.822 316.453 452.516 417.293C317.249 525.253 113.782 637.16 113.782 637.16L53.4355 609.227L96.0355 566.133L707.556 27.5733Z" fill="#F9C41C"/>
<path d="M611.422 0C606.089 5.38666 430.502 250.68 295.996 355.56C161.489 460.453 38.8223 527.333 38.8223 527.333L53.4356 609.227C53.4356 609.227 292.062 468.8 376.169 399.307C460.276 329.8 707.556 27.5733 707.556 27.5733L611.422 0Z" fill="#FBD544"/>
<path d="M172.556 479.16C160.302 481.027 148.062 482.88 135.809 484.747C131.022 485.48 126.116 486.213 121.342 485.307C116.182 484.347 111.569 481.533 106.676 479.6C88.5557 472.44 67.3158 477.893 51.4891 489.253C35.6624 500.6 24.3424 517.093 14.2891 533.773C6.64911 546.467 -0.670926 560.373 0.0490744 575.173C0.689062 588.373 7.63573 600.293 13.9557 611.893C21.5024 625.747 28.4224 639.947 34.6758 654.427C39.8491 666.413 44.6091 678.667 51.6091 689.693C58.6224 700.707 68.1958 710.56 80.3424 715.347C102.182 723.96 129.876 712.2 138.849 690.493C143.822 678.467 143.569 664.467 150.262 653.293C157.129 641.827 169.916 635.573 181.676 629.227C218.316 609.467 251.396 583.133 278.849 551.84C284.476 545.413 290.062 538.44 291.836 530.08C293.702 521.373 291.196 512.267 292.449 503.467C295.142 484.56 313.702 472.24 321.876 454.973C324.316 449.813 325.689 443.347 322.462 438.627C316.142 429.373 294.542 430.133 285.596 434.56C275.369 439.627 267.582 449.84 257.342 455.547C231.489 469.973 201.436 474.76 172.556 479.16" fill="#FF5E2C"/>
<path d="M321.729 454.92C324.183 449.747 325.556 443.28 322.329 438.573C319.276 434.093 312.649 431.96 305.609 431.453C308.809 438.733 307.969 447.667 304.529 454.987C300.463 463.627 293.316 470.387 285.916 476.413C256.703 500.2 220.703 515.573 183.316 520.24C167.583 522.213 149.956 523.067 139.023 534.547C128.569 545.533 128.049 562.467 129.503 577.56C130.943 592.64 133.609 608.547 127.609 622.467C121.556 636.493 106.489 646.107 91.2226 645.68C75.9559 645.267 61.4359 634.827 56.1693 620.493C52.5293 610.56 52.476 598.347 44.2893 591.627C33.276 582.573 14.9293 589.853 3.54257 581.253C2.23591 580.253 1.11592 579.107 0.142578 577.853C1.52925 589.973 7.9426 601.04 13.8226 611.84C21.3693 625.68 28.2893 639.88 34.5293 654.36C39.7026 666.347 44.4626 678.6 51.4759 689.627C58.4759 700.64 68.0493 710.507 80.1959 715.293C102.049 723.893 129.743 712.133 138.716 690.427C143.689 678.4 143.436 664.4 150.116 653.24C156.983 641.76 169.769 635.507 181.543 629.16C218.183 609.413 251.249 583.067 278.703 551.773C284.343 545.347 289.916 538.373 291.703 530.013C293.556 521.32 291.063 512.213 292.303 503.4C294.996 484.493 313.556 472.173 321.729 454.92" fill="#F43B22"/>
<path d="M28.0088 549.2C25.5688 549.2 23.0488 547.787 22.4488 545.453C21.9155 543.333 23.0221 541.187 24.1154 539.293C31.4354 526.64 39.8621 514.627 49.2754 503.453C57.1154 494.133 68.5155 484.347 81.0755 484.347C84.0488 484.347 87.0888 484.893 90.1555 486.133C96.2088 488.56 104.275 492.787 105.355 499.853C106.449 507.08 100.155 513.44 93.0621 513.44C92.8353 513.44 92.6088 513.44 92.3822 513.425C87.1155 513.118 82.5288 509.692 77.3421 508.718C76.3022 508.518 75.2754 508.425 74.2488 508.425C65.7421 508.425 57.8888 514.798 52.7021 521.878C46.8888 529.812 42.7821 539.172 35.4088 545.665C33.4621 547.398 31.1688 548.932 28.5821 549.172C28.3822 549.198 28.1954 549.198 28.0088 549.198" fill="#FF7E56"/>
</g>
<defs>
<clipPath id="clip0_141_1391">
<rect width="747.862" height="718.185" fill="white"/>
</clipPath>
</defs>
</svg>
