<svg width="48" height="42" viewBox="0 0 48 42" fill="none" xmlns="http://www.w3.org/2000/svg">
<path fill-rule="evenodd" clip-rule="evenodd" d="M1.5 34.5C1.5 33.75 2.15625 33 3 33H45C45.75 33 46.5 33.75 46.5 34.5V36C46.5 39.375 43.7812 42 40.5 42H7.5C4.125 42 1.5 39.375 1.5 36V34.5ZM42.4688 18H5.4375C2.25 18 0.375 13.9688 2.15625 10.9688C6 4.875 14.25 0.09375 24 0C33.6562 0.09375 42 4.875 45.75 10.9688C47.5312 13.9688 45.6562 18 42.4688 18ZM37.5 9C37.5 8.25 36.75 7.5 36 7.5C35.1562 7.5 34.5 8.25 34.5 9C34.5 9.84375 35.1562 10.5 36 10.5C36.75 10.5 37.5 9.84375 37.5 9ZM25.5 6C25.5 5.25 24.75 4.5 24 4.5C23.1562 4.5 22.5 5.25 22.5 6C22.5 6.84375 23.1562 7.5 24 7.5C24.75 7.5 25.5 6.84375 25.5 6ZM13.5 9C13.5 8.25 12.75 7.5 12 7.5C11.1562 7.5 10.5 8.25 10.5 9C10.5 9.84375 11.1562 10.5 12 10.5C12.75 10.5 13.5 9.84375 13.5 9Z" fill="#F89738"/>
<path d="M43.5 21H4.5C1.96875 21 0 23.0625 0 25.5C0 28.0312 1.96875 30 4.5 30H43.5C45.9375 30 48 28.0312 48 25.5C48 23.0625 45.9375 21 43.5 21Z" fill="#F89738"/>
<path d="M43.5 21H4.5C1.96875 21 0 23.0625 0 25.5C0 28.0312 1.96875 30 4.5 30H43.5C45.9375 30 48 28.0312 48 25.5C48 23.0625 45.9375 21 43.5 21Z" fill="#C25739"/>
</svg>
