<svg width="722" height="513" viewBox="0 0 722 513" fill="none" xmlns="http://www.w3.org/2000/svg">
<g clip-path="url(#clip0_141_1399)">
<path d="M704.64 180.867H0.332848V297.6C0.332848 297.6 -5.62713 313.133 32.8929 329.027C38.8662 342.413 46.1061 355.787 54.8795 368.72C112.226 453.227 149.159 471.227 192.519 490.107C243.306 512.24 355.186 512.24 355.186 512.24C355.186 512.24 467.053 512.24 517.853 490.107C561.213 471.227 598.133 453.227 655.48 368.72C664.4 355.587 671.72 342 677.746 328.413C719.453 312.733 721.84 297.6 721.84 297.6V180.867H704.64" fill="#FFE5BB"/>
<path d="M721.84 180.867C721.84 225.653 560.253 261.96 360.92 261.96C161.587 261.96 0 225.653 0 180.867C0 136.08 161.587 99.7734 360.92 99.7734C560.253 99.7734 721.84 136.08 721.84 180.867" fill="#FFF7DC"/>
<path d="M677.746 327.427C719.453 311.733 721.84 296.613 721.84 296.613V179.88H704.64H593C584.066 186.053 575.36 192.493 566.906 199.213C555.493 208.293 547.706 215.933 547.12 231.04C546.28 252.8 552.4 272.093 543.293 293.333C531.08 321.813 500.68 337.973 470.986 346.84C410.853 364.8 346.733 361.733 284.066 358.507C299.973 361.747 315.533 366.653 330.413 373.133C335.506 375.347 340.666 377.84 344.386 381.96C357.373 396.373 345.4 419.853 329.8 431.387C301.786 452.107 264.906 456.213 230.066 455.453C189.306 454.56 148.68 447.907 109.72 435.867C139.413 465.2 164.64 476.973 192.52 489.12C243.306 511.24 355.186 511.24 355.186 511.24C355.186 511.24 467.053 511.24 517.853 489.12C561.213 470.227 598.133 452.24 655.48 367.72C664.4 354.587 671.72 341 677.746 327.427" fill="#F9D4AF"/>
<path d="M700.786 178.533C700.786 213.507 548.626 241.853 360.919 241.853C173.226 241.853 21.0527 213.507 21.0527 178.533C21.0527 143.573 173.226 115.227 360.919 115.227C548.626 115.227 700.786 143.573 700.786 178.533" fill="#FFE5BB"/>
<path d="M60.1068 178.587C66.0535 165.027 77.6802 154.627 90.4268 147.08C102.453 139.947 115.747 134.973 129.507 132.467C133.347 131.76 137.32 131.213 140.68 129.24C145.08 126.653 147.773 122.027 150.573 117.76C177.947 76.0667 228.68 56.7201 277.2 45.1601C325.72 33.6001 376.853 26.68 419.04 0.0800171C426.173 10.32 439.867 12.92 452 15.8134C507.28 28.9467 556.613 65.4668 585.293 114.52C590.947 124.187 596.027 134.547 604.56 141.787C609.387 145.88 615.107 148.787 620.28 152.413C638.094 164.893 649.04 186.613 648.48 208.36C648.4 211.84 647.947 215.533 645.813 218.28C644.013 220.613 641.24 221.947 638.547 223.147C596.373 241.907 549.027 244.373 502.92 246.547C369.32 252.853 233.28 259.187 101.8 229.467C73.3201 223.04 43.8402 215.653 60.1068 178.587" fill="#FF5E2C"/>
<path d="M502.92 246.467C549.027 244.28 596.373 241.827 638.547 223.067C641.24 221.867 644.013 220.533 645.813 218.2C647.947 215.453 648.4 211.76 648.48 208.267C649.04 186.533 638.094 164.813 620.28 152.333C615.107 148.693 609.387 145.8 604.56 141.707C596.027 134.467 590.947 124.107 585.293 114.44C556.613 65.3867 507.28 28.8667 452 15.72C439.867 12.84 426.173 10.24 419.04 6.10352e-05C418.827 0.133478 418.613 0.266876 418.4 0.386688C419.747 4.20004 421.747 8.26676 424.52 12.5868C438.24 34.0401 464.787 33.8533 480.36 52.0533C497.147 71.68 483.907 104.32 461.533 117.24C439.173 130.16 411.88 129.587 386.067 130.533C357.84 131.573 329.707 134.88 302 140.413C296.574 141.493 290.907 142.787 286.693 146.387C282.467 149.987 280.32 156.64 283.454 161.213C285.72 164.507 289.893 165.787 293.774 166.76C313.053 171.587 332.933 174.027 352.813 173.987C359.933 173.972 367.8 173.893 373.214 178.533C382.853 186.8 377.32 203.12 368.093 211.853C343.867 234.773 305.987 232.467 272.84 228.693C243.227 225.307 213.613 221.933 183.987 218.547C153.827 215.107 120.16 209.747 102.027 185.4C97.5602 179.413 94.1602 172.373 88.1202 167.987C82.8668 164.187 76.2135 162.96 69.7201 163.693C65.8002 168.133 62.4935 173.067 60.1068 178.507C43.8402 215.573 73.3201 222.96 101.8 229.387C233.28 259.107 369.32 252.773 502.92 246.467" fill="#F43B22"/>
<path d="M331.24 114.213C300.4 114.213 269.28 113.28 240 103.947C233.56 101.893 226.386 98.5335 224.786 91.9601C220.08 74.3334 255.413 63.6668 267.306 60.9867C271.386 60.0668 282.44 58.4667 291.613 58.4667C302.573 58.4667 310.853 60.7601 301.333 69.2801C298.093 72.1734 294.066 75.1867 294.013 79.52C293.933 84.6534 299.386 87.8667 304.106 89.8668C320.386 96.8001 337.053 102.84 353.986 107.947C353.333 112.907 346.813 114.173 341.813 114.187C338.293 114.202 334.773 114.213 331.24 114.213" fill="#FF7E56"/>
<path d="M173.973 194.28C167.573 194.28 161.2 193.747 155 192.227C144.133 189.56 133.72 183.56 127.733 174.107C124.613 169.2 122.786 163.107 124.36 157.507C126.28 150.693 130.666 147.853 135.306 147.853C140.76 147.853 146.56 151.8 149.04 157.867C151.813 164.667 157.973 169.973 165.093 171.747C170.213 173.013 175.573 172.533 180.826 172.84C186.093 173.147 191.693 174.467 195.16 178.427C198.64 182.387 198.64 189.587 194.066 192.2C192.36 193.187 190.32 193.4 188.36 193.56C183.586 193.987 178.773 194.28 173.973 194.28" fill="#FF7E56"/>
<path d="M700.533 180.867C693.947 214.76 544.44 241.853 360.92 241.853C177.413 241.853 27.8934 214.76 21.3067 180.867H0C0 225.653 161.587 261.96 360.92 261.96C560.253 261.96 721.84 225.653 721.84 180.867H700.533" fill="#FFF7DC"/>
</g>
<defs>
<clipPath id="clip0_141_1399">
<rect width="721.84" height="512.24" fill="white"/>
</clipPath>
</defs>
</svg>
