<svg width="397" height="236" viewBox="0 0 397 236" fill="none" xmlns="http://www.w3.org/2000/svg">
  <g>
    <path d="M227.752 188.17H327.083V16.7604H227.752V188.17Z" fill="#FF1206"/>
    <path d="M227.752 16.7595L235.296 8.19632H277.417V16.7595H227.752Z"/>
    <path d="M327.083 16.7595L319.542 8.19632H277.417V16.7595H327.083Z" fill="#CED5D0"/>
    <path d="M319.342 8.19632H235.496C233.319 8.19632 231.556 6.35922 231.556 4.09816C231.556 1.83409 233.319 0 235.496 0H319.342C321.516 0 323.282 1.83409 323.282 4.09816C323.282 6.35922 321.516 8.19632 319.342 8.19632Z" fill="#CED5D0"/>
    <path d="M231.556 4.09819H323.282V3.41719e-06H231.556V4.09819Z" fill="#D2D2D8"/>
    <path d="M319.342 8.19632H235.496C233.319 8.19632 231.556 6.35922 231.556 4.09816C231.556 4.08916 231.556 4.08316 231.556 4.07413C231.556 4.07073 231.556 4.06813 231.556 4.06513C231.556 4.06173 231.556 4.05913 231.556 4.05613C231.559 3.68029 231.617 3.31949 231.709 2.97371C232.18 4.69055 233.695 5.95036 235.496 5.95036H298.02C298.292 5.39412 298.448 4.76572 298.448 4.09822C298.448 1.83416 296.685 6.10352e-05 294.508 6.10352e-05H319.342C319.348 6.10352e-05 319.357 6.10352e-05 319.365 6.10352e-05C319.368 6.10352e-05 319.371 6.10352e-05 319.371 6.10352e-05C319.377 6.10352e-05 319.383 6.10352e-05 319.389 6.10352e-05C319.392 6.10352e-05 319.395 6.10352e-05 319.398 6.10352e-05C319.404 6.10352e-05 319.407 6.10352e-05 319.412 6.10352e-05C319.415 6.10352e-05 319.418 6.10352e-05 319.421 6.10352e-05C319.427 6.10352e-05 319.433 6.10352e-05 319.438 6.10352e-05C319.441 6.10352e-05 319.441 6.10352e-05 319.444 6.10352e-05C319.453 6.10352e-05 319.462 6.10352e-05 319.468 6.10352e-05C319.471 6.10352e-05 319.474 6.10352e-05 319.477 6.10352e-05C319.483 6.10352e-05 319.486 0.00305939 319.491 0.00305939C319.494 0.00305939 319.5 0.00305939 319.502 0.00305939C319.505 0.00305939 319.511 0.00305939 319.514 0.00305939C319.52 0.00305939 319.523 0.00305939 319.525 0.00305939C319.528 0.00305939 319.534 0.00305939 319.537 0.00305939C319.543 0.00305939 319.546 0.00305939 319.549 0.00305939C319.552 0.00605939 319.558 0.00605774 319.56 0.00605774C319.563 0.00605774 319.569 0.00605774 319.572 0.00605774H319.575C319.586 0.00605774 319.598 0.00905609 319.609 0.00905609C319.612 0.00905609 319.612 0.00905609 319.615 0.00905609C319.621 0.00905609 319.627 0.00905609 319.633 0.00905609C319.633 0.00905609 319.636 0.00905609 319.639 0.00905609C319.645 0.0120561 319.65 0.0120621 319.656 0.0120621C319.656 0.0120621 319.656 0.0120621 319.659 0.0120621C321.318 0.150382 322.688 1.35908 323.13 2.97369C323.174 3.13605 323.208 3.30443 323.232 3.4728C323.238 3.50289 323.241 3.53297 323.246 3.56301C323.266 3.73138 323.281 3.90277 323.284 4.07716C323.284 4.08616 323.284 4.09216 323.284 4.09821C323.284 6.35927 321.518 8.19638 319.344 8.19638" fill="#B1B5B9"/>
    <path d="M243.265 134.178C242.736 134.178 242.204 134.07 241.687 133.835C238.504 132.395 237.889 127.605 237.779 123.697C237.397 109.95 237.016 96.2061 236.634 82.4594C240.678 80.3727 245.022 79.2362 249.499 78.7341C249.126 92.5409 249.184 106.372 249.673 120.191C249.788 123.489 249.904 126.944 248.67 129.896C247.676 132.284 245.485 134.178 243.265 134.178ZM236.397 73.8662C236.348 72.1163 236.299 70.3664 236.25 68.6134C240.629 66.5689 245.201 65.1617 250.028 64.6235C249.933 66.5929 249.846 68.5653 249.771 70.5347C249.355 70.5648 248.939 70.6009 248.522 70.643C244.354 71.0669 240.253 72.1674 236.397 73.8662" fill="#FF837D"/>
    <path d="M241.623 42.0761C239.759 42.0761 237.895 39.6707 237.253 36.1318C236.484 31.8983 237.577 26.6636 239.62 24.7844C239.799 24.619 240.01 24.4867 240.204 24.4867C240.366 24.4867 240.519 24.577 240.632 24.8145L241.057 23.9996C241.192 23.9726 241.328 23.9576 241.461 23.9576C243.563 23.9576 245.589 27.2138 245.973 31.3751C246.384 35.804 244.878 40.6088 242.707 41.7904C242.351 41.9859 241.987 42.0761 241.623 42.0761" fill="#FF837D"/>
    <path d="M327.083 31.4383C323.007 32.211 318.964 33.6723 315.226 35.4252C306.182 39.6737 297.664 45.5669 287.918 47.5182C280.392 49.0216 272.755 48.0565 265.093 47.0913C260.165 46.4719 255.225 45.8495 250.297 45.8886C246.236 45.9156 236.75 47.8279 227.752 51.2797V73.4633C236.221 67.7806 245.323 64.0973 255.575 64.395C267.318 64.7378 278.946 69.8041 290.522 67.7114C300.092 65.9795 308.168 59.6143 316.628 54.6472C319.894 52.7319 323.444 51.006 327.083 49.8394V31.4383" fill="#EDEDC3"/>
    <path d="M327.083 56.1836C322.475 57.4675 318.027 59.3707 313.894 61.8543C308.682 64.9873 303.931 69.0344 298.323 71.3165C290.519 74.4916 281.808 73.9504 273.507 72.7657C265.208 71.5811 256.861 69.7951 248.522 70.643C241.724 71.3345 235.111 73.8241 229.434 77.7689C228.879 78.1537 228.319 78.5326 227.752 78.9114V88.6352C230.319 86.5395 232.917 84.5039 235.79 82.9104C246.453 76.9962 259.338 77.9523 271.264 79.9728C280.319 81.5063 289.667 83.5568 298.54 81.1394C306.058 79.0918 312.426 74.0436 319.293 70.2641C321.741 68.9141 324.38 67.7294 327.083 66.9086V56.1836" fill="#EDEDC3"/>
    <path d="M327.083 188.17H300.43V80.5561C307.142 78.244 313.006 73.7218 319.293 70.2641C321.741 68.9141 324.38 67.7294 327.083 66.9086V188.17ZM300.43 70.3633V64.2897C305.997 61.5476 311.235 57.8133 316.628 54.6472C319.894 52.7319 323.444 51.006 327.083 49.8394V56.1836C322.475 57.4675 318.027 59.3707 313.894 61.8543C309.347 64.5874 305.15 68.0181 300.43 70.3633V70.3633ZM300.43 43.0262V16.7595H327.083V31.4383C323.007 32.211 318.964 33.6723 315.226 35.4252C310.232 37.7704 305.399 40.6178 300.43 43.0262" fill="#D23331"/>
    <path d="M327.083 16.7595H300.43L293.953 8.19632H319.342L327.083 16.7595Z" fill="#B1B5B9"/>
    <path d="M300.43 64.2897V43.0262C305.399 40.6178 310.232 37.7704 315.226 35.4252C318.964 33.6723 323.007 32.211 327.083 31.4383V49.8394C323.444 51.006 319.894 52.7319 316.628 54.6472C311.235 57.8133 305.997 61.5476 300.43 64.2897" fill="#C6C5B0"/>
    <path d="M300.43 80.5561V70.3633C305.15 68.0181 309.347 64.5874 313.894 61.8543C318.027 59.3707 322.475 57.4675 327.083 56.1836V66.9086C324.38 67.7294 321.741 68.9141 319.293 70.2641C313.006 73.7218 307.142 78.244 300.43 80.5561" fill="#C6C5B0"/>
    <path d="M236.409 215.47C236.409 215.47 284.775 221.869 310.016 196.463C335.256 171.059 311.209 152.763 311.209 152.763L294.86 124.23L203.065 166.305L223.957 203.483L236.409 215.47" fill="#B53023"/>
    <path d="M389.198 135.195L386.56 144.443C386.56 144.443 346.733 154.154 322.25 156.379C296.036 158.762 261.355 157.815 261.355 157.815L256.822 152.054L265.933 150.49L389.198 135.195" fill="#F9C41C"/>
    <path d="M380.384 127.535C379.245 127.731 335.317 140.251 309.483 142.399C283.648 144.545 262.794 143.925 262.794 143.925L256.822 152.054C256.822 152.054 298.357 152.34 314.882 150.647C331.405 148.954 389.198 135.195 389.198 135.195L380.384 127.535" fill="#FBD544"/>
    <path d="M325.756 229.265L318.048 235.22C318.048 235.22 280.008 220.152 258.882 207.863C236.259 194.706 208.802 173.986 208.802 173.986L208.611 166.722L216.919 170.699L325.756 229.265" fill="#F9C41C"/>
    <path d="M323.251 218.002C322.212 217.504 279.164 202.348 256.991 189.218C234.818 176.088 218.339 163.589 218.339 163.589L208.611 166.722C208.611 166.722 242.008 190.853 256.382 198.991C270.758 207.131 325.756 229.265 325.756 229.265L323.251 218.002Z" fill="#FBD544"/>
    <path d="M368.596 187.393L363.842 195.793C363.842 195.793 322.796 196.252 298.45 192.891C272.381 189.292 238.863 180.545 238.863 180.545L235.814 173.916L245.049 174.449L368.596 187.393" fill="#F9C41C"/>
    <path d="M361.832 177.948C360.676 177.882 314.977 180.15 289.335 176.406C263.691 172.663 243.547 167.353 243.547 167.353L235.814 173.916C235.814 173.916 276.159 183.569 292.636 185.65C309.114 187.732 368.596 187.393 368.596 187.393L361.832 177.948" fill="#FBD544"/>
    <path d="M378.06 166.578L373.382 176.212C373.382 176.212 327.914 179.476 300.691 177.386C271.538 175.148 233.767 167.702 233.767 167.702L229.922 160.558L240.196 160.529L378.06 166.578" fill="#F9C41C"/>
    <path d="M369.897 156.565C368.613 156.569 318.115 162.152 289.424 159.725C260.735 157.298 238.032 152.763 238.032 152.763L229.922 160.558C229.922 160.558 275.324 168.549 293.736 169.75C312.149 170.951 378.06 166.578 378.06 166.578L369.897 156.565" fill="#FBD544"/>
    <path d="M346.096 119.023C346.447 118.713 345.793 104.355 345.793 104.355L334.537 100.397L328.545 113.562L335.703 119.277L346.096 119.023" fill="#FFEB31"/>
    <path d="M334.059 111.674L334.537 100.397C334.537 100.397 315.841 118.955 287.674 131.673C259.507 144.392 214.857 152.342 214.857 152.342L210.735 158.318L247.98 157.053L313.395 133.174L334.059 111.674" fill="#F9C41C"/>
    <path d="M214.99 167.489C211.678 166.057 210.977 161.848 210.735 158.318C224.066 158.53 264.446 153.435 302.54 133.124C314.791 126.592 324.156 120.53 334.059 111.674C337.268 115.151 341.489 117.729 346.096 119.023C340.347 123.248 323.272 133.385 318.143 136.088C245.345 174.447 216.336 168.07 214.99 167.489" fill="#FBD544"/>
    <path d="M388.149 218.285C388.617 218.219 396.276 205.949 396.276 205.949L389.196 196.527L376.704 204.186L379.379 212.83L388.149 218.285Z" fill="#FFEB31"/>
    <path d="M382.358 205.624L389.196 196.527C389.196 196.527 363.08 201.734 332.442 196.932C301.804 192.13 260.213 174.385 260.213 174.385L253.378 177.097L285.008 196.351L352.93 212.2L382.358 205.624" fill="#F9C41C"/>
    <path d="M251.671 187.025C249.74 184.032 251.562 180.158 253.378 177.097C264.32 184.54 300.738 202.325 343.95 206.24C357.847 207.501 369.083 207.573 382.358 205.624C383.035 210.261 385.066 214.699 388.149 218.285C380.966 218.657 361.004 217.76 355.205 217.206C272.884 209.347 252.456 188.242 251.671 187.025" fill="#FBD544"/>
    <path d="M339.515 197.873L327.527 198.472C327.527 198.472 298.861 176.144 278.828 170.247C243.626 159.882 211.833 174.552 211.833 174.552L209.981 163.562L212.212 157.836L279.945 160.172L331.191 183.164L339.515 197.873" fill="#F9C41C"/>
    <path d="M340.169 182.756C340.169 182.756 314.88 165.484 279.752 156.728C244.624 147.974 212.212 157.836 212.212 157.836L214.933 167.088C214.933 167.088 254.86 156.157 282.018 164.69C314.476 174.887 339.515 197.873 339.515 197.873L340.169 182.756" fill="#FBD544"/>
    <path d="M346.764 140.559L354.737 153.997L345.381 164.169L334.985 155.471L332.044 145.766L346.764 140.559Z" fill="#FFEB31"/>
    <path d="M338.923 150.674L345.381 164.169C345.381 164.169 288.463 156.532 260.195 150.533C231.926 144.534 180.679 133.79 180.679 133.79L176.396 124.23L234.647 133.552L330.952 144.687L338.923 150.674" fill="#F9C41C"/>
    <path d="M346.764 140.559C346.764 140.559 276.9 137.041 243.797 128.533C210.693 120.023 187.375 115.234 187.375 115.234L176.396 124.23C176.396 124.23 285.414 146.234 304.083 148.594C322.749 150.955 338.923 150.674 338.923 150.674L346.764 140.559Z" fill="#FBD544"/>
    <path d="M334.753 142.972L342.505 154.049L335.114 163.403L325.584 156.558L322.413 148.381L334.753 142.972Z" fill="#FFEB31"/>
    <path d="M328.661 152.178L335.114 163.403C335.114 163.403 285.571 160.393 260.818 156.999C236.066 153.605 191.204 147.563 191.204 147.563L186.884 139.594L237.688 143.97L321.401 147.521L328.661 152.178Z" fill="#F9C41C"/>
    <path d="M334.753 142.972C334.753 142.972 274.325 144.326 245.242 139.071C216.159 133.819 195.753 131.154 195.753 131.154L186.884 139.594C186.884 139.594 282.264 151.711 298.505 152.575C314.745 153.437 328.661 152.178 328.661 152.178L334.753 142.972Z" fill="#FBD544"/>
    <path d="M343.967 168.802L351.72 179.879L344.329 189.232L334.799 182.39L331.625 174.213L343.967 168.802" fill="#FFEB31"/>
    <path d="M337.876 178.01L344.329 189.232C344.329 189.232 294.783 186.223 270.032 182.829C245.28 179.437 200.418 173.395 200.418 173.395L196.099 165.424L246.902 169.8L330.616 173.351L337.876 178.01Z" fill="#F9C41C"/>
    <path d="M343.967 168.802C343.967 168.802 283.538 170.156 254.456 164.903C225.373 159.649 204.967 156.984 204.967 156.984L196.099 165.424C196.099 165.424 291.478 177.543 307.718 178.405C323.959 179.267 337.876 178.01 337.876 178.01L343.967 168.802Z" fill="#FBD544"/>
    <path d="M305.659 188.612L312.206 200.411L303.869 208.973L295.109 201.207L292.814 192.755L305.659 188.612Z" fill="#FFEB31"/>
    <path d="M298.63 197.16L303.869 208.973C303.869 208.973 254.904 201 230.641 195.138C206.377 189.276 162.388 178.759 162.388 178.759L158.931 170.397L209.004 179.854L291.9 191.798L298.63 197.16" fill="#F9C41C"/>
    <path d="M305.659 188.612C305.659 188.612 245.41 183.887 217.034 175.741C188.658 167.592 168.641 162.894 168.641 162.894L158.931 170.397C158.931 170.397 252.53 192.033 268.593 194.522C284.657 197.013 298.63 197.16 298.63 197.16L305.659 188.612" fill="#FBD544"/>
    <path d="M270.138 192.397C270.478 192.718 269.399 207.05 269.399 207.05L258.033 210.691L252.432 197.36L259.756 191.849L270.138 192.397Z" fill="#FFEB31"/>
    <path d="M257.888 199.404L258.033 210.691C258.033 210.691 239.893 191.612 212.113 178.103C184.333 164.597 139.938 155.393 139.938 155.393L135.993 149.301L173.186 151.618L237.868 177.33L257.888 199.404" fill="#F9C41C"/>
    <path d="M140.518 140.256C137.165 141.593 136.34 145.779 135.993 149.301C149.326 149.466 189.538 155.697 227.017 177.074C239.069 183.947 248.252 190.272 257.888 199.404C261.199 196.019 265.494 193.561 270.138 192.397C264.516 188.011 247.748 177.396 242.7 174.55C171.066 134.156 141.881 139.712 140.518 140.256Z" fill="#F9E638"/>
    <path d="M299.728 135.861L309.463 145.328L303.992 155.866L293.319 150.884L288.639 143.431L299.728 135.861Z" fill="#FFEB31"/>
    <path d="M295.505 146.019L303.992 155.866C303.992 155.866 254.745 161.956 229.78 163.142C204.815 164.329 159.587 166.584 159.587 166.584L153.819 159.543L204.565 154.566L287.482 142.769L295.505 146.019" fill="#F9C41C"/>
    <path d="M299.728 135.861C299.728 135.861 240.623 148.224 211.048 148.375C181.473 148.524 160.916 149.634 160.916 149.634L153.819 159.543C153.819 159.543 249.837 154.033 265.956 151.914C282.075 149.795 295.505 146.019 295.505 146.019L299.728 135.861" fill="#F9E638"/>
    <path d="M229.422 173.413C233.216 170.705 235.704 168.8 240.527 167.158C237.164 165.829 224.143 160.62 220.218 157.332C215.173 153.104 213.538 149.001 214.296 144.003C215.136 138.468 220.068 134.271 225.376 132.165C242.461 125.387 279.253 137.418 279.253 137.418C279.253 137.418 289.437 127.63 294.86 124.23C262.761 118.014 201.578 100.397 177.46 99.1294C174.444 98.9723 150.634 110.265 142.873 114.975C131.148 122.092 101.926 143.203 100.828 145.864C99.8378 148.261 98.0137 179.612 107.284 186.475C111.884 189.882 225.6 216.096 236.409 215.47C234.996 211.455 226.556 175.46 229.422 173.413" fill="#FF5B40"/>
    <path d="M236.409 215.47C235.078 211.687 227.509 179.65 229.035 174.234C228.198 174.126 227.351 173.802 226.525 173.951C209.13 177.097 195.264 178.707 178.578 178.085C152.725 177.119 129.893 169.73 108.208 155.945C105.834 154.434 103.482 152.778 101.832 150.529C101.276 149.77 100.817 148.966 100.443 148.129C99.5558 155.804 99.1646 180.6 107.284 186.611C111.884 190.018 225.6 216.096 236.409 215.47" fill="#EA412A"/>
    <path d="M240.904 162.431L269.249 159.804L303.992 168.696C303.992 168.696 283.1 167.803 271.02 167.353C258.94 166.902 240.904 162.431 240.904 162.431" fill="#F7AB14"/>
    <path d="M261.58 181.874L267.351 184.865L335.114 188.612L261.58 181.874Z" fill="#F7AB14"/>
    <path d="M312.206 200.411L339.515 197.873L332.459 193.292H308.255L312.206 200.411" fill="#F7AB14"/>
    <path d="M10.7846 141.26C5.14187 146.012 -1.09487 176.602 1.87516 183.728C4.84485 190.857 13.7581 222.745 93.9403 223.525C185.709 224.417 191.054 185.213 191.054 179.276C191.054 173.335 184.818 146.309 177.987 141.557C171.355 136.942 42.7586 114.336 10.7846 141.26" fill="#FFA944"/>
    <path d="M89.2624 108.89C30.4318 110.424 9.0767 129.679 7.8889 153.438C6.70074 177.194 31.0537 193.828 98.1721 193.232C164.111 192.65 178.061 172.146 180.14 159.376C184.239 134.194 157.569 107.108 89.2624 108.89Z" fill="#FFEAB7"/>
    <path d="M63.7714 208.285C58.5651 206.112 53.3955 203.759 48.2784 201.483C40.2527 197.913 31.8104 195.761 23.7921 192.127C18.027 189.513 13.3393 187.22 9.74805 183.167C9.90433 179.886 11.1331 177.343 14.4224 177.343C16.5016 177.343 22.2925 185.883 36.2512 189.817C41.1604 191.2 49.0814 192.72 54.07 193.232C57.8193 193.616 61.7814 194.05 63.9446 197.68C65.4206 200.157 65.0139 204.672 63.7714 208.285" fill="#FFB94C"/>
    <path d="M191.054 179.276C191.054 177.141 190.251 172.298 188.906 166.738C188.51 166.978 188.148 167.292 187.846 167.701C186.69 169.26 187.089 172.562 186.823 174.524C186.436 177.378 185.491 178.796 183.705 181.138C180.59 185.224 178.23 189.602 173.896 192.727C169.384 195.983 164.034 199.934 158.632 201.614C151.51 203.829 144.071 205.046 136.772 206.531C129.957 207.918 123.982 211.326 117.178 212.906C102.579 216.307 84.804 216.328 70.544 210.976C63.045 208.165 55.6081 204.743 48.2784 201.483C40.2527 197.913 31.8104 195.761 23.7921 192.127C15.6038 188.413 9.58893 185.351 5.80186 176.965C4.9873 175.162 4.58338 172.771 2.69108 171.628C2.32066 171.402 1.93328 171.254 1.54523 171.176C0.917633 176.697 0.917641 181.431 1.87473 183.728C4.84441 190.857 13.758 222.745 93.9402 223.525C185.708 224.417 191.054 185.213 191.054 179.276" fill="#F68D32"/>
    <path d="M52.6067 216.102C51.0068 216.102 49.4069 215.901 47.9249 215.608C36.7535 213.393 25.5821 210.744 17.0452 202.316C13.4374 198.756 11.1725 193.694 10.2147 188.878C9.83975 186.995 9.87361 185.326 10.1367 183.745C13.6684 187.503 18.2079 189.718 23.7416 192.23C31.7606 195.863 40.2029 198.015 48.2283 201.585C53.3453 203.861 58.5153 206.21 63.7216 208.38C63.1349 210.087 62.3623 211.594 61.5125 212.585C59.2378 215.245 55.922 216.102 52.6066 216.102" fill="#F89738"/>
    <path d="M170.249 116.153C156.988 109.676 32.1516 107.821 16.8326 117.282C2.6396 126.292 2.63959 144.989 3.09044 152.2C3.54059 159.407 12.3269 189.598 94.7799 188.243C177.233 186.892 183.584 162.357 186.019 157.83C189.173 151.974 189.624 125.618 170.249 116.153" fill="#893C29"/>
    <path d="M87.3458 100.158C32.8299 100.846 6.69476 118.182 6.69476 136.657C6.69476 153.802 38.2342 166.392 85.0929 167.743C131.951 169.095 177.684 156.479 181.063 137.782C184.349 119.596 158.985 99.2587 87.3458 100.158Z" fill="#C25739"/>
    <path d="M9.84856 137.556C10.074 145.215 17.7335 154.229 37.7836 159.407C77.8839 169.772 128.903 165.426 127.446 163.238C126.793 162.258 123.778 162.755 117.336 163.253C106 164.127 84.0494 165.002 45.6686 157.83C35.8649 155.999 27.6472 152.793 22.4646 148.595C16.8096 144.016 14.6336 138.396 14.5797 135.754C14.3542 124.715 22.2392 121.787 19.3104 120.436C17.6615 119.674 9.45098 124.027 9.84856 137.556" fill="#F9735D"/>
    <path d="M12.2912 153.611C12.711 154.373 13.5923 154.916 14.2953 155.389C14.9004 155.795 15.4634 154.818 14.864 154.415C14.3246 154.056 13.5859 153.629 13.2638 153.043C12.9135 152.405 11.9409 152.973 12.2912 153.611Z" fill="#C25739"/>
    <path d="M9.51066 156.257C9.53996 157.583 9.94422 158.786 10.4321 160.011C10.6981 160.674 11.7878 160.384 11.5183 159.711C11.0696 158.585 10.6639 157.478 10.6371 156.257C10.6212 155.53 9.49478 155.527 9.51066 156.257Z" fill="#C25739"/>
    <path d="M14.5208 160.12C15.0309 160.402 15.3583 161.027 15.6701 161.496C16.0712 162.095 17.0474 161.535 16.6431 160.928C16.2194 160.293 15.7791 159.527 15.0891 159.15C14.452 158.797 13.884 159.771 14.5208 160.12Z" fill="#C25739"/>
    <path d="M15.4218 166.879C16.5859 167.556 17.8623 168.004 19.0261 168.682C19.6554 169.045 20.2224 168.075 19.5948 167.708C18.4306 167.031 17.1543 166.583 15.9904 165.905C15.3607 165.542 14.7942 166.516 15.4218 166.879" fill="#C25739"/>
    <path d="M25.6185 171.01C26.7449 171.01 27.8714 171.01 28.9978 171.01C29.7242 171.01 29.7242 169.885 28.9978 169.885C27.8714 169.885 26.7449 169.885 25.6185 169.885C24.8921 169.885 24.8921 171.01 25.6185 171.01Z" fill="#C25739"/>
    <path d="M21.5633 165.828C22.646 165.832 23.7251 165.838 24.793 166.036C25.5028 166.167 25.8058 165.08 25.0922 164.949C23.9231 164.731 22.7494 164.702 21.5633 164.702C20.837 164.702 20.837 165.828 21.5633 165.828" fill="#C25739"/>
    <path d="M20.5868 159.951C21.4874 159.725 22.4064 159.496 23.1995 158.995C23.8108 158.607 23.2464 157.633 22.6308 158.021C21.9185 158.472 21.0962 158.663 20.2873 158.868C19.5828 159.044 19.8819 160.127 20.5868 159.951" fill="#C25739"/>
    <path d="M28.9388 161.923C29.9446 162.445 30.8353 163.193 31.5278 164.089C31.972 164.66 32.7629 163.859 32.3244 163.291C31.5804 162.328 30.587 161.51 29.5071 160.949C28.8633 160.617 28.2936 161.587 28.9388 161.923" fill="#C25739"/>
    <path d="M28.5994 165.891C29.1991 166.488 29.813 167.077 30.5157 167.553C31.1172 167.966 31.6799 166.988 31.084 166.583C30.4628 166.156 29.9262 165.623 29.396 165.094C28.8816 164.579 28.0851 165.376 28.5994 165.891" fill="#C25739"/>
    <path d="M32.5266 177.748C33.5031 177.505 34.4552 177.23 35.3643 176.792C36.0184 176.475 35.4468 175.505 34.796 175.819C33.9772 176.214 33.1058 176.443 32.2271 176.662C31.5229 176.838 31.8218 177.925 32.5266 177.748Z" fill="#C25739"/>
    <path d="M27.1954 174.616C27.6459 174.616 28.0964 174.616 28.5473 174.616C29.2736 174.616 29.2736 173.49 28.5473 173.49C28.0964 173.49 27.6459 173.49 27.1954 173.49C26.469 173.49 26.469 174.616 27.1954 174.616Z" fill="#C25739"/>
    <path d="M36.1312 172.344C37.0446 172.128 37.9773 172.139 38.9101 172.136C39.6364 172.136 39.6364 171.01 38.9101 171.01C37.8754 171.01 36.8442 171.021 35.8317 171.257C35.1244 171.423 35.4243 172.506 36.1312 172.344Z" fill="#C25739"/>
    <path d="M36.7327 166.936C37.7053 167.179 38.679 167.412 39.6615 167.613C40.3706 167.754 40.6726 166.671 39.961 166.526C38.9785 166.325 38.0045 166.092 37.0322 165.849C36.3274 165.673 36.0282 166.759 36.7327 166.936" fill="#C25739"/>
    <path d="M42.567 166.339C43.0407 166.752 43.7237 166.731 44.3168 166.731C45.0435 166.731 45.0431 165.606 44.3168 165.606C44.1146 165.606 43.9128 165.602 43.7114 165.588C43.6327 165.584 43.5625 165.577 43.4881 165.563C43.4031 165.546 43.3117 165.5 43.3632 165.542C43.1318 165.345 42.7956 165.316 42.567 165.542C42.3613 165.75 42.3348 166.138 42.567 166.339" fill="#C25739"/>
    <path d="M51.9763 172.136C52.837 172.14 53.6876 172.146 54.53 172.344C55.237 172.506 55.5372 171.419 54.8295 171.257C53.889 171.038 52.9376 171.01 51.9763 171.01C51.2499 171.01 51.2499 172.136 51.9763 172.136Z" fill="#C25739"/>
    <path d="M44.3168 176.192C45.143 176.192 45.9688 176.192 46.795 176.192C47.5214 176.192 47.5214 175.067 46.795 175.067C45.9688 175.067 45.143 175.067 44.3168 175.067C43.5904 175.067 43.5904 176.192 44.3168 176.192Z" fill="#C25739"/>
    <path d="M42.6809 179.494C43.6225 180.2 44.5782 180.867 45.7441 181.128C46.4514 181.287 46.752 180.204 46.0436 180.041C44.9729 179.801 44.1129 179.17 43.2496 178.521C42.6675 178.087 42.1069 179.064 42.6809 179.494" fill="#C25739"/>
    <path d="M54.53 182.031C55.4222 182.236 56.3412 182.274 57.2334 182.479C57.9403 182.645 58.2405 181.558 57.5329 181.392C56.6407 181.188 55.7217 181.149 54.8295 180.944C54.1226 180.779 53.8227 181.865 54.53 182.031" fill="#C25739"/>
    <path d="M59.1853 176.644C59.9423 176.626 60.6796 176.429 61.4385 176.418C62.1638 176.408 62.1652 175.279 61.4385 175.293C60.6793 175.303 59.9416 175.501 59.1853 175.515C58.4599 175.529 58.4585 176.658 59.1853 176.644" fill="#C25739"/>
    <path d="M65.7183 172.813C66.4549 172.813 67.1873 172.788 67.8957 172.566C68.5875 172.354 68.2922 171.268 67.5965 171.483C66.9795 171.673 66.3593 171.687 65.7183 171.687C64.9923 171.687 64.9923 172.813 65.7183 172.813Z" fill="#C25739"/>
    <path d="M55.5809 168.308C56.332 168.308 57.0827 168.308 57.8338 168.308C58.5602 168.308 58.5602 167.183 57.8338 167.183C57.0827 167.183 56.332 167.183 55.5809 167.183C54.8546 167.183 54.8546 168.308 55.5809 168.308Z" fill="#C25739"/>
    <path d="M78.9514 180.846C79.802 181.234 80.9573 181.389 81.8632 181.128C82.56 180.927 82.2633 179.84 81.5637 180.041C80.9637 180.214 80.0905 180.133 79.5197 179.875C78.8643 179.576 78.2914 180.546 78.9514 180.846Z" fill="#C25739"/>
    <path d="M67.6872 183.1C68.7212 183.837 69.9669 184.25 71.2009 184.507C71.9096 184.656 72.2113 183.569 71.5004 183.421C70.3503 183.181 69.2197 182.814 68.2556 182.126C67.6636 181.703 67.1016 182.68 67.6872 183.1Z" fill="#C25739"/>
    <path d="M71.8013 177.769C72.7669 177.741 73.5522 177.314 74.3385 176.792C74.9396 176.39 74.3762 175.416 73.7698 175.819C73.1599 176.224 72.5563 176.619 71.8013 176.644C71.0764 176.665 71.0746 177.791 71.8013 177.769Z" fill="#C25739"/>
    <path d="M79.9113 172.587C81.042 172.573 82.1599 172.379 83.2906 172.361C84.0163 172.351 84.0173 171.225 83.2906 171.236C82.1599 171.254 81.042 171.444 79.9113 171.462C79.1856 171.472 79.1846 172.598 79.9113 172.587" fill="#C25739"/>
    <path d="M93.144 172.961C93.9134 173.448 94.8063 173.691 95.6223 174.09C96.2725 174.404 96.844 173.434 96.1906 173.116C95.3757 172.721 94.4807 172.474 93.7123 171.987C93.0971 171.599 92.5323 172.573 93.144 172.961Z" fill="#C25739"/>
    <path d="M90.5751 178.426C91.0418 178.574 91.5738 178.609 92.0176 178.817C92.2952 178.951 92.623 178.898 92.7881 178.616C92.9331 178.369 92.864 177.978 92.5863 177.847C92.0405 177.589 91.445 177.522 90.8746 177.339C90.181 177.117 89.8865 178.203 90.5751 178.426Z" fill="#C25739"/>
    <path d="M90.3331 185.351C90.7854 185.15 91.3695 185.202 91.8514 185.202C92.5778 185.202 92.5778 184.077 91.8514 184.077C91.1381 184.077 90.4255 184.081 89.7648 184.38C89.485 184.507 89.4197 184.906 89.5626 185.15C89.7298 185.435 90.0537 185.478 90.3331 185.351Z" fill="#C25739"/>
    <path d="M108.747 177.995C109.652 177.981 110.505 177.745 111.375 177.522C112.079 177.346 111.78 176.259 111.076 176.439C110.303 176.633 109.55 176.856 108.747 176.87C108.022 176.88 108.021 178.006 108.747 177.995" fill="#C25739"/>
    <path d="M4.57456 145.815C4.84443 146.584 5.26426 147.279 5.47593 148.069C5.6636 148.771 6.75051 148.471 6.56178 147.769C6.35011 146.979 5.93066 146.284 5.66078 145.518C5.4216 144.838 4.33291 145.13 4.57456 145.815" fill="#C25739"/>
    <path d="M21.3382 163.351C22.5571 163.334 23.73 163.094 24.867 162.656C25.5373 162.395 25.2463 161.309 24.5675 161.57C23.5215 161.972 22.4615 162.208 21.3382 162.226C20.6126 162.237 20.6115 163.362 21.3382 163.351Z" fill="#C25739"/>
    <path d="M18.8078 164.988C19.3158 164.42 19.3863 163.57 19.1778 162.865C18.9728 162.17 17.8856 162.466 18.0916 163.164C18.1837 163.475 18.2049 163.976 18.0112 164.191C17.5286 164.731 18.3224 165.532 18.8078 164.988" fill="#C25739"/>
    <path d="M21.5276 170.058C21.9795 171.003 22.2011 172.037 22.654 172.986C22.967 173.638 23.9381 173.067 23.6266 172.418C23.1747 171.469 22.9529 170.435 22.5002 169.486C22.187 168.834 21.2161 169.405 21.5276 170.058Z" fill="#C25739"/>
    <path d="M31.2506 174.164C32.1516 174.164 33.0529 174.164 33.9539 174.164C34.6803 174.164 34.6803 173.039 33.9539 173.039C33.0529 173.039 32.1516 173.039 31.2506 173.039C30.5242 173.039 30.5242 174.164 31.2506 174.164Z" fill="#C25739"/>
    <path d="M31.7011 170.784C32.8233 170.77 33.9631 170.502 34.8027 169.719C35.3347 169.222 34.5363 168.428 34.0061 168.922C33.3912 169.497 32.5146 169.648 31.7011 169.659C30.9754 169.67 30.9744 170.795 31.7011 170.784" fill="#C25739"/>
    <path d="M34.4968 166.766C34.6997 165.958 34.8902 165.136 35.3414 164.424C35.7312 163.81 34.7561 163.242 34.3688 163.856C33.8664 164.65 33.6364 165.567 33.4106 166.47C33.2342 167.172 34.3204 167.472 34.4968 166.766" fill="#C25739"/>
    <path d="M37.4827 170.089C38.3082 169.828 39.2565 169.68 40.112 169.864C40.82 170.019 41.1213 168.932 40.4115 168.777C39.3581 168.551 38.2052 168.682 37.1832 169.003C36.4932 169.222 36.7881 170.308 37.4827 170.089Z" fill="#C25739"/>
    <path d="M38.4952 176.588C39.041 175.882 39.7656 175.286 40.6366 175.046C41.3361 174.852 41.0387 173.765 40.3374 173.959C39.1651 174.28 38.2521 175.078 37.5226 176.02C37.0788 176.595 38.0581 177.156 38.4952 176.588Z" fill="#C25739"/>
    <path d="M38.6847 179.572C39.411 179.572 39.411 178.447 38.6847 178.447C37.9583 178.447 37.9583 179.572 38.6847 179.572Z" fill="#C25739"/>
    <path d="M38.9101 179.572C39.3606 179.572 39.8111 179.572 40.2616 179.572C40.9879 179.572 40.9879 178.447 40.2616 178.447C39.8111 178.447 39.3606 178.447 38.9101 178.447C38.1837 178.447 38.1837 179.572 38.9101 179.572Z" fill="#C25739"/>
    <path d="M42.0639 171.913C42.8965 171.924 43.7668 172.065 44.4832 172.509C45.1017 172.898 45.6665 171.92 45.0516 171.539C44.1707 170.989 43.0884 170.802 42.0639 170.784C41.3372 170.774 41.3382 171.903 42.0639 171.913" fill="#C25739"/>
    <path d="M47.0204 168.982C47.9214 168.982 48.8224 168.982 49.7238 168.982C50.4502 168.982 50.4502 167.856 49.7238 167.856C48.8224 167.856 47.9214 167.856 47.0204 167.856C46.2937 167.856 46.2937 168.982 47.0204 168.982Z" fill="#C25739"/>
    <path d="M50.1743 175.293C51.0065 175.303 51.8196 175.505 52.6522 175.515C53.3789 175.529 53.3779 174.4 52.6522 174.39C51.8196 174.376 51.0068 174.178 50.1743 174.164C49.4472 174.153 49.4486 175.279 50.1743 175.293" fill="#C25739"/>
    <path d="M49.3487 179.777C49.9502 179.981 50.4865 180.271 51.0163 180.62C51.6245 181.022 52.1879 180.045 51.5847 179.65C50.974 179.244 50.3415 178.926 49.6479 178.69C48.9586 178.457 48.6651 179.544 49.3487 179.777" fill="#C25739"/>
    <path d="M59.4107 179.798C59.9875 179.798 60.5184 179.741 61.0465 179.494C61.3249 179.364 61.393 178.969 61.2487 178.725C61.0829 178.44 60.7566 178.394 60.4782 178.521C60.1434 178.676 59.7713 178.669 59.4107 178.669C58.6843 178.673 58.6843 179.798 59.4107 179.798Z" fill="#C25739"/>
    <path d="M60.3117 172.136C60.2105 172.118 60.1875 172.114 60.2429 172.129L60.1515 172.09C60.1988 172.118 60.179 172.104 60.0915 172.04C60.125 172.069 60.154 172.1 60.1861 172.129C60.353 172.28 60.5385 172.351 60.7625 172.361C61.0695 172.375 61.3256 172.097 61.3256 171.8C61.3256 171.483 61.0691 171.25 60.7625 171.236C60.8638 171.254 60.8867 171.257 60.8313 171.243L60.9227 171.285C60.8754 171.254 60.8952 171.271 60.9827 171.335C60.9488 171.307 60.9203 171.271 60.8882 171.243C60.7214 171.095 60.5358 171.021 60.3118 171.01C60.0052 170.996 59.7487 171.278 59.7487 171.575C59.7487 171.892 60.0056 172.121 60.3118 172.136" fill="#C25739"/>
    <path d="M53.9448 178.369C54.6027 178.687 55.298 178.881 56.0314 178.895C56.7585 178.912 56.7568 177.784 56.0314 177.769C55.5044 177.759 54.9879 177.625 54.5134 177.395C53.8626 177.081 53.2911 178.052 53.9448 178.369" fill="#C25739"/>
    <path d="M126.094 169.207C126.77 169.207 127.446 169.207 128.122 169.207C128.848 169.207 128.848 168.082 128.122 168.082C127.446 168.082 126.77 168.082 126.094 168.082C125.368 168.082 125.368 169.207 126.094 169.207Z" fill="#C25739"/>
    <path d="M130.998 180.532C131.449 180.084 131.899 179.632 132.35 179.18C132.864 178.665 132.067 177.872 131.553 178.383C131.103 178.835 130.652 179.286 130.202 179.738C129.688 180.249 130.484 181.047 130.998 180.532Z" fill="#C25739"/>
    <path d="M118.998 182.839C118.998 182.804 119 182.768 119.003 182.729C118.99 182.906 119 182.768 119.012 182.722C119.049 182.578 118.968 182.8 119.01 182.722C119.076 182.599 118.942 182.793 119.003 182.729C119.074 182.655 118.885 182.811 118.972 182.751C119.09 182.673 118.875 182.779 118.965 182.747C119.004 182.733 119.045 182.725 119.086 182.718C118.905 182.75 119.065 182.725 119.111 182.725C119.418 182.721 119.674 182.471 119.674 182.161C119.674 181.858 119.418 181.593 119.111 181.6C118.772 181.604 118.456 181.695 118.206 181.932C117.962 182.165 117.876 182.514 117.872 182.838C117.868 183.145 118.131 183.403 118.435 183.403C118.745 183.403 118.994 183.145 118.998 182.838" fill="#C25739"/>
    <path d="M147.121 168.738C147.682 168.925 148.255 169.098 148.789 169.356C149.439 169.673 150.011 168.699 149.357 168.386C148.735 168.082 148.075 167.87 147.42 167.652C146.729 167.422 146.435 168.509 147.121 168.738Z" fill="#C25739"/>
    <path d="M153.503 163.782C154.167 163.577 154.867 163.538 155.531 163.33C156.222 163.115 155.926 162.028 155.231 162.244C154.567 162.452 153.868 162.491 153.204 162.695C152.512 162.91 152.808 163.997 153.503 163.782Z" fill="#C25739"/>
    <path d="M16.7733 171.384C17.4513 171.836 18.1039 172.301 18.6871 172.873C19.2053 173.384 20.0026 172.587 19.4833 172.076C18.8339 171.441 18.0976 170.915 17.342 170.41C16.7359 170.008 16.1725 170.985 16.7733 171.384Z" fill="#C25739"/>
    <path d="M11.912 165.775C12.6242 164.844 13.4522 164.004 14.1648 163.073C14.6058 162.494 13.6265 161.937 13.1922 162.505C12.48 163.436 11.652 164.272 10.9394 165.207C10.4984 165.786 11.4777 166.346 11.912 165.775Z" fill="#C25739"/>
    <path d="M17.0576 157.044C17.8214 157.065 18.3862 157.488 18.9122 158.003C19.4308 158.515 20.2277 157.718 19.7087 157.21C18.9637 156.476 18.128 155.947 17.0576 155.918C16.3309 155.897 16.3327 157.023 17.0576 157.044" fill="#C25739"/>
    <path d="M24.9425 168.982C25.6185 168.982 26.2944 168.982 26.9703 168.982C27.6967 168.982 27.6967 167.856 26.9703 167.856C26.2944 167.856 25.6185 167.856 24.9425 167.856C24.2162 167.856 24.2162 168.982 24.9425 168.982Z" fill="#C25739"/>
    <path d="M27.0627 164.29C27.2695 163.397 27.3065 162.476 27.5132 161.587C27.6769 160.878 26.5911 160.579 26.427 161.288C26.2203 162.18 26.1833 163.097 25.9765 163.99C25.8125 164.695 26.8987 164.995 27.0627 164.29Z" fill="#C25739"/>
    <path d="M37.1077 164.702C37.82 164.702 38.5249 164.692 39.211 164.907C39.906 165.126 40.2012 164.039 39.5101 163.821C38.7316 163.577 37.9159 163.577 37.1077 163.577C36.3814 163.577 36.3814 164.702 37.1077 164.702Z" fill="#C25739"/>
    <path d="M28.0964 176.87C28.9978 176.87 29.8988 176.87 30.8001 176.87C31.5265 176.87 31.5265 175.741 30.8001 175.741C29.8988 175.741 28.9978 175.741 28.0964 175.741C27.37 175.741 27.37 176.87 28.0964 176.87Z" fill="#C25739"/>
    <path d="M91.7759 88.3578C85.1659 87.1161 -3.33858 123.96 0.0974763 130.257C3.56846 136.618 13.2056 134.967 24.9298 140.389C42.0008 148.288 66.8808 165.38 85.4041 175.293C95.7451 180.828 94.5329 189.136 103.402 189.376C109.944 189.552 110.263 181.272 120.405 174.732C138.776 162.886 159.359 149.004 173.979 142.139C179.404 139.588 190.281 138.064 190.869 133.538C191.634 127.647 106.577 91.1377 91.7759 88.3578" fill="#FFBE00"/>
    <path d="M103.114 180.006C102.305 180.006 101.412 179.152 99.9879 177.318C98.0543 174.831 96.1973 172.414 94.0993 170.026C89.1209 164.357 82.9399 160.183 76.3828 156.134C80.1953 155.35 84.1482 154.274 88.221 152.849C88.8101 152.641 89.3912 152.426 89.9637 152.204C95.7845 154.8 103.038 156.539 107.678 160.526C113.872 165.845 109.734 171.673 106.195 176.909C104.839 178.912 104.03 180.006 103.114 180.006Z" fill="#FFCB27"/>
    <path d="M191.274 133.676C191.333 133.221 190.879 132.582 189.988 131.792C189.366 132.279 189.903 133.937 189.173 134.427C183.661 138.11 177.799 138.872 171.377 141.504C155.889 147.843 141.881 156.91 128.005 165.941C122.552 169.493 118.234 172.883 113.216 177.191C110.508 179.516 108.267 185.139 101.633 185.732C100.737 185.813 96.554 185.471 94.5692 183.393C97.0239 186.698 98.8252 189.379 103.808 189.513C110.35 189.69 110.668 181.41 120.81 174.87C139.182 163.02 159.764 149.141 174.384 142.273C179.809 139.726 190.686 138.202 191.274 133.676" fill="#EF9C07"/>
    <path d="M70.9232 104.441C71.7279 104.706 74.4105 103.665 78.243 102.621C85.2418 100.719 96.0766 98.8212 106.326 104.857C111.468 107.888 114.95 119.282 113.687 128.112C112.424 136.942 102.894 147.709 88.221 152.849C60.602 162.519 38.5404 156.049 27.853 151.692C11.054 144.845 1.90333 122.006 7.36291 107.221C8.62304 103.81 12.4136 100.825 15.3114 97.9711C34.5049 79.0551 52.4927 87.6347 58.8953 90.3193C68.373 94.2951 67.7063 103.393 70.9232 104.441" fill="#E22727"/>
    <path d="M71.9325 96.8739C72.5908 97.0891 74.2101 96.8104 76.5631 96.5282C82.3409 95.8403 92.5429 95.1524 103.814 101.792C114.098 107.849 118.578 135.006 89.2303 145.282C61.6113 154.952 39.5493 148.482 28.8619 144.125C8.18664 135.697 -0.857532 109.937 14.5966 94.7079C33.7902 75.7919 53.502 80.0641 59.9042 82.7522C69.3826 86.7245 68.7156 95.8226 71.9325 96.8739Z" fill="#FF6A5F"/>
    <path d="M60.2143 146.803C47.8569 146.807 38.1386 143.719 32.2761 141.352C21.0458 136.808 14.0096 126.726 13.0342 116.206C16.0261 119.222 20.3465 122.613 26.5463 125.848C27.7623 127.978 29.0323 129.361 29.9421 129.82C30.0391 129.869 30.1612 129.89 30.3065 129.89C30.8837 129.89 31.8273 129.52 33.0226 128.857C35.4941 129.88 38.1879 130.868 41.1322 131.799C40.6126 132.593 40.4517 133.217 40.7491 133.619C42.2502 135.637 50.4618 139.073 61.6925 139.073C65.1179 139.073 68.8225 138.756 72.7058 137.976C78.8414 138.608 85.5381 139.034 92.8491 139.211C90.7956 140.4 88.4577 141.472 85.8087 142.393C76.4661 145.631 67.8371 146.803 60.2143 146.803" fill="#FB544B"/>
    <path d="M147.845 101.418C148.779 101.453 151.635 99.0788 155.877 96.7046C161.478 93.5684 169.495 90.4322 178.698 92.8417C183.94 94.2104 189.888 103.383 191.056 111.489C192.224 119.6 186.71 131.503 175.285 139.743C153.78 155.252 132.961 155.118 122.562 153.978C106.217 152.182 92.4106 134.353 93.3589 119.931C93.5776 116.605 96.1045 113.013 97.8882 109.764C109.706 88.2308 127.527 91.2506 133.776 92.002C143.028 93.1133 144.782 101.305 147.845 101.418" fill="#E22727"/>
    <path d="M146.78 94.4891C147.643 94.5209 149.844 93.2685 153.201 92.0162C158.277 90.1182 165.996 88.2238 175.73 90.7709C186.215 93.5155 197.071 116.333 174.22 132.811C152.715 148.323 131.896 148.189 121.497 147.049C101.38 144.841 86.9161 124.401 96.4308 107.066C108.248 85.5356 126.462 84.3221 132.711 85.0735C141.962 86.1847 143.717 94.3762 146.78 94.4891" fill="#FF6A5F"/>
    <path d="M130.903 144.121C128.146 144.121 125.735 143.949 123.75 143.737C118.951 143.225 114.581 141.56 110.889 139.094C121.882 138.66 131.347 137.56 139.494 136.011C143.712 135.679 148.824 134.618 154.196 132.346C167.953 127.975 176.388 122.225 181.516 117.176C179.994 121.907 176.597 126.765 170.507 131.129C155.531 141.857 140.943 144.121 130.903 144.121" fill="#FB544B"/>
    <path d="M6.58397 106.604C6.58397 106.604 15.015 138.777 98.3796 139.292C181.244 139.803 189.182 105.58 189.182 105.58C189.182 105.58 190.012 92.1749 189.345 86.6116C187.344 69.9252 173.761 36.4995 97.1001 36.115C26.4136 35.7622 9.88035 65.4979 6.37127 83.6765C4.83069 91.6563 6.58397 106.604 6.58397 106.604" fill="#FFA944"/>
    <path d="M154.749 57.5145C154.652 57.9696 156.581 59.5253 157.376 59.7299C158.466 60.0122 161.255 59.4265 161.142 58.7175C161.03 58.0084 159.543 56.6608 158.453 56.3785C157.469 56.1245 154.983 56.4103 154.749 57.5145" fill="#EAE8A9"/>
    <path d="M71.0309 134.999C65.5526 134.999 41.1622 128.61 34.2622 124.951C26.9844 121.092 17.119 115.822 16.3986 112.237C15.1487 106.021 14.8827 97.777 16.5288 92.8663C16.5807 92.891 16.6322 92.9157 16.6847 92.9404C24.3615 96.507 33.3951 93.145 41.1082 97.0115C49.0369 100.987 54.3459 108.678 62.4446 112.858C66.5382 114.971 70.7038 116.248 74.9015 116.76C76.8393 123.572 76.8887 133.806 71.7544 134.939C71.5738 134.981 71.3311 134.999 71.0309 134.999" fill="#FFB94C"/>
    <path d="M188.811 85.7226C186.433 68.7681 172.008 36.4925 96.682 36.115C28.3172 35.7728 10.9588 63.7728 6.69476 82.0431C7.18618 83.1755 7.31599 83.9905 7.75308 84.636C10.1432 88.1744 12.8229 91.1448 16.6847 92.9404C24.3615 96.507 33.3951 93.145 41.1082 97.0115C49.0369 100.987 54.3459 108.678 62.4446 112.858C73.2625 118.443 84.5761 118.196 95.6875 113.37C106.099 108.844 115.415 108.604 126.442 110.802C135.87 112.678 148.973 113.479 157.241 106.716C160.211 104.286 160.608 100.183 163.186 97.396C165.946 94.4115 170.197 92.9545 174.076 91.9033C180.322 90.2064 185.46 89.3915 188.811 85.7226" fill="#F68D32"/>
    <path d="M47.6692 78.6847C48.0163 78.9881 50.2526 77.9544 50.799 77.323C51.5487 76.4622 52.3421 73.647 51.681 73.4212C51.0199 73.1955 49.1681 73.9222 48.4185 74.783C47.7419 75.5626 46.8313 77.958 47.6692 78.6847Z" fill="#EAE8A9"/>
    <path d="M36.2007 64.8382C36.5482 65.138 38.7841 64.1044 39.3313 63.4764C40.0806 62.6121 40.8743 59.8005 40.2129 59.5747C39.5514 59.3454 37.6997 60.0721 36.9504 60.9364C36.2734 61.7125 35.3632 64.1114 36.2007 64.8382" fill="#EAE8A9"/>
    <path d="M80.6 52.0641C80.558 52.5297 82.6598 53.8315 83.4737 53.9338C84.5895 54.0714 87.2862 53.1365 87.0893 52.4486C86.8921 51.7572 85.2556 50.6106 84.1397 50.4695C83.1322 50.3425 80.7001 50.9422 80.6 52.0641Z" fill="#EAE8A9"/>
    <path d="M61.5083 47.5697C61.1683 47.8801 61.8339 50.3073 62.3589 50.9564C63.0775 51.8454 65.6655 53.066 65.9805 52.4274C66.2952 51.7854 65.8683 49.7922 65.1493 48.9032C64.4999 48.1024 62.3286 46.8253 61.5083 47.5697" fill="#EAE8A9"/>
    <path d="M81.4657 39.7592C81.3009 39.3253 78.8572 39.1277 78.0843 39.4099C77.0249 39.798 75.019 41.8759 75.4935 42.4015C75.9687 42.9271 77.9319 43.2023 78.9909 42.8178C79.9473 42.4685 81.8629 40.8105 81.4657 39.7592" fill="#EAE8A9"/>
    <path d="M72.2765 66.0764C72.0726 66.4927 73.5673 68.4929 74.2888 68.8951C75.2773 69.4454 78.1203 69.5901 78.1813 68.8739C78.2427 68.1613 77.1272 66.475 76.1391 65.9247C75.2462 65.4273 72.7687 65.071 72.2765 66.0764" fill="#EAE8A9"/>
    <path d="M47.1372 46.2926C47.2071 46.7548 49.5523 47.4886 50.3662 47.3827C51.4817 47.2381 53.8756 45.6541 53.5218 45.0367C53.168 44.4194 51.3085 43.7138 50.193 43.8549C49.1858 43.9855 46.9689 45.1779 47.1372 46.2926" fill="#EAE8A9"/>
    <path d="M118.35 43.4528C118.596 43.0612 117.32 40.9057 116.644 40.4259C115.719 39.7698 112.908 39.3112 112.772 40.0167C112.637 40.7223 113.569 42.5214 114.494 43.1776C115.329 43.7703 117.755 44.3982 118.35 43.4528Z" fill="#EAE8A9"/>
    <path d="M93.8545 42.786C93.6019 43.1741 94.8451 45.3472 95.5126 45.8375C96.4273 46.5113 99.2316 47.0123 99.378 46.3138C99.5247 45.6118 98.6202 43.795 97.7055 43.1247C96.8792 42.5179 94.4638 41.8476 93.8545 42.786Z" fill="#EAE8A9"/>
    <path d="M146.071 80.9742C146.474 80.7555 146.401 78.2367 146.045 77.4747C145.558 76.4304 143.335 74.603 142.879 75.1428C142.422 75.6861 142.366 77.7251 142.854 78.7694C143.294 79.7077 145.099 81.4928 146.071 80.9742" fill="#EAE8A9"/>
    <path d="M98.3933 61.6596C98.7405 61.9595 100.977 60.9259 101.524 60.2979C102.273 59.4371 103.067 56.622 102.405 56.3962C101.744 56.1669 99.8926 56.8936 99.143 57.7544C98.466 58.534 97.5555 60.9329 98.3933 61.6596" fill="#EAE8A9"/>
    <path d="M90.0166 83.6342C90.3638 83.934 92.6 82.9004 93.1465 82.2724C93.8961 81.4081 94.6899 78.5965 94.0284 78.3672C93.367 78.1414 91.5156 78.8681 90.766 79.7289C90.0893 80.5085 89.1788 82.9074 90.0166 83.6342" fill="#EAE8A9"/>
    <path d="M124.976 58.8303C125.22 58.4388 123.936 56.2903 123.26 55.8141C122.332 55.1579 119.519 54.7134 119.386 55.4155C119.253 56.121 120.192 57.9167 121.119 58.5728C121.956 59.162 124.384 59.7793 124.976 58.8303Z" fill="#EAE8A9"/>
    <path d="M124.12 73.5341C123.986 73.0896 121.562 72.7122 120.772 72.9344C119.688 73.2413 117.541 75.164 117.978 75.7249C118.415 76.2858 120.353 76.7056 121.437 76.3987C122.416 76.12 124.442 74.6101 124.12 73.5341" fill="#EAE8A9"/>
    <path d="M144.156 48.1588C144.339 47.732 142.752 45.8093 142.013 45.446C140.999 44.945 138.153 44.945 138.126 45.6612C138.098 46.3773 139.292 48.0071 140.305 48.5081C141.221 48.9596 143.712 49.1889 144.156 48.1588Z" fill="#EAE8A9"/>
    <path d="M69.3774 98.8459C69.2885 98.8459 69.1985 98.8459 69.1079 98.8424C65.5131 98.7613 61.7309 96.3589 58.5161 94.5915C53.7434 91.9703 49.8258 88.6613 44.6759 86.5834C41.8576 85.4475 39.0452 84.1245 36.0872 83.4084C33.5659 82.7946 31.156 82.6394 28.7487 81.5352C24.8731 79.7536 21.4165 78.4307 23.015 73.6435V71.8267C23.7463 70.5214 24.5725 69.1456 25.6069 67.9109C30.2861 62.3264 37.0873 59.6876 43.5251 57.2429C49.5478 54.9569 55.7753 52.2158 61.9669 50.2226C62.095 50.5366 62.2312 50.7976 62.3589 50.9564C62.9378 51.6725 64.7303 52.6038 65.5695 52.6038C65.772 52.6038 65.9191 52.5509 65.9805 52.4275C66.2627 51.8524 65.9484 50.1908 65.3617 49.2137C66.335 48.9491 67.3066 48.7057 68.2746 48.494C72.0278 47.6755 76.0883 46.3773 80.1142 46.3773C80.4313 46.3773 80.7485 46.3844 81.0653 46.402C85.0231 46.6137 88.9608 47.6015 92.7052 48.9561C97.0902 50.5401 109.552 55.9552 104.131 62.4605C101.312 65.8401 96.3183 67.6957 92.7062 70.1828C89.3862 72.4688 86.1583 75.5873 83.8833 78.8646C79.3653 85.3769 79.5529 98.846 69.3774 98.846V98.8459ZM51.3794 73.3789C50.5712 73.3789 49.0736 74.028 48.4185 74.783C47.7419 75.5626 46.8314 77.958 47.6692 78.6847C47.7115 78.7235 47.7828 78.7411 47.8752 78.7411C48.5392 78.7411 50.3197 77.8768 50.7991 77.323C51.5487 76.4622 52.3421 73.647 51.681 73.4212C51.5977 73.393 51.4955 73.3789 51.3794 73.3789ZM73.9028 65.4343C73.1701 65.4343 72.5066 65.6072 72.2766 66.0764C72.0726 66.4927 73.5674 68.4929 74.2888 68.8951C74.8063 69.1844 75.8329 69.3608 76.7018 69.3608C77.492 69.3608 78.1524 69.2161 78.1813 68.8739C78.2427 68.1613 77.1272 66.475 76.1391 65.9247C75.6636 65.6566 74.7382 65.4343 73.9028 65.4343ZM39.9113 59.5324C39.1031 59.5324 37.6055 60.1815 36.9504 60.9364C36.2735 61.7125 35.3633 64.1114 36.2008 64.8382C36.2435 64.8734 36.3147 64.8911 36.4071 64.8911C37.0711 64.8911 38.8512 64.0268 39.3313 63.4764C40.0806 62.6121 40.8744 59.8005 40.2129 59.5747C40.1296 59.543 40.0274 59.5324 39.9113 59.5324V59.5324ZM102.104 56.3539C101.296 56.3539 99.7985 57.003 99.143 57.7544C98.4661 58.534 97.5555 60.9329 98.3934 61.6596C98.4361 61.6949 98.507 61.7126 98.5994 61.7126C99.263 61.7126 101.044 60.8482 101.524 60.2979C102.273 59.4371 103.067 56.622 102.405 56.3962C102.322 56.368 102.22 56.3539 102.104 56.3539V56.3539ZM83.842 50.4519C82.7209 50.4519 80.6913 51.041 80.6 52.0641C80.558 52.5297 82.6598 53.8315 83.4737 53.9338C83.5495 53.9409 83.6328 53.9479 83.722 53.9479C84.943 53.9479 87.2728 53.0871 87.0893 52.4486C86.8921 51.7572 85.2556 50.6106 84.1397 50.4695C84.0508 50.4589 83.9507 50.4519 83.842 50.4519" fill="#F89738"/>
    <path d="M47.8752 78.7411C47.7828 78.7411 47.7115 78.7235 47.6692 78.6847C46.8313 77.958 47.7419 75.5626 48.4185 74.783C49.0736 74.028 50.5712 73.3789 51.3794 73.3789C51.4954 73.3789 51.5977 73.393 51.681 73.4212C52.3421 73.647 51.5487 76.4622 50.799 77.323C50.3196 77.8768 48.5391 78.7411 47.8752 78.7411Z" fill="#EEE097"/>
    <path d="M36.4071 64.8911C36.3147 64.8911 36.2434 64.8734 36.2007 64.8382C35.3632 64.1114 36.2734 61.7125 36.9504 60.9364C37.6055 60.1815 39.103 59.5324 39.9112 59.5324C40.0273 59.5324 40.1296 59.543 40.2129 59.5747C40.8743 59.8005 40.0806 62.6121 39.3313 63.4764C38.8512 64.0268 37.071 64.8911 36.4071 64.8911" fill="#EEE097"/>
    <path d="M83.722 53.9479C83.6328 53.9479 83.5495 53.9408 83.4737 53.9338C82.6598 53.8315 80.558 52.5297 80.6 52.0641C80.6914 51.041 82.7209 50.4519 83.842 50.4519C83.9506 50.4519 84.0508 50.459 84.1397 50.4695C85.2556 50.6106 86.8921 51.7572 87.0893 52.4486C87.2727 53.0871 84.943 53.9479 83.722 53.9479" fill="#EEE097"/>
    <path d="M65.5695 52.6038C64.7302 52.6038 62.9378 51.6725 62.3589 50.9563C62.2311 50.7976 62.095 50.5365 61.9669 50.2226C63.1007 49.8592 64.2321 49.5205 65.3617 49.2136C65.9484 50.1908 66.2627 51.8524 65.9805 52.4274C65.9191 52.5509 65.772 52.6038 65.5695 52.6038" fill="#EEE097"/>
    <path d="M76.7018 69.3608C75.8329 69.3608 74.8063 69.1844 74.2888 68.8951C73.5673 68.4929 72.0726 66.4927 72.2765 66.0764C72.5065 65.6072 73.1701 65.4344 73.9028 65.4344C74.7382 65.4344 75.6635 65.6566 76.1391 65.9247C77.1272 66.4751 78.2427 68.1613 78.1813 68.8739C78.1524 69.2161 77.492 69.3608 76.7018 69.3608Z" fill="#EEE097"/>
    <path d="M98.5994 61.7126C98.507 61.7126 98.436 61.6949 98.3933 61.6596C97.5555 60.9329 98.466 58.534 99.143 57.7544C99.7984 57.003 101.296 56.3539 102.104 56.3539C102.22 56.3539 102.322 56.368 102.405 56.3962C103.067 56.622 102.273 59.4371 101.524 60.2979C101.044 60.8482 99.2629 61.7125 98.5994 61.7125" fill="#EEE097"/>
  </g>
</svg>
