<?xml version="1.0" encoding="UTF-8" standalone="no"?>
<!-- Created with Inkscape (http://www.inkscape.org/) -->

<svg
   width="190.98685mm"
   height="135.53017mm"
   viewBox="0 0 190.98685 135.53017"
   version="1.1"
   id="svg1005"
   inkscape:version="1.1.1 (3bf5ae0d25, 2021-09-20)"
   sodipodi:docname="sauce-bbq.svg"
   xmlns:inkscape="http://www.inkscape.org/namespaces/inkscape"
   xmlns:sodipodi="http://sodipodi.sourceforge.net/DTD/sodipodi-0.dtd"
   xmlns="http://www.w3.org/2000/svg"
   xmlns:svg="http://www.w3.org/2000/svg">
  <sodipodi:namedview
     id="namedview1007"
     pagecolor="#505050"
     bordercolor="#ffffff"
     borderopacity="1"
     inkscape:pageshadow="0"
     inkscape:pageopacity="0"
     inkscape:pagecheckerboard="1"
     inkscape:document-units="mm"
     showgrid="false"
     inkscape:zoom="0.72337262"
     inkscape:cx="531.53795"
     inkscape:cy="484.5359"
     inkscape:window-width="1920"
     inkscape:window-height="1001"
     inkscape:window-x="-9"
     inkscape:window-y="-9"
     inkscape:window-maximized="1"
     inkscape:current-layer="layer1" />
  <defs
     id="defs1002" />
  <g
     inkscape:label="Layer 1"
     inkscape:groupmode="layer"
     id="layer1"
     transform="translate(35.5082,-20.38393)">
    <g
       id="g982"
       transform="translate(255.59813,-252.44584)">
      <path
         d="m -104.67031,320.68407 h -186.34782 v 30.8857 c 0,0 -1.57692,4.10986 8.61483,8.31497 1.58045,3.54189 3.49603,7.08025 5.81731,10.5022 15.17297,22.35906 24.94492,27.12156 36.41725,32.11689 13.43731,5.85611 43.03889,5.85611 43.03889,5.85611 0,0 29.59806,0 43.03889,-5.85611 11.47234,-4.99533 21.24075,-9.75783 36.41373,-32.11689 2.36008,-3.47486 4.29683,-7.06967 5.89139,-10.66447 11.03489,-4.14867 11.66636,-8.1527 11.66636,-8.1527 v -30.8857 h -4.55083"
         style="fill:#ffe5bb;fill-opacity:1;fill-rule:nonzero;stroke:none;stroke-width:0.0352778"
         id="path366" />
      <path
         d="m -100.11948,320.68407 c 0,11.84981 -42.75314,21.45595 -95.49342,21.45595 -52.74028,0 -95.49343,-9.60614 -95.49343,-21.45595 0,-11.8498 42.75315,-21.45594 95.49343,-21.45594 52.74028,0 95.49342,9.60614 95.49342,21.45594"
         style="fill:#fff7dc;fill-opacity:1;fill-rule:nonzero;stroke:none;stroke-width:0.0352778"
         id="path368" />
      <path
         d="m -111.78584,359.46141 c 11.03489,-4.15219 11.66636,-8.15269 11.66636,-8.15269 v -30.8857 h -4.55083 -29.53809 c -2.36361,1.63336 -4.66725,3.33728 -6.90386,5.11528 -3.01978,2.40241 -5.08,4.42383 -5.23522,8.4208 -0.22225,5.75734 1.397,10.86203 -1.01248,16.48178 -3.23144,7.53534 -11.27477,11.811 -19.13114,14.15698 -15.91028,4.75191 -32.87536,3.94052 -49.45592,3.0868 4.20864,0.85725 8.32556,2.15547 12.26256,3.86997 1.34761,0.58561 2.71286,1.24531 3.69711,2.33539 3.43606,3.81353 0.26811,10.02595 -3.85939,13.07748 -7.41186,5.48216 -17.16969,6.56872 -26.38778,6.36764 -10.78441,-0.23637 -21.53355,-1.99673 -31.84172,-5.18231 7.85636,7.76111 14.53092,10.87614 21.9075,14.08994 13.43731,5.85259 43.03889,5.85259 43.03889,5.85259 0,0 29.59806,0 43.03889,-5.85259 11.47234,-4.99886 21.24075,-9.75783 36.41373,-32.12041 2.36008,-3.47487 4.29683,-7.06967 5.89139,-10.66095"
         style="fill:#f9d4af;fill-opacity:1;fill-rule:nonzero;stroke:none;stroke-width:0.0352778"
         id="path370" />
      <path
         d="m -105.68984,320.06671 c 0,9.25337 -40.25901,16.75342 -89.92306,16.75342 -49.66053,0 -89.92307,-7.50005 -89.92307,-16.75342 0,-9.24983 40.26254,-16.74989 89.92307,-16.74989 49.66405,0 89.92306,7.50006 89.92306,16.74989"
         style="fill:#ffe5bb;fill-opacity:1;fill-rule:nonzero;stroke:none;stroke-width:0.0352778"
         id="path372" />
      <path
         d="m -275.2031,320.08082 c 1.57339,-3.58775 4.64961,-6.33941 8.02216,-8.33613 3.18206,-1.88737 6.69925,-3.20323 10.33992,-3.86645 1.016,-0.18697 2.06728,-0.33161 2.95628,-0.85372 1.16417,-0.68439 1.87678,-1.90853 2.61761,-3.03742 7.24253,-11.03136 20.66572,-16.15017 33.50331,-19.20875 12.83758,-3.05858 26.36661,-4.8895 37.5285,-11.92742 1.88736,2.70934 5.51039,3.39725 8.72067,4.16278 14.62617,3.47486 27.67894,13.13745 35.26719,26.11614 1.49578,2.55764 2.83987,5.29872 5.09764,7.21431 1.27706,1.08303 2.79048,1.85208 4.15925,2.81164 4.71312,3.302 7.60942,9.04875 7.46125,14.80255 -0.0212,0.92075 -0.14111,1.89795 -0.70555,2.62467 -0.47625,0.61736 -1.21003,0.97014 -1.92264,1.28764 -11.15836,4.96358 -23.6855,5.61622 -35.88456,6.19125 -35.34833,1.66864 -71.34225,3.34433 -106.12967,-4.51908 -7.53534,-1.70039 -15.33525,-3.65478 -11.03136,-13.46201"
         style="fill:#ff5e2c;fill-opacity:1;fill-rule:nonzero;stroke:none;stroke-width:0.0352778"
         id="path374" />
      <path
         d="m -158.04207,338.04074 c 12.19906,-0.57855 24.7262,-1.22766 35.88456,-6.19125 0.71261,-0.3175 1.44639,-0.67028 1.92264,-1.28764 0.56444,-0.72672 0.68439,-1.70391 0.70555,-2.62819 0.14817,-5.75028 -2.74813,-11.49703 -7.46125,-14.79903 -1.36877,-0.96308 -2.88219,-1.72861 -4.15925,-2.81164 -2.25777,-1.91558 -3.60186,-4.65667 -5.09764,-7.21431 -7.58825,-12.97869 -20.64102,-22.64127 -35.26719,-26.11966 -3.21028,-0.762 -6.83331,-1.44992 -8.72067,-4.15925 -0.0564,0.0353 -0.11289,0.0706 -0.16933,0.1023 0.3563,1.00895 0.88547,2.08492 1.61925,3.22792 3.63008,5.67619 10.65389,5.6268 14.77433,10.44222 4.44147,5.19289 0.93839,13.82889 -4.98122,17.24731 -5.91608,3.41842 -13.13745,3.26672 -19.96722,3.51719 -7.46831,0.27517 -14.91192,1.15006 -22.24264,2.61409 -1.43581,0.28575 -2.93512,0.62794 -4.04989,1.58044 -1.11831,0.9525 -1.68628,2.71286 -0.85725,3.92289 0.59972,0.87136 1.70391,1.21003 2.7305,1.46756 5.10116,1.27705 10.36108,1.92263 15.621,1.91205 1.88383,-0.004 3.96522,-0.0247 5.3975,1.20297 2.55058,2.18723 1.08655,6.50523 -1.35467,8.81592 -6.40997,6.06425 -16.43239,5.45395 -25.20245,4.45558 -7.83519,-0.89605 -15.67039,-1.78858 -23.50911,-2.68463 -7.97983,-0.91017 -16.88747,-2.32834 -21.68525,-8.77006 -1.1818,-1.58397 -2.08139,-3.44664 -3.67947,-4.60728 -1.38995,-1.00542 -3.15031,-1.32997 -4.86834,-1.13594 -1.03716,1.17475 -1.91205,2.48002 -2.54352,3.91936 -4.30389,9.80722 3.49602,11.76161 11.03136,13.462 34.78742,7.86342 70.78134,6.18772 106.12967,4.51908"
         style="fill:#f43b22;fill-opacity:1;fill-rule:nonzero;stroke:none;stroke-width:0.0352778"
         id="path376" />
      <path
         d="m -203.46574,303.04871 c -8.15975,0 -16.39358,-0.24694 -24.14058,-2.71639 -1.70392,-0.54327 -3.60186,-1.43227 -4.0252,-3.17147 -1.2453,-4.66372 8.10331,-7.48594 11.25009,-8.19503 1.0795,-0.24341 4.00402,-0.66675 6.43114,-0.66675 2.89983,0 5.09058,0.60678 2.57175,2.86103 -0.85725,0.76553 -1.92264,1.56281 -1.93675,2.70933 -0.0212,1.3582 1.42169,2.20839 2.67052,2.73756 4.30742,1.83444 8.71714,3.43253 13.19742,4.78367 -0.17286,1.31233 -1.89794,1.64747 -3.22086,1.651 -0.93133,0.004 -1.86267,0.007 -2.79753,0.007"
         style="fill:#ff7e56;fill-opacity:1;fill-rule:nonzero;stroke:none;stroke-width:0.0352778"
         id="path378" />
      <path
         d="m -245.07588,324.23302 c -1.69333,0 -3.37961,-0.14111 -5.02003,-0.54328 -2.87514,-0.70555 -5.63033,-2.29305 -7.2143,-4.79425 -0.8255,-1.29822 -1.30881,-2.91042 -0.89253,-4.39208 0.508,-1.8027 1.66864,-2.55411 2.8963,-2.55411 1.44287,0 2.97745,1.04422 3.63362,2.64936 0.73377,1.79916 2.36361,3.20322 4.24744,3.67241 1.35467,0.33514 2.77283,0.20814 4.16278,0.28928 1.39347,0.0811 2.87514,0.43039 3.79236,1.47814 0.92075,1.04775 0.92075,2.95275 -0.28928,3.6442 -0.45155,0.26105 -0.9913,0.3175 -1.50989,0.35983 -1.26294,0.11289 -2.53647,0.1905 -3.80647,0.1905"
         style="fill:#ff7e56;fill-opacity:1;fill-rule:nonzero;stroke:none;stroke-width:0.0352778"
         id="path380" />
      <path
         d="m -105.75687,320.68407 c -1.74272,8.96762 -41.2997,16.13606 -89.85603,16.13606 -48.55281,0 -88.11331,-7.16844 -89.85604,-16.13606 h -5.63739 c 0,11.84981 42.75315,21.45595 95.49343,21.45595 52.74028,0 95.49342,-9.60614 95.49342,-21.45595 h -5.63739"
         style="fill:#fff7dc;fill-opacity:1;fill-rule:nonzero;stroke:none;stroke-width:0.0352778"
         id="path382" />
    </g>
  </g>
</svg>
